<svg width="24" height="24" viewBox="0 0 24 24" fill="none" xmlns="http://www.w3.org/2000/svg">
<path d="M22.2026 4.13794H1.79742C0.804703 4.13794 0 4.94264 0 5.93536V9.37931H24V5.93536C24 4.94264 23.1953 4.13794 22.2026 4.13794Z" fill="#41479B"/>
<path d="M0 18.0647C0 19.0573 0.804703 19.8621 1.79742 19.8621H22.2026C23.1952 19.8621 24 19.0574 24 18.0647V14.6207H0V18.0647Z" fill="#41479B"/>
<path d="M24 9.37921H0V14.6203H24V9.37921Z" fill="#F5F5F5"/>
<path d="M12 10.4849L10.7378 12.3411H13.2622L12 10.4849Z" fill="#AFEBFF"/>
<path d="M10.7379 12.3411L9.92114 13.529H14.079L13.2623 12.3411H10.7379Z" fill="#557DE6"/>
<path d="M12.323 12.2373C12.328 12.2269 12.3333 12.2168 12.3379 12.2062C12.3334 12.2167 12.328 12.227 12.323 12.2373Z" fill="#73AF00"/>
<path d="M12.3579 12.1518C12.361 12.1424 12.3648 12.1334 12.3674 12.1239C12.3647 12.1334 12.361 12.1424 12.3579 12.1518Z" fill="#73AF00"/>
<path d="M12.2803 12.3152C12.2866 12.305 12.2929 12.2949 12.2989 12.2845C12.293 12.2949 12.2866 12.3051 12.2803 12.3152Z" fill="#73AF00"/>
<path d="M12.473 11.9694C12.4617 11.9694 12.4509 11.9713 12.4409 11.9746C12.4509 11.9712 12.4617 11.9694 12.473 11.9694Z" fill="#73AF00"/>
<path d="M12.414 11.989C12.3983 12.0013 12.3875 12.0184 12.3851 12.0379L12.385 12.038L12.3851 12.0379C12.3875 12.0184 12.3982 12.0012 12.414 11.989Z" fill="#73AF00"/>
<path d="M12.3757 12.543C12.3934 12.5598 12.4109 12.5757 12.4286 12.591C12.5228 12.5094 12.6211 12.4058 12.6901 12.2845C12.6852 12.2932 12.6798 12.3016 12.6746 12.3101C12.6101 12.1916 12.5761 12.0891 12.5596 12.0283C12.5502 11.9936 12.5142 11.9694 12.4732 11.9694C12.489 12.1079 12.523 12.3623 12.3757 12.543Z" fill="#73AF00"/>
<path d="M12.749 12.1518C12.7521 12.1424 12.7559 12.1334 12.7585 12.1239C12.7559 12.1334 12.7521 12.1424 12.749 12.1518Z" fill="#73AF00"/>
<path d="M12.8053 11.989C12.7896 12.0013 12.7788 12.0184 12.7764 12.0379V12.038V12.0379C12.7789 12.0184 12.7895 12.0012 12.8053 11.989Z" fill="#73AF00"/>
<path d="M12.7144 12.2373C12.7194 12.2269 12.7247 12.2168 12.7292 12.2062C12.7247 12.2167 12.7194 12.227 12.7144 12.2373Z" fill="#73AF00"/>
<path d="M13.516 12.6381C13.3729 12.6381 13.2374 12.5694 13.1547 12.4525C13.0302 12.2766 12.9737 12.1125 12.9509 12.0284C12.9415 11.9936 12.9055 11.9694 12.8644 11.9694L12.8645 11.9694C12.8833 12.1347 12.9282 12.4651 12.6597 12.6381H12.4848C12.4776 12.6324 12.4707 12.627 12.4633 12.621C12.4634 12.6211 12.4636 12.6213 12.4638 12.6214C12.4148 12.6853 12.3169 12.7032 12.2411 12.664C11.9233 12.5003 11.9727 12.1433 11.9925 11.9694C11.9515 11.9695 11.9156 11.9936 11.9061 12.0284C11.8896 12.0892 11.8556 12.1917 11.7912 12.3102C11.7859 12.3016 11.7806 12.2933 11.7756 12.2846C11.8533 12.421 11.9684 12.5361 12.0725 12.6214C12.0236 12.6853 11.9257 12.7032 11.8498 12.6641C11.532 12.5004 11.5814 12.1433 11.6012 11.9695C11.5602 11.9695 11.5242 11.9937 11.5148 12.0284C11.4983 12.0892 11.4643 12.1917 11.3999 12.3102C11.3947 12.3017 11.3893 12.2933 11.3843 12.2846C11.4619 12.421 11.5771 12.5362 11.6812 12.6215C11.6322 12.6854 11.5344 12.7033 11.4585 12.6641C11.1408 12.5004 11.1901 12.1433 11.2099 11.9695L11.21 11.9695C11.169 11.9695 11.133 11.9936 11.1236 12.0285C11.1007 12.1126 11.0442 12.2767 10.9197 12.4526C10.8371 12.5695 10.7016 12.6382 10.5585 12.6382H10.4409V12.7867H13.4851H13.5593V12.6382H13.516V12.6381Z" fill="#73AF00"/>
<path d="M12.1277 12.2061C12.1322 12.2167 12.1375 12.227 12.1425 12.2373C12.1376 12.227 12.1322 12.2167 12.1277 12.2061Z" fill="#73AF00"/>
<path d="M12.0984 12.1239C12.101 12.1334 12.1048 12.1424 12.1079 12.1517C12.1048 12.1424 12.101 12.1334 12.0984 12.1239Z" fill="#73AF00"/>
<path d="M12.0807 12.038V12.0379C12.0782 12.0184 12.0676 12.0013 12.0518 11.989C12.0675 12.0013 12.0782 12.0184 12.0807 12.0379V12.038Z" fill="#73AF00"/>
<path d="M12.167 12.2845C12.1729 12.295 12.1793 12.3051 12.1856 12.3152C12.1792 12.3051 12.1729 12.295 12.167 12.2845Z" fill="#73AF00"/>
<path d="M12.2353 12.3874C12.2345 12.3864 12.2338 12.3854 12.2331 12.3844C12.2394 12.3759 12.2455 12.3673 12.2517 12.3587C12.2456 12.3673 12.2393 12.3758 12.233 12.3843C12.2266 12.3758 12.2204 12.3673 12.2144 12.3587C12.2212 12.3684 12.2281 12.3779 12.2353 12.3874Z" fill="#73AF00"/>
<path d="M12.2678 12.4285C12.275 12.4372 12.2823 12.4459 12.2897 12.4542C12.2823 12.4459 12.275 12.4372 12.2678 12.4285Z" fill="#73AF00"/>
<path d="M12.3472 12.5156C12.3403 12.5087 12.3335 12.5014 12.3267 12.4943C12.3336 12.5015 12.3403 12.5087 12.3472 12.5156Z" fill="#73AF00"/>
<path d="M12.8645 11.9694L12.8643 11.9694C12.8418 11.9694 12.821 11.9767 12.8052 11.989C12.7895 12.0013 12.7787 12.0184 12.7763 12.0379V12.038C12.7726 12.0673 12.7664 12.0958 12.7586 12.1239C12.7559 12.1333 12.7522 12.1424 12.7491 12.1517C12.743 12.1701 12.7368 12.1884 12.7292 12.2061C12.7246 12.2167 12.7193 12.227 12.7143 12.2373C12.7066 12.2532 12.6988 12.2691 12.69 12.2845C12.621 12.4057 12.5227 12.5094 12.4284 12.5909C12.4109 12.5758 12.3933 12.5598 12.3756 12.5429C12.5228 12.3623 12.4889 12.1078 12.4732 11.9694L12.473 11.9693C12.4617 11.9693 12.4509 11.9712 12.4409 11.9745C12.4309 11.9779 12.4218 11.9828 12.4139 11.9889C12.3982 12.0012 12.3874 12.0183 12.385 12.0378L12.3849 12.0379C12.3813 12.0672 12.375 12.0958 12.3672 12.1238C12.3646 12.1333 12.3608 12.1423 12.3577 12.1517C12.3517 12.17 12.3454 12.1883 12.3378 12.2061C12.3333 12.2167 12.328 12.2269 12.323 12.2372C12.3153 12.2532 12.3074 12.269 12.2986 12.2844C12.2927 12.2949 12.2864 12.305 12.28 12.3151C12.2708 12.3298 12.2614 12.3444 12.2514 12.3586C12.2453 12.3673 12.2392 12.3759 12.2328 12.3843C12.2264 12.3758 12.2202 12.3673 12.214 12.3586C12.204 12.3444 12.1946 12.3299 12.1854 12.3151C12.1791 12.305 12.1728 12.2948 12.1668 12.2844C12.158 12.269 12.1502 12.2532 12.1425 12.2372C12.1375 12.2268 12.1322 12.2167 12.1276 12.2061C12.12 12.1884 12.1138 12.17 12.1078 12.1517C12.1047 12.1423 12.1009 12.1333 12.0982 12.1238C12.0904 12.0958 12.0842 12.0672 12.0805 12.0379V12.0378C12.0781 12.0183 12.0674 12.0012 12.0516 11.9889C12.0358 11.9766 12.0151 11.9693 11.9925 11.9693L11.9924 11.9694C11.9726 12.1432 11.9233 12.5003 12.241 12.664C12.2946 12.6916 12.3589 12.6905 12.4093 12.6651C12.4415 12.6489 12.4761 12.638 12.5122 12.638H12.6596C12.9281 12.4651 12.8833 12.1347 12.8645 11.9694Z" fill="#FFE15A"/>
<path d="M11.707 12.1239C11.7097 12.1334 11.7135 12.1424 11.7165 12.1517C11.7135 12.1424 11.7097 12.1334 11.707 12.1239Z" fill="#73AF00"/>
<path d="M11.6894 12.038L11.6893 12.0379C11.6869 12.0184 11.6762 12.0013 11.6604 11.989C11.6761 12.0013 11.6869 12.0184 11.6893 12.0379L11.6894 12.038Z" fill="#73AF00"/>
<path d="M11.7363 12.2061C11.7409 12.2167 11.7462 12.227 11.7512 12.2373C11.7461 12.227 11.7409 12.2167 11.7363 12.2061Z" fill="#73AF00"/>
<path d="M11.6013 11.9694C11.6126 11.9694 11.6234 11.9713 11.6334 11.9746C11.6234 11.9712 11.6126 11.9694 11.6013 11.9694Z" fill="#73AF00"/>
<path d="M11.8497 12.664C11.9256 12.7031 12.0235 12.6852 12.0724 12.6213C11.9683 12.536 11.8532 12.4209 11.7755 12.2845C11.7667 12.2691 11.7589 12.2533 11.7512 12.2373C11.7462 12.2269 11.7409 12.2168 11.7363 12.2062C11.7287 12.1884 11.7225 12.1701 11.7164 12.1517C11.7133 12.1424 11.7096 12.1334 11.7069 12.1239C11.699 12.0959 11.6929 12.0673 11.6892 12.038L11.6892 12.0379C11.6867 12.0183 11.676 12.0013 11.6602 11.989C11.6524 11.9829 11.6432 11.978 11.6332 11.9746C11.6232 11.9712 11.6124 11.9694 11.6011 11.9694L11.601 11.9694C11.5813 12.1433 11.5319 12.5003 11.8497 12.664Z" fill="#FFE15A"/>
<path d="M11.3157 12.1239C11.3183 12.1334 11.3221 12.1424 11.3252 12.1517C11.3221 12.1424 11.3183 12.1334 11.3157 12.1239Z" fill="#73AF00"/>
<path d="M11.345 12.2061C11.3495 12.2167 11.3548 12.227 11.3598 12.2373C11.3548 12.227 11.3495 12.2167 11.345 12.2061Z" fill="#73AF00"/>
<path d="M11.298 12.038V12.0379C11.2955 12.0184 11.2848 12.0013 11.269 11.989C11.2847 12.0013 11.2955 12.0184 11.298 12.0379V12.038Z" fill="#73AF00"/>
<path d="M11.4583 12.664C11.5342 12.7031 11.6321 12.6852 11.681 12.6213C11.5769 12.536 11.4618 12.4209 11.3841 12.2845C11.3754 12.2691 11.3676 12.2533 11.3598 12.2373C11.3548 12.2269 11.3495 12.2168 11.345 12.2062C11.3374 12.1884 11.3311 12.1701 11.3251 12.1517C11.322 12.1424 11.3182 12.1334 11.3156 12.1239C11.3077 12.0959 11.3015 12.0673 11.2979 12.038V12.0379C11.2954 12.0183 11.2847 12.0013 11.2689 11.989C11.2532 11.9767 11.2324 11.9694 11.2099 11.9694L11.2097 11.9694C11.1899 12.1433 11.1405 12.5003 11.4583 12.664Z" fill="#FFE15A"/>
<path d="M11.3745 11.379C11.3683 11.4027 11.3621 11.4264 11.356 11.4501C11.5586 11.3893 11.7823 11.3527 12.0251 11.3527C12.2677 11.3529 12.4915 11.3891 12.6941 11.4501C12.688 11.4264 12.6818 11.4027 12.6756 11.379C12.474 11.327 12.257 11.2971 12.0251 11.2971C11.7931 11.2971 11.5761 11.327 11.3745 11.379Z" fill="#41479B"/>
<path d="M11.3825 11.3481C11.3764 11.3718 11.3702 11.3955 11.364 11.4192C11.5645 11.3582 11.7854 11.3217 12.025 11.3216C12.2647 11.3217 12.4856 11.3582 12.6861 11.4192C12.6799 11.3955 12.6737 11.3718 12.6676 11.3481C12.4682 11.2957 12.254 11.266 12.025 11.266C11.7961 11.266 11.5819 11.2959 11.3825 11.3481Z" fill="#5AA0E6"/>
<path d="M11.3899 11.3196C11.3837 11.3432 11.3775 11.367 11.3713 11.3906C11.5698 11.3295 11.7882 11.2927 12.0249 11.2928C12.2618 11.2928 12.4801 11.3295 12.6785 11.3906C12.6724 11.367 12.6661 11.3432 12.66 11.3196C12.4628 11.2672 12.2511 11.2371 12.0249 11.2371C11.7987 11.2371 11.5871 11.2672 11.3899 11.3196Z" fill="#9BC800"/>
<path d="M11.3984 11.2869C11.3923 11.3106 11.386 11.3343 11.3799 11.358C11.576 11.2966 11.7914 11.2598 12.025 11.2598C12.2585 11.2599 12.4739 11.2966 12.6701 11.358C12.6639 11.3343 12.6577 11.3106 12.6516 11.2869C12.4566 11.2343 12.248 11.2043 12.025 11.2042C11.8019 11.2042 11.5933 11.2343 11.3984 11.2869Z" fill="#FFE14E"/>
<path d="M11.4069 11.2549C11.4008 11.2785 11.3946 11.3023 11.3884 11.3259C11.5823 11.2644 11.7947 11.2274 12.0251 11.2274C12.2555 11.2275 12.468 11.2643 12.6618 11.3259C12.6557 11.3023 12.6495 11.2785 12.6433 11.2549C12.4508 11.2022 12.245 11.1718 12.0251 11.1718C11.8052 11.1719 11.5995 11.202 11.4069 11.2549Z" fill="#FFB14E"/>
<path d="M11.4104 11.2412C11.4061 11.2578 11.4018 11.2744 11.3975 11.291C11.5888 11.2294 11.7982 11.192 12.0251 11.1921C12.252 11.192 12.4614 11.2292 12.6527 11.291C12.6483 11.2744 12.6441 11.2578 12.6397 11.2412C12.4482 11.1884 12.2436 11.158 12.0251 11.158C11.8065 11.1578 11.602 11.1883 11.4104 11.2412Z" fill="#FF4B55"/>
<path d="M14.0791 13.6011H9.92116C9.89374 13.6011 9.86861 13.586 9.85567 13.562C9.84278 13.5378 9.84424 13.5085 9.85938 13.4857L11.9384 10.3672C11.9659 10.326 12.0344 10.326 12.0619 10.3672L14.1409 13.4857C14.1561 13.5084 14.1575 13.5377 14.1446 13.562C14.1317 13.5861 14.1065 13.6011 14.0791 13.6011ZM10.0598 13.4526H13.9404L12.0001 10.5423L10.0598 13.4526Z" fill="#FFE15A"/>
<path d="M12.142 11.6687C12.142 11.6033 12.0758 11.5041 11.9698 11.5041C11.9079 11.5041 11.8577 11.5419 11.8577 11.5886C11.8577 11.6119 11.8702 11.633 11.8904 11.6482C11.8903 11.6491 11.8902 11.65 11.8902 11.6508C11.8649 11.6663 11.8484 11.6897 11.8484 11.7162C11.8484 11.7607 11.8943 11.7968 11.9523 11.8001L12 11.8955L12.0431 11.8094C12.0996 11.795 12.142 11.7375 12.142 11.6687Z" fill="#FF4B55"/>
</svg>
