<svg width="24" height="24" viewBox="0 0 24 24" fill="none" xmlns="http://www.w3.org/2000/svg">
<path d="M22.2026 4.13794H1.79742C0.804703 4.13794 0 4.94264 0 5.93536V12H24V5.93536C24 4.94264 23.1953 4.13794 22.2026 4.13794Z" fill="#F5F5F5"/>
<path d="M0 18.0646C0 19.0573 0.804703 19.8621 1.79742 19.8621H22.2026C23.1952 19.8621 24 19.0574 24 18.0646V12H0V18.0646Z" fill="#73AF00"/>
<path d="M18.2574 8.73918C18.2574 8.73918 18.5435 9.52373 18.568 9.5646L18.6006 9.49921L18.7968 8.47766L19.3034 7.52966L19.1563 7.54602L18.004 8.10173C18.004 8.10173 17.3175 8.8536 17.3094 8.87812C17.3012 8.90263 18.2574 8.73918 18.2574 8.73918Z" fill="#FF4B55"/>
<path d="M18.6632 16.2415C18.6251 16.236 18.0585 16.2633 18.0585 16.2633L17.8733 15.6422L17.767 14.4681L17.9672 14.415L18.2165 14.5335L18.3064 14.0636C18.3064 14.0636 18.0899 13.8266 18.049 13.8103C18.0081 13.7939 17.5178 13.6836 17.5178 13.6836L16.8599 12.8132L17.6445 12.376L18.2574 11.5342L18.4045 10.7742L18.2819 10.1449L18.0032 9.67823C17.999 9.66491 17.9958 9.6546 17.9958 9.6546C17.9939 9.65212 17.987 9.64743 17.9826 9.64377L17.9305 9.55649L17.9297 9.6074C17.8088 9.53188 17.5613 9.40054 17.4973 9.36852C17.4156 9.32765 16.9825 9.2541 16.8925 9.31949C16.8026 9.38488 16.3859 9.58101 16.3123 9.71994C16.2388 9.85888 16.1897 10.3574 16.1897 10.3574C16.1897 10.3574 16.3123 10.6353 16.4676 10.7006C16.6229 10.766 16.9253 10.8396 16.9743 10.8232C17.0166 10.8091 17.4963 10.6673 17.6272 10.6077L17.6853 10.7251L17.6608 11.0602L17.3911 11.2482L16.8926 11.4443C16.8926 11.4443 16.1326 11.2318 16.0999 11.24C16.0672 11.2481 15.1274 10.9621 15.1274 10.9621L14.2448 10.7578L14.539 10.6107L15.3399 10.5535C15.3399 10.5535 15.4952 9.64635 15.5197 9.62999C15.5442 9.61363 16.0672 9.19687 16.0672 9.19687L16.5003 9.09065L16.2388 7.98187L16.6311 6.77235L15.6068 7.06654L13.9832 7.46966L12.9481 7.40427L12.0328 7.69846L11.4444 8.23241L11.1065 8.69005L10.9867 9.42013L10.9104 10.39L10.627 10.9239L10.306 11.1756C10.27 11.0805 10.1013 10.7169 10.1013 10.7169L10.51 10.6189L10.4037 10.3492L10.1177 10.1367L10.2076 9.8098L10.5345 9.98962L10.6244 10.055L10.6816 9.71994L10.322 9.21327L10.3792 8.95991L10.8123 9.18876L10.7633 8.60034L10.3792 8.36334L10.4037 8.03643L10.8233 8.16177L10.7797 7.85123L10.322 7.51884L10.7687 6.79968L10.2239 6.82696L10.1803 6.59263L10.0387 6.53812C10.0387 6.53812 9.28136 6.85959 9.22689 6.84866C9.17242 6.83779 8.56769 6.75609 8.49681 6.77235C8.42598 6.78871 8.17539 6.85405 8.17539 6.85405L8.10451 7.13193L7.64144 7.05562L6.95495 6.99843L6.7479 7.25179L7.07481 7.38257C7.07481 7.38257 6.99859 7.96007 7.02034 8.00366C7.04214 8.04721 7.23826 8.33057 7.23826 8.33057L6.79155 8.94074L7.24919 9.00613L7.8812 8.90807L7.85936 9.06065L8.69842 8.97346L8.51312 9.07152L8.2734 9.79068L7.576 11.2072L7.33084 12.4658L6.93855 12.0572L6.67703 10.9784L6.28473 9.91598C6.28473 9.91598 6.20303 9.58907 6.15395 9.58091C6.10492 9.57276 5.89244 9.53188 5.89244 9.53188L5.62276 9.75252L5.27955 9.70349L5.08342 9.97316L5.30406 10.3164C5.30406 10.3164 4.93628 10.4635 4.93628 10.5044C4.93628 10.5452 4.9608 10.7822 4.98531 10.7904C5.00983 10.7985 5.56553 10.7822 5.56553 10.7822L5.90059 11.3788L5.63908 12.0653L5.76986 12.3268L5.9987 12.3595L6.21119 12.1143L6.9467 14.3127C6.9467 14.3127 6.88951 14.5987 6.84864 14.6233C6.80776 14.6478 6.61164 14.8684 6.66067 14.8684C6.7097 14.8684 7.01209 14.9093 7.04476 14.8929C7.07744 14.8766 7.5024 14.5497 7.5024 14.5497C7.5024 14.5497 8.17253 14.0348 8.2134 14.0757C8.25428 14.1166 8.89173 14.5088 8.89173 14.5088L8.59755 15.5222L7.9029 16.5356L7.46978 16.2741L7.15923 15.8328L6.93039 15.9063L6.84869 16.0453L6.88136 16.3394C6.88136 16.3394 6.64436 16.5274 6.64436 16.5683C6.64436 16.6092 6.66887 16.9034 6.66887 16.9034C6.66887 16.9034 6.82417 16.9769 6.83233 17.0178C6.84048 17.0586 6.92223 17.3528 6.92223 17.3528L7.08569 17.41L7.39623 17.2221H7.91111L8.22981 17.2711L8.90814 17.0586L9.89701 17.1076L9.80711 16.9197C9.80711 16.9197 9.40665 16.7153 9.26772 16.6745C9.12878 16.6336 8.98984 16.601 8.98984 16.601L8.93265 16.3149L9.90517 15.1626L10.2647 15.0891L10.3873 15.3914C10.3873 15.3914 10.7905 15.2934 10.7905 15.2607C10.7905 15.228 10.7905 14.8792 10.7905 14.8466C10.7905 14.8139 10.7033 14.5415 10.7033 14.5415C10.7033 14.5415 10.7021 14.5315 10.7004 14.5165L11.0084 14.4652L12.0762 13.9531L12.4522 14.4052L12.9207 14.6286L12.3377 15.6747L11.8365 16.0125L11.4769 15.8491L10.9756 15.4786L10.7795 15.5985L10.8231 15.969L10.5289 15.9472L10.3981 16.2087L10.616 16.5247L10.5397 16.7753C10.5397 16.7753 10.5942 17.0042 10.6487 17.0042C10.7032 17.0042 11.0301 16.8843 11.0301 16.8843L11.989 16.808L12.6864 16.5791L13.4165 16.6336C13.4165 16.6336 13.5581 16.1432 13.5255 16.1432C13.4928 16.1432 13.4819 16.1323 13.3947 16.1323C13.3075 16.1323 13.0024 16.1432 13.0024 16.1432L12.9915 16.0343L13.2312 15.5984L14.1574 14.8248L14.4298 14.8792L14.5279 15.0209L14.8003 14.8139L14.7894 14.4651L14.5497 14.2146L14.31 13.9312L14.3863 13.5062L14.8003 13.7024C14.8003 13.7024 15.4541 14.16 15.5086 14.1818C15.563 14.2036 16.8271 14.5305 16.8271 14.5305L17.0886 15.1516L16.9578 16.1323L16.5546 16.0124L16.1732 15.522C16.1732 15.522 16.0643 15.4675 16.0098 15.4784C15.9553 15.4894 15.8246 15.7073 15.8246 15.7073L15.9554 16.0124L15.781 16.0669L15.6175 16.1759L15.5849 16.4047L15.7374 16.5463C15.7374 16.5463 15.7374 16.8078 15.7374 16.8405C15.7374 16.8732 15.8246 16.993 15.8573 17.0039C15.89 17.0148 16.1406 17.0475 16.2005 17.0421C16.2605 17.0366 16.7072 16.8514 16.7072 16.8514C16.7072 16.8514 17.5462 16.8678 17.5681 16.8623C17.5899 16.8569 18.3145 16.6989 18.3145 16.6989L18.7231 16.7643C18.7231 16.7643 18.9955 16.5572 18.9846 16.5299C18.9738 16.503 18.7014 16.247 18.6632 16.2415ZM17.0968 10.341C16.8762 10.3655 16.7618 10.4309 16.7454 10.3083C16.729 10.1857 16.729 9.94054 16.7536 9.93238C16.7781 9.92423 17.0314 9.77709 17.0396 9.8016C17.0477 9.82612 17.3011 9.94869 17.3011 9.94869L17.4554 10.2606C17.374 10.3038 17.2484 10.3241 17.0968 10.341Z" fill="#FF4B55"/>
<path d="M5.95785 8.33877C5.95785 8.33877 6.04775 7.87292 6.07227 7.87292C6.09678 7.87292 6.43185 7.75035 6.43185 7.75035L5.43481 7.10474C5.43481 7.10474 5.60642 7.89744 5.62278 7.96283C5.6391 8.02817 5.95785 8.33877 5.95785 8.33877Z" fill="#FF4B55"/>
<path d="M8.49391 7.38005C8.49738 7.38084 8.51725 7.38525 8.54763 7.39125L8.54013 7.42392C8.52785 7.47652 8.5608 7.52939 8.61367 7.54139C8.62108 7.54322 8.62849 7.54392 8.63575 7.54392C8.68033 7.54392 8.72078 7.51331 8.73114 7.46784L8.74164 7.42219C8.81228 7.43091 8.89005 7.4377 8.96519 7.4377C9.02866 7.4377 9.08997 7.43311 9.14271 7.42083C9.19544 7.40855 9.22835 7.35595 9.21611 7.30336C9.20383 7.25049 9.15161 7.21678 9.0985 7.22981C8.94335 7.26633 8.64086 7.21242 8.53764 7.18894C8.48594 7.17666 8.43245 7.20961 8.42017 7.26249C8.40822 7.31541 8.44117 7.36805 8.49391 7.38005Z" fill="#464655"/>
<path d="M18.203 8.96331L18.4501 9.71791C18.4635 9.75827 18.5011 9.78531 18.5433 9.78531C18.5447 9.78531 18.5461 9.78531 18.5477 9.78531C18.5916 9.78325 18.6289 9.75236 18.6389 9.70947C18.8197 8.93462 19.1815 7.70898 19.4373 7.50878C19.473 7.48094 19.4848 7.4327 19.4663 7.39131C19.4479 7.35044 19.4041 7.32695 19.3592 7.33516C19.3068 7.34486 18.0663 7.5865 17.2032 8.88105C17.1811 8.91423 17.1812 8.95741 17.2035 8.99036C17.2258 9.02331 17.2656 9.03864 17.3048 9.03147L18.0235 8.88287C17.9228 9.1255 17.8587 9.33897 17.8365 9.41739C17.5092 9.21822 17.1401 9.18278 16.8841 9.24906C16.592 9.32566 16.3464 9.51189 16.2102 9.76009C16.1059 9.95031 16.0783 10.1592 16.1345 10.3332C16.1998 10.5352 16.374 10.7865 16.6673 10.8853C16.8616 10.9513 17.1757 10.966 17.5897 10.7097C17.5897 10.7117 17.59 10.7136 17.5899 10.7155C17.5871 10.8789 17.5033 11.0122 17.3403 11.1121C17.0164 11.3105 16.4486 11.3237 16.0748 11.1409C15.582 10.9003 14.8409 10.7634 14.4269 10.7012C14.6836 10.6194 14.994 10.5963 15.3669 10.6817C15.372 10.6831 15.3769 10.681 15.3819 10.6814C15.3844 10.6816 15.3863 10.6843 15.3889 10.6843C15.3916 10.6843 15.3937 10.6814 15.3964 10.6812C15.419 10.6794 15.4408 10.6725 15.4574 10.6565C15.4576 10.6562 15.4577 10.6559 15.4579 10.6556C15.458 10.6555 15.4582 10.6555 15.4582 10.6555C15.4586 10.6551 15.4585 10.6544 15.4588 10.654C15.4747 10.6375 15.4816 10.6165 15.4836 10.5943C15.4841 10.589 15.4847 10.585 15.4843 10.5797C15.484 10.5752 15.4859 10.571 15.4849 10.5666C15.4838 10.561 15.3751 10.0043 15.6743 9.62064C15.8541 9.39002 16.1482 9.26411 16.5484 9.24602C16.5547 9.24569 16.5599 9.24212 16.566 9.24062C16.5746 9.23861 16.5833 9.2373 16.5911 9.23298C16.5982 9.229 16.6032 9.22277 16.6092 9.21714C16.6141 9.2125 16.6203 9.20969 16.6243 9.20383C16.6252 9.20266 16.6253 9.20116 16.626 9.19989C16.6267 9.19881 16.628 9.19834 16.6286 9.19722C16.6304 9.19417 16.63 9.19061 16.6314 9.18737C16.6359 9.17758 16.6389 9.16778 16.64 9.15742C16.6405 9.15245 16.6405 9.14791 16.6402 9.14294C16.6396 9.13187 16.6371 9.12147 16.6328 9.11125C16.6318 9.10867 16.6323 9.10577 16.631 9.10328C16.6231 9.08772 15.8536 7.54895 17.1073 6.5215C17.148 6.48803 17.155 6.42831 17.1233 6.38641C17.0914 6.34478 17.0323 6.33508 16.9888 6.36545C15.7509 7.23452 14.0401 7.32827 13.362 7.32827C12.1526 7.32827 11.3885 7.78366 11.0258 8.72017C10.9882 8.81753 10.9615 8.93289 10.9391 9.0565C10.9512 8.8832 10.9195 8.73133 10.8413 8.6043C10.7297 8.42317 10.559 8.34733 10.4823 8.32098C10.4823 8.27655 10.482 8.23253 10.4806 8.18936C10.6131 8.16897 10.7703 8.27181 10.8222 8.31545C10.8403 8.33078 10.863 8.33894 10.8857 8.33894C10.9008 8.33894 10.916 8.33537 10.9299 8.32825C10.9651 8.31034 10.9863 8.27331 10.9835 8.23403C10.9515 7.77798 10.6421 7.55636 10.4298 7.48141C10.617 7.33262 10.8164 7.08939 10.9386 6.69255C10.9503 6.6542 10.9377 6.61262 10.9066 6.58759C10.8754 6.56228 10.832 6.55848 10.7972 6.57789C10.7939 6.57977 10.5943 6.68786 10.2942 6.77697L10.3216 6.42058C10.3243 6.38458 10.3071 6.3498 10.2764 6.33044C10.2459 6.3108 10.2068 6.31 10.1755 6.32791C10.1705 6.33072 9.66835 6.61253 9.15624 6.76131C8.76971 6.66414 8.26665 6.58848 8.07591 6.78714C8.02993 6.83486 7.98713 6.91253 7.99777 7.03281C7.66871 6.96414 6.91327 6.85173 6.45469 7.14827C6.41855 7.17147 6.40191 7.21572 6.41358 7.25706C6.4253 7.29845 6.46261 7.32756 6.50564 7.32859C6.65119 7.33216 6.87619 7.36562 6.97008 7.42769C6.92869 7.5393 6.86025 7.77578 6.92002 8.00383C6.72099 8.06148 6.51216 8.07039 6.25819 7.933L6.47958 7.87867C6.51929 7.86897 6.54877 7.83555 6.55364 7.79486C6.55833 7.75426 6.53747 7.71489 6.50115 7.69628C6.49552 7.69323 5.93724 7.40284 5.47294 6.91478C5.44665 6.88745 5.40666 6.87747 5.37 6.88975C5.33372 6.90227 5.30808 6.9347 5.30438 6.97277C5.3004 7.01209 5.21719 7.93989 5.92177 8.49006C5.9394 8.50361 5.96072 8.51073 5.98219 8.51073C5.9956 8.51073 6.009 8.50792 6.02175 8.5023C6.05471 8.48777 6.07716 8.45631 6.07997 8.42031L6.1073 8.06987C6.45882 8.28034 6.74986 8.26023 6.99947 8.18434C7.03079 8.23206 7.07058 8.27753 7.12079 8.3192C7.1288 8.32591 7.13991 8.33317 7.15111 8.34053C6.99066 8.71619 6.67205 8.81298 6.65841 8.81673C6.61871 8.82822 6.59025 8.86323 6.58739 8.9043C6.58444 8.94541 6.60746 8.98394 6.6451 9.00081C6.66882 9.01127 7.18205 9.23322 7.7573 9.02837L7.74825 9.094C7.74441 9.12156 7.75261 9.14964 7.77085 9.17087C7.78894 9.19234 7.81543 9.20486 7.84336 9.20537C7.8458 9.20537 7.85232 9.20566 7.86249 9.20566C7.92854 9.20566 8.14763 9.20064 8.39602 9.14359C8.35852 9.4945 8.14468 9.91267 7.91724 10.3539C7.60936 10.9516 7.26624 11.6257 7.27172 12.3064C7.15425 12.1544 7.008 11.9173 6.93568 11.6025C6.91065 11.4932 6.89405 11.3951 6.879 11.3055C6.84235 11.0887 6.81066 10.9012 6.6825 10.725C6.53757 10.5258 6.33263 10.0812 6.34154 9.83833C6.34997 9.61384 6.20288 9.4818 6.05344 9.45039C6.04266 9.44819 6.03249 9.45095 6.0218 9.44969C5.98641 9.37839 5.8906 9.24184 5.67038 9.22614C5.61741 9.21902 5.56936 9.26294 5.56552 9.31708C5.56168 9.37098 5.60232 9.41795 5.65632 9.42175C5.73314 9.42719 5.78077 9.45653 5.81002 9.48578C5.73807 9.52277 5.67985 9.58445 5.6393 9.66344C5.508 9.58778 5.37535 9.56884 5.27386 9.59205C5.24757 9.598 5.22769 9.6122 5.205 9.62294C5.13858 9.5883 4.96168 9.52234 4.74849 9.65791C4.70279 9.68678 4.68919 9.74753 4.71835 9.79328C4.73696 9.82267 4.76879 9.83875 4.80122 9.83875C4.81913 9.83875 4.83736 9.83387 4.85372 9.82342C4.92985 9.77509 4.99486 9.76876 5.04258 9.77486C5.00761 9.83964 4.98774 9.91098 4.99116 9.97745C4.99796 10.1095 5.07427 10.2119 5.19225 10.2553C5.05154 10.2821 4.93229 10.3475 4.86858 10.4359C4.85827 10.4502 4.85616 10.4665 4.84875 10.4817C4.75913 10.491 4.62127 10.5512 4.53413 10.7355C4.51093 10.7843 4.53183 10.8428 4.58072 10.866C4.59436 10.8724 4.60857 10.8755 4.62263 10.8755C4.65943 10.8755 4.69463 10.8548 4.71141 10.8193C4.75027 10.7373 4.79593 10.7048 4.83005 10.69C4.92319 10.9972 5.22605 10.9272 5.40872 10.8844L5.48189 10.8678C5.58432 10.8474 5.76488 11.1465 5.81339 11.3405C5.8471 11.4754 5.78939 11.6404 5.60752 11.929C5.49708 12.1046 5.52886 12.2319 5.57508 12.3077C5.57602 12.3092 5.57752 12.31 5.57846 12.3115C5.54911 12.3203 5.51297 12.3266 5.46413 12.3202C5.41135 12.3095 5.36096 12.3503 5.35369 12.404C5.34647 12.4576 5.38397 12.5072 5.4376 12.5143C5.46263 12.5179 5.48625 12.5194 5.50861 12.5194C5.62266 12.5194 5.69864 12.4805 5.7443 12.4486C5.8081 12.4759 5.87372 12.4862 5.92224 12.4824C6.05752 12.4712 6.14907 12.3527 6.21094 12.2056C6.39136 13.2003 6.80597 14.1241 6.87802 14.2799C6.86349 14.6323 6.48305 14.715 6.4666 14.7187C6.42432 14.7273 6.39268 14.7626 6.38869 14.8058C6.38475 14.8487 6.40913 14.8891 6.44897 14.9054C6.61449 14.973 6.75929 15.0002 6.88505 15.0002C7.27299 15.0002 7.47807 14.7443 7.54266 14.6457C7.82916 14.5459 8.16502 14.3123 8.29613 14.2167C8.51475 14.3805 8.69649 14.4713 8.75719 14.4997C8.65158 15.5396 8.04188 16.2421 7.86352 16.4262C7.74272 16.357 7.47596 16.1862 7.38788 15.9826C7.30454 15.7902 7.14999 15.736 7.02394 15.7473C6.98161 15.6926 6.88665 15.5907 6.75338 15.576C6.6879 15.5691 6.58852 15.5811 6.4875 15.6822C6.44916 15.7205 6.44916 15.7825 6.4875 15.8208C6.52566 15.8592 6.58772 15.8594 6.62616 15.8211C6.68157 15.7657 6.71925 15.769 6.73154 15.7708C6.76932 15.7748 6.80583 15.8021 6.83466 15.8303C6.76318 15.8913 6.71888 15.9765 6.72605 16.0696C6.73111 16.135 6.75563 16.1965 6.79018 16.2537C6.71874 16.2909 6.63268 16.3518 6.576 16.4483C6.57399 16.4518 6.57165 16.4573 6.56954 16.4611C6.45249 16.4686 6.24169 16.5512 6.20888 16.824C6.2025 16.8779 6.2408 16.9267 6.29457 16.933C6.29865 16.9336 6.30249 16.9338 6.30647 16.9338C6.35541 16.9338 6.39779 16.8973 6.40379 16.8475C6.4155 16.7498 6.46285 16.7028 6.50719 16.6793C6.50607 16.7195 6.50939 16.7614 6.52383 16.8051C6.55768 16.9081 6.63769 16.9915 6.75713 17.0564C6.74452 17.0966 6.73627 17.1395 6.73519 17.1858C6.67214 17.2177 6.57914 17.277 6.53152 17.3779C6.49589 17.4533 6.49369 17.5375 6.525 17.6218C6.53968 17.6614 6.57708 17.6857 6.61693 17.6857C6.62832 17.6857 6.63989 17.6837 6.65114 17.6796C6.702 17.6607 6.72774 17.6042 6.70885 17.5534C6.69174 17.5077 6.70055 17.4794 6.70875 17.462C6.72319 17.4311 6.75207 17.4051 6.78146 17.385C6.81783 17.4503 6.87277 17.5 6.94627 17.5243C6.97983 17.5353 7.01471 17.5406 7.04972 17.5406C7.1664 17.5406 7.28466 17.4816 7.36055 17.379C7.45135 17.2559 7.62896 17.3264 7.64049 17.3313C8.01183 17.4662 8.51354 17.3645 8.81719 17.1939C8.98561 17.0991 9.57905 17.1503 9.91369 17.2051C9.93985 17.2087 9.96769 17.2023 9.9893 17.1862C10.0108 17.1696 10.0244 17.1451 10.0271 17.1181C10.061 16.7794 9.62283 16.6895 9.27075 16.6173C9.17485 16.5976 9.08358 16.5789 8.99747 16.5422C8.96311 16.3435 9.47939 15.6202 9.9713 15.2586C10.0919 15.17 10.1889 15.1345 10.2375 15.1605C10.307 15.1986 10.3291 15.3758 10.322 15.4836C10.3218 15.4864 10.3235 15.4889 10.3235 15.4917C10.3236 15.5024 10.3256 15.5126 10.3294 15.523C10.331 15.5275 10.3322 15.5315 10.3343 15.5356C10.3357 15.5382 10.3358 15.5411 10.3374 15.5436C10.3431 15.5522 10.3507 15.5585 10.3583 15.5647C10.3598 15.5659 10.3603 15.568 10.3619 15.5691C10.3622 15.5694 10.3627 15.5693 10.3627 15.5693C10.3754 15.5784 10.3894 15.5837 10.4041 15.5861C10.4079 15.5868 10.4115 15.5862 10.4153 15.5863C10.4263 15.5869 10.4369 15.5858 10.4476 15.5825C10.4502 15.5818 10.4528 15.5825 10.4553 15.5816C10.4633 15.5785 10.4719 15.5741 10.48 15.5708C10.5323 15.544 10.621 15.5739 10.683 15.6056C10.6715 15.6414 10.6645 15.6787 10.6678 15.7192C10.6719 15.7698 10.6876 15.8201 10.7122 15.8684C10.615 15.8574 10.5241 15.8684 10.4583 15.919C10.4348 15.937 10.4163 15.9596 10.3976 15.982C10.2595 15.9957 10.0869 16.0827 10.0459 16.2882C10.0353 16.3413 10.0696 16.3929 10.1228 16.4037C10.1293 16.405 10.1358 16.4055 10.1422 16.4055C10.1879 16.4055 10.2288 16.3734 10.2382 16.3266C10.2481 16.2775 10.2732 16.2478 10.3008 16.2254C10.3 16.2612 10.3038 16.2967 10.3144 16.3301C10.3336 16.3908 10.3854 16.4813 10.5173 16.5318C10.5054 16.552 10.4952 16.5735 10.4861 16.5955C10.388 16.627 10.2401 16.7288 10.2401 16.9449C10.2401 16.999 10.2841 17.0429 10.3382 17.0429C10.3923 17.0429 10.4363 16.999 10.4363 16.9449C10.4363 16.9067 10.4457 16.879 10.4582 16.8561C10.4613 16.8702 10.4636 16.8849 10.4687 16.8981C10.4924 16.9601 10.5638 17.0766 10.7638 17.0766C10.8297 17.0766 10.9093 17.0641 11.0059 17.0327C11.2399 16.9568 11.4058 16.9488 11.5662 16.941C11.758 16.9318 11.9392 16.9228 12.1937 16.8048C12.5604 16.6345 13.0147 16.6922 13.2527 16.742C13.3816 16.7686 13.5078 16.7052 13.5598 16.587C13.5776 16.5467 13.5893 16.5114 13.6016 16.4755C13.7126 16.4888 13.7356 16.5966 13.7386 16.6204C13.744 16.6705 13.7865 16.7078 13.8359 16.7078C13.8392 16.7078 13.8427 16.7075 13.8461 16.7073C13.9 16.7017 13.9392 16.6534 13.9336 16.5995C13.923 16.497 13.847 16.3132 13.6438 16.2812C13.6463 16.2117 13.6328 16.1544 13.5987 16.1122C13.5614 16.0662 13.4873 16.018 13.3419 16.0479C13.1915 16.079 13.1223 16.0852 13.0911 16.0824C13.0958 16.0632 13.1069 16.0293 13.1328 15.9713C13.2204 15.7741 13.8021 15.2541 14.183 14.9428C14.2748 14.9222 14.3913 14.9208 14.4181 14.9515C14.4276 14.962 14.4276 14.998 14.4061 15.055C14.3908 15.0953 14.4037 15.1408 14.4377 15.1671C14.4715 15.1934 14.5188 15.1946 14.554 15.1701C14.5692 15.1594 14.925 14.9068 14.9178 14.5991C14.9141 14.4436 14.8235 14.3085 14.6483 14.1976C14.4998 14.1039 14.4144 13.9954 14.3946 13.8753C14.3738 13.7498 14.4273 13.6383 14.4631 13.579C14.6035 13.6464 14.7445 13.7334 14.8849 13.8495C15.7131 14.5343 16.4178 14.6433 16.7985 14.6415C16.8784 14.818 17.1128 15.4199 16.9127 16.0382C16.8062 16.0193 16.597 15.9513 16.4535 15.712C16.314 15.4796 16.1465 15.4214 16.0305 15.4137C15.85 15.3997 15.6586 15.5023 15.5082 15.6903C15.476 15.7307 15.4805 15.7889 15.5183 15.8236C15.5562 15.8586 15.6148 15.8584 15.6519 15.8231C15.677 15.7993 15.7236 15.7705 15.7436 15.7861L15.764 15.8427C15.7748 15.8741 15.786 15.9058 15.7992 15.9364C15.7212 15.9479 15.6461 15.9798 15.5875 16.0463C15.5489 16.09 15.5245 16.1406 15.507 16.1926C15.3274 16.2247 15.2295 16.361 15.2254 16.3673C15.1955 16.4119 15.2077 16.4719 15.2521 16.5021C15.2687 16.5136 15.288 16.5192 15.3068 16.5192C15.3382 16.5192 15.3689 16.5044 15.388 16.4768C15.3899 16.4743 15.4261 16.4252 15.491 16.3976C15.4991 16.4346 15.5123 16.4703 15.5325 16.5028C15.5663 16.5574 15.6143 16.5939 15.6689 16.6134C15.6615 16.6417 15.6552 16.6727 15.6512 16.7059C15.6491 16.7066 15.647 16.7063 15.6449 16.7071C15.41 16.806 15.4579 17.0979 15.516 17.2383C15.5317 17.2761 15.5681 17.2988 15.6065 17.2988C15.619 17.2988 15.6316 17.2963 15.6438 17.2914C15.6939 17.2707 15.7178 17.2135 15.6973 17.1634C15.6966 17.1616 15.6415 17.0174 15.6769 16.9353C15.6779 16.9375 15.6781 16.9399 15.679 16.942C15.7196 17.0337 15.7979 17.0991 15.9053 17.1313C15.9582 17.1472 16.0088 17.1538 16.0572 17.1538C16.2177 17.1538 16.354 17.0794 16.4686 17.0167C16.5579 16.9679 16.6423 16.9232 16.7088 16.9278C16.7572 16.9324 16.8126 16.9411 16.8734 16.9505C17.1027 16.9862 17.4171 17.0348 17.729 16.9344C17.7871 16.9158 17.8397 16.8976 17.8879 16.881C18.1413 16.7942 18.2361 16.7617 18.391 16.8499C18.5786 16.9572 18.8204 16.8851 18.9451 16.7536C18.9841 16.7124 19.0066 16.6665 19.0187 16.6199C19.0827 16.6454 19.1345 16.6729 19.1428 16.6883C19.1246 16.7394 19.1511 16.7953 19.2022 16.8137C19.2131 16.8175 19.2242 16.8193 19.2352 16.8193C19.2754 16.8193 19.3132 16.7942 19.3275 16.7542C19.3459 16.7028 19.3414 16.65 19.3149 16.6015C19.2501 16.4834 19.0603 16.42 18.9653 16.3949C18.8084 16.1815 18.5691 16.1152 18.1738 16.1777C18.1581 16.18 18.1458 16.1772 18.1323 16.166C17.988 16.0494 17.9563 15.443 17.9373 15.0811C17.9221 14.7915 17.9118 14.6235 17.8673 14.5427C17.89 14.5241 18.0142 14.5218 18.0916 14.5782C18.1289 14.6058 18.1326 14.6306 18.1236 14.6587C18.1221 14.6627 18.1207 14.6666 18.1193 14.6704C18.1001 14.7205 18.1249 14.7769 18.1748 14.7965C18.2247 14.8157 18.2813 14.7922 18.3016 14.7424C18.3046 14.7355 18.3071 14.7283 18.3094 14.7214C18.3444 14.6221 18.4876 14.1721 18.3189 13.8871C18.2431 13.7591 18.1195 13.6827 17.9516 13.66C17.5239 13.6023 17.1978 13.329 16.9786 12.8527C17.3108 12.736 18.2885 12.2928 18.4713 11.0696C18.5928 10.2565 18.3014 9.80106 18.0354 9.56228C18.0227 9.55084 18.0089 9.54217 17.9959 9.53139C18.0036 9.52141 18.0134 9.5132 18.0169 9.50027C18.0181 9.49586 18.0854 9.2485 18.203 8.96331ZM17.5106 8.78852C18.0695 8.06116 18.755 7.73734 19.1257 7.60656C18.8825 8.04456 18.6509 8.86384 18.5301 9.3317L18.3261 8.70855C18.3253 8.70611 18.3227 8.70508 18.3218 8.70273C18.3817 8.5847 18.4489 8.47042 18.5231 8.37391C18.556 8.33102 18.548 8.26947 18.5051 8.23652C18.4621 8.20333 18.4006 8.21148 18.3676 8.25442C18.275 8.3748 18.1934 8.51753 18.123 8.66177L17.5106 8.78852ZM5.90007 8.2052C5.59796 7.88519 5.51925 7.46992 5.50125 7.21764C5.75972 7.45717 6.02044 7.63651 6.19632 7.74578L6.04004 7.78417C6.01018 7.76022 5.98088 7.73809 5.94966 7.71006C5.90968 7.67406 5.84775 7.67762 5.81124 7.71747C5.77496 7.75783 5.77829 7.81989 5.81865 7.85612C5.85366 7.88758 5.88694 7.91176 5.92079 7.93872L5.90007 8.2052ZM13.2975 11.4402C13.1142 10.9511 12.5611 9.7802 11.2059 8.80052C11.207 8.79766 11.2077 8.79391 11.2088 8.79109C11.2261 8.74619 11.2488 8.70752 11.2683 8.66505C13.32 9.18939 14.5689 10.0424 15.0678 10.4395C14.0485 10.3644 13.5094 11.0664 13.2975 11.4402ZM15.5187 9.50106C15.3021 9.7795 15.2642 10.1186 15.2685 10.3476C14.8186 9.97098 13.554 9.0542 11.3545 8.48542C11.3829 8.43606 11.417 8.39312 11.4488 8.34761C11.4559 8.34925 11.4628 8.35178 11.4702 8.35225C14.1763 8.23595 15.6861 8.81706 16.2391 9.09091C15.9288 9.15381 15.6844 9.28801 15.5187 9.50106ZM13.3621 7.52434C13.9602 7.52434 15.3411 7.45262 16.5321 6.86237C16.0208 7.63239 16.2046 8.49672 16.3491 8.92375C15.8006 8.64283 14.3152 8.05933 11.606 8.15275C11.9968 7.73416 12.5746 7.52434 13.3621 7.52434ZM11.0619 9.61394C11.0863 9.39227 11.1107 9.18142 11.1492 9.00381C12.4516 9.96925 12.9761 11.1362 13.1312 11.5594C12.8114 11.4877 12.5216 11.5109 12.2719 11.6397C12.0675 11.7452 11.9249 11.9002 11.8272 12.0422C11.7836 11.5487 11.6207 10.6682 11.0256 9.97478C11.0237 9.97258 11.021 9.97159 11.019 9.96958C11.0349 9.85033 11.049 9.7308 11.0619 9.61394ZM10.938 12.6079C10.4823 12.5017 10.2908 12.0424 10.282 12.0208C10.27 11.9912 10.2444 11.9689 10.2132 11.9618C10.2058 11.9602 10.1984 11.9592 10.191 11.9592C10.1671 11.9592 10.1438 11.9682 10.1255 11.9845C9.79805 12.279 9.39746 12.3566 9.19749 12.3771C9.35555 11.8806 9.80007 11.6227 10.3981 11.2756L10.4256 11.2595C10.5747 11.173 10.6822 11.0416 10.7663 10.8871C10.7663 11.1339 10.7794 11.4088 10.8248 11.6402C10.8339 11.687 10.8749 11.7194 10.9209 11.7194C10.9272 11.7194 10.9335 11.7189 10.9399 11.7176C10.993 11.7071 11.0276 11.6555 11.0173 11.6024C10.9192 11.1019 10.9813 10.3491 10.9904 10.2477C11.5607 11.0177 11.6363 11.9893 11.6448 12.3062C11.3102 12.2483 11.1238 11.9882 11.1218 11.9856C11.1035 11.959 11.0735 11.9432 11.0415 11.9432H11.0411C11.0092 11.9432 10.9793 11.9585 10.9609 11.9845C10.8159 12.1898 10.8725 12.4429 10.938 12.6079ZM10.5907 9.92472C10.5147 9.83125 10.4125 9.72836 10.3112 9.68317C10.3341 9.59181 10.3556 9.49459 10.3751 9.39245C10.48 9.47866 10.6388 9.65617 10.5907 9.92472ZM10.1489 10.2753C10.1783 10.2796 10.357 10.3142 10.4312 10.5436C10.3481 10.5293 10.2502 10.5368 10.1514 10.59C10.1356 10.498 10.1326 10.3931 10.1489 10.2753ZM10.4991 10.7782C10.5275 10.8001 10.5651 10.8027 10.5974 10.7888C10.5405 10.8944 10.469 10.9817 10.381 11.0473C10.3329 10.9988 10.2623 10.912 10.209 10.7863C10.3543 10.6804 10.4846 10.7677 10.4991 10.7782ZM10.8371 9.3325C10.8713 9.32369 10.8978 9.29655 10.9067 9.26228C10.8924 9.36897 10.8794 9.4787 10.8668 9.59247C10.8258 9.96536 10.781 10.3692 10.6539 10.6757C10.6178 10.2636 10.3489 10.1119 10.1914 10.0846C10.1998 10.0561 10.2074 10.0281 10.2181 9.99841C10.232 9.95969 10.2457 9.91802 10.2592 9.87405C10.3488 9.93058 10.4726 10.0836 10.5421 10.1902C10.5603 10.2182 10.5912 10.2348 10.6243 10.2348C10.6266 10.2348 10.6289 10.2348 10.6312 10.2346C10.6668 10.232 10.6982 10.2103 10.7131 10.1781C10.9478 9.67328 10.6319 9.31328 10.412 9.17748C10.4175 9.14153 10.423 9.10562 10.4281 9.06911C10.5556 9.12906 10.6916 9.25239 10.7406 9.3047C10.7594 9.32486 10.7855 9.33583 10.8122 9.33583C10.8205 9.33583 10.8288 9.3348 10.8371 9.3325ZM10.6743 8.70705C10.7303 8.79798 10.7538 8.90983 10.7448 9.04108C10.6652 8.97498 10.5601 8.90355 10.4523 8.86548C10.4639 8.75402 10.4726 8.64212 10.4776 8.53169C10.5372 8.56141 10.6174 8.6147 10.6743 8.70705ZM10.7452 8.04072C10.6646 8.00556 10.5678 7.9817 10.4684 7.99258C10.4584 7.8835 10.4424 7.78197 10.4202 7.69009C10.5233 7.73856 10.6715 7.83986 10.7452 8.04072ZM10.1123 6.583L10.0935 6.82853C9.9413 6.86242 9.77391 6.88787 9.59658 6.892C9.57 6.88281 9.53297 6.87039 9.48989 6.85652C9.74236 6.76314 9.9691 6.65584 10.1123 6.583ZM7.2465 8.16817C7.22635 8.1513 7.20858 8.13348 7.19311 8.11478C7.21243 8.10714 7.23155 8.09945 7.2503 8.09209C7.38643 8.03744 7.51486 7.98587 7.63847 7.97898C7.91625 7.96187 7.9973 8.07166 8.01544 8.10541C8.03396 8.13991 8.031 8.17028 8.02004 8.18533C7.97382 8.24819 7.89971 8.28592 7.79972 8.2982C7.57135 8.32422 7.29947 8.21237 7.2465 8.16817ZM7.93552 8.79034C7.9059 8.76887 7.86685 8.76555 7.8345 8.78242C7.49804 8.95047 7.16321 8.92928 6.95058 8.88686C7.07827 8.79981 7.22794 8.65394 7.32802 8.42355C7.44268 8.46512 7.58513 8.49864 7.72604 8.49864C7.75871 8.49864 7.79133 8.49658 7.82335 8.49273C7.97682 8.47412 8.0994 8.40794 8.17796 8.30172C8.23707 8.22128 8.24091 8.11019 8.18794 8.01212C8.14683 7.93605 8.01005 7.76059 7.62774 7.78328C7.47183 7.79172 7.32216 7.85172 7.17736 7.90994C7.15416 7.91912 7.13086 7.92855 7.10775 7.9375C7.05516 7.70537 7.17263 7.44944 7.17427 7.44611C7.1888 7.41498 7.18618 7.37842 7.16714 7.34978C7.11263 7.2678 7.00407 7.21675 6.88993 7.18478C7.41858 7.0742 8.09729 7.25678 8.10558 7.25912C8.14186 7.26859 8.17993 7.25809 8.20468 7.23002C8.22947 7.20245 8.2365 7.16308 8.22277 7.12839C8.1833 7.02902 8.18157 6.95983 8.21738 6.92251C8.36986 6.76366 9.08766 6.92069 9.54821 7.08264C9.55918 7.08648 9.57141 7.08545 9.58229 7.08827C10.0361 7.08114 10.4327 6.95139 10.6676 6.85431C10.4025 7.42994 9.95161 7.51089 9.93043 7.5145C9.87722 7.52294 9.8408 7.57272 9.84896 7.62611C9.85711 7.67973 9.90732 7.71728 9.96085 7.70833C9.97121 7.70669 10.067 7.69 10.1976 7.62723C10.3918 8.16452 10.2397 9.35889 10.0334 9.93175C9.8026 10.573 10.0586 10.9803 10.2154 11.1551C9.59597 11.5155 9.11175 11.8217 8.97619 12.4507C8.976 12.4513 8.97554 12.4517 8.97535 12.4522C8.97207 12.4624 8.93893 12.5727 8.90068 12.7693C8.66063 12.6098 8.2133 11.955 8.4541 11.1875C8.51972 10.978 8.59688 10.7732 8.67146 10.5751C8.89313 9.98669 9.10186 9.43047 8.94643 8.90955C9.00708 8.86605 9.0639 8.81725 9.11302 8.76002C9.28402 8.56084 9.34374 8.30617 9.29063 8.00303C9.28144 7.94941 9.23072 7.91312 9.1771 7.92339C9.1239 7.93258 9.08808 7.98339 9.09755 8.03678C9.14058 8.28273 9.09704 8.47731 8.96438 8.63209C8.70797 8.93144 8.18658 8.99322 7.95868 9.00573L7.97555 8.88316C7.98047 8.8473 7.965 8.81148 7.93552 8.79034ZM8.81588 13.2619C8.64699 13.4684 8.30419 13.743 8.17107 13.8468C8.04816 13.7296 7.92507 13.5905 7.8166 13.4275C8.3184 13.3424 8.61957 13.0309 8.73249 12.8866C8.77008 12.9185 8.80589 12.9442 8.83749 12.9611C8.84663 12.966 8.85647 12.9665 8.86613 12.9682C8.85296 13.0522 8.84044 13.1474 8.82858 13.2516C8.82441 13.2551 8.81949 13.2575 8.81588 13.2619ZM7.62235 11.4745C7.70133 11.4967 7.90618 11.549 8.09518 11.549C8.12977 11.549 8.16075 11.5427 8.19324 11.5386C8.18625 11.6593 8.19221 11.7756 8.20913 11.8862C8.05275 11.988 7.68835 11.9965 7.49157 11.9881C7.51786 11.8164 7.563 11.6448 7.62235 11.4745ZM7.86783 10.8892C7.94011 10.9065 8.08182 10.9353 8.22493 10.9353C8.26205 10.9353 8.29899 10.9331 8.33494 10.9284C8.31188 10.9949 8.2883 11.0609 8.26693 11.1288C8.24438 11.2007 8.22886 11.2711 8.21635 11.3408C8.21565 11.3409 8.2149 11.3407 8.21419 11.3408C8.06865 11.3768 7.81885 11.3248 7.6913 11.2901C7.74544 11.1548 7.8045 11.0208 7.86783 10.8892ZM8.09194 10.4434C8.1173 10.3942 8.14229 10.3455 8.16713 10.2969C8.25249 10.3174 8.42077 10.356 8.53861 10.3706C8.52179 10.4156 8.50519 10.4603 8.48794 10.5063C8.46188 10.5754 8.43572 10.6466 8.40952 10.7174C8.39733 10.7164 8.38482 10.7174 8.37249 10.7213C8.25629 10.7572 8.07469 10.7327 7.95708 10.7082C8.00208 10.6186 8.04736 10.53 8.09194 10.4434ZM8.40305 9.8035C8.47365 9.83022 8.58666 9.8658 8.70075 9.8658C8.70432 9.8658 8.7076 9.86425 8.71121 9.8642C8.68168 9.96677 8.64619 10.0725 8.6078 10.1803C8.55319 10.1797 8.39302 10.1478 8.25779 10.1165C8.31033 10.0104 8.35894 9.90606 8.40305 9.8035ZM8.53857 9.42869C8.59402 9.43258 8.64539 9.43516 8.68875 9.43516C8.73155 9.43516 8.76563 9.43234 8.79661 9.42855C8.78977 9.50472 8.7789 9.58202 8.76207 9.661C8.68763 9.68303 8.56599 9.65448 8.4759 9.62116C8.49994 9.55605 8.5209 9.49187 8.53857 9.42869ZM7.61743 12.187C7.80525 12.187 8.06799 12.1656 8.24944 12.0813C8.27489 12.1741 8.307 12.2616 8.34357 12.343C8.00663 12.577 7.63022 12.6309 7.49705 12.642C7.48243 12.5609 7.47183 12.477 7.46677 12.3895C7.46283 12.3211 7.46546 12.2523 7.46944 12.1835C7.5076 12.1853 7.5578 12.187 7.61743 12.187ZM8.43479 12.5178C8.48541 12.6039 8.53932 12.6808 8.59346 12.7453C8.51007 12.8558 8.21607 13.1937 7.70954 13.2486C7.64199 13.1227 7.58504 12.9848 7.54257 12.8352C7.71347 12.8185 8.0865 12.7523 8.43479 12.5178ZM8.76929 9.01469C8.78682 9.08566 8.79689 9.15784 8.8006 9.23111C8.77571 9.23908 8.68266 9.23983 8.58221 9.23458C8.59027 9.18423 8.59486 9.13478 8.59693 9.08603C8.65505 9.06602 8.71289 9.04206 8.76929 9.01469ZM7.44863 14.4697C7.42322 14.4778 7.40204 14.4957 7.39013 14.5195C7.38207 14.5356 7.21599 14.8584 6.77771 14.7953C6.93272 14.6932 7.07471 14.5213 7.07471 14.2585C7.07471 14.2439 7.07152 14.2296 7.06524 14.2165C7.05882 14.203 6.4209 12.8423 6.33338 11.6251C6.32968 11.5741 6.2873 11.5345 6.23607 11.5342H6.23555C6.1846 11.5342 6.14208 11.5732 6.13786 11.6241C6.11246 11.9303 6.01107 12.2776 5.90597 12.2863C5.8673 12.2904 5.77679 12.2612 5.7428 12.2053C5.71749 12.1637 5.72799 12.1057 5.77369 12.0332C5.9521 11.7497 6.05949 11.5156 6.0038 11.2926C5.95721 11.1059 5.73924 10.615 5.44158 10.6753L5.36396 10.6929C5.11097 10.7529 5.04586 10.7401 5.01446 10.6257C5.00663 10.5971 5.0109 10.5739 5.028 10.5501C5.0709 10.4904 5.18072 10.4456 5.30143 10.4387C5.52783 10.4265 5.61811 10.523 5.62055 10.5258C5.65046 10.5621 5.70141 10.5718 5.74252 10.5501C5.78363 10.5281 5.80369 10.4801 5.79024 10.4355C5.7864 10.423 5.69372 10.1282 5.29946 10.0802C5.21096 10.0696 5.18963 10.0126 5.18724 9.96714C5.1834 9.89177 5.23107 9.80242 5.31746 9.78273C5.47247 9.74823 5.76174 9.87977 5.88708 10.3811C5.90021 10.434 5.95463 10.4644 6.00596 10.4526C6.05855 10.4393 6.09047 10.3862 6.07735 10.3336C6.01318 10.077 5.90921 9.90109 5.79296 9.78255C5.79493 9.77894 5.79802 9.77622 5.79961 9.77223C5.84663 9.6527 5.94343 9.62791 6.01341 9.64201C6.08021 9.65608 6.15019 9.71303 6.14583 9.83073C6.13369 10.1556 6.39047 10.6564 6.52411 10.84C6.62522 10.979 6.65068 11.1294 6.68574 11.3378C6.70144 11.4307 6.71869 11.5323 6.74475 11.6461C6.87479 12.212 7.2166 12.5549 7.29694 12.6294C7.40307 13.3101 7.7865 13.7854 8.13807 14.0879C7.98666 14.1954 7.68563 14.3958 7.44863 14.4697ZM8.31999 13.9795C8.43319 13.8903 8.63269 13.7274 8.79989 13.5644C8.78583 13.7554 8.77552 13.9652 8.77458 14.2035C8.77449 14.2314 8.77214 14.2579 8.7713 14.2854C8.67441 14.2333 8.50641 14.1334 8.31999 13.9795ZM14.3776 13.3258L14.5485 12.82C14.7155 12.8793 14.8729 12.9472 15.0208 13.0214L14.6946 13.4768C14.5909 13.4161 14.4853 13.3658 14.3776 13.3258ZM14.1901 13.2678C14.0985 13.2443 14.0058 13.227 13.9119 13.2179L13.9754 12.6645C13.9982 12.6688 14.0216 12.6712 14.0442 12.676C14.1538 12.6997 14.2589 12.7284 14.3618 12.7594L14.1901 13.2678ZM13.7154 13.2096C13.6186 13.2105 13.5209 13.2192 13.4221 13.2349L13.3682 12.6152C13.5068 12.6134 13.6451 12.6192 13.7813 12.6346L13.7154 13.2096ZM13.1721 12.6234L13.2287 13.2744C13.1275 13.3 13.0253 13.3346 12.9225 13.3756L12.7494 12.6694C12.8882 12.6481 13.0295 12.6322 13.1721 12.6234ZM12.8703 14.5074C12.7917 14.4797 12.7179 14.4421 12.6482 14.4004L12.9988 13.735C13.007 13.7443 13.0159 13.7523 13.0228 13.7638C13.0576 13.8225 13.0628 13.8999 13.0383 13.9939C13.0058 14.1189 12.9473 14.3028 12.8703 14.5074ZM12.4358 13.8552C12.5572 13.7742 12.6906 13.6967 12.833 13.6292L12.4848 14.29C12.3509 14.1863 12.247 14.078 12.1883 14.0105C12.2701 13.9617 12.3526 13.9105 12.4358 13.8552ZM12.5557 12.7024L12.7403 13.4558C12.6457 13.5014 12.5505 13.5534 12.4548 13.6117L12.1708 12.7877C12.2935 12.7563 12.4229 12.7277 12.5557 12.7024ZM11.9812 12.839L12.2805 13.7073C12.2819 13.7112 12.2857 13.713 12.2874 13.7165C12.1679 13.7948 12.0496 13.8647 11.9333 13.9292L11.6434 12.9448C11.7466 12.9099 11.8593 12.874 11.9812 12.839ZM11.4579 13.01L11.756 14.022C11.7562 14.0226 11.757 14.023 11.7572 14.0237C11.627 14.0903 11.5021 14.1492 11.3873 14.199L11.063 13.1868C11.0671 13.1798 11.0717 13.1707 11.0757 13.1642C11.1295 13.1399 11.2654 13.0809 11.4579 13.01ZM10.9382 13.4395L11.2057 14.2743C11.0016 14.3553 10.8421 14.4069 10.7627 14.4306C10.7117 14.1061 10.8183 13.722 10.9382 13.4395ZM10.8804 15.2335C10.9469 15.0739 10.9272 14.8772 10.8204 14.6331C10.8185 14.6288 10.8166 14.6245 10.8148 14.6198C10.9794 14.5717 11.4608 14.4146 12.0146 14.1089C12.1136 14.2287 12.4063 14.5488 12.7988 14.6893C12.5759 15.2343 12.2432 15.8453 11.9081 15.8995C11.6272 15.944 11.4751 15.7765 11.3282 15.6132C11.2001 15.4712 11.0547 15.3103 10.8483 15.4191C10.8322 15.4276 10.8201 15.4385 10.8061 15.4482C10.7901 15.4389 10.7681 15.4274 10.7421 15.4155C10.7984 15.3663 10.849 15.3092 10.8804 15.2335ZM14.2009 13.9045C14.2297 14.083 14.3449 14.2373 14.5438 14.3632C14.6598 14.4365 14.7197 14.5172 14.7219 14.603C14.7242 14.6947 14.6643 14.7902 14.5965 14.8675C14.5872 14.8484 14.5758 14.8326 14.5642 14.8198C14.4391 14.6809 14.1669 14.7435 14.1136 14.7575C14.1 14.7608 14.0874 14.7675 14.0765 14.7761C13.976 14.8578 13.0901 15.5844 12.9537 15.8911C12.9026 16.006 12.8586 16.1253 12.9275 16.2109C12.9994 16.3003 13.137 16.2903 13.3821 16.2395C13.4032 16.2351 13.4183 16.2339 13.4286 16.2339C13.4403 16.2339 13.4461 16.2339 13.4461 16.2352C13.4544 16.2492 13.4599 16.3281 13.3805 16.5074C13.366 16.5398 13.3295 16.5569 13.2929 16.5495C13.0312 16.4954 12.5294 16.433 12.1113 16.6266C11.8915 16.7285 11.7364 16.7359 11.5568 16.7446C11.3916 16.7525 11.2044 16.7617 10.9455 16.8457C10.8858 16.8648 10.688 16.9213 10.6519 16.8273C10.6216 16.7484 10.6805 16.6102 10.743 16.5696C11.129 16.5846 11.2863 16.5848 11.2863 16.5848C11.3404 16.5848 11.3843 16.5408 11.3843 16.4867C11.3843 16.4326 11.3404 16.3886 11.2863 16.3886C11.2846 16.3886 11.1219 16.3886 10.7182 16.3723C10.6485 16.3695 10.5275 16.3526 10.5015 16.2704C10.4821 16.2093 10.5163 16.1213 10.5779 16.0742C10.6313 16.0329 10.8112 16.0783 10.987 16.1542C11.0428 16.1894 11.1009 16.2177 11.1572 16.2364C11.2049 16.2535 11.2577 16.2293 11.278 16.1828C11.2984 16.1363 11.2801 16.0822 11.2356 16.0577C11.2007 16.0382 11.1437 16.0083 11.0751 15.9777C10.9609 15.9003 10.8705 15.7895 10.8635 15.7029C10.8609 15.6718 10.8672 15.6309 10.9397 15.5928C11.0026 15.5599 11.0477 15.5957 11.1824 15.7448C11.3388 15.9182 11.5524 16.1537 11.9394 16.0932C12.6928 15.9711 13.2231 14.0626 13.2281 14.0434C13.2662 13.897 13.254 13.7694 13.1914 13.6639C13.1553 13.6029 13.1088 13.5633 13.0644 13.533C13.4343 13.3999 13.8514 13.3544 14.2795 13.5027C14.2306 13.5926 14.1741 13.7385 14.2009 13.9045ZM14.8599 13.5829L15.1952 13.1148C15.3173 13.1834 15.4321 13.2554 15.5398 13.3299L15.1097 13.7743C15.0763 13.7483 15.0438 13.7259 15.01 13.6979C14.9605 13.657 14.9105 13.6186 14.8599 13.5829ZM15.7005 14.1566L16.1313 13.8134C16.2143 13.8936 16.2899 13.9719 16.3568 14.0458L16.0084 14.2933C15.9106 14.2568 15.8079 14.2115 15.7005 14.1566ZM15.5133 14.0551C15.433 14.0074 15.3506 13.954 15.2664 13.8945L15.7007 13.4457C15.8027 13.5229 15.8985 13.601 15.9858 13.6786L15.5133 14.0551ZM16.2418 14.3681L16.4854 14.1949C16.5653 14.2913 16.6299 14.3766 16.6765 14.4423C16.5553 14.4352 16.4076 14.4125 16.2418 14.3681ZM18.2774 11.0403C18.1041 12.2005 17.1744 12.5851 16.8976 12.6748C16.6649 12.1513 16.279 11.7109 16.0223 11.5779C15.9745 11.5533 15.9151 11.572 15.8901 11.6198C15.8652 11.668 15.884 11.7271 15.9321 11.7521C16.1277 11.8535 16.5238 12.2659 16.7526 12.8296C16.9994 13.4376 17.3941 13.7824 17.9255 13.8544C18.0323 13.8687 18.1058 13.9121 18.1502 13.9868C18.2153 14.0966 18.212 14.2616 18.1881 14.4066C18.063 14.3272 17.8593 14.3017 17.7483 14.3867C17.6791 14.4396 17.6593 14.5236 17.6952 14.6114C17.7195 14.6709 17.7307 14.8844 17.7416 15.091C17.7729 15.6889 17.8126 16.1591 18.009 16.3182C18.0657 16.3642 18.134 16.3831 18.2046 16.3711C18.5923 16.3097 18.7338 16.392 18.8261 16.5347C18.8318 16.5434 18.8488 16.5697 18.8029 16.6186C18.7332 16.6921 18.587 16.7353 18.4885 16.6796C18.2565 16.5467 18.0937 16.6027 17.8244 16.6954C17.7773 16.7115 17.7257 16.7291 17.6689 16.7478C17.4015 16.8341 17.1257 16.7912 16.9037 16.7565C16.8386 16.7465 16.7793 16.7373 16.7277 16.7325C16.6013 16.7205 16.4861 16.7833 16.3746 16.8444C16.2397 16.9182 16.1122 16.9889 15.962 16.9432C15.8923 16.9223 15.8697 16.8873 15.8586 16.8625C15.8256 16.7888 15.85 16.6819 15.8735 16.6139C15.9576 16.5991 16.0332 16.6018 16.1164 16.6105C16.2365 16.6225 16.3731 16.6368 16.5452 16.5734C16.5961 16.5548 16.622 16.4983 16.6033 16.4475C16.5845 16.3967 16.5285 16.3714 16.4773 16.3895C16.3479 16.4367 16.2496 16.4274 16.1366 16.4154C16.0336 16.4049 15.9173 16.3931 15.7776 16.4302C15.7563 16.4358 15.7241 16.4391 15.6995 16.3992C15.667 16.3472 15.6684 16.2508 15.7349 16.1758C15.7859 16.1178 15.8849 16.1196 15.9763 16.139C16.0275 16.1676 16.0927 16.1911 16.1768 16.2071C16.2248 16.2174 16.2724 16.1885 16.2882 16.1423C16.3039 16.0958 16.283 16.045 16.2391 16.023C16.2317 16.0194 16.1546 15.9816 16.0518 15.9556C15.9976 15.9162 15.9783 15.8608 15.9494 15.7779L15.9275 15.7168C15.9145 15.682 15.8978 15.6558 15.8795 15.6359C15.9266 15.6154 15.9727 15.6063 16.0176 15.6091C16.1184 15.616 16.2086 15.6844 16.2855 15.8129C16.54 16.2368 16.962 16.2417 16.9799 16.2417C17.0207 16.2417 17.0572 16.2164 17.0716 16.1783C17.3888 15.3401 16.9647 14.5298 16.9465 14.4956C16.9462 14.4951 16.9456 14.4947 16.9454 14.4942C16.9451 14.4938 16.9452 14.4932 16.9449 14.4928C16.9073 14.4277 16.0021 12.8976 14.0858 12.4847C12.7052 12.1861 11.0371 12.9651 10.9667 12.9985C10.9501 13.0061 10.9362 13.0184 10.9262 13.0337C10.7277 13.3404 10.3969 14.1543 10.6408 14.7118C10.7239 14.9019 10.7437 15.052 10.6996 15.1585C10.6699 15.2298 10.6122 15.287 10.514 15.3399C10.5009 15.2173 10.4586 15.0577 10.3324 14.9882C10.2091 14.9208 10.0486 14.9583 9.85538 15.1003C9.39783 15.4367 8.74505 16.2312 8.80458 16.5752C8.81911 16.6597 8.87213 16.7198 8.9536 16.7443C9.0324 16.7678 9.12943 16.7879 9.23161 16.8089C9.4336 16.8505 9.67191 16.8993 9.77761 16.9869C9.49233 16.9503 8.93968 16.8998 8.72119 17.0223C8.46352 17.1674 8.02055 17.2599 7.71216 17.1483C7.60004 17.1015 7.34902 17.0645 7.20305 17.2622C7.14863 17.336 7.06322 17.3561 7.00805 17.3375C6.94397 17.3166 6.93052 17.2499 6.93052 17.1978C6.93052 16.9703 7.14952 16.9527 7.21655 16.9527C7.27069 16.9527 7.31461 16.9088 7.31461 16.8546C7.31461 16.8005 7.27069 16.7566 7.21655 16.7566C7.06636 16.7566 6.94275 16.8055 6.85796 16.8888C6.77958 16.8478 6.72891 16.7994 6.71054 16.7435C6.68541 16.6671 6.7215 16.588 6.74541 16.5476C6.79083 16.4704 6.87122 16.4295 6.92044 16.4096C7.03182 16.5142 7.16133 16.5891 7.22635 16.6176C7.27538 16.6388 7.33346 16.6165 7.35554 16.567C7.37724 16.5175 7.3545 16.4595 7.30496 16.4378C7.17366 16.3803 6.93347 16.2031 6.92213 16.0545C6.91791 16 6.96811 15.9587 7.01996 15.9457C7.05736 15.9362 7.15158 15.9288 7.20835 16.0598C7.35174 16.3916 7.81805 16.625 7.83788 16.6347C7.85171 16.6416 7.86647 16.6449 7.88129 16.6449C7.90519 16.6449 7.92868 16.6362 7.94719 16.6195C7.98868 16.5817 8.96541 15.6797 8.97108 14.2041C8.97446 13.312 9.09849 12.7556 9.14457 12.5786C9.31791 12.5702 9.76102 12.5169 10.1589 12.2117C10.2741 12.4158 10.5664 12.8119 11.1044 12.8254C11.1052 12.8254 11.1061 12.8254 11.1068 12.8254C11.1421 12.8254 11.1747 12.8063 11.1922 12.7756C11.2101 12.744 11.209 12.7051 11.1896 12.6747C11.1877 12.6717 11.0371 12.4306 11.0714 12.2227C11.195 12.342 11.4201 12.5034 11.7409 12.5148H11.741H11.741C11.7421 12.5148 11.7433 12.5148 11.7445 12.5148C11.7615 12.5148 11.7767 12.5093 11.7907 12.5015C11.7971 12.498 11.8027 12.4953 11.8081 12.4902C11.8206 12.4794 11.8298 12.4654 11.8356 12.4494C11.8361 12.4479 11.8376 12.4472 11.8381 12.4456C11.8394 12.4412 11.9751 12.014 12.3624 11.814C12.6098 11.686 12.9081 11.6781 13.2502 11.7908C13.2586 11.7935 13.2671 11.7934 13.2755 11.7939C13.2774 11.794 13.2789 11.7957 13.2808 11.7957C13.2823 11.7957 13.2839 11.7952 13.2854 11.7951C13.2879 11.795 13.2903 11.7944 13.2928 11.7941C13.2972 11.7936 13.3015 11.7936 13.3058 11.7924C13.3088 11.7916 13.311 11.7895 13.3139 11.7885C13.3203 11.7861 13.3262 11.7832 13.332 11.7795C13.3371 11.7763 13.3418 11.773 13.3462 11.769C13.3508 11.7647 13.3547 11.7601 13.3585 11.755C13.3623 11.7499 13.3656 11.7448 13.3683 11.739C13.3696 11.7364 13.3718 11.7345 13.3728 11.7316C13.3859 11.6959 13.5887 11.1663 14.0945 10.8537C14.0963 10.8541 14.0978 10.8552 14.0996 10.8553C14.1117 10.8566 15.3203 10.9904 15.9891 11.317C16.1931 11.4167 16.4419 11.4659 16.6882 11.4659C16.9663 11.4659 17.241 11.4031 17.4431 11.2793C17.6638 11.1442 17.7825 10.9501 17.7863 10.7187C17.7944 10.2442 17.5023 9.87897 17.2235 9.77659C17.0485 9.71252 16.8801 9.75105 16.7736 9.88103C16.641 10.0424 16.6488 10.2516 16.7922 10.3785C16.941 10.5103 17.2158 10.5312 17.4907 10.2881C17.5229 10.3505 17.5486 10.4195 17.5659 10.4931C17.2558 10.7075 16.9665 10.7789 16.7303 10.6993C16.5059 10.6237 16.3721 10.4293 16.3216 10.2728C16.2819 10.1499 16.3042 9.99719 16.3826 9.85417C16.493 9.65289 16.694 9.50148 16.934 9.43895C17.1843 9.37333 17.5949 9.42977 17.9049 9.70811C18.1346 9.91483 18.3861 10.3135 18.2774 11.0403ZM17.3795 10.1239C17.1868 10.3053 17.0094 10.3094 16.9219 10.2317C16.8576 10.1748 16.8587 10.0859 16.9249 10.0057C16.9641 9.958 17.0126 9.94187 17.0597 9.94187C17.0937 9.94187 17.1271 9.95031 17.1556 9.96077C17.2333 9.98936 17.3113 10.0461 17.3795 10.1239Z" fill="#464655"/>
</svg>
