<svg width="24" height="24" viewBox="0 0 24 24" fill="none" xmlns="http://www.w3.org/2000/svg">
<path d="M1.79742 19.8621H22.2026C22.6425 19.8621 23.0454 19.7037 23.3578 19.4413L0.642187 4.55865C0.249656 4.88842 0 5.38262 0 5.93537V18.0647C0 19.0574 0.804703 19.8621 1.79742 19.8621Z" fill="#41479B"/>
<path d="M24.0001 18.0646V5.93536C24.0001 4.94269 23.1954 4.13794 22.2027 4.13794H1.79752C1.35755 4.13794 0.954709 4.29624 0.642334 4.55864L23.358 19.4413C23.7504 19.1116 24.0001 18.6174 24.0001 18.0646Z" fill="#73AF00"/>
<path d="M12.0001 14.4828C13.3713 14.4828 14.4829 13.3712 14.4829 12C14.4829 10.6288 13.3713 9.51721 12.0001 9.51721C10.6289 9.51721 9.51733 10.6288 9.51733 12C9.51733 13.3712 10.6289 14.4828 12.0001 14.4828Z" fill="#FFE15A"/>
<path d="M1.81016 12.028L1.95378 12.3918L2.32775 12.2773C2.34856 12.2709 2.36633 12.2933 2.35555 12.3122L2.16064 12.6513L2.48333 12.8722C2.50128 12.8845 2.4949 12.9123 2.47339 12.9157L2.08676 12.9747L2.11522 13.3648C2.11681 13.3864 2.09103 13.3989 2.07509 13.3841L1.78789 13.1187L1.50069 13.3841C1.48475 13.3989 1.45897 13.3865 1.46056 13.3648L1.48901 12.9747L1.10239 12.9157C1.08092 12.9124 1.07455 12.8845 1.09245 12.8722L1.41514 12.6513L1.22023 12.3122C1.2094 12.2933 1.22722 12.271 1.24803 12.2773L1.622 12.3918L1.76562 12.028C1.77355 12.0078 1.80214 12.0078 1.81016 12.028Z" fill="#F5F5F5"/>
<path d="M7.04038 11.0473L7.184 11.4111L7.55797 11.2966C7.57879 11.2902 7.59655 11.3126 7.58577 11.3315L7.39086 11.6706L7.71355 11.8915C7.7315 11.9038 7.72513 11.9317 7.70361 11.935L7.31699 11.9941L7.34544 12.3841C7.34704 12.4058 7.32125 12.4182 7.30532 12.4035L7.01811 12.138L6.73091 12.4035C6.71493 12.4182 6.68919 12.4058 6.69079 12.3841L6.71924 11.9941L6.33261 11.935C6.31114 11.9317 6.30477 11.9038 6.32268 11.8915L6.64536 11.6706L6.45046 11.3315C6.43963 11.3126 6.45744 11.2903 6.47825 11.2966L6.85222 11.4111L6.99585 11.0473C7.00377 11.0271 7.03241 11.0271 7.04038 11.0473Z" fill="#F5F5F5"/>
<path d="M4.42515 8.68904L4.56877 9.05284L4.94274 8.93832C4.96355 8.93195 4.98132 8.95431 4.97054 8.9732L4.77563 9.31229L5.09832 9.53326C5.11627 9.54554 5.1099 9.57339 5.08838 9.57671L4.70175 9.63578L4.73021 10.0258C4.7318 10.0475 4.70602 10.0599 4.69008 10.0452L4.40288 9.77973L4.11568 10.0452C4.09974 10.0599 4.07396 10.0475 4.07555 10.0258L4.104 9.63578L3.71738 9.57671C3.69591 9.57343 3.68954 9.54554 3.70744 9.53326L4.03013 9.31229L3.83522 8.9732C3.8244 8.95435 3.84221 8.932 3.86302 8.93832L4.23699 9.05284L4.38061 8.68904C4.38858 8.66884 4.41718 8.66884 4.42515 8.68904Z" fill="#F5F5F5"/>
<path d="M4.42515 17.2582L4.56877 17.622L4.94274 17.5075C4.96355 17.5011 4.98132 17.5235 4.97054 17.5423L4.77563 17.8814L5.09832 18.1024C5.11627 18.1147 5.1099 18.1425 5.08838 18.1459L4.70175 18.2049L4.73021 18.595C4.7318 18.6166 4.70602 18.629 4.69008 18.6143L4.40288 18.3489L4.11568 18.6143C4.09974 18.629 4.07396 18.6167 4.07555 18.595L4.104 18.2049L3.71738 18.1459C3.69591 18.1426 3.68954 18.1147 3.70744 18.1024L4.03013 17.8814L3.83522 17.5423C3.8244 17.5235 3.84221 17.5011 3.86302 17.5075L4.23699 17.622L4.38061 17.2582C4.38858 17.238 4.41718 17.238 4.42515 17.2582Z" fill="#F5F5F5"/>
<path d="M5.49568 12.3572L5.5959 12.6578L5.91282 12.6603C5.93738 12.6605 5.94751 12.6918 5.92782 12.7064L5.67287 12.8947L5.76845 13.1968C5.77585 13.2202 5.74923 13.2396 5.72926 13.2253L5.47145 13.041L5.21363 13.2253C5.19366 13.2396 5.16704 13.2202 5.17445 13.1968L5.27002 12.8947L5.01507 12.7064C4.99529 12.6918 5.00551 12.6604 5.03007 12.6603L5.34699 12.6578L5.44721 12.3572C5.45499 12.3339 5.48795 12.3339 5.49568 12.3572Z" fill="#F5F5F5"/>
<path d="M10.5269 10.932C10.4254 10.9083 10.3233 11.1695 10.4364 11.26C10.5495 11.3504 10.7531 11.5201 10.6287 11.6219C10.5043 11.7237 10.4591 11.735 10.4364 11.8594C10.4138 11.9838 10.4364 12.0065 10.3346 12.063C10.2328 12.1195 9.99529 12.2326 10.0971 12.3458C10.1989 12.4589 10.3346 12.3911 10.4251 12.2101C10.4251 12.2101 11.0585 12.1875 11.0811 12.2327C11.1037 12.278 11.1603 12.4476 11.296 12.4023C11.4317 12.357 11.4317 12.357 11.4317 12.357C11.4317 12.357 11.5109 12.3231 11.5674 12.391C11.624 12.4589 11.7597 12.4814 11.9181 12.4814C12.0764 12.4814 12.2121 12.5719 12.2009 12.7868C12.1936 12.9245 12.1585 13.2107 12.1342 13.3987C12.1213 13.4993 12.1903 13.5919 12.2903 13.6086L12.5799 13.6568C12.6561 13.6695 12.7269 13.6152 12.7337 13.5382C12.7473 13.3836 12.7671 13.1568 12.7664 13.1488C12.7599 13.0675 12.9247 12.6512 12.9134 12.4589C12.9021 12.2666 12.9021 12.2666 12.9021 12.2666C12.9021 12.2666 13.0717 12.244 13.1396 12.1309C13.2075 12.0178 13.3545 11.735 13.6486 11.6332L13.7278 11.441C13.7278 11.441 13.5016 11.3392 13.5468 11.2713C13.5921 11.2034 13.6147 11.0225 13.5807 10.8755C13.5468 10.7285 13.5354 10.5248 13.5354 10.5248C13.5354 10.5248 13.4548 10.4908 13.4378 10.5376C13.4208 10.5845 13.4037 10.61 13.3612 10.6015C13.3186 10.593 13.2547 10.5887 13.2377 10.5504C13.2207 10.5121 13.1738 10.4738 13.1312 10.4951C13.0887 10.5164 13.0162 10.8016 12.9141 10.8314C12.9141 10.8314 12.9056 10.708 12.8417 10.7335C12.7779 10.7591 12.7821 10.8187 12.7736 10.9251C12.7651 11.0316 12.0497 11.7511 11.4238 11.5596C11.4238 11.5596 11.3557 11.4233 11.2152 11.4361C11.0746 11.4488 10.9384 11.4446 10.8575 11.3467C10.7765 11.2486 10.6477 10.9602 10.5269 10.932Z" fill="#73AF00"/>
<path d="M15.1329 12.1152C15.3215 12.3156 17.3941 12.88 19.4891 11.7827C21.584 10.6853 22.831 10.3694 22.831 10.3694C22.831 10.3694 22.8476 10.0867 23.1054 10.0452C23.363 10.0036 23.2384 9.89556 23.1719 9.8124C23.1054 9.72929 22.7812 9.50481 22.3405 9.69601C22.3405 9.69601 21.8279 9.71542 21.7503 9.00601C21.6727 8.29661 21.6394 7.57609 21.4621 7.26573C21.2847 6.95537 19.8216 5.40358 19.6443 5.52545C19.4669 5.64737 20.0877 7.18811 20.6641 7.73129C20.6641 7.73129 20.7971 8.68459 20.6308 8.72889C20.4645 8.77323 19.5445 7.93079 17.904 7.73129C17.904 7.73129 18.6023 8.68459 19.4558 9.08364C20.3093 9.48268 20.5421 9.8485 20.5199 10.0037C20.4978 10.1588 20.2096 10.9015 19.7329 11.2451C19.2563 11.5887 18.0592 12.5198 15.3435 12.0321C15.3435 12.0321 15.0442 12.021 15.1329 12.1152Z" fill="#FFE15A"/>
</svg>
