<svg width="24" height="24" viewBox="0 0 24 24" fill="none" xmlns="http://www.w3.org/2000/svg">
<path d="M22.2026 4.13794H1.79742C0.804703 4.13794 0 4.94264 0 5.93536V7.4483H24V5.93536C24 4.94264 23.1953 4.13794 22.2026 4.13794Z" fill="#FF4B55"/>
<path d="M0 18.0646C0 19.0573 0.804703 19.8621 1.79742 19.8621H22.2026C23.1952 19.8621 24 19.0574 24 18.0646V16.5517H0V18.0646Z" fill="#FF4B55"/>
<path d="M24 7.44843H0V16.552H24V7.44843Z" fill="#F5F5F5"/>
<path d="M12.8841 14.7834L16.7082 14.0185C16.9842 13.9634 17.1073 13.6385 16.9374 13.4141C16.8777 13.3353 16.7898 13.2828 16.6921 13.2676L12.6181 12.6324C12.5055 12.6148 12.4258 12.5091 12.4447 12.3921C12.463 12.279 12.5777 12.2069 12.6913 12.2218L15.516 12.5935C15.7455 12.6237 15.8864 12.3494 15.728 12.1804L15.5012 11.9385C15.4163 11.848 15.3051 11.7865 15.1832 11.763L12.8236 11.306L14.8355 11.4509C14.9897 11.462 15.0791 11.2797 14.9758 11.1646L14.8726 11.0496C14.8102 10.9801 14.7274 10.9323 14.636 10.9132L12.6385 10.4958L14.0581 10.4548C14.1836 10.4512 14.2475 10.3023 14.1636 10.2089L14.0999 10.1379C14.05 10.0824 13.9855 10.042 13.9138 10.0214L12.6477 9.65789H13.6427C13.7411 9.65789 13.8073 9.55701 13.7682 9.46673L13.7346 9.38934C13.6944 9.29644 13.6168 9.22486 13.5209 9.19223L12.6008 8.8792L13.0534 8.87775C13.1878 8.87733 13.278 8.73942 13.2246 8.61605C13.1815 8.51662 13.1054 8.43511 13.0093 8.38523L11.9999 7.86206L10.9905 8.38542C10.8943 8.4353 10.8183 8.51681 10.7752 8.61623C10.7217 8.73965 10.8119 8.87751 10.9464 8.87789L11.3989 8.87939L10.4788 9.19242C10.3829 9.225 10.3053 9.29658 10.2651 9.38953L10.2315 9.46692C10.1924 9.55725 10.2586 9.65808 10.357 9.65808H11.352L10.0859 10.0216C10.0142 10.0422 9.94972 10.0826 9.89985 10.1381L9.83619 10.209C9.75233 10.3025 9.81618 10.4513 9.94166 10.455L11.3612 10.496L9.36374 10.9134C9.27233 10.9325 9.18946 10.9803 9.12711 11.0498L9.02394 11.1648C8.92063 11.2799 9.00997 11.4622 9.16424 11.4511L11.1762 11.3062L8.81657 11.7631C8.69469 11.7867 8.58341 11.8482 8.49852 11.9387L8.27174 12.1806C8.11335 12.3495 8.25421 12.6239 8.48375 12.5937L11.3084 12.222C11.422 12.207 11.5368 12.2791 11.555 12.3923C11.574 12.5092 11.4942 12.615 11.3816 12.6326L7.30766 13.2678C7.21002 13.283 7.12208 13.3355 7.06236 13.4143C6.89239 13.6387 7.01558 13.9635 7.29158 14.0187L11.1157 14.7836V15.2609C11.1157 15.5214 11.0122 15.7713 10.828 15.9555L10.2316 16.5518H11.9999H13.7683L13.1718 15.9554C12.9876 15.7712 12.8841 15.5213 12.8841 15.2608V14.7834H12.8841Z" fill="#73AF00"/>
</svg>
