<svg width="24" height="24" viewBox="0 0 24 24" fill="none" xmlns="http://www.w3.org/2000/svg">
<path d="M22.2024 4.13699H1.79494C0.834703 4.13699 0.0504844 4.88981 0 5.83748V18.1625C0.0504844 19.11 0.834703 19.8629 1.79494 19.8629H22.2024C23.1952 19.8629 24 19.0581 24 18.0653V5.9346C24 4.94179 23.1952 4.13699 22.2024 4.13699Z" fill="#F5F5F5"/>
<path d="M1.79483 4.13699C1.35538 4.13699 0.952906 4.29487 0.640625 4.55676L12.0012 11.9999V4.13699H1.79483Z" fill="#464655"/>
<path d="M23.359 4.55881L12.0015 11.9999H24.0001V5.93459C24.0001 5.3824 23.7509 4.88853 23.359 4.55881Z" fill="#464655"/>
<path d="M0 18.1624C0.027375 18.6763 0.270703 19.1328 0.640734 19.4431L12.0014 11.9999H0V18.1624Z" fill="#464655"/>
<path d="M22.2025 19.8629C22.6431 19.8629 23.0464 19.7041 23.359 19.4411L12.0015 11.9999V19.8629H22.2025Z" fill="#464655"/>
<path d="M12.9945 11.4206V12.7448C12.9945 13.2925 12.549 13.7381 12.0013 13.7381C11.4536 13.7381 11.0081 13.2925 11.0081 12.7448V11.4206H12.9945ZM13.3256 10.7584H10.677C10.4942 10.7584 10.3459 10.9066 10.3459 11.0895V12.7448C10.3459 13.659 11.0871 14.4002 12.0013 14.4002C12.9155 14.4002 13.6566 13.659 13.6566 12.7448V11.0895C13.6567 10.9066 13.5085 10.7584 13.3256 10.7584Z" fill="#FF4B55"/>
<path d="M12.9945 11.4206V12.7449C12.9945 13.2925 12.549 13.7381 12.0013 13.7381C11.4536 13.7381 11.0081 13.2925 11.0081 12.7449V11.4206H12.9945Z" fill="#F5F5F5"/>
<path d="M10.6743 11.2547C10.7657 11.2547 10.8398 11.1806 10.8398 11.0892C10.8398 10.9977 10.7657 10.9236 10.6743 10.9236C10.5829 10.9236 10.5088 10.9977 10.5088 11.0892C10.5088 11.1806 10.5829 11.2547 10.6743 11.2547Z" fill="#FFE15A"/>
<path d="M13.3232 11.2547C13.4146 11.2547 13.4887 11.1806 13.4887 11.0892C13.4887 10.9977 13.4146 10.9236 13.3232 10.9236C13.2318 10.9236 13.1577 10.9977 13.1577 11.0892C13.1577 11.1806 13.2318 11.2547 13.3232 11.2547Z" fill="#FFE15A"/>
<path d="M10.6743 12.5789C10.7657 12.5789 10.8398 12.5048 10.8398 12.4134C10.8398 12.322 10.7657 12.2479 10.6743 12.2479C10.5829 12.2479 10.5088 12.322 10.5088 12.4134C10.5088 12.5048 10.5829 12.5789 10.6743 12.5789Z" fill="#FFE15A"/>
<path d="M13.3232 12.5789C13.4146 12.5789 13.4887 12.5048 13.4887 12.4134C13.4887 12.322 13.4146 12.2479 13.3232 12.2479C13.2318 12.2479 13.1577 12.322 13.1577 12.4134C13.1577 12.5048 13.2318 12.5789 13.3232 12.5789Z" fill="#FFE15A"/>
<path d="M11.9985 11.2547C12.0899 11.2547 12.164 11.1806 12.164 11.0892C12.164 10.9977 12.0899 10.9236 11.9985 10.9236C11.9071 10.9236 11.833 10.9977 11.833 11.0892C11.833 11.1806 11.9071 11.2547 11.9985 11.2547Z" fill="#FFE15A"/>
<path d="M11.9985 14.2481C12.0899 14.2481 12.164 14.174 12.164 14.0826C12.164 13.9912 12.0899 13.9171 11.9985 13.9171C11.9071 13.9171 11.833 13.9912 11.833 14.0826C11.833 14.174 11.9071 14.2481 11.9985 14.2481Z" fill="#FFE15A"/>
<path d="M12.9922 13.8C13.0836 13.8 13.1577 13.7259 13.1577 13.6345C13.1577 13.5431 13.0836 13.469 12.9922 13.469C12.9008 13.469 12.8267 13.5431 12.8267 13.6345C12.8267 13.7259 12.9008 13.8 12.9922 13.8Z" fill="#FFE15A"/>
<path d="M11.0239 13.8C11.1153 13.8 11.1894 13.7259 11.1894 13.6345C11.1894 13.5431 11.1153 13.469 11.0239 13.469C10.9325 13.469 10.8584 13.5431 10.8584 13.6345C10.8584 13.7259 10.9325 13.8 11.0239 13.8Z" fill="#FFE15A"/>
<path d="M12.2152 12.3299V12.615C12.2152 12.7329 12.1193 12.8288 12.0014 12.8288C11.8835 12.8288 11.7876 12.7329 11.7876 12.615V12.3299H12.2152Z" fill="#41479B"/>
<path d="M12.2152 11.6539V11.939C12.2152 12.0569 12.1193 12.1528 12.0014 12.1528C11.8835 12.1528 11.7876 12.0569 11.7876 11.939V11.6539H12.2152Z" fill="#41479B"/>
<path d="M12.2152 13.0128V13.2979C12.2152 13.4157 12.1193 13.5116 12.0014 13.5116C11.8835 13.5116 11.7876 13.4157 11.7876 13.2979V13.0128H12.2152Z" fill="#41479B"/>
<path d="M12.7912 12.3299V12.615C12.7912 12.7329 12.6953 12.8288 12.5774 12.8288C12.4595 12.8288 12.3635 12.7329 12.3635 12.615V12.3299H12.7912Z" fill="#41479B"/>
<path d="M11.6393 12.3299V12.615C11.6393 12.7329 11.5434 12.8288 11.4255 12.8288C11.3076 12.8288 11.2117 12.7329 11.2117 12.615V12.3299H11.6393Z" fill="#41479B"/>
<path d="M13.604 10.7584H10.415C10.3074 10.7584 10.2202 10.6712 10.2202 10.5637V10.4419C10.2202 10.3344 10.3074 10.2472 10.415 10.2472H13.604C13.7115 10.2472 13.7987 10.3344 13.7987 10.4419V10.5637C13.7987 10.6713 13.7115 10.7584 13.604 10.7584Z" fill="#FFE15A"/>
<path d="M12.0095 10.3751L11.7539 10.5029L12.0095 10.6306L12.2652 10.5029L12.0095 10.3751Z" fill="#FF4B55"/>
<path d="M12.8404 10.6306C12.9463 10.6306 13.0321 10.5734 13.0321 10.5028C13.0321 10.4322 12.9463 10.3749 12.8404 10.3749C12.7345 10.3749 12.6487 10.4322 12.6487 10.5028C12.6487 10.5734 12.7345 10.6306 12.8404 10.6306Z" fill="#4173CD"/>
<path d="M11.1788 10.6306C11.2847 10.6306 11.3705 10.5734 11.3705 10.5028C11.3705 10.4322 11.2847 10.3749 11.1788 10.3749C11.0729 10.3749 10.9871 10.4322 10.9871 10.5028C10.9871 10.5734 11.0729 10.6306 11.1788 10.6306Z" fill="#4173CD"/>
<path d="M12.457 10.5667C12.4922 10.5667 12.5208 10.5381 12.5208 10.5028C12.5208 10.4675 12.4922 10.4389 12.457 10.4389C12.4217 10.4389 12.3931 10.4675 12.3931 10.5028C12.3931 10.5381 12.4217 10.5667 12.457 10.5667Z" fill="#F5F5F5"/>
<path d="M13.224 10.5667C13.2593 10.5667 13.2879 10.5381 13.2879 10.5028C13.2879 10.4675 13.2593 10.4389 13.224 10.4389C13.1888 10.4389 13.1602 10.4675 13.1602 10.5028C13.1602 10.5381 13.1888 10.5667 13.224 10.5667Z" fill="#F5F5F5"/>
<path d="M11.5622 10.5667C11.5975 10.5667 11.6261 10.5381 11.6261 10.5028C11.6261 10.4675 11.5975 10.4389 11.5622 10.4389C11.5269 10.4389 11.4983 10.4675 11.4983 10.5028C11.4983 10.5381 11.5269 10.5667 11.5622 10.5667Z" fill="#F5F5F5"/>
<path d="M10.7953 10.5667C10.8306 10.5667 10.8592 10.5381 10.8592 10.5028C10.8592 10.4675 10.8306 10.4389 10.7953 10.4389C10.7601 10.4389 10.7314 10.4675 10.7314 10.5028C10.7314 10.5381 10.7601 10.5667 10.7953 10.5667Z" fill="#F5F5F5"/>
<path d="M10.2202 10.4389V10.5667L10.348 10.6306L10.6036 10.5029L10.348 10.3751L10.2202 10.4389Z" fill="#FF4B55"/>
<path d="M13.7987 10.5667V10.4389L13.6709 10.3751L13.4153 10.5029L13.6709 10.6306L13.7987 10.5667Z" fill="#FF4B55"/>
<path d="M11.159 9.41589C11.1182 9.39582 11.0697 9.4082 11.029 9.43975C11.0499 9.40876 11.0619 9.36742 11.0596 9.32246C11.055 9.23106 10.994 9.15981 10.9236 9.16346C10.8531 9.16703 10.7997 9.24404 10.8043 9.33545C10.8068 9.38401 10.8258 9.42582 10.853 9.45479C10.798 9.42793 10.7377 9.43051 10.701 9.46736C10.6511 9.51723 10.6631 9.61018 10.7278 9.67492C10.7926 9.7397 10.8855 9.7517 10.9354 9.70178C10.9494 9.68786 10.9574 9.67023 10.9618 9.65111C10.972 9.67787 10.9877 9.70103 11.0126 9.71326C11.0759 9.74443 11.16 9.70318 11.2005 9.62106C11.2408 9.53893 11.2223 9.44711 11.159 9.41589ZM10.9711 9.50809C10.9617 9.52712 10.9563 9.54662 10.953 9.56584C10.9435 9.54067 10.9301 9.51582 10.9085 9.49421C10.9048 9.49051 10.9003 9.48873 10.8964 9.48531C10.9104 9.49112 10.925 9.49525 10.9404 9.49445C10.9611 9.49337 10.9795 9.48456 10.9962 9.47242C10.9873 9.48367 10.9779 9.49436 10.9711 9.50809Z" fill="#F5F5F5"/>
<path d="M12.8022 9.62105C12.8426 9.70313 12.9267 9.74443 12.9901 9.71326C13.0149 9.70097 13.0306 9.67777 13.0408 9.6511C13.0453 9.67018 13.0533 9.68785 13.0672 9.70177C13.1171 9.75169 13.21 9.73969 13.2748 9.67491C13.3396 9.61018 13.3516 9.51722 13.3017 9.46735C13.2648 9.43051 13.2047 9.42793 13.1497 9.45479C13.1769 9.42582 13.1958 9.38401 13.1983 9.33544C13.203 9.24404 13.1496 9.16702 13.0791 9.16346C13.0086 9.1599 12.9477 9.23105 12.943 9.32246C12.9407 9.36746 12.9527 9.40875 12.9737 9.43974C12.9329 9.40819 12.8844 9.39582 12.8437 9.41588C12.7802 9.4471 12.7617 9.53893 12.8022 9.62105ZM13.0064 9.47236C13.0231 9.48455 13.0415 9.49336 13.0622 9.4944C13.0776 9.49519 13.0922 9.49102 13.1062 9.48526C13.1023 9.48863 13.0978 9.49041 13.0941 9.49416C13.0725 9.51572 13.0591 9.54061 13.0496 9.56579C13.0464 9.54661 13.0409 9.52702 13.0315 9.50804C13.0247 9.49435 13.0153 9.48366 13.0064 9.47236Z" fill="#F5F5F5"/>
<path d="M14.3339 9.04044C14.1497 8.97491 13.7625 8.93985 13.6151 9.27449C13.5866 9.33913 13.6159 9.4145 13.6805 9.44296C13.7429 9.47052 13.8147 9.44324 13.8452 9.38291L13.8933 9.43996C13.853 9.55321 13.8369 9.6546 13.8323 9.68947C13.7665 9.96205 13.5135 9.99163 13.4072 9.99163C13.2356 9.99163 13.1386 9.80779 13.1377 9.80591C13.1202 9.77207 13.0883 9.7475 13.0509 9.7394C13.0135 9.73129 12.9745 9.73991 12.9446 9.76335C12.8746 9.81838 12.6567 9.96707 12.4924 9.99322C12.4131 10.0059 12.3485 9.99271 12.3048 9.9553C12.2694 9.92511 12.2569 9.88719 12.2569 9.86385C12.2569 9.80657 12.3273 9.73602 12.3847 9.73602C12.4282 9.73602 12.4448 9.76386 12.4448 9.76386C12.4751 9.82799 12.5514 9.85513 12.6151 9.82499C12.6789 9.79466 12.7061 9.71854 12.6759 9.65474C12.6512 9.60233 12.5829 9.52147 12.4706 9.49222C12.5388 9.38399 12.6015 9.25251 12.6404 9.09702L12.2569 8.96919C12.2569 8.96919 12.3848 8.58575 12.0013 8.58575C11.6179 8.58575 11.7457 8.96919 11.7457 8.96919L11.3623 9.09702C11.4012 9.25251 11.4638 9.38408 11.532 9.49222C11.4197 9.52152 11.3514 9.60238 11.3267 9.65474C11.2965 9.71854 11.3237 9.79466 11.3875 9.82499C11.4512 9.85504 11.5275 9.82799 11.5577 9.7641C11.5577 9.7641 11.5745 9.73602 11.6179 9.73602C11.6753 9.73602 11.7458 9.80652 11.7458 9.86385C11.7458 9.88719 11.7332 9.92516 11.6979 9.9553C11.6542 9.99275 11.5895 10.006 11.5103 9.99322C11.3459 9.96697 11.128 9.81838 11.0581 9.76335C11.0281 9.73986 10.9891 9.73129 10.9517 9.7394C10.9144 9.7475 10.8825 9.77207 10.865 9.80591C10.864 9.80779 10.7671 9.99163 10.5955 9.99163C10.4891 9.99163 10.2361 9.96205 10.1703 9.68947C10.1658 9.6546 10.1497 9.55325 10.1094 9.43996L10.1575 9.38291C10.188 9.44329 10.2598 9.47052 10.3222 9.44296C10.3868 9.4145 10.4161 9.33913 10.3876 9.27449C10.2402 8.9399 9.8529 8.97496 9.66882 9.04044C9.61609 9.05915 9.58164 9.10996 9.58384 9.16588C9.58595 9.2218 9.62429 9.26971 9.67829 9.28433C9.83486 9.32638 9.90512 9.62568 9.9174 9.72716C9.91796 9.73152 9.91881 9.73616 9.91975 9.74052C9.99118 10.053 10.2502 10.2473 10.5955 10.2473C10.7934 10.2473 10.9303 10.1352 11.0097 10.0423C11.1217 10.1161 11.3019 10.219 11.47 10.2456C11.5023 10.2508 11.5339 10.2534 11.5647 10.2534C11.6802 10.2534 11.7841 10.2178 11.8638 10.1498C11.95 10.0763 12.0014 9.96936 12.0014 9.86394C12.0014 9.96941 12.0528 10.0763 12.139 10.1498C12.2186 10.2178 12.3226 10.2534 12.4381 10.2534C12.4689 10.2534 12.5004 10.2508 12.5327 10.2456C12.7009 10.219 12.8811 10.1161 12.9931 10.0423C13.0725 10.1352 13.2093 10.2473 13.4073 10.2473C13.7526 10.2473 14.0116 10.0531 14.083 9.74052C14.084 9.73616 14.0848 9.73152 14.0854 9.72716C14.0976 9.62568 14.1679 9.32643 14.3244 9.28433C14.3785 9.26975 14.4168 9.2218 14.4189 9.16588C14.421 9.10996 14.3866 9.05915 14.3339 9.04044Z" fill="#FFE15A"/>
<path d="M9.78142 9.30383C9.71621 9.33088 9.69623 9.43209 9.73679 9.52989C9.77735 9.6277 9.8631 9.68506 9.92831 9.65801C9.99352 9.63096 10.0135 9.52975 9.97294 9.43195C9.93238 9.33414 9.84663 9.27678 9.78142 9.30383Z" fill="#4173CD"/>
<path d="M14.0742 9.65727C14.1394 9.68432 14.2252 9.62696 14.2657 9.52915C14.3063 9.43135 14.2863 9.33014 14.2211 9.30309C14.1559 9.27604 14.0701 9.33341 14.0296 9.43121C13.989 9.52901 14.009 9.63023 14.0742 9.65727Z" fill="#4173CD"/>
<path d="M12.0013 9.60854C12.1072 9.60854 12.193 9.4941 12.193 9.35293C12.193 9.21176 12.1072 9.09732 12.0013 9.09732C11.8954 9.09732 11.8096 9.21176 11.8096 9.35293C11.8096 9.4941 11.8954 9.60854 12.0013 9.60854Z" fill="#4173CD"/>
</svg>
