<svg width="24" height="24" viewBox="0 0 24 24" fill="none" xmlns="http://www.w3.org/2000/svg">
<path d="M22.2026 4.13794H1.79742C0.804703 4.13794 0 4.94264 0 5.93536V9.37931H24V5.93536C24 4.94264 23.1953 4.13794 22.2026 4.13794Z" fill="#FF4B55"/>
<path d="M0 18.0647C0 19.0573 0.804703 19.8621 1.79742 19.8621H22.2026C23.1952 19.8621 24 19.0574 24 18.0647V14.6207H0V18.0647Z" fill="#464655"/>
<path d="M24 9.37921H0V14.6203H24V9.37921Z" fill="#F5F5F5"/>
<path d="M14.4406 10.9465C14.3971 10.9238 14.3456 10.8428 14.3617 10.8074C14.3786 10.7702 14.3522 10.7734 14.4412 10.7998C14.6019 10.8415 14.706 10.8225 14.8081 10.7355L14.8989 10.6637L15.0049 10.7166C15.0635 10.7431 15.124 10.762 15.1411 10.7582C15.1903 10.7468 15.2849 10.6257 15.283 10.5841C15.2811 10.5275 15.3227 10.5426 15.3435 10.6031C15.387 10.7166 15.307 10.9124 15.1972 10.9389C15.1443 10.954 15.0951 10.9503 15.0118 10.9238C14.9135 10.886 14.8983 10.886 14.8454 10.9238C14.7357 11.0108 14.5787 11.0185 14.4406 10.9465Z" fill="#73AF00"/>
<path d="M14.8547 10.5085C14.8016 10.4341 14.7378 10.1738 14.7565 10.1101C14.775 10.0516 14.7936 10.041 14.8441 10.057C14.9344 10.0888 14.9558 10.1473 14.945 10.3599C14.9291 10.5191 14.9079 10.5723 14.8547 10.5085Z" fill="#73AF00"/>
<path d="M11.2971 11.6592C11.0791 11.7833 10.7548 11.8046 10.7548 12.1483C10.28 12.166 9.72002 12.1873 9.21499 12.1766C9.35187 11.9998 10.2182 11.1991 10.5784 10.8818C10.638 10.8293 10.6583 10.7277 10.6236 10.6562L10.6143 10.637C10.5623 10.5299 10.421 10.5044 10.335 10.5866C9.97601 10.93 9.62027 11.25 9.56234 11.3048C9.09752 11.7745 8.9613 11.9114 8.88827 11.9849C8.83629 12.0373 8.80737 12.1081 8.80774 12.1818L8.80779 12.1866C8.80859 12.3399 8.93309 12.4637 9.08632 12.4637H11.1198C11.235 12.4637 11.0933 12.0632 11.2421 12.0632C11.3456 12.0632 11.3551 12.2069 11.3505 12.3591C11.3471 12.4749 11.2517 12.5665 11.1359 12.5666C10.2567 12.5678 9.34155 12.5762 8.48037 12.577C8.40926 12.5771 8.35216 12.5194 8.35216 12.4482V12.2933C8.35216 12.162 8.20629 12.0856 8.09651 12.1577C8.09248 12.1603 8.08854 12.1628 8.0846 12.1653C8.02723 12.2011 7.99788 12.2714 8.02029 12.3352C8.03482 12.3766 8.04115 12.427 8.04251 12.4798C8.04438 12.5495 7.98762 12.6069 7.91791 12.6091C7.6331 12.6178 7.32359 12.6204 7.2357 12.4524C7.1861 12.3578 7.08059 12.313 6.98491 12.3608L6.97221 12.3672C6.87152 12.4176 6.83116 12.5421 6.88634 12.6402C6.99124 12.8267 7.08696 13.0431 7.03727 13.3462C6.99677 13.4417 6.92046 13.5015 6.83777 13.5553C6.7459 13.6151 6.80355 13.7551 6.91132 13.7351C7.1726 13.6868 7.35265 13.48 7.40768 13.2363H11.4586C11.6072 13.2363 11.7276 13.1158 11.7276 12.9673V12.0881C11.6905 11.8259 11.4087 11.8365 11.2971 11.6592Z" fill="#73AF00"/>
<path d="M16.4354 10.4975C16.4952 10.536 16.5551 10.5744 16.6218 10.6062C16.6947 10.641 16.7226 10.7301 16.6799 10.7987C16.6686 10.8169 16.6593 10.8372 16.6539 10.8618V12.6054C16.773 12.6301 16.8414 12.6067 16.8958 12.5693C16.9571 12.527 17.0399 12.5578 17.0593 12.6297C17.1004 12.7826 17.1677 12.932 17.2036 13.068C17.2261 13.1531 17.1622 13.2362 17.0743 13.2362H16.3912C16.3308 13.2362 16.2817 13.1872 16.2817 13.1267V10.5814C16.2816 10.5026 16.3691 10.4548 16.4354 10.4975Z" fill="#73AF00"/>
<path d="M15.6083 10.9221C15.6088 11.4036 15.6144 11.9222 15.6152 12.4383C15.6153 12.5052 15.5611 12.5594 15.4942 12.5594H15.4864C15.4196 12.5594 15.3654 12.5052 15.3654 12.4384V11.2155C15.3654 11.1489 15.2872 11.1133 15.2371 11.1571L15.0768 11.2956C15.0441 11.3239 15.0252 11.3647 15.025 11.408C15.0245 11.6069 15.0227 12.1861 15.022 12.4389C15.0218 12.5055 14.9677 12.5594 14.9011 12.5594H14.8901C14.8237 12.5594 14.7697 12.506 14.7692 12.4395C14.768 12.2712 14.7659 11.9592 14.7651 11.7252C14.7648 11.6579 14.6852 11.6228 14.6346 11.6671C14.4685 11.8126 14.4302 11.8456 14.343 11.9356C14.3501 11.9817 14.3856 11.9356 14.4068 11.971V12.2049C13.8018 12.091 13.7566 12.5744 13.7793 13.093C13.7827 13.171 13.8467 13.2326 13.9247 13.2326H15.8243C15.8948 13.2326 15.9519 13.1755 15.9519 13.1051V10.7435C15.9519 10.6646 15.8583 10.6241 15.8001 10.6774C15.7537 10.7198 15.7041 10.7624 15.6615 10.8008C15.6274 10.832 15.6082 10.8758 15.6083 10.9221ZM14.2102 12.5417C14.1731 12.4354 14.3822 12.3963 14.4069 12.4921C14.4158 12.609 14.2564 12.6126 14.2102 12.5417Z" fill="#73AF00"/>
<path d="M7.93574 13.4241C8.0084 13.4241 8.06685 13.4844 8.06685 13.5551C8.06685 13.6296 8.0084 13.6863 7.93574 13.6863C7.86135 13.6863 7.80103 13.6296 7.80103 13.5551C7.80107 13.4844 7.8614 13.4241 7.93574 13.4241Z" fill="#73AF00"/>
<path d="M12.255 10.5509C12.2905 10.5723 12.327 10.5927 12.3658 10.611C12.4359 10.6441 12.4636 10.7313 12.4207 10.7959C12.4078 10.8154 12.3968 10.8374 12.3903 10.8654V12.6054C12.5166 12.6335 12.5857 12.606 12.6407 12.5653C12.6956 12.5247 12.7745 12.5527 12.7921 12.6186C12.8236 12.7367 12.8711 12.8535 12.9077 12.9644C12.9525 13.1001 12.8519 13.2398 12.7091 13.2398H12.1763C12.09 13.2398 12.02 13.1699 12.02 13.0835V10.6857C12.02 10.5652 12.1516 10.4888 12.255 10.5509Z" fill="#73AF00"/>
</svg>
