<svg width="24" height="24" viewBox="0 0 24 24" fill="none" xmlns="http://www.w3.org/2000/svg">
<path d="M22.2026 19.8621H1.79742C0.804703 19.8621 0 19.0574 0 18.0646V5.93536C0 4.94269 0.804703 4.13794 1.79742 4.13794H22.2026C23.1952 4.13794 24 4.94264 24 5.93536V18.0647C24 19.0574 23.1953 19.8621 22.2026 19.8621Z" fill="#41479B"/>
<path d="M0.413813 12H1.13259L4.96556 9.48872V12H7.03453V9.48872L10.8675 12H11.5862C11.8148 12 12 11.8147 12 11.5862V11.258L8.71158 9.10346H12V7.03449H8.71148L12 4.87997V4.55175C12 4.32328 11.8148 4.13808 11.5864 4.13794H10.8675L7.03448 6.64922V4.13794H4.96552V6.64922L1.25831 4.22035C0.825469 4.35628 0.463594 4.65174 0.240516 5.03756L3.28852 7.03449H0V9.10346H3.28852L0 11.258V11.5862C0 11.8147 0.185297 12 0.413813 12Z" fill="#F5F5F5"/>
<path d="M12 7.4483H6.62067V4.13794H5.37933V7.4483H0V8.68964H5.37933V12H6.62067V8.68964H12V7.4483Z" fill="#FF4B55"/>
<path d="M0.385742 4.82353L3.79177 7.03448H4.5518L0.684805 4.52432C0.573758 4.61198 0.473398 4.71243 0.385742 4.82353Z" fill="#FF4B55"/>
<path d="M7.79446 7.03449L11.937 4.34546C11.865 4.22363 11.738 4.13794 11.5861 4.13794H11.4966L7.03442 7.03449H7.79446Z" fill="#FF4B55"/>
<path d="M4.19418 9.10345L0.0595703 11.7873C0.130867 11.9121 0.259867 12 0.413898 12H0.491945L4.95426 9.10345H4.19418Z" fill="#FF4B55"/>
<path d="M11.9934 11.6187L8.11843 9.10345H7.3584L11.7587 11.9598C11.8906 11.8986 11.981 11.7704 11.9934 11.6187Z" fill="#FF4B55"/>
<path d="M17.6781 7.03654L17.8298 7.4916L18.3095 7.4953C18.3466 7.49563 18.362 7.54298 18.3321 7.5651L17.9463 7.85005L18.0909 8.30741C18.1021 8.34285 18.0618 8.37219 18.0315 8.35054L17.6412 8.07159L17.251 8.35054C17.2207 8.37215 17.1804 8.34285 17.1916 8.30741L17.3362 7.85005L16.9503 7.5651C16.9204 7.54302 16.9359 7.49559 16.973 7.4953L17.4527 7.4916L17.6044 7.03654C17.6165 7.00129 17.6663 7.00129 17.6781 7.03654Z" fill="#F5F5F5"/>
<path d="M15.6383 7.59619L15.962 7.95019L16.4017 7.75851C16.4358 7.74366 16.4691 7.78069 16.4508 7.81303L16.2141 8.23031L16.5323 8.58928C16.557 8.61712 16.532 8.6603 16.4957 8.65284L16.0257 8.55675L15.7826 8.97028C15.7638 9.0023 15.7151 8.99194 15.7108 8.955L15.657 8.47837L15.1886 8.37502C15.1522 8.367 15.1471 8.31741 15.1809 8.30203L15.6176 8.10351L15.5711 7.62609C15.5676 7.58906 15.6132 7.56881 15.6383 7.59619Z" fill="#F5F5F5"/>
<path d="M14.0027 8.93713L14.4424 9.1288L14.7661 8.7748C14.7912 8.74738 14.8368 8.76767 14.8331 8.80466L14.7867 9.28208L15.2234 9.4806C15.2572 9.49597 15.252 9.54556 15.2157 9.55358L14.7473 9.65694L14.6935 10.1336C14.6893 10.1705 14.6405 10.1809 14.6216 10.1488L14.3786 9.73531L13.9086 9.83141C13.8722 9.83886 13.8473 9.79569 13.872 9.76784L14.1902 9.40888L13.9535 8.9916C13.9353 8.95935 13.9686 8.92227 14.0027 8.93713Z" fill="#F5F5F5"/>
<path d="M13.0536 10.8274L13.5333 10.8237L13.685 10.3686C13.6968 10.3333 13.7466 10.3333 13.7584 10.3686L13.9102 10.8237L14.3898 10.8274C14.427 10.8277 14.4424 10.8751 14.4125 10.8972L14.0266 11.1822L14.1713 11.6395C14.1825 11.6749 14.1422 11.7043 14.1119 11.6826L13.7216 11.4037L13.3313 11.6826C13.301 11.7042 13.2608 11.6749 13.2719 11.6395L13.4166 11.1822L13.0307 10.8972C13.0011 10.8751 13.0165 10.8276 13.0536 10.8274Z" fill="#F5F5F5"/>
<path d="M12.9558 12.9402L13.3925 12.7417L13.3461 12.2642C13.3425 12.2272 13.388 12.207 13.4131 12.2344L13.7368 12.5884L14.1765 12.3967C14.2106 12.3818 14.244 12.4189 14.2256 12.4512L13.989 12.8685L14.3071 13.2275C14.3318 13.2553 14.3069 13.2985 14.2705 13.291L13.8005 13.1949L13.5575 13.6085C13.5386 13.6405 13.4899 13.6301 13.4857 13.5932L13.4318 13.1166L12.9634 13.0132C12.9271 13.0051 12.922 12.9555 12.9558 12.9402Z" fill="#F5F5F5"/>
<path d="M13.7257 14.9101L14.0439 14.5512L13.8073 14.1339C13.7889 14.1015 13.8223 14.0645 13.8563 14.0794L14.296 14.271L14.6198 13.917C14.6448 13.8896 14.6904 13.9099 14.6868 13.9469L14.6403 14.4243L15.077 14.6228C15.1109 14.6382 15.1056 14.6878 15.0694 14.6958L14.601 14.7992L14.5471 15.2758C14.5429 15.3127 14.4941 15.3231 14.4753 15.2911L14.2322 14.8776L13.7623 14.9736C13.726 14.9811 13.7011 14.9379 13.7257 14.9101Z" fill="#F5F5F5"/>
<path d="M15.2301 16.3967L15.3748 15.9393L14.9889 15.6544C14.959 15.6323 14.9744 15.5849 15.0116 15.5846L15.4912 15.5809L15.643 15.1258C15.6547 15.0905 15.7046 15.0905 15.7164 15.1258L15.8681 15.5809L16.3478 15.5846C16.3849 15.5849 16.4003 15.6322 16.3704 15.6544L15.9846 15.9393L16.1292 16.3967C16.1404 16.4321 16.1001 16.4615 16.0698 16.4398L15.6795 16.1609L15.2893 16.4398C15.2593 16.4614 15.219 16.4321 15.2301 16.3967Z" fill="#F5F5F5"/>
<path d="M17.2091 17.1428L17.1553 16.6662L16.6868 16.5628C16.6505 16.5548 16.6454 16.5052 16.6792 16.4898L17.1159 16.2913L17.0694 15.8139C17.0658 15.7769 17.1114 15.7566 17.1365 15.784L17.4602 16.138L17.8999 15.9464C17.934 15.9315 17.9673 15.9685 17.949 16.0009L17.7123 16.4181L18.0305 16.7771C18.0552 16.805 18.0302 16.8481 17.9939 16.8407L17.5239 16.7446L17.2808 17.1581C17.262 17.19 17.2133 17.1797 17.2091 17.1428Z" fill="#F5F5F5"/>
<path d="M19.3206 17.0194L19.0776 16.6058L18.6076 16.7019C18.5712 16.7094 18.5462 16.6662 18.5709 16.6384L18.8891 16.2794L18.6525 15.8622C18.6342 15.8298 18.6676 15.7928 18.7016 15.8076L19.1413 15.9993L19.465 15.6453C19.4901 15.6179 19.5356 15.6382 19.532 15.6752L19.4856 16.1526L19.9223 16.3511C19.9561 16.3665 19.9509 16.4161 19.9146 16.4241L19.4462 16.5275L19.3923 17.0041C19.3882 17.041 19.3395 17.0514 19.3206 17.0194Z" fill="#F5F5F5"/>
<path d="M21.1995 16.0479L20.8092 15.7689L20.4189 16.0479C20.3886 16.0695 20.3484 16.0402 20.3595 16.0047L20.5042 15.5474L20.1183 15.2624C20.0884 15.2404 20.1038 15.1929 20.141 15.1926L20.6206 15.1889L20.7724 14.7339C20.7841 14.6986 20.834 14.6986 20.8458 14.7339L20.9976 15.1889L21.4772 15.1926C21.5144 15.193 21.5298 15.2403 21.4999 15.2624L21.114 15.5474L21.2586 16.0047C21.27 16.0401 21.2297 16.0694 21.1995 16.0479Z" fill="#F5F5F5"/>
<path d="M22.5206 14.3961L22.0506 14.3L21.8076 14.7136C21.7887 14.7456 21.74 14.7352 21.7357 14.6983L21.6819 14.2217L21.2135 14.1183C21.1771 14.1103 21.172 14.0607 21.2058 14.0453L21.6425 13.8468L21.5961 13.3694C21.5924 13.3324 21.638 13.3121 21.6631 13.3395L21.9868 13.6935L22.4265 13.5019C22.4606 13.487 22.4939 13.524 22.4756 13.5564L22.2389 13.9736L22.5571 14.3326C22.5819 14.3604 22.557 14.4036 22.5206 14.3961Z" fill="#F5F5F5"/>
<path d="M23.0556 12.35L22.5872 12.4533L22.5333 12.9299C22.5291 12.9669 22.4803 12.9772 22.4615 12.9452L22.2184 12.5317L21.7485 12.6278C21.7121 12.6352 21.6871 12.5921 21.7118 12.5642L22.03 12.2052L21.7934 11.788C21.7751 11.7556 21.8084 11.7186 21.8425 11.7335L22.2821 11.9251L22.6059 11.5711C22.6309 11.5437 22.6765 11.564 22.6729 11.601L22.6264 12.0784L23.0631 12.2769C23.0971 12.2923 23.0919 12.3419 23.0556 12.35Z" fill="#F5F5F5"/>
<path d="M22.7123 10.263L22.3264 10.5479L22.471 11.0053C22.4822 11.0407 22.4419 11.07 22.4116 11.0484L22.0214 10.7694L21.6311 11.0484C21.6008 11.07 21.5605 11.0407 21.5717 11.0053L21.7164 10.5479L21.3305 10.263C21.3006 10.2409 21.316 10.1934 21.3531 10.1932L21.8328 10.1895L21.9846 9.73439C21.9963 9.69909 22.0462 9.69909 22.058 9.73439L22.2098 10.1895L22.6894 10.1932C22.7267 10.1935 22.7422 10.2409 22.7123 10.263Z" fill="#F5F5F5"/>
<path d="M21.5496 8.49608L21.313 8.91336L21.6312 9.27233C21.6559 9.30017 21.6309 9.34335 21.5945 9.33589L21.1246 9.2398L20.8815 9.65333C20.8627 9.68535 20.8139 9.67499 20.8097 9.63805L20.7559 9.16142L20.2874 9.05807C20.2511 9.05005 20.2459 9.00046 20.2798 8.98508L20.7165 8.78657L20.67 8.30914C20.6664 8.27216 20.712 8.25186 20.7371 8.27928L21.0608 8.63328L21.5005 8.44161C21.5346 8.42671 21.568 8.46378 21.5496 8.49608Z" fill="#F5F5F5"/>
<path d="M19.7689 7.35486L19.7225 7.83229L20.1592 8.0308C20.193 8.04618 20.1878 8.09577 20.1515 8.10379L19.6831 8.20714L19.6292 8.68377C19.6251 8.72071 19.5763 8.73107 19.5574 8.69905L19.3144 8.28552L18.8444 8.38161C18.808 8.38907 18.7831 8.34589 18.8078 8.31805L19.126 7.95908L18.8893 7.5418C18.871 7.50946 18.9044 7.47243 18.9384 7.48729L19.3781 7.67896L19.7018 7.32496C19.727 7.29754 19.7725 7.31788 19.7689 7.35486Z" fill="#F5F5F5"/>
<path d="M17.6781 7.03654L17.8298 7.4916L18.3095 7.4953C18.3466 7.49563 18.362 7.54298 18.3321 7.5651L17.9463 7.85005L18.0909 8.30741C18.1021 8.34285 18.0618 8.37219 18.0315 8.35054L17.6412 8.07159L17.251 8.35054C17.2207 8.37215 17.1804 8.34285 17.1916 8.30741L17.3362 7.85005L16.9503 7.5651C16.9204 7.54302 16.9359 7.49559 16.973 7.4953L17.4527 7.4916L17.6044 7.03654C17.6165 7.00129 17.6663 7.00129 17.6781 7.03654Z" fill="#F5F5F5"/>
</svg>
