<svg width="24" height="24" viewBox="0 0 24 24" fill="none" xmlns="http://www.w3.org/2000/svg">
<path d="M22.2026 4.13794H1.79742C0.804703 4.13794 0 4.94264 0 5.93536V9.37931H24V5.93536C24 4.94264 23.1953 4.13794 22.2026 4.13794Z" fill="#FF4B55"/>
<path d="M0 18.0647C0 19.0573 0.804703 19.8621 1.79742 19.8621H22.2026C23.1952 19.8621 24 19.0574 24 18.0647V14.6207H0V18.0647Z" fill="#464655"/>
<path d="M24 9.37921H0V14.6203H24V9.37921Z" fill="#F5F5F5"/>
<path d="M7.03277 10.4678L7.37777 11.5023L8.46818 11.5107C8.60932 11.5118 8.66786 11.6919 8.55429 11.7758L7.67711 12.4237L8.00604 13.4633C8.0486 13.5979 7.89536 13.7092 7.78052 13.6272L6.89341 12.9931L6.0063 13.6272C5.89141 13.7092 5.73822 13.5979 5.78079 13.4633L6.10971 12.4237L5.23254 11.7758C5.11896 11.692 5.1775 11.5118 5.31864 11.5107L6.4091 11.5023L6.7541 10.4678C6.79868 10.3339 6.9881 10.3339 7.03277 10.4678Z" fill="#73AF00"/>
<path d="M17.2464 10.4678L17.5914 11.5023L18.6818 11.5107C18.8229 11.5118 18.8815 11.6919 18.7679 11.7758L17.8907 12.4237L18.2197 13.4633C18.2622 13.5979 18.109 13.7092 17.9941 13.6272L17.107 12.9931L16.2199 13.6272C16.105 13.7092 15.9518 13.5979 15.9944 13.4633L16.3233 12.4237L15.4462 11.7758C15.3326 11.692 15.3911 11.5118 15.5323 11.5107L16.6227 11.5023L16.9677 10.4678C17.0123 10.3339 17.2017 10.3339 17.2464 10.4678Z" fill="#73AF00"/>
</svg>
