<svg width="24" height="24" viewBox="0 0 24 24" fill="none" xmlns="http://www.w3.org/2000/svg">
<path d="M24 5.93352C23.9991 4.94164 23.1947 4.13788 22.2026 4.13788H1.79742C0.804703 4.13783 0 4.94258 0 5.93525V18.0646C0 19.0573 0.804703 19.8621 1.79742 19.8621H22.2026C23.1947 19.8621 23.9991 19.0582 24 18.0664V5.93352Z" fill="#73AF00"/>
<path d="M13.2945 14.4208C11.9575 14.4208 10.8736 13.337 10.8736 11.9999C10.8736 10.6629 11.9575 9.57909 13.2945 9.57909C13.4719 9.57909 13.6438 9.60037 13.8095 9.63838C13.8756 9.65352 13.9106 9.56488 13.853 9.52921C13.346 9.21487 12.7354 9.05184 12.0837 9.10485C10.6651 9.22026 9.52463 10.3768 9.42807 11.7968C9.31266 13.4931 10.6545 14.905 12.3262 14.905C12.8866 14.905 13.4094 14.7458 13.8531 14.4707C13.9107 14.435 13.8758 14.3463 13.8097 14.3616C13.6439 14.3995 13.4719 14.4208 13.2945 14.4208Z" fill="#FFE15A"/>
<path d="M15.4046 9.95016L15.5864 10.4107L16.0598 10.2657C16.0861 10.2576 16.1087 10.286 16.095 10.3098L15.8483 10.7391L16.2568 11.0188C16.2795 11.0343 16.2714 11.0696 16.2443 11.0738L15.7548 11.1486L15.7908 11.6423C15.7928 11.6698 15.7602 11.6855 15.74 11.6668L15.3765 11.3308L15.0129 11.6668C14.9927 11.6855 14.9601 11.6698 14.9621 11.6423L14.9981 11.1486L14.5087 11.0738C14.4815 11.0696 14.4735 11.0343 14.4961 11.0188L14.9046 10.7391L14.658 10.3098C14.6443 10.2859 14.6668 10.2577 14.6931 10.2657L15.1665 10.4107L15.3483 9.95016C15.3583 9.92461 15.3945 9.92461 15.4046 9.95016Z" fill="#FFE15A"/>
<path d="M22.0254 8.7087L22.2073 9.1692L22.6807 9.02422C22.7069 9.01615 22.7295 9.04451 22.7158 9.06833L22.4692 9.49761L22.8777 9.77731C22.9004 9.79283 22.8923 9.82817 22.8651 9.83229L22.3757 9.90711L22.4117 10.4009C22.4137 10.4283 22.3811 10.444 22.3609 10.4254L21.9973 10.0894L21.6337 10.4254C21.6135 10.444 21.5809 10.4283 21.5829 10.4009L21.6189 9.90711L21.1295 9.83229C21.1023 9.82817 21.0943 9.79283 21.1169 9.77731L21.5255 9.49761L21.2788 9.06833C21.2651 9.04447 21.2877 9.0162 21.314 9.02422L21.7874 9.1692L21.9692 8.7087C21.9792 8.6832 22.0154 8.6832 22.0254 8.7087Z" fill="#FFE15A"/>
<path d="M18.7149 5.72348L18.8967 6.18398L19.3701 6.03899C19.3964 6.03093 19.419 6.05929 19.4053 6.0831L19.1586 6.51238L19.5671 6.79208C19.5898 6.8076 19.5817 6.84294 19.5546 6.84707L19.0651 6.92188L19.1011 7.41566C19.1032 7.44308 19.0705 7.45879 19.0503 7.44013L18.6868 7.10413L18.3232 7.44013C18.303 7.45879 18.2704 7.44308 18.2724 7.41566L18.3084 6.92188L17.819 6.84707C17.7918 6.84294 17.7838 6.8076 17.8064 6.79208L18.2149 6.51238L17.9683 6.0831C17.9546 6.05924 17.9771 6.03098 18.0034 6.03899L18.4768 6.18398L18.6586 5.72348C18.6686 5.69793 18.7048 5.69793 18.7149 5.72348Z" fill="#FFE15A"/>
<path d="M18.7149 16.5709L18.8967 17.0314L19.3701 16.8864C19.3964 16.8783 19.419 16.9067 19.4053 16.9305L19.1586 17.3598L19.5671 17.6395C19.5898 17.655 19.5817 17.6903 19.5546 17.6945L19.0651 17.7693L19.1011 18.263C19.1032 18.2905 19.0705 18.3062 19.0503 18.2875L18.6868 17.9515L18.3232 18.2875C18.303 18.3062 18.2704 18.2905 18.2724 18.263L18.3084 17.7693L17.819 17.6945C17.7918 17.6903 17.7838 17.655 17.8064 17.6395L18.2149 17.3598L17.9683 16.9305C17.9546 16.9066 17.9771 16.8784 18.0034 16.8864L18.4768 17.0314L18.6586 16.5709C18.6686 16.5453 18.7048 16.5453 18.7149 16.5709Z" fill="#FFE15A"/>
<path d="M20.0699 10.3669L20.1968 10.7474L20.5979 10.7505C20.629 10.7508 20.6419 10.7904 20.6169 10.8089L20.2942 11.0472L20.4152 11.4296C20.4246 11.4592 20.3908 11.4838 20.3655 11.4657L20.0392 11.2324L19.7128 11.4657C19.6875 11.4837 19.6537 11.4592 19.6631 11.4296L19.7841 11.0472L19.4614 10.8089C19.4364 10.7904 19.4493 10.7507 19.4804 10.7505L19.8815 10.7474L20.0085 10.3669C20.0183 10.3374 20.0601 10.3374 20.0699 10.3669Z" fill="#FFE15A"/>
<path d="M4.34496 11.1726C5.83043 11.1726 7.03465 9.96837 7.03465 8.4829C7.03465 6.99743 5.83043 5.79321 4.34496 5.79321C2.85949 5.79321 1.65527 6.99743 1.65527 8.4829C1.65527 9.96837 2.85949 11.1726 4.34496 11.1726Z" fill="#FFE15A"/>
<path d="M4.06812 10.5781H4.79449C4.79449 10.5781 5.20718 8.72919 4.82749 8.06882L4.5964 8.21736C4.5964 8.2175 4.97608 9.48857 4.06812 10.5781Z" fill="#964B50"/>
<path d="M4.09555 8.15141C4.09555 8.15141 3.67738 8.43753 3.80943 9.28499C3.80943 9.28499 4.12855 9.02085 4.30471 8.43753C4.30471 8.43753 4.05158 8.9218 4.40375 9.30697C4.40375 9.30697 4.77791 8.77869 4.72288 8.31645C4.72288 8.31645 5.96689 9.61555 5.70238 9.28494C5.65836 9.22991 5.76843 8.67959 5.33919 8.22842C5.33919 8.22842 6.04358 8.40449 6.30768 8.33849C6.30768 8.33849 6.32971 7.77716 5.65832 7.67811L5.81239 7.23791C5.81239 7.23791 5.29513 7.20491 5.01997 7.469C5.01997 7.469 4.95393 6.78664 5.22908 6.4565C5.22908 6.4565 4.41468 6.33542 4.38163 7.403C4.38163 7.403 4.08449 6.72064 3.17104 6.88574C3.17104 6.88574 3.6883 7.25989 3.77638 7.42503C3.77638 7.42503 3.05 6.92975 2.70885 7.62313C2.70885 7.62313 3.29216 7.46905 3.50127 7.7442C3.50127 7.7442 2.56579 7.64516 2.48877 8.44859C2.48877 8.44855 3.35825 8.04135 4.09555 8.15141Z" fill="#73AF00"/>
</svg>
