<svg width="24" height="24" viewBox="0 0 24 24" fill="none" xmlns="http://www.w3.org/2000/svg">
<path d="M22.2026 4.13794H1.79742C0.804703 4.13794 0 4.94264 0 5.93536V9.37931H24V5.93536C24 4.94264 23.1953 4.13794 22.2026 4.13794Z" fill="#4173CD"/>
<path d="M0 18.0647C0 19.0573 0.804703 19.8621 1.79742 19.8621H22.2026C23.1952 19.8621 24 19.0574 24 18.0647V14.6207H0V18.0647Z" fill="#4173CD"/>
<path d="M24 9.37921H0V14.6203H24V9.37921Z" fill="#F5F5F5"/>
<path d="M12.0601 11.324L12.2081 11.768L12.6762 11.7717C12.7368 11.7721 12.7619 11.8495 12.7132 11.8855L12.3366 12.1635L12.4778 12.6098C12.496 12.6676 12.4303 12.7154 12.381 12.6802L12.0002 12.4079L11.6194 12.6801C11.5701 12.7153 11.5043 12.6675 11.5225 12.6097L11.6637 12.1634L11.2872 11.8854C11.2385 11.8494 11.2636 11.772 11.3242 11.7716L11.7922 11.768L11.9403 11.3239C11.9596 11.2665 12.0408 11.2665 12.0601 11.324Z" fill="#4173CD"/>
<path d="M7.83309 12.5157L7.98117 12.9597L8.44921 12.9634C8.50982 12.9638 8.5349 13.0412 8.4862 13.0772L8.10965 13.3552L8.25084 13.8015C8.26912 13.8593 8.20335 13.9071 8.15399 13.8719L7.77318 13.5997L7.39237 13.8719C7.34306 13.9071 7.27729 13.8593 7.29553 13.8015L7.43671 13.3552L7.06017 13.0772C7.01137 13.0412 7.03654 12.9638 7.09715 12.9634L7.5652 12.9597L7.71328 12.5157C7.73259 12.4582 7.81392 12.4582 7.83309 12.5157Z" fill="#4173CD"/>
<path d="M7.83309 10.1323L7.98117 10.5764L8.44921 10.58C8.50982 10.5804 8.5349 10.6578 8.4862 10.6938L8.10965 10.9718L8.25084 11.4181C8.26912 11.4759 8.20335 11.5237 8.15399 11.4885L7.77318 11.2163L7.39237 11.4885C7.34306 11.5237 7.27729 11.4759 7.29553 11.4181L7.43671 10.9718L7.06017 10.6938C7.01137 10.6578 7.03654 10.5804 7.09715 10.58L7.5652 10.5764L7.71328 10.1323C7.73259 10.0748 7.81392 10.0748 7.83309 10.1323Z" fill="#4173CD"/>
<path d="M16.2867 12.5157L16.4348 12.9597L16.9028 12.9634C16.9634 12.9638 16.9885 13.0412 16.9398 13.0772L16.5633 13.3552L16.7045 13.8015C16.7227 13.8593 16.657 13.9071 16.6076 13.8719L16.2268 13.5997L15.846 13.8719C15.7967 13.9071 15.7309 13.8593 15.7491 13.8015L15.8903 13.3552L15.5138 13.0772C15.465 13.0412 15.4902 12.9638 15.5508 12.9634L16.0188 12.9597L16.1669 12.5157C16.1862 12.4582 16.2676 12.4582 16.2867 12.5157Z" fill="#4173CD"/>
<path d="M16.2867 10.1323L16.4348 10.5764L16.9028 10.58C16.9634 10.5804 16.9885 10.6578 16.9398 10.6938L16.5633 10.9718L16.7045 11.4181C16.7227 11.4759 16.657 11.5237 16.6076 11.4885L16.2268 11.2163L15.846 11.4885C15.7967 11.5237 15.7309 11.4759 15.7491 11.4181L15.8903 10.9718L15.5138 10.6938C15.465 10.6578 15.4902 10.5804 15.5508 10.58L16.0188 10.5764L16.1669 10.1323C16.1862 10.0748 16.2676 10.0748 16.2867 10.1323Z" fill="#4173CD"/>
</svg>
