<svg width="24" height="24" viewBox="0 0 24 24" fill="none" xmlns="http://www.w3.org/2000/svg">
<path d="M22.2026 19.8621H1.79742C0.804703 19.8621 0 19.0574 0 18.0646V5.93536C0 4.94269 0.804703 4.13794 1.79742 4.13794H22.2026C23.1952 4.13794 24 4.94264 24 5.93536V18.0647C24 19.0574 23.1953 19.8621 22.2026 19.8621Z" fill="#41479B"/>
<path d="M23.7836 18.9204L2.65842 12L23.7836 5.07967C23.636 4.80746 23.4198 4.57801 23.1586 4.41357L0 12L23.1586 19.5864C23.4199 19.422 23.636 19.1926 23.7836 18.9204Z" fill="#FF4B55"/>
<path d="M23.7836 18.9203C23.9216 18.6659 24 18.3744 24 18.0647V5.9354C24 5.6256 23.9216 5.33418 23.7836 5.07974L2.65845 12L23.7836 18.9203Z" fill="#F5F5F5"/>
<path d="M21.4735 9.96357C21.4735 9.96357 22.8905 10.0236 23.0226 9.91553C23.1547 9.80748 23.1787 9.08696 22.7104 8.97892C22.2421 8.87087 20.9692 9.56734 20.9692 9.56734L21.4735 9.96357Z" fill="#FFF5DC"/>
<path d="M18.6995 11.0804C18.6995 11.0804 18.6835 11.1204 18.6755 11.2965C18.6675 11.4726 18.6995 11.9289 19.2519 12.129L19.1239 12.6654L19.7082 13.0176C19.7082 13.0176 20.1406 12.3772 20.1646 11.8408C20.1885 11.3045 18.6995 11.0804 18.6995 11.0804Z" fill="#D27D69"/>
<path d="M16.9464 10.7201L17.1746 10.492C17.1746 10.492 16.7075 10.7769 16.5301 10.52C16.298 10.1838 16.6102 9.83153 16.9344 9.67539C17.2586 9.5193 17.9071 9.63939 17.9071 9.63939L18.3154 10.6841L17.0785 11.4646L16.9464 10.7201Z" fill="#D27D69"/>
<path d="M20.777 8.72673L21.8817 8.59464C21.8817 8.59464 21.5576 9.06296 20.9211 9.4112C20.9211 9.4112 21.5816 9.4112 21.7737 9.63934C21.9658 9.86748 21.5815 10.0837 21.4375 10.1557C21.2934 10.2278 20.0445 10.9963 20.0445 10.9963L18.9277 10.8642L20.777 8.72673Z" fill="#D27D69"/>
<path d="M21.5977 7.87815C21.5977 7.87815 21.8378 7.31776 21.8298 6.92551L21.0213 7.4859C21.0213 7.4859 21.2054 7.39787 21.1414 7.07762L18.4995 8.51058L17.9631 9.46323L19.5963 9.9676L21.5977 7.87815Z" fill="#D27D69"/>
<path d="M19.6062 12.2451L19.33 12.6834C19.33 12.6834 18.8377 12.5754 18.6696 12.6954C18.5015 12.8155 18.4835 13.2659 18.7776 13.3019C18.7776 13.3019 18.9817 13.428 19.1018 13.3259C19.1018 13.3259 19.3479 13.4219 19.39 13.2658C19.432 13.1097 19.378 12.9776 19.378 12.9776H19.5521L19.8583 12.4313L19.6062 12.2451Z" fill="#FFE15A"/>
<path d="M17.1387 11.2965C17.1387 11.2965 17.9072 10.9122 17.9072 10.3358C17.9072 9.75942 17.1947 9.72741 16.6183 9.91955C16.6183 9.91955 16.2741 9.64739 16.5623 9.37514C16.9573 9.00201 18.6757 8.22234 18.6757 8.22234L18.4836 9.183C18.4836 9.183 19.1681 9.54328 19.4443 9.37514C19.6763 9.23386 21.9419 7.45383 21.9419 7.45383C21.9419 7.45383 21.7498 8.41448 20.4049 9.37514L20.2624 10.0877C20.2311 10.2442 20.1293 10.3776 19.9865 10.4489L19.4443 10.72C19.4443 10.72 20.9813 10.9121 20.9813 11.1043C20.9813 11.2964 20.597 12.2571 19.8285 12.6413L19.4443 12.257L19.6364 11.6806C19.6364 11.6806 19.06 11.4885 18.6757 11.2963C18.6757 11.2963 18.0993 11.4885 17.7151 11.4885C17.3308 11.4886 17.1387 11.2965 17.1387 11.2965Z" fill="#B95546"/>
<path d="M15.9858 12.2572V11.858C15.9858 11.7445 16.0309 11.6357 16.1111 11.5555L16.9465 10.7201L17.1387 11.1044H17.9072L17.7151 11.2965V11.4887L16.7544 12.0651L15.9858 12.2572Z" fill="#FFF5DC"/>
<path d="M16.37 12.065H15.9857C15.9857 12.065 15.6015 12.6414 15.9857 12.6414C15.9857 12.6414 16.5622 12.2572 16.7542 12.065C16.7542 12.065 16.7542 11.8729 16.37 12.065Z" fill="#FFE15A"/>
<path d="M21.0566 12.9173H18.4005C18.3786 12.8937 18.348 12.8785 18.3133 12.8785C18.3133 12.8785 17.8481 12.6856 17.7819 12.6856H17.7274C17.6613 12.6856 17.6076 12.7393 17.6076 12.8054V12.9173H17.0004V12.8054C17.0004 12.7393 16.9468 12.6856 16.8806 12.6856H16.8261C16.76 12.6856 16.7063 12.7393 16.7063 12.8054V12.8075C16.4461 12.7969 15.8897 12.7637 15.6015 12.6676L14.0645 13.0519L15.6015 13.4362C15.8896 13.3401 16.446 13.3069 16.7063 13.2963V13.2983C16.7063 13.3645 16.7599 13.4181 16.8261 13.4181H16.8806C16.9468 13.4181 17.0004 13.3645 17.0004 13.2983V13.1865H17.6076V13.2983C17.6076 13.3645 17.6612 13.4181 17.7274 13.4181H17.7819C17.8481 13.4181 18.3133 13.2253 18.3133 13.2253C18.348 13.2253 18.3787 13.2101 18.4005 13.1865H21.0566C21.131 13.1865 21.1912 13.1262 21.1912 13.0519C21.1913 12.9776 21.131 12.9173 21.0566 12.9173Z" fill="#FFE15A"/>
<path d="M20.941 13.4339C20.7809 13.4019 18.9477 13.7221 18.9477 13.7221C18.9477 13.7221 18.8356 13.61 19.1718 13.2978L19.0117 13.2578C19.0117 13.2578 18.6595 13.5059 18.5153 13.538C18.3913 13.5655 18.114 13.7003 18.0544 13.8803L16.9382 14.0663L16.9622 14.1624L18.0571 14.034C18.1094 14.2022 18.2814 14.2365 18.4032 14.1864C18.4032 14.1864 18.5633 14.2504 18.7074 14.1383C18.7074 14.1383 18.9956 14.1864 19.0116 13.9222L21.021 13.618C21.0211 13.6181 21.1012 13.466 20.941 13.4339Z" fill="#FFE15A"/>
<path d="M19.8044 14.7869C19.8044 14.7869 19.6523 14.987 19.276 14.8109C18.8998 14.6348 18.4594 14.8269 18.2193 14.7709C17.9791 14.7148 17.6189 14.5708 17.2827 14.6988C16.9465 14.8269 16.7623 14.8189 16.8344 14.6588C16.9064 14.4987 16.9464 14.3786 16.8344 14.3226L16.9624 14.1625L16.9384 14.0664C16.9384 14.0664 16.298 13.8183 15.8657 14.1625C15.4334 14.5067 15.5616 15.2913 16.282 15.3473C16.282 15.3473 16.5062 15.6275 17.0586 15.5474C17.0586 15.5474 17.4189 15.7956 18.0352 15.6835C18.0352 15.6835 18.0592 15.7555 18.4595 15.7235C18.8598 15.6915 19.3081 15.7396 19.228 16.0117C19.228 16.0117 19.5242 15.9557 19.3481 15.6834C19.3481 15.6834 19.7004 15.6674 19.9405 15.8756C19.9405 15.8756 19.9566 15.6354 19.7244 15.5073C19.7244 15.5073 20.1167 15.3712 20.3328 15.5073C20.3328 15.5073 20.1887 15.2031 19.8045 15.2431C19.8045 15.2431 20.0846 15.019 20.2127 15.0751C20.2127 15.0751 20.0926 14.931 19.7404 15.0751C19.7403 15.0751 19.9645 14.939 19.8044 14.7869Z" fill="#FFE15A"/>
</svg>
