<svg width="24" height="24" viewBox="0 0 24 24" fill="none" xmlns="http://www.w3.org/2000/svg">
<path d="M22.2026 4.13794H1.79742C0.804703 4.13794 0 4.94264 0 5.93536V7.28278H24V5.93536C24 4.94264 23.1953 4.13794 22.2026 4.13794Z" fill="#FF4B55"/>
<path d="M24 7.28296H0V10.4278H24V7.28296Z" fill="#F5F5F5"/>
<path d="M24 10.4278H0V13.5727H24V10.4278Z" fill="#FF4B55"/>
<path d="M0 18.0646C0 19.0573 0.804703 19.8621 1.79742 19.8621H22.2026C23.1952 19.8621 24 19.0574 24 18.0646V16.7172H0V18.0646Z" fill="#FF4B55"/>
<path d="M24 13.5727H0V16.7175H24V13.5727Z" fill="#F5F5F5"/>
<path d="M0.642187 19.4413L11.6062 12.258C11.7921 12.1362 11.7921 11.8637 11.6062 11.742L0.642187 4.55865C0.249656 4.88842 0 5.38262 0 5.93537V18.0647C0 18.6174 0.249656 19.1116 0.642187 19.4413Z" fill="#41479B"/>
<path d="M4.22744 10.0793L4.6593 11.3742L6.0242 11.3848C6.20088 11.3861 6.27419 11.6116 6.13206 11.7166L5.03406 12.5275L5.44577 13.8289C5.49911 13.9973 5.30725 14.1367 5.16344 14.034L4.05302 13.2403L2.94255 14.034C2.79883 14.1367 2.60697 13.9973 2.66022 13.8289L3.07192 12.5275L1.97392 11.7166C1.8318 11.6116 1.90502 11.3861 2.08178 11.3847L3.44669 11.3741L3.87855 10.0793C3.93442 9.91167 4.17152 9.91167 4.22744 10.0793Z" fill="#F5F5F5"/>
</svg>
