<svg width="24" height="24" viewBox="0 0 24 24" fill="none" xmlns="http://www.w3.org/2000/svg">
<path d="M22.2026 19.8621H1.79742C0.804703 19.8621 0 19.0574 0 18.0646V5.93536C0 4.94269 0.804703 4.13794 1.79742 4.13794H22.2026C23.1952 4.13794 24 4.94264 24 5.93536V18.0647C24 19.0574 23.1953 19.8621 22.2026 19.8621Z" fill="#73AF00"/>
<path d="M18.2071 9.51703H15.3105V19.8619H18.2071V9.51703Z" fill="#FF4B55"/>
<path d="M21.1031 9.51703H18.2065V19.8619H21.1031V9.51703Z" fill="#464655"/>
<path d="M21.1035 19.8621H22.2026C23.1953 19.8621 24.0001 19.0574 24.0001 18.0646V9.51721H21.1035V19.8621Z" fill="#FF9B55"/>
<path d="M23.2946 6.04022C23.3036 6.02208 23.2993 6.00014 23.2841 5.98674C23.2688 5.97328 23.2465 5.97188 23.2297 5.98303C23.146 6.03858 23.0616 6.08906 22.978 6.13486C23.2473 5.91225 23.285 5.71894 23.2875 5.70488C23.2905 5.6872 23.2826 5.66939 23.2676 5.65969C23.2525 5.64989 23.2331 5.65017 23.2182 5.66025C22.9272 5.85759 22.6361 5.99845 22.385 6.09759C22.7222 5.88455 22.8558 5.66719 22.864 5.65345C22.8745 5.63583 22.8716 5.61328 22.8571 5.5988C22.8426 5.58427 22.82 5.58159 22.8024 5.59214C22.5332 5.75442 22.2144 5.88234 21.9096 5.98092C21.9501 5.91849 21.9789 5.84836 21.953 5.80894C21.929 5.77242 21.8851 5.77242 21.8224 5.80908C21.6956 5.88342 20.7344 6.12844 20.362 6.2197C19.9824 6.15113 19.6678 6.24839 19.5698 6.28434C19.5437 6.25327 19.5318 6.22317 19.5268 6.19964C19.5186 6.16134 19.5246 6.12244 19.5427 6.09549C19.5722 6.05156 19.6332 6.04734 19.6871 6.04364C19.7105 6.04205 19.7314 6.04059 19.7497 6.036C19.7614 6.03947 19.7758 6.04622 19.7756 6.05147C19.7745 6.07191 19.7874 6.09038 19.8069 6.09652C19.8264 6.10261 19.8475 6.09483 19.8583 6.07744C19.861 6.07303 19.9243 5.96939 19.8753 5.88113C19.8396 5.81695 19.7577 5.7832 19.6318 5.78077C19.5802 5.74472 19.3849 5.62734 19.1444 5.71805C18.9007 5.80997 18.7926 6.06019 18.7568 6.16594C18.5672 6.13959 17.6966 6.00675 17.2234 5.72892C17.2003 5.71847 17.1218 5.68763 17.0779 5.72944C17.051 5.75498 17.0479 5.79464 17.0685 5.84738C17.0794 5.87531 17.0963 5.90259 17.1186 5.92941C16.8652 5.81311 16.5237 5.65069 16.2656 5.50627C16.2251 5.48756 16.1519 5.46216 16.1141 5.50177C16.0904 5.5267 16.0907 5.56289 16.1151 5.60948C16.1203 5.61933 16.1254 5.6303 16.1309 5.64234C16.1561 5.69649 16.1903 5.77031 16.274 5.85553C16.2115 5.82136 16.1551 5.7862 16.1099 5.75105C15.8833 5.57475 15.8526 5.5575 15.812 5.58488C15.777 5.60841 15.7883 5.6482 15.8003 5.69034L15.8034 5.70145C15.8133 5.73647 15.8293 5.79291 15.8734 5.86097C15.8382 5.83706 15.8081 5.83219 15.7843 5.84878C15.7701 5.85858 15.7488 5.88295 15.7652 5.93667C15.8046 6.06516 16.0769 6.40345 16.595 6.50306C16.5429 6.51066 16.4881 6.51628 16.4353 6.51736C16.4152 6.51778 16.3978 6.53152 16.3928 6.55097C16.3879 6.57042 16.3964 6.59091 16.4139 6.60089C16.4233 6.60633 16.6064 6.7088 16.9421 6.70017C16.8919 6.71283 16.835 6.72258 16.772 6.72633C16.7524 6.7275 16.7359 6.74128 16.7312 6.76031C16.7265 6.77934 16.7347 6.79922 16.7515 6.80934C16.7615 6.81539 16.9563 6.92995 17.2579 6.91303L17.2316 6.9292C17.2165 6.93853 17.2083 6.95583 17.2107 6.97341C17.2132 6.99099 17.2257 7.00552 17.2428 7.01039C17.2522 7.01306 17.4222 7.06041 17.634 7.038L17.5968 7.06449C17.5819 7.07513 17.5749 7.09383 17.5793 7.11159C17.5837 7.12941 17.5984 7.14277 17.6166 7.1453C17.6204 7.14586 17.6478 7.14938 17.6917 7.14938C17.7206 7.14938 17.7567 7.14778 17.7979 7.14277C17.7969 7.15345 17.7982 7.16409 17.8017 7.17469C17.8229 7.23848 17.9168 7.25391 17.9481 7.25433C17.95 7.25438 17.9519 7.25438 17.9538 7.25438C17.9916 7.25438 18.0316 7.24903 18.0723 7.24092C18.1376 7.30191 18.2568 7.29633 18.3724 7.26942C18.3656 7.27983 18.3604 7.29024 18.3571 7.3005C18.3505 7.32164 18.3555 7.3432 18.3707 7.3583C18.3854 7.37288 18.4209 7.40817 18.7441 7.31723C18.7428 7.31827 18.7414 7.3193 18.7401 7.32033C18.6971 7.35361 18.6998 7.38797 18.7053 7.4055C18.7251 7.46906 18.8677 7.5098 19.1265 7.52714C19.1322 7.67105 19.0923 7.82733 19.0918 7.82906C19.0873 7.84627 19.0934 7.86455 19.1074 7.87556C19.1214 7.88648 19.1406 7.88817 19.1563 7.87978C19.1713 7.87172 19.1862 7.86131 19.2003 7.85011L19.199 7.89769C19.1986 7.91498 19.2081 7.93097 19.2235 7.93875C19.2299 7.94203 19.2369 7.94363 19.2438 7.94363C19.2456 7.94363 19.2472 7.94302 19.249 7.94278C19.2441 7.98333 19.2277 8.03175 19.1757 8.04314C19.1522 8.0483 19.1271 8.05083 19.1029 8.05331C18.9928 8.06461 18.868 8.07741 18.8482 8.32983C18.8467 8.34877 18.8574 8.36663 18.8748 8.37431C18.8921 8.38191 18.9124 8.37788 18.9255 8.36409L18.9734 8.31309C19.0016 8.32003 19.0466 8.32716 19.0947 8.31938C19.0826 8.37778 19.0862 8.44969 19.1447 8.51067C19.1573 8.52384 19.1767 8.52802 19.1937 8.52122C19.2107 8.51438 19.2218 8.49792 19.2218 8.47969V8.44734C19.2496 8.44088 19.2865 8.42738 19.3213 8.39963C19.3418 8.44374 19.3808 8.49549 19.455 8.53917C19.4621 8.5433 19.4699 8.54531 19.4777 8.54531C19.488 8.54531 19.4981 8.5418 19.5063 8.53495C19.5208 8.52291 19.5262 8.50298 19.5198 8.48517L19.4964 8.42086C19.5127 8.40478 19.5339 8.38177 19.5524 8.3572C19.5615 8.37052 19.5769 8.37816 19.5933 8.37656C19.6103 8.37492 19.6249 8.36372 19.6309 8.34769L19.6474 8.30386C19.6571 8.30119 19.6664 8.29795 19.6752 8.29434C19.6863 8.39133 19.7608 8.47205 19.7653 8.47683C19.7739 8.48592 19.7858 8.49094 19.798 8.49094C19.8016 8.49094 19.8053 8.49052 19.8089 8.48958C19.8247 8.48559 19.837 8.47345 19.8413 8.45775L19.8662 8.36466C19.9323 8.33114 19.9388 8.27053 19.9428 8.23275C19.9436 8.22534 19.9447 8.21508 19.9449 8.20988C19.9707 8.22258 20.0255 8.28408 20.0668 8.34788C20.075 8.36053 20.0891 8.36831 20.1042 8.36836C20.1196 8.36728 20.1334 8.36091 20.1418 8.3483C20.1418 8.3483 20.1768 8.29533 20.1938 8.26444C20.266 8.13342 20.1566 8.05495 20.1041 8.01727C20.0912 8.00799 20.0735 7.99533 20.0706 7.99181C20.0607 7.96781 20.0642 7.94545 20.0707 7.92811C20.1146 7.9583 20.1643 7.98375 20.2196 7.99674C20.223 7.99758 20.2264 7.99791 20.2298 7.99791C20.2442 7.99791 20.2579 7.99092 20.2664 7.97878C20.2769 7.96378 20.2773 7.94386 20.2672 7.92858C20.2662 7.92703 20.1839 7.80038 20.1308 7.64461C20.2165 7.69491 20.3325 7.75561 20.3927 7.75561C20.434 7.75561 20.4498 7.72992 20.4547 7.71891C20.4575 7.71244 20.4627 7.70072 20.4586 7.67878C20.5383 7.72181 20.6281 7.75519 20.6964 7.73756C20.7166 7.73241 20.7639 7.72017 20.771 7.67775C20.7746 7.65628 20.7674 7.63889 20.7516 7.62178C20.8256 7.63974 20.9053 7.64869 20.9835 7.63833C21.0487 7.62975 21.068 7.59811 21.0726 7.57303C21.0755 7.557 21.0808 7.5262 21.0226 7.46799C21.135 7.46184 21.2353 7.43728 21.2435 7.3695C21.2442 7.36341 21.2431 7.35788 21.2426 7.35216C21.6037 7.31278 21.8785 7.08694 21.8906 7.07677C21.8942 7.07381 21.8966 7.07016 21.8989 7.06645C22.1176 7.03913 22.3659 6.98977 22.567 6.89939C22.9464 6.72881 23.1385 6.49852 23.1041 6.41494C23.0941 6.39061 23.0654 6.37303 23.03 6.38625C23.0201 6.38995 23 6.39811 22.9736 6.4088C23.1983 6.22631 23.2862 6.05709 23.2946 6.04022Z" fill="#FF9B55"/>
<path d="M23.2945 6.04022C23.3035 6.02208 23.2992 6.00014 23.284 5.98674C23.2688 5.97328 23.2464 5.97188 23.2296 5.98303C23.1459 6.03863 23.0615 6.08907 22.9779 6.13486C23.2472 5.91225 23.285 5.71894 23.2874 5.70488C23.2905 5.68721 23.2826 5.66935 23.2675 5.65969C23.2524 5.64989 23.233 5.65013 23.2181 5.66025C22.9272 5.8576 22.636 5.99846 22.3849 6.0976C22.7221 5.88455 22.8557 5.66724 22.8639 5.6535C22.8744 5.63588 22.8716 5.61333 22.8571 5.5988C22.8425 5.58427 22.82 5.5816 22.8023 5.59219C22.5331 5.75447 22.2143 5.88239 21.9096 5.98102C21.95 5.91858 21.9788 5.84846 21.953 5.80903C21.9289 5.77247 21.8851 5.77247 21.8224 5.80917C21.6955 5.88352 20.7344 6.12853 20.3619 6.2198C19.9823 6.15122 19.6678 6.24849 19.5698 6.28444C19.5437 6.25336 19.5318 6.22327 19.5267 6.19978C19.5186 6.16149 19.5245 6.12258 19.5426 6.09563C19.5721 6.05171 19.6332 6.04753 19.687 6.04378C19.7104 6.04219 19.7313 6.04074 19.7497 6.03619C19.7614 6.03961 19.7757 6.04641 19.7755 6.05161C19.7745 6.07205 19.7873 6.09052 19.8068 6.09666C19.8264 6.10275 19.8474 6.09497 19.8583 6.07758C19.8611 6.07322 19.9243 5.96953 19.8753 5.88127C19.8397 5.8171 19.7578 5.78335 19.6318 5.78091C19.5801 5.74486 19.3849 5.62749 19.1444 5.71819C18.9008 5.81007 18.7926 6.06033 18.7568 6.16608C18.5672 6.13974 17.6966 6.00689 17.2233 5.72907C17.2004 5.71861 17.1218 5.68786 17.0779 5.72958C17.051 5.75513 17.0478 5.79478 17.0685 5.84752C17.0794 5.87546 17.0963 5.90274 17.1186 5.92955C16.8652 5.81325 16.5237 5.65083 16.2655 5.50641C16.2251 5.48771 16.1518 5.46225 16.114 5.50191C16.0904 5.52685 16.0906 5.56308 16.1151 5.60963C16.1203 5.61947 16.1253 5.63044 16.1309 5.64249C16.156 5.69663 16.1903 5.77046 16.274 5.85577C16.2115 5.8216 16.1551 5.78644 16.1099 5.75128C15.8833 5.57499 15.8525 5.55774 15.812 5.58511C15.777 5.60869 15.7883 5.64844 15.8003 5.69058L15.8034 5.70169C15.8132 5.73671 15.8293 5.79314 15.8733 5.86121C15.8382 5.8373 15.808 5.83242 15.7843 5.84902C15.7701 5.85872 15.7488 5.88319 15.7652 5.93691C15.8046 6.06539 16.077 6.4036 16.595 6.5033C16.5429 6.51089 16.4882 6.51652 16.4353 6.5176C16.4152 6.51802 16.3978 6.53175 16.3928 6.55121C16.3879 6.57066 16.3965 6.5911 16.4139 6.60113C16.4234 6.60657 16.6065 6.70903 16.9422 6.70032C16.892 6.71297 16.835 6.72277 16.772 6.72647C16.7524 6.7276 16.7358 6.74142 16.7311 6.76046C16.7265 6.77949 16.7347 6.79936 16.7515 6.80949C16.7615 6.81553 16.9563 6.93014 17.258 6.91317L17.2317 6.92935C17.2166 6.93867 17.2083 6.95597 17.2108 6.97355C17.2132 6.99113 17.2258 7.00566 17.2428 7.01053C17.2523 7.01321 17.4223 7.0605 17.6341 7.03814L17.5968 7.06463C17.5819 7.07527 17.5749 7.09397 17.5793 7.11178C17.5837 7.1296 17.5984 7.14296 17.6166 7.14544C17.6205 7.146 17.6479 7.14957 17.6918 7.14957C17.7207 7.14957 17.7568 7.14797 17.7979 7.14296C17.797 7.15364 17.7983 7.16433 17.8018 7.17488C17.823 7.23867 17.9169 7.2541 17.9482 7.25452C17.9501 7.25452 17.952 7.25452 17.9538 7.25452C17.9917 7.25452 18.0316 7.24917 18.0724 7.24107C18.1377 7.30205 18.2569 7.29647 18.3725 7.26957C18.3657 7.27997 18.3605 7.29038 18.3571 7.30069C18.3505 7.32183 18.3556 7.34339 18.3707 7.35849C18.3855 7.37307 18.4209 7.40831 18.7442 7.31742C18.7428 7.3185 18.7415 7.31949 18.7402 7.32056C18.6972 7.35385 18.6999 7.38821 18.7054 7.40574C18.7252 7.4693 18.8678 7.51003 19.1266 7.52738C19.1323 7.67128 19.0922 7.82756 19.0919 7.8293C19.0874 7.8465 19.0935 7.86478 19.1075 7.8758C19.1215 7.88672 19.1407 7.88841 19.1564 7.88002C19.1714 7.87196 19.1863 7.86155 19.2003 7.85035L19.1991 7.89788C19.1986 7.91517 19.2082 7.93116 19.2236 7.93894C19.2301 7.94222 19.2369 7.94382 19.2439 7.94382C19.2457 7.94382 19.2473 7.94316 19.2491 7.94292C19.2443 7.98347 19.2278 8.03189 19.1758 8.04328C19.1522 8.04844 19.1272 8.05097 19.103 8.05346C18.9928 8.06475 18.868 8.07755 18.8483 8.33002C18.8468 8.34896 18.8574 8.36672 18.8748 8.37446C18.8921 8.382 18.9124 8.37802 18.9255 8.36424L18.9734 8.31324C19.0016 8.32017 19.0466 8.32725 19.0947 8.31952C19.0826 8.37792 19.0862 8.44983 19.1446 8.51082C19.1573 8.52399 19.1767 8.52816 19.1937 8.52136C19.2106 8.51452 19.2217 8.49806 19.2217 8.47983V8.44749C19.2495 8.44102 19.2864 8.42752 19.3213 8.39977C19.3417 8.44388 19.3807 8.49567 19.455 8.53932C19.462 8.54344 19.4699 8.5455 19.4776 8.5455C19.4879 8.5455 19.4981 8.54199 19.5063 8.53514C19.5208 8.5231 19.5262 8.50317 19.5197 8.48546L19.4963 8.4211C19.5127 8.40502 19.5339 8.38205 19.5524 8.35749C19.5615 8.3708 19.5769 8.37844 19.5933 8.37685C19.6103 8.37521 19.6249 8.364 19.631 8.34797L19.6474 8.30414C19.6571 8.30147 19.6664 8.29824 19.6753 8.29463C19.6863 8.39161 19.7609 8.47233 19.7654 8.47711C19.7739 8.48625 19.7858 8.49122 19.7979 8.49122C19.8016 8.49122 19.8053 8.4908 19.8089 8.48986C19.8247 8.48588 19.837 8.47374 19.8412 8.45803L19.8661 8.36494C19.9322 8.33147 19.9387 8.27082 19.9427 8.23303C19.9435 8.22563 19.9447 8.21536 19.9448 8.21016C19.9707 8.22286 20.0254 8.28436 20.0667 8.34816C20.0749 8.36081 20.089 8.3686 20.1041 8.36864C20.1195 8.36757 20.1333 8.36114 20.1417 8.34853C20.1417 8.34853 20.1767 8.29561 20.1937 8.26467C20.2659 8.13366 20.1565 8.05519 20.104 8.0175C20.0911 8.00822 20.0734 7.99556 20.0706 7.99205C20.0607 7.96805 20.0641 7.94569 20.0706 7.92835C20.1144 7.95853 20.1643 7.98399 20.2194 7.99697C20.2229 7.99782 20.2263 7.99814 20.2297 7.99814C20.2441 7.99814 20.2578 7.99116 20.2663 7.97902C20.2769 7.96402 20.2771 7.9441 20.2671 7.92881C20.2661 7.92727 20.1838 7.80061 20.1307 7.64485C20.2165 7.69505 20.3324 7.75585 20.3926 7.75585C20.4339 7.75585 20.4496 7.73016 20.4545 7.71914C20.4574 7.71267 20.4625 7.70096 20.4585 7.67902C20.5381 7.7221 20.628 7.75542 20.6963 7.7378C20.7164 7.7326 20.7637 7.72036 20.7709 7.67799C20.7745 7.65647 20.7673 7.63917 20.7514 7.62202C20.8254 7.63997 20.9051 7.64892 20.9833 7.63856C21.0485 7.62994 21.0678 7.59835 21.0724 7.57327C21.0754 7.55724 21.0806 7.52644 21.0225 7.46822C21.1348 7.46208 21.2351 7.43752 21.2434 7.36974C21.2442 7.36364 21.243 7.35811 21.2424 7.35239C21.6036 7.31302 21.8783 7.08717 21.8905 7.077C21.894 7.07405 21.8964 7.07039 21.8988 7.06669C22.1174 7.03941 22.3658 6.99005 22.5668 6.89967C22.9462 6.7291 23.1383 6.4988 23.1039 6.41522C23.094 6.39089 23.0653 6.37327 23.0299 6.38653C23.02 6.39024 22.9998 6.39839 22.9735 6.40913C23.1983 6.22631 23.2861 6.0571 23.2945 6.04022ZM22.6351 5.78602C22.4701 5.94736 22.1595 6.17939 21.6471 6.31402C21.6426 6.31519 21.6388 6.31749 21.6351 6.31983C21.5273 6.31144 21.3911 6.2918 21.2717 6.24717C21.6503 6.1613 22.1823 6.01336 22.6351 5.78602ZM20.3551 6.30947C20.3614 6.3106 20.3678 6.31046 20.3739 6.30896C20.4272 6.29592 21.6606 5.99344 21.8586 5.8913C21.8356 5.93667 21.7914 6.00024 21.7552 6.02677C21.7542 6.02747 21.7537 6.02864 21.7528 6.02944C21.2217 6.18708 20.771 6.25355 20.7636 6.25458C20.7391 6.2581 20.7221 6.28078 20.7256 6.30525C20.7291 6.32972 20.7517 6.34669 20.7763 6.34322C20.7803 6.34261 20.9172 6.3225 21.1274 6.27863C21.2362 6.34102 21.3699 6.37542 21.4917 6.39403C21.3098 6.40941 21.1414 6.4006 21.1386 6.40046C21.1174 6.39966 21.0968 6.41442 21.0923 6.43613C21.0878 6.45783 21.0999 6.47958 21.1208 6.48717L21.2901 6.54924C21.052 6.59991 20.8224 6.55233 20.8197 6.55177C20.8013 6.54769 20.7826 6.55571 20.7726 6.57141C20.7625 6.58711 20.7632 6.60746 20.7744 6.62236C20.8068 6.66549 20.898 6.71081 20.9776 6.74424C20.6502 6.80621 20.4249 6.60553 20.4143 6.59588C20.3961 6.57928 20.3679 6.58046 20.3513 6.59855C20.3346 6.61664 20.3356 6.64477 20.3535 6.6616C20.6121 6.90361 21.094 7.00669 21.3104 7.04217C21.2783 7.06111 21.2397 7.07897 21.1993 7.08619C21.0332 7.11567 20.6499 6.93333 20.3802 6.78582L20.1642 6.66117C20.143 6.64889 20.1158 6.65602 20.1033 6.67702C20.0908 6.69806 20.0975 6.7253 20.1183 6.7381C20.1287 6.74447 20.2134 6.79632 20.3338 6.86246L20.8595 7.16588C20.6982 7.1858 20.528 7.14971 20.5259 7.14924C20.5246 7.14896 20.5234 7.14933 20.5221 7.14919C20.399 7.06266 20.2005 6.91697 19.9023 6.66975C19.8543 6.49847 19.7644 6.42324 19.6519 6.35175C19.7791 6.31271 20.0475 6.25182 20.3551 6.30947ZM20.68 7.25892C20.6797 7.25902 20.6795 7.25925 20.6792 7.25935C20.6792 7.25935 20.6788 7.25902 20.6786 7.25888C20.6791 7.25888 20.6796 7.25892 20.68 7.25892ZM17.7634 7.05586L17.8658 6.98297C17.884 6.97003 17.8899 6.94561 17.8796 6.92583C17.8692 6.90596 17.8458 6.89691 17.8248 6.90432C17.6556 6.96474 17.4843 6.9586 17.3771 6.94482L17.4957 6.87183C17.5146 6.86021 17.5221 6.83649 17.5133 6.81605C17.5047 6.79566 17.4824 6.78474 17.4608 6.79036C17.2449 6.84703 17.0652 6.8235 16.9475 6.79102C17.1346 6.74733 17.2432 6.66455 17.2489 6.66014C17.2653 6.64749 17.2708 6.62522 17.2623 6.60633C17.2538 6.58749 17.2336 6.57713 17.2132 6.58074C16.9666 6.62719 16.7762 6.61186 16.6483 6.58542C16.7804 6.56325 16.8854 6.53171 16.8919 6.52974C16.8927 6.52955 16.8932 6.52889 16.8939 6.52866C16.897 6.52758 16.8995 6.52585 16.9022 6.52421C16.9045 6.52275 16.9068 6.52158 16.9088 6.5198C16.911 6.51783 16.9125 6.51549 16.9142 6.51314C16.9159 6.51085 16.9177 6.50878 16.9189 6.50625C16.9201 6.50382 16.9206 6.50114 16.9213 6.49857C16.9222 6.49552 16.923 6.49266 16.9232 6.48947C16.9232 6.48877 16.9237 6.48811 16.9237 6.48736C16.9237 6.48502 16.9227 6.48296 16.9223 6.48071C16.922 6.4785 16.9224 6.47625 16.9217 6.474C16.9216 6.4733 16.9209 6.47283 16.9207 6.47213C16.9196 6.46913 16.9179 6.4666 16.9163 6.46392C16.9148 6.46158 16.9137 6.45914 16.9118 6.45713C16.9099 6.45502 16.9076 6.45352 16.9053 6.45178C16.903 6.45 16.9009 6.44817 16.8983 6.44691C16.8959 6.44578 16.8932 6.44527 16.8906 6.44456C16.8876 6.44367 16.8847 6.44278 16.8815 6.4426C16.8807 6.44255 16.8801 6.44213 16.8794 6.44213C16.3042 6.43674 15.9867 6.13416 15.8851 5.97975C16.0643 6.10463 16.2997 6.21061 16.4712 6.27146H16.4713C16.6994 6.35953 16.9836 6.41564 16.9957 6.41799C17.0198 6.42267 17.0435 6.40697 17.0482 6.38264C17.053 6.35836 17.0371 6.33483 17.0129 6.3301C17.01 6.32953 16.7233 6.273 16.5023 6.18746C16.0258 6.00305 15.9293 5.80332 15.8971 5.70244C15.9486 5.73905 16.0178 5.79291 16.0548 5.82174C16.3338 6.03867 16.9828 6.24385 17.0103 6.25252C17.0339 6.25997 17.0587 6.24703 17.0663 6.22369C17.0739 6.20035 17.0614 6.17527 17.0382 6.16735C16.3671 5.93874 16.2663 5.72138 16.2121 5.60466C16.2075 5.59453 16.2031 5.58507 16.1987 5.57625C16.2077 5.57907 16.2172 5.58253 16.2248 5.58596C16.5968 5.79413 17.1436 6.04064 17.3503 6.13214C17.3131 6.15005 17.2741 6.165 17.2483 6.16646C17.2311 6.16744 17.2159 6.17817 17.2094 6.19425C17.2028 6.21024 17.206 6.22856 17.2177 6.24131C17.2204 6.24431 17.2643 6.29133 17.3495 6.30975L17.289 6.34917C17.2748 6.35846 17.2671 6.37496 17.269 6.39178C17.271 6.40866 17.2822 6.42296 17.2981 6.42877C17.3023 6.43027 17.3714 6.4546 17.4627 6.46421L17.4123 6.50091C17.3995 6.51024 17.3927 6.52561 17.3942 6.54136C17.3957 6.55711 17.4054 6.57089 17.4197 6.57764C17.4256 6.58036 17.4944 6.61163 17.6048 6.60642L17.6011 6.60905C17.5865 6.61927 17.5794 6.63713 17.5829 6.65457C17.5863 6.672 17.5999 6.68569 17.6173 6.68949C17.6242 6.69094 17.7087 6.70833 17.83 6.69455L17.8025 6.71292C17.7878 6.72263 17.7803 6.74021 17.7831 6.75755C17.786 6.77494 17.7988 6.789 17.8159 6.7935C17.829 6.79688 18.0249 6.84563 18.2821 6.76407C18.2281 6.79955 18.1779 6.82528 18.1364 6.83461C18.1174 6.83892 18.1034 6.85491 18.1016 6.87427C18.0998 6.89363 18.1108 6.91191 18.1287 6.91955C18.1298 6.92007 18.1343 6.92175 18.1401 6.92386C18.0027 7.0148 17.8622 7.04639 17.7634 7.05586ZM17.5467 6.24352C17.5381 6.2235 17.5163 6.21253 17.495 6.21783C17.4432 6.23049 17.4012 6.22922 17.3689 6.22238C17.4219 6.19875 17.4673 6.17058 17.4753 6.16547C17.4786 6.16341 17.4814 6.16092 17.4839 6.15825C17.5636 6.19032 17.654 6.22111 17.7555 6.25055L17.5836 6.37599C17.526 6.38208 17.4689 6.3766 17.4234 6.36844L17.5301 6.29888C17.5484 6.28688 17.5554 6.26353 17.5467 6.24352ZM17.9491 7.16489C17.932 7.16471 17.9006 7.15599 17.889 7.14769C17.8919 7.143 17.8994 7.13377 17.9159 7.12064C18.0216 7.09355 18.143 7.04217 18.2594 6.94725C18.3814 6.95611 18.5734 6.9271 18.769 6.73055C18.7762 6.74363 18.7838 6.75689 18.7926 6.77039C18.7714 6.78638 18.2659 7.16771 17.9491 7.16489ZM18.2984 6.85913C18.4432 6.77199 18.6052 6.62044 18.7062 6.51914C18.7078 6.55617 18.7149 6.59869 18.731 6.64533C18.7276 6.64739 18.7239 6.64927 18.721 6.65236C18.5605 6.82163 18.4043 6.85894 18.2984 6.85913ZM19.1395 7.43878C18.9921 7.42871 18.8548 7.40578 18.8047 7.38366C18.9266 7.28846 18.9616 7.24646 18.9653 7.24182C18.9776 7.22639 18.9783 7.20469 18.9671 7.18842C18.9558 7.17211 18.9352 7.16508 18.9165 7.17127C18.7558 7.22321 18.5681 7.27388 18.4754 7.28691C18.5179 7.24871 18.5937 7.20042 18.662 7.16621C18.684 7.15524 18.693 7.12866 18.6823 7.10663C18.6716 7.08455 18.6452 7.07527 18.623 7.08563C18.5011 7.14296 18.3266 7.20071 18.2175 7.19981C18.5146 7.0928 18.8176 6.86391 18.8465 6.84183C18.8693 6.86907 18.8946 6.89677 18.9249 6.92494C19.1924 7.17356 19.1631 7.36861 19.1395 7.43878ZM19.2133 7.71178C19.2108 7.71474 19.2076 7.71863 19.2035 7.72313C19.2132 7.65685 19.2201 7.57369 19.2138 7.49461C19.2384 7.44047 19.2883 7.27997 19.1592 7.06707C19.2443 7.07944 19.4397 7.12041 19.5243 7.24341C19.5355 7.25972 19.5466 7.27782 19.5577 7.29657L19.5576 7.29671C19.5534 7.3066 19.4687 7.51167 19.4957 7.76803C19.4759 7.74469 19.457 7.7161 19.4443 7.68258C19.4383 7.66688 19.4241 7.65577 19.4073 7.65399C19.3908 7.65221 19.3743 7.65985 19.365 7.67391C19.3461 7.70255 19.3188 7.74183 19.2916 7.7776L19.2926 7.74141C19.2931 7.72233 19.2814 7.70503 19.2635 7.69833C19.2457 7.69167 19.2255 7.69702 19.2133 7.71178ZM19.502 8.26922C19.4931 8.29589 19.4453 8.34741 19.4143 8.37539C19.4132 8.37638 19.4121 8.37746 19.4111 8.37853C19.3877 8.33986 19.3886 8.30925 19.3886 8.30756C19.3902 8.28661 19.377 8.26744 19.3568 8.26135C19.3367 8.2553 19.3151 8.26407 19.3049 8.28235C19.2639 8.35547 19.192 8.36297 19.1788 8.36381C19.1811 8.30986 19.2122 8.26083 19.2143 8.25783C19.2266 8.23899 19.2231 8.21386 19.2059 8.19924C19.1888 8.18461 19.1635 8.18489 19.1468 8.20003C19.081 8.25952 18.9766 8.22103 18.9757 8.22071C18.9714 8.21906 18.967 8.21808 18.9625 8.21775C18.9915 8.15485 19.042 8.14969 19.1119 8.14256C19.1386 8.13985 19.1662 8.13699 19.1948 8.13071C19.3326 8.10057 19.3488 7.94822 19.3381 7.87186C19.3378 7.86975 19.3367 7.86802 19.3361 7.86605C19.3576 7.83952 19.3792 7.81046 19.397 7.78538C19.4057 7.79874 19.4151 7.81078 19.4245 7.82217C19.4248 7.85485 19.4266 7.95558 19.438 8.0086C19.447 8.05069 19.4778 8.07905 19.5073 8.09724C19.5024 8.10675 19.4983 8.11678 19.4957 8.12766C19.4851 8.17102 19.4941 8.21869 19.5075 8.25956C19.5054 8.2628 19.5031 8.26561 19.502 8.26922ZM19.5256 7.98994C19.5212 7.96997 19.5186 7.93857 19.5168 7.90697C19.5293 7.9156 19.5382 7.9208 19.5394 7.92146C19.555 7.93008 19.5743 7.92877 19.5885 7.91785C19.6026 7.90697 19.6089 7.88874 19.6046 7.87149C19.5573 7.68235 19.589 7.50539 19.6153 7.40846C19.6924 7.57791 19.7477 7.78702 19.7286 7.92492C19.7256 7.94602 19.738 7.96627 19.7581 7.97335C19.7622 7.9748 19.7665 7.97527 19.7708 7.97546C19.7703 7.98014 19.7698 7.98511 19.7693 7.98947C19.7239 7.98807 19.6493 7.995 19.577 8.03264C19.5563 8.02392 19.5294 8.00808 19.5256 7.98994ZM20.1152 8.22141C20.1117 8.22788 20.1073 8.23533 20.1026 8.24302C20.0491 8.17224 19.9757 8.09944 19.9129 8.12316C19.8623 8.14247 19.8571 8.19117 19.8536 8.22347C19.8495 8.26242 19.8466 8.27864 19.8141 8.2898C19.8 8.29463 19.7892 8.30616 19.7853 8.3205L19.7803 8.33911C19.7632 8.30152 19.7542 8.25614 19.7796 8.21747C19.7926 8.19764 19.7879 8.17116 19.7688 8.157C19.7498 8.14289 19.7229 8.14608 19.7077 8.16431C19.7073 8.16478 19.6667 8.2125 19.6078 8.22089C19.6017 8.22178 19.5959 8.22389 19.5908 8.22699C19.5822 8.19961 19.5773 8.17097 19.5827 8.1488C19.5859 8.13558 19.5925 8.12658 19.6038 8.11969C19.6935 8.06541 19.7982 8.08083 19.7991 8.08102C19.8227 8.08496 19.8444 8.07 19.8498 8.04708C19.8522 8.03686 19.8714 7.94953 19.8574 7.87641L19.9153 7.7791C19.9361 7.80572 19.9643 7.83839 19.9988 7.87055C19.9798 7.90542 19.9612 7.96177 19.9877 8.02603C19.9983 8.05191 20.0231 8.06963 20.0517 8.09011C20.1248 8.14257 20.1441 8.16891 20.1152 8.22141ZM19.9504 7.67386C19.9422 7.66041 19.9259 7.65314 19.9119 7.65235C19.8962 7.65239 19.8817 7.66069 19.8736 7.67419L19.8154 7.77197C19.7909 7.57397 19.6976 7.33744 19.5981 7.19264C19.4687 7.00444 19.1488 6.96877 19.0884 6.969C19.0591 6.93338 19.0263 6.89696 18.9859 6.85936C18.7203 6.61252 18.8077 6.41522 18.8119 6.40603C18.8123 6.40524 18.8122 6.40444 18.8125 6.40364C18.8137 6.40074 18.8142 6.39783 18.8147 6.39483C18.8152 6.39211 18.8159 6.38944 18.8159 6.38667C18.8159 6.38381 18.8152 6.38119 18.8147 6.37838C18.8142 6.37552 18.8138 6.37275 18.8127 6.36999C18.8117 6.3675 18.8102 6.36539 18.8087 6.36305C18.8071 6.36038 18.8055 6.35775 18.8032 6.3555C18.8026 6.35489 18.8023 6.35405 18.8017 6.35344C18.8001 6.35199 18.7981 6.35142 18.7963 6.35025C18.7945 6.34903 18.7932 6.3473 18.7912 6.34632C18.7904 6.34589 18.7895 6.34599 18.7887 6.34566C18.7858 6.34449 18.7829 6.34388 18.7798 6.34332C18.777 6.3428 18.7744 6.34214 18.7717 6.34214C18.7688 6.34214 18.7662 6.34275 18.7634 6.34327C18.7605 6.34378 18.7577 6.34421 18.755 6.34528C18.7525 6.34627 18.7503 6.34782 18.748 6.34927C18.7453 6.35096 18.7427 6.35255 18.7404 6.3548C18.7398 6.35541 18.739 6.35569 18.7384 6.3563L18.7384 6.35635C18.4345 6.68827 18.1165 6.72774 17.9518 6.7208L18.1429 6.59335C18.1804 6.57235 18.2183 6.54736 18.256 6.51778C18.275 6.50288 18.2787 6.47578 18.2647 6.45633C18.2506 6.43678 18.2236 6.432 18.2036 6.44536L18.0986 6.5153C17.9692 6.58711 17.8441 6.60642 17.7568 6.60914L17.8563 6.53935C17.9328 6.50236 18.0163 6.44681 18.1043 6.36497C18.1215 6.34894 18.1234 6.32231 18.1086 6.30403C18.0938 6.28575 18.0675 6.2821 18.0481 6.2955L17.8107 6.46191C17.6979 6.51502 17.6056 6.52153 17.5435 6.51586L17.883 6.26808C17.8969 6.25791 17.9038 6.24061 17.9005 6.22364C17.8973 6.20667 17.8847 6.19308 17.8681 6.18863C17.3147 6.04135 17.1818 5.89102 17.1518 5.81447C17.1491 5.80777 17.1474 5.80238 17.1464 5.79816C17.1575 5.79985 17.1725 5.80406 17.1821 5.80814C17.7242 6.12671 18.7398 6.2543 18.7828 6.25964C18.8049 6.26185 18.8254 6.24853 18.8313 6.22716C18.8467 6.17203 18.9352 5.89247 19.1758 5.80167C19.4027 5.71622 19.5814 5.85446 19.5888 5.86022C19.5968 5.8666 19.6066 5.87006 19.6168 5.87006C19.7132 5.87006 19.7772 5.88928 19.7968 5.92425C19.8031 5.93546 19.8049 5.9483 19.8042 5.96114C19.7886 5.95317 19.7713 5.94783 19.7543 5.9453C19.7466 5.94413 19.7388 5.94502 19.7315 5.94783C19.7227 5.95125 19.7004 5.9528 19.6808 5.95416C19.6177 5.95852 19.5223 5.96508 19.4683 6.04538C19.4364 6.09277 19.4258 6.15577 19.4392 6.21821C19.4475 6.25716 19.4684 6.30807 19.5159 6.35775C19.5206 6.36703 19.5281 6.37378 19.5369 6.37791C19.5533 6.39239 19.5714 6.40669 19.5931 6.42028C19.6988 6.48633 19.7763 6.54732 19.8175 6.6968C19.8179 6.7021 19.8192 6.70711 19.8214 6.71194C19.8383 6.77944 19.8483 6.86386 19.8506 6.97374C19.8511 6.99816 19.8711 7.01761 19.8953 7.01761C19.8953 7.01761 19.896 7.01761 19.8963 7.01761C19.921 7.0171 19.9406 6.99661 19.9402 6.97191C19.9388 6.91036 19.9348 6.85632 19.9288 6.80733C20.2623 7.07977 20.4592 7.21514 20.558 7.28288C20.5719 7.29244 20.5851 7.30149 20.5966 7.3096C20.4961 7.31874 20.337 7.227 20.2126 7.13213C20.1716 7.09519 20.133 7.06467 20.112 7.04864C20.093 7.03407 20.0658 7.03707 20.0505 7.05549C20.0351 7.07386 20.0369 7.1011 20.0546 7.11727C20.0659 7.12763 20.102 7.15992 20.1527 7.19916C20.2114 7.25246 20.2567 7.30275 20.2709 7.33172C20.2012 7.31705 20.01 7.20333 19.8545 7.09233C19.8353 7.07864 19.8089 7.08216 19.7939 7.10025C19.779 7.11839 19.7806 7.14506 19.7976 7.16124C19.9049 7.26314 19.971 7.35624 20.0131 7.55574C20.037 7.66955 20.0834 7.77755 20.123 7.85583C20.0186 7.78453 19.9513 7.67536 19.9504 7.67386ZM20.9716 7.54964C20.7346 7.58077 20.4664 7.40011 20.4638 7.39828C20.4446 7.38525 20.4187 7.38886 20.4041 7.40672C20.3893 7.42453 20.3905 7.4506 20.4069 7.46691C20.4845 7.54453 20.5637 7.59727 20.6214 7.63571C20.6298 7.64128 20.6388 7.64728 20.6475 7.65319C20.5613 7.64888 20.4116 7.55175 20.329 7.48416C20.3109 7.4693 20.2844 7.47099 20.2681 7.48805C20.252 7.50506 20.2518 7.53169 20.2676 7.54899C20.301 7.5856 20.3327 7.62652 20.3519 7.65642C20.2865 7.63252 20.1761 7.56971 20.0963 7.51871C20.0779 7.437 20.0552 7.37053 20.0273 7.31419C20.2874 7.46911 20.3312 7.41685 20.3476 7.39716C20.3572 7.38567 20.3679 7.36594 20.3647 7.33688C20.3647 7.33674 20.3647 7.33655 20.3647 7.33655C20.4708 7.39027 20.5846 7.42196 20.672 7.38113C20.6811 7.37682 20.6943 7.37002 20.7048 7.35919C20.866 7.44924 20.9503 7.51664 20.976 7.54899C20.9746 7.54922 20.9731 7.54946 20.9716 7.54964ZM20.9108 7.37953C20.8613 7.34597 20.798 7.30735 20.7147 7.26216C20.713 7.26122 20.7111 7.26117 20.7093 7.26052C20.724 7.26108 20.739 7.2615 20.7544 7.2615C20.7975 7.2615 20.8428 7.25855 20.8878 7.25199C20.8912 7.25419 20.8945 7.25663 20.8986 7.25794C21.0373 7.30153 21.1208 7.33467 21.1475 7.35685C21.1118 7.37232 21.0095 7.38239 20.9108 7.37953ZM21.1746 7.26797C21.1746 7.26797 21.1741 7.26811 21.1738 7.26811C21.1378 7.24716 21.0866 7.22658 21.0215 7.20413C21.0238 7.19944 21.0256 7.19442 21.0261 7.18899C21.0272 7.17792 21.0241 7.1671 21.0179 7.15842C21.094 7.17661 21.162 7.18378 21.2151 7.17436C21.2819 7.16246 21.3424 7.12955 21.3862 7.09997H21.3863C21.4312 7.09997 21.5588 7.09838 21.7224 7.08492C21.6043 7.15791 21.4029 7.25799 21.1746 7.26797ZM22.9806 6.50283C22.9197 6.57947 22.7813 6.70491 22.53 6.81788C22.1868 6.97219 21.68 7.00294 21.4688 7.00889C21.4685 7.00552 21.4681 7.00219 21.4669 6.99891C21.4613 6.98246 21.4467 6.97074 21.4294 6.96877C21.4254 6.96835 21.1987 6.94196 20.9465 6.86592C21.0977 6.88022 21.2404 6.8873 21.3739 6.8873C21.7509 6.8873 22.0589 6.83475 22.3093 6.756C22.3106 6.75582 22.3119 6.7561 22.3132 6.75581C22.4512 6.71967 22.7801 6.58496 22.9567 6.51263C22.9651 6.50916 22.973 6.50592 22.9806 6.50283ZM22.7418 6.46008C22.4505 6.64041 21.9424 6.83307 21.1388 6.79003C21.1544 6.78249 21.1647 6.76683 21.1643 6.74916C21.1639 6.73027 21.1518 6.71367 21.1339 6.70763C21.0979 6.69549 21.0552 6.67941 21.0137 6.66202C21.1367 6.66563 21.2968 6.65414 21.449 6.5955C21.4664 6.5888 21.4778 6.57202 21.4777 6.55336C21.4775 6.53471 21.4658 6.51807 21.4483 6.51169L21.3898 6.49027C21.5382 6.48408 21.7202 6.46463 21.8472 6.41119C21.8672 6.40275 21.8782 6.38124 21.8735 6.3601C21.8732 6.35902 21.8725 6.35813 21.8723 6.35705C22.1404 6.28988 22.6342 6.13486 23.1439 5.8155C23.0341 5.99794 22.7153 6.33717 21.8125 6.5505C21.7891 6.55603 21.7742 6.579 21.7789 6.60258C21.7835 6.62621 21.8059 6.64167 21.8296 6.6383C21.8363 6.63727 22.4499 6.54089 23.0836 6.17822C23.0085 6.26171 22.8976 6.36366 22.7418 6.46008Z" fill="#464655"/>
</svg>
