<svg width="24" height="24" viewBox="0 0 24 24" fill="none" xmlns="http://www.w3.org/2000/svg">
<path d="M22.2025 19.8621H1.79742C0.804703 19.8621 0 19.0574 0 18.0646V5.93536C0 4.94269 0.804703 4.13794 1.79742 4.13794H22.2025C23.1952 4.13794 24 4.94264 24 5.93536V18.0646C24 19.0574 23.1952 19.8621 22.2025 19.8621Z" fill="#41479B"/>
<path d="M24 13.2413H0V14.3447H24V13.2413Z" fill="#F5F5F5"/>
<path d="M24 15.4486H0V16.5521H24V15.4486Z" fill="#F5F5F5"/>
<path d="M24 14.3447H0V15.4482H24V14.3447Z" fill="#FF4B55"/>
<path d="M7.95243 10.9999L8.07936 11.3804L8.48047 11.3835C8.51155 11.3838 8.52444 11.4234 8.49946 11.4419L8.17677 11.6802L8.29775 12.0626C8.30713 12.0922 8.27338 12.1168 8.24811 12.0987L7.92172 11.8654L7.59533 12.0987C7.57002 12.1167 7.53632 12.0922 7.54569 12.0626L7.66668 11.6802L7.34399 11.4419C7.319 11.4234 7.33189 11.3837 7.36297 11.3835L7.76408 11.3804L7.89102 10.9999C7.90086 10.9704 7.94263 10.9704 7.95243 10.9999Z" fill="#FFE15A"/>
<path d="M7.95243 17.687L8.07936 18.0675L8.48047 18.0706C8.51155 18.0709 8.52444 18.1105 8.49946 18.129L8.17677 18.3673L8.29775 18.7497C8.30713 18.7793 8.27338 18.8039 8.24811 18.7858L7.92172 18.5525L7.59533 18.7858C7.57002 18.8038 7.53632 18.7793 7.54569 18.7497L7.66668 18.3673L7.34399 18.129C7.319 18.1105 7.33189 18.0708 7.36297 18.0706L7.76408 18.0675L7.89102 17.687C7.90086 17.6575 7.94263 17.6575 7.95243 17.687Z" fill="#FFE15A"/>
<path d="M5.78157 18.0606L6.10412 17.8221L6.43417 18.0501C6.45971 18.0677 6.49309 18.0427 6.48324 18.0132L6.35612 17.6327L6.67496 17.3892C6.69967 17.3704 6.68612 17.3309 6.65504 17.3312L6.25393 17.3345L6.1209 16.9561C6.11059 16.9267 6.06892 16.9274 6.05954 16.9571L5.93874 17.3396L5.53773 17.3492C5.50665 17.3499 5.49441 17.3898 5.51973 17.4078L5.84621 17.6409L5.73137 18.0252C5.72246 18.0551 5.75654 18.0791 5.78157 18.0606Z" fill="#FFE15A"/>
<path d="M6.42678 12.6244L6.09927 12.3928L5.77409 12.6278C5.74892 12.646 5.71503 12.6216 5.72427 12.5919L5.84333 12.2089L5.51942 11.9722C5.49434 11.9539 5.507 11.9142 5.53808 11.9137L5.93919 11.9086L6.0642 11.5275C6.07386 11.4979 6.11558 11.4978 6.12556 11.5272L6.25442 11.9071L6.65558 11.9082C6.68666 11.9082 6.69973 11.9478 6.6748 11.9664L6.35328 12.2063L6.47623 12.5882C6.4858 12.6177 6.45219 12.6424 6.42678 12.6244Z" fill="#FFE15A"/>
<path d="M9.44783 12.6294L9.77038 12.3909L10.1004 12.6189C10.126 12.6365 10.1593 12.6115 10.1495 12.582L10.0224 12.2015L10.3412 11.958C10.3659 11.9391 10.3524 11.8997 10.3213 11.9L9.92019 11.9033L9.78716 11.5249C9.77685 11.4955 9.73517 11.4962 9.7258 11.5258L9.605 11.9084L9.20399 11.918C9.17291 11.9187 9.16067 11.9585 9.18599 11.9766L9.51247 12.2097L9.39763 12.594C9.38872 12.6238 9.42285 12.6478 9.44783 12.6294Z" fill="#FFE15A"/>
<path d="M10.0928 18.0557L9.76528 17.8241L9.44011 18.0591C9.41494 18.0772 9.38105 18.0529 9.39028 18.0232L9.50934 17.6401L9.18544 17.4035C9.16036 17.3851 9.17302 17.3454 9.20409 17.345L9.6052 17.3399L9.73022 16.9588C9.73988 16.9292 9.78159 16.929 9.79158 16.9584L9.92044 17.3383L10.3216 17.3394C10.3527 17.3395 10.3658 17.3791 10.3408 17.3976L10.0193 17.6376L10.1423 18.0194C10.1518 18.049 10.1182 18.0736 10.0928 18.0557Z" fill="#FFE15A"/>
<path d="M5.30188 15.7184L4.90077 15.7211L4.7684 15.3424C4.75818 15.3131 4.71646 15.3137 4.70704 15.3433L4.58558 15.7257L4.18452 15.7346C4.15344 15.7352 4.14111 15.7751 4.16643 15.7932L4.49254 16.0268L4.37704 16.411C4.36808 16.4407 4.40216 16.4648 4.42719 16.4463L4.75016 16.2084L5.07983 16.4369C5.10538 16.4546 5.13875 16.4296 5.12896 16.4001L5.00244 16.0195L5.32166 15.7766C5.34641 15.7577 5.33296 15.7183 5.30188 15.7184Z" fill="#FFE15A"/>
<path d="M4.1846 13.6567L4.58566 13.6492L4.70833 13.2672C4.71785 13.2376 4.75952 13.2372 4.76969 13.2666L4.90085 13.6456L5.302 13.6443C5.33308 13.6442 5.34644 13.6837 5.3216 13.7024L5.00158 13.9443L5.12688 14.3254C5.13658 14.3549 5.10316 14.3798 5.07766 14.362L4.74874 14.1324L4.42502 14.3693C4.39994 14.3877 4.36596 14.3635 4.37496 14.3338L4.49167 13.95L4.16632 13.7153C4.1411 13.6971 4.15357 13.6573 4.1846 13.6567Z" fill="#FFE15A"/>
<path d="M11.6578 13.6419L11.2567 13.6445L11.1244 13.2658C11.1141 13.2365 11.0724 13.2371 11.063 13.2667L10.9415 13.6491L10.5405 13.658C10.5094 13.6587 10.4971 13.6985 10.5224 13.7166L10.8485 13.9503L10.733 14.3344C10.724 14.3642 10.7581 14.3882 10.7831 14.3698L11.1061 14.1319L11.4358 14.3604C11.4613 14.3781 11.4947 14.3531 11.4849 14.3236L11.3584 13.943L11.6777 13.7C11.7024 13.6812 11.6889 13.6417 11.6578 13.6419Z" fill="#FFE15A"/>
<path d="M10.5406 15.7332L10.9416 15.7257L11.0643 15.3438C11.0738 15.3142 11.1155 15.3137 11.1257 15.3431L11.2568 15.7222L11.658 15.7208C11.689 15.7207 11.7024 15.7602 11.6776 15.779L11.3576 16.0208L11.4828 16.4019C11.4926 16.4314 11.4591 16.4563 11.4336 16.4385L11.1047 16.2089L10.781 16.4458C10.7559 16.4642 10.7219 16.44 10.7309 16.4103L10.8476 16.0265L10.5223 15.7918C10.4971 15.7737 10.5095 15.7339 10.5406 15.7332Z" fill="#FFE15A"/>
</svg>
