<svg width="24" height="24" viewBox="0 0 24 24" fill="none" xmlns="http://www.w3.org/2000/svg">
<path d="M1.79732 19.8621H22.2025C23.1952 19.8621 23.9999 19.0574 23.9999 18.0646V5.9354C23.9999 5.3827 23.7502 4.88845 23.3577 4.55878L0.64209 19.4413C0.954512 19.7037 1.35736 19.8621 1.79732 19.8621Z" fill="#FF6E55"/>
<path d="M0.642187 19.4413L23.3578 4.55874C23.0454 4.29628 22.6426 4.13794 22.2026 4.13794H1.79742C0.804703 4.13799 0 4.94264 0 5.93541V18.0647C0 18.6174 0.249656 19.1116 0.642187 19.4413Z" fill="#FFE15A"/>
<path d="M13.1962 8.34501C12.9882 8.38954 12.6616 8.27817 12.6616 8.27817C12.7289 8.39409 12.9089 8.47214 13.0712 8.52126C12.9401 8.53434 12.7907 8.54175 12.6244 8.53809C11.9561 8.52318 11.6443 8.96137 11.6443 8.96137C11.8819 8.81282 12.1269 8.81282 12.4908 8.86486C12.8546 8.91684 13.6268 8.68668 13.6268 8.68668L13.6937 8.38968C13.6937 8.38954 13.4041 8.30048 13.1962 8.34501Z" fill="#FFF5DC"/>
<path d="M13.8831 6.95282C13.8831 6.95282 14.2286 7.02604 14.5793 7.22727C14.5582 7.23834 14.538 7.25188 14.5188 7.26777C14.4055 7.21143 14.2685 7.16582 14.091 7.14773C14.091 7.14773 14.2748 7.19554 14.4513 7.33382C14.4056 7.38768 14.368 7.44894 14.3389 7.50341C13.9505 7.08688 13.5304 7.3649 13.5304 7.3649C14.0515 7.32529 14.1745 7.66012 14.2038 7.82184C14.1029 7.75438 14.0078 7.69879 13.9187 7.65355C13.9317 7.64376 13.9383 7.63495 13.9537 7.62487C13.9537 7.62487 13.9211 7.62618 13.8758 7.63293C13.2107 7.31329 12.8844 7.56543 12.8844 7.56543C13.1798 7.52934 13.4527 7.60612 13.6693 7.70174C13.5741 7.75654 13.5097 7.85305 13.5628 8.01712C13.1898 7.91563 12.7211 7.81565 12.4908 7.87729C12.075 7.98866 12.2087 8.37477 12.2087 8.37477C12.2087 8.37477 12.2162 8.1149 12.4983 8.05546C12.7095 8.01098 13.7606 8.34505 13.7606 8.34505L14.1021 8.18169L13.9611 8.06287C13.9611 8.06287 13.69 7.95402 13.8062 7.76699C14.0006 7.87063 14.1244 7.97371 14.1244 7.97371L14.208 7.8516C14.2121 7.8832 14.2135 7.90691 14.2135 7.90691L14.4511 7.80299L14.5031 7.72869C14.5239 7.61601 14.5583 7.53585 14.5979 7.47585C14.6666 7.56224 14.7235 7.66893 14.7519 7.80102L14.9672 7.82334C14.9672 7.82334 14.9322 7.57443 14.6913 7.37648C14.7127 7.36129 14.7338 7.34868 14.7545 7.34029C14.9132 7.45415 15.0612 7.59651 15.1639 7.7751L15.5612 7.76952C15.5612 7.76957 14.9078 7.04193 13.8831 6.95282Z" fill="#FFF5DC"/>
<path d="M17.6738 10.9586C17.9485 10.9586 18.1712 10.7359 18.1712 10.4611C18.1712 10.1864 17.9485 9.96365 17.6738 9.96365C17.399 9.96365 17.1763 10.1864 17.1763 10.4611C17.1763 10.7359 17.399 10.9586 17.6738 10.9586Z" fill="#FFF5DC"/>
<path d="M16.5121 15.3158C16.8807 15.3158 17.1795 15.017 17.1795 14.6484C17.1795 14.2798 16.8807 13.981 16.5121 13.981C16.1435 13.981 15.8447 14.2798 15.8447 14.6484C15.8447 15.017 16.1435 15.3158 16.5121 15.3158Z" fill="#FFF5DC"/>
<path d="M11.4242 14.854C11.7164 14.854 11.9532 14.6172 11.9532 14.325C11.9532 14.0329 11.7164 13.796 11.4242 13.796C11.1321 13.796 10.8953 14.0329 10.8953 14.325C10.8953 14.6172 11.1321 14.854 11.4242 14.854Z" fill="#FFF5DC"/>
<path d="M10.2079 17.4478C10.5453 17.4478 10.8187 17.1744 10.8187 16.837C10.8187 16.4997 10.5453 16.2263 10.2079 16.2263C9.87062 16.2263 9.59717 16.4997 9.59717 16.837C9.59717 17.1744 9.87062 17.4478 10.2079 17.4478Z" fill="#FFF5DC"/>
<path d="M16.0253 9.16177C16.0253 9.16177 17.1691 9.56939 17.4453 9.70749C17.8352 9.90239 18.4477 9.33436 18.8765 9.77433C18.8765 9.77433 18.8022 9.48103 18.4458 9.45877C18.4458 9.45877 18.4533 9.16918 18.1192 9.18408C18.1192 9.18408 18.3642 9.36225 18.2231 9.48853C18.2231 9.48853 18.1266 9.27319 17.8518 9.31036C17.8518 9.31036 18.0597 9.39202 18.0078 9.51825C18.0078 9.51825 17.6774 9.67786 17.5289 9.57394C17.3804 9.46997 16.2072 8.83697 15.8359 8.82211L16.0253 9.16177Z" fill="#FFF5DC"/>
<path d="M15.7319 9.51821C15.7319 9.51821 15.977 9.59063 16.3334 9.96371C16.4985 10.1366 16.9237 10.1475 16.8568 9.81333C16.79 9.47921 15.9658 9.27319 15.8767 9.27319C15.7876 9.27315 15.7319 9.51821 15.7319 9.51821Z" fill="#F5F5F5"/>
<path d="M17.5177 8.78305L17.0499 8.939C17.0499 8.939 17.1019 9.25644 16.8346 9.39566C16.6699 9.48144 16.5599 9.70377 16.5672 9.86713C16.5672 9.86713 16.7232 9.65179 16.9459 9.533C16.9984 9.50502 17.0467 9.4805 17.0908 9.45561C17.0819 9.56694 17.0796 9.6838 17.0944 9.78547C17.139 10.0899 17.0425 10.1938 17.0425 10.1938C17.0425 10.1938 17.3024 9.99336 17.2726 9.66669C17.2612 9.54116 17.2818 9.45224 17.3137 9.38474C17.3367 9.61222 17.4582 9.71872 17.4582 9.71872C17.3691 9.54055 17.5547 9.34743 17.629 9.19152C17.7034 9.03552 17.5177 8.78305 17.5177 8.78305Z" fill="#FFF5DC"/>
<path d="M18.7001 8.13711C18.5159 8.07449 18.3381 8.18722 18.2323 8.28191C18.1872 8.32222 18.0685 8.34271 17.9471 8.35372C18.0282 8.29635 18.1145 8.22861 18.1599 8.17058C18.2602 8.04252 18.444 8.02021 18.5999 7.9701C18.7558 7.91999 18.8227 7.7195 18.8227 7.7195C18.8227 7.7195 18.7391 7.84204 18.5052 7.83088C18.2713 7.81972 18.1934 7.80857 18.0374 7.97568C17.9895 8.02705 17.9223 8.06675 17.8527 8.09868C17.8542 8.02569 17.8606 7.93283 17.8815 7.86983C17.9205 7.75288 18.0987 7.65824 18.1098 7.42433C18.1209 7.19043 18.1321 7.21274 18.2658 7.07347C18.3994 6.93425 18.4384 6.6725 18.3994 6.75604C18.3604 6.83957 18.1823 6.93983 18.0319 7.07905C17.8815 7.21827 17.9874 7.37418 17.9094 7.49671C17.8314 7.61924 17.6477 7.64708 17.6364 7.87536C17.6253 8.10369 17.4638 8.23733 17.4638 8.23733C17.4638 8.23733 17.0684 8.4545 17.5418 8.62719C18.0152 8.79983 18.3981 8.31955 18.6332 8.33207C19.1567 8.35991 19.2959 8.18727 19.2959 8.18727C19.2069 8.18722 18.9785 8.23175 18.7001 8.13711Z" fill="#FFF5DC"/>
<path d="M12.9586 11.8051C12.9289 11.7828 12.4166 11.2185 12.2457 11.1368L12.2829 11.2779C12.2829 11.2779 12.1715 11.2704 11.971 11.0254C11.7705 10.7804 11.622 10.7136 11.622 10.7136C11.622 10.7136 11.7631 10.9364 11.7557 11.0774C11.7557 11.0774 11.4512 11.0551 11.1245 11.211C11.1245 11.211 10.976 10.9215 10.8499 10.8695C10.8499 10.8695 10.8944 11.174 10.7905 11.2482C10.6865 11.3225 11.7706 11.8348 11.9191 11.8496C12.0676 11.8646 12.9586 11.8051 12.9586 11.8051Z" fill="#FFF5DC"/>
<path d="M13.6343 10.6988C13.6237 10.6962 13.5689 10.7348 13.4982 10.7852C13.467 10.6049 13.4041 10.2404 13.4041 10.2236C13.4041 10.2013 12.8992 9.49599 12.8843 9.46627C12.8841 9.46575 12.8824 9.46571 12.882 9.46524C12.9311 9.34664 12.9839 9.14471 12.6838 9.30291C12.2754 9.5183 12.1121 10.0157 12.1121 10.0157C12.2052 9.91861 12.3676 9.84446 12.4973 9.79627C12.5 9.85683 12.5005 9.92874 12.4165 10.0529C12.2457 10.3053 12.3422 10.4018 12.3422 10.4018C12.4759 10.1717 12.7729 10.1494 12.7729 10.1494C12.7283 10.4242 12.8842 10.58 12.8842 10.58L13.0104 10.4315C12.9949 10.6441 13.1086 10.8722 13.1794 10.9921C13.1514 11.0056 13.1259 11.0159 13.107 11.0181C12.9807 11.033 12.7803 11.1294 12.7803 11.1294C12.7803 11.1294 12.9428 11.0948 13.035 11.1661C13.1272 11.2373 13.274 11.2919 13.3537 11.2751C13.3537 11.2751 13.3159 11.468 13.3579 11.5392C13.3579 11.5392 13.253 11.5098 13.1314 11.5141C13.0098 11.5183 12.9213 11.4339 12.9213 11.4339C12.9213 11.4339 13.1441 11.7531 13.3074 11.82C13.4708 11.8868 13.7529 11.6418 13.7529 11.6418C13.7529 11.6418 13.664 10.7062 13.6343 10.6988Z" fill="#FFF5DC"/>
<path d="M9.79548 15.3544C9.79548 15.3544 9.65439 15.3692 9.52079 15.5697L9.4614 15.3618C9.4614 15.3618 9.29804 15.4806 9.11987 15.4063C9.11987 15.4063 9.28323 15.3692 9.3129 15.2207C9.34258 15.0722 9.40201 15.0573 9.40201 15.0573C9.40201 15.0573 9.29064 14.9385 9.17186 14.9459C9.17186 14.9459 9.49853 14.7751 9.67679 14.9385C9.85487 15.1019 9.79548 15.3544 9.79548 15.3544Z" fill="#FFF5DC"/>
<path d="M13.7235 13.7134C13.7235 13.7134 13.5824 13.7282 13.4488 13.9287L13.3894 13.7208C13.3894 13.7208 13.226 13.8396 13.0479 13.7653C13.0479 13.7653 13.2112 13.7282 13.2409 13.5797C13.2706 13.4312 13.33 13.4164 13.33 13.4164C13.33 13.4164 13.2186 13.2975 13.0998 13.305C13.0998 13.305 13.4265 13.1342 13.6048 13.2975C13.7829 13.4609 13.7235 13.7134 13.7235 13.7134Z" fill="#FFF5DC"/>
<path d="M16.1318 11.601C16.1318 11.601 16.0629 11.725 16.1503 11.9496L15.9459 11.8787C15.9459 11.8787 15.9493 12.0807 15.7862 12.1839C15.7862 12.1839 15.8496 12.0289 15.7452 11.9192C15.6407 11.8096 15.6626 11.7524 15.6626 11.7524C15.6626 11.7524 15.5014 11.7754 15.4392 11.8769C15.4392 11.8769 15.4871 11.5114 15.7231 11.4593C15.9592 11.4073 16.1318 11.601 16.1318 11.601Z" fill="#FFF5DC"/>
<path d="M16.8469 14.1103L16.9906 14.196C16.9488 14.1601 16.8992 14.1331 16.8469 14.1103Z" fill="#FF6E55"/>
<path d="M8.74122 14.8272C8.74122 14.8272 8.08038 15.7553 7.32302 15.9558L7.59035 15.6143C7.59035 15.6143 7.23391 15.9261 6.83299 15.9929L7.31561 15.436C7.31561 15.436 6.23899 16.4385 4.85791 16.6464C4.85791 16.6464 5.92713 15.9707 6.14247 15.733C6.14247 15.733 5.62268 15.9409 5.15491 15.9484C5.15491 15.9484 6.49886 15.4286 6.72161 15.2207C6.72161 15.2207 6.187 15.3396 5.85283 15.2282C5.85283 15.2282 7.01116 14.8941 7.17447 14.9386C7.17447 14.9386 6.50618 14.6713 6.10525 14.701C6.10525 14.701 6.78836 14.5376 7.58285 14.701L7.41203 14.5154C7.41203 14.5154 7.86499 14.3965 8.31049 14.3669C8.75599 14.3372 8.53329 14.3 8.53329 14.3L8.58527 14.1515C8.58527 14.1515 8.29568 14.1886 8.05811 14.1515C8.05811 14.1515 8.77094 13.7506 8.97143 13.5724C9.17191 13.3942 9.03827 13.4759 9.03827 13.4759C9.03827 13.4759 8.66697 13.6021 8.53333 13.6244C8.53333 13.6244 8.86746 13.2383 8.97143 12.9858C8.97143 12.9858 8.66697 13.1046 8.4071 12.9858C8.4071 12.9858 8.71896 12.8967 8.87491 12.7408C9.03086 12.5848 9.26102 12.1969 9.26102 12.1969L8.99369 12.3138C8.99369 12.3138 9.2276 11.9129 9.43366 11.8126C9.43366 11.8126 9.0828 11.8405 8.97147 11.757C8.97147 11.757 9.3446 11.6679 9.45597 11.5788C9.56735 11.4897 9.81241 11.2558 10.063 11.3449C10.063 11.3449 10.4138 11.0219 10.2969 10.8103C10.2969 10.8103 10.5252 10.827 10.6421 10.9662C10.7591 11.1054 10.9428 11.2224 10.9428 11.2224L9.98871 11.9686L9.26102 14.3297L8.74122 14.8272Z" fill="#FFF5DC"/>
<path d="M18.0895 10.3721C18.3643 10.8176 18.0227 10.8622 18.0227 10.8622C17.9707 10.4389 17.6143 10.491 17.6143 10.491L17.7108 10.8028C17.1168 10.8771 17.1614 10.283 17.1614 10.283C17.0723 10.3573 16.9237 10.6617 16.9237 10.6617C16.9237 10.6617 15.3199 11.1963 14.2358 9.60732C14.2358 9.60732 14.2062 9.32513 14.2953 9.19144L13.627 8.68655L12.7657 8.80538C12.7657 8.80538 12.4241 9.57755 12.84 10.0528C13.2558 10.528 13.7458 11.1963 13.6568 11.5081C13.6039 11.693 13.4468 11.7683 13.2285 11.7526C13.0786 11.7417 12.8999 11.688 12.7064 11.5973C12.2312 11.3745 11.0729 10.8993 10.2413 11.2854C9.40964 11.6715 9.31941 12.3396 9.15717 12.8596C9.01355 13.3198 8.69484 14.4947 6.42436 15.5667C6.31589 15.6179 6.37106 15.7828 6.48745 15.7539C7.47164 15.5092 8.81344 15.1014 9.22763 14.6193L9.56175 14.6304L9.43922 15.1428C9.43922 15.1428 9.87361 15.2764 9.94041 15.9113C9.94041 15.9113 9.17934 16.1192 9.60998 16.7726C9.60998 16.7726 9.67683 16.2974 10.204 16.2751C10.204 16.2751 10.3228 16.4311 10.5826 16.4533C10.5826 16.4533 10.7163 16.6687 10.6495 16.8469C10.6495 16.8469 11.1766 16.6835 10.7311 16.0524C10.7311 16.0524 11.2286 15.9336 11.2955 16.5573C11.2955 16.5573 11.6148 15.5475 10.475 15.6217C10.475 15.6217 10.475 15.4435 10.1743 15.1205C10.1743 15.1205 10.1001 14.9386 10.1743 14.6861C10.1967 14.6101 10.2169 14.5313 10.2338 14.451C10.2957 14.4853 10.3909 14.5259 10.5158 14.5303C10.5158 14.5303 10.7015 14.8347 11.2509 14.7827C11.2509 14.7827 10.85 14.5971 10.8871 14.2407C10.9242 13.8842 11.392 13.6912 11.5925 13.8323C11.5925 13.8323 11.5405 13.3644 10.8129 13.6689C10.8129 13.6689 10.8129 13.3199 11.199 13.2977C11.199 13.2977 10.5753 12.8225 10.4342 13.7283L10.1761 13.7928C10.05 13.4433 9.89025 12.6317 10.5975 12.3361C11.3438 12.0242 12.1234 12.7259 13.5045 12.7927C13.5045 12.7927 13.3709 13.6058 13.8164 13.8062C14.2619 14.0067 15.3533 14.1961 15.3533 14.1961C15.3422 15.3692 16.1961 15.2133 16.1961 15.2133C15.7816 14.9649 15.7816 14.4911 16.0374 14.2144C16.386 13.8372 16.9905 14.196 16.9905 14.196C16.982 13.625 16.1812 13.7133 16.1812 13.7133C16.3074 13.3421 16.8049 13.2455 16.8049 13.2455C16.1144 12.9931 15.5426 13.7394 15.5426 13.7394L14.3731 13.4052C14.3731 13.4052 14.3286 13.1713 14.607 12.8595C14.8854 12.5476 15.1193 12.0241 15.0414 11.4673C15.0414 11.4673 15.3644 11.2408 15.7653 11.4636C16.1663 11.6864 17.0276 11.1963 17.0276 11.1963C17.3989 11.6715 18.2825 11.5824 18.4013 11.0107C18.5202 10.4389 18.0895 10.3721 18.0895 10.3721Z" fill="#F5F5F5"/>
<path d="M16.8643 9.00591C16.6435 8.87705 16.248 8.7683 16.1144 9.0653C15.9807 9.3623 15.8322 9.6593 15.3719 9.64444C14.9115 9.62958 14.7036 10.0231 14.3843 9.91177C14.3843 9.91177 14.6813 9.81525 14.7407 9.67416C14.8001 9.53306 15.0377 9.27319 15.0377 9.27319L15.0081 9.00586C15.0081 9.00586 14.4586 9.03548 14.2952 9.19144C14.1319 9.34739 13.5156 9.05784 13.5156 9.05784L13.5899 8.41186C13.5899 8.41186 14.0651 7.68422 14.726 7.7362C15.3868 7.78819 15.4982 7.61737 15.8175 7.63969C16.1368 7.662 16.3001 7.98867 16.6416 8.06297C16.9832 8.13727 17.6663 7.99612 17.7554 8.20406C17.8445 8.41195 17.5846 8.49366 17.5178 8.7832C17.4509 9.0727 17.3098 9.26573 16.8643 9.00591Z" fill="#F5F5F5"/>
<path d="M14.9338 8.82022C14.9338 8.82022 14.6145 9.03556 14.3473 8.94641C14.0799 8.8573 13.8423 8.88702 13.5676 8.97608C13.5676 8.97608 14.0726 8.91669 14.2805 9.10972C14.4883 9.30275 15.0155 9.17657 15.0527 9.09486L14.9338 8.82022Z" fill="#FFF5DC"/>
<path d="M15.0971 9.31767C15.0971 9.31767 14.7852 9.54047 14.4734 9.48103C14.1615 9.42164 13.8794 9.54787 13.8794 9.54787C13.8794 9.54787 14.1096 9.29541 14.4214 9.33998C14.7333 9.38452 14.8446 9.08011 14.8446 9.08011L15.0525 9.09497L15.0971 9.31767Z" fill="#FFF5DC"/>
<path d="M15.3497 9.45904C15.5794 9.45904 15.7656 9.27285 15.7656 9.04316C15.7656 8.81348 15.5794 8.62729 15.3497 8.62729C15.12 8.62729 14.9338 8.81348 14.9338 9.04316C14.9338 9.27285 15.12 9.45904 15.3497 9.45904Z" fill="#FFF5DC"/>
<path d="M15.1046 8.73112C15.1046 8.73112 14.9412 8.52323 14.5328 8.60493C14.1244 8.68659 14.0278 8.53809 14.0278 8.53809C14.0278 8.53809 14.2209 8.83509 14.5253 8.79796C14.8298 8.76084 14.956 8.96877 14.956 8.96877L15.1046 8.73112Z" fill="#FFF5DC"/>
<path d="M16.4785 8.21117C16.5152 8.1606 16.5614 8.11236 16.6245 8.07566C16.6617 8.054 16.7 8.04032 16.7379 8.02907C16.7464 7.97268 16.7381 7.91188 16.7059 7.85666C16.6358 7.73619 16.4898 7.69044 16.38 7.75447C16.2701 7.81846 16.238 7.96799 16.3081 8.08846C16.3476 8.1561 16.4111 8.19688 16.4785 8.21117Z" fill="#FFF5DC"/>
<path d="M16.1136 8.68958C16.1345 8.63066 16.1651 8.57141 16.2152 8.51826C16.2448 8.48694 16.2776 8.46304 16.3108 8.44147C16.3029 8.38504 16.2778 8.32902 16.2313 8.28515C16.1299 8.18947 15.9769 8.18685 15.8897 8.27929C15.8024 8.37172 15.8139 8.52426 15.9153 8.61993C15.9724 8.67383 16.0449 8.69493 16.1136 8.68958Z" fill="#FFF5DC"/>
</svg>
