<svg width="24" height="24" viewBox="0 0 24 24" fill="none" xmlns="http://www.w3.org/2000/svg">
<path d="M22.2002 19.8612H1.7972C0.804614 19.8612 0 19.0566 0 18.064V5.93599C0 4.94341 0.804614 4.13879 1.7972 4.13879H22.2002C23.1928 4.13879 23.9974 4.94341 23.9974 5.93599V18.064C23.9974 19.0566 23.1928 19.8612 22.2002 19.8612Z" fill="#4173CD"/>
<path d="M24 14.8965H0.00268555V15.7239H24V14.8965Z" fill="#FFE15A"/>
<path d="M24 16.5516H0.00268555V17.3791H24V16.5516Z" fill="#FFE15A"/>
<path d="M3.06008 8.24764L1.52051 7.72194L3.06008 7.19623L3.58583 5.6568L4.11154 7.19623L5.65111 7.72194L4.11154 8.24764L3.58583 9.78712L3.06008 8.24764Z" fill="#FF4B55"/>
<path d="M3.58583 5.93346L4.04113 7.26664L5.37431 7.72194L4.04113 8.17724L3.58583 9.51042L3.13053 8.17724L1.79735 7.72194L3.13053 7.26664L3.58583 5.93346ZM3.58583 5.38L3.41657 5.87562L2.98967 7.12578L1.73951 7.55267L1.2439 7.72189L1.73951 7.89111L2.98967 8.31801L3.41657 9.56817L3.58583 10.0638L3.7551 9.56817L4.18199 8.31801L5.43216 7.89111L5.92777 7.72189L5.43216 7.55267L4.18199 7.12578L3.7551 5.87566L3.58583 5.38Z" fill="#F5F5F5"/>
</svg>
