<svg width="24" height="24" viewBox="0 0 24 24" fill="none" xmlns="http://www.w3.org/2000/svg">
<path d="M22.2026 19.8621H1.79742C0.804703 19.8621 0 19.0574 0 18.0646V5.93536C0 4.94269 0.804703 4.13794 1.79742 4.13794H22.2026C23.1952 4.13794 24 4.94264 24 5.93536V18.0647C24 19.0574 23.1953 19.8621 22.2026 19.8621Z" fill="#41479B"/>
<path d="M0.413813 12.0003H1.13259L4.96556 9.48909V12.0004H7.03453V9.48909L10.8675 12.0004H11.5863C11.8148 12.0004 12.0001 11.8151 12.0001 11.5866V11.2583L8.71158 9.10382H12V7.03486H8.71148L12 4.8802V4.55198C12 4.32347 11.8147 4.13817 11.5862 4.13817H10.8674L7.03444 6.64945V4.13817H4.96547V6.64945L1.25798 4.22039C0.825281 4.35637 0.463406 4.65187 0.240469 5.0377L3.28852 7.03472H0V9.10368H3.28852L0 11.2583V11.5865C0 11.815 0.185297 12.0003 0.413813 12.0003Z" fill="#F5F5F5"/>
<path d="M12 7.44853H6.62067V4.13817H5.37933V7.44853H0V8.68992H5.37933V12.0003H6.62067V8.68992H12V7.44853Z" fill="#FF4B55"/>
<path d="M0.385498 4.82371L3.79167 7.03476H4.55165L0.684467 4.52441C0.573467 4.61212 0.473061 4.71257 0.385498 4.82371Z" fill="#FF4B55"/>
<path d="M7.79446 7.03472L11.937 4.34568C11.865 4.22386 11.738 4.13817 11.5861 4.13817H11.4966L7.03442 7.03472H7.79446Z" fill="#FF4B55"/>
<path d="M4.19418 9.10368L0.0595703 11.7876C0.130773 11.9124 0.259867 12.0002 0.413898 12.0002H0.491945L4.95426 9.10368H4.19418Z" fill="#FF4B55"/>
<path d="M11.9934 11.619L8.11843 9.10378H7.3584L11.7587 11.9601C11.8906 11.8989 11.981 11.7706 11.9934 11.619Z" fill="#FF4B55"/>
<path d="M20.7483 8.77734H15.2512V13.0256H20.7483V8.77734Z" fill="#82AFFF"/>
<path d="M15.2515 13.0253C15.2515 14.4744 16.8756 15.649 18.0001 15.649C18.9996 15.649 20.7488 14.4743 20.7488 13.0253H15.2515Z" fill="#C86464"/>
<path d="M18.7339 10.3287C18.8224 10.3443 18.9734 10.3652 18.989 10.5786C19.0046 10.792 18.9265 11.5521 18.8485 11.6458C18.8485 11.6458 19.1036 12.2236 19.114 12.5672C19.1244 12.9108 19.0776 13.9389 19.1088 14.1029C19.1401 14.2668 19.2572 14.6026 19.2572 14.6026C19.2572 14.6026 18.898 14.3918 18.7574 14.5245C18.6169 14.6572 18.1015 14.8369 17.8984 14.626C17.8984 14.626 18.1405 13.9389 18.1405 13.158C18.1405 12.3771 18.1405 10.4484 18.1405 10.4484C18.1405 10.4484 18.242 10.3677 18.3747 10.3651C18.5075 10.3626 18.7339 10.3287 18.7339 10.3287Z" fill="#73AF00"/>
<path d="M18.7859 14.4569C18.8015 14.5558 18.8431 14.6287 18.8223 14.6652C18.8015 14.7016 18.6662 15.0348 18.7442 15.0348C18.8223 15.0348 18.9577 14.9931 18.9941 14.9203C19.0306 14.8474 19.0462 14.738 19.067 14.7068C19.0879 14.6756 19.0306 14.5194 18.9837 14.4934C18.9369 14.4673 18.7859 14.4569 18.7859 14.4569Z" fill="#FFF5E1"/>
<path d="M17.8854 10.5474L17.5991 10.5839C17.5991 10.5839 17.6355 10.3964 17.6407 10.2663C17.6459 10.1361 17.6563 9.89667 17.6563 9.89667C17.6563 9.89667 17.8593 9.77174 17.8645 9.75088C17.8671 9.74048 17.8912 9.67542 17.8724 9.64157C17.8535 9.60773 17.7917 9.6051 17.7917 9.6051C17.7917 9.6051 17.5522 9.73002 17.5522 9.75088C17.5522 9.77174 17.5522 9.89667 17.5262 9.94349C17.5002 9.99037 17.3544 10.3808 17.344 10.4849C17.3336 10.589 17.318 10.8077 17.3596 10.8181C17.4012 10.8285 17.8333 10.8754 17.8802 10.8545C17.927 10.8337 17.8854 10.5474 17.8854 10.5474Z" fill="#FFF5E1"/>
<path d="M19.1826 9.51928H18.1405V9.02733H17.7813V9.51928H16.7393V9.87844H17.7813V14.6027H18.1405V9.87844H19.1826V9.51928Z" fill="#464655"/>
<path d="M18.5674 10.157C18.5674 10.157 18.9162 10.2574 18.963 10.1414C19.0177 10.006 18.8355 9.9878 18.8016 9.84465C18.7978 9.82862 18.7652 9.63643 18.6246 9.60001C18.4841 9.56354 18.3539 9.60001 18.3487 9.69371C18.3435 9.78741 18.5674 10.157 18.5674 10.157Z" fill="#963C3C"/>
<path d="M18.3799 10.5994C18.3696 10.6011 18.3539 10.4953 18.3747 10.3651C18.3956 10.235 18.3747 10.1933 18.3747 10.1933C18.3747 10.1933 18.229 10.2089 18.229 10.1517C18.229 10.0945 18.2602 9.82893 18.3487 9.6936C18.3487 9.6936 18.4112 9.7717 18.5257 9.7717C18.5257 9.7717 18.5205 9.8654 18.583 9.92784C18.583 9.92784 18.5049 9.99548 18.5414 10.0424C18.5778 10.0892 18.6455 10.1465 18.6455 10.1465C18.6455 10.1465 18.6507 10.2558 18.734 10.3287C18.7339 10.3287 18.6298 10.5578 18.3799 10.5994Z" fill="#FFF5E1"/>
<path d="M16.9851 12.8587H16.9539V13.4782H16.9851V12.8587Z" fill="#464655"/>
<path d="M17.1108 12.7388H17.0796V13.5981H17.1108V12.7388Z" fill="#464655"/>
<path d="M17.2363 12.6295H17.2051V13.7081H17.2363V12.6295Z" fill="#464655"/>
<path d="M17.362 12.473H17.3308V13.8646H17.362V12.473Z" fill="#464655"/>
<path d="M17.4875 12.2681H17.4563V14.0693H17.4875V12.2681Z" fill="#464655"/>
<path d="M17.6133 12.2681H17.582V14.1534H17.6133V12.2681Z" fill="#464655"/>
<path d="M18.1457 13.2544C18.0077 12.5365 17.6251 12.1195 17.4898 12.0987C17.3544 12.0779 17.2556 12.1872 17.2452 12.2653C17.2347 12.3434 17.1619 12.5777 17.0109 12.687C16.8599 12.7963 16.5788 12.8587 16.5163 13.0618C16.4539 13.2648 16.6205 13.3533 16.7194 13.3324C16.7268 13.3309 16.734 13.328 16.7414 13.3255L17.8056 14.6346C17.8443 14.6821 17.9195 14.6744 17.9465 14.6193C18.0559 14.3957 18.2635 13.8665 18.1457 13.2544ZM16.8308 13.2689C16.8725 13.2241 16.8901 13.1624 16.8443 13.0982C16.7662 12.9889 16.6777 13.1451 16.6777 13.1451C16.6777 13.1451 16.6517 13.0097 16.8547 12.9421C17.0577 12.8745 17.2868 12.7599 17.3909 12.5152C17.495 12.2706 17.4898 12.3173 17.4898 12.3173C17.4898 12.3173 17.9063 12.5516 17.9636 13.2856C18.0208 14.0197 17.8178 14.3164 17.8178 14.3164L16.8308 13.2689Z" fill="#FFE15A"/>
<path d="M17.7814 11.6838C17.7336 11.7144 17.6905 11.7407 17.6604 11.7564C17.5628 11.8072 17.4456 11.858 17.4339 11.9048C17.4223 11.9517 17.3558 11.9907 17.3598 12.0453C17.3637 12.1 17.3598 12.2639 17.3598 12.2639C17.4183 12.2523 17.5355 12.2327 17.5746 12.1624C17.6136 12.0921 17.6487 11.9555 17.7737 11.8969C17.7759 11.8959 17.7792 11.8948 17.7815 11.8938V11.6838H17.7814Z" fill="#FFF5E1"/>
<path d="M18.816 10.6866C18.7575 10.7139 18.5818 10.9248 18.5544 11.0224C18.5271 11.12 18.4412 11.3504 18.4412 11.3504C18.4412 11.3504 18.2638 11.3736 18.1406 11.4425V11.7835C18.2089 11.7637 18.2693 11.7442 18.3046 11.7253C18.4061 11.6706 18.5505 11.5691 18.6248 11.5496C18.6989 11.5301 18.7614 11.4051 18.7887 11.331C18.816 11.2568 18.9019 11.0381 18.9136 10.8898C18.9254 10.7413 18.8745 10.6593 18.816 10.6866Z" fill="#FFF5E1"/>
<path d="M17.9999 15.7376L17.9863 15.7355C15.1959 15.2949 15.1638 12.8781 15.1638 12.7755V8.68997H20.8361V12.7755C20.8361 12.8781 20.8041 15.2949 18.0136 15.7355L17.9999 15.7376ZM15.3388 8.86491V12.7755C15.3388 12.8719 15.369 15.1373 17.9999 15.5605C20.6309 15.1373 20.6611 12.8719 20.6611 12.7755V8.86491H15.3388Z" fill="#F5F5F5"/>
</svg>
