<svg width="24" height="24" viewBox="0 0 24 24" fill="none" xmlns="http://www.w3.org/2000/svg">
<g clip-path="url(#clip0_1_2689)">
<path d="M1.70456 19.8609H7.99997V4.13921H1.79742C0.804703 4.13921 0 4.94391 0 5.93663V18.066C0 19.0275 0.755062 19.8127 1.70456 19.8609Z" fill="#41479B"/>
<path d="M16.0004 4.13907H8.00024V19.8605H16.0004V4.13907Z" fill="#FFE15A"/>
<path d="M22.2954 19.8609C23.2449 19.8127 24 19.0275 24 18.0659V5.93663C24 4.94396 23.1953 4.13921 22.2025 4.13921H16V19.8609H22.2954Z" fill="#FF4B55"/>
<path d="M14.8136 13.3438C14.8136 13.2237 14.7162 13.1263 14.5961 13.1263C14.57 13.1263 14.5454 13.1316 14.5222 13.1401C14.4145 13.0443 14.2195 12.8068 14.4152 12.4714C14.4416 12.492 14.4745 12.5048 14.5106 12.5048C14.5969 12.5048 14.6668 12.4348 14.6668 12.3486C14.6668 12.2804 14.6228 12.223 14.562 12.2017C14.7228 12.1197 14.9521 11.9455 14.9403 11.6199C14.9235 11.1581 14.5452 10.9032 14.3131 11.0051C14.314 10.9986 14.3151 10.9922 14.3151 10.9856C14.3151 10.9005 14.2462 10.8316 14.1611 10.8316C14.1088 10.8316 14.0627 10.8578 14.0349 10.8976C14.0255 10.8514 14.0266 10.7657 14.1339 10.673C14.3333 10.5009 14.5598 10.0885 14.1475 9.79857C13.9192 9.63802 13.4828 9.5611 13.3366 9.78048C13.2731 9.87559 13.324 10.0123 13.3964 10.043C13.2797 10.108 13.0584 10.2057 12.8835 10.1294C12.6343 10.0207 12.7782 9.80471 12.8337 9.70801C12.9311 9.53809 12.87 9.25946 12.5437 9.25946C12.3262 9.25946 12.2175 9.47696 12.0001 9.47696C11.7826 9.47696 11.6738 9.25946 11.4564 9.25946C11.1302 9.25946 11.069 9.53809 11.1664 9.70801C11.2219 9.80466 11.3658 10.0206 11.1166 10.1294C10.9417 10.2057 10.7204 10.108 10.6037 10.043C10.6761 10.0123 10.727 9.87563 10.6635 9.78048C10.5173 9.56115 10.0809 9.63802 9.85257 9.79857C9.44025 10.0885 9.66685 10.5009 9.86616 10.673C9.9735 10.7657 9.97463 10.8515 9.96516 10.8976C9.93732 10.8578 9.89128 10.8316 9.83902 10.8316C9.75394 10.8316 9.68499 10.9005 9.68499 10.9856C9.68499 10.9922 9.68611 10.9987 9.68696 11.0051C9.45488 10.9031 9.07655 11.1581 9.05977 11.6199C9.04791 11.9455 9.27732 12.1197 9.43814 12.2017C9.37725 12.2231 9.33333 12.2804 9.33333 12.3486C9.33333 12.4349 9.40327 12.5048 9.48952 12.5048C9.52561 12.5048 9.55842 12.4921 9.58491 12.4714C9.78061 12.8068 9.58561 13.0443 9.47794 13.1401C9.45478 13.1316 9.43008 13.1263 9.40402 13.1263C9.28392 13.1263 9.18652 13.2236 9.18652 13.3438C9.18652 13.4566 9.27263 13.5482 9.38255 13.5591C9.23264 13.7131 9.09816 14.0525 9.39042 14.438C9.70983 14.8593 10.471 14.8254 10.838 14.8389C11.0707 14.8476 11.2457 14.968 11.3429 15.0552C11.2808 15.0935 11.2389 15.1616 11.2389 15.2399C11.2389 15.3497 11.3206 15.4396 11.4264 15.4544C11.4649 15.5159 11.5326 15.5571 11.6105 15.5571C11.6975 15.5571 11.772 15.5056 11.8068 15.4318C11.9216 15.5264 12.0001 15.5661 12.0001 15.5661C12.0001 15.5661 12.0787 15.5265 12.1935 15.4318C12.2283 15.5056 12.3028 15.5571 12.3898 15.5571C12.4677 15.5571 12.5354 15.5159 12.5738 15.4544C12.6796 15.4396 12.7613 15.3497 12.7613 15.2399C12.7613 15.1615 12.7195 15.0935 12.6574 15.0552C12.7545 14.9681 12.9296 14.8476 13.1623 14.8389C13.5293 14.8254 14.2905 14.8593 14.6099 14.438C14.9021 14.0525 14.7676 13.7131 14.6177 13.5591C14.7275 13.5481 14.8136 13.4566 14.8136 13.3438Z" fill="#DCBE82"/>
<path d="M10.0427 10.5506V13.704C10.0427 14.0643 10.3348 14.3565 10.6952 14.3565H11.5651C11.8913 14.3565 12 14.574 12 14.574C12 14.574 12.1087 14.3565 12.435 14.3565H13.3049C13.6652 14.3565 13.9573 14.0644 13.9573 13.704V10.5506C13.9573 10.4905 13.9087 10.4419 13.8486 10.4419H10.1516C10.0914 10.4418 10.0427 10.4905 10.0427 10.5506Z" fill="#D2AA73"/>
<path d="M11.8911 10.6594H10.26V12.2904H11.8911V10.6594Z" fill="#FF4B55"/>
<path d="M11.8913 14.1389C10.9905 14.1389 10.2603 13.4086 10.2603 12.5078H11.8913V14.1389Z" fill="#FF4B55"/>
<path d="M12.1086 14.1389V12.5078H13.7397C13.7397 13.4086 13.0094 14.1389 12.1086 14.1389Z" fill="#FFE15A"/>
<path d="M12.3417 10.6594H12.1086V12.2904H12.3417V10.6594Z" fill="#FFE15A"/>
<path d="M12.5748 10.6594H12.3418V12.2904H12.5748V10.6594Z" fill="#FF4B55"/>
<path d="M12.8077 10.6594H12.5747V12.2904H12.8077V10.6594Z" fill="#FFE15A"/>
<path d="M13.0411 10.6594H12.8081V12.2904H13.0411V10.6594Z" fill="#FF4B55"/>
<path d="M13.2735 10.6594H13.0405V12.2904H13.2735V10.6594Z" fill="#FFE15A"/>
<path d="M13.7394 10.6594H13.5063V12.2904H13.7394V10.6594Z" fill="#FFE15A"/>
<path d="M13.5069 10.6594H13.2739V12.2904H13.5069V10.6594Z" fill="#FF4B55"/>
<path d="M10.9849 12.5081H10.8037V14.1392H10.9849V12.5081Z" fill="#FF4B55"/>
<path d="M11.1663 12.5081H10.9851V14.1392H11.1663V12.5081Z" fill="#FFE15A"/>
<path d="M11.5291 12.5081H11.3479V14.1392H11.5291V12.5081Z" fill="#FFE15A"/>
<path d="M11.3472 12.5081H11.166V14.1392H11.3472V12.5081Z" fill="#FF4B55"/>
<path d="M11.8912 12.5081H11.71V14.1392H11.8912V12.5081Z" fill="#FFE15A"/>
<path d="M11.71 12.5081H11.5288V14.1392H11.71V12.5081Z" fill="#FF4B55"/>
<path d="M10.4415 14.0559V12.5078H10.2603V13.7039C10.2602 13.8492 10.3321 13.9769 10.4415 14.0559Z" fill="#FFE15A"/>
<path d="M10.6226 14.1316V12.5078H10.4414V14.0559C10.4942 14.0941 10.5556 14.1203 10.6226 14.1316Z" fill="#FF4B55"/>
<path d="M10.6226 12.5078V14.1316C10.6462 14.1356 10.6702 14.1389 10.6951 14.1389H10.8038V12.5078L10.6226 12.5078Z" fill="#FFE15A"/>
<path d="M10.5033 12.1977C10.4952 12.1977 10.487 12.1954 10.4797 12.1906C10.3728 12.1199 10.3665 12.0462 10.3724 12.0086C10.3802 11.9578 10.418 11.9156 10.4686 11.9011C10.5168 11.8876 10.5649 11.9018 10.5973 11.9395C10.6648 12.018 10.7345 12.0489 10.7932 12.0272C10.8397 12.01 10.8674 11.9642 10.8674 11.93C10.8674 11.9063 10.8865 11.8871 10.9102 11.8871C10.9339 11.8871 10.953 11.9063 10.953 11.93C10.953 12.0049 10.8984 12.0796 10.823 12.1075C10.7679 12.1278 10.6572 12.1404 10.5324 11.9954C10.519 11.9799 10.5032 11.9804 10.4921 11.9835C10.4769 11.9879 10.4601 12.0014 10.457 12.0216C10.4524 12.0511 10.4779 12.0866 10.5269 12.1191C10.5467 12.1321 10.552 12.1588 10.539 12.1785C10.5308 12.1909 10.5172 12.1977 10.5033 12.1977Z" fill="#F5F5F5"/>
<path d="M11.6534 12.1977C11.6395 12.1977 11.6259 12.1909 11.6177 12.1786C11.6046 12.1588 11.61 12.1322 11.6298 12.1192C11.6787 12.0867 11.7042 12.0512 11.6997 12.0217C11.6966 12.0015 11.6798 11.988 11.6646 11.9836C11.6534 11.9805 11.6376 11.98 11.6243 11.9955C11.4995 12.1406 11.3887 12.128 11.3336 12.1076C11.2583 12.0796 11.2036 12.0049 11.2036 11.9301C11.2036 11.9064 11.2227 11.8872 11.2465 11.8872C11.2701 11.8872 11.2893 11.9063 11.2893 11.9301C11.2893 11.9643 11.317 12.01 11.3635 12.0273C11.4221 12.0491 11.4919 12.0181 11.5593 11.9396C11.5918 11.9017 11.6399 11.8876 11.6881 11.9012C11.7387 11.9157 11.7765 11.9579 11.7843 12.0087C11.7901 12.0462 11.7839 12.12 11.677 12.1907C11.6697 12.1954 11.6615 12.1977 11.6534 12.1977Z" fill="#F5F5F5"/>
<path d="M10.4796 12.2486C10.4705 12.2486 10.4614 12.2458 10.4537 12.2399C10.4348 12.2256 10.4312 12.1987 10.4455 12.1799L11.3766 10.9556C11.3855 10.9395 11.3889 10.9172 11.3928 10.8916C11.3999 10.8435 11.4089 10.7836 11.4823 10.7395C11.5302 10.7108 11.587 10.7116 11.6344 10.7419C11.6869 10.7754 11.7177 10.8377 11.7114 10.897C11.7075 10.9331 11.6865 10.9988 11.5889 11.035C11.5666 11.0433 11.5421 11.0318 11.5339 11.0098C11.5257 10.9876 11.537 10.9629 11.5591 10.9547C11.5876 10.9442 11.6223 10.924 11.6261 10.8879C11.6291 10.8606 11.6135 10.8303 11.5883 10.8141C11.5742 10.8051 11.552 10.7973 11.5264 10.8129C11.4876 10.8363 11.4837 10.8619 11.4774 10.9043C11.4729 10.9343 11.4678 10.9684 11.4477 11.003L10.5136 12.2318C10.5054 12.2427 10.4925 12.2486 10.4796 12.2486Z" fill="#FFE15A"/>
<path d="M11.0816 10.9019L10.6533 11.4159L10.8246 11.93H11.3386L11.51 11.4159L11.0816 10.9019Z" fill="#FFE15A"/>
<path d="M11.0815 10.8351L10.605 11.4069L10.7936 11.9729H11.3693L11.5579 11.4069L11.0815 10.8351ZM10.7014 11.4251L11.0387 11.0203V11.8872H10.8554L10.7014 11.4251ZM11.3077 11.8872H11.1244V11.0203L11.4617 11.4251L11.3077 11.8872Z" fill="#F5F5F5"/>
<path d="M13.3389 13.0228L13.3453 12.9277C13.3453 12.9277 13.4296 12.8673 13.3885 12.8111C13.3475 12.755 13.3 12.7441 13.2006 12.7571C13.1012 12.7701 12.9457 12.7679 12.8787 12.7722C12.8118 12.7766 12.7772 12.8132 12.6714 12.783L12.6994 12.7182C12.6994 12.7182 12.6498 12.7226 12.6195 12.7377C12.603 12.746 12.5634 12.6923 12.5245 12.701C12.4858 12.7095 12.4467 12.7895 12.3862 12.8306L12.4186 12.8954C12.4186 12.8954 12.4553 12.8781 12.4834 12.8976C12.5115 12.917 12.5202 12.9299 12.5677 12.9299L12.598 12.9429C12.598 12.9429 12.5872 13.012 12.6326 13.0445C12.6326 13.0445 12.5807 13.1114 12.5872 13.1222C12.5937 13.1331 12.6368 13.2151 12.6542 13.2626L12.6931 13.1892C12.6931 13.1892 12.6347 13.1373 12.6455 13.1308C12.6564 13.1243 12.6952 13.1157 12.6887 13.0984C12.6822 13.0811 12.719 13.1006 12.76 13.107C12.76 13.107 12.7622 13.1719 12.7708 13.1805C12.7795 13.1891 12.7924 13.2237 12.7903 13.2604C12.7881 13.2971 12.7557 13.3079 12.7557 13.3079L12.8141 13.3252C12.8141 13.3252 12.8292 13.3036 12.84 13.3058C12.84 13.3058 12.8357 13.1265 12.8595 13.0984C12.8595 13.0984 12.9999 13.1265 13.0647 13.0919C13.0647 13.0919 13.0729 13.1024 13.0891 13.1123C13.0827 13.1274 13.0772 13.1424 13.0796 13.1468C13.085 13.1566 13.1024 13.1555 13.1067 13.1446C13.1083 13.1406 13.1109 13.1322 13.1134 13.1235C13.1212 13.1261 13.1298 13.1281 13.1396 13.1291C13.1387 13.1427 13.1386 13.1553 13.1417 13.1582C13.1499 13.1657 13.166 13.1593 13.1668 13.1476C13.1671 13.1438 13.1669 13.1367 13.1667 13.129C13.1779 13.128 13.1898 13.1261 13.2029 13.1222L13.1294 13.2432L13.0927 13.2583L13.1403 13.282L13.1834 13.2647C13.1834 13.2647 13.2244 13.161 13.2914 13.1308C13.2914 13.1308 13.3368 13.2388 13.2806 13.2972L13.3302 13.3252L13.354 13.2756C13.354 13.2756 13.3454 13.1784 13.3778 13.1158L13.3389 13.0228Z" fill="#FF4B55"/>
<path d="M12.5253 12.7141C12.5253 12.7141 12.5037 12.6936 12.4982 12.6665C12.4928 12.6394 12.4863 12.6274 12.4624 12.6199C12.4624 12.6199 12.4775 12.6372 12.4754 12.6643C12.4733 12.6914 12.4754 12.7283 12.4906 12.7402L12.5253 12.7141Z" fill="#4173CD"/>
<path d="M12.714 12.7905C12.714 12.7905 12.6845 12.8908 12.5979 12.9429L12.5676 12.9299C12.5676 12.9299 12.6601 12.8509 12.6713 12.783L12.714 12.7905Z" fill="#4173CD"/>
<path d="M12.5666 12.7379C12.5635 12.7348 12.6045 12.7228 12.5947 12.6903C12.5849 12.6577 12.5849 12.6339 12.6045 12.6187C12.6045 12.6187 12.6067 12.6458 12.6219 12.6632C12.637 12.6805 12.6457 12.7239 12.6208 12.7488C12.6209 12.7488 12.5959 12.7683 12.5666 12.7379Z" fill="#4173CD"/>
<path d="M12.5711 13.0335C12.566 13.031 12.5638 13.0247 12.5664 13.0195L12.5794 12.9929C12.5871 12.9773 12.582 12.9579 12.567 12.9492C12.5504 12.9397 12.5296 12.9463 12.5214 12.9631L12.5078 12.9907C12.5052 12.9959 12.4989 12.9981 12.4938 12.9955L12.4856 13.0121C12.4856 13.0121 12.4976 13.018 12.5121 13.0251L12.5118 13.0258C12.5085 13.0325 12.5113 13.0406 12.518 13.0439C12.5247 13.0472 12.5328 13.0444 12.5361 13.0377L12.5365 13.0371C12.551 13.0442 12.563 13.0501 12.563 13.0501L12.5711 13.0335Z" fill="#4173CD"/>
<path d="M12.6761 13.2161L12.7086 13.2226L12.6815 13.3061L12.6541 13.2626L12.6761 13.2161Z" fill="#4173CD"/>
<path d="M12.7554 13.3079L12.7356 13.343H12.8136L12.8138 13.3252L12.7554 13.3079Z" fill="#4173CD"/>
<path d="M13.1401 13.282V13.3028H13.0515L13.0944 13.26L13.1401 13.282Z" fill="#4173CD"/>
<path d="M13.2803 13.2971L13.2366 13.3409H13.3286L13.3299 13.3252L13.2803 13.2971Z" fill="#4173CD"/>
<path d="M13.3389 13.6996L13.3453 13.6046C13.3453 13.6046 13.4296 13.5441 13.3885 13.488C13.3475 13.4318 13.3 13.421 13.2006 13.434C13.1012 13.4469 12.9457 13.4448 12.8787 13.449C12.8118 13.4534 12.7772 13.4901 12.6714 13.4599L12.6994 13.395C12.6994 13.395 12.6498 13.3994 12.6195 13.4145C12.603 13.4228 12.5634 13.3691 12.5245 13.3778C12.4858 13.3864 12.4467 13.4663 12.3862 13.5074L12.4186 13.5722C12.4186 13.5722 12.4553 13.5549 12.4834 13.5744C12.5115 13.5938 12.5202 13.6068 12.5677 13.6068L12.598 13.6198C12.598 13.6198 12.5872 13.6889 12.6326 13.7213C12.6326 13.7213 12.5807 13.7883 12.5872 13.799C12.5937 13.8098 12.6368 13.8919 12.6542 13.9394L12.6931 13.866C12.6931 13.866 12.6347 13.8141 12.6455 13.8076C12.6564 13.8011 12.6952 13.7925 12.6887 13.7752C12.6822 13.7579 12.719 13.7774 12.76 13.7838C12.76 13.7838 12.7622 13.8487 12.7708 13.8573C12.7795 13.8659 12.7924 13.9005 12.7903 13.9372C12.7881 13.9739 12.7557 13.9847 12.7557 13.9847L12.8141 14.002C12.8141 14.002 12.8292 13.9804 12.84 13.9826C12.84 13.9826 12.8357 13.8033 12.8595 13.7752C12.8595 13.7752 12.9999 13.8033 13.0647 13.7687C13.0647 13.7687 13.0729 13.7792 13.0891 13.7891C13.0827 13.8042 13.0772 13.8192 13.0796 13.8236C13.085 13.8334 13.1024 13.8323 13.1067 13.8214C13.1083 13.8173 13.1109 13.809 13.1134 13.8003C13.1212 13.8029 13.1298 13.8049 13.1396 13.8059C13.1387 13.8195 13.1386 13.8321 13.1417 13.835C13.1499 13.8425 13.166 13.8361 13.1668 13.8244C13.1671 13.8206 13.1669 13.8135 13.1667 13.8058C13.1779 13.8048 13.1898 13.8029 13.2029 13.799L13.1294 13.92L13.0927 13.935L13.1403 13.9588L13.1834 13.9415C13.1834 13.9415 13.2244 13.8378 13.2914 13.8076C13.2914 13.8076 13.3368 13.9156 13.2806 13.974L13.3302 14.002L13.354 13.9524C13.354 13.9524 13.3454 13.8552 13.3778 13.7925L13.3389 13.6996Z" fill="#FF4B55"/>
<path d="M12.5253 13.3909C12.5253 13.3909 12.5037 13.3703 12.4982 13.3433C12.4928 13.3162 12.4863 13.3042 12.4624 13.2967C12.4624 13.2967 12.4775 13.314 12.4754 13.3411C12.4733 13.3682 12.4754 13.4051 12.4906 13.417L12.5253 13.3909Z" fill="#4173CD"/>
<path d="M12.714 13.4673C12.714 13.4673 12.6845 13.5675 12.5979 13.6197L12.5676 13.6067C12.5676 13.6067 12.6601 13.5277 12.6713 13.4598L12.714 13.4673Z" fill="#4173CD"/>
<path d="M12.5666 13.4148C12.5635 13.4116 12.6045 13.3996 12.5947 13.3671C12.5849 13.3346 12.5849 13.3107 12.6045 13.2955C12.6045 13.2955 12.6067 13.3226 12.6219 13.34C12.6371 13.3573 12.6457 13.4007 12.6208 13.4256C12.6209 13.4256 12.5959 13.4452 12.5666 13.4148Z" fill="#4173CD"/>
<path d="M12.5711 13.7103C12.566 13.7078 12.5638 13.7015 12.5664 13.6963L12.5794 13.6697C12.5871 13.6541 12.582 13.6347 12.567 13.626C12.5504 13.6165 12.5296 13.623 12.5214 13.6399L12.5078 13.6675C12.5052 13.6727 12.4989 13.6749 12.4938 13.6723L12.4856 13.6889C12.4856 13.6889 12.4976 13.6948 12.5121 13.7019L12.5118 13.7025C12.5085 13.7093 12.5113 13.7174 12.518 13.7207C12.5247 13.724 12.5328 13.7212 12.5361 13.7145L12.5365 13.7139C12.551 13.721 12.563 13.7269 12.563 13.7269L12.5711 13.7103Z" fill="#4173CD"/>
<path d="M12.6761 13.8929L12.7086 13.8994L12.6815 13.9829L12.6541 13.9394L12.6761 13.8929Z" fill="#4173CD"/>
<path d="M12.7554 13.9847L12.7356 14.0198H12.8136L12.8138 14.002L12.7554 13.9847Z" fill="#4173CD"/>
<path d="M13.1401 13.9588V13.9797H13.0515L13.0944 13.9368L13.1401 13.9588Z" fill="#4173CD"/>
<path d="M13.2803 13.9739L13.2366 14.0177H13.3286L13.3299 14.002L13.2803 13.9739Z" fill="#4173CD"/>
</g>
<defs>
<clipPath id="clip0_1_2689">
<rect width="24" height="24" fill="white"/>
</clipPath>
</defs>
</svg>
