<svg width="24" height="24" viewBox="0 0 24 24" fill="none" xmlns="http://www.w3.org/2000/svg">
<path d="M23.5861 19.862H0.413812C0.185297 19.862 0 19.6767 0 19.4482V4.55169C0 4.32317 0.185297 4.13788 0.413812 4.13788H23.5862C23.8147 4.13788 24 4.32317 24 4.55169V19.4482C24 19.6768 23.8147 19.862 23.5861 19.862Z" fill="#F5F5F5"/>
<path d="M0.413812 10.3448H9.93101C10.1595 10.3448 10.3448 10.1595 10.3448 9.93101V4.55169C10.3448 4.32313 10.1595 4.13788 9.93101 4.13788H1.79742C0.804702 4.13793 0 4.94263 0 5.93534V9.93101C0 10.1595 0.185297 10.3448 0.413812 10.3448Z" fill="#41479B"/>
<path d="M23.586 13.6551H14.0688C13.8403 13.6551 13.655 13.8404 13.655 14.0689V19.4483C13.655 19.6768 13.8403 19.8621 14.0688 19.8621H22.2024C23.1951 19.8621 23.9999 19.0574 23.9999 18.0646V14.069C23.9999 13.8404 23.8146 13.6551 23.586 13.6551Z" fill="#41479B"/>
<path d="M22.2024 4.13792H14.0688C13.8403 4.13792 13.655 4.32313 13.655 4.55174V9.93105C13.655 10.1596 13.8403 10.3449 14.0688 10.3449H23.586C23.8146 10.3449 23.9999 10.1596 23.9999 9.93105V5.93539C23.9999 4.94263 23.1952 4.13792 22.2024 4.13792Z" fill="#FF4B55"/>
<path d="M10.3448 19.4483V14.0689C10.3448 13.8404 10.1595 13.6551 9.93101 13.6551H0.413812C0.185297 13.6551 0 13.8404 0 14.0689V18.0646C0 19.0573 0.804702 19.862 1.79742 19.862H9.93101C10.1595 19.862 10.3448 19.6768 10.3448 19.4483Z" fill="#FF4B55"/>
<path d="M11.7625 13.1799C11.7625 13.1799 12.0097 13.2704 11.9774 13.5807L12.0774 13.5789C12.0774 13.5789 12.0143 13.2202 11.9622 13.1772C11.9101 13.1343 11.7625 13.1799 11.7625 13.1799Z" fill="#64B496"/>
<path d="M12.0101 13.132C11.9053 13.132 11.722 13.1318 11.5292 13.0798C11.5722 13.0351 11.6316 12.945 11.6316 12.7879C11.6316 12.5419 11.4621 12.6988 11.4621 12.6988C11.4621 12.6988 11.3506 12.7926 11.4181 13.0434C11.3523 13.0183 11.2871 12.986 11.225 12.9445C11.2636 12.896 11.3408 12.7828 11.3856 12.6034C11.3856 12.6034 11.1031 12.5475 11.0259 12.7602C10.9786 12.7002 10.9381 12.6327 10.9043 12.5579C10.9769 12.5588 11.0782 12.5109 11.0782 12.2344C11.0782 12.2344 10.8937 12.2347 10.8444 12.3947C10.8249 12.3278 10.8102 12.2562 10.7993 12.1804C10.8729 12.2018 11.0634 12.2171 11.0634 11.8039C11.0634 11.8039 10.8347 11.8043 10.7818 12.0068C10.7789 11.955 10.7778 11.9015 10.7783 11.8463C10.8893 11.7882 11.0425 11.6604 11.0266 11.3982C11.0266 11.3982 10.9212 11.4221 10.8246 11.5031C10.8436 11.4037 10.8357 11.2581 10.6832 11.1367C10.6832 11.1367 10.5431 11.3847 10.7478 11.586C10.73 11.611 10.7145 11.6395 10.7017 11.6712C10.6557 11.6011 10.5819 11.536 10.4632 11.4965C10.4632 11.4965 10.4085 11.8286 10.7186 11.9675C10.7259 12.1615 10.7563 12.3328 10.8084 12.4819C10.7196 12.4036 10.6477 12.2959 10.6477 12.2959C10.6477 11.9269 10.3452 11.9176 10.3452 11.9176C10.2887 12.3387 10.6002 12.3558 10.6002 12.3558L10.7707 12.5419C10.4017 12.4804 10.4017 12.7879 10.4017 12.7879C10.6477 12.8494 10.7707 12.7264 10.7707 12.7264L10.9037 12.7947C10.6678 12.8016 10.5862 13.0339 10.5862 13.0339C10.8828 13.0833 11.0996 13.0136 11.1734 12.9843C11.4721 13.1931 11.8402 13.1934 12.0102 13.1934V13.132H12.0101Z" fill="#64B496"/>
<path d="M11.9893 13.132C12.0942 13.132 12.2774 13.1318 12.4702 13.0798C12.4272 13.0351 12.3678 12.945 12.3678 12.7879C12.3678 12.5419 12.5373 12.6988 12.5373 12.6988C12.5373 12.6988 12.6488 12.7926 12.5814 13.0434C12.6471 13.0183 12.7123 12.986 12.7745 12.9445C12.7358 12.896 12.6586 12.7828 12.6138 12.6034C12.6138 12.6034 12.8963 12.5475 12.9735 12.7602C13.0209 12.7002 13.0614 12.6327 13.0952 12.5579C13.0226 12.5588 12.9213 12.5109 12.9213 12.2344C12.9213 12.2344 13.1057 12.2347 13.1551 12.3947C13.1745 12.3278 13.1893 12.2562 13.2001 12.1804C13.1265 12.2018 12.9361 12.2171 12.9361 11.8039C12.9361 11.8039 13.1647 11.8043 13.2176 12.0068C13.2205 11.955 13.2216 11.9015 13.2211 11.8463C13.1101 11.7882 12.9569 11.6604 12.9728 11.3982C12.9728 11.3982 13.0783 11.4221 13.1749 11.5031C13.1559 11.4037 13.1638 11.2581 13.3162 11.1367C13.3162 11.1367 13.4563 11.3847 13.2517 11.586C13.2695 11.611 13.285 11.6395 13.2978 11.6712C13.3438 11.6011 13.4175 11.536 13.5363 11.4965C13.5363 11.4965 13.5909 11.8286 13.2808 11.9675C13.2735 12.1615 13.2432 12.3328 13.191 12.4819C13.2799 12.4036 13.3517 12.2959 13.3517 12.2959C13.3517 11.9269 13.6542 11.9176 13.6542 11.9176C13.7107 12.3387 13.3993 12.3558 13.3993 12.3558L13.2287 12.5419C13.5977 12.4804 13.5977 12.7879 13.5977 12.7879C13.3517 12.8494 13.2287 12.7264 13.2287 12.7264L13.0957 12.7947C13.3317 12.8016 13.4132 13.0339 13.4132 13.0339C13.1166 13.0833 12.8998 13.0136 12.8261 12.9843C12.5274 13.1931 12.1592 13.1934 11.9893 13.1934L11.9893 13.132Z" fill="#64B496"/>
<path d="M10.9624 10.451C10.7461 10.5896 10.5555 10.7661 10.4019 10.9744C10.4679 11.0231 10.5339 11.0718 10.5999 11.1205C10.7354 10.9366 10.9037 10.7808 11.0944 10.6585L10.9624 10.451Z" fill="#41479B"/>
<path d="M12.0008 12.0499H12.8617V12.5419C12.8617 12.6778 12.7516 12.7879 12.6157 12.7879H12.2467C12.1457 12.7879 12.0568 12.8373 12.0007 12.9126L12.0008 12.0499Z" fill="#FF6B71"/>
<path d="M12.1851 11.4964V10.8199H13.1076L12.8616 11.0659V11.7424H12.1851V11.4964Z" fill="#5F64B9"/>
<path d="M12.8615 11.7422H12.554V12.0497H12.8615V11.7422Z" fill="#F5F5F5"/>
<path d="M12.0006 12.0499H11.1396V12.5419C11.1396 12.6778 11.2498 12.7879 11.3856 12.7879H11.7546C11.8557 12.7879 11.9446 12.8373 12.0006 12.9126V12.0499Z" fill="#FF6B71"/>
<path d="M11.8469 12.8028C11.9083 12.8224 11.9613 12.8606 11.9993 12.9109H12.0021C12.0401 12.8606 12.0931 12.8224 12.1544 12.8028V12.2959H11.8469V12.8028Z" fill="#F5F5F5"/>
<path d="M11.8163 11.4964V10.8199H10.8938L11.1398 11.0659V11.7424H11.8163V11.4964Z" fill="#5F64B9"/>
<path d="M11.4474 11.7422H11.1399V12.0497H11.4474V11.7422Z" fill="#F5F5F5"/>
<path d="M11.4473 11.1274V11.3119L11.6318 11.4349V11.3119L11.4473 11.1274Z" fill="#41479B"/>
<path d="M11.6316 11.312V11.4964L11.8775 11.6194V11.558L11.6316 11.312Z" fill="#F5F5F5"/>
<path d="M12.5541 11.1274V11.3119L12.3696 11.4349V11.3119L12.5541 11.1274Z" fill="#41479B"/>
<path d="M12.3695 11.312V11.4964L12.1235 11.6194V11.558L12.3695 11.312Z" fill="#F5F5F5"/>
<path d="M12.3718 12.4804H11.6299C11.4612 12.4804 11.3245 12.3427 11.3245 12.1729V11.2218L12.0053 11.6809L12.6772 11.2218V12.1729C12.6772 12.3428 12.5405 12.4804 12.3718 12.4804Z" fill="#FF4B55"/>
<path d="M11.5702 11.3734L11.3242 11.1889V11.8654L11.5702 11.9884V11.3734Z" fill="#41479B"/>
<path d="M12.4312 11.3734L12.6772 11.1889V11.8654L12.4312 11.9884V11.3734Z" fill="#41479B"/>
<path d="M12.3695 11.9887H11.6316V12.2962H12.3695V11.9887Z" fill="#41479B"/>
<path d="M11.6316 11.435L12.0006 11.6195L12.3695 11.435V11.9885H11.6316V11.435Z" fill="#FF4B55"/>
<path d="M12.2775 11.4931V12.1114C12.2775 12.1623 12.2361 12.2036 12.1853 12.2036H11.8163C11.7654 12.2036 11.7241 12.1622 11.7241 12.1114V11.4956L11.5396 11.372V12.1115C11.5396 12.264 11.6637 12.3882 11.8163 12.3882H12.1853C12.3378 12.3882 12.462 12.264 12.462 12.1115V11.3679L12.2775 11.4931Z" fill="#F5F5F5"/>
<path d="M12.3418 11.9226C12.2382 11.932 12.1217 11.9424 12.0007 11.9845C11.8797 11.9424 11.7631 11.932 11.6595 11.9226C11.4862 11.9071 11.3833 11.8919 11.3245 11.7874V11.9649C11.4149 12.0237 11.5294 12.0345 11.6485 12.0452C11.7554 12.0548 11.866 12.0647 11.9789 12.1075L12.0007 12.1157L12.0225 12.1075C12.1354 12.0647 12.246 12.0548 12.3529 12.0452C12.4721 12.0345 12.5869 12.0238 12.6773 11.965V11.7869C12.6184 11.8919 12.5154 11.9071 12.3418 11.9226Z" fill="#F5F5F5"/>
<path d="M12.1237 11.3427H12.0315V11.2504H11.97V11.3427H11.8777V11.4042H11.97V11.6809H12.0315V11.4042H12.1237V11.3427Z" fill="#FFE15A"/>
<path d="M11.4283 11.0637L11.3945 11.0975L11.9349 11.6379L11.9687 11.6041L11.4283 11.0637Z" fill="#464655"/>
<path d="M11.3098 10.979L11.3774 11.1141L11.4449 11.0466L11.3098 10.979Z" fill="#FFE15A"/>
<path d="M11.5523 10.9761L11.5137 11.0042L11.9637 11.622L12.0023 11.5939L11.5523 10.9761Z" fill="#464655"/>
<path d="M11.448 10.8741L11.4938 11.0181L11.571 10.9619L11.448 10.8741Z" fill="#FFE15A"/>
<path d="M11.3208 11.1758L11.2935 11.215L11.92 11.6525L11.9473 11.6133L11.3208 11.1758Z" fill="#464655"/>
<path d="M11.1895 11.1144L11.2796 11.2356L11.3343 11.1573L11.1895 11.1144Z" fill="#FFE15A"/>
<path d="M12.0327 11.6037L12.0664 11.6375L12.6068 11.0971L12.5731 11.0633L12.0327 11.6037Z" fill="#464655"/>
<path d="M12.6912 10.979L12.6237 11.1141L12.5562 11.0466L12.6912 10.979Z" fill="#FFE15A"/>
<path d="M11.9992 11.5933L12.0378 11.6214L12.4878 11.0037L12.4492 10.9756L11.9992 11.5933Z" fill="#464655"/>
<path d="M12.5529 10.8741L12.5071 11.0181L12.4299 10.9619L12.5529 10.8741Z" fill="#FFE15A"/>
<path d="M12.0545 11.6147L12.0818 11.6538L12.7084 11.2163L12.681 11.1772L12.0545 11.6147Z" fill="#464655"/>
<path d="M12.8116 11.1144L12.7215 11.2356L12.6667 11.1573L12.8116 11.1144Z" fill="#FFE15A"/>
<path d="M11.9693 12.7704C11.9693 12.7704 11.7315 12.515 11.7777 12.2805C11.8148 12.0919 11.9273 11.8841 12.0154 11.8335C12.0154 11.8335 12.1399 11.8258 12.1087 11.934C12.0775 12.0422 12.0394 12.0701 12.0506 12.1767C12.0698 12.3613 12.0995 12.58 11.9693 12.7704Z" fill="#F5F5F5"/>
<path d="M12.0415 11.8348C12.0267 11.8329 12.0154 11.8335 12.0154 11.8335C11.9273 11.8841 11.8147 12.092 11.7777 12.2806C11.7567 12.3872 11.7946 12.498 11.842 12.5873C11.812 12.2006 11.9248 12.0635 12.0415 11.8348Z" fill="#41479B"/>
<path d="M12.0506 12.1768C12.0395 12.0702 12.0775 12.0423 12.1087 11.9341C12.1306 11.8584 12.0762 11.8394 12.0416 11.8349C12.0416 11.8349 11.9622 12.0173 11.957 12.1397C11.9525 12.2474 11.9801 12.6855 11.9694 12.7706C12.0995 12.58 12.0698 12.3613 12.0506 12.1768Z" fill="#FF4B55"/>
<path d="M11.8893 11.9261C11.9389 11.8777 12.0085 11.8561 12.0767 11.8678C12.0444 11.7637 12.012 11.6596 11.9797 11.5555C11.9115 11.5438 11.8418 11.5654 11.7922 11.6137C11.8246 11.7178 11.857 11.8219 11.8893 11.9261Z" fill="#F5F0F0"/>
<path d="M12.0768 11.8678C12.1263 11.8195 12.196 11.7979 12.2642 11.8096C12.2319 11.7055 12.1995 11.6014 12.1672 11.4972C12.099 11.4856 12.0293 11.5072 11.9797 11.5555C12.012 11.6596 12.0444 11.7637 12.0768 11.8678Z" fill="#F5F5F5"/>
<path d="M11.7197 10.5166C11.3859 10.5089 11.0561 10.591 10.7649 10.7542C10.7248 10.6827 10.6847 10.6112 10.6445 10.5397C10.9742 10.3548 11.3475 10.2619 11.7254 10.2706C11.7235 10.3526 11.7215 10.4346 11.7197 10.5166Z" fill="#5F64B9"/>
<path d="M13.039 10.451C13.2553 10.5896 13.4459 10.7661 13.5996 10.9744C13.5336 11.0231 13.4676 11.0718 13.4016 11.1205C13.266 10.9366 13.0978 10.7808 12.907 10.6585L13.039 10.451Z" fill="#41479B"/>
<path d="M12.2816 10.5166C12.6154 10.5089 12.9451 10.591 13.2364 10.7542C13.2765 10.6827 13.3166 10.6112 13.3567 10.5397C13.0271 10.3548 12.6538 10.2619 12.2759 10.2706C12.2778 10.3526 12.2797 10.4346 12.2816 10.5166Z" fill="#5F64B9"/>
<path d="M12.4927 10.451C12.1706 10.3629 11.8308 10.3629 11.5088 10.451C11.4872 10.3719 11.4655 10.2928 11.4438 10.2137C11.8084 10.114 12.193 10.114 12.5576 10.2137C12.536 10.2928 12.5144 10.3719 12.4927 10.451Z" fill="#41479B"/>
<path d="M11.1764 13.2073C10.911 13.2767 10.6515 13.3702 10.4016 13.4879C10.4366 13.562 10.4715 13.6362 10.5065 13.7104C10.7475 13.5968 10.9981 13.5071 11.2546 13.4412L11.1764 13.2073Z" fill="#FF6B71"/>
<path d="M12.8248 13.2073C13.0902 13.2767 13.3497 13.3702 13.5996 13.4879C13.5646 13.562 13.5296 13.6362 13.4947 13.7104C13.2536 13.5968 13.003 13.5071 12.7466 13.4412L12.8248 13.2073Z" fill="#FF6B71"/>
<path d="M12.99 13.3976C12.3431 13.2423 11.6688 13.2423 11.022 13.3976C11.0029 13.3178 10.9837 13.2381 10.9646 13.1584C11.6491 12.9941 12.3629 12.9941 13.0474 13.1584C13.0283 13.2381 13.0091 13.3179 12.99 13.3976Z" fill="#FF4B55"/>
<path d="M12.0006 13.4644L11.831 13.5068C11.7922 13.5165 11.7546 13.4872 11.7546 13.4472V13.3587C11.7546 13.3188 11.7922 13.2894 11.831 13.2991L12.0006 13.3415V13.4644Z" fill="#FF4B55"/>
<path d="M12.0007 13.3414L12.1703 13.299C12.2091 13.2893 12.2467 13.3186 12.2467 13.3586V13.4471C12.2467 13.4871 12.2091 13.5165 12.1703 13.5067L12.0007 13.4643V13.3414Z" fill="#FF4B55"/>
<path d="M12.0139 13.4644H11.9875C11.9609 13.4644 11.9392 13.4428 11.9392 13.4161V13.3897C11.9392 13.363 11.9608 13.3414 11.9875 13.3414H12.0139C12.0406 13.3414 12.0623 13.363 12.0623 13.3897V13.4161C12.0622 13.4428 12.0406 13.4644 12.0139 13.4644Z" fill="#FF6B71"/>
</svg>
