<svg width="24" height="24" viewBox="0 0 24 24" fill="none" xmlns="http://www.w3.org/2000/svg">
<path d="M24 6.38344H0V8.62983H24V6.38344Z" fill="#F5F5F5"/>
<path d="M24 8.62921H0V10.8756H24V8.62921Z" fill="#73AF00"/>
<path d="M24 10.8755H0V13.1219H24V10.8755Z" fill="#F5F5F5"/>
<path d="M24 13.1217H0V15.3681H24V13.1217Z" fill="#73AF00"/>
<path d="M24 15.3684H0V17.6148H24V15.3684Z" fill="#F5F5F5"/>
<path d="M22.2025 4.13911H1.79742C0.80475 4.13911 0 4.94382 0 5.93654V6.38302H23.9999V5.9348C23.999 4.94293 23.1946 4.13911 22.2025 4.13911Z" fill="#73AF00"/>
<path d="M24 17.6145H0V18.0659C0 19.0274 0.755063 19.8126 1.70456 19.8609H22.2953C23.2443 19.8126 23.999 19.0283 23.9999 18.0676V17.6146L24 17.6145Z" fill="#73AF00"/>
<path d="M0 5.93654V10.4633C0.000796875 10.6911 0.185672 10.8756 0.413719 10.8756H11.5861C11.8146 10.8756 11.9999 10.6903 11.9999 10.4618V4.55054C11.9999 4.33688 11.8379 4.16105 11.63 4.13911H1.79742C0.80475 4.13911 0 4.94382 0 5.93654Z" fill="#FF4B55"/>
<path d="M6.36322 10.3436H5.69605C5.63539 10.3436 5.58106 10.3059 5.56002 10.2489L5.34519 9.669C5.26133 9.4426 5.22369 9.20166 5.23447 8.96049L5.30928 7.28541C5.3112 7.24289 5.33848 7.20572 5.37847 7.19119C5.44709 7.1662 5.51975 7.21706 5.51975 7.29014V8.05294C5.51975 8.07427 5.53705 8.09156 5.55838 8.09156C5.57895 8.09156 5.59592 8.07544 5.59695 8.05486L5.65691 6.83855C5.65934 6.78914 5.69647 6.74845 5.74541 6.74147C5.80606 6.7328 5.86091 6.77859 5.8632 6.83991L5.90459 7.97386C5.90544 7.99664 5.92559 8.0138 5.94819 8.01094C5.96731 8.00855 5.9818 7.99247 5.98217 7.97316L6.00706 6.71311C6.00842 6.6443 6.07611 6.59653 6.14141 6.61828C6.18139 6.63164 6.20905 6.66811 6.21106 6.7102L6.27256 7.9838C6.27322 7.99795 6.28152 8.01066 6.29417 8.01699C6.31977 8.02983 6.35005 8.01178 6.35089 7.98309L6.38173 6.99628C6.38408 6.92175 6.46213 6.87417 6.52944 6.90624C6.56342 6.92241 6.58592 6.95583 6.58813 6.99342L6.65994 8.20458L6.85208 8.76506C6.86291 8.79652 6.90711 8.79713 6.91855 8.76591C6.97297 8.61736 7.09648 8.33995 7.29467 8.2178C7.32978 8.19619 7.37478 8.19895 7.40778 8.2237C7.4563 8.26013 7.46197 8.3303 7.42049 8.3745C7.32388 8.47735 7.18302 8.69349 7.19319 9.0735C7.1945 9.12188 7.18049 9.16941 7.15189 9.20845L6.61049 9.94805C6.5563 10.0221 6.52152 10.1086 6.50938 10.1996L6.50694 10.2177C6.49747 10.2898 6.43597 10.3436 6.36322 10.3436Z" fill="#F5F5F5"/>
<path d="M6.03154 4.70343L6.14024 5.0294L6.48383 5.03203C6.51046 5.03221 6.52147 5.0662 6.50005 5.08204L6.22363 5.28614L6.32727 5.61375C6.33529 5.63915 6.30641 5.66015 6.28476 5.64464L6.00519 5.44481L5.72563 5.64464C5.70397 5.6601 5.6751 5.6391 5.68312 5.61375L5.78676 5.28614L5.51033 5.08204C5.48891 5.0662 5.49993 5.03221 5.52655 5.03203L5.87015 5.0294L5.97885 4.70343C5.98733 4.67812 6.0231 4.67812 6.03154 4.70343Z" fill="#F5F5F5"/>
<path d="M4.41508 5.17242L4.52379 5.49839L4.86738 5.50102C4.894 5.5012 4.90502 5.53519 4.8836 5.55103L4.60718 5.75513L4.71082 6.08273C4.71883 6.10814 4.68996 6.12914 4.6683 6.11362L4.38874 5.9138L4.10918 6.11362C4.08752 6.12909 4.05864 6.10809 4.06666 6.08273L4.1703 5.75513L3.89388 5.55103C3.87246 5.53519 3.88347 5.5012 3.9101 5.50102L4.25369 5.49839L4.36239 5.17242C4.37097 5.14716 4.40664 5.14716 4.41508 5.17242Z" fill="#F5F5F5"/>
<path d="M7.68706 5.17242L7.79576 5.49839L8.13935 5.50102C8.16598 5.5012 8.17699 5.53519 8.15557 5.55103L7.87915 5.75513L7.98279 6.08273C7.9908 6.10814 7.96193 6.12914 7.94027 6.11362L7.66071 5.9138L7.38115 6.11362C7.35949 6.12909 7.33062 6.10809 7.33863 6.08273L7.44227 5.75513L7.16585 5.55103C7.14443 5.53519 7.15545 5.5012 7.18207 5.50102L7.52566 5.49839L7.63437 5.17242C7.64295 5.14716 7.67862 5.14716 7.68706 5.17242Z" fill="#F5F5F5"/>
<path d="M8.77104 6.405L8.87974 6.73097L9.22334 6.73359C9.24996 6.73378 9.26098 6.76776 9.23956 6.78361L8.96313 6.9877L9.06677 7.31531C9.07479 7.34072 9.04591 7.36172 9.02426 7.3462L8.7447 7.14637L8.46513 7.3462C8.44348 7.36167 8.4146 7.34067 8.42262 7.31531L8.52626 6.9877L8.24984 6.78361C8.22841 6.76776 8.23943 6.73378 8.26606 6.73359L8.60965 6.73097L8.71835 6.405C8.72693 6.37973 8.7626 6.37973 8.77104 6.405Z" fill="#F5F5F5"/>
<path d="M3.24101 6.405L3.34971 6.73097L3.69331 6.73359C3.71993 6.73378 3.73095 6.76776 3.70953 6.78361L3.4331 6.9877L3.53674 7.31531C3.54476 7.34072 3.51588 7.36172 3.49423 7.3462L3.21467 7.14637L2.9351 7.3462C2.91345 7.36167 2.88457 7.34067 2.89259 7.31531L2.99623 6.9877L2.71981 6.78361C2.69839 6.76776 2.7094 6.73378 2.73603 6.73359L3.07962 6.73097L3.18832 6.405C3.19681 6.37973 3.23257 6.37973 3.24101 6.405Z" fill="#F5F5F5"/>
<path d="M9.08305 8.02176L9.19175 8.34773L9.53535 8.35035C9.56197 8.35054 9.57299 8.38452 9.55157 8.40037L9.27514 8.60446L9.37879 8.93207C9.3868 8.95748 9.35793 8.97848 9.33627 8.96296L9.05671 8.76313L8.77714 8.96296C8.75549 8.97843 8.72661 8.95743 8.73463 8.93207L8.83827 8.60446L8.56185 8.40037C8.54043 8.38452 8.55144 8.35054 8.57807 8.35035L8.92166 8.34773L9.03036 8.02176C9.03885 7.99649 9.07461 7.99649 9.08305 8.02176Z" fill="#F5F5F5"/>
<path d="M2.81962 8.02176L2.92833 8.34773L3.27192 8.35035C3.29855 8.35054 3.30956 8.38452 3.28814 8.40037L3.01172 8.60446L3.11536 8.93207C3.12337 8.95748 3.0945 8.97848 3.07284 8.96296L2.79328 8.76313L2.51372 8.96296C2.49206 8.97843 2.46319 8.95743 2.4712 8.93207L2.57484 8.60446L2.29842 8.40037C2.277 8.38452 2.28801 8.35054 2.31464 8.35035L2.65823 8.34773L2.76694 8.02176C2.77547 7.99649 2.81119 7.99649 2.81962 8.02176Z" fill="#F5F5F5"/>
</svg>
