<svg width="24" height="24" viewBox="0 0 24 24" fill="none" xmlns="http://www.w3.org/2000/svg">
<path d="M22.2026 19.8633H1.79742C0.804703 19.8633 0 19.0585 0 18.0659V5.93654C0 4.94386 0.804703 4.13911 1.79742 4.13911H22.2026C23.1952 4.13911 24 4.94382 24 5.93654V18.0659C24 19.0585 23.1953 19.8633 22.2026 19.8633Z" fill="#41479B"/>
<path d="M0.413813 11.9988H1.13259L4.96556 9.48755V11.9988H7.03453V9.48755L10.8675 11.9988H11.5863C11.8148 11.9988 12.0001 11.8135 12.0001 11.585V11.2568L8.71158 9.10229H12V7.03332H8.71148L12 4.8788V4.55058C12 4.33688 11.838 4.1611 11.6301 4.13916H10.8638L7.03444 6.64805V4.13911H4.96547V6.64801L1.26066 4.22068C0.827437 4.35605 0.465047 4.65127 0.241547 5.037L3.28852 7.03332H0V9.10229H3.28852L0 11.2568V11.585C0 11.8135 0.185297 11.9988 0.413813 11.9988Z" fill="#F5F5F5"/>
<path d="M12 7.44708H6.62067V4.13672H5.37933V7.44708H0V8.68847H5.37933V11.9988H6.62067V8.68847H12V7.44708Z" fill="#FF4B55"/>
<path d="M0.386963 4.82315L3.79178 7.03326H4.55181L0.686447 4.52419C0.57526 4.61179 0.474713 4.71211 0.386963 4.82315Z" fill="#FF4B55"/>
<path d="M7.79446 7.03331L11.937 4.34428C11.865 4.22245 11.738 4.13676 11.5861 4.13676H11.4966L7.03442 7.03331H7.79446Z" fill="#FF4B55"/>
<path d="M4.19418 9.10228L0.0595703 11.7861C0.130773 11.9109 0.259867 11.9988 0.413898 11.9988H0.491945L4.95426 9.10223H4.19418V9.10228Z" fill="#FF4B55"/>
<path d="M11.9934 11.6175L8.11843 9.10233H7.3584L11.7587 11.9587C11.8906 11.8974 11.981 11.7692 11.9934 11.6175Z" fill="#FF4B55"/>
<path d="M17.992 8.07155C17.992 8.07155 17.8189 7.37939 17.2998 7.03326C17.2998 7.03326 17.8189 7.89844 17.8189 8.59064L17.992 8.07155Z" fill="#FFE15A"/>
<path d="M17.1914 7.3199C17.1914 7.3199 17.5537 7.54157 17.7484 7.90392L17.5915 8.26626C17.5916 8.26617 17.4618 7.75251 17.1914 7.3199Z" fill="#FFE15A"/>
<path d="M16.7915 7.401C16.7915 7.401 17.4188 7.59567 17.7162 8.00128L17.5377 8.27166C17.5377 8.27161 17.2998 7.812 16.7915 7.401Z" fill="#FFE15A"/>
<path d="M16.6995 7.71465C16.6995 7.71465 17.3592 7.81735 17.6566 8.13104L17.5809 8.42846C17.5809 8.42846 17.2186 7.99585 16.6995 7.71465Z" fill="#FFE15A"/>
<path d="M16.7212 7.93097C16.7212 7.93097 17.3593 7.99589 17.6513 8.33109C17.9433 8.66639 17.5431 8.56359 17.5431 8.56359C17.5431 8.56359 17.2079 8.17969 16.7212 7.93097Z" fill="#FFE15A"/>
<path d="M17.9919 8.07155C17.9919 8.07155 18.165 7.37939 18.6841 7.03326C18.6841 7.03326 18.165 7.89844 18.165 8.59064L17.9919 8.07155Z" fill="#FFE15A"/>
<path d="M18.7921 7.3199C18.7921 7.3199 18.4297 7.54157 18.2351 7.90392L18.392 8.26626C18.392 8.26617 18.5217 7.75251 18.7921 7.3199Z" fill="#FFE15A"/>
<path d="M19.1922 7.401C19.1922 7.401 18.565 7.59567 18.2676 8.00128L18.446 8.27166C18.446 8.27161 18.6839 7.812 19.1922 7.401Z" fill="#FFE15A"/>
<path d="M19.2843 7.71465C19.2843 7.71465 18.6246 7.81735 18.3271 8.13104L18.4029 8.42846C18.4029 8.42846 18.7651 7.99585 19.2843 7.71465Z" fill="#FFE15A"/>
<path d="M19.2626 7.93097C19.2626 7.93097 18.6245 7.99589 18.3325 8.33109C18.0405 8.66639 18.4406 8.56359 18.4406 8.56359C18.4406 8.56359 18.7759 8.17969 19.2626 7.93097Z" fill="#FFE15A"/>
<path d="M17.9919 7.03331C17.9919 7.03331 17.8189 7.39739 17.9919 7.57945C18.165 7.39739 17.9919 7.03331 17.9919 7.03331Z" fill="#FFE15A"/>
<path d="M17.8195 7.12369C17.8195 7.12369 17.7963 7.52616 18.0251 7.62966C18.1169 7.39589 17.8195 7.12369 17.8195 7.12369Z" fill="#FFE15A"/>
<path d="M18.1644 7.12369C18.1644 7.12369 18.1876 7.52616 17.9588 7.62966C17.8669 7.39589 18.1644 7.12369 18.1644 7.12369Z" fill="#FFE15A"/>
<path d="M18.2209 7.35587C18.2209 7.35587 18.07 7.72969 17.8188 7.72543C17.8358 7.47483 18.2209 7.35587 18.2209 7.35587Z" fill="#FFE15A"/>
<path d="M17.7627 7.35587C17.7627 7.35587 17.9137 7.72969 18.1648 7.72543C18.1479 7.47483 17.7627 7.35587 17.7627 7.35587Z" fill="#FFE15A"/>
<path d="M17.9915 8.937C18.2784 8.937 18.5109 8.62711 18.5109 8.24485C18.5109 7.86258 18.2784 7.55269 17.9915 7.55269C17.7047 7.55269 17.4722 7.86258 17.4722 8.24485C17.4722 8.62711 17.7047 8.937 17.9915 8.937Z" fill="#FFD255"/>
<path d="M16.8059 8.95115L16.6869 8.76726C16.6869 8.76726 16.3408 8.85019 16.2579 8.59064L16.1245 8.57981C16.1245 8.57981 16.1425 8.40319 16.2975 8.37792C16.2975 8.37792 16.3912 8.26256 16.5571 8.28422C16.7229 8.30583 16.8095 8.44641 16.905 8.4825C17.0005 8.51855 17.0113 8.63751 17.0113 8.63751L17.7395 9.38372C17.7395 9.38372 17.5305 9.65053 17.343 9.73701C17.1555 9.8235 16.467 9.40181 16.8059 8.95115Z" fill="#73AF00"/>
<path d="M19.1709 9.08812C19.1709 9.08812 19.4737 9.29362 19.4845 9.86142H18.9816C18.9816 9.86142 18.987 9.47746 18.8896 9.27201L19.1709 9.08812Z" fill="#73AF00"/>
<path d="M19.106 9.10983C19.106 9.10983 19.4845 9.23424 19.717 8.93681L19.3222 8.88277L19.106 9.10983Z" fill="#73AF00"/>
<path d="M18.9923 8.69344L19.3767 8.823C19.4252 8.83936 19.4423 8.89936 19.4083 8.93761C19.2625 9.10191 18.8272 9.49557 18.1253 9.49557C17.2115 9.49557 16.9753 8.92055 16.9645 8.87729C16.9537 8.83407 16.905 8.4825 16.905 8.4825L17.2944 8.43929L18.9923 8.69344Z" fill="#73AF00"/>
<path d="M15.2551 13.9876H16.2616L15.7425 14.9932L15.2234 14.301L15.2551 13.9876Z" fill="#FF4B55"/>
<path d="M20.7289 13.9876H19.7224L20.2415 14.9932L20.7606 14.301L20.7289 13.9876Z" fill="#FF4B55"/>
<path d="M15.2508 15.6854C14.7543 15.6854 14.3743 15.4189 14.3547 15.405L14.7549 14.8401C14.7582 14.8422 15.0934 15.07 15.4353 14.9665C15.7812 14.862 16.0083 14.4538 16.138 14.1295L16.7807 14.3866C16.508 15.0683 16.1192 15.4872 15.6251 15.6321C15.496 15.67 15.37 15.6854 15.2508 15.6854Z" fill="#FFD25A"/>
<path d="M20.7332 15.6854C21.2297 15.6854 21.6097 15.4189 21.6293 15.405L21.2292 14.8401C21.2258 14.8422 20.8906 15.07 20.5487 14.9665C20.2028 14.862 19.9757 14.4538 19.846 14.1295L19.2034 14.3866C19.476 15.0683 19.8649 15.4872 20.3589 15.6321C20.4881 15.67 20.6141 15.6854 20.7332 15.6854Z" fill="#FFD25A"/>
<path d="M20.2415 12.0515H15.7424V10.3888C15.7424 10.1603 15.9277 9.97501 16.1562 9.97501H19.8277C20.0562 9.97501 20.2415 10.1603 20.2415 10.3888L20.2415 12.0515Z" fill="#FF4B55"/>
<path d="M16.97 11.1863L16.9159 10.8402C16.6618 10.8294 16.5158 10.532 16.5158 10.532L16.3103 10.6455C16.5265 11.1646 16.97 11.1863 16.97 11.1863Z" fill="#FFE15A"/>
<path d="M19.6792 10.8294C19.7549 10.7717 19.9207 10.7501 19.9207 10.7501C19.8017 10.6275 19.672 10.714 19.672 10.714C19.7801 10.6131 19.7189 10.4689 19.7189 10.4689C19.7189 10.5158 19.6432 10.5482 19.6432 10.5482C19.6468 10.4545 19.5495 10.3643 19.5495 10.3643L19.499 10.4473C19.4665 10.368 19.3512 10.3067 19.3512 10.3067L19.3043 10.5014C19.1962 10.4077 19.0051 10.4148 19.0051 10.4148L19.0411 10.505C18.9258 10.5085 18.6121 10.5735 18.4283 10.5951C18.2444 10.6167 18.0966 10.5662 18.0966 10.4834C18.0966 10.4139 18.2573 10.4053 18.3268 10.4043C18.376 10.4153 18.4378 10.433 18.5247 10.4591C18.6869 10.5077 18.7819 10.4372 18.7819 10.4372C18.7251 10.4156 18.7188 10.3904 18.7188 10.3904C18.8405 10.32 18.9546 10.3374 18.9546 10.3374C18.9141 10.2482 18.7383 10.2536 18.7383 10.2536C18.7843 10.2293 18.8194 10.1535 18.8194 10.1535C18.8086 10.1644 18.7087 10.1889 18.5723 10.2072C18.4696 10.221 18.3732 10.299 18.3333 10.3351C18.2251 10.3268 17.9423 10.3234 17.992 10.5195C18.0534 10.761 18.54 10.6745 18.8392 10.6276C19.1384 10.5808 19.2934 10.6205 19.3583 10.6601C19.4232 10.6997 19.3307 10.8341 19.0267 10.779C18.7639 10.7315 18.6192 10.7302 18.5398 10.7385C18.4517 10.7441 18.3766 10.7678 18.3237 10.779C18.2047 10.8043 17.7468 10.9665 17.6604 10.7322C17.5738 10.4978 17.152 11.1143 17.152 11.1143L17.185 11.1535L17.0727 11.1269C16.9213 11.3297 16.4671 11.3919 16.4671 11.3919C16.4671 11.3919 16.3995 11.2703 16.3427 11.254C16.2859 11.2378 16.2616 11.327 16.2616 11.327C16.2616 11.327 16.194 11.3296 16.1886 11.3919C16.1832 11.454 16.2373 11.4595 16.2373 11.4595C16.2373 11.4595 16.1724 11.5541 16.2805 11.5811C16.2805 11.5811 16.2724 11.7136 16.4319 11.6217C16.9058 11.6814 17.2514 11.4381 17.401 11.3053C17.4988 11.3116 17.6513 11.3085 17.7684 11.2477C17.9559 11.1503 18.1722 11.0277 18.2984 11.0746C18.2984 11.0746 18.3993 11.3847 18.0028 11.3918C18.0028 11.3918 17.9441 11.3177 17.8851 11.3177C17.8597 11.3177 17.8332 11.3483 17.8413 11.3757C17.8413 11.3757 17.7721 11.3716 17.7599 11.4124C17.7499 11.4456 17.7741 11.4836 17.825 11.4775C17.825 11.4775 17.7904 11.5284 17.825 11.5589C17.8596 11.5894 17.9024 11.5589 17.9024 11.5589C17.9024 11.5589 17.8841 11.622 17.9268 11.6281C17.9634 11.6333 18.0118 11.5736 18.0257 11.5554C18.0892 11.5653 18.5221 11.6153 18.6157 11.1611C18.6157 11.1611 18.832 11.2548 19.0447 11.2368C19.2573 11.2188 19.4665 11.2512 19.4484 11.3558C19.4249 11.4315 19.3784 11.4265 19.3784 11.4265C19.3275 11.4061 19.242 11.4082 19.2298 11.4815C19.2176 11.5548 19.3173 11.5568 19.3173 11.5568C19.3458 11.624 19.4272 11.5955 19.4272 11.5955C19.4984 11.6464 19.5453 11.5914 19.5453 11.5914C19.5758 11.6179 19.6074 11.6228 19.6369 11.5975C19.6654 11.5731 19.6494 11.4102 19.6467 11.3521C19.6422 11.2554 19.6286 11.0025 19.4881 10.9988C19.3475 10.9952 19.1672 11.0781 18.9185 10.869C18.9055 10.8581 18.8928 10.8511 18.88 10.8419C18.9977 10.8528 19.082 10.8847 19.1636 10.8978C19.2754 10.9159 19.6035 10.887 19.6792 10.8294Z" fill="#FFE15A"/>
<path d="M16.3102 10.6455C16.3102 10.6455 16.2412 10.6474 16.2075 10.6374C16.1496 10.6203 16.1426 10.5293 16.2048 10.513C16.2048 10.513 16.13 10.4621 16.1643 10.4048C16.1917 10.359 16.2617 10.3591 16.2861 10.3862C16.2861 10.3862 16.2632 10.3108 16.3292 10.2859C16.3817 10.266 16.4239 10.3264 16.4239 10.4048C16.4239 10.4048 16.5023 10.341 16.5428 10.3832C16.5711 10.4127 16.5629 10.4513 16.5158 10.5319C16.4676 10.6142 16.3102 10.6455 16.3102 10.6455Z" fill="#FFE15A"/>
<path d="M16.225 10.6122C16.225 10.6122 16.1884 10.6753 16.0825 10.6366C16.0825 10.6366 16.1741 10.5938 16.1863 10.5572L16.225 10.6122Z" fill="#41479B"/>
<path d="M16.1863 10.4269C16.1863 10.4269 16.1293 10.3903 16.0662 10.3923C16.0662 10.3923 16.1598 10.3231 16.2392 10.3842L16.1863 10.4269Z" fill="#41479B"/>
<path d="M16.3186 10.3292C16.3186 10.3292 16.3369 10.262 16.3003 10.2254C16.3003 10.2254 16.3756 10.2579 16.3858 10.319L16.3186 10.3292Z" fill="#41479B"/>
<path d="M16.4856 10.3984C16.4856 10.3984 16.5222 10.317 16.4897 10.2783C16.4897 10.2783 16.5874 10.3353 16.5467 10.429L16.4856 10.3984Z" fill="#41479B"/>
<path d="M16.2948 11.3032C16.2948 11.3032 16.2556 11.223 16.2051 11.2232C16.2051 11.2232 16.3114 11.1846 16.3574 11.2757L16.2948 11.3032Z" fill="#41479B"/>
<path d="M16.2092 11.4054C16.2092 11.4054 16.1393 11.3498 16.0938 11.3718C16.0938 11.3718 16.1731 11.2912 16.2538 11.3537L16.2092 11.4054Z" fill="#41479B"/>
<path d="M16.2582 11.5496C16.2582 11.5496 16.1689 11.5486 16.1465 11.5939C16.1465 11.5939 16.1596 11.4816 16.2617 11.4814L16.2582 11.5496Z" fill="#41479B"/>
<path d="M16.3398 11.6423C16.3398 11.6423 16.3032 11.7054 16.1973 11.6668C16.1973 11.6668 16.2889 11.624 16.3011 11.5874L16.3398 11.6423Z" fill="#41479B"/>
<path d="M17.949 11.6103C17.949 11.6103 17.919 11.6619 17.8323 11.6303C17.8323 11.6303 17.9027 11.6052 17.9127 11.5751L17.949 11.6103Z" fill="#41479B"/>
<path d="M17.0331 10.4941C17.0331 10.4941 16.8384 10.8257 16.8852 11.3052C16.8852 11.3052 17.4593 11.2214 17.708 10.6482C17.708 10.6482 17.7687 10.6237 17.7923 10.5648C17.8124 10.5148 17.8107 10.4323 17.7143 10.4328C17.7143 10.4328 17.7432 10.3751 17.7783 10.3616C17.7783 10.3616 17.7162 10.3372 17.6431 10.3535C17.6431 10.3535 17.6999 10.2967 17.6999 10.2237C17.6999 10.2237 17.6134 10.2805 17.5594 10.2858C17.5594 10.2858 17.5539 10.1966 17.5756 10.1858C17.5756 10.1858 17.462 10.1966 17.4052 10.2561C17.4052 10.2561 17.3674 10.2047 17.3701 10.1506C17.3701 10.1506 17.2646 10.1966 17.2241 10.2642C17.2241 10.2642 17.1916 10.229 17.1943 10.1939C17.1943 10.1939 17.1186 10.2858 17.1024 10.3344C17.1024 10.3344 17.0311 10.3148 16.9997 10.3723C16.977 10.4139 16.9822 10.4595 17.0331 10.4941Z" fill="#FFD255"/>
<path d="M17.8623 11.3688C17.8623 11.3688 17.8393 11.3254 17.77 11.3159C17.77 11.3159 17.8582 11.2752 17.9139 11.3335L17.8623 11.3688Z" fill="#41479B"/>
<path d="M19.2934 11.5337C19.2934 11.5337 19.2428 11.5497 19.2191 11.6212C19.2191 11.6212 19.1932 11.5196 19.266 11.472L19.2934 11.5337Z" fill="#41479B"/>
<path d="M19.3995 11.571C19.3995 11.571 19.3516 11.6176 19.3539 11.693C19.3539 11.693 19.2948 11.6064 19.3469 11.5368L19.3995 11.571Z" fill="#41479B"/>
<path d="M19.6285 11.567C19.6285 11.567 19.614 11.6163 19.6578 11.6689C19.6578 11.6689 19.5672 11.64 19.5654 11.5612L19.6285 11.567Z" fill="#41479B"/>
<path d="M19.521 11.5861C19.521 11.5861 19.4825 11.6227 19.4927 11.6974C19.4927 11.6974 19.4212 11.6346 19.4658 11.5599L19.521 11.5861Z" fill="#41479B"/>
<path d="M17.7884 11.4577C17.7884 11.4577 17.7421 11.4411 17.6846 11.4807C17.6846 11.4807 17.7224 11.3912 17.8028 11.3968L17.7884 11.4577Z" fill="#41479B"/>
<path d="M17.8517 11.5561C17.8517 11.5561 17.8042 11.5437 17.7502 11.5881C17.7502 11.5881 17.7585 11.5018 17.8392 11.5004L17.8517 11.5561Z" fill="#41479B"/>
<path d="M20.2415 12.3303C19.8662 12.3303 19.8662 12.6688 19.491 12.6688C19.1157 12.6688 19.1157 12.3303 18.7405 12.3303C18.3655 12.3303 18.3655 12.6688 17.9905 12.6688C17.6158 12.6688 17.6158 12.3303 17.2411 12.3303C16.8664 12.3303 16.8665 12.6688 16.4919 12.6688C16.1172 12.6688 16.1172 12.3303 15.7424 12.3303V11.7054C16.1172 11.7054 16.1171 12.0439 16.4919 12.0439C16.8665 12.0439 16.8665 11.7054 17.2411 11.7054C17.6158 11.7054 17.6158 12.0439 17.9905 12.0439C18.3655 12.0439 18.3655 11.7054 18.7405 11.7054C19.1157 11.7054 19.1157 12.0439 19.491 12.0439C19.8662 12.0439 19.8663 11.7054 20.2415 11.7054V12.3303Z" fill="#F5F5F5"/>
<path d="M19.4911 12.6689C19.1158 12.6689 19.1158 12.3304 18.7406 12.3304C18.3656 12.3304 18.3656 12.6689 17.9906 12.6689C17.6159 12.6689 17.6159 12.3304 17.2412 12.3304C16.8665 12.3304 16.8666 12.6689 16.492 12.6689C16.118 12.6689 16.117 12.332 15.7446 12.3306C15.7498 12.4802 15.767 12.7023 15.8108 12.9632C16.1152 13.0036 16.1429 13.2938 16.492 13.2938C16.8666 13.2938 16.8666 12.9552 17.2412 12.9552C17.6158 12.9552 17.6158 13.2938 17.9905 13.2938C18.3655 13.2938 18.3655 12.9552 18.7405 12.9552C19.1158 12.9552 19.1158 13.2938 19.491 13.2938C19.8406 13.2938 19.8684 13.0035 20.1732 12.9632C20.2171 12.7023 20.2342 12.4802 20.2394 12.3306C19.8666 12.332 19.8656 12.6689 19.4911 12.6689Z" fill="#41479B"/>
<path d="M19.491 13.2938C19.1157 13.2938 19.1157 12.9553 18.7405 12.9553C18.3655 12.9553 18.3655 13.2938 17.9905 13.2938C17.6158 13.2938 17.6158 12.9553 17.2411 12.9553C16.8665 12.9553 16.8665 13.2938 16.4919 13.2938C16.1429 13.2938 16.1152 13.0036 15.8108 12.9633C15.8456 13.1701 15.8974 13.4007 15.9739 13.6391C16.1426 13.736 16.216 13.9187 16.4919 13.9187C16.8666 13.9187 16.8666 13.5802 17.2411 13.5802C17.6158 13.5802 17.6158 13.9187 17.9905 13.9187C18.3655 13.9187 18.3655 13.5802 18.7405 13.5802C19.1158 13.5802 19.1158 13.9187 19.491 13.9187C19.7675 13.9187 19.8409 13.7356 20.0102 13.6388C20.0866 13.4005 20.1384 13.1699 20.1732 12.9633C19.8683 13.0035 19.8405 13.2938 19.491 13.2938Z" fill="#F5F5F5"/>
<path d="M19.491 13.9187C19.1157 13.9187 19.1157 13.5802 18.7405 13.5802C18.3655 13.5802 18.3655 13.9187 17.9905 13.9187C17.6158 13.9187 17.6158 13.5802 17.2411 13.5802C16.8665 13.5802 16.8665 13.9187 16.4919 13.9187C16.2161 13.9187 16.1426 13.7359 15.9739 13.6391C16.0691 13.9362 16.2028 14.2443 16.3895 14.5316C16.4209 14.5381 16.4534 14.5436 16.4919 14.5436C16.8666 14.5436 16.8666 14.2051 17.2411 14.2051C17.6158 14.2051 17.6158 14.5436 17.9905 14.5436C18.3655 14.5436 18.3655 14.2051 18.7405 14.2051C19.1158 14.2051 19.1158 14.5436 19.491 14.5436C19.53 14.5436 19.5629 14.5381 19.5946 14.5315C19.7813 14.2441 19.915 13.9359 20.0102 13.6388C19.841 13.7355 19.7675 13.9187 19.491 13.9187Z" fill="#41479B"/>
<path d="M19.4909 14.5436C19.1157 14.5436 19.1157 14.2051 18.7404 14.2051C18.3654 14.2051 18.3654 14.5436 17.9904 14.5436C17.6157 14.5436 17.6157 14.2051 17.2411 14.2051C16.8664 14.2051 16.8665 14.5436 16.4919 14.5436C16.4533 14.5436 16.4209 14.5381 16.3894 14.5316C16.508 14.7142 16.6484 14.8878 16.8138 15.045C16.9284 14.9482 17.0194 14.83 17.2411 14.83C17.6158 14.83 17.6158 15.1685 17.9905 15.1685C18.3655 15.1685 18.3655 14.83 18.7405 14.83C18.9631 14.83 19.0541 14.9487 19.1693 15.0457C19.335 14.8883 19.4757 14.7144 19.5945 14.5315C19.5628 14.5381 19.5299 14.5436 19.4909 14.5436Z" fill="#F5F5F5"/>
<path d="M19.1692 15.0457C19.0541 14.9487 18.963 14.83 18.7404 14.83C18.3654 14.83 18.3654 15.1685 17.9904 15.1685C17.6157 15.1685 17.6157 14.83 17.241 14.83C17.0193 14.83 16.9283 14.9482 16.8137 15.045C17.1151 15.3314 17.4994 15.5622 17.9918 15.6853C18.4839 15.5624 18.8679 15.3318 19.1692 15.0457Z" fill="#41479B"/>
<path d="M18.7405 11.7054C18.3655 11.7054 18.3655 12.0439 17.9905 12.0439C17.6158 12.0439 17.6158 11.7054 17.2411 11.7054C16.8664 11.7054 16.8665 12.0439 16.4919 12.0439C16.1172 12.0439 16.1172 11.7054 15.7424 11.7054C15.7424 11.9189 15.7424 12.1043 15.7424 12.2245C15.7424 12.2538 15.7431 12.2899 15.7445 12.3305C16.1169 12.332 16.1179 12.6688 16.4919 12.6688C16.8665 12.6688 16.8665 12.3303 17.2411 12.3303C17.6157 12.3303 17.6157 12.6688 17.9904 12.6688C18.3654 12.6688 18.3654 12.3303 18.7404 12.3303C19.1157 12.3303 19.1157 12.6688 19.4909 12.6688C19.8654 12.6688 19.8664 12.332 20.2394 12.3305C20.2408 12.2898 20.2414 12.2537 20.2414 12.2245C20.2414 12.1043 20.2414 11.9189 20.2414 11.7054C19.8662 11.7054 19.8662 12.0439 19.4909 12.0439C19.1157 12.0439 19.1157 11.7054 18.7405 11.7054Z" fill="#F5F5F5"/>
<path d="M20.0684 9.975C20.164 9.975 20.2414 10.0525 20.2414 10.148V11.7054V12.0515C20.2414 12.117 20.2414 12.177 20.2414 12.2245C20.2414 12.2538 20.2408 12.2899 20.2393 12.3305C20.2342 12.4801 20.217 12.7022 20.1732 12.9632C20.1384 13.1699 20.0865 13.4004 20.0101 13.6387C19.9149 13.9359 19.7812 14.2441 19.5945 14.5314C19.4757 14.7144 19.335 14.8883 19.1693 15.0456C18.868 15.3316 18.484 15.5622 17.992 15.6852C17.4995 15.5621 17.1153 15.3313 16.8139 15.0449C16.6485 14.8877 16.508 14.7142 16.3895 14.5315C16.2028 14.2441 16.0691 13.9361 15.9739 13.639C15.8974 13.4005 15.8455 13.1699 15.8108 12.9631C15.7669 12.7022 15.7498 12.4801 15.7446 12.3305C15.7432 12.2898 15.7425 12.2537 15.7425 12.2244C15.7425 12.1769 15.7425 12.1169 15.7425 12.0514V11.7053V10.148C15.7425 10.0524 15.82 9.97495 15.9155 9.97495H20.0685L20.0684 9.975ZM20.0684 9.8452H15.9154C15.7484 9.8452 15.6125 9.98104 15.6125 10.1481V11.7054V12.0515V12.2245C15.6125 12.255 15.6132 12.2926 15.6147 12.3351C15.6196 12.4763 15.6354 12.7036 15.6826 12.9847C15.7228 13.2241 15.7792 13.4575 15.8501 13.6787C15.9598 14.0208 16.1046 14.3316 16.2805 14.6023C16.41 14.8017 16.5593 14.9823 16.7243 15.1391C17.0684 15.4661 17.4843 15.6922 17.9603 15.8113L17.9918 15.8191L18.0233 15.8113C18.4989 15.6923 18.9145 15.4664 19.2586 15.1398C19.424 14.9827 19.5736 14.8019 19.7033 14.6022C19.8792 14.3314 20.024 14.0206 20.1336 13.6784C20.2045 13.4574 20.2608 13.224 20.3011 12.9847C20.3484 12.7036 20.3641 12.4762 20.369 12.3351C20.3705 12.2926 20.3712 12.255 20.3712 12.2245V12.0515V11.7054V10.1481C20.3712 9.98104 20.2354 9.8452 20.0684 9.8452Z" fill="#F5F5F5"/>
<path d="M17.9919 14.6389L17.5171 14.9693L17.6846 14.4156L17.2236 14.0661L17.8019 14.0544L17.9919 13.5079L18.1819 14.0544L18.7601 14.0661L18.2993 14.4156L18.4668 14.9693L17.9919 14.6389Z" fill="#73AF00"/>
<path d="M17.9918 13.6147L18.1567 14.0888L18.6586 14.0991L18.2586 14.4023L18.404 14.8829L17.9919 14.5962L17.5798 14.8829L17.7252 14.4023L17.3252 14.0991L17.8271 14.0888L17.9918 13.6147ZM17.9918 13.4012L17.9256 13.5917L17.7768 14.0198L17.3237 14.0291L17.1221 14.0332L17.2828 14.155L17.6439 14.4289L17.5127 14.8627L17.4543 15.0557L17.6198 14.9406L17.9918 14.6817L18.3638 14.9406L18.5294 15.0557L18.471 14.8627L18.3398 14.4289L18.7009 14.155L18.8616 14.0332L18.66 14.0291L18.2069 14.0198L18.058 13.5917L17.9918 13.4012Z" fill="#FFE15A"/>
<path d="M16.9492 13.2892L16.4743 13.6196L16.6419 13.0659L16.1809 12.7164L16.7592 12.7046L16.9492 12.1582L17.1391 12.7046L17.7175 12.7164L17.2565 13.0659L17.424 13.6196L16.9492 13.2892Z" fill="#73AF00"/>
<path d="M16.9491 12.265L17.114 12.7391L17.6159 12.7493L17.2159 13.0526L17.3613 13.5331L16.9492 13.2465L16.5371 13.5331L16.6825 13.0526L16.2825 12.7493L16.7844 12.7391L16.9491 12.265ZM16.9491 12.0515L16.8829 12.242L16.7341 12.6701L16.281 12.6794L16.0793 12.6834L16.24 12.8053L16.6012 13.0792L16.47 13.513L16.4115 13.706L16.5771 13.5908L16.9491 13.332L17.3211 13.5908L17.4867 13.706L17.4283 13.513L17.2971 13.0792L17.6582 12.8053L17.8189 12.6834L17.6173 12.6794L17.1641 12.6701L17.0153 12.242L16.9491 12.0515Z" fill="#FFE15A"/>
<path d="M19.0256 13.2892L18.5508 13.6196L18.7182 13.0659L18.2573 12.7164L18.8356 12.7046L19.0256 12.1582L19.2155 12.7046L19.7938 12.7164L19.3329 13.0659L19.5004 13.6196L19.0256 13.2892Z" fill="#73AF00"/>
<path d="M19.0255 12.265L19.1904 12.7391L19.6923 12.7493L19.2922 13.0526L19.4377 13.5331L19.0256 13.2465L18.6135 13.5331L18.7589 13.0526L18.3589 12.7493L18.8608 12.7391L19.0255 12.265ZM19.0255 12.0515L18.9593 12.242L18.8105 12.6701L18.3574 12.6794L18.1558 12.6834L18.3164 12.8053L18.6776 13.0792L18.5464 13.513L18.488 13.706L18.6535 13.5908L19.0255 13.332L19.3975 13.5908L19.5631 13.706L19.5047 13.513L19.3735 13.0792L19.7346 12.8053L19.8953 12.6834L19.6937 12.6794L19.2405 12.6701L19.0917 12.242L19.0255 12.0515Z" fill="#FFE15A"/>
<path d="M20.7289 13.9876C20.2995 15.081 19.236 15.8583 17.992 15.8583C16.748 15.8583 15.6845 15.081 15.2551 13.9876L14.6111 14.2396C15.1416 15.5902 16.4554 16.5505 17.992 16.5505C19.5286 16.5505 20.8424 15.5902 21.3729 14.2396L20.7289 13.9876Z" fill="#FFE15A"/>
<path d="M18.3382 9.975H17.8191L17.646 9.45586H18.1651L18.3382 9.975Z" fill="#F5F5F5"/>
<path d="M19.2031 9.975H18.8571L18.7417 9.62892H18.8997C19.012 9.62892 19.1117 9.70083 19.1473 9.80737L19.2031 9.975Z" fill="#F5F5F5"/>
<path d="M17.2998 9.975H16.9538L16.9143 9.85664C16.8769 9.74461 16.9603 9.62892 17.0784 9.62892H17.1844L17.2998 9.975Z" fill="#F5F5F5"/>
<path d="M18.8571 9.975H18.3381L18.165 9.4559H18.5594C18.6339 9.4559 18.7 9.50353 18.7236 9.57426L18.8571 9.975Z" fill="#41479B"/>
<path d="M17.8189 9.975H17.2998L17.1829 9.62437C17.1553 9.5415 17.217 9.4559 17.3044 9.4559H17.6459L17.8189 9.975Z" fill="#41479B"/>
<path d="M19.2627 8.77454C19.1275 8.96921 18.749 9.20171 18.1326 9.20171C17.6246 9.20171 17.298 8.89501 17.1889 8.77407C17.1623 8.74463 17.1484 8.70699 17.1484 8.66729V8.54926C17.1484 8.49844 17.1748 8.45223 17.2187 8.42673C17.3285 8.36279 17.5825 8.26079 18.0839 8.26079C18.7058 8.26083 19.2627 8.77454 19.2627 8.77454Z" fill="#509664"/>
</svg>
