<svg width="24" height="24" viewBox="0 0 24 24" fill="none" xmlns="http://www.w3.org/2000/svg">
<path d="M22.2024 4.13705H1.79494C0.834705 4.13705 0.0504845 4.88991 0 5.83754V18.1626C0.0488438 19.0794 0.784642 19.814 1.70208 19.8606H22.2952C23.2449 19.8123 24 19.0271 24 18.0654V5.93467C24 4.94185 23.1952 4.13705 22.2024 4.13705Z" fill="#73AF00"/>
<path d="M1.8877 4.13467L12.0014 10.7609L22.1151 4.13467H1.8877Z" fill="#FF4B55"/>
<path d="M22.1151 19.8653L12.0014 13.2391L1.8877 19.8653H22.1151Z" fill="#FF4B55"/>
<path d="M22.2024 4.13705H22.1114L14.4249 9.17294C13.7732 8.61334 12.9277 8.27303 12.0013 8.27303C11.0749 8.27303 10.2294 8.6133 9.5778 9.17294L1.89132 4.13705H1.7949C0.981332 4.13705 0.294377 4.67762 0.0727051 5.41909L8.44117 10.9018C8.33467 11.2483 8.27678 11.6162 8.27678 11.9976C8.27678 12.3791 8.33467 12.7469 8.44117 13.0934L0.0715332 18.5769C0.283502 19.292 0.927941 19.8212 1.70199 19.8606H1.88761L9.57776 14.8223C10.2294 15.3819 11.0749 15.7222 12.0013 15.7222C12.9277 15.7222 13.7732 15.3819 14.4248 14.8223L22.115 19.8606H22.2952C23.0703 19.8212 23.7155 19.2906 23.9265 18.5739L15.5615 13.0934C15.668 12.7469 15.7259 12.3791 15.7259 11.9976C15.7259 11.6162 15.668 11.2483 15.5615 10.9018L23.9254 5.42209C23.7047 4.67907 23.017 4.13705 22.2024 4.13705Z" fill="#F5F5F5"/>
<path d="M11.7333 10.8066L11.1721 10.8212L11.4651 10.3422L11.1721 9.86336L11.7333 9.87789L12.0014 9.38444L12.2696 9.87789L12.8307 9.86336L12.5377 10.3422L12.8307 10.8212L12.2696 10.8066L12.0014 11.3001L11.7333 10.8066Z" fill="#FF4B55"/>
<path d="M12.0014 9.51457L12.2332 9.9408L12.7182 9.92838L12.4649 10.3422L12.7182 10.7561L12.2332 10.7437L12.0014 11.1699L11.7697 10.7437L11.2847 10.7561L11.5379 10.3422L11.2847 9.92838L11.7697 9.9408L12.0014 9.51457ZM12.0014 9.25469L11.8924 9.45532L11.6969 9.81485L11.2879 9.80435L11.0596 9.79849L11.1788 9.9933L11.3924 10.3423L11.1788 10.6914L11.0596 10.8862L11.2879 10.8803L11.6969 10.8698L11.8924 11.2294L12.0014 11.43L12.1105 11.2294L12.3059 10.8698L12.715 10.8803L12.9433 10.8862L12.8241 10.6914L12.6104 10.3423L12.8241 9.9933L12.9433 9.79849L12.715 9.80435L12.3059 9.81485L12.1105 9.45532L12.0014 9.25469Z" fill="#73AF00"/>
<path d="M10.192 13.5496L9.63086 13.5641L9.92383 13.0852L9.63086 12.6063L10.192 12.6209L10.4601 12.1274L10.7283 12.6209L11.2894 12.6063L10.9964 13.0852L11.2894 13.5641L10.7283 13.5496L10.4601 14.043L10.192 13.5496Z" fill="#FF4B55"/>
<path d="M10.4602 12.2575L10.6919 12.6837L11.1769 12.6713L10.9237 13.0852L11.1769 13.499L10.6919 13.4866L10.4602 13.9129L10.2284 13.4866L9.7434 13.499L9.99667 13.0852L9.7434 12.6713L10.2284 12.6837L10.4602 12.2575ZM10.4602 11.9976L10.3511 12.1983L10.1557 12.5578L9.74659 12.5473L9.51831 12.5414L9.63751 12.7362L9.85117 13.0853L9.63751 13.4343L9.51831 13.6291L9.74659 13.6232L10.1557 13.6127L10.3511 13.9722L10.4602 14.1729L10.5693 13.9722L10.7647 13.6127L11.1738 13.6232L11.402 13.6291L11.2828 13.4343L11.0692 13.0852L11.2828 12.7362L11.402 12.5414L11.1738 12.5472L10.7647 12.5577L10.5693 12.1982L10.4602 11.9976Z" fill="#73AF00"/>
<path d="M13.2743 13.5496L12.7131 13.5641L13.0062 13.0852L12.7131 12.6063L13.2743 12.6209L13.5424 12.1274L13.8106 12.6209L14.3718 12.6063L14.0787 13.0852L14.3718 13.5641L13.8106 13.5496L13.5424 14.043L13.2743 13.5496Z" fill="#FF4B55"/>
<path d="M13.5424 12.2575L13.7742 12.6837L14.2592 12.6713L14.0059 13.0852L14.2592 13.499L13.7742 13.4866L13.5424 13.9129L13.3107 13.4866L12.8257 13.499L13.0789 13.0852L12.8257 12.6713L13.3107 12.6837L13.5424 12.2575ZM13.5424 11.9976L13.4334 12.1983L13.2379 12.5578L12.8289 12.5473L12.6006 12.5414L12.7198 12.7362L12.9334 13.0853L12.7198 13.4343L12.6006 13.6291L12.8289 13.6233L13.2379 13.6128L13.4334 13.9723L13.5424 14.1729L13.6515 13.9723L13.8469 13.6128L14.256 13.6233L14.4843 13.6291L14.3651 13.4343L14.1514 13.0853L14.3651 12.7362L14.4843 12.5414L14.256 12.5473L13.8469 12.5578L13.6515 12.1983L13.5424 11.9976Z" fill="#73AF00"/>
</svg>
