<svg width="24" height="24" viewBox="0 0 24 24" fill="none" xmlns="http://www.w3.org/2000/svg">
<path d="M0 18.0646C0 19.0573 0.804703 19.8621 1.79742 19.8621H22.2026C23.1952 19.8621 24 19.0574 24 18.0646V14.6207H0V18.0646Z" fill="#73AF00"/>
<path d="M22.2026 4.13794H1.79742C0.804703 4.13794 0 4.94264 0 5.93536V9.37931H24V5.93536C24 4.94264 23.1953 4.13794 22.2026 4.13794Z" fill="#464655"/>
<path d="M24 9.37922H0V14.6203H24V9.37922Z" fill="#C8414B"/>
<path d="M24 9.10359H0V9.93117H24V9.10359Z" fill="#F5F5F5"/>
<path d="M24 14.0691H0V14.8966H24V14.0691Z" fill="#F5F5F5"/>
<path d="M14.2157 8.51334C14.5489 7.8263 14.8965 6.23475 14.8965 6.23475C14.8965 6.23475 13.8619 7.49311 13.5286 8.18011C13.4588 8.32411 13.4884 8.48972 13.5893 8.60175L9.79395 16.4268L10.0516 16.5517L13.8469 8.72672C13.9975 8.73661 14.1459 8.65734 14.2157 8.51334Z" fill="#F5F5F5"/>
<path d="M9.78437 8.51334C9.45119 7.8263 9.10352 6.23475 9.10352 6.23475C9.10352 6.23475 10.1381 7.49311 10.4714 8.18011C10.5412 8.32411 10.5116 8.48972 10.4107 8.60175L14.2061 16.4268L13.9485 16.5517L10.1531 8.72672C10.0026 8.73661 9.85417 8.65734 9.78437 8.51334Z" fill="#F5F5F5"/>
<path d="M14.0691 12C14.0691 14.2853 12.381 16.1379 12.0001 16.1379C11.6192 16.1379 9.93115 14.2853 9.93115 12C9.93115 9.71465 11.6192 7.86206 12.0001 7.86206C12.381 7.86206 14.0691 9.71465 14.0691 12Z" fill="#C8414B"/>
<path d="M13.6553 13.9965C13.899 13.4044 14.0691 12.7243 14.0691 12C14.0691 11.2757 13.899 10.5957 13.6553 10.0035C13.4116 10.5956 13.2415 11.2757 13.2415 12C13.2415 12.7243 13.4116 13.4043 13.6553 13.9965Z" fill="#464655"/>
<path d="M10.345 10.0035C10.1013 10.5956 9.93115 11.2757 9.93115 12C9.93115 12.7242 10.1012 13.4043 10.345 13.9965C10.5887 13.4044 10.7588 12.7243 10.7588 12C10.7588 11.2757 10.5887 10.5957 10.345 10.0035Z" fill="#464655"/>
<path d="M12 12.6207C12.2285 12.6207 12.4138 12.3428 12.4138 12C12.4138 11.6572 12.2285 11.3793 12 11.3793C11.7715 11.3793 11.5862 11.6572 11.5862 12C11.5862 12.3428 11.7715 12.6207 12 12.6207Z" fill="#F5F5F5"/>
<path d="M12.062 7.86206V11.3793C12.1748 11.1444 12.3749 10.4505 12.3749 9.62067C12.3749 8.79084 12.1748 8.0969 12.062 7.86206Z" fill="#F5F5F5"/>
<path d="M11.9379 7.86206C11.8251 8.0969 11.625 8.79084 11.625 9.62067C11.625 10.4505 11.8251 11.1445 11.9379 11.3793V7.86206Z" fill="#F5F5F5"/>
<path d="M12.062 12.6207V16.1379C12.1748 15.903 12.3749 15.2091 12.3749 14.3793C12.3749 13.5495 12.1748 12.8555 12.062 12.6207Z" fill="#F5F5F5"/>
<path d="M11.9379 12.6207C11.8251 12.8555 11.625 13.5495 11.625 14.3793C11.625 15.2091 11.8251 15.9031 11.9379 16.1379V12.6207Z" fill="#F5F5F5"/>
</svg>
