<svg width="24" height="24" viewBox="0 0 24 24" fill="none" xmlns="http://www.w3.org/2000/svg">
<path d="M22.2134 4.13808H1.78664C0.798984 4.14384 0 4.94611 0 5.93517V18.0645C0 19.0572 0.804703 19.8619 1.79742 19.8619H22.2026C23.1952 19.8619 24 19.0572 24 18.0645V5.93517C24 4.94611 23.201 4.14384 22.2134 4.13808Z" fill="#82AFFF"/>
<path d="M0.413813 12.0001H11.5862C11.8148 12.0001 12 11.8148 12 11.5863V4.55184C12 4.32333 11.8148 4.13803 11.5862 4.13803H1.78664C0.798984 4.14384 0 4.94611 0 5.93517V11.5863C0 11.8148 0.185297 12.0001 0.413813 12.0001Z" fill="#41479B"/>
<path d="M0.413813 12.0001H1.13259L4.96556 9.48886V12.0001H7.03453V9.48886L10.8675 12.0001H11.5863C11.8148 12.0001 12.0001 11.8148 12.0001 11.5863V11.2581L8.71158 9.10359H12V7.03463H8.71148L12 4.88006V4.55184C12 4.32333 11.8147 4.13803 11.5862 4.13803H10.8674L7.03444 6.64931V4.13808H4.96547V6.64936L1.25798 4.2203C0.825281 4.35623 0.463406 4.65173 0.240469 5.03761L3.28852 7.03463H0V9.10359H3.28852L0 11.2581V11.5863C0 11.8148 0.185297 12.0001 0.413813 12.0001Z" fill="#F5F5F5"/>
<path d="M12 7.44839H6.62067V4.13808H5.37933V7.44839H0V8.68978H5.37933V12.0001H6.62067V8.68978H12V7.44839Z" fill="#FF4B55"/>
<path d="M0.385498 4.82362L3.79162 7.03462H4.55161L0.684561 4.52437C0.573514 4.61208 0.473107 4.71258 0.385498 4.82362Z" fill="#FF4B55"/>
<path d="M7.79446 7.03462L11.937 4.34559C11.865 4.22376 11.738 4.13808 11.5861 4.13808H11.4966L7.03442 7.03462H7.79446Z" fill="#FF4B55"/>
<path d="M4.19418 9.10359L0.0595703 11.7874C0.130773 11.9122 0.259867 12 0.413898 12H0.491945L4.95426 9.1035H4.19418V9.10359Z" fill="#FF4B55"/>
<path d="M11.9934 11.6188L8.11843 9.10359H7.3584L11.7587 11.9599C11.8906 11.8987 11.981 11.7705 11.9934 11.6188Z" fill="#FF4B55"/>
<path d="M10.2499 16.564L10.0284 17.2282L9.32825 17.2336C9.26112 17.2341 9.23328 17.3198 9.28728 17.3597L9.85048 17.7756L9.63931 18.4432C9.61901 18.5072 9.69195 18.5601 9.74661 18.5211L10.3162 18.114L10.8859 18.5211C10.9405 18.5602 11.0134 18.5072 10.9932 18.4432L10.782 17.7756L11.3452 17.3597C11.3992 17.3198 11.3713 17.2341 11.3042 17.2336L10.6041 17.2282L10.3826 16.564C10.3613 16.5003 10.2711 16.5003 10.2499 16.564Z" fill="#FFE15A"/>
<path d="M21.0343 11.3916L20.8128 12.0557L20.1127 12.0612C20.0455 12.0617 20.0177 12.1474 20.0717 12.1873L20.6349 12.6032L20.4237 13.2707C20.4034 13.3348 20.4764 13.3877 20.531 13.3487L21.1007 12.9416L21.6703 13.3487C21.7249 13.3877 21.7978 13.3348 21.7776 13.2707L21.5664 12.6032L22.1296 12.1873C22.1836 12.1474 22.1558 12.0617 22.0886 12.0612L21.3885 12.0557L21.167 11.3916C21.1457 11.3279 21.0556 11.3279 21.0343 11.3916Z" fill="#FFE15A"/>
<path d="M21.0343 5.80533L20.8128 6.4695L20.1127 6.47494C20.0455 6.47545 20.0177 6.56114 20.0717 6.60103L20.6349 7.01695L20.4237 7.6845C20.4034 7.74853 20.4764 7.80145 20.531 7.76245L21.1007 7.35535L21.6703 7.76245C21.7249 7.8015 21.7978 7.74853 21.7776 7.6845L21.5664 7.01695L22.1296 6.60103C22.1836 6.56114 22.1558 6.47545 22.0886 6.47494L21.3885 6.4695L21.167 5.80533C21.1457 5.74167 21.0556 5.74167 21.0343 5.80533Z" fill="#FFE15A"/>
<path d="M13.0223 13.0696L13.2409 13.7347L12.6824 14.1569C12.6289 14.1974 12.6576 14.2828 12.7248 14.2825L13.4249 14.2801L13.6539 14.9417C13.6759 15.0052 13.7659 15.0042 13.7865 14.9402L14.0005 14.2736L14.7005 14.2603C14.7676 14.259 14.7945 14.173 14.7401 14.1338L14.1722 13.7242L14.3759 13.0543C14.3954 12.9901 14.3219 12.9379 14.2678 12.9776L13.7028 13.3912L13.1287 12.9905C13.0735 12.9521 13.0013 13.0058 13.0223 13.0696Z" fill="#FFE15A"/>
<path d="M12.9705 15.9403L13.1892 16.6054L12.6307 17.0276C12.5771 17.0681 12.6059 17.1534 12.673 17.1532L13.3732 17.1508L13.6021 17.8124C13.6241 17.8759 13.7142 17.8748 13.7347 17.8109L13.9487 17.1443L14.6488 17.1309C14.7159 17.1296 14.7428 17.0437 14.6883 17.0044L14.1204 16.5949L14.3241 15.925C14.3437 15.8608 14.2702 15.8086 14.216 15.8483L13.651 16.2618L13.0769 15.8611C13.0218 15.8228 12.9495 15.8765 12.9705 15.9403Z" fill="#FFE15A"/>
<path d="M15.9964 15.2161L16.2151 15.8813L15.6565 16.3035C15.603 16.344 15.6317 16.4293 15.6989 16.4291L16.399 16.4266L16.628 17.0883C16.65 17.1518 16.7401 17.1507 16.7606 17.0868L16.9746 16.4201L17.6746 16.4068C17.7418 16.4055 17.7686 16.3195 17.7142 16.2803L17.1463 15.8708L17.35 15.2009C17.3695 15.1366 17.296 15.0845 17.2419 15.1242L16.6769 15.5377L16.1028 15.137C16.0477 15.0986 15.9754 15.1523 15.9964 15.2161Z" fill="#FFE15A"/>
<path d="M15.9449 8.95753L16.1635 9.62264L15.605 10.0448C15.5515 10.0853 15.5802 10.1707 15.6474 10.1705L16.3475 10.168L16.5765 10.8297C16.5985 10.8931 16.6885 10.8921 16.7091 10.8282L16.9231 10.1615L17.6231 10.1482C17.6903 10.1469 17.7171 10.0609 17.6627 10.0217L17.0948 9.61214L17.2985 8.94225C17.318 8.87803 17.2445 8.82586 17.1904 8.86556L16.6254 9.27909L16.0513 8.87841C15.9961 8.84002 15.9239 8.89374 15.9449 8.95753Z" fill="#FFE15A"/>
<path d="M18.5052 8.10408L18.7238 8.76919L18.1653 9.19139C18.1118 9.23189 18.1405 9.31725 18.2077 9.31702L18.9078 9.31458L19.1368 9.97622C19.1588 10.0397 19.2488 10.0387 19.2694 9.97472L19.4834 9.30806L20.1834 9.29475C20.2506 9.29344 20.2774 9.20747 20.223 9.16823L19.6551 8.75869L19.8588 8.0888C19.8783 8.02458 19.8048 7.97241 19.7507 8.01211L19.1857 8.42564L18.6116 8.02495C18.5565 7.98656 18.4842 8.04028 18.5052 8.10408Z" fill="#FFE15A"/>
</svg>
