<svg width="24" height="24" viewBox="0 0 24 24" fill="none" xmlns="http://www.w3.org/2000/svg">
<path d="M0 18.0646C0 19.0573 0.804703 19.8621 1.79742 19.8621H22.2026C23.1952 19.8621 24 19.0574 24 18.0646V14.6207H0V18.0646Z" fill="#F5F5F5"/>
<path d="M22.2026 4.13794H1.79742C0.804703 4.13794 0 4.94264 0 5.93536V9.37931H24V5.93536C24 4.94264 23.1953 4.13794 22.2026 4.13794Z" fill="#FF4B55"/>
<path d="M24 9.37922H0V14.6203H24V9.37922Z" fill="#41479B"/>
<path d="M8.11029 9.37828H5.13096L5.00684 8.63344H8.23441L8.11029 9.37828Z" fill="#FFE15A"/>
<path d="M5.1001 9.19205L5.13113 9.37828H8.11046L8.14149 9.19205H5.1001Z" fill="#FFD350"/>
<path d="M6.68272 6.89531H6.55859V7.39186H6.68272V6.89531Z" fill="#FFE15A"/>
<path d="M6.80675 7.01953H6.43433V7.14366H6.80675V7.01953Z" fill="#FFE15A"/>
<path d="M8.11998 8.88169C8.10591 8.88169 8.09166 8.87925 8.07765 8.87428C8.0132 8.85089 7.97987 8.77973 8.00326 8.71523L8.26623 7.98956C8.27926 7.95356 8.27616 7.91395 8.25779 7.88086C8.24799 7.86328 8.22521 7.83234 8.18166 7.82301C7.86109 7.75491 7.23966 7.64034 6.68054 7.64034H6.56063C6.00155 7.64034 5.38013 7.75491 5.05941 7.82316C5.01601 7.83234 4.99313 7.86328 4.98343 7.88086C4.96505 7.91395 4.96196 7.95356 4.97504 7.98956L5.23796 8.71523C5.26135 8.77973 5.22802 8.85089 5.16357 8.87428C5.09916 8.8973 5.02787 8.8642 5.00457 8.79984L4.7416 8.07417C4.7041 7.97062 4.71305 7.8563 4.76626 7.76039C4.81768 7.66767 4.90562 7.60195 5.00762 7.58025C5.33795 7.50994 5.97877 7.39195 6.56063 7.39195H6.68054C7.2624 7.39195 7.90323 7.50994 8.23341 7.58006C8.33555 7.6019 8.42349 7.66758 8.47491 7.76034C8.52812 7.85625 8.53707 7.97053 8.49962 8.07412L8.2366 8.7998C8.21841 8.85033 8.1707 8.88169 8.11998 8.88169Z" fill="#FFE15A"/>
<path d="M6.62095 8.77308C6.55242 8.77308 6.49683 8.71758 6.49683 8.64895V7.64035C6.49683 7.57172 6.55242 7.51622 6.62095 7.51622C6.68948 7.51622 6.74508 7.57172 6.74508 7.64035V8.64895C6.74512 8.71753 6.68953 8.77308 6.62095 8.77308Z" fill="#FFE15A"/>
<path d="M7.47934 8.88169C7.47095 8.88169 7.46246 8.88084 7.45398 8.87916C7.3868 8.86519 7.34368 8.79952 7.35765 8.73234L7.50821 8.00667C7.52776 7.91213 7.49715 7.8293 7.47971 7.81477C7.30759 7.75163 6.96226 7.6403 6.65499 7.6403H6.58632C6.2791 7.6403 5.93377 7.75163 5.75523 7.818C5.74421 7.8293 5.71355 7.91208 5.7331 8.00663L5.88366 8.7323C5.89763 8.79942 5.85451 8.86519 5.78734 8.87911C5.72012 8.89209 5.6544 8.84991 5.64062 8.78274L5.49005 8.05706C5.45255 7.87617 5.51012 7.64452 5.66855 7.58541C5.90588 7.49719 6.25754 7.39205 6.58627 7.39205H6.65494C6.98373 7.39205 7.33543 7.49714 7.57257 7.58527C7.73115 7.64456 7.78871 7.87622 7.75121 8.05711L7.60065 8.78278C7.58855 8.84147 7.5369 8.88169 7.47934 8.88169Z" fill="#FFE15A"/>
<path d="M5.03787 8.81963H8.20338L8.23441 8.63344H5.00684L5.03787 8.81963Z" fill="#FFD350"/>
<path d="M4.26206 9.37828C4.19349 9.37828 4.13794 9.43387 4.13794 9.50241V13.8377C4.13794 15.2142 5.24949 16.33 6.62072 16.33C7.99196 16.33 9.1035 15.2142 9.1035 13.8377V9.50241C9.1035 9.43383 9.04795 9.37828 8.97938 9.37828H4.26206Z" fill="#FF4B55"/>
<path d="M6.86888 13.4748L7.11718 12.8542L6.62063 12.9783L6.12408 12.8542L6.37238 13.4748L5.75171 15.5852C5.75171 15.5852 6.12413 15.8335 6.62068 15.8335C7.11722 15.8335 7.48965 15.5852 7.48965 15.5852L6.86888 13.4748Z" fill="#F5F5F5"/>
<path d="M5.72154 13.9751L5.50249 14.0299L5.98432 13.1626L5.76729 13.0421L5.18206 14.0955H4.63442V14.3438H4.90113L4.55688 14.6192L4.71195 14.8132L5.0044 14.5792L4.88904 14.9251L5.12459 15.0037L5.35132 14.3235L5.78178 14.2159L5.72154 13.9751Z" fill="#FFE15A"/>
<path d="M5.75175 10.6196L5.18507 10.3363C5.08101 10.2842 5.02701 10.1669 5.05523 10.054L5.08729 9.92578C5.10951 9.83681 5.04225 9.75066 4.95051 9.75066C4.90767 9.75066 4.86717 9.77011 4.84045 9.80358C4.5464 10.1711 4.38623 10.6278 4.38623 11.0985V13.7231C4.38623 13.7231 4.90462 13.6194 5.37286 12.9383C5.45882 12.8132 5.60039 12.7392 5.75123 12.7315L5.50345 13.4748L6.00004 13.599L6.43453 13.0819L5.75175 10.6196Z" fill="#F5F5F5"/>
<path d="M7.51986 13.9751L7.73891 14.0299L7.25708 13.1626L7.47411 13.0421L8.05925 14.0955H8.60699V14.3438H8.34022L8.68452 14.6192L8.52946 14.8132L8.237 14.5792L8.35236 14.9251L8.11677 15.0037L7.89008 14.3235L7.45963 14.2159L7.51986 13.9751Z" fill="#FFE15A"/>
<path d="M7.48962 10.6196L8.05629 10.3363C8.16035 10.2842 8.21435 10.1669 8.18613 10.054L8.15407 9.92578C8.13185 9.83681 8.19912 9.75066 8.29085 9.75066C8.3337 9.75066 8.3742 9.77011 8.40092 9.80358C8.69496 10.1711 8.85513 10.6278 8.85513 11.0985V13.7231C8.85513 13.7231 8.33674 13.6194 7.86851 12.9383C7.78254 12.8132 7.64102 12.7392 7.49013 12.7315L7.73792 13.4748L7.24137 13.5989L6.80688 13.0819L7.48962 10.6196Z" fill="#F5F5F5"/>
<path d="M5.87585 9.75066H5.25513L5.44136 9.99895L5.87585 10.1231L5.62755 10.2472H5.99997L5.87585 9.75066Z" fill="#FFE15A"/>
<path d="M7.36558 9.75066H7.98625L7.80006 9.99895L7.36558 10.1231L7.61388 10.2472H7.24146L7.36558 9.75066Z" fill="#FFE15A"/>
<path d="M7.45282 9.65334L6.86885 9.7507L6.62055 10.2472L6.37226 9.7507L5.78829 9.65334C5.72135 9.64219 5.66998 9.7117 5.70035 9.77241L5.99988 10.3714L5.75159 10.6197H6.62055H7.48952L7.24123 10.3714L7.54071 9.77241C7.57109 9.71166 7.51976 9.64214 7.45282 9.65334Z" fill="#F5F5F5"/>
<path d="M6.62051 8.874C6.72334 8.874 6.8067 8.79064 6.8067 8.68781C6.8067 8.58498 6.72334 8.50163 6.62051 8.50163C6.51769 8.50163 6.43433 8.58498 6.43433 8.68781C6.43433 8.79064 6.51769 8.874 6.62051 8.874Z" fill="#FFBE50"/>
<path d="M6.61833 9.23564C6.6996 9.23564 6.76547 9.18932 6.76547 9.13219C6.76547 9.07505 6.6996 9.02873 6.61833 9.02873C6.53707 9.02873 6.47119 9.07505 6.47119 9.13219C6.47119 9.18932 6.53707 9.23564 6.61833 9.23564Z" fill="#41479B"/>
<path d="M5.88371 9.23564C5.96498 9.23564 6.03085 9.18932 6.03085 9.13219C6.03085 9.07505 5.96498 9.02873 5.88371 9.02873C5.80245 9.02873 5.73657 9.07505 5.73657 9.13219C5.73657 9.18932 5.80245 9.23564 5.88371 9.23564Z" fill="#FF4B55"/>
<path d="M5.14934 9.23564C5.2306 9.23564 5.29648 9.18932 5.29648 9.13219C5.29648 9.07505 5.2306 9.02873 5.14934 9.02873C5.06807 9.02873 5.0022 9.07505 5.0022 9.13219C5.0022 9.18932 5.06807 9.23564 5.14934 9.23564Z" fill="#41479B"/>
<path d="M8.08708 9.23564C8.16835 9.23564 8.23422 9.18932 8.23422 9.13219C8.23422 9.07505 8.16835 9.02873 8.08708 9.02873C8.00582 9.02873 7.93994 9.07505 7.93994 9.13219C7.93994 9.18932 8.00582 9.23564 8.08708 9.23564Z" fill="#41479B"/>
<path d="M7.35246 9.23564C7.43373 9.23564 7.4996 9.18932 7.4996 9.13219C7.4996 9.07505 7.43373 9.02873 7.35246 9.02873C7.2712 9.02873 7.20532 9.07505 7.20532 9.13219C7.20532 9.18932 7.2712 9.23564 7.35246 9.23564Z" fill="#FF4B55"/>
<path d="M7.48355 8.874C7.58638 8.874 7.66974 8.79064 7.66974 8.68781C7.66974 8.58498 7.58638 8.50163 7.48355 8.50163C7.38072 8.50163 7.29736 8.58498 7.29736 8.68781C7.29736 8.79064 7.38072 8.874 7.48355 8.874Z" fill="#FFBE50"/>
<path d="M8.16421 8.874C8.26704 8.874 8.3504 8.79064 8.3504 8.68781C8.3504 8.58498 8.26704 8.50163 8.16421 8.50163C8.06139 8.50163 7.97803 8.58498 7.97803 8.68781C7.97803 8.79064 8.06139 8.874 8.16421 8.874Z" fill="#FFBE50"/>
<path d="M5.75919 8.874C5.86201 8.874 5.94537 8.79064 5.94537 8.68781C5.94537 8.58498 5.86201 8.50163 5.75919 8.50163C5.65636 8.50163 5.573 8.58498 5.573 8.68781C5.573 8.79064 5.65636 8.874 5.75919 8.874Z" fill="#FFBE50"/>
<path d="M5.07803 8.874C5.18086 8.874 5.26422 8.79064 5.26422 8.68781C5.26422 8.58498 5.18086 8.50163 5.07803 8.50163C4.9752 8.50163 4.89185 8.58498 4.89185 8.68781C4.89185 8.79064 4.9752 8.874 5.07803 8.874Z" fill="#FFBE50"/>
<path d="M6.83445 7.64034C6.85578 7.60373 6.86891 7.56169 6.86891 7.51622C6.86891 7.37911 6.75777 7.26792 6.62061 7.26792C6.48345 7.26792 6.37231 7.37906 6.37231 7.51622C6.37231 7.56169 6.38539 7.60373 6.40677 7.64034H6.83445Z" fill="#41479B"/>
<path d="M6.62073 13.1645C6.10731 13.1645 5.6897 12.7469 5.6897 12.2334V10.5576H7.55176V12.2334C7.55176 12.7469 7.13415 13.1645 6.62073 13.1645Z" fill="#FF4B55"/>
<path d="M7.4897 10.6196V12.2334C7.4897 12.7133 7.10064 13.1024 6.62073 13.1024C6.14083 13.1024 5.75176 12.7133 5.75176 12.2334V10.6196H7.4897ZM7.61387 10.4955H7.48975H5.75181H5.62769V10.6196V12.2334C5.62769 12.781 6.07319 13.2265 6.62078 13.2265C7.16837 13.2265 7.61387 12.781 7.61387 12.2334V10.6196V10.4955Z" fill="#A54B50"/>
<path d="M6.43437 13.0819C6.49442 13.095 6.55658 13.1024 6.62056 13.1024C6.68454 13.1024 6.7467 13.095 6.80675 13.0819V10.6196H6.43433C6.43437 10.6196 6.43437 13.0819 6.43437 13.0819Z" fill="#F5F5F5"/>
<path d="M7.48959 11.6437H5.75146V12.0162H7.48959V11.6437Z" fill="#F5F5F5"/>
</svg>
