<svg width="24" height="24" viewBox="0 0 24 24" fill="none" xmlns="http://www.w3.org/2000/svg">
<path d="M22.2134 4.13808H1.78664C0.798984 4.14389 0 4.94611 0 5.93517V7.28283H24V5.93517C24 4.94611 23.201 4.14389 22.2134 4.13808Z" fill="#73AF00"/>
<path d="M24 10.4278H0V13.5727H24V10.4278Z" fill="#73AF00"/>
<path d="M24 7.28297H0V10.4278H24V7.28297Z" fill="#FFE15A"/>
<path d="M0 18.0645C0 19.0572 0.804703 19.8619 1.79742 19.8619H22.2026C23.1952 19.8619 24 19.0572 24 18.0645V16.7174H0V18.0645Z" fill="#73AF00"/>
<path d="M24 13.5727H0V16.7175H24V13.5727Z" fill="#FFE15A"/>
<path d="M0.413812 13.5726H9.10345C9.33197 13.5726 9.51727 13.3873 9.51727 13.1588V4.55189C9.51727 4.32338 9.33197 4.13808 9.10345 4.13808H1.78664C0.798984 4.14389 0 4.94611 0 5.93517V13.1587C0 13.3873 0.185297 13.5726 0.413812 13.5726Z" fill="#FF4B55"/>
<path d="M4.65635 6.35808L4.05832 8.15114L2.16822 8.16577C2.06463 8.16661 2.02165 8.2988 2.10504 8.36034L3.62557 9.48319L3.05543 11.2853C3.02421 11.3842 3.13671 11.4659 3.22094 11.4056L4.75872 10.3065L6.29651 11.4057C6.38083 11.466 6.49333 11.3842 6.46202 11.2854L5.89188 9.48328L7.41241 8.36044C7.4958 8.29889 7.45282 8.16661 7.34923 8.16586L5.45913 8.15123L4.86096 6.35817C4.82815 6.25983 4.68912 6.25983 4.65635 6.35808Z" fill="#F5F5F5"/>
</svg>
