<svg width="24" height="24" viewBox="0 0 24 24" fill="none" xmlns="http://www.w3.org/2000/svg">
<path d="M23.991 5.7945C23.922 4.8675 23.142 4.1385 22.2 4.1385H1.794C0.852 4.1385 0.078 4.8645 0.003 5.7945H0V18.2085H0.006C0.075 19.1355 0.852 19.8615 1.794 19.8615H22.2C23.148 19.8615 23.919 19.1295 23.991 18.2055H24V5.7945H23.991Z" fill="#FF4B55"/>
<path d="M24 5.79469H0V18.2086H24V5.79469Z" fill="#41479B"/>
<path d="M12.0001 17.3836C14.9726 17.3836 17.3823 14.9739 17.3823 12.0014C17.3823 9.02891 14.9726 6.61922 12.0001 6.61922C9.02761 6.61922 6.61792 9.02891 6.61792 12.0014C6.61792 14.9739 9.02761 17.3836 12.0001 17.3836Z" fill="#F5F5F5"/>
<path d="M10.968 14.8275L10.137 14.9685C10.035 14.9865 9.93604 14.9085 9.93604 14.8005V14.4855H10.968V14.8275Z" fill="#82AFFF"/>
<path d="M13.0261 14.8275L13.8571 14.9685C13.9591 14.9865 14.0581 14.9085 14.0581 14.8005V14.4855H13.0261V14.8275Z" fill="#82AFFF"/>
<path d="M11.8262 9.2445H11.7572C11.6732 9.2445 11.5922 9.1965 11.5562 9.1185L11.4302 8.8665L11.5472 8.8095L11.6732 9.0615C11.6912 9.0945 11.7242 9.1125 11.7632 9.1125H11.8322V9.2445H11.8262Z" fill="#965032"/>
<path d="M10.3845 9.03879L10.5964 9.46274L10.7091 9.40639L10.4972 8.98245L10.3845 9.03879Z" fill="#965032"/>
<path d="M12.2341 11.2275L11.8831 10.8765C11.8081 10.8015 11.7601 10.6935 11.7601 10.5855V10.4685C11.7601 10.4265 11.7511 10.3785 11.7331 10.3425L11.6431 10.1685C11.6251 10.1295 11.5861 10.1085 11.5501 10.1085H11.2441C11.1541 10.1085 11.0761 10.0575 11.0341 9.9765L10.9111 9.7275L11.0281 9.6705L11.1511 9.9195C11.1691 9.9585 11.2081 9.9795 11.2441 9.9795H11.5501C11.6401 9.9795 11.7181 10.0305 11.7601 10.1115L11.8501 10.2855C11.8771 10.3425 11.8921 10.4085 11.8921 10.4685V10.5855C11.8921 10.6605 11.9191 10.7295 11.9761 10.7835L12.1081 10.9155V10.3155C12.1081 10.1505 12.0511 9.9915 11.9491 9.8655C11.8261 9.7155 11.7601 9.5265 11.7601 9.3345V8.8365H11.8861V9.3345C11.8861 9.4995 11.9431 9.6585 12.0451 9.7845C12.1681 9.9345 12.2341 10.1235 12.2341 10.3155V11.2275Z" fill="#965032"/>
<path d="M11.9252 10.8945H11.7332C11.6162 10.8945 11.5082 10.8195 11.4662 10.7115L11.4182 10.5795L11.5412 10.5315L11.5892 10.6635C11.6132 10.7235 11.6702 10.7625 11.7332 10.7625H11.9252V10.8945Z" fill="#965032"/>
<path d="M11.7336 10.2853L11.8489 10.3362L12.5727 8.69471L12.4574 8.64387L11.7336 10.2853Z" fill="#965032"/>
<path d="M12.75 10.1085H12.126V9.9765H12.618V9.3525H12.75V10.1085Z" fill="#965032"/>
<path d="M11.5679 10.7265H11.0519C10.9109 10.7265 10.7939 10.6095 10.7939 10.4685C10.7939 10.3275 10.9109 10.2105 11.0519 10.2105H11.5679C11.7089 10.2105 11.8259 10.3275 11.8259 10.4685C11.8259 10.6155 11.7089 10.7265 11.5679 10.7265Z" fill="#73AF00"/>
<path d="M12.7681 10.7265H12.2521C12.1111 10.7265 11.9941 10.6095 11.9941 10.4685C11.9941 10.3275 12.1111 10.2105 12.2521 10.2105H12.7681C12.9091 10.2105 13.0261 10.3275 13.0261 10.4685C13.0261 10.6155 12.9151 10.7265 12.7681 10.7265Z" fill="#73AF00"/>
<path d="M13.284 10.2105H12.6C12.459 10.2105 12.342 10.0935 12.342 9.9525C12.342 9.8115 12.459 9.6945 12.6 9.6945H13.284C13.425 9.6945 13.542 9.8115 13.542 9.9525C13.542 10.0995 13.425 10.2105 13.284 10.2105Z" fill="#73AF00"/>
<path d="M13.458 9.5265H12.258C12.117 9.5265 12 9.4095 12 9.2685C12 9.1275 12.117 9.0105 12.258 9.0105H13.458C13.599 9.0105 13.716 9.1275 13.716 9.2685C13.716 9.4095 13.599 9.5265 13.458 9.5265Z" fill="#73AF00"/>
<path d="M12.768 8.8425H12.426C12.285 8.8425 12.168 8.7255 12.168 8.5845C12.168 8.4435 12.285 8.3265 12.426 8.3265H12.768C12.909 8.3265 13.026 8.4435 13.026 8.5845C13.026 8.7255 12.915 8.8425 12.768 8.8425Z" fill="#73AF00"/>
<path d="M10.5389 9.1845H10.3649C10.2239 9.1845 10.1069 9.0675 10.1069 8.9265C10.1069 8.7855 10.2239 8.6685 10.3649 8.6685H10.5389C10.6799 8.6685 10.7969 8.7855 10.7969 8.9265C10.7939 9.0675 10.6829 9.1845 10.5389 9.1845Z" fill="#73AF00"/>
<path d="M11.742 9.0105H11.226C11.085 9.0105 10.968 8.8935 10.968 8.7525C10.968 8.6115 11.085 8.4945 11.226 8.4945H11.742C11.883 8.4945 12 8.6115 12 8.7525C11.994 8.8995 11.883 9.0105 11.742 9.0105Z" fill="#73AF00"/>
<path d="M11.5681 9.8685H10.5361C10.3951 9.8685 10.2781 9.7515 10.2781 9.6105C10.2781 9.4695 10.3951 9.3525 10.5361 9.3525H11.5681C11.7091 9.3525 11.8261 9.4695 11.8261 9.6105C11.8261 9.7575 11.7091 9.8685 11.5681 9.8685Z" fill="#73AF00"/>
<path d="M14.5741 13.4595H9.42305C9.23405 13.4595 9.08105 13.6155 9.08105 13.8015C9.08105 13.9875 9.23705 14.1435 9.42305 14.1435H10.7971C10.7971 14.3325 10.9531 14.4855 11.1391 14.4855H12.8551C13.0441 14.4855 13.1971 14.3295 13.1971 14.1435H14.5711C14.7601 14.1435 14.9131 13.9875 14.9131 13.8015C14.9161 13.6095 14.7601 13.4595 14.5741 13.4595Z" fill="#73AF00"/>
<path d="M15.417 10.4115C15.402 10.3875 15.336 10.4175 15.294 10.4025C14.775 10.2105 14.079 9.8595 13.626 9.6195L13.536 9.4755L12.675 9.0585C12.618 9.0315 12.552 9.0525 12.525 9.1065L12.483 9.1815C12.45 9.2385 12.474 9.3135 12.531 9.3405L13.35 9.7665L13.584 9.7485L14.484 10.2135C14.484 10.2135 15.099 10.5285 15.132 10.5525C15.165 10.5765 15.183 10.7025 15.246 10.6935C15.285 10.6785 15.474 10.5255 15.417 10.4115Z" fill="#BE7855"/>
<path d="M9.73188 13.7115C9.73188 13.7115 9.78888 13.9635 9.73788 13.9935C9.68688 14.0205 9.39888 14.0205 9.40488 13.9605C9.41388 13.9005 9.45288 13.6845 9.45288 13.6845L9.73188 13.7115Z" fill="#FFBE3C"/>
<path d="M10.2058 13.5765C10.2058 13.5765 10.1578 13.7655 10.2538 13.7745C10.3498 13.7835 10.8718 13.7805 10.8868 13.7655C10.9018 13.7505 10.9198 13.7145 10.9198 13.7145L10.4308 13.5795H10.2058V13.5765Z" fill="#FFBE3C"/>
<path d="M9.66893 11.2155C9.66893 11.2155 9.54293 11.5215 9.49493 12.5715C9.47993 12.8535 9.51893 12.7875 9.37793 13.6875L9.54293 13.7715C9.59093 13.7955 9.65093 13.7955 9.69893 13.7655L9.85793 13.6665C9.85793 13.6665 9.77693 12.6585 10.0349 12.0765C10.0349 12.0765 10.1699 12.3255 10.1699 12.5115C10.1699 12.6975 10.1609 13.5885 10.1609 13.5885C10.1609 13.5885 10.4609 13.6395 10.5959 13.6275C10.5959 13.6275 10.5119 11.6865 10.4219 11.2335L9.66893 11.2155Z" fill="#EAF3F5"/>
<path d="M9.69912 11.0865C9.69912 11.0865 9.64812 11.1255 9.67512 11.2125C9.67512 11.2125 10.0681 11.3805 10.4341 11.2365C10.4341 11.2365 10.4761 11.1765 10.4251 11.1045L9.69912 11.0865Z" fill="#965032"/>
<path d="M9.17402 10.1595C8.94902 10.2435 8.61002 10.4505 8.63402 10.6155C8.65802 10.7805 8.76902 10.7415 8.80802 10.6995C8.84702 10.6575 8.94902 10.5315 8.98202 10.5075C9.01502 10.4835 9.54002 10.2135 9.54002 10.2135L10.938 9.4965C10.938 9.4965 10.947 9.4275 10.869 9.3705C10.86 9.3675 10.008 9.8445 9.17402 10.1595Z" fill="#965032"/>
<path d="M9.83107 9.3495L9.82207 9.4095C9.82207 9.4095 9.79807 9.7905 9.92407 9.8865C9.92407 9.8865 9.95107 9.9675 9.90907 10.0035C9.86707 10.0425 9.44107 10.2555 9.44107 10.2555C9.44107 10.2555 9.33307 10.4865 9.33307 10.6125C9.33307 10.6125 9.23107 10.5705 9.24007 10.5225C9.24907 10.4715 9.30907 10.3395 9.29107 10.2735C9.27307 10.2075 9.20107 10.2255 9.20107 10.2255C9.20107 10.2255 9.16807 10.2645 9.22507 10.2855L9.20707 10.3665L8.97607 10.5015L9.02707 10.5615C9.02707 10.5615 9.03307 11.0355 9.30907 11.0955C9.30907 11.0955 9.45307 11.1045 9.63307 10.7715C9.63307 10.7715 9.72607 10.9365 9.69307 11.0805C9.69307 11.0805 9.99907 11.2455 10.4161 11.1045L10.4221 10.8135C10.4221 10.8135 10.4881 11.2575 10.7071 11.2155C10.7071 11.2155 11.3161 10.9815 11.2141 10.8915C10.9801 10.6845 10.6951 10.8585 10.6951 10.8585C10.6801 10.5585 10.6561 10.1685 10.6141 10.1265C10.5481 10.0575 10.3501 10.0935 10.3141 10.0035C10.2751 9.9135 10.2871 9.7545 10.3291 9.5715C10.3711 9.3885 10.1551 9.2625 10.1551 9.2625L9.83107 9.3495Z" fill="#FFBE3C"/>
<path d="M9.82502 9.4095C9.82502 9.4095 10.044 9.4665 10.215 9.3945L10.29 9.5835H10.332C10.332 9.5835 10.434 9.2415 10.299 9.2415C10.299 9.2415 10.299 9.1275 10.059 9.1335C9.85202 9.1365 9.77702 9.2745 9.82502 9.4095Z" fill="#464655"/>
<path d="M14.2921 13.7115C14.2921 13.7115 14.2351 13.9635 14.2861 13.9935C14.3371 14.0205 14.6251 14.0205 14.6191 13.9605C14.6101 13.9005 14.5711 13.6845 14.5711 13.6845L14.2921 13.7115Z" fill="#965032"/>
<path d="M13.818 13.5765C13.818 13.5765 13.866 13.7655 13.77 13.7745C13.674 13.7835 13.152 13.7805 13.137 13.7655C13.122 13.7505 13.104 13.7145 13.104 13.7145L13.59 13.5795H13.818V13.5765Z" fill="#965032"/>
<path d="M14.3491 11.2155C14.3491 11.2155 14.4751 11.5215 14.5231 12.5715C14.5381 12.8535 14.4991 12.7875 14.6401 13.6875L14.4751 13.7715C14.4271 13.7955 14.3671 13.7955 14.3191 13.7655L14.1601 13.6665C14.1601 13.6665 14.2411 12.6585 13.9831 12.0765C13.9831 12.0765 13.8481 12.3255 13.8481 12.5115C13.8481 12.6975 13.8571 13.5885 13.8571 13.5885C13.8571 13.5885 13.5571 13.6395 13.4221 13.6275C13.4221 13.6275 13.5061 11.6865 13.5961 11.2335L14.3491 11.2155Z" fill="#EAF3F5"/>
<path d="M14.325 11.0865C14.325 11.0865 14.376 11.1255 14.349 11.2125C14.349 11.2125 13.956 11.3805 13.59 11.2365C13.59 11.2365 13.548 11.1765 13.599 11.1045L14.325 11.0865Z" fill="#BE7855"/>
<path d="M14.1931 9.3495L14.2021 9.4095C14.2021 9.4095 14.2261 9.7905 14.1001 9.8865C14.1001 9.8865 14.0731 9.9675 14.1151 10.0035C14.1571 10.0425 14.5831 10.2555 14.5831 10.2555C14.5831 10.2555 14.6911 10.4865 14.6911 10.6125C14.6911 10.6125 14.7931 10.5705 14.7841 10.5225C14.7751 10.4715 14.7151 10.3395 14.7331 10.2735C14.7511 10.2075 14.8231 10.2255 14.8231 10.2255C14.8231 10.2255 14.8561 10.2645 14.7991 10.2855L14.8171 10.3665L15.0481 10.5015L14.9971 10.5615C14.9971 10.5615 14.9911 11.0355 14.7151 11.0955C14.7151 11.0955 14.5711 11.1045 14.3911 10.7715C14.3911 10.7715 14.2981 10.9365 14.3311 11.0805C14.3311 11.0805 14.0251 11.2455 13.6081 11.1045L13.6021 10.8135C13.6021 10.8135 13.5361 11.2575 13.3171 11.2155C13.3171 11.2155 12.7081 10.9815 12.8101 10.8915C13.0441 10.6845 13.3291 10.8585 13.3291 10.8585C13.3441 10.5585 13.3681 10.1685 13.4101 10.1265C13.4761 10.0575 13.6741 10.0935 13.7101 10.0035C13.7491 9.9135 13.7371 9.7545 13.6951 9.5715C13.6531 9.3885 13.8691 9.2625 13.8691 9.2625L14.1931 9.3495Z" fill="#965032"/>
<path d="M14.199 9.4095C14.199 9.4095 13.98 9.4665 13.809 9.3945L13.734 9.5835H13.692C13.692 9.5835 13.59 9.2415 13.725 9.2415C13.725 9.2415 13.725 9.1275 13.965 9.1335C14.169 9.1365 14.244 9.2745 14.199 9.4095Z" fill="#464655"/>
<path d="M10.5239 9.5505C10.5059 9.5085 10.5389 9.4935 10.5389 9.4935C10.5389 9.4935 10.7549 9.3765 10.7819 9.3765C10.8239 9.3825 10.8749 9.4515 10.8749 9.5175C10.8749 9.5775 10.9559 9.7425 11.1239 9.7845C11.1239 9.7845 10.9139 10.0695 10.6229 10.0275C10.6169 10.0275 10.6349 9.8355 10.5239 9.5505Z" fill="#EAF3F5"/>
<path d="M10.827 10.8825C10.761 10.8825 10.71 10.9395 10.71 11.0055V12.4245C10.71 12.7665 10.869 13.9725 12 14.3145C13.125 13.9725 13.29 12.7665 13.29 12.4245V11.0055C13.29 10.9365 13.239 10.8825 13.173 10.8825H10.827Z" fill="#82AFFF"/>
<path d="M13.2839 12.4275V11.0085C13.2839 10.9395 13.2329 10.8855 13.1669 10.8855H11.9939V12.0855L13.1249 13.2165C13.2509 12.8835 13.2839 12.5775 13.2839 12.4275Z" fill="#FFE15A"/>
<path d="M10.71 12.4275V11.0085C10.71 10.9395 10.761 10.8855 10.827 10.8855H12V12.0855L10.869 13.2165C10.74 12.8835 10.71 12.5775 10.71 12.4275Z" fill="#EAF3F5"/>
<path d="M11.2351 13.1775L11.5351 13.4925H12.3661L12.5401 13.2675L12.3391 13.3515H11.6671L11.2351 13.1775Z" fill="#8C5A28"/>
<path d="M11.559 12.7695L11.511 13.2285L11.304 13.1475C11.307 13.1505 11.4 12.9285 11.559 12.7695Z" fill="#F5F5F5"/>
<path d="M12.0003 12.5925H11.9673V13.3755H12.0003V12.5925Z" fill="#8C5A28"/>
<path d="M12.282 12.6586H12.249V13.3726H12.282V12.6586Z" fill="#8C5A28"/>
<path d="M11.7181 12.6586H11.6851V13.3726H11.7181V12.6586Z" fill="#8C5A28"/>
<path d="M12.084 13.2945H11.877C11.862 13.2945 11.853 13.2855 11.853 13.2705V13.1595C11.853 13.1445 11.862 13.1355 11.877 13.1355H12.084C12.099 13.1355 12.108 13.1445 12.108 13.1595V13.2705C12.114 13.2855 12.099 13.2945 12.084 13.2945Z" fill="#F5F5F5"/>
<path d="M12.084 13.0785H11.877C11.862 13.0785 11.853 13.0695 11.853 13.0545V12.9375C11.853 12.9225 11.862 12.9135 11.877 12.9135H12.084C12.099 12.9135 12.108 12.9225 12.108 12.9375V13.0515C12.114 13.0665 12.099 13.0785 12.084 13.0785Z" fill="#F5F5F5"/>
<path d="M12.084 12.8745H11.877C11.862 12.8745 11.853 12.8655 11.853 12.8505V12.7395C11.853 12.7245 11.862 12.7155 11.877 12.7155H12.084C12.099 12.7155 12.108 12.7245 12.108 12.7395V12.8505C12.114 12.8655 12.099 12.8745 12.084 12.8745Z" fill="#F5F5F5"/>
<path d="M12.3508 13.2945H12.1768C12.1618 13.2945 12.1528 13.2855 12.1528 13.2705V13.1595C12.1528 13.1445 12.1618 13.1355 12.1768 13.1355H12.3508C12.3658 13.1355 12.3748 13.1445 12.3748 13.1595V13.2705C12.3748 13.2855 12.3658 13.2945 12.3508 13.2945Z" fill="#F5F5F5"/>
<path d="M12.3508 13.0935H12.1768C12.1618 13.0935 12.1528 13.0845 12.1528 13.0695V12.9795C12.1528 12.9645 12.1618 12.9555 12.1768 12.9555H12.3508C12.3658 12.9555 12.3748 12.9645 12.3748 12.9795V13.0695C12.3748 13.0845 12.3658 13.0935 12.3508 13.0935Z" fill="#F5F5F5"/>
<path d="M12.3508 12.8955H12.1768C12.1618 12.8955 12.1528 12.8865 12.1528 12.8715V12.8055C12.1528 12.7905 12.1618 12.7815 12.1768 12.7815H12.3508C12.3658 12.7815 12.3748 12.7905 12.3748 12.8055V12.8715C12.3748 12.8835 12.3658 12.8955 12.3508 12.8955Z" fill="#F5F5F5"/>
<path d="M11.7839 13.2945H11.6099C11.5949 13.2945 11.5859 13.2855 11.5859 13.2705V13.1595C11.5859 13.1445 11.5949 13.1355 11.6099 13.1355H11.7839C11.7989 13.1355 11.8079 13.1445 11.8079 13.1595V13.2705C11.8139 13.2855 11.7989 13.2945 11.7839 13.2945Z" fill="#F5F5F5"/>
<path d="M11.7839 13.0935H11.6099C11.5949 13.0935 11.5859 13.0845 11.5859 13.0695V12.9795C11.5859 12.9645 11.5949 12.9555 11.6099 12.9555H11.7839C11.7989 12.9555 11.8079 12.9645 11.8079 12.9795V13.0695C11.8139 13.0845 11.7989 13.0935 11.7839 13.0935Z" fill="#F5F5F5"/>
<path d="M11.7839 12.8955H11.6099C11.5949 12.8955 11.5859 12.8865 11.5859 12.8715V12.8055C11.5859 12.7905 11.5949 12.7815 11.6099 12.7815H11.7839C11.7989 12.7815 11.8079 12.7905 11.8079 12.8055V12.8715C11.8139 12.8835 11.7989 12.8955 11.7839 12.8955Z" fill="#F5F5F5"/>
<path d="M12.249 12.6585V12.7515L12.114 12.7035L12.249 12.6585Z" fill="#FF4B55"/>
<path d="M11.685 12.6585V12.7515L11.55 12.7035L11.685 12.6585Z" fill="#FF4B55"/>
<path d="M11.967 12.5925V12.6825L11.832 12.6345L11.967 12.5925Z" fill="#FF4B55"/>
<path d="M13.0171 13.4595H10.9741C11.0011 13.5165 11.0401 13.5765 11.0761 13.6335H12.9181C12.9571 13.5705 12.9901 13.5165 13.0171 13.4595Z" fill="#4173CD"/>
<path d="M12.9179 13.6275H11.0759C11.1569 13.7505 11.2589 13.8675 11.3759 13.9695H12.6149C12.7349 13.8675 12.8339 13.7505 12.9179 13.6275Z" fill="#73AF00"/>
<path d="M11.376 13.9695C11.541 14.1135 11.742 14.2365 11.994 14.3115C12.246 14.2365 12.45 14.1135 12.612 13.9695H11.376Z" fill="#FFE15A"/>
<path d="M11.7749 12.1845C11.7749 12.1845 11.7599 12.1905 11.7479 12.1905C11.7389 12.1845 11.7149 12.1845 11.7299 12.1425C11.7359 12.1245 11.7479 12.0945 11.7389 12.0855C11.7299 12.0765 11.7239 12.0675 11.7149 12.0585C11.6969 12.0405 11.6759 12.0165 11.6549 11.9895C11.6069 11.9385 11.5559 11.8815 11.4959 11.8245C11.4629 11.7975 11.4359 11.7675 11.4029 11.7345C11.3699 11.7075 11.3369 11.6745 11.3009 11.6445C11.2829 11.6355 11.2529 11.6265 11.2319 11.6205C11.2079 11.6115 11.1929 11.5935 11.1809 11.5785C11.1479 11.5515 11.1149 11.5185 11.0879 11.4885C11.0279 11.4315 10.9709 11.3775 10.9229 11.3295C10.8749 11.2815 10.8389 11.2455 10.8149 11.2155C10.7909 11.1885 10.7909 11.1465 10.8209 11.1225L10.8959 11.0475C10.9229 11.0235 10.9649 11.0235 10.9889 11.0475C11.0159 11.0745 11.0549 11.1135 11.1029 11.1585C11.1509 11.2035 11.2019 11.2665 11.2589 11.3265C11.2859 11.3595 11.3159 11.3925 11.3429 11.4255C11.3579 11.4435 11.3759 11.4585 11.3819 11.4825C11.3909 11.5065 11.3969 11.5335 11.4059 11.5515C11.4299 11.5905 11.4629 11.6205 11.4899 11.6535C11.5169 11.6865 11.5469 11.7195 11.5739 11.7525C11.6309 11.8185 11.6819 11.8755 11.7329 11.9205C11.7569 11.9445 11.7809 11.9625 11.7989 11.9805C11.8079 11.9895 11.8169 11.9985 11.8259 12.0075C11.8319 12.0165 11.8589 12.0015 11.8829 11.9985C11.9249 11.9895 11.9249 12.0075 11.9249 12.0165C11.9249 12.0315 11.9189 12.0435 11.9189 12.0435L11.7749 12.1845Z" fill="#BE7855"/>
<path d="M10.9349 12.3195C10.9199 12.3195 10.9079 12.3135 10.8959 12.3045C10.8689 12.2805 10.8629 12.2445 10.8809 12.2145L11.4899 11.3835C11.5079 11.3565 11.5499 11.3505 11.5799 11.3685C11.6069 11.3925 11.6129 11.4285 11.5949 11.4585L10.9859 12.2895C10.9739 12.3105 10.9559 12.3195 10.9349 12.3195Z" fill="#965032"/>
<path d="M11.4241 11.3325L11.7421 11.5425L11.8771 11.3535L11.5831 11.1165L11.4241 11.3325Z" fill="#F5F5F5"/>
<path d="M12.2729 11.2515L13.0889 12.2595C13.0889 12.2595 13.2029 12.2655 13.1879 12.1755L12.3449 11.1855L12.2729 11.2515Z" fill="#965032"/>
<path d="M12.0901 11.3925C12.0901 11.3925 12.3211 11.3505 12.4141 11.2095L12.5461 11.3655C12.5461 11.3655 12.3301 11.5155 12.3121 11.6805C12.3091 11.6745 12.1351 11.6265 12.0901 11.3925Z" fill="#EAF3F5"/>
<path d="M12.9688 11.2905C12.9538 11.2905 12.9418 11.2815 12.9298 11.2665C12.9058 11.2245 12.9028 11.1825 12.9148 11.1495C12.9388 11.1015 12.9838 11.0895 12.9958 11.0835C13.0198 11.0775 13.0438 11.0925 13.0468 11.1105C13.0528 11.1345 13.0378 11.1585 13.0198 11.1615C13.0138 11.1615 13.0018 11.1705 12.9958 11.1795C12.9898 11.1885 12.9958 11.2065 13.0048 11.2275C13.0138 11.2455 13.0108 11.2755 12.9868 11.2845C12.9838 11.2905 12.9748 11.2905 12.9688 11.2905Z" fill="#965032"/>
<path d="M12.2999 11.9115C12.2999 11.8965 12.2909 11.8845 12.2759 11.8725C12.2339 11.8485 12.1919 11.8455 12.1589 11.8575C12.1109 11.8815 12.0989 11.9265 12.0929 11.9385C12.0869 11.9625 12.1019 11.9865 12.1199 11.9895C12.1439 11.9955 12.1679 11.9805 12.1709 11.9625C12.1709 11.9565 12.1799 11.9445 12.1889 11.9385C12.1979 11.9325 12.2159 11.9385 12.2369 11.9475C12.2549 11.9565 12.2849 11.9535 12.2939 11.9295C12.2999 11.9265 12.2999 11.9175 12.2999 11.9115Z" fill="#965032"/>
<path d="M12.999 11.1945L12.231 11.9505L12.408 12.1515L13.161 11.3955L12.999 11.1945Z" fill="#EAF3F5"/>
<path d="M9.09901 10.1115C9.15001 10.0965 9.19801 10.1685 9.15001 10.2195C9.10201 10.2705 8.96701 10.3605 8.93101 10.3515C8.85601 10.3365 8.80201 10.1775 9.09901 10.1115Z" fill="#FFBE3C"/>
<path d="M14.919 10.1835C14.871 10.1685 14.829 10.2405 14.871 10.2915C14.913 10.3425 15.039 10.4325 15.078 10.4235C15.15 10.4085 15.192 10.2525 14.919 10.1835Z" fill="#965032"/>
<path d="M13.167 10.8825C13.233 10.8825 13.284 10.9395 13.284 11.0055V12.4245C13.284 12.7665 13.125 13.9725 11.994 14.3145C10.869 13.9725 10.704 12.7665 10.704 12.4245V11.0055C10.704 10.9365 10.755 10.8825 10.821 10.8825H13.167ZM13.167 10.7955H10.827C10.713 10.7955 10.626 10.8885 10.626 11.0055V12.4245C10.626 12.5055 10.635 12.9405 10.857 13.4055C11.091 13.9035 11.475 14.2455 11.976 14.3955L12 14.4045L12.024 14.3955C12.525 14.2455 12.909 13.9035 13.143 13.4055C13.362 12.9405 13.374 12.5055 13.374 12.4245V11.0055C13.368 10.8915 13.281 10.7955 13.167 10.7955Z" fill="#464655"/>
<path d="M14.0579 14.3355C13.6919 14.2125 13.3019 14.2695 12.9329 14.5125C12.4589 14.8275 12.1499 14.8275 11.9999 14.8275C11.8499 14.8275 11.5349 14.8275 11.0669 14.5125C10.6979 14.2695 10.3079 14.2065 9.94189 14.3355V14.7015C10.1729 14.5935 10.4939 14.5455 10.8749 14.8005C11.4329 15.1695 11.8319 15.1695 11.9999 15.1695C12.1679 15.1695 12.5669 15.1695 13.1249 14.8005C13.5059 14.5485 13.8269 14.5935 14.0579 14.7015V14.3355Z" fill="#EAF3F5"/>
<path d="M11.9939 16.2915C9.57894 16.2915 7.61694 14.3265 7.61694 11.9145C7.61694 9.5025 9.58194 7.5375 11.9939 7.5375C14.4059 7.5375 16.3739 9.4995 16.3739 11.9115C16.3739 14.3235 14.4089 16.2915 11.9939 16.2915ZM11.9939 7.7085C9.67494 7.7085 7.78794 9.5925 7.78794 11.9145C7.78794 14.2365 9.67194 16.1205 11.9939 16.1205C14.3159 16.1205 16.1999 14.2335 16.1999 11.9115C16.1999 9.5895 14.3159 7.7085 11.9939 7.7085Z" fill="#965032"/>
<path d="M7.20906 12.2775C7.20906 12.2775 7.19106 11.7435 7.70706 11.7435C7.70706 11.7435 7.71606 11.9535 7.53306 12.0495C7.38306 12.1185 7.20906 12.2775 7.20906 12.2775Z" fill="#73AF00"/>
<path d="M8.20217 12.2775C8.20217 12.2775 8.22017 11.7435 7.70417 11.7435C7.70417 11.7435 7.69517 11.9535 7.87817 12.0495C8.03417 12.1185 8.20217 12.2775 8.20217 12.2775Z" fill="#73AF00"/>
<path d="M16.782 11.7405C16.782 11.7405 16.8 12.2745 16.284 12.2745C16.284 12.2745 16.275 12.0645 16.458 11.9685C16.608 11.8995 16.782 11.7405 16.782 11.7405Z" fill="#73AF00"/>
<path d="M15.7891 11.7405C15.7891 11.7405 15.7711 12.2745 16.2871 12.2745C16.2871 12.2745 16.2961 12.0645 16.1131 11.9685C15.9571 11.8995 15.7891 11.7405 15.7891 11.7405Z" fill="#73AF00"/>
<path d="M12.264 16.7955C12.264 16.7955 11.73 16.8135 11.73 16.2975C11.73 16.2975 11.94 16.2885 12.036 16.4715C12.108 16.6245 12.264 16.7955 12.264 16.7955Z" fill="#73AF00"/>
<path d="M12.264 15.7995C12.264 15.7995 11.73 15.7815 11.73 16.2975C11.73 16.2975 11.94 16.3065 12.036 16.1235C12.108 15.9705 12.264 15.7995 12.264 15.7995Z" fill="#73AF00"/>
<path d="M11.7271 7.2255C11.7271 7.2255 12.2611 7.2075 12.2611 7.7235C12.2611 7.7235 12.0511 7.7325 11.9551 7.5495C11.8831 7.3935 11.7271 7.2255 11.7271 7.2255Z" fill="#73AF00"/>
<path d="M11.7271 8.2185C11.7271 8.2185 12.2611 8.2365 12.2611 7.7205C12.2611 7.7205 12.0511 7.7115 11.9551 7.8945C11.8831 8.0445 11.7271 8.2185 11.7271 8.2185Z" fill="#73AF00"/>
<path d="M8.80209 15.5835C8.80209 15.5835 8.40909 15.2175 8.77509 14.8515C8.77509 14.8515 8.93109 14.9925 8.86509 15.1905C8.81409 15.3495 8.80209 15.5835 8.80209 15.5835Z" fill="#73AF00"/>
<path d="M9.50715 14.8785C9.50715 14.8785 9.14115 14.4855 8.77515 14.8515C8.77515 14.8515 8.91615 15.0075 9.11415 14.9415C9.27315 14.8905 9.50715 14.8785 9.50715 14.8785Z" fill="#73AF00"/>
<path d="M15.1921 8.4345C15.1921 8.4345 15.5851 8.8005 15.2191 9.1665C15.2191 9.1665 15.0631 9.0255 15.1291 8.8275C15.1771 8.6685 15.1921 8.4345 15.1921 8.4345Z" fill="#73AF00"/>
<path d="M14.49 9.1365C14.49 9.1365 14.856 9.5295 15.222 9.1635C15.222 9.1635 15.081 9.0075 14.883 9.0735C14.718 9.1275 14.49 9.1365 14.49 9.1365Z" fill="#73AF00"/>
<path d="M15.567 15.2025C15.567 15.2025 15.201 15.5955 14.835 15.2295C14.835 15.2295 14.976 15.0735 15.174 15.1395C15.339 15.1935 15.567 15.2025 15.567 15.2025Z" fill="#73AF00"/>
<path d="M14.8651 14.5005C14.8651 14.5005 14.4721 14.8665 14.8381 15.2325C14.8381 15.2325 14.9941 15.0915 14.9281 14.8935C14.8771 14.7345 14.8651 14.5005 14.8651 14.5005Z" fill="#73AF00"/>
<path d="M8.42407 8.8155C8.42407 8.8155 8.79007 8.4225 9.15607 8.7885C9.15607 8.7885 9.01507 8.9445 8.81707 8.8785C8.65207 8.8245 8.42407 8.8155 8.42407 8.8155Z" fill="#73AF00"/>
<path d="M9.12616 9.5175C9.12616 9.5175 9.51916 9.1515 9.15316 8.7855C9.15316 8.7855 8.99715 8.9265 9.06315 9.1245C9.11715 9.2865 9.12616 9.5175 9.12616 9.5175Z" fill="#73AF00"/>
<path d="M7.67707 14.0865C7.67707 14.0865 7.45807 13.5975 7.92907 13.4025C7.92907 13.4025 8.01907 13.5945 7.88107 13.7505C7.77607 13.8765 7.67707 14.0865 7.67707 14.0865Z" fill="#73AF00"/>
<path d="M8.59813 13.7085C8.59813 13.7085 8.40913 13.2075 7.93213 13.4025C7.93213 13.4025 8.00113 13.6005 8.20813 13.6185C8.37613 13.6275 8.59813 13.7085 8.59813 13.7085Z" fill="#73AF00"/>
<path d="M16.314 9.9285C16.314 9.9285 16.533 10.4175 16.062 10.6125C16.062 10.6125 15.972 10.4205 16.11 10.2645C16.215 10.1415 16.314 9.9285 16.314 9.9285Z" fill="#73AF00"/>
<path d="M15.3931 10.3095C15.3931 10.3095 15.5821 10.8105 16.0591 10.6155C16.0591 10.6155 15.9901 10.4175 15.7831 10.3995C15.6151 10.3905 15.3931 10.3095 15.3931 10.3095Z" fill="#73AF00"/>
<path d="M14.0761 16.3275C14.0761 16.3275 13.5901 16.5465 13.3921 16.0755C13.3921 16.0755 13.5841 15.9855 13.7401 16.1235C13.8661 16.2285 14.0761 16.3275 14.0761 16.3275Z" fill="#73AF00"/>
<path d="M13.6921 15.4095C13.6921 15.4095 13.1911 15.5985 13.3861 16.0755C13.3861 16.0755 13.5841 16.0065 13.6021 15.7995C13.6141 15.6285 13.6921 15.4095 13.6921 15.4095Z" fill="#73AF00"/>
<path d="M9.91797 7.6905C9.91797 7.6905 10.407 7.4715 10.602 7.9425C10.602 7.9425 10.41 8.0325 10.254 7.8945C10.131 7.7865 9.91797 7.6905 9.91797 7.6905Z" fill="#73AF00"/>
<path d="M10.2991 8.6085C10.2991 8.6085 10.8001 8.4195 10.6051 7.9425C10.6051 7.9425 10.4071 8.0115 10.3891 8.2185C10.3771 8.3925 10.2991 8.6085 10.2991 8.6085Z" fill="#73AF00"/>
<path d="M10.4101 16.5345C10.4101 16.5345 9.90914 16.3455 10.1041 15.8685C10.1041 15.8685 10.3021 15.9375 10.3201 16.1445C10.3321 16.3155 10.4101 16.5345 10.4101 16.5345Z" fill="#73AF00"/>
<path d="M10.7912 15.6165C10.7912 15.6165 10.3022 15.3975 10.1072 15.8685C10.1072 15.8685 10.2992 15.9585 10.4552 15.8205C10.5812 15.7155 10.7912 15.6165 10.7912 15.6165Z" fill="#73AF00"/>
<path d="M13.5811 7.4865C13.5811 7.4865 14.0821 7.6755 13.8871 8.1525C13.8871 8.1525 13.6891 8.0835 13.6711 7.8765C13.6591 7.7025 13.5811 7.4865 13.5811 7.4865Z" fill="#73AF00"/>
<path d="M13.2 8.4015C13.2 8.4015 13.689 8.6205 13.884 8.1495C13.884 8.1495 13.692 8.0595 13.536 8.1975C13.41 8.3085 13.2 8.4015 13.2 8.4015Z" fill="#73AF00"/>
<path d="M16.5181 13.5915C16.5181 13.5915 16.3291 14.0925 15.8521 13.8975C15.8521 13.8975 15.9211 13.6995 16.1281 13.6815C16.3021 13.6695 16.5181 13.5915 16.5181 13.5915Z" fill="#73AF00"/>
<path d="M15.6002 13.2105C15.6002 13.2105 15.3812 13.6995 15.8522 13.8945C15.8522 13.8945 15.9422 13.7025 15.8042 13.5465C15.6992 13.4205 15.6002 13.2105 15.6002 13.2105Z" fill="#73AF00"/>
<path d="M7.47314 10.4265C7.47314 10.4265 7.66214 9.9255 8.13914 10.1205C8.13914 10.1205 8.07014 10.3185 7.86314 10.3365C7.69214 10.3455 7.47314 10.4265 7.47314 10.4265Z" fill="#73AF00"/>
<path d="M8.39094 10.8075C8.39094 10.8075 8.60994 10.3185 8.13894 10.1235C8.13894 10.1235 8.04894 10.3155 8.18694 10.4715C8.29194 10.5945 8.39094 10.8075 8.39094 10.8075Z" fill="#73AF00"/>
<path d="M7.35615 13.2075C7.35615 13.2075 7.23315 12.6885 7.74015 12.5835C7.74015 12.5835 7.79115 12.7905 7.62615 12.9165C7.49115 13.0185 7.35615 13.2075 7.35615 13.2075Z" fill="#73AF00"/>
<path d="M8.33099 13.0155C8.33099 13.0155 8.24099 12.4845 7.73999 12.5835C7.73999 12.5835 7.77299 12.7935 7.97099 12.8475C8.13299 12.8925 8.33099 13.0155 8.33099 13.0155Z" fill="#73AF00"/>
<path d="M16.635 10.8105C16.635 10.8105 16.758 11.3295 16.251 11.4345C16.251 11.4345 16.2 11.2275 16.362 11.1015C16.5 10.9995 16.635 10.8105 16.635 10.8105Z" fill="#73AF00"/>
<path d="M15.6602 11.0085C15.6602 11.0085 15.7502 11.5395 16.2512 11.4405C16.2512 11.4405 16.2182 11.2305 16.0202 11.1765C15.8642 11.1285 15.6602 11.0085 15.6602 11.0085Z" fill="#73AF00"/>
<path d="M13.1911 16.6515C13.1911 16.6515 12.6721 16.7745 12.5671 16.2675C12.5671 16.2675 12.7741 16.2165 12.9001 16.3815C13.0021 16.5105 13.1911 16.6515 13.1911 16.6515Z" fill="#73AF00"/>
<path d="M12.999 15.6765C12.999 15.6765 12.468 15.7665 12.567 16.2675C12.567 16.2675 12.777 16.2345 12.831 16.0365C12.876 15.8745 12.999 15.6765 12.999 15.6765Z" fill="#73AF00"/>
<path d="M10.8 7.3695C10.8 7.3695 11.319 7.2465 11.424 7.7535C11.424 7.7535 11.217 7.8045 11.091 7.6395C10.989 7.5075 10.8 7.3695 10.8 7.3695Z" fill="#73AF00"/>
<path d="M10.9919 8.3445C10.9919 8.3445 11.5229 8.2545 11.4239 7.7535C11.4239 7.7535 11.2139 7.7865 11.1599 7.9845C11.1149 8.1435 10.9919 8.3445 10.9919 8.3445Z" fill="#73AF00"/>
<path d="M9.55806 16.1355C9.55806 16.1355 9.10206 15.8535 9.39006 15.4215C9.39006 15.4215 9.57306 15.5295 9.54606 15.7365C9.52506 15.9075 9.55806 16.1355 9.55806 16.1355Z" fill="#73AF00"/>
<path d="M10.11 15.3105C10.11 15.3105 9.67496 14.9955 9.38696 15.4275C9.38696 15.4275 9.55496 15.5535 9.73796 15.4515C9.88496 15.3675 10.11 15.3105 10.11 15.3105Z" fill="#73AF00"/>
<path d="M14.4331 7.8825C14.4331 7.8825 14.8891 8.1645 14.6011 8.5965C14.6011 8.5965 14.4181 8.4885 14.4451 8.2815C14.4661 8.1105 14.4331 7.8825 14.4331 7.8825Z" fill="#73AF00"/>
<path d="M13.8811 8.7075C13.8811 8.7075 14.3161 9.0225 14.6041 8.5905C14.6041 8.5905 14.4361 8.4645 14.2531 8.5665C14.1061 8.6535 13.8811 8.7075 13.8811 8.7075Z" fill="#73AF00"/>
<path d="M16.1251 14.4435C16.1251 14.4435 15.8431 14.8995 15.4111 14.6115C15.4111 14.6115 15.5191 14.4285 15.7261 14.4555C15.8941 14.4825 16.1251 14.4435 16.1251 14.4435Z" fill="#73AF00"/>
<path d="M15.294 13.8915C15.294 13.8915 14.979 14.3265 15.411 14.6145C15.411 14.6145 15.537 14.4465 15.435 14.2635C15.351 14.1195 15.294 13.8915 15.294 13.8915Z" fill="#73AF00"/>
<path d="M7.86597 9.5745C7.86597 9.5745 8.14797 9.1185 8.57997 9.4065C8.57997 9.4065 8.47197 9.5895 8.26497 9.5625C8.09397 9.5355 7.86597 9.5745 7.86597 9.5745Z" fill="#73AF00"/>
<path d="M8.69403 10.1265C8.69403 10.1265 9.00903 9.6915 8.57703 9.4035C8.57703 9.4035 8.45103 9.5715 8.55303 9.7545C8.64003 9.9015 8.69403 10.1265 8.69403 10.1265Z" fill="#73AF00"/>
<path d="M8.16603 14.8905C8.16603 14.8905 7.85103 14.4555 8.28303 14.1675C8.28303 14.1675 8.40903 14.3355 8.30703 14.5185C8.22303 14.6625 8.16603 14.8905 8.16603 14.8905Z" fill="#73AF00"/>
<path d="M8.9911 14.3415C8.9911 14.3415 8.7091 13.8855 8.2771 14.1735C8.2771 14.1735 8.3851 14.3565 8.5921 14.3295C8.7601 14.3025 8.9911 14.3415 8.9911 14.3415Z" fill="#73AF00"/>
<path d="M15.8251 9.1275C15.8251 9.1275 16.1401 9.5625 15.7081 9.8505C15.7081 9.8505 15.5821 9.6825 15.6841 9.4995C15.7681 9.3525 15.8251 9.1275 15.8251 9.1275Z" fill="#73AF00"/>
<path d="M15 9.6825C15 9.6825 15.282 10.1385 15.714 9.8505C15.714 9.8505 15.606 9.6675 15.399 9.6945C15.231 9.7155 15 9.6825 15 9.6825Z" fill="#73AF00"/>
<path d="M14.8771 15.8415C14.8771 15.8415 14.4421 16.1565 14.1541 15.7245C14.1541 15.7245 14.3221 15.5985 14.5051 15.7005C14.6521 15.7845 14.8771 15.8415 14.8771 15.8415Z" fill="#73AF00"/>
<path d="M14.3252 15.0105C14.3252 15.0105 13.8692 15.2925 14.1572 15.7245C14.1572 15.7245 14.3402 15.6165 14.3132 15.4095C14.2862 15.2415 14.3252 15.0105 14.3252 15.0105Z" fill="#73AF00"/>
<path d="M9.11401 8.1825C9.11401 8.1825 9.54901 7.8675 9.83701 8.2995C9.83701 8.2995 9.66901 8.4255 9.48601 8.3235C9.34201 8.2335 9.11401 8.1825 9.11401 8.1825Z" fill="#73AF00"/>
<path d="M9.66602 9.0075C9.66602 9.0075 10.122 8.7255 9.83402 8.2935C9.83402 8.2935 9.65102 8.4015 9.67802 8.6085C9.70202 8.7765 9.66602 9.0075 9.66602 9.0075Z" fill="#73AF00"/>
<path d="M11.3252 16.7535C11.3252 16.7535 10.7942 16.6635 10.8932 16.1625C10.8932 16.1625 11.1032 16.1955 11.1572 16.3935C11.2022 16.5585 11.3252 16.7535 11.3252 16.7535Z" fill="#73AF00"/>
<path d="M11.5171 15.7785C11.5171 15.7785 10.9981 15.6555 10.8931 16.1625C10.8931 16.1625 11.1001 16.2135 11.2261 16.0515C11.3311 15.9165 11.5171 15.7785 11.5171 15.7785Z" fill="#73AF00"/>
<path d="M12.666 7.2615C12.666 7.2615 13.197 7.3515 13.098 7.8525C13.098 7.8525 12.888 7.8195 12.834 7.6215C12.786 7.4655 12.666 7.2615 12.666 7.2615Z" fill="#73AF00"/>
<path d="M12.4741 8.2365C12.4741 8.2365 12.9931 8.3595 13.0981 7.8525C13.0981 7.8525 12.8911 7.8015 12.7651 7.9665C12.6601 8.1015 12.4741 8.2365 12.4741 8.2365Z" fill="#73AF00"/>
<path d="M16.7431 12.6825C16.7431 12.6825 16.6531 13.2135 16.1521 13.1145C16.1521 13.1145 16.1851 12.9045 16.3831 12.8505C16.5421 12.7995 16.7431 12.6825 16.7431 12.6825Z" fill="#73AF00"/>
<path d="M15.768 12.4845C15.768 12.4845 15.645 13.0035 16.152 13.1085C16.152 13.1085 16.203 12.9015 16.038 12.7755C15.906 12.6705 15.768 12.4845 15.768 12.4845Z" fill="#73AF00"/>
<path d="M7.25098 11.3415C7.25098 11.3415 7.34098 10.8105 7.84198 10.9095C7.84198 10.9095 7.80898 11.1195 7.61098 11.1735C7.44898 11.2185 7.25098 11.3415 7.25098 11.3415Z" fill="#73AF00"/>
<path d="M8.22616 11.5335C8.22616 11.5335 8.34916 11.0145 7.84216 10.9095C7.84216 10.9095 7.79116 11.1165 7.95616 11.2425C8.08516 11.3445 8.22616 11.5335 8.22616 11.5335Z" fill="#73AF00"/>
</svg>
