<svg width="24" height="24" viewBox="0 0 24 24" fill="none" xmlns="http://www.w3.org/2000/svg">
<path d="M22.2026 4.13794H1.79742C0.804703 4.13794 0 4.94264 0 5.93536V8.91375H24V5.93536C24 4.94264 23.1953 4.13794 22.2026 4.13794Z" fill="#5AA587"/>
<path d="M0 18.0646C0 19.0573 0.804703 19.8621 1.79742 19.8621H22.2026C23.1952 19.8621 24 19.0574 24 18.0646V15.0862H0V18.0646Z" fill="#FFE15A"/>
<path d="M24 9.56718H0V14.4323H24V9.56718Z" fill="#464655"/>
<path d="M0 9.37931V9.56727H24V9.37931V8.9137H0V9.37931Z" fill="#F5F5F5"/>
<path d="M0 14.6207V15.0863H24V14.6207V14.4327H0V14.6207Z" fill="#F5F5F5"/>
<path d="M0.601313 19.4059L9.66084 12.2145C9.79894 12.1049 9.79894 11.8952 9.66084 11.7856L0.601313 4.59409C0.232453 4.92329 0 5.40207 0 5.93537V18.0647C0 18.5979 0.232453 19.0767 0.601313 19.4059Z" fill="#FF4B55"/>
<path d="M3.8351 9.3083L4.44002 11.1221L6.352 11.137C6.45892 11.1378 6.50322 11.2743 6.41721 11.3378L4.8791 12.4736L5.4558 14.2966C5.488 14.3986 5.37199 14.4829 5.28499 14.4207L3.72944 13.3088L2.17389 14.4207C2.08689 14.4829 1.97083 14.3986 2.00308 14.2966L2.57978 12.4736L1.04172 11.3378C0.955706 11.2743 1.00005 11.1378 1.10693 11.137L3.01891 11.1221L3.62383 9.3083C3.65777 9.20691 3.80125 9.20691 3.8351 9.3083Z" fill="#FFE15A"/>
<path d="M3.61857 12.6772L3.46904 12.8277H2.21851L2.5598 11.5753L2.69926 11.5056L2.47538 12.6222C2.47351 12.636 2.47632 12.6497 2.48546 12.6607C2.49376 12.6717 2.50655 12.6772 2.52033 12.6772H3.61857Z" fill="#F5F5F5"/>
<path d="M3.91853 12.8855C3.86439 12.9258 3.79834 12.9488 3.72953 12.9488C3.66072 12.9488 3.59467 12.9259 3.54053 12.8855L3.72953 12.6965L3.91853 12.8855Z" fill="#F5F5F5"/>
<path d="M5.24064 12.8277H3.99011L3.84058 12.6772H4.93876C4.95255 12.6772 4.96534 12.6717 4.97364 12.6607C4.98278 12.6497 4.98559 12.6359 4.98372 12.6222L4.75984 11.5056L4.89929 11.5753L5.24064 12.8277Z" fill="#F5F5F5"/>
<path d="M4.88281 12.5855H3.77539V11.4432C3.96073 11.2863 4.44973 11.3936 4.65706 11.4579L4.88281 12.5855Z" fill="#F5F5F5"/>
<path d="M3.68379 11.4432V12.5855H2.57642L2.80212 11.4579C3.00949 11.3936 3.49849 11.2863 3.68379 11.4432Z" fill="#F5F5F5"/>
<path d="M5.34527 12.8616L4.98283 11.5313C4.97918 11.5193 4.97093 11.5083 4.95897 11.5028L4.71677 11.3817C4.71583 11.3808 4.7149 11.3808 4.71312 11.3808C4.71218 11.3808 4.71218 11.3799 4.71129 11.3789C4.6819 11.3688 4.01126 11.1504 3.72958 11.3642C3.44791 11.1504 2.77722 11.3688 2.74788 11.3789C2.74694 11.3799 2.74694 11.3799 2.74605 11.3808C2.74418 11.3808 2.74333 11.3808 2.7424 11.3817L2.50019 11.5028C2.48824 11.5083 2.48004 11.5193 2.47633 11.5313L2.1139 12.8616C2.11024 12.8754 2.11296 12.8901 2.12126 12.9011C2.1304 12.9121 2.14418 12.9195 2.15796 12.9195H3.44243C3.51855 12.9956 3.62135 13.0405 3.72958 13.0405C3.83787 13.0405 3.94062 12.9956 4.01674 12.9195H5.30121C5.31499 12.9195 5.32872 12.9121 5.33791 12.9011C5.34616 12.8901 5.34893 12.8754 5.34527 12.8616ZM3.77543 11.4432C3.96077 11.2863 4.44977 11.3936 4.6571 11.4579L4.8828 12.5854H3.77543C3.77543 12.5855 3.77543 11.4432 3.77543 11.4432ZM2.80197 11.4579C3.00935 11.3937 3.49835 11.2863 3.68365 11.4432V12.5855H2.57627L2.80197 11.4579ZM2.21847 12.8277L2.55977 11.5753L2.69922 11.5056L2.47535 12.6222C2.47347 12.636 2.47629 12.6497 2.48543 12.6607C2.49372 12.6717 2.50652 12.6772 2.5203 12.6772H3.61849L3.46896 12.8277H2.21847ZM3.72954 12.9488C3.66072 12.9488 3.59468 12.9259 3.54054 12.8855L3.72954 12.6965L3.91854 12.8855C3.86444 12.9258 3.7984 12.9488 3.72954 12.9488ZM3.99012 12.8277L3.84058 12.6772H4.93877C4.95255 12.6772 4.96535 12.6717 4.97365 12.6607C4.98279 12.6497 4.9856 12.6359 4.98372 12.6222L4.75985 11.5056L4.8993 11.5753L5.2406 12.8277H3.99012Z" fill="#464655"/>
<path d="M4.8765 10.2449C4.82972 10.2775 4.76635 10.2719 4.72599 10.2315L4.66496 10.1705V10.3199L4.2915 10.6934H4.14211L3.54464 11.2909H3.39525L2.24644 12.4397C2.21813 12.468 2.20829 12.5098 2.22094 12.5478L2.27499 12.7099L2.05093 12.934H1.90154L1.44483 13.3907C1.40836 13.4272 1.40836 13.4863 1.44483 13.5228L1.74624 13.8242C1.78974 13.8677 1.86108 13.865 1.90111 13.8183L2.57377 13.0087L2.64844 12.7846L2.79783 12.6352L3.09661 13.0833L3.32068 12.8593L3.08166 12.5008L3.14119 12.4412C3.19908 12.3833 3.19908 12.2895 3.14119 12.2317L3.09661 12.1871L3.13857 12.1451C3.45736 12.4183 3.84014 12.489 4.2046 12.3327L4.07977 12.0414C3.77864 12.1705 3.53274 12.0625 3.36169 11.922L3.99282 11.2908L3.96793 11.1663L4.14221 10.992H4.2916L5.41196 9.87169L4.8765 10.2449Z" fill="#464655"/>
<path d="M2.64842 10.0958L2.49903 10.2452C2.45783 10.2864 2.45783 10.3533 2.49903 10.3946L2.52392 10.4195L2.27497 10.4693L1.60278 11.1415L1.97624 11.515L2.64842 10.8428L2.6982 10.5938L2.79781 10.6934L2.87249 10.6187L5.35686 13.1031L5.50625 12.9537L3.02188 10.4693L3.09655 10.3947L2.79777 10.0959C2.75656 10.0546 2.68972 10.0546 2.64842 10.0958Z" fill="#464655"/>
</svg>
