<svg width="24" height="24" viewBox="0 0 24 24" fill="none" xmlns="http://www.w3.org/2000/svg">
<path d="M1.79742 4.1378C0.804703 4.1378 0 4.94251 0 5.93522V18.0646C0 19.0572 0.804703 19.862 1.79742 19.862H8.00002V4.1378H1.79742Z" fill="#82AFFF"/>
<path d="M16.0004 4.13799H8.00024V19.8622H16.0004V4.13799Z" fill="#F5F5F5"/>
<path d="M22.2026 4.1378H16V19.8619H22.2026C23.1953 19.8619 24 19.0572 24 18.0645V5.93522C24 4.94251 23.1953 4.1378 22.2026 4.1378Z" fill="#82AFFF"/>
<path d="M11.8957 9.94252L11.6584 10.0612L11.8767 10.1513L11.8957 9.94252Z" fill="#FFC855"/>
<path d="M12.0001 14.3273C10.6813 14.3273 9.6084 13.2543 9.6084 11.9356C9.6084 11.1163 10.0208 10.363 10.7114 9.92049L10.7728 10.0164C10.115 10.4379 9.72226 11.1554 9.72226 11.9356C9.72226 13.1916 10.7441 14.2134 12.0001 14.2134V14.3273V14.3273Z" fill="#73AF00"/>
<path d="M10.6313 14.4766C10.7225 14.4951 10.8631 14.4711 11.0074 14.4039C11.1518 14.3365 11.2606 14.2444 11.305 14.1627C11.2139 14.1441 11.0733 14.1681 10.929 14.2354C10.7846 14.3027 10.6758 14.3949 10.6313 14.4766Z" fill="#73AF00"/>
<path d="M11.305 14.1627C11.3236 14.0715 11.2996 13.931 11.2323 13.7866C11.165 13.6422 11.0729 13.5334 10.9912 13.489C10.9726 13.5801 10.9966 13.7207 11.0639 13.8651C11.1311 14.0094 11.2233 14.1182 11.305 14.1627Z" fill="#73AF00"/>
<path d="M10.1548 14.184C10.2422 14.2158 10.3848 14.2126 10.5375 14.1674C10.6902 14.122 10.8114 14.0468 10.8673 13.9725C10.7799 13.9407 10.6373 13.9439 10.4846 13.9892C10.3319 14.0345 10.2107 14.1097 10.1548 14.184Z" fill="#73AF00"/>
<path d="M10.8673 13.9725C10.8991 13.885 10.8959 13.7424 10.8507 13.5898C10.8053 13.4371 10.7301 13.3159 10.6558 13.26C10.624 13.3474 10.6272 13.49 10.6725 13.6427C10.7178 13.7954 10.7931 13.9165 10.8673 13.9725Z" fill="#73AF00"/>
<path d="M9.71411 13.7852C9.79441 13.8322 9.93522 13.8547 10.0936 13.8376C10.252 13.8204 10.3847 13.7681 10.453 13.7051C10.3728 13.6582 10.2319 13.6356 10.0735 13.6528C9.91516 13.67 9.78246 13.7222 9.71411 13.7852Z" fill="#73AF00"/>
<path d="M10.4529 13.705C10.4998 13.6247 10.5224 13.4839 10.5052 13.3255C10.488 13.1671 10.4358 13.0344 10.3727 12.9661C10.3258 13.0464 10.3033 13.1872 10.3204 13.3456C10.3376 13.504 10.3898 13.6367 10.4529 13.705Z" fill="#73AF00"/>
<path d="M9.34961 13.2345C9.4203 13.2949 9.55492 13.342 9.71383 13.3531C9.87273 13.3643 10.0127 13.3364 10.091 13.2864C10.0203 13.226 9.88572 13.1789 9.72681 13.1678C9.56791 13.1567 9.42803 13.1845 9.34961 13.2345Z" fill="#73AF00"/>
<path d="M10.0911 13.2864C10.1515 13.2158 10.1987 13.0811 10.2098 12.9222C10.2209 12.7633 10.193 12.6234 10.1431 12.545C10.0826 12.6157 10.0355 12.7503 10.0244 12.9092C10.0133 13.0682 10.0411 13.208 10.0911 13.2864Z" fill="#73AF00"/>
<path d="M9.13647 12.6278C9.19291 12.7018 9.31455 12.7762 9.4676 12.8205C9.6206 12.8648 9.76319 12.8669 9.85043 12.8346C9.79399 12.7606 9.67235 12.6863 9.5193 12.642C9.36626 12.5977 9.22366 12.5955 9.13647 12.6278Z" fill="#73AF00"/>
<path d="M9.85036 12.8346C9.92428 12.7781 9.99867 12.6565 10.043 12.5034C10.0873 12.3504 10.0894 12.2079 10.0571 12.1206C9.98316 12.1771 9.90877 12.2987 9.86447 12.4517C9.82017 12.6048 9.81806 12.7474 9.85036 12.8346Z" fill="#73AF00"/>
<path d="M9.04614 11.9195C9.08167 12.0055 9.18011 12.1086 9.31661 12.1908C9.45311 12.273 9.59031 12.3118 9.68294 12.3029C9.64741 12.2169 9.54897 12.1138 9.41247 12.0316C9.27597 11.9494 9.13872 11.9107 9.04614 11.9195Z" fill="#73AF00"/>
<path d="M9.68288 12.3029C9.76885 12.2674 9.87197 12.1689 9.95419 12.0324C10.0364 11.8959 10.0751 11.7587 10.0663 11.6661C9.98035 11.7017 9.87718 11.8001 9.79496 11.9366C9.71283 12.0731 9.67402 12.2103 9.68288 12.3029Z" fill="#73AF00"/>
<path d="M9.13159 11.2508C9.14828 11.3423 9.22295 11.4638 9.33915 11.5727C9.45536 11.6817 9.5815 11.7483 9.67379 11.7592C9.65711 11.6677 9.58244 11.5462 9.46623 11.4372C9.35003 11.3282 9.22398 11.2615 9.13159 11.2508Z" fill="#73AF00"/>
<path d="M9.67383 11.7592C9.76533 11.7425 9.88683 11.6678 9.99581 11.5516C10.1048 11.4354 10.1714 11.3093 10.1822 11.217C10.0907 11.2337 9.96923 11.3083 9.86025 11.4245C9.75131 11.5407 9.68461 11.6668 9.67383 11.7592Z" fill="#73AF00"/>
<path d="M9.46767 10.5271C9.44854 10.6181 9.47165 10.7588 9.53802 10.9037C9.6044 11.0485 9.6959 11.1579 9.77732 11.2028C9.79645 11.1119 9.77334 10.9711 9.70696 10.8263C9.64059 10.6814 9.54909 10.572 9.46767 10.5271Z" fill="#73AF00"/>
<path d="M9.77734 11.2028C9.86833 11.222 10.009 11.1989 10.1539 11.1325C10.2987 11.0661 10.4081 10.9746 10.453 10.8932C10.3621 10.8741 10.2213 10.8972 10.0765 10.9635C9.93166 11.0299 9.82225 11.1214 9.77734 11.2028Z" fill="#73AF00"/>
<path d="M9.86941 9.99123C9.82652 10.0737 9.81096 10.2155 9.83594 10.3728C9.86092 10.5302 9.91961 10.6602 9.98599 10.7253C10.0289 10.6428 10.0444 10.501 10.0195 10.3437C9.99447 10.1863 9.93574 10.0564 9.86941 9.99123Z" fill="#73AF00"/>
<path d="M9.98608 10.7253C10.0686 10.7682 10.2104 10.7837 10.3677 10.7588C10.5251 10.7338 10.655 10.6751 10.7201 10.6087C10.6376 10.5658 10.4958 10.5503 10.3385 10.5752C10.1812 10.6002 10.0512 10.6589 9.98608 10.7253Z" fill="#73AF00"/>
<path d="M10.2635 9.61824C10.2089 9.69357 10.1726 9.83143 10.1741 9.99076C10.1757 10.1501 10.2146 10.2873 10.2706 10.3614C10.3252 10.2861 10.3615 10.1483 10.3599 9.98893C10.3584 9.82965 10.3195 9.6924 10.2635 9.61824Z" fill="#73AF00"/>
<path d="M10.2708 10.3614C10.3461 10.416 10.4839 10.4523 10.6433 10.4508C10.8026 10.4492 10.9398 10.4103 11.014 10.3543C10.9386 10.2997 10.8008 10.2634 10.6414 10.2649C10.4822 10.2665 10.345 10.3054 10.2708 10.3614Z" fill="#73AF00"/>
<path d="M10.4619 10.166C10.5546 10.1735 10.6913 10.1329 10.8266 10.0487C10.9619 9.96464 11.0589 9.86011 11.0932 9.77368C11.0006 9.76618 10.8638 9.80682 10.7285 9.89096C10.5933 9.97505 10.4963 10.0796 10.4619 10.166Z" fill="#73AF00"/>
<path d="M12 14.3273V14.2134C13.256 14.2134 14.2778 13.1916 14.2778 11.9355C14.2778 11.1554 13.8851 10.4378 13.2273 10.0163L13.2887 9.92044C13.9794 10.363 14.3917 11.1163 14.3917 11.9355C14.3917 13.2543 13.3188 14.3273 12 14.3273Z" fill="#73AF00"/>
<path d="M13.369 14.4766C13.2779 14.4951 13.1373 14.4711 12.9929 14.4039C12.8485 14.3365 12.7397 14.2444 12.6953 14.1627C12.7864 14.1441 12.927 14.1681 13.0714 14.2354C13.2158 14.3026 13.3246 14.3949 13.369 14.4766Z" fill="#73AF00"/>
<path d="M12.6953 14.1627C12.6767 14.0715 12.7008 13.931 12.768 13.7866C12.8353 13.6422 12.9274 13.5334 13.0091 13.489C13.0277 13.5801 13.0037 13.7207 12.9364 13.8651C12.8692 14.0094 12.777 14.1182 12.6953 14.1627Z" fill="#73AF00"/>
<path d="M13.8456 14.184C13.7581 14.2158 13.6155 14.2126 13.4629 14.1674C13.3102 14.122 13.189 14.0468 13.1331 13.9725C13.2205 13.9407 13.3631 13.9439 13.5157 13.9892C13.6684 14.0345 13.7896 14.1097 13.8456 14.184Z" fill="#73AF00"/>
<path d="M13.1328 13.9725C13.1011 13.885 13.1042 13.7424 13.1495 13.5898C13.1949 13.4371 13.2701 13.3159 13.3444 13.26C13.3762 13.3474 13.373 13.49 13.3277 13.6427C13.2824 13.7954 13.2072 13.9165 13.1328 13.9725Z" fill="#73AF00"/>
<path d="M14.2861 13.7852C14.2058 13.8322 14.0649 13.8547 13.9066 13.8376C13.7482 13.8204 13.6155 13.7681 13.5471 13.7051C13.6274 13.6582 13.7682 13.6356 13.9266 13.6528C14.085 13.67 14.2177 13.7222 14.2861 13.7852Z" fill="#73AF00"/>
<path d="M13.5473 13.705C13.5004 13.6247 13.4778 13.4839 13.495 13.3255C13.5121 13.1671 13.5644 13.0344 13.6275 12.9661C13.6744 13.0464 13.6969 13.1872 13.6798 13.3456C13.6626 13.504 13.6103 13.6367 13.5473 13.705Z" fill="#73AF00"/>
<path d="M14.6506 13.2345C14.5799 13.2949 14.4452 13.342 14.2864 13.3531C14.1274 13.3643 13.9876 13.3364 13.9092 13.2864C13.9799 13.226 14.1145 13.1789 14.2734 13.1678C14.4323 13.1567 14.5722 13.1845 14.6506 13.2345Z" fill="#73AF00"/>
<path d="M13.9092 13.2864C13.8487 13.2158 13.8016 13.0811 13.7905 12.9222C13.7794 12.7633 13.8073 12.6234 13.8572 12.545C13.9176 12.6157 13.9647 12.7503 13.9759 12.9092C13.987 13.0682 13.9591 13.208 13.9092 13.2864Z" fill="#73AF00"/>
<path d="M14.8639 12.6278C14.8074 12.7018 14.6858 12.7762 14.5327 12.8205C14.3797 12.8648 14.2371 12.8669 14.1499 12.8346C14.2063 12.7606 14.328 12.6863 14.481 12.642C14.6341 12.5977 14.7767 12.5955 14.8639 12.6278Z" fill="#73AF00"/>
<path d="M14.1499 12.8346C14.076 12.7781 14.0016 12.6565 13.9573 12.5034C13.9129 12.3504 13.9108 12.2079 13.9432 12.1206C14.0171 12.1771 14.0915 12.2987 14.1358 12.4517C14.1801 12.6048 14.1822 12.7474 14.1499 12.8346Z" fill="#73AF00"/>
<path d="M14.9542 11.9195C14.9186 12.0055 14.8202 12.1086 14.6837 12.1908C14.5472 12.273 14.41 12.3118 14.3174 12.3029C14.3529 12.2169 14.4514 12.1138 14.5879 12.0316C14.7244 11.9494 14.8616 11.9107 14.9542 11.9195Z" fill="#73AF00"/>
<path d="M14.3172 12.3029C14.2313 12.2674 14.1282 12.1689 14.0459 12.0324C13.9638 11.8959 13.925 11.7587 13.9339 11.6661C14.0198 11.7017 14.123 11.8001 14.2052 11.9366C14.2873 12.0731 14.3261 12.2103 14.3172 12.3029Z" fill="#73AF00"/>
<path d="M14.8686 11.2508C14.8519 11.3423 14.7773 11.4638 14.6611 11.5727C14.5449 11.6817 14.4187 11.7483 14.3264 11.7592C14.3431 11.6677 14.4178 11.5462 14.534 11.4372C14.6502 11.3282 14.7762 11.2615 14.8686 11.2508Z" fill="#73AF00"/>
<path d="M14.3263 11.7592C14.2348 11.7425 14.1133 11.6678 14.0043 11.5516C13.8953 11.4354 13.8287 11.3093 13.8179 11.217C13.9094 11.2337 14.0309 11.3083 14.1399 11.4245C14.2488 11.5407 14.3155 11.6668 14.3263 11.7592Z" fill="#73AF00"/>
<path d="M14.5327 10.5271C14.5518 10.6181 14.5287 10.7588 14.4623 10.9037C14.396 11.0485 14.3045 11.1579 14.223 11.2028C14.2039 11.1119 14.227 10.9711 14.2934 10.8263C14.3597 10.6814 14.4512 10.572 14.5327 10.5271Z" fill="#73AF00"/>
<path d="M14.2228 11.2028C14.1318 11.222 13.9911 11.1989 13.8463 11.1325C13.7014 11.0661 13.5921 10.9746 13.5471 10.8932C13.6381 10.8741 13.7788 10.8972 13.9237 10.9635C14.0685 11.0299 14.1779 11.1214 14.2228 11.2028Z" fill="#73AF00"/>
<path d="M14.1308 9.99123C14.1737 10.0737 14.1892 10.2155 14.1642 10.3728C14.1392 10.5302 14.0806 10.6602 14.0142 10.7253C13.9713 10.6428 13.9557 10.501 13.9807 10.3437C14.0057 10.1864 14.0644 10.0564 14.1308 9.99123Z" fill="#73AF00"/>
<path d="M14.0141 10.7253C13.9316 10.7682 13.7898 10.7837 13.6325 10.7588C13.4751 10.7338 13.3451 10.6751 13.28 10.6087C13.3625 10.5658 13.5043 10.5503 13.6616 10.5752C13.819 10.6002 13.949 10.6589 14.0141 10.7253Z" fill="#73AF00"/>
<path d="M13.7367 9.61824C13.7913 9.69357 13.8275 9.83143 13.826 9.99076C13.8245 10.1501 13.7855 10.2873 13.7295 10.3614C13.6749 10.2861 13.6386 10.1483 13.6402 9.98893C13.6417 9.82965 13.6806 9.6924 13.7367 9.61824Z" fill="#73AF00"/>
<path d="M13.7295 10.3614C13.6542 10.416 13.5163 10.4523 13.357 10.4508C13.1977 10.4492 13.0605 10.4103 12.9863 10.3543C13.0617 10.2997 13.1995 10.2634 13.3588 10.2649C13.5181 10.2665 13.6553 10.3054 13.7295 10.3614Z" fill="#73AF00"/>
<path d="M13.5383 10.166C13.4456 10.1735 13.3089 10.1329 13.1736 10.0487C13.0383 9.9646 12.9413 9.86011 12.907 9.77368C12.9997 9.76618 13.1364 9.80682 13.2717 9.89096C13.407 9.97505 13.5039 10.0796 13.5383 10.166Z" fill="#73AF00"/>
<path d="M10.6944 13.7976L10.2799 14.2121L10.0754 13.8032L10.6888 13.1899L10.8932 13.3943L10.8341 13.5715C10.8057 13.6568 10.7579 13.7341 10.6944 13.7976Z" fill="#966446"/>
<path d="M12.9373 10.7369L10.6886 12.9855C10.6321 13.042 10.6321 13.1335 10.6886 13.19L10.7908 13.2922L11.1996 12.8833L12.8351 11.0434L13.0395 10.839L12.9373 10.7369Z" fill="#B9B9B9"/>
<path d="M11.2421 12.6366C11.215 12.6637 11.1997 12.7005 11.1997 12.7388V12.8833L12.8351 11.0434L11.2421 12.6366Z" fill="#966446"/>
<path d="M13.0396 10.839L12.9374 10.7369L12.8352 10.839L12.9374 10.9413L13.0396 11.0435L14.164 9.71475L13.0396 10.839Z" fill="#A0A0A0"/>
<path d="M13.4195 13.7976L13.834 14.2121L14.0384 13.8032L13.4251 13.1899L13.2207 13.3943L13.2798 13.5715C13.3082 13.6568 13.356 13.7341 13.4195 13.7976Z" fill="#966446"/>
<path d="M11.1765 10.7369L13.4251 12.9855C13.4816 13.042 13.4816 13.1335 13.4251 13.19L13.323 13.2922L12.9141 12.8833L11.2786 11.0434L11.0742 10.839L11.1765 10.7369Z" fill="#B9B9B9"/>
<path d="M12.8719 12.6366C12.8989 12.6637 12.9142 12.7005 12.9142 12.7388V12.8833L11.2788 11.0434L12.8719 12.6366Z" fill="#966446"/>
<path d="M11.0743 10.839L11.1765 10.7369L11.2788 10.839L11.1765 10.9413L11.0743 11.0435L9.94995 9.71475L11.0743 10.839Z" fill="#A0A0A0"/>
<path d="M11.2178 13.7125L11.3194 13.8052C11.6899 13.3988 12.3385 12.6878 13.3665 11.7647C13.3666 11.7648 12.5149 12.2905 11.2178 13.7125Z" fill="#B9B9B9"/>
<path d="M10.9305 14.1296C10.894 14.0963 10.8915 14.0398 10.9247 14.0033L11.1424 13.7646C11.1757 13.7281 11.2322 13.7256 11.2687 13.7588C11.3051 13.7921 11.3077 13.8486 11.2745 13.8851L11.0568 14.1238C11.0235 14.1603 10.967 14.1629 10.9305 14.1296Z" fill="#FFE15A"/>
<path d="M11.1354 13.6373L11.0764 13.6636C11.024 13.6898 10.886 13.7678 10.8622 13.879C10.8509 13.9317 10.8668 13.983 10.9078 14.0316C10.9116 14.0216 10.9169 14.0118 10.9247 14.0034L10.9521 13.9734C10.9335 13.9465 10.9237 13.92 10.9293 13.8935C10.9442 13.824 11.037 13.7618 11.0954 13.731L11.3562 13.9689L11.421 13.8978L11.1354 13.6373Z" fill="#FFC855"/>
<path d="M12.8951 13.825L12.7935 13.9176C12.4229 13.5113 11.7744 12.8002 10.7463 11.8772C10.7463 11.8772 11.598 12.4029 12.8951 13.825Z" fill="#B9B9B9"/>
<path d="M13.1825 14.2421C13.219 14.2088 13.2215 14.1523 13.1883 14.1158L12.9706 13.8772C12.9373 13.8407 12.8808 13.8381 12.8443 13.8713C12.8079 13.9046 12.8053 13.9612 12.8385 13.9976L13.0562 14.2363C13.0895 14.2728 13.146 14.2754 13.1825 14.2421Z" fill="#FFE15A"/>
<path d="M12.9776 13.7498L13.0365 13.7761C13.089 13.8022 13.227 13.8803 13.2507 13.9915C13.2621 14.0442 13.2461 14.0955 13.2052 14.1441C13.2013 14.134 13.196 14.1243 13.1883 14.1159L13.1608 14.0858C13.1794 14.0589 13.1892 14.0325 13.1836 14.006C13.1687 13.9364 13.0759 13.8743 13.0176 13.8435L12.7568 14.0814L12.6919 14.0103L12.9776 13.7498Z" fill="#FFC855"/>
<path d="M12.1014 10.0633C12.1093 10.0435 12.1139 10.0221 12.1139 9.99943C12.1139 9.90507 12.0374 9.82857 11.9431 9.82857C11.8487 9.82857 11.7722 9.90507 11.7722 9.99943C11.7722 10.0556 11.7997 10.1051 11.8417 10.1363C11.7799 10.6324 12.2691 10.6703 12.4556 10.7397C12.7385 10.845 13.0932 11.0579 13.0709 11.653C13.0492 12.2316 12.6834 12.7898 12.6834 12.7898L12.9871 12.3769C12.876 12.8466 12.6167 13.4449 12 14.1564C12 14.1564 12.4217 13.744 12.7735 13.2121C12.5146 13.8211 12.2278 14.3842 12.2278 14.3842C12.2278 14.3842 12.7356 13.7246 13.1461 12.5833C13.6437 11.1997 12.5969 10.3684 12.1014 10.0633Z" fill="#69B469"/>
<path d="M11.6587 12.1063H11.2031V12.3341H11.6587V12.1063Z" fill="#F4E08F"/>
<path d="M11.2032 12.5619C11.329 12.5619 11.431 12.4599 11.431 12.3341C11.431 12.2083 11.329 12.1063 11.2032 12.1063C11.0773 12.1063 10.9753 12.2083 10.9753 12.3341C10.9753 12.4599 11.0773 12.5619 11.2032 12.5619Z" fill="#ECD077"/>
<path d="M11.2032 11.0816C11.329 11.0816 11.431 10.9796 11.431 10.8538C11.431 10.7279 11.329 10.6259 11.2032 10.6259C11.0773 10.6259 10.9753 10.7279 10.9753 10.8538C10.9753 10.9796 11.0773 11.0816 11.2032 11.0816Z" fill="#ECD077"/>
<path d="M12.5694 11.0814C12.6952 11.0814 12.7972 10.9794 12.7972 10.8536C12.7972 10.7278 12.6952 10.6258 12.5694 10.6258H11.2027C11.3285 10.6258 11.4305 10.7278 11.4305 10.8536C11.4305 10.9794 11.3285 11.0814 11.2027 11.0814C11.0769 11.0814 10.9749 10.9794 10.9749 10.8536C10.9749 11.2359 11.2948 11.6982 11.398 12.1064C11.398 12.1064 11.4304 12.2084 11.4304 12.3342C11.4304 12.46 11.3284 12.562 11.2026 12.562H12.5693C12.6951 12.562 12.7971 12.46 12.7971 12.3342C12.7971 11.9519 12.4772 11.4896 12.374 11.0814H12.5694Z" fill="#FCF0A8"/>
<path d="M11.4304 10.8537C11.4304 10.9795 11.3284 11.0815 11.2026 11.0815H12.5693C12.6951 11.0815 12.7971 10.9795 12.7971 10.8537H11.4304Z" fill="#F4E08F"/>
<path d="M11.4304 12.3342C11.4304 12.46 11.3284 12.562 11.2026 12.562H12.5693C12.6951 12.562 12.7971 12.46 12.7971 12.3342H11.4304Z" fill="#F4E08F"/>
</svg>
