<svg width="24" height="24" viewBox="0 0 24 24" fill="none" xmlns="http://www.w3.org/2000/svg">
<g clip-path="url(#clip0_1_3857)">
<path d="M22.2025 4.13789H6.20679V19.862H22.2025C23.1951 19.862 23.9999 19.0573 23.9999 18.0646V5.93532C23.9999 4.9426 23.1952 4.13789 22.2025 4.13789Z" fill="#73AF00"/>
<path d="M1.79742 4.13789C0.804703 4.13789 0 4.9426 0 5.93532V18.0647C0 19.0574 0.804703 19.8621 1.79742 19.8621H6.20691V4.13789H1.79742Z" fill="#F5F5F5"/>
<path d="M19.3151 14.1651C17.4105 15.8617 14.4948 15.6874 12.8015 13.7794C11.1115 11.8749 11.2826 8.95082 13.1871 7.25423C13.1899 7.25175 13.1927 7.24931 13.1955 7.24687C13.2405 7.20731 13.197 7.13545 13.1411 7.1572C11.2628 7.88864 9.93115 9.71559 9.93115 11.8547C9.93115 14.6412 12.1845 16.8979 14.9643 16.8979C16.8872 16.8979 18.5537 15.8159 19.4002 14.2274C19.4284 14.1744 19.3622 14.1229 19.3174 14.1629C19.3167 14.1636 19.3159 14.1643 19.3151 14.1651Z" fill="#F5F5F5"/>
<path d="M16.865 8.09011L17.5269 8.83266L18.4438 8.44679C18.5625 8.39682 18.6765 8.52671 18.6115 8.6379L18.1098 9.49688L18.7601 10.2496C18.8443 10.3471 18.756 10.4956 18.6301 10.4682L17.6582 10.2565L17.1432 11.1076C17.0766 11.2177 16.908 11.1796 16.8952 11.0515L16.7962 10.0617L15.8276 9.8349C15.7022 9.80551 15.6864 9.63347 15.8043 9.58168L16.7151 9.18169L16.6314 8.19052C16.6206 8.06218 16.7794 7.99397 16.865 8.09011Z" fill="#F5F5F5"/>
</g>
<defs>
<clipPath id="clip0_1_3857">
<rect width="24" height="24" fill="white"/>
</clipPath>
</defs>
</svg>
