<svg width="24" height="24" viewBox="0 0 24 24" fill="none" xmlns="http://www.w3.org/2000/svg">
<path d="M22.2026 19.8621H1.79742C0.804703 19.8621 0 19.0574 0 18.0646V5.93536C0 4.94269 0.804703 4.13794 1.79742 4.13794H22.2026C23.1952 4.13794 24 4.94264 24 5.93536V18.0647C24 19.0574 23.1953 19.8621 22.2026 19.8621Z" fill="#F5F5F5"/>
<path d="M24 5.79327H0V7.44843H24V5.79327Z" fill="#FF4B55"/>
<path d="M24 16.5516H0V18.2067H24V16.5516Z" fill="#FF4B55"/>
<path d="M11.6486 10.7268L12.2311 11.4888L13.1407 11.1844C13.1915 11.1673 13.2348 11.2249 13.2043 11.269L12.6596 12.0584L13.2302 12.8294C13.2622 12.8725 13.2208 12.9314 13.1694 12.9161L12.2503 12.642L11.6934 13.4229C11.6623 13.4666 11.5935 13.4455 11.5922 13.3919L11.5688 12.433L10.654 12.1447C10.6029 12.1286 10.6017 12.0566 10.6523 12.0388L11.5569 11.7203L11.5485 10.7612C11.548 10.7075 11.616 10.6842 11.6486 10.7268Z" fill="#FF4B55"/>
<path d="M8.64802 14.9813C7.00294 14.9813 5.66846 13.6469 5.66846 12.0003C5.66846 10.3567 7.00294 9.01926 8.64802 9.01926C9.26007 9.01926 9.82454 9.20746 10.2949 9.52612C10.367 9.57491 10.4491 9.48023 10.3889 9.41755C9.68588 8.68663 8.69086 8.24076 7.58771 8.27844C5.69236 8.34309 4.12336 9.86273 4.00224 11.7553C3.86354 13.923 5.57996 15.7245 7.71708 15.7245C8.76975 15.7245 9.71588 15.2844 10.3915 14.5807C10.4512 14.5186 10.3688 14.4254 10.2975 14.4737C9.8265 14.7929 9.26115 14.9813 8.64802 14.9813Z" fill="#FF4B55"/>
</svg>
