<svg width="24" height="24" viewBox="0 0 24 24" fill="none" xmlns="http://www.w3.org/2000/svg">
<path d="M23.5862 12H12V19.4483C12 19.6768 11.8147 19.8621 11.5862 19.8621H22.2026C23.1952 19.8621 24 19.0574 24 18.0647V11.5862C24 11.8147 23.8147 12 23.5862 12Z" fill="#F5F5F5"/>
<path d="M0.413813 12H12V4.55171C12 4.32319 12.1853 4.13789 12.4138 4.13789H1.79742C0.804703 4.13794 0 4.94264 0 5.93536V12.4138C0 12.1853 0.185297 12 0.413813 12Z" fill="#F5F5F5"/>
<path d="M22.2026 4.13794H12.4138C12.1853 4.13794 12 4.32324 12 4.55175V12H23.5862C23.8147 12 24 11.8147 24 11.5862V5.93536C24 4.94264 23.1953 4.13794 22.2026 4.13794Z" fill="#FF4B55"/>
<path d="M12 19.4483V12H0.413813C0.185297 12 0 12.1853 0 12.4138V18.0647C0 19.0574 0.804703 19.8621 1.79742 19.8621H11.5862C11.8147 19.8621 12 19.6768 12 19.4483Z" fill="#4173CD"/>
<path d="M6.15941 6.30408L6.55391 7.48693L7.80079 7.49658C7.96222 7.4978 8.02916 7.70387 7.89927 7.79972L6.89624 8.5404L7.27232 9.72924C7.32097 9.88318 7.14575 10.0104 7.01441 9.9166L6.00003 9.19158L4.98561 9.91665C4.85427 10.0105 4.67905 9.88318 4.72771 9.72929L5.10378 8.54044L4.10075 7.79977C3.97086 7.70387 4.03785 7.49785 4.19924 7.49663L5.44611 7.48697L5.84061 6.30413C5.89171 6.15099 6.10836 6.15099 6.15941 6.30408Z" fill="#4173CD"/>
<path d="M18.1594 14.1661L18.5539 15.349L19.8008 15.3586C19.9622 15.3599 20.0292 15.5659 19.8993 15.6618L18.8962 16.4024L19.2723 17.5913C19.321 17.7452 19.1458 17.8725 19.0144 17.7787L18 17.0536L16.9856 17.7787C16.8543 17.8726 16.6791 17.7452 16.7277 17.5913L17.1038 16.4025L16.1008 15.6618C15.9709 15.5659 16.0378 15.3599 16.1992 15.3587L17.4461 15.349L17.8406 14.1662C17.8917 14.013 18.1084 14.013 18.1594 14.1661Z" fill="#FF4B55"/>
</svg>
