<svg width="24" height="24" viewBox="0 0 24 24" fill="none" xmlns="http://www.w3.org/2000/svg">
<g clip-path="url(#clip0_1_3969)">
<path d="M1.79742 19.8619H8.00002V4.1378H1.79742C0.804703 4.1378 0 4.94251 0 5.93522V18.0646C0 19.0572 0.804703 19.8619 1.79742 19.8619Z" fill="#464655"/>
<path d="M16.0004 4.13799H8.00024V19.8622H16.0004V4.13799Z" fill="#FF4B55"/>
<path d="M22.2025 19.8619C23.1952 19.8619 24 19.0572 24 18.0645V5.93522C24 4.94255 23.1953 4.1378 22.2025 4.1378H16V19.8619H22.2025Z" fill="#73AF00"/>
<path d="M11.4 11.6113H11.04V11.7313H11.4V11.6113Z" fill="#F5F5F5"/>
<path d="M13.08 12.8111H10.9202L11.0402 12.5712H12.96L13.08 12.8111Z" fill="#F5F5F5"/>
<path d="M13.08 10.8913H10.9202L11.0402 11.1313H12.96L13.08 10.8913Z" fill="#F5F5F5"/>
<path d="M12.6001 11.0113H11.4001L11.6401 10.7713H12.3601L12.6001 11.0113Z" fill="#F5F5F5"/>
<path d="M11.4 12.2113H11.04V12.4513H11.4V12.2113Z" fill="#F5F5F5"/>
<path d="M11.4 11.8513H11.04V12.0913H11.4V11.8513Z" fill="#F5F5F5"/>
<path d="M11.4 11.2513H11.04V11.4913H11.4V11.2513Z" fill="#F5F5F5"/>
<path d="M12.9601 12.2113H12.6001V12.4513H12.9601V12.2113Z" fill="#F5F5F5"/>
<path d="M12.9601 11.8513H12.6001V12.0913H12.9601V11.8513Z" fill="#F5F5F5"/>
<path d="M12.9601 11.2513H12.6001V11.4913H12.9601V11.2513Z" fill="#F5F5F5"/>
<path d="M12.9601 11.6113H12.6001V11.7313H12.9601V11.6113Z" fill="#F5F5F5"/>
<path d="M11.3999 10.2913H11.1599V10.7712H11.3999V10.2913Z" fill="#F5F5F5"/>
<path d="M11.4002 10.1714H11.1602V10.0514C11.1602 9.98507 11.2139 9.93135 11.2802 9.93135C11.3464 9.93135 11.4002 9.98507 11.4002 10.0514V10.1714Z" fill="#F5F5F5"/>
<path d="M12.8401 10.2913H12.6001V10.7712H12.8401V10.2913Z" fill="#F5F5F5"/>
<path d="M12.8399 10.1714H12.5999V10.0514C12.5999 9.98507 12.6536 9.93135 12.7199 9.93135C12.7861 9.93135 12.8399 9.98507 12.8399 10.0514V10.1714Z" fill="#F5F5F5"/>
<path d="M12 11.2513C11.7349 11.2513 11.52 11.4661 11.52 11.7312V12.4512H12.4799V11.7312C12.4799 11.4662 12.2651 11.2513 12 11.2513Z" fill="#F5F5F5"/>
<path d="M11.2057 12.0072L10.5524 11.245C10.5566 11.2327 10.5602 11.22 10.5602 11.2063C10.5602 11.14 10.5065 11.0863 10.4402 11.0863C10.3739 11.0863 10.3202 11.14 10.3202 11.2063C10.3202 11.2726 10.3739 11.3263 10.4402 11.3263C10.4474 11.3263 10.4537 11.3234 10.4605 11.3222L10.5281 11.4011L10.2002 12.1663L10.5601 12.5262L10.871 11.8011L11.1146 12.0853L11.2057 12.0072ZM10.622 12.2579L10.3348 11.9706L10.4643 11.6683L10.7515 11.9555L10.622 12.2579Z" fill="#F5F5F5"/>
<path d="M12.8884 12.0852L13.1321 11.801L13.4429 12.5262L13.8028 12.1662L13.4749 11.4011L13.5425 11.3222C13.5494 11.3234 13.5556 11.3263 13.5628 11.3263C13.6291 11.3263 13.6828 11.2725 13.6828 11.2063C13.6828 11.14 13.6291 11.0863 13.5628 11.0863C13.4966 11.0863 13.4428 11.14 13.4428 11.2063C13.4428 11.22 13.4464 11.2327 13.4507 11.245L12.7974 12.0071L12.8884 12.0852ZM13.2515 11.9555L13.5387 11.6683L13.6683 11.9706L13.3811 12.2579L13.2515 11.9555Z" fill="#F5F5F5"/>
<path d="M12.1358 10.0723C12.0981 10.0612 12.0644 10.0406 12.0431 10.0076C12.0289 9.98555 12.0145 9.96047 12 9.93146C11.9855 9.96047 11.971 9.98555 11.9568 10.0076C11.9355 10.0407 11.9019 10.0613 11.8642 10.0723C11.6654 10.1309 11.52 10.3136 11.52 10.5314C11.52 10.573 11.527 10.6128 11.537 10.6514H12.463C12.4729 10.6128 12.4799 10.573 12.4799 10.5314C12.4799 10.3136 12.3345 10.1309 12.1358 10.0723Z" fill="#F5F5F5"/>
<path d="M9.25032 11.8372C9.24423 11.7626 9.24029 11.6874 9.24029 11.6113C9.24029 11.4571 9.25426 11.3056 9.27901 11.1568C9.3136 11.1808 9.34984 11.2071 9.38748 11.2367C9.3699 11.3597 9.3602 11.4847 9.3602 11.6113C9.3602 11.7 9.36474 11.7877 9.37332 11.8741L9.62696 11.9503C9.61112 11.8392 9.60015 11.7266 9.60015 11.6113C9.60015 11.5539 9.60357 11.4972 9.60812 11.4407C9.74059 11.5876 9.84512 11.7651 9.84512 11.9612C9.84512 11.9663 10.2301 11.3913 9.53017 10.7564L9.52515 11.0263L9.12203 11.0221C9.0857 11.0217 9.05373 11.0475 9.0474 11.0833C9.01674 11.2557 9.00024 11.4321 9.00024 11.6113C9.00024 11.6622 9.0016 11.7128 9.00409 11.7632L9.25032 11.8372Z" fill="#F5F5F5"/>
<path d="M10.3149 9.42637C10.3673 9.38592 10.377 9.31059 10.3365 9.25809C10.2959 9.20559 10.2206 9.19612 10.1682 9.23653C9.62511 9.65592 9.25246 10.2321 9.09106 10.8775L9.33838 10.8807C9.494 10.3095 9.8308 9.80025 10.3149 9.42637Z" fill="#F5F5F5"/>
<path d="M10.1542 9.72566C9.8932 9.98123 9.69567 10.282 9.56128 10.6087C9.63548 10.6697 9.69628 10.7313 9.74676 10.7926C9.8677 10.4594 10.0603 10.1536 10.3221 9.89723C10.3695 9.85082 10.3702 9.77488 10.3239 9.72759C10.2774 9.68005 10.2015 9.67926 10.1542 9.72566Z" fill="#F5F5F5"/>
<path d="M9.7372 13.1844C9.55926 12.9291 9.42328 12.6427 9.33886 12.3352L9.47836 12.3865C9.5655 12.6671 9.69773 12.9281 9.86704 13.1607L10.1319 13.1122C9.98236 12.9263 9.85945 12.7183 9.76968 12.4935L9.92625 12.5511C10.0156 12.7472 10.13 12.9276 10.2663 13.0876L10.5419 13.0371C10.4335 12.9265 10.3387 12.802 10.2571 12.6676L10.0974 12.3483C10.0481 12.2497 9.96032 12.1758 9.85471 12.1442L9.477 12.0306L9.38967 12.0044L9.26395 11.9666L9.01387 11.8915L8.88037 11.8513L8.96297 12.0992C8.98111 12.1536 9.01781 12.1991 9.06553 12.2289C9.14189 12.5915 9.2835 12.9302 9.47803 13.232L9.7372 13.1844Z" fill="#F5F5F5"/>
<path d="M14.4747 11.0263L14.4697 10.7564C13.7697 11.3913 14.1547 11.9663 14.1547 11.9612C14.1547 11.7651 14.2592 11.5876 14.3917 11.4407C14.3963 11.4972 14.3997 11.5539 14.3997 11.6113C14.3997 11.7267 14.3887 11.8393 14.3729 11.9503L14.6265 11.8741C14.6351 11.7877 14.6396 11.7 14.6396 11.6113C14.6396 11.4847 14.63 11.3597 14.6123 11.2367C14.65 11.2072 14.6863 11.1808 14.7208 11.1568C14.7456 11.3055 14.7595 11.4572 14.7595 11.6113C14.7595 11.6874 14.7556 11.7626 14.7495 11.8372L14.9956 11.7632C14.9982 11.7128 14.9995 11.6622 14.9995 11.6113C14.9995 11.4321 14.9829 11.2557 14.9523 11.0833C14.946 11.0475 14.914 11.0217 14.8777 11.0221L14.4747 11.0263Z" fill="#F5F5F5"/>
<path d="M14.6616 10.8808L14.9089 10.8776C14.7474 10.2322 14.3748 9.65597 13.8318 9.23658C13.7793 9.19613 13.7041 9.20564 13.6635 9.25814C13.623 9.31064 13.6326 9.38602 13.6851 9.42642C14.1691 9.80025 14.5059 10.3095 14.6616 10.8808Z" fill="#F5F5F5"/>
<path d="M14.4386 10.6087C14.3042 10.282 14.1067 9.98123 13.8458 9.72567C13.7984 9.67926 13.7226 9.6801 13.6761 9.72754C13.6297 9.77489 13.6306 9.85082 13.6779 9.89718C13.9397 10.1535 14.1323 10.4594 14.2532 10.7925C14.3036 10.7313 14.3644 10.6697 14.4386 10.6087Z" fill="#F5F5F5"/>
<path d="M14.9861 11.8913L14.736 11.9665L14.6103 12.0043L14.523 12.0305L14.1452 12.144C14.0396 12.1757 13.9517 12.2496 13.9025 12.3482L13.7428 12.6675C13.6612 12.8018 13.5664 12.9264 13.458 13.037L13.7336 13.0875C13.8699 12.9275 13.9844 12.7471 14.0737 12.5509L14.2302 12.4934C14.1404 12.7181 14.0175 12.9262 13.868 13.1121L14.1329 13.1605C14.3023 12.9279 14.4344 12.667 14.5216 12.3863L14.6611 12.3351C14.5766 12.6426 14.4406 12.929 14.2627 13.1842L14.5219 13.2317C14.7164 12.9299 14.858 12.5911 14.9344 12.2286C14.9821 12.1987 15.0188 12.1533 15.0369 12.0989L15.1195 11.851L14.9861 11.8913Z" fill="#F5F5F5"/>
<path d="M13.2506 13.218L13.2444 13.2234C12.8953 13.4929 12.4618 13.651 12.0001 13.651C11.5385 13.651 11.1049 13.4929 10.7558 13.2234L10.7496 13.218C10.7043 13.1681 10.6362 13.1458 10.5702 13.1591L9.36035 13.4111L9.6288 13.6464C9.70062 13.7093 9.79287 13.7387 9.8846 13.7333C10.1006 13.9485 10.3488 14.1313 10.6216 14.2734L10.543 14.4185C10.9765 14.6542 11.4729 14.7882 12.0001 14.7882C12.5272 14.7882 13.0236 14.6542 13.4571 14.4185L13.3785 14.2734C13.6514 14.1313 13.8995 13.9484 14.1155 13.7333C14.2073 13.7387 14.2996 13.7093 14.3714 13.6464L14.6398 13.4111L13.43 13.1591C13.364 13.1458 13.2959 13.1681 13.2506 13.218ZM10.7364 14.0616C10.5189 13.9484 10.3197 13.8055 10.1405 13.6411L10.257 13.5855C10.4197 13.7295 10.5987 13.8556 10.7932 13.9566L10.7364 14.0616ZM13.8596 13.6411C13.6804 13.8055 13.4813 13.9484 13.2638 14.0616L13.2069 13.9566C13.4014 13.8557 13.5803 13.7296 13.7431 13.5856L13.8596 13.6411ZM12.0001 14.011C11.4286 14.011 10.9049 13.8082 10.4926 13.4732L10.6123 13.4161C11.0016 13.716 11.4854 13.891 12 13.891C12.5146 13.891 12.9984 13.716 13.3876 13.4161L13.5073 13.4732C13.0953 13.8082 12.5716 14.011 12.0001 14.011Z" fill="#F5F5F5"/>
<path d="M10.6833 13.0479C10.7349 13.0915 10.7883 13.1327 10.844 13.1711H13.156C13.2116 13.1327 13.2651 13.0915 13.3166 13.0479L13.1999 12.9312H10.8002L10.6833 13.0479Z" fill="#F5F5F5"/>
</g>
<defs>
<clipPath id="clip0_1_3969">
<rect width="24" height="24" fill="white"/>
</clipPath>
</defs>
</svg>
