<svg width="24" height="24" viewBox="0 0 24 24" fill="none" xmlns="http://www.w3.org/2000/svg">
<path d="M22.2025 19.862H1.79742C0.80475 19.862 0 19.0573 0 18.0646V5.93539C0 4.94272 0.804703 4.13797 1.79742 4.13797H22.2025C23.1952 4.13797 24 4.94267 24 5.93539V18.0647C24 19.0573 23.1952 19.862 22.2025 19.862Z" fill="#41479B"/>
<path d="M7.03444 6.64917V4.13799H4.96547V6.64922L1.25831 4.22039C0.825469 4.35633 0.463594 4.65178 0.240609 5.03761L3.28852 7.03453H0V9.1035H3.28842L0 11.2579V11.5876C0.000796875 11.8155 0.185672 12 0.413719 12H1.13245L4.96542 9.48877V12H7.03439V9.48877L10.8674 12H11.5861C11.8146 12 11.9999 11.8147 11.9999 11.5862V11.258L8.71139 9.10346H11.9999V7.03453H8.71139L11.9999 4.87997V4.55175C11.9999 4.32328 11.8147 4.13808 11.5863 4.13794H10.8674L7.03444 6.64917Z" fill="#F5F5F5"/>
<path d="M12 7.44828H6.62067V4.13797H5.37928V7.44828H0V8.68967H5.37928V12H6.62067V8.68967H12V7.44828Z" fill="#FF4B55"/>
<path d="M0.385742 4.82357L3.79173 7.03448H4.55176L0.684805 4.52432C0.573758 4.61203 0.473398 4.71248 0.385742 4.82357Z" fill="#FF4B55"/>
<path d="M7.79446 7.03452L11.937 4.34549C11.865 4.22366 11.738 4.13797 11.5861 4.13797H11.4966L7.03442 7.03452H7.79446Z" fill="#FF4B55"/>
<path d="M4.19418 9.10349L0.0595703 11.7873C0.130773 11.9121 0.259867 11.9999 0.413898 11.9999H0.491945L4.95421 9.10339H4.19418V9.10349Z" fill="#FF4B55"/>
<path d="M11.9934 11.6187L8.11838 9.10349H7.3584L11.7587 11.9598C11.8906 11.8986 11.9809 11.7704 11.9934 11.6187Z" fill="#FF4B55"/>
<path d="M18.1757 8.02148H15.4666C15.4666 8.02148 15.4666 11.5275 15.4666 12.9618C15.4666 14.0773 18.1757 15.1929 18.1757 15.1929C18.1757 15.1929 20.8849 14.0774 20.8849 12.9618C20.8849 11.5275 20.8849 8.02148 20.8849 8.02148H18.1757Z" fill="#73AF00"/>
<path d="M16.5897 11.7911C16.5897 11.7911 16.5745 11.7386 16.588 11.6912C16.6016 11.6438 16.5667 11.6004 16.5592 11.5593C16.5389 11.4476 16.6337 11.4188 16.6387 11.3191C16.6387 11.3191 16.7064 11.3885 16.6811 11.4545C16.6557 11.5205 16.7183 11.5306 16.7099 11.5932C16.7014 11.6557 16.632 11.7217 16.6388 11.7776L16.5897 11.7911Z" fill="#FF4B55"/>
<path d="M17.6549 11.6851C17.5996 11.6159 17.5025 11.6904 17.4314 11.7446C17.4215 11.7522 17.4131 11.758 17.4044 11.7644L17.1422 11.3772C17.1496 11.3662 17.1549 11.3537 17.1549 11.3394C17.1549 11.3008 17.1237 11.2696 17.0851 11.2696C17.0464 11.2696 17.0152 11.3008 17.0152 11.3394C17.0152 11.3537 17.0206 11.3662 17.0279 11.3772L16.7574 11.7766H16.566C16.566 11.7766 16.558 11.8956 16.7671 11.91C16.7941 11.9508 16.8325 11.9833 16.8785 12.0017C16.8569 12.0052 16.8395 12.0219 16.8395 12.0445V12.0725C16.8395 12.0743 16.8412 12.0753 16.8413 12.0771H17.3284C17.3286 12.0754 17.3303 12.0743 17.3303 12.0725V12.0445C17.3303 12.0217 17.3126 12.0046 17.2906 12.0015C17.3721 11.9687 17.4294 11.8924 17.4391 11.8018C17.4466 11.7962 17.4537 11.791 17.462 11.7848C17.5134 11.7453 17.5908 11.6852 17.6155 11.7167C17.6217 11.7243 17.6211 11.7286 17.6208 11.7302C17.618 11.7484 17.579 11.7747 17.5476 11.7957C17.4983 11.8289 17.4472 11.8633 17.4432 11.912C17.442 11.926 17.4523 11.938 17.4661 11.9393C17.4668 11.9393 17.4676 11.9393 17.4683 11.9393C17.4812 11.9393 17.4923 11.9293 17.4933 11.9162C17.4953 11.8915 17.5399 11.8616 17.5757 11.8376C17.6213 11.8068 17.6644 11.778 17.6706 11.7379C17.6734 11.7194 17.6681 11.7017 17.6549 11.6851ZM17.2068 11.7765C17.1924 11.7214 17.1584 11.6686 17.1158 11.6494C17.1383 11.6379 17.1542 11.615 17.1542 11.588C17.1542 11.5495 17.123 11.5181 17.0844 11.5181C17.0459 11.5181 17.0146 11.5494 17.0146 11.588C17.0146 11.615 17.0304 11.6379 17.0529 11.6494C17.0104 11.6685 16.9763 11.7214 16.962 11.7765H16.8183L17.0692 11.4059C17.0744 11.4071 17.0795 11.4091 17.0851 11.4091C17.0907 11.4091 17.0957 11.4071 17.101 11.4059L17.3519 11.7765H17.2068Z" fill="#FFE15A"/>
<path d="M18.0032 9.42917C18.0032 9.42917 17.7509 9.3545 17.638 10.2376C17.638 10.2376 17.0205 11.0228 17.0005 11.0693C16.9806 11.1158 16.9989 11.4494 17.0653 11.4229C17.1317 11.3963 17.2513 11.2419 17.2446 11.129C17.238 11.0161 17.2889 10.9531 17.3392 10.8966C17.4338 10.7904 17.9667 10.309 17.9867 10.2027C18.0065 10.0965 18.0032 9.42917 18.0032 9.42917Z" fill="#FFC8B9"/>
<path d="M18.3949 9.26152C18.3949 9.26152 18.785 9.21005 18.8995 9.60848C18.8995 9.60848 18.5791 9.78445 18.619 10.0135C18.6588 10.2426 18.614 11.2884 18.614 11.2884C18.0015 11.4876 17.6777 11.2386 17.6777 11.2386C17.6777 11.2386 17.8371 10.646 17.8122 10.1629C17.8122 10.1629 17.6678 10.0534 17.7027 9.92887C17.7375 9.80437 17.8272 9.66492 17.8571 9.56034C17.887 9.45577 17.9666 9.28144 18.1609 9.26648C18.355 9.25158 18.3949 9.26152 18.3949 9.26152Z" fill="#F5F5F5"/>
<path d="M17.7907 11.1224C17.7907 11.1224 17.4853 12.2778 17.5915 13.8515C17.5915 13.8515 18.5444 13.9777 19.0624 13.7884C19.0624 13.7884 18.7935 11.9059 18.5345 11.1689L17.7907 11.1224Z" fill="#F5F5F5"/>
<path d="M17.97 8.58099V9.05963C17.97 9.11218 18.0126 9.15479 18.0651 9.15479H18.0737C18.1108 9.15479 18.141 9.18493 18.141 9.22215V9.33657C18.141 9.33657 18.2051 9.5041 18.4547 9.30807V8.58456L17.97 8.58099Z" fill="#FFC8B9"/>
<path d="M17.9135 8.48296C17.8981 8.52164 17.9144 8.62654 18.0098 8.61909C18.129 8.60976 18.2729 8.6091 18.3053 8.7411C18.3354 8.86378 18.3153 9.1702 18.4481 9.19017C18.5809 9.21009 18.7315 9.12182 18.7286 8.85815C18.7261 8.62574 18.5742 8.34768 18.3617 8.39001C18.3617 8.39001 18.1733 8.25801 18.0629 8.4066C18.063 8.4066 17.9468 8.39995 17.9135 8.48296Z" fill="#8C5A28"/>
<path d="M18.8996 9.60849C18.8996 9.60849 19.0356 10.504 19.0291 10.578C19.0225 10.6543 18.5477 11.3881 18.5742 11.4678C18.6008 11.5475 18.6273 11.6537 18.4813 11.6936C18.3352 11.7334 18.3501 11.5002 18.3899 11.3806C18.4297 11.2611 18.7634 10.6245 18.7634 10.5515C18.7634 10.4784 18.5742 10.007 18.6207 9.82102C18.6672 9.63502 18.8996 9.60849 18.8996 9.60849Z" fill="#FFC8B9"/>
<path d="M15.992 8.96539C15.992 8.96539 15.9768 8.91294 15.9903 8.86555C16.0039 8.81816 15.969 8.77471 15.9616 8.7336C15.9413 8.62194 16.036 8.59316 16.0411 8.49341C16.0411 8.49341 16.1087 8.56278 16.0834 8.62878C16.058 8.69478 16.1206 8.70491 16.1122 8.76749C16.1038 8.83006 16.0343 8.89606 16.0411 8.95189L15.992 8.96539Z" fill="#FF4B55"/>
<path d="M17.0573 8.85938C17.0019 8.79019 16.9048 8.86472 16.8338 8.91891C16.8239 8.9265 16.8155 8.93232 16.8067 8.93869L16.5446 8.55155C16.5519 8.54049 16.5572 8.52797 16.5572 8.51372C16.5572 8.47514 16.526 8.44388 16.4874 8.44388C16.4488 8.44388 16.4176 8.4751 16.4176 8.51372C16.4176 8.52802 16.4229 8.54053 16.4302 8.55155L16.1598 8.95088H15.9683C15.9683 8.95088 15.9604 9.06989 16.1694 9.08433C16.1964 9.12516 16.2348 9.15764 16.2809 9.17602C16.2593 9.17953 16.2418 9.19622 16.2418 9.21886V9.24685C16.2418 9.24863 16.2435 9.24966 16.2437 9.25139H16.7308C16.731 9.24971 16.7326 9.24868 16.7326 9.24685V9.21886C16.7326 9.19599 16.7149 9.17892 16.6929 9.17578C16.7745 9.14297 16.8317 9.06671 16.8414 8.9761C16.849 8.97047 16.8561 8.96532 16.8643 8.95908C16.9157 8.91961 16.9932 8.85952 17.0179 8.89097C17.024 8.89866 17.0234 8.90293 17.0232 8.90447C17.0204 8.92275 16.9813 8.949 16.95 8.97005C16.9006 9.00319 16.8496 9.0376 16.8455 9.08635C16.8443 9.10027 16.8546 9.11232 16.8685 9.11363C16.8692 9.11363 16.87 9.11363 16.8706 9.11363C16.8836 9.11363 16.8946 9.10364 16.8957 9.09061C16.8977 9.06591 16.9422 9.036 16.978 9.012C17.0236 8.98121 17.0667 8.95233 17.0729 8.9123C17.0758 8.89378 17.0705 8.87611 17.0573 8.85938ZM16.6092 8.95083C16.5947 8.8958 16.5607 8.84292 16.5182 8.8238C16.5407 8.81222 16.5566 8.78939 16.5566 8.76235C16.5566 8.72382 16.5254 8.6925 16.4867 8.6925C16.4482 8.6925 16.4169 8.72372 16.4169 8.76235C16.4169 8.78939 16.4327 8.81222 16.4553 8.8238C16.4128 8.84288 16.3787 8.89575 16.3643 8.95083H16.2206L16.4716 8.58028C16.4768 8.5815 16.4818 8.58347 16.4874 8.58347C16.4931 8.58347 16.4981 8.5815 16.5033 8.58028L16.7543 8.95083H16.6092Z" fill="#FFE15A"/>
<path d="M15.992 9.90726C15.992 9.90726 15.9768 9.8548 15.9903 9.80741C16.0039 9.76002 15.969 9.71657 15.9616 9.67546C15.9413 9.5638 16.036 9.53502 16.0411 9.43527C16.0411 9.43527 16.1087 9.50465 16.0834 9.57065C16.0581 9.63665 16.1206 9.64677 16.1122 9.70935C16.1038 9.77193 16.0343 9.83793 16.0411 9.89376L15.992 9.90726Z" fill="#FF4B55"/>
<path d="M17.0573 9.80127C17.0019 9.73209 16.9048 9.80662 16.8338 9.8608C16.8239 9.8684 16.8155 9.87421 16.8067 9.88059L16.5446 9.49344C16.5519 9.48238 16.5572 9.46987 16.5572 9.45562C16.5572 9.41704 16.526 9.38577 16.4874 9.38577C16.4488 9.38577 16.4176 9.41699 16.4176 9.45562C16.4176 9.46991 16.4229 9.48243 16.4302 9.49344L16.1598 9.89277H15.9683C15.9683 9.89277 15.9604 10.0118 16.1694 10.0262C16.1964 10.0671 16.2348 10.0995 16.2809 10.1179C16.2593 10.1214 16.2418 10.1381 16.2418 10.1608V10.1887C16.2418 10.1905 16.2435 10.1916 16.2437 10.1933H16.7308C16.731 10.1916 16.7326 10.1906 16.7326 10.1887V10.1608C16.7326 10.1379 16.7149 10.1208 16.6929 10.1176C16.7745 10.0848 16.8317 10.0086 16.8414 9.91794C16.849 9.91232 16.8561 9.90716 16.8643 9.90093C16.9157 9.86146 16.9932 9.80137 17.0179 9.83282C17.024 9.84051 17.0234 9.84477 17.0232 9.84632C17.0204 9.8646 16.9813 9.89085 16.95 9.9119C16.9006 9.94504 16.8496 9.97944 16.8455 10.0282C16.8443 10.0421 16.8546 10.0542 16.8685 10.0554C16.8692 10.0554 16.87 10.0554 16.8706 10.0554C16.8836 10.0554 16.8946 10.0454 16.8957 10.0324C16.8977 10.0077 16.9422 9.9778 16.978 9.9538C17.0236 9.92301 17.0667 9.89413 17.0729 9.8541C17.0758 9.83568 17.0705 9.81801 17.0573 9.80127ZM16.6092 9.89273C16.5947 9.83769 16.5607 9.78482 16.5182 9.7657C16.5407 9.75412 16.5566 9.73129 16.5566 9.70424C16.5566 9.66571 16.5254 9.6344 16.4867 9.6344C16.4482 9.6344 16.4169 9.66562 16.4169 9.70424C16.4169 9.73129 16.4327 9.75412 16.4553 9.7657C16.4128 9.78477 16.3787 9.83765 16.3643 9.89273H16.2206L16.4716 9.52218C16.4768 9.5234 16.4818 9.52537 16.4874 9.52537C16.4931 9.52537 16.4981 9.5234 16.5033 9.52218L16.7543 9.89273H16.6092Z" fill="#FFE15A"/>
<path d="M15.992 10.8492C15.992 10.8492 15.9768 10.7967 15.9903 10.7493C16.0039 10.7019 15.969 10.6585 15.9616 10.6174C15.9413 10.5057 16.036 10.4769 16.0411 10.3772C16.0411 10.3772 16.1087 10.4466 16.0834 10.5126C16.058 10.5786 16.1206 10.5887 16.1122 10.6513C16.1038 10.7139 16.0343 10.7799 16.0411 10.8357L15.992 10.8492Z" fill="#FF4B55"/>
<path d="M17.0573 10.7431C17.0019 10.6739 16.9048 10.7485 16.8338 10.8027C16.8239 10.8103 16.8155 10.8161 16.8067 10.8224L16.5446 10.4353C16.5519 10.4242 16.5572 10.4117 16.5572 10.3975C16.5572 10.3589 16.526 10.3276 16.4874 10.3276C16.4488 10.3276 16.4176 10.3589 16.4176 10.3975C16.4176 10.4118 16.4229 10.4243 16.4302 10.4353L16.1598 10.8346H15.9683C15.9683 10.8346 15.9604 10.9537 16.1694 10.9681C16.1964 11.0089 16.2348 11.0414 16.2809 11.0598C16.2593 11.0633 16.2418 11.08 16.2418 11.1026V11.1306C16.2418 11.1324 16.2435 11.1334 16.2437 11.1352H16.7308C16.731 11.1335 16.7326 11.1324 16.7326 11.1306V11.1026C16.7326 11.0797 16.7149 11.0627 16.6929 11.0595C16.7745 11.0267 16.8317 10.9505 16.8414 10.8599C16.849 10.8542 16.8561 10.8491 16.8643 10.8428C16.9157 10.8034 16.9932 10.7433 17.0179 10.7747C17.024 10.7824 17.0234 10.7867 17.0232 10.7882C17.0204 10.8065 16.9813 10.8328 16.95 10.8538C16.9006 10.8869 16.8496 10.9214 16.8455 10.9701C16.8443 10.984 16.8546 10.9961 16.8685 10.9974C16.8692 10.9974 16.87 10.9974 16.8706 10.9974C16.8836 10.9974 16.8946 10.9874 16.8957 10.9744C16.8977 10.9497 16.9422 10.9198 16.978 10.8958C17.0236 10.865 17.0667 10.8361 17.0729 10.7961C17.0758 10.7775 17.0705 10.7598 17.0573 10.7431ZM16.6092 10.8346C16.5947 10.7796 16.5607 10.7267 16.5182 10.7076C16.5407 10.696 16.5566 10.6732 16.5566 10.6462C16.5566 10.6076 16.5254 10.5763 16.4867 10.5763C16.4482 10.5763 16.4169 10.6075 16.4169 10.6462C16.4169 10.6732 16.4327 10.696 16.4553 10.7076C16.4128 10.7267 16.3787 10.7796 16.3643 10.8346H16.2206L16.4716 10.4641C16.4768 10.4653 16.4818 10.4673 16.4874 10.4673C16.4931 10.4673 16.4981 10.4653 16.5033 10.4641L16.7543 10.8346H16.6092Z" fill="#FFE15A"/>
<path d="M15.992 12.7329C15.992 12.7329 15.9768 12.6804 15.9903 12.633C16.0039 12.5856 15.969 12.5422 15.9616 12.5011C15.9413 12.3894 16.036 12.3606 16.0411 12.2609C16.0411 12.2609 16.1087 12.3303 16.0834 12.3963C16.0581 12.4623 16.1206 12.4724 16.1122 12.535C16.1038 12.5976 16.0343 12.6635 16.0411 12.7194L15.992 12.7329Z" fill="#FF4B55"/>
<path d="M17.0573 12.6269C17.0019 12.5577 16.9048 12.6323 16.8338 12.6864C16.8239 12.694 16.8155 12.6998 16.8067 12.7062L16.5446 12.3191C16.5519 12.3081 16.5572 12.2956 16.5572 12.2813C16.5572 12.2427 16.526 12.2115 16.4874 12.2115C16.4488 12.2115 16.4176 12.2427 16.4176 12.2813C16.4176 12.2956 16.4229 12.3081 16.4302 12.3191L16.1598 12.7185H15.9683C15.9683 12.7185 15.9604 12.8375 16.1694 12.8519C16.1964 12.8927 16.2348 12.9252 16.2809 12.9436C16.2593 12.9471 16.2418 12.9638 16.2418 12.9864V13.0144C16.2418 13.0162 16.2435 13.0172 16.2437 13.019H16.7308C16.731 13.0173 16.7326 13.0163 16.7326 13.0144V12.9864C16.7326 12.9636 16.7149 12.9465 16.6929 12.9434C16.7745 12.9106 16.8317 12.8343 16.8414 12.7437C16.849 12.7381 16.8561 12.7329 16.8643 12.7267C16.9157 12.6872 16.9932 12.6271 17.0179 12.6586C17.024 12.6662 17.0234 12.6705 17.0232 12.6721C17.0204 12.6903 16.9813 12.7166 16.95 12.7376C16.9006 12.7708 16.8496 12.8052 16.8455 12.8539C16.8443 12.8678 16.8546 12.8799 16.8685 12.8812C16.8692 12.8812 16.87 12.8812 16.8706 12.8812C16.8836 12.8812 16.8946 12.8712 16.8957 12.8582C16.8977 12.8335 16.9422 12.8036 16.978 12.7796C17.0236 12.7488 17.0667 12.7199 17.0729 12.6799C17.0758 12.6613 17.0705 12.6436 17.0573 12.6269ZM16.6092 12.7184C16.5947 12.6633 16.5607 12.6105 16.5182 12.5913C16.5407 12.5798 16.5566 12.5569 16.5566 12.5299C16.5566 12.4913 16.5254 12.46 16.4867 12.46C16.4482 12.46 16.4169 12.4913 16.4169 12.5299C16.4169 12.5569 16.4327 12.5798 16.4553 12.5913C16.4128 12.6104 16.3787 12.6633 16.3643 12.7184H16.2206L16.4716 12.3478C16.4768 12.349 16.4818 12.351 16.4874 12.351C16.4931 12.351 16.4981 12.349 16.5033 12.3478L16.7543 12.7184H16.6092Z" fill="#FFE15A"/>
<path d="M15.992 13.6748C15.992 13.6748 15.9768 13.6224 15.9903 13.575C16.0039 13.5276 15.969 13.4841 15.9616 13.443C15.9413 13.3314 16.036 13.3026 16.0411 13.2028C16.0411 13.2028 16.1087 13.2722 16.0834 13.3382C16.058 13.4042 16.1206 13.4143 16.1122 13.4769C16.1037 13.5395 16.0343 13.6055 16.0411 13.6613L15.992 13.6748Z" fill="#FF4B55"/>
<path d="M17.0573 13.5688C17.0019 13.4996 16.9048 13.5741 16.8338 13.6283C16.8239 13.6359 16.8155 13.6417 16.8067 13.6481L16.5446 13.261C16.5519 13.2499 16.5572 13.2374 16.5572 13.2232C16.5572 13.1846 16.526 13.1533 16.4874 13.1533C16.4488 13.1533 16.4176 13.1845 16.4176 13.2232C16.4176 13.2375 16.4229 13.25 16.4302 13.261L16.1598 13.6603H15.9683C15.9683 13.6603 15.9604 13.7793 16.1694 13.7938C16.1964 13.8346 16.2348 13.8671 16.2809 13.8855C16.2593 13.889 16.2418 13.9057 16.2418 13.9283V13.9563C16.2418 13.9581 16.2435 13.9591 16.2437 13.9608H16.7308C16.731 13.9591 16.7326 13.9581 16.7326 13.9563V13.9283C16.7326 13.9054 16.7149 13.8884 16.6929 13.8852C16.7745 13.8524 16.8317 13.7761 16.8414 13.6855C16.849 13.6799 16.8561 13.6748 16.8643 13.6685C16.9157 13.6291 16.9932 13.569 17.0179 13.6004C17.024 13.6081 17.0234 13.6124 17.0232 13.6139C17.0204 13.6322 16.9813 13.6584 16.95 13.6795C16.9006 13.7126 16.8496 13.747 16.8455 13.7958C16.8443 13.8097 16.8546 13.8218 16.8685 13.8231C16.8692 13.8231 16.87 13.8231 16.8706 13.8231C16.8836 13.8231 16.8946 13.8131 16.8957 13.8001C16.8977 13.7754 16.9422 13.7454 16.978 13.7214C17.0236 13.6906 17.0667 13.6618 17.0729 13.6217C17.0758 13.6032 17.0705 13.5855 17.0573 13.5688ZM16.6092 13.6603C16.5947 13.6052 16.5607 13.5524 16.5182 13.5332C16.5407 13.5217 16.5566 13.4988 16.5566 13.4718C16.5566 13.4333 16.5254 13.4019 16.4867 13.4019C16.4482 13.4019 16.4169 13.4332 16.4169 13.4718C16.4169 13.4988 16.4327 13.5217 16.4553 13.5332C16.4128 13.5523 16.3787 13.6052 16.3643 13.6603H16.2206L16.4716 13.2897C16.4768 13.2909 16.4818 13.2929 16.4874 13.2929C16.4931 13.2929 16.4981 13.2909 16.5033 13.2897L16.7543 13.6603H16.6092Z" fill="#FFE15A"/>
<path d="M19.2689 8.96539C19.2689 8.96539 19.2537 8.91294 19.2672 8.86555C19.2807 8.81816 19.2458 8.77471 19.2384 8.7336C19.2181 8.62194 19.3129 8.59316 19.3179 8.49341C19.3179 8.49341 19.3856 8.56278 19.3603 8.62878C19.3349 8.69478 19.3975 8.70491 19.3891 8.76749C19.3806 8.83006 19.3112 8.89606 19.318 8.95189L19.2689 8.96539Z" fill="#FF4B55"/>
<path d="M20.3341 8.85938C20.2788 8.79019 20.1817 8.86472 20.1106 8.91891C20.1007 8.9265 20.0923 8.93232 20.0836 8.93869L19.8214 8.55155C19.8288 8.54049 19.8341 8.52797 19.8341 8.51372C19.8341 8.47514 19.8029 8.44388 19.7643 8.44388C19.7256 8.44388 19.6944 8.4751 19.6944 8.51372C19.6944 8.52802 19.6998 8.54053 19.7071 8.55155L19.4366 8.95088H19.2452C19.2452 8.95088 19.2372 9.06989 19.4463 9.08433C19.4733 9.12516 19.5117 9.15764 19.5577 9.17602C19.5361 9.17953 19.5187 9.19622 19.5187 9.21886V9.24685C19.5187 9.24863 19.5204 9.24966 19.5205 9.25139H20.0076C20.0078 9.24971 20.0095 9.24868 20.0095 9.24685V9.21886C20.0095 9.19599 19.9918 9.17892 19.9698 9.17578C20.0513 9.14297 20.1086 9.06671 20.1183 8.9761C20.1258 8.97047 20.1329 8.96532 20.1412 8.95908C20.1926 8.91961 20.27 8.85952 20.2947 8.89097C20.3009 8.89866 20.3003 8.90293 20.3 8.90447C20.2972 8.92275 20.2582 8.949 20.2268 8.97005C20.1775 9.00319 20.1264 9.0376 20.1224 9.08635C20.1212 9.10027 20.1315 9.11232 20.1453 9.11363C20.146 9.11363 20.1468 9.11363 20.1475 9.11363C20.1604 9.11363 20.1715 9.10364 20.1725 9.09061C20.1745 9.06591 20.2191 9.036 20.2549 9.012C20.3005 8.98121 20.3436 8.95233 20.3498 8.9123C20.3526 8.89378 20.3474 8.87611 20.3341 8.85938ZM19.8861 8.95083C19.8716 8.8958 19.8376 8.84292 19.7951 8.8238C19.8176 8.81222 19.8335 8.78939 19.8335 8.76235C19.8335 8.72382 19.8022 8.6925 19.7636 8.6925C19.7251 8.6925 19.6938 8.72372 19.6938 8.76235C19.6938 8.78939 19.7096 8.81222 19.7322 8.8238C19.6897 8.84288 19.6556 8.89575 19.6412 8.95083H19.4975L19.7485 8.58028C19.7537 8.5815 19.7587 8.58347 19.7643 8.58347C19.77 8.58347 19.775 8.5815 19.7802 8.58028L20.0312 8.95083H19.8861Z" fill="#FFE15A"/>
<path d="M19.2689 9.90726C19.2689 9.90726 19.2537 9.8548 19.2672 9.80741C19.2807 9.76002 19.2458 9.71657 19.2384 9.67546C19.2181 9.5638 19.3129 9.53502 19.3179 9.43527C19.3179 9.43527 19.3856 9.50465 19.3603 9.57065C19.3349 9.63665 19.3975 9.64677 19.3891 9.70935C19.3806 9.77193 19.3112 9.83793 19.318 9.89376L19.2689 9.90726Z" fill="#FF4B55"/>
<path d="M20.3341 9.80127C20.2788 9.73209 20.1817 9.80662 20.1106 9.8608C20.1007 9.8684 20.0923 9.87421 20.0836 9.88059L19.8214 9.49344C19.8288 9.48238 19.8341 9.46987 19.8341 9.45562C19.8341 9.41704 19.8029 9.38577 19.7643 9.38577C19.7256 9.38577 19.6944 9.41699 19.6944 9.45562C19.6944 9.46991 19.6998 9.48243 19.7071 9.49344L19.4366 9.89277H19.2452C19.2452 9.89277 19.2372 10.0118 19.4463 10.0262C19.4733 10.0671 19.5117 10.0995 19.5577 10.1179C19.5361 10.1214 19.5187 10.1381 19.5187 10.1608V10.1887C19.5187 10.1905 19.5204 10.1916 19.5205 10.1933H20.0076C20.0078 10.1916 20.0095 10.1906 20.0095 10.1887V10.1608C20.0095 10.1379 19.9918 10.1208 19.9698 10.1176C20.0513 10.0848 20.1086 10.0086 20.1183 9.91794C20.1258 9.91232 20.1329 9.90716 20.1412 9.90093C20.1926 9.86146 20.27 9.80137 20.2947 9.83282C20.3009 9.84051 20.3003 9.84477 20.3 9.84632C20.2972 9.8646 20.2582 9.89085 20.2268 9.9119C20.1775 9.94504 20.1264 9.97944 20.1224 10.0282C20.1212 10.0421 20.1315 10.0542 20.1453 10.0554C20.146 10.0554 20.1468 10.0554 20.1475 10.0554C20.1604 10.0554 20.1715 10.0454 20.1725 10.0324C20.1745 10.0077 20.2191 9.9778 20.2549 9.9538C20.3005 9.92301 20.3436 9.89413 20.3498 9.8541C20.3526 9.83568 20.3474 9.81801 20.3341 9.80127ZM19.8861 9.89273C19.8716 9.83769 19.8376 9.78482 19.7951 9.7657C19.8176 9.75412 19.8335 9.73129 19.8335 9.70424C19.8335 9.66571 19.8022 9.6344 19.7636 9.6344C19.7251 9.6344 19.6938 9.66562 19.6938 9.70424C19.6938 9.73129 19.7096 9.75412 19.7322 9.7657C19.6897 9.78477 19.6556 9.83765 19.6412 9.89273H19.4975L19.7485 9.52218C19.7537 9.5234 19.7587 9.52537 19.7643 9.52537C19.77 9.52537 19.775 9.5234 19.7802 9.52218L20.0312 9.89273H19.8861Z" fill="#FFE15A"/>
<path d="M19.2689 10.8492C19.2689 10.8492 19.2537 10.7967 19.2672 10.7493C19.2807 10.7019 19.2458 10.6585 19.2384 10.6174C19.2181 10.5057 19.3129 10.4769 19.3179 10.3772C19.3179 10.3772 19.3856 10.4466 19.3603 10.5126C19.3349 10.5786 19.3975 10.5887 19.3891 10.6513C19.3806 10.7139 19.3112 10.7799 19.318 10.8357L19.2689 10.8492Z" fill="#FF4B55"/>
<path d="M20.3341 10.7431C20.2788 10.6739 20.1817 10.7485 20.1106 10.8027C20.1007 10.8103 20.0923 10.8161 20.0836 10.8224L19.8214 10.4353C19.8288 10.4242 19.8341 10.4117 19.8341 10.3975C19.8341 10.3589 19.8029 10.3276 19.7643 10.3276C19.7256 10.3276 19.6944 10.3589 19.6944 10.3975C19.6944 10.4118 19.6998 10.4243 19.7071 10.4353L19.4366 10.8346H19.2452C19.2452 10.8346 19.2372 10.9537 19.4463 10.9681C19.4733 11.0089 19.5117 11.0414 19.5577 11.0598C19.5361 11.0633 19.5187 11.08 19.5187 11.1026V11.1306C19.5187 11.1324 19.5204 11.1334 19.5205 11.1352H20.0076C20.0078 11.1335 20.0095 11.1324 20.0095 11.1306V11.1026C20.0095 11.0797 19.9918 11.0627 19.9698 11.0595C20.0513 11.0267 20.1086 10.9505 20.1183 10.8599C20.1258 10.8542 20.1329 10.8491 20.1412 10.8428C20.1926 10.8034 20.27 10.7433 20.2947 10.7747C20.3009 10.7824 20.3003 10.7867 20.3 10.7882C20.2972 10.8065 20.2582 10.8328 20.2268 10.8538C20.1775 10.8869 20.1264 10.9214 20.1224 10.9701C20.1212 10.984 20.1315 10.9961 20.1453 10.9974C20.146 10.9974 20.1468 10.9974 20.1475 10.9974C20.1604 10.9974 20.1715 10.9874 20.1725 10.9744C20.1745 10.9497 20.2191 10.9198 20.2549 10.8958C20.3005 10.865 20.3436 10.8361 20.3498 10.7961C20.3526 10.7775 20.3474 10.7598 20.3341 10.7431ZM19.8861 10.8346C19.8716 10.7796 19.8376 10.7267 19.7951 10.7076C19.8176 10.696 19.8335 10.6732 19.8335 10.6462C19.8335 10.6076 19.8022 10.5763 19.7636 10.5763C19.7251 10.5763 19.6938 10.6075 19.6938 10.6462C19.6938 10.6732 19.7096 10.696 19.7322 10.7076C19.6897 10.7267 19.6556 10.7796 19.6412 10.8346H19.4975L19.7485 10.4641C19.7537 10.4653 19.7587 10.4673 19.7643 10.4673C19.77 10.4673 19.775 10.4653 19.7802 10.4641L20.0312 10.8346H19.8861Z" fill="#FFE15A"/>
<path d="M19.2689 11.7911C19.2689 11.7911 19.2537 11.7386 19.2672 11.6912C19.2807 11.6438 19.2458 11.6004 19.2384 11.5593C19.2181 11.4476 19.3129 11.4188 19.3179 11.3191C19.3179 11.3191 19.3856 11.3885 19.3603 11.4545C19.3349 11.5205 19.3975 11.5306 19.3891 11.5932C19.3806 11.6557 19.3112 11.7217 19.318 11.7776L19.2689 11.7911Z" fill="#FF4B55"/>
<path d="M20.3341 11.6851C20.2788 11.6159 20.1817 11.6904 20.1106 11.7446C20.1007 11.7522 20.0923 11.758 20.0836 11.7644L19.8214 11.3772C19.8288 11.3662 19.8341 11.3537 19.8341 11.3394C19.8341 11.3008 19.8029 11.2696 19.7643 11.2696C19.7256 11.2696 19.6944 11.3008 19.6944 11.3394C19.6944 11.3537 19.6998 11.3662 19.7071 11.3772L19.4366 11.7766H19.2452C19.2452 11.7766 19.2372 11.8956 19.4463 11.91C19.4733 11.9508 19.5117 11.9833 19.5577 12.0017C19.5361 12.0052 19.5187 12.0219 19.5187 12.0445V12.0725C19.5187 12.0743 19.5204 12.0753 19.5205 12.0771H20.0076C20.0078 12.0754 20.0095 12.0743 20.0095 12.0725V12.0445C20.0095 12.0217 19.9918 12.0046 19.9698 12.0015C20.0513 11.9687 20.1086 11.8924 20.1183 11.8018C20.1258 11.7962 20.1329 11.791 20.1412 11.7848C20.1926 11.7453 20.27 11.6852 20.2947 11.7167C20.3009 11.7243 20.3003 11.7286 20.3 11.7302C20.2972 11.7484 20.2582 11.7747 20.2268 11.7957C20.1775 11.8289 20.1264 11.8633 20.1224 11.912C20.1212 11.926 20.1315 11.938 20.1453 11.9393C20.146 11.9393 20.1468 11.9393 20.1475 11.9393C20.1604 11.9393 20.1715 11.9293 20.1725 11.9162C20.1745 11.8915 20.2191 11.8616 20.2549 11.8376C20.3005 11.8068 20.3436 11.778 20.3498 11.7379C20.3526 11.7194 20.3474 11.7017 20.3341 11.6851ZM19.8861 11.7765C19.8716 11.7214 19.8376 11.6686 19.7951 11.6494C19.8176 11.6379 19.8335 11.615 19.8335 11.588C19.8335 11.5495 19.8022 11.5181 19.7636 11.5181C19.7251 11.5181 19.6938 11.5494 19.6938 11.588C19.6938 11.615 19.7096 11.6379 19.7322 11.6494C19.6897 11.6685 19.6556 11.7214 19.6412 11.7765H19.4975L19.7485 11.4059C19.7537 11.4071 19.7587 11.4091 19.7643 11.4091C19.77 11.4091 19.775 11.4071 19.7802 11.4059L20.0312 11.7765H19.8861Z" fill="#FFE15A"/>
<path d="M19.2689 12.7329C19.2689 12.7329 19.2537 12.6804 19.2672 12.633C19.2807 12.5856 19.2458 12.5422 19.2384 12.5011C19.2181 12.3894 19.3129 12.3606 19.3179 12.2609C19.3179 12.2609 19.3856 12.3303 19.3603 12.3963C19.3349 12.4623 19.3975 12.4724 19.3891 12.535C19.3806 12.5976 19.3112 12.6635 19.318 12.7194L19.2689 12.7329Z" fill="#FF4B55"/>
<path d="M20.3341 12.6269C20.2788 12.5577 20.1817 12.6323 20.1106 12.6864C20.1007 12.694 20.0923 12.6998 20.0836 12.7062L19.8214 12.3191C19.8288 12.3081 19.8341 12.2956 19.8341 12.2813C19.8341 12.2427 19.8029 12.2115 19.7643 12.2115C19.7256 12.2115 19.6944 12.2427 19.6944 12.2813C19.6944 12.2956 19.6998 12.3081 19.7071 12.3191L19.4366 12.7185H19.2452C19.2452 12.7185 19.2372 12.8375 19.4463 12.8519C19.4733 12.8927 19.5117 12.9252 19.5577 12.9436C19.5361 12.9471 19.5187 12.9638 19.5187 12.9864V13.0144C19.5187 13.0162 19.5204 13.0172 19.5205 13.019H20.0076C20.0078 13.0173 20.0095 13.0163 20.0095 13.0144V12.9864C20.0095 12.9636 19.9918 12.9465 19.9698 12.9434C20.0513 12.9106 20.1086 12.8343 20.1183 12.7437C20.1258 12.7381 20.1329 12.7329 20.1412 12.7267C20.1926 12.6872 20.27 12.6271 20.2947 12.6586C20.3009 12.6662 20.3003 12.6705 20.3 12.6721C20.2972 12.6903 20.2582 12.7166 20.2268 12.7376C20.1775 12.7708 20.1264 12.8052 20.1224 12.8539C20.1212 12.8678 20.1315 12.8799 20.1453 12.8812C20.146 12.8812 20.1468 12.8812 20.1475 12.8812C20.1604 12.8812 20.1715 12.8712 20.1725 12.8582C20.1745 12.8335 20.2191 12.8036 20.2549 12.7796C20.3005 12.7488 20.3436 12.7199 20.3498 12.6799C20.3526 12.6613 20.3474 12.6436 20.3341 12.6269ZM19.8861 12.7184C19.8716 12.6633 19.8376 12.6105 19.7951 12.5913C19.8176 12.5798 19.8335 12.5569 19.8335 12.5299C19.8335 12.4913 19.8022 12.46 19.7636 12.46C19.7251 12.46 19.6938 12.4913 19.6938 12.5299C19.6938 12.5569 19.7096 12.5798 19.7322 12.5913C19.6897 12.6104 19.6556 12.6633 19.6412 12.7184H19.4975L19.7485 12.3478C19.7537 12.349 19.7587 12.351 19.7643 12.351C19.77 12.351 19.775 12.349 19.7802 12.3478L20.0312 12.7184H19.8861Z" fill="#FFE15A"/>
<path d="M19.2689 13.6748C19.2689 13.6748 19.2537 13.6224 19.2672 13.575C19.2807 13.5276 19.2458 13.4841 19.2384 13.443C19.2181 13.3314 19.3129 13.3026 19.3179 13.2028C19.3179 13.2028 19.3856 13.2722 19.3603 13.3382C19.3349 13.4042 19.3975 13.4143 19.3891 13.4769C19.3806 13.5395 19.3112 13.6055 19.318 13.6613L19.2689 13.6748Z" fill="#FF4B55"/>
<path d="M20.3341 13.5688C20.2788 13.4996 20.1817 13.5741 20.1106 13.6283C20.1007 13.6359 20.0923 13.6417 20.0836 13.6481L19.8214 13.261C19.8288 13.2499 19.8341 13.2374 19.8341 13.2232C19.8341 13.1846 19.8029 13.1533 19.7643 13.1533C19.7256 13.1533 19.6944 13.1845 19.6944 13.2232C19.6944 13.2375 19.6998 13.25 19.7071 13.261L19.4366 13.6603H19.2452C19.2452 13.6603 19.2372 13.7793 19.4463 13.7938C19.4733 13.8346 19.5117 13.8671 19.5577 13.8855C19.5361 13.889 19.5187 13.9057 19.5187 13.9283V13.9563C19.5187 13.9581 19.5204 13.9591 19.5205 13.9608H20.0076C20.0078 13.9591 20.0095 13.9581 20.0095 13.9563V13.9283C20.0095 13.9054 19.9918 13.8884 19.9698 13.8852C20.0513 13.8524 20.1086 13.7761 20.1183 13.6855C20.1258 13.6799 20.1329 13.6748 20.1412 13.6685C20.1926 13.6291 20.27 13.569 20.2947 13.6004C20.3009 13.6081 20.3003 13.6124 20.3 13.6139C20.2972 13.6322 20.2582 13.6584 20.2268 13.6795C20.1775 13.7126 20.1264 13.747 20.1224 13.7958C20.1212 13.8097 20.1315 13.8218 20.1453 13.8231C20.146 13.8231 20.1468 13.8231 20.1475 13.8231C20.1604 13.8231 20.1715 13.8131 20.1725 13.8001C20.1745 13.7754 20.2191 13.7454 20.2549 13.7214C20.3005 13.6906 20.3436 13.6618 20.3498 13.6217C20.3526 13.6032 20.3474 13.5855 20.3341 13.5688ZM19.8861 13.6603C19.8716 13.6052 19.8376 13.5524 19.7951 13.5332C19.8176 13.5217 19.8335 13.4988 19.8335 13.4718C19.8335 13.4333 19.8022 13.4019 19.7636 13.4019C19.7251 13.4019 19.6938 13.4332 19.6938 13.4718C19.6938 13.4988 19.7096 13.5217 19.7322 13.5332C19.6897 13.5523 19.6556 13.6052 19.6412 13.6603H19.4975L19.7485 13.2897C19.7537 13.2909 19.7587 13.2929 19.7643 13.2929C19.77 13.2929 19.775 13.2909 19.7802 13.2897L20.0312 13.6603H19.8861Z" fill="#FFE15A"/>
<path d="M20.8849 8.0215C20.8849 8.0215 20.8849 11.5275 20.8849 12.9618C20.8849 14.0773 18.1757 15.1929 18.1757 15.1929C18.1757 15.1929 15.4665 14.0774 15.4665 12.9618C15.4665 11.5275 15.4665 8.0215 15.4665 8.0215H18.1757H20.8849ZM21.0443 7.86212H20.8849H18.1757H15.4665H15.3071V8.0215V12.9618C15.3071 13.4834 15.7883 14.0451 16.7373 14.6313C17.4179 15.0516 18.0869 15.3287 18.115 15.3403L18.1756 15.3653L18.2363 15.3403C18.2644 15.3287 18.9334 15.0516 19.614 14.6313C20.563 14.0451 21.0442 13.4834 21.0442 12.9618V8.0215L21.0443 7.86212Z" fill="#F5F5F5"/>
<path d="M21.0673 13.8404L21.7898 14.3386C20.9506 15.415 19.6432 16.1092 18.1757 16.1092C16.7083 16.1092 15.4008 15.415 14.5616 14.3386L15.2841 13.8404C15.9637 14.6883 17.007 15.2327 18.1756 15.2327C19.3444 15.2327 20.3877 14.6883 21.0673 13.8404ZM21.0357 13.6251L20.943 13.7407C20.2643 14.5876 19.2556 15.0734 18.1758 15.0734C17.096 15.0734 16.0873 14.5876 15.4086 13.7407L15.3159 13.6251L15.1938 13.7092L14.4714 14.2075L14.3323 14.3034L14.4361 14.4366C15.3438 15.6008 16.7069 16.2686 18.1758 16.2686C19.6448 16.2686 21.0079 15.6009 21.9155 14.4366L22.0194 14.3034L21.8803 14.2075L21.1579 13.7092L21.0357 13.6251Z" fill="#F5F5F5"/>
<path d="M18.1757 16.1093C19.6432 16.1093 20.9506 15.415 21.7898 14.3387L21.0674 13.8405C20.3878 14.6884 19.3444 15.2328 18.1758 15.2328C17.0071 15.2328 15.9638 14.6884 15.2842 13.8405L14.5618 14.3387C15.4008 15.415 16.7083 16.1093 18.1757 16.1093Z" fill="#FFE15A"/>
</svg>
