<svg width="24" height="24" viewBox="0 0 24 24" fill="none" xmlns="http://www.w3.org/2000/svg">
<path d="M24 5.93536C24 4.94269 23.1953 4.13794 22.2026 4.13794H1.79742C0.804703 4.13794 0 4.94264 0 5.93536V12H24V5.93536Z" fill="#FF4B55"/>
<path d="M1.79742 19.8621H22.2026C23.1952 19.8621 24 19.0574 24 18.0646V12H0V18.0646C0 19.0574 0.804703 19.8621 1.79742 19.8621Z" fill="#464655"/>
<path d="M11.0582 8.54499L11.3411 9.39329L12.2353 9.40022C12.3046 9.40074 12.3333 9.48919 12.2776 9.5303L11.5582 10.0615L11.828 10.9141C11.8489 10.9801 11.7736 11.0347 11.7173 10.9945L10.9898 10.4745L10.2623 10.9945C10.2059 11.0348 10.1307 10.9801 10.1516 10.9141L10.4213 10.0615L9.70199 9.5303C9.6463 9.48915 9.67499 9.40074 9.74427 9.40022L10.6385 9.39329L10.9214 8.54499C10.9433 8.47923 11.0362 8.47923 11.0582 8.54499Z" fill="#FFE15A"/>
<path d="M14.8823 15.7474C14.8823 15.7474 9.76323 11.8856 9.61211 11.7587C9.37853 11.5625 9.1983 11.2156 9.18967 10.7932C9.18967 10.7932 8.63762 11.3587 8.74572 11.944C8.87073 12.6207 9.25867 12.8621 9.75869 13.1897C10.1101 13.4199 12.9034 15.1816 14.5341 16.2093L14.8823 15.7474Z" fill="#FFE15A"/>
<path d="M16.414 16.8793C16.3473 16.8317 15.8112 16.4354 15.0673 15.8843L14.7974 16.3752C15.3435 16.7193 15.7072 16.9483 15.7072 16.9483C15.7072 16.9483 15.7589 17.6207 16.302 17.5087C16.4978 17.4682 16.6553 17.0517 16.414 16.8793Z" fill="#FFE15A"/>
<path d="M11.9937 15.0962C11.6067 15.2324 11.1923 15.3103 10.7587 15.3103C9.65987 15.3103 8.67535 14.8316 7.99369 14.0747L7.3877 14.6201C7.5908 14.8456 7.80769 15.0582 8.05215 15.2396L7.93149 15.4486L8.82737 15.9658L8.94596 15.7604C9.35068 15.9364 9.78577 16.0549 10.2415 16.1065V16.3448H11.276V16.1065C11.7317 16.0549 12.1668 15.9364 12.5715 15.7604L12.6901 15.9658L13.0461 15.7603C12.6985 15.5411 12.3423 15.3163 11.9937 15.0962Z" fill="#FFE15A"/>
<path d="M15.279 11.069C15.2274 10.6133 15.109 10.1782 14.933 9.77349L15.1384 9.65489L14.6212 8.75897L14.4122 8.87963C14.1446 8.51911 13.8258 8.20032 13.4653 7.93275L13.5859 7.72374L12.69 7.20652L12.5714 7.41197C12.2357 7.26596 11.8783 7.16227 11.5063 7.10077L11.3704 7.91658C13.1355 8.20894 14.4829 9.73824 14.4829 11.5862C14.4829 12.5813 14.0902 13.483 13.4543 14.1511C13.6743 14.3172 13.8926 14.482 14.1084 14.6449C14.2129 14.5305 14.3195 14.4177 14.4122 14.2928L14.6212 14.4135L15.1385 13.5176L14.933 13.399C15.109 12.9943 15.2275 12.5592 15.2791 12.1036H15.5173V11.0691H15.279V11.069Z" fill="#FFE15A"/>
</svg>
