<svg width="24" height="24" viewBox="0 0 24 24" fill="none" xmlns="http://www.w3.org/2000/svg">
<path d="M22.2026 19.8621H1.79742C0.804703 19.8621 0 19.0574 0 18.0646V5.93536C0 4.94269 0.804703 4.13794 1.79742 4.13794H22.2026C23.1952 4.13794 24 4.94264 24 5.93536V18.0647C24 19.0574 23.1953 19.8621 22.2026 19.8621Z" fill="#FFE15A"/>
<path d="M24 14.069L0.773859 4.4581C0.306375 4.78266 0 5.32308 0 5.93536V7.03449L24 16.9655V14.069Z" fill="#F5F5F5"/>
<path d="M24 18.0646V16.9655L0 7.03448V9.93103L23.2261 19.5419C23.6937 19.2173 24 18.6769 24 18.0646Z" fill="#464655"/>
<path d="M14.3245 11.2653L14.3248 11.2536C14.3248 11.2536 14.3193 11.1969 14.309 11.0905C14.3058 11.0374 14.2936 10.9726 14.2775 10.8972C14.265 10.8211 14.2409 10.736 14.21 10.642C14.1478 10.4556 14.0521 10.233 13.887 10.0176C13.867 9.99093 13.8434 9.96463 13.8216 9.93815C13.9153 9.83071 14.0067 9.70574 14.0929 9.55494C14.0929 9.55494 13.6204 9.5766 13.0898 9.34504C12.9146 9.25382 12.7243 9.17896 12.5156 9.12993L12.4166 8.73397C12.3954 8.64932 12.3193 8.58988 12.2321 8.58988H12.0952V8.39966H12.7611L12.5709 8.01913L12.7611 7.6386H12.0952V7.44833H11.9048V8.58988H11.768C11.6806 8.58988 11.6046 8.64932 11.5834 8.73397L11.4866 9.1214C11.3581 9.14877 11.23 9.18351 11.1058 9.23633C11.0041 9.27702 10.9058 9.32802 10.8098 9.38512C10.3216 9.57247 9.90708 9.55499 9.90708 9.55499C9.99324 9.70569 10.0845 9.83062 10.1782 9.93801C10.1592 9.96107 10.1381 9.98179 10.1198 10.0055C9.99015 10.1815 9.88665 10.3794 9.80766 10.5896C9.73252 10.7936 9.68982 11.0526 9.67552 11.2419L9.67515 11.425C9.67322 11.4824 9.67979 11.5394 9.68583 11.5965C9.69333 11.7117 9.71879 11.8241 9.74279 11.9374C9.80213 12.1604 9.88894 12.3774 10.0073 12.5766C10.2442 12.9757 10.6055 13.2903 11.0107 13.4853C11.22 13.5775 11.4177 13.6478 11.6536 13.6813C11.7793 13.7047 11.8576 13.7043 11.9506 13.7124L11.9676 13.7136L11.9761 13.7143L12.0037 13.715L12.0433 13.7133L12.1222 13.7098C12.1746 13.7062 12.227 13.7069 12.2783 13.6993C12.6923 13.6538 13.0655 13.4929 13.3569 13.2838C13.6482 13.0711 13.8575 12.8117 14.0008 12.5644C14.1464 12.3168 14.2215 12.0773 14.2678 11.8811C14.2899 11.7831 14.3064 11.6936 14.3124 11.6094C14.3218 11.526 14.3273 11.4578 14.3248 11.4132C14.3246 11.3166 14.3245 11.2653 14.3245 11.2653ZM10.8666 12.6061C10.7344 12.5031 10.6149 12.3803 10.506 12.2448C10.4011 12.1061 10.3173 11.9496 10.2516 11.7833C10.1896 11.6205 10.1554 11.4248 10.1386 11.2653C10.134 11.0439 10.1444 10.8929 10.1866 10.7041C10.2327 10.5248 10.2999 10.3493 10.3935 10.1874C10.3989 10.1781 10.4063 10.1701 10.4118 10.1608C10.8443 10.4987 11.301 10.4747 11.6195 10.3107V10.6828C11.7245 10.6828 11.8097 10.8958 11.8097 11.1584C11.8097 11.4211 11.7245 11.6341 11.6195 11.6341V11.8243C11.9763 12.3001 11.8126 12.7015 11.5933 12.9355C11.4938 12.9139 11.3905 12.8849 11.294 12.8468C11.1442 12.7886 11.002 12.7047 10.8666 12.6061ZM13.8611 11.2439C13.8608 11.2467 13.8557 11.2956 13.846 11.3888C13.8431 11.4408 13.8316 11.49 13.8184 11.5446C13.8089 11.5995 13.7888 11.6661 13.763 11.7416C13.7115 11.8894 13.634 12.0659 13.4993 12.2351C13.3676 12.4047 13.19 12.5722 12.9684 12.7034C12.7999 12.8033 12.6019 12.871 12.3927 12.919C12.1808 12.6829 12.0316 12.2896 12.3806 11.8243V11.6341C12.2756 11.6341 12.1904 11.4212 12.1904 11.1585C12.1904 10.8958 12.2755 10.6828 12.3806 10.6828V10.3108C12.6995 10.4749 13.1568 10.4989 13.5898 10.1598C13.5972 10.1722 13.6063 10.1849 13.6133 10.1973C13.7284 10.3985 13.7853 10.592 13.821 10.7496C13.838 10.8291 13.8505 10.9001 13.8534 10.9631C13.86 11.0255 13.8648 11.0783 13.8621 11.1217C13.8615 11.1954 13.8611 11.2328 13.8611 11.2439Z" fill="#FF4B55"/>
<path d="M12.0001 14.1074C11.2976 14.1074 10.6603 13.8338 10.1847 13.389C10.0974 13.3074 9.95928 13.3173 9.88147 13.4081L9.15294 14.258C9.0755 14.3484 9.13972 14.488 9.25864 14.488H9.71684L10.3277 14.7934C10.4135 14.8363 10.5178 14.8086 10.5711 14.7288L10.7677 14.4338C11.1477 14.5906 11.5635 14.6782 12 14.6782C12.4366 14.6782 12.8524 14.5906 13.2324 14.4338L13.429 14.7288C13.4822 14.8086 13.5865 14.8363 13.6724 14.7934L14.2832 14.488H14.7414C14.8604 14.488 14.9246 14.3484 14.8471 14.258L14.1186 13.4081C14.0408 13.3173 13.9026 13.3074 13.8153 13.389C13.3399 13.8338 12.7026 14.1074 12.0001 14.1074Z" fill="#FF4B55"/>
<path d="M9.33636 13.3464H8.38498L8.5752 11.634C8.5752 11.634 7.90925 11.301 7.979 10.3236C7.98748 10.2047 8.08798 10.1119 8.20714 10.1119H8.36951C8.48164 10.1119 8.57562 10.1932 8.59418 10.3038C8.63422 10.5424 8.75876 10.9341 9.146 11.0632L9.33636 13.3464Z" fill="#FF4B55"/>
<path d="M14.6636 13.3464H15.6149L15.4246 11.634C15.4246 11.634 16.0906 11.301 16.0208 10.3236C16.0124 10.2047 15.9119 10.1119 15.7927 10.1119H15.6303C15.5182 10.1119 15.4242 10.1932 15.4057 10.3038C15.3656 10.5424 15.2411 10.9341 14.8538 11.0632L14.6636 13.3464Z" fill="#FF4B55"/>
<path d="M9.43148 13.5367H8.28993C8.23739 13.5367 8.19482 13.4941 8.19482 13.4415C8.19482 13.389 8.23739 13.3464 8.28993 13.3464H9.43148C9.48403 13.3464 9.52659 13.389 9.52659 13.4415C9.52659 13.4941 9.48398 13.5367 9.43148 13.5367Z" fill="#FFE15A"/>
<path d="M15.71 13.5367H14.5685C14.516 13.5367 14.4734 13.4941 14.4734 13.4415C14.4734 13.389 14.516 13.3464 14.5685 13.3464H15.71C15.7626 13.3464 15.8052 13.389 15.8052 13.4415C15.8052 13.4941 15.7626 13.5367 15.71 13.5367Z" fill="#FFE15A"/>
</svg>
