<svg width="24" height="24" viewBox="0 0 24 24" fill="none" xmlns="http://www.w3.org/2000/svg">
<path d="M22.2026 4.13788H12V19.862H22.2026C23.1952 19.862 24 19.0573 24 18.0646V5.9353C24 4.94258 23.1953 4.13788 22.2026 4.13788Z" fill="#F5F5F5"/>
<path d="M1.79742 4.13788C0.804703 4.13788 0 4.94258 0 5.9353V18.0647C0 19.0573 0.804703 19.8621 1.79742 19.8621H12V4.13788H1.79742Z" fill="#FFE15A"/>
<path d="M19.1374 8.19146L19.1099 8.24644C19.1987 8.29191 19.2495 8.34366 19.2495 8.39879L19.2356 8.12546C19.2172 8.16216 19.1809 8.1885 19.1374 8.19146Z" fill="#EBEBEB"/>
<path d="M16.9892 8.24644L16.9617 8.19146C16.9182 8.18846 16.882 8.16216 16.8634 8.12546L16.8496 8.39879C16.8496 8.3438 16.9004 8.29196 16.9892 8.24644Z" fill="#EBEBEB"/>
<path d="M16.9695 7.95305C17.0358 7.95305 17.0895 8.00677 17.0895 8.07305C17.0895 8.09705 17.0807 8.11814 17.0685 8.13689L17.1001 8.20003C17.1907 8.1682 17.3023 8.14116 17.4295 8.1202L17.416 8.0662C17.3664 8.05149 17.3295 8.00733 17.3295 7.953C17.3295 7.88672 17.3833 7.833 17.4495 7.833C17.5158 7.833 17.5695 7.88672 17.5695 7.953C17.5695 7.98685 17.5553 8.01708 17.5328 8.03892L17.5489 8.103C17.6158 8.09461 17.6858 8.088 17.7586 8.08303C17.7532 8.06049 17.7495 8.03719 17.7495 8.013C17.7495 7.84734 17.8839 7.713 18.0495 7.713C18.2152 7.713 18.3495 7.84734 18.3495 8.013C18.3495 8.03728 18.3459 8.06049 18.3405 8.08303C18.4133 8.08795 18.4834 8.09461 18.5502 8.103L18.5662 8.03892C18.5437 8.01708 18.5295 7.98685 18.5295 7.953C18.5295 7.88672 18.5833 7.833 18.6495 7.833C18.7158 7.833 18.7695 7.88672 18.7695 7.953C18.7695 8.00738 18.7327 8.05149 18.6831 8.0662L18.6696 8.1202C18.7968 8.14111 18.9084 8.16816 18.999 8.20003L19.0305 8.13689C19.0184 8.1181 19.0095 8.09705 19.0095 8.07305C19.0095 8.00677 19.0633 7.95305 19.1295 7.95305C19.1727 7.95305 19.2089 7.97709 19.23 8.01136L19.2208 7.82836C19.1023 7.69383 18.6233 7.59305 18.0495 7.59305C17.4757 7.59305 16.9968 7.69374 16.8783 7.82836L16.8691 8.01136C16.8902 7.97709 16.9264 7.95305 16.9695 7.95305Z" fill="#EBEBEB"/>
<path d="M18.2369 6.54142C18.2694 6.50045 18.2896 6.44936 18.2896 6.39306C18.2896 6.28136 18.2129 6.18836 18.1096 6.16154V6.01464C18.1448 5.99373 18.1696 5.95698 18.1696 5.91306C18.1696 5.84678 18.1159 5.79306 18.0496 5.79306C17.9833 5.79306 17.9296 5.84678 17.9296 5.91306C17.9296 5.95698 17.9544 5.99373 17.9896 6.01464V6.16154C17.8862 6.18826 17.8096 6.28136 17.8096 6.39306C17.8096 6.4494 17.8298 6.5005 17.8622 6.54142C17.9232 6.52473 17.9854 6.51306 18.0496 6.51306C18.1137 6.51306 18.1759 6.52469 18.2369 6.54142Z" fill="#E6B432"/>
<path d="M17.5467 7.1489L17.5361 7.1063C17.4865 7.09158 17.4496 7.04742 17.4496 6.99309C17.4496 6.92681 17.5033 6.87309 17.5696 6.87309C17.6359 6.87309 17.6896 6.92681 17.6896 6.99309C17.6896 7.02694 17.6754 7.05717 17.6529 7.07901L17.6664 7.13311C17.7838 7.12026 17.9133 7.11309 18.0496 7.11309C17.9502 7.11309 17.8696 7.03251 17.8696 6.93309C17.8696 6.83367 17.9502 6.75309 18.0496 6.75309C18.149 6.75309 18.2296 6.83367 18.2296 6.93309C18.2296 7.03251 18.149 7.11309 18.0496 7.11309C18.1859 7.11309 18.3154 7.12026 18.4327 7.13311L18.4463 7.07901C18.4238 7.05717 18.4096 7.02694 18.4096 6.99309C18.4096 6.92681 18.4633 6.87309 18.5296 6.87309C18.5959 6.87309 18.6496 6.92681 18.6496 6.99309C18.6496 7.04747 18.6127 7.09158 18.5631 7.1063L18.5525 7.1489C18.6134 7.15833 18.6702 7.16925 18.7211 7.18172L18.8095 7.00481C18.6565 6.76767 18.4587 6.6022 18.2369 6.54145C18.1759 6.52476 18.1137 6.51309 18.0495 6.51309C17.9854 6.51309 17.9233 6.52472 17.8622 6.54145C17.6403 6.60215 17.4426 6.76762 17.2896 7.00481L17.378 7.18172C17.429 7.1693 17.4857 7.15837 17.5467 7.1489Z" fill="#EBEBEB"/>
<path d="M17.9296 16.9751V16.713C17.9296 16.685 17.9335 16.658 17.9396 16.6318C17.9364 16.6297 17.9329 16.6283 17.9296 16.6263C17.8941 16.6058 17.8535 16.593 17.8096 16.593C17.7657 16.593 17.725 16.6057 17.6896 16.6263C17.6181 16.6679 17.5696 16.7444 17.5696 16.833C17.5696 16.8976 17.5954 16.956 17.6368 16.999C17.6883 16.9706 17.7466 16.953 17.8095 16.953C17.8519 16.953 17.8919 16.9617 17.9296 16.9751Z" fill="#E6B432"/>
<path d="M18.1696 16.0264C18.0981 16.068 18.0496 16.1445 18.0496 16.2331C18.0496 16.2976 18.0754 16.356 18.1168 16.3991C18.1682 16.3707 18.2266 16.3531 18.2896 16.3531C18.3525 16.3531 18.4108 16.3707 18.4623 16.3991C18.5038 16.356 18.5296 16.2976 18.5296 16.2331C18.5296 16.1445 18.481 16.068 18.4096 16.0264C18.3741 16.0058 18.3335 15.9931 18.2896 15.9931C18.2456 15.9931 18.205 16.0058 18.1696 16.0264Z" fill="#E6B432"/>
<path d="M18.1169 16.399C18.0288 16.4476 17.963 16.5311 17.9397 16.6318C17.9337 16.658 17.9297 16.685 17.9297 16.7131V16.9751C17.892 16.9617 17.852 16.9531 17.8097 16.9531C17.7468 16.9531 17.6884 16.9707 17.6369 16.9991C17.5258 17.0604 17.4497 17.1772 17.4497 17.3131V17.7931H18.1697V17.3131C18.1697 17.2708 18.1611 17.2308 18.1477 17.1931H18.6497V16.7131C18.6497 16.5772 18.5736 16.4604 18.4625 16.3991C18.411 16.3707 18.3527 16.3531 18.2897 16.3531C18.2268 16.3531 18.1684 16.3706 18.1169 16.399Z" fill="#FF4B57"/>
<path d="M18.1697 11.5733L18.3747 11.7783L18.4448 11.7082C18.4615 11.6916 18.4822 11.683 18.5036 11.6782L19.5185 10.663L20.1686 11.3131L20.5928 10.8889L20.4231 10.7192L20.3382 10.804L20.1685 10.6344L20.2534 10.5495L20.1685 10.4646L20.3382 10.2949L20.4231 10.3798L20.5079 10.2949L20.6776 10.4646L20.5928 10.5495L20.7625 10.7192L21.1867 10.295L20.5365 9.64477L20.9814 9.19969C20.96 9.19088 20.9398 9.1779 20.9224 9.16051L20.6824 8.92051C20.6645 8.9026 20.6514 8.88184 20.6426 8.85971L18.1426 11.3604C18.1586 11.3807 18.1696 11.4053 18.1696 11.4332L18.1697 11.5733Z" fill="#E6B432"/>
<path d="M17.8944 12.2875L17.5549 11.9481L16.4999 13.0034C16.4063 13.0972 16.4063 13.2491 16.5 13.3428C16.5468 13.3897 16.6083 13.4131 16.6697 13.4131C16.7311 13.4131 16.7926 13.3897 16.8394 13.3428L17.6641 12.5179L17.8944 12.2875Z" fill="#E6B432"/>
<path d="M14.6185 13.533C14.6252 13.5142 14.6295 13.4942 14.6295 13.4731C14.6295 13.3736 14.549 13.2931 14.4495 13.2931C14.3501 13.2931 14.2695 13.3736 14.2695 13.4731C14.2695 13.5725 14.3501 13.6531 14.4495 13.6531C14.4707 13.6531 14.4906 13.6487 14.5095 13.642C14.5435 13.6034 14.5799 13.567 14.6185 13.533Z" fill="#D2D2D2"/>
<path d="M14.5095 15.2241C14.4906 15.2175 14.4707 15.2131 14.4495 15.2131C14.3501 15.2131 14.2695 15.2937 14.2695 15.3931C14.2695 15.4925 14.3501 15.5731 14.4495 15.5731C14.549 15.5731 14.6295 15.4925 14.6295 15.3931C14.6295 15.372 14.6252 15.352 14.6185 15.3332C14.5799 15.2991 14.5435 15.2627 14.5095 15.2241Z" fill="#D2D2D2"/>
<path d="M16.3095 13.6421C16.3283 13.6488 16.3483 13.6531 16.3695 13.6531C16.4689 13.6531 16.5495 13.5725 16.5495 13.4731C16.5495 13.3737 16.4689 13.2931 16.3695 13.2931C16.27 13.2931 16.1895 13.3737 16.1895 13.4731C16.1895 13.4943 16.1938 13.5142 16.2005 13.5331C16.2391 13.5671 16.2755 13.6034 16.3095 13.6421Z" fill="#D2D2D2"/>
<path d="M16.1895 15.3931C16.1895 15.4925 16.27 15.5731 16.3695 15.5731C16.4249 15.5731 16.4738 15.5475 16.5069 15.5081C16.3941 15.4672 16.2887 15.4218 16.1916 15.372C16.1908 15.3791 16.1895 15.3859 16.1895 15.3931Z" fill="#D2D2D2"/>
<path d="M15.9389 15.2193C15.9137 15.201 15.8985 15.1744 15.8927 15.1461C15.8723 15.1505 15.8512 15.1531 15.8295 15.1531C15.687 15.1531 15.5679 15.053 15.5375 14.9195C15.5049 14.9526 15.4596 14.9731 15.4095 14.9731C15.3594 14.9731 15.3141 14.9526 15.2816 14.9195C15.2512 15.053 15.1321 15.1531 14.9895 15.1531C14.8241 15.1531 14.6895 15.0186 14.6895 14.8531C14.6895 14.7106 14.7896 14.5915 14.9231 14.5611C14.8901 14.5285 14.8695 14.4832 14.8695 14.4331C14.8695 14.383 14.8901 14.3377 14.9231 14.3051C14.7896 14.2748 14.6895 14.1557 14.6895 14.0131C14.6895 13.8476 14.8241 13.7131 14.9895 13.7131C15.132 13.7131 15.2511 13.8132 15.2816 13.9467C15.3142 13.9136 15.3595 13.8931 15.4095 13.8931C15.4596 13.8931 15.5049 13.9136 15.5375 13.9467C15.5679 13.8132 15.687 13.7131 15.8295 13.7131C15.9949 13.7131 16.1295 13.8476 16.1295 14.0131C16.1295 14.1557 16.0294 14.2747 15.8959 14.3051C15.929 14.3378 15.9495 14.383 15.9495 14.4331C15.9495 14.4832 15.929 14.5285 15.8959 14.5611C16.0294 14.5915 16.1295 14.7106 16.1295 14.8531C16.1295 14.9164 16.1096 14.9749 16.076 15.0234C16.0772 15.0242 16.0785 15.0242 16.0796 15.025C16.1573 15.0812 16.2468 15.1335 16.3461 15.1813C16.376 15.1439 16.4032 15.1045 16.4285 15.0637C16.5076 14.9363 16.5635 14.7935 16.5903 14.6405C16.6022 14.573 16.6095 14.504 16.6095 14.4332C16.6095 14.1301 16.4956 13.8536 16.3095 13.6421C16.2755 13.6035 16.2391 13.5671 16.2005 13.5331C15.989 13.3471 15.7126 13.2332 15.4095 13.2332C15.1063 13.2332 14.8299 13.3471 14.6185 13.5331C14.5798 13.5671 14.5434 13.6035 14.5094 13.6421C14.3234 13.8536 14.2095 14.13 14.2095 14.4332C14.2095 14.7363 14.3234 15.0127 14.5094 15.2242C14.5435 15.2628 14.5798 15.2992 14.6185 15.3332C14.8299 15.5192 15.1063 15.6332 15.4095 15.6332C15.6978 15.6332 15.9626 15.5308 16.1698 15.3607C16.0863 15.3166 16.0084 15.2697 15.9389 15.2193ZM16.3372 14.1903C16.3576 14.268 16.3696 14.3491 16.3696 14.4331C16.3696 14.517 16.3576 14.5981 16.3372 14.6758C16.3033 14.5791 16.2432 14.4958 16.1648 14.4331C16.2432 14.3703 16.3033 14.287 16.3372 14.1903ZM15.6523 13.5054C15.5556 13.5393 15.4723 13.5994 15.4096 13.6779C15.3468 13.5994 15.2635 13.5393 15.1668 13.5054C15.2445 13.485 15.3256 13.4731 15.4096 13.4731C15.4936 13.4731 15.5746 13.485 15.6523 13.5054ZM14.4819 14.1903C14.5158 14.287 14.5758 14.3703 14.6543 14.4331C14.5758 14.4959 14.5158 14.5791 14.4819 14.6758C14.4615 14.5981 14.4495 14.5171 14.4495 14.4331C14.4495 14.3491 14.4615 14.2681 14.4819 14.1903ZM15.1668 15.3608C15.2635 15.3269 15.3468 15.2668 15.4095 15.1883C15.4723 15.2668 15.5556 15.3269 15.6522 15.3608C15.5746 15.3812 15.4935 15.3931 15.4095 15.3931C15.3255 15.3931 15.2445 15.3811 15.1668 15.3608Z" fill="#E6B432"/>
<path d="M15.2296 14.4331C15.2296 14.3337 15.1491 14.2531 15.0496 14.2531C15.0003 14.2531 14.9557 14.273 14.9232 14.3051C14.8902 14.3377 14.8696 14.383 14.8696 14.4331C14.8696 14.4832 14.8902 14.5285 14.9232 14.561C14.9557 14.5932 15.0003 14.6131 15.0496 14.6131C15.1491 14.613 15.2296 14.5325 15.2296 14.4331Z" fill="#F0C814"/>
<path d="M15.5896 14.4331C15.5896 14.5325 15.6702 14.6131 15.7696 14.6131C15.8189 14.6131 15.8635 14.5932 15.896 14.561C15.9291 14.5284 15.9496 14.4831 15.9496 14.4331C15.9496 14.383 15.9291 14.3377 15.896 14.3051C15.8635 14.273 15.8189 14.2531 15.7696 14.2531C15.6702 14.253 15.5896 14.3336 15.5896 14.4331Z" fill="#F0C814"/>
<path d="M15.4097 14.253C15.5092 14.253 15.5897 14.1725 15.5897 14.073C15.5897 14.0237 15.5698 13.9791 15.5377 13.9466C15.5051 13.9136 15.4598 13.893 15.4097 13.893C15.3596 13.893 15.3143 13.9136 15.2818 13.9466C15.2497 13.9791 15.2297 14.0237 15.2297 14.073C15.2297 14.1725 15.3103 14.253 15.4097 14.253Z" fill="#F0C814"/>
<path d="M15.4097 14.613C15.3103 14.613 15.2297 14.6936 15.2297 14.793C15.2297 14.8423 15.2497 14.887 15.2818 14.9195C15.3144 14.9525 15.3597 14.973 15.4097 14.973C15.4598 14.973 15.5051 14.9525 15.5377 14.9195C15.5698 14.887 15.5897 14.8423 15.5897 14.793C15.5897 14.6936 15.5092 14.613 15.4097 14.613Z" fill="#F0C814"/>
<path d="M20.9225 9.16036C20.9399 9.1778 20.9601 9.19083 20.9816 9.19955C21.0034 9.2085 21.0266 9.21305 21.0498 9.21305C21.0958 9.21305 21.1419 9.19547 21.177 9.16027C21.2394 9.09788 21.2431 9.00272 21.1948 8.93259L21.2612 8.66723C21.2706 8.66962 21.2796 8.67295 21.2898 8.67295C21.356 8.67295 21.4098 8.61923 21.4098 8.55295C21.4098 8.48667 21.356 8.43295 21.2898 8.43295C21.2235 8.43295 21.1698 8.48667 21.1698 8.55295C21.1698 8.56308 21.1732 8.57208 21.1755 8.5815L20.9101 8.64788C20.84 8.59955 20.7448 8.60334 20.6824 8.66573C20.63 8.71814 20.6169 8.79473 20.6426 8.85952C20.6515 8.88159 20.6645 8.90241 20.6824 8.92031L20.9225 9.16036Z" fill="#D2D2D2"/>
<path d="M17.9297 11.9834V11.913V11.433C17.9297 11.4051 17.9407 11.3806 17.9567 11.3602L15.4567 8.85956C15.4479 8.88164 15.4348 8.90245 15.4169 8.92035L15.1769 9.16036C15.1595 9.17779 15.1393 9.19082 15.1179 9.19954L15.5628 9.64462L14.9126 10.2948L15.3368 10.719L15.5065 10.5494L15.4217 10.4645L15.5913 10.2948L15.6762 10.3796L15.7611 10.2948L15.9308 10.4645L15.8459 10.5494L15.9308 10.6342L15.7611 10.8039L15.6762 10.719L15.5065 10.8887L15.9307 11.3129L16.5808 10.6629L17.5957 11.678C17.6171 11.6828 17.6378 11.6914 17.6545 11.7081L17.9297 11.9834Z" fill="#D2D2D2"/>
<path d="M18.2051 12.2875L18.4354 12.5179L19.26 13.3427C19.3069 13.3896 19.3683 13.4131 19.4298 13.4131C19.4912 13.4131 19.5526 13.3896 19.5995 13.3427C19.6933 13.2491 19.6933 13.0971 19.5996 13.0034L18.5445 11.948L18.2051 12.2875Z" fill="#D2D2D2"/>
<path d="M18.1697 11.913V11.9834L18.3747 11.7783L18.1697 11.5732V11.913Z" fill="#D2D2D2"/>
<path d="M21.5898 13.6421C21.6086 13.6487 21.6286 13.6531 21.6497 13.6531C21.7491 13.6531 21.8297 13.5725 21.8297 13.4731C21.8297 13.3737 21.7491 13.2931 21.6497 13.2931C21.5503 13.2931 21.4697 13.3737 21.4697 13.4731C21.4697 13.4942 21.474 13.5142 21.4807 13.533C21.5194 13.567 21.5557 13.6034 21.5898 13.6421Z" fill="#D2D2D2"/>
<path d="M21.6497 15.213C21.6286 15.213 21.6086 15.2174 21.5898 15.2241C21.5557 15.2627 21.5194 15.2991 21.4807 15.3331C21.4741 15.3519 21.4697 15.3719 21.4697 15.393C21.4697 15.4925 21.5503 15.573 21.6497 15.573C21.7491 15.573 21.8297 15.4925 21.8297 15.393C21.8297 15.2937 21.7491 15.213 21.6497 15.213Z" fill="#D2D2D2"/>
<path d="M19.8985 13.533C19.9052 13.5142 19.9096 13.4942 19.9096 13.4731C19.9096 13.3736 19.829 13.2931 19.7296 13.2931C19.6301 13.2931 19.5496 13.3736 19.5496 13.4731C19.5496 13.5725 19.6301 13.6531 19.7296 13.6531C19.7507 13.6531 19.7707 13.6487 19.7895 13.642C19.8235 13.6034 19.8599 13.567 19.8985 13.533Z" fill="#D2D2D2"/>
<path d="M19.7297 15.5731C19.8291 15.5731 19.9097 15.4925 19.9097 15.3931C19.9097 15.3859 19.9084 15.379 19.9076 15.372C19.8105 15.4218 19.7051 15.4673 19.5923 15.5081C19.6253 15.5475 19.6742 15.5731 19.7297 15.5731Z" fill="#D2D2D2"/>
<path d="M21.5898 15.2241C21.7758 15.0127 21.8897 14.7362 21.8897 14.4331C21.8897 14.13 21.7758 13.8535 21.5898 13.6421C21.5558 13.6035 21.5194 13.567 21.4808 13.533C21.2693 13.347 20.9929 13.2331 20.6897 13.2331C20.3866 13.2331 20.1102 13.347 19.8987 13.533C19.8601 13.5671 19.8237 13.6035 19.7897 13.6421C19.6037 13.8535 19.4897 14.13 19.4897 14.4331C19.4897 14.5043 19.4972 14.5737 19.5091 14.6416C19.536 14.7942 19.5918 14.9366 19.6707 15.0637C19.696 15.1045 19.7232 15.1439 19.7531 15.1813C19.8524 15.1335 19.9418 15.0813 20.0194 15.0252C20.0206 15.0243 20.022 15.0242 20.0232 15.0234C19.9897 14.975 19.9697 14.9164 19.9697 14.8531C19.9697 14.7105 20.0699 14.5915 20.2033 14.5611C20.1703 14.5284 20.1497 14.4832 20.1497 14.4331C20.1497 14.383 20.1703 14.3377 20.2033 14.3051C20.0699 14.2747 19.9697 14.1556 19.9697 14.0131C19.9697 13.8476 20.1043 13.7131 20.2697 13.7131C20.4122 13.7131 20.5314 13.8132 20.5618 13.9467C20.5944 13.9136 20.6397 13.8931 20.6897 13.8931C20.7398 13.8931 20.7851 13.9136 20.8177 13.9467C20.8481 13.8132 20.9672 13.7131 21.1097 13.7131C21.2752 13.7131 21.4097 13.8476 21.4097 14.0131C21.4097 14.1556 21.3096 14.2747 21.1762 14.3051C21.2092 14.3377 21.2297 14.383 21.2297 14.4331C21.2297 14.4832 21.2092 14.5285 21.1762 14.5611C21.3096 14.5914 21.4097 14.7105 21.4097 14.8531C21.4097 15.0186 21.2752 15.1531 21.1097 15.1531C20.9672 15.1531 20.8481 15.053 20.8177 14.9195C20.7851 14.9526 20.7398 14.9731 20.6897 14.9731C20.6397 14.9731 20.5944 14.9526 20.5618 14.9195C20.5314 15.053 20.4123 15.1531 20.2697 15.1531C20.248 15.1531 20.2269 15.1505 20.2064 15.1461C20.2006 15.1745 20.1854 15.2011 20.1601 15.2195C20.0906 15.2698 20.0129 15.3166 19.9294 15.3607C20.1365 15.5308 20.4014 15.6331 20.6897 15.6331C20.9928 15.6331 21.2693 15.5192 21.4807 15.3332C21.5194 15.2991 21.5558 15.2627 21.5898 15.2241ZM19.7621 14.6758C19.7417 14.5981 19.7297 14.5171 19.7297 14.4331C19.7297 14.3491 19.7417 14.268 19.7621 14.1904C19.796 14.287 19.8561 14.3704 19.9345 14.4331C19.8561 14.4959 19.796 14.5791 19.7621 14.6758ZM20.6897 13.6778C20.6269 13.5994 20.5437 13.5393 20.447 13.5054C20.5247 13.485 20.6057 13.473 20.6897 13.473C20.7737 13.473 20.8548 13.485 20.9325 13.5054C20.8358 13.5393 20.7526 13.5994 20.6897 13.6778ZM21.6175 14.1903C21.6378 14.268 21.6498 14.3491 21.6498 14.433C21.6498 14.517 21.6378 14.5981 21.6175 14.6758C21.5836 14.5791 21.5235 14.4958 21.445 14.433C21.5235 14.3703 21.5836 14.287 21.6175 14.1903ZM20.447 15.3608C20.5437 15.3269 20.627 15.2668 20.6897 15.1883C20.7526 15.2668 20.8358 15.3269 20.9325 15.3608C20.8548 15.3811 20.7737 15.3931 20.6897 15.3931C20.6057 15.3931 20.5247 15.3811 20.447 15.3608Z" fill="#E6B432"/>
<path d="M20.8696 14.4331C20.8696 14.5325 20.9502 14.6131 21.0496 14.6131C21.0989 14.6131 21.1436 14.5932 21.1761 14.561C21.2091 14.5284 21.2296 14.4831 21.2296 14.4331C21.2296 14.383 21.2091 14.3377 21.1761 14.3051C21.1435 14.273 21.0989 14.2531 21.0496 14.2531C20.9502 14.253 20.8696 14.3336 20.8696 14.4331Z" fill="#F0C814"/>
<path d="M20.5097 14.4331C20.5097 14.3337 20.4291 14.2531 20.3297 14.2531C20.2803 14.2531 20.2357 14.273 20.2032 14.3051C20.1702 14.3377 20.1497 14.383 20.1497 14.4331C20.1497 14.4832 20.1702 14.5285 20.2032 14.561C20.2358 14.5932 20.2803 14.6131 20.3297 14.6131C20.4291 14.613 20.5097 14.5325 20.5097 14.4331Z" fill="#F0C814"/>
<path d="M20.6898 14.253C20.7892 14.253 20.8698 14.1725 20.8698 14.073C20.8698 14.0237 20.8498 13.9791 20.8177 13.9466C20.7851 13.9136 20.7398 13.893 20.6898 13.893C20.6397 13.893 20.5944 13.9136 20.5618 13.9466C20.5297 13.9791 20.5098 14.0237 20.5098 14.073C20.5098 14.1725 20.5903 14.253 20.6898 14.253Z" fill="#F0C814"/>
<path d="M20.6898 14.613C20.5903 14.613 20.5098 14.6936 20.5098 14.793C20.5098 14.8423 20.5297 14.887 20.5618 14.9195C20.5944 14.9525 20.6397 14.973 20.6898 14.973C20.7398 14.973 20.7852 14.9525 20.8177 14.9195C20.8498 14.887 20.8698 14.8423 20.8698 14.793C20.8698 14.6936 20.7892 14.613 20.6898 14.613Z" fill="#F0C814"/>
<path d="M15.417 8.92031C15.4349 8.90241 15.448 8.88164 15.4568 8.85952C15.4825 8.79473 15.4694 8.71819 15.417 8.66573C15.3546 8.60334 15.2595 8.59959 15.1893 8.64788L14.924 8.5815C14.9264 8.57208 14.9297 8.56308 14.9297 8.55295C14.9297 8.48667 14.876 8.43295 14.8097 8.43295C14.7434 8.43295 14.6897 8.48667 14.6897 8.55295C14.6897 8.61923 14.7434 8.67295 14.8097 8.67295C14.8198 8.67295 14.8288 8.66953 14.8382 8.66723L14.9046 8.93259C14.8563 9.00272 14.8601 9.09792 14.9225 9.16027C14.9576 9.19542 15.0037 9.21305 15.0497 9.21305C15.0729 9.21305 15.0961 9.20845 15.1179 9.19955C15.1394 9.19073 15.1595 9.17775 15.177 9.16036L15.417 8.92031Z" fill="#F7B518"/>
<path d="M20.1599 15.2194C20.1853 15.201 20.2004 15.1744 20.2063 15.146C20.2128 15.1142 20.2073 15.0801 20.1868 15.0518C20.1488 14.9994 20.0765 14.9873 20.0231 15.0233C20.0219 15.0241 20.0205 15.0242 20.0192 15.0251C19.9417 15.0812 19.8522 15.1334 19.7529 15.1812C19.4011 15.3504 18.9248 15.4633 18.4096 15.4998V13.8143C18.9333 14.5295 19.4434 14.9138 19.6705 15.0636C19.5916 14.9366 19.5359 14.7942 19.509 14.6415C19.2185 14.4013 18.8078 13.9977 18.4096 13.3891V12.5737C18.4181 12.555 18.4268 12.5368 18.4352 12.5179L18.2048 12.2875L18.5443 11.948L18.6144 11.8779C18.6613 11.831 18.6613 11.7551 18.6144 11.7082C18.5842 11.678 18.5423 11.6694 18.5034 11.6782C18.482 11.683 18.4614 11.6916 18.4447 11.7082L18.3745 11.7784L18.1695 11.9834V11.9131V11.5732V11.4331C18.1695 11.4051 18.1584 11.3806 18.1425 11.3602C18.1205 11.3322 18.0878 11.3131 18.0495 11.3131C18.0111 11.3131 17.9785 11.3322 17.9566 11.3602C17.9406 11.3806 17.9295 11.4051 17.9295 11.4331V11.9131V11.9834L17.6543 11.7082C17.6377 11.6916 17.617 11.683 17.5956 11.6782C17.5568 11.6695 17.5148 11.678 17.4846 11.7082C17.4377 11.7551 17.4377 11.831 17.4846 11.8779L17.5547 11.948L17.8942 12.2875L17.6638 12.5179C17.6723 12.5368 17.6809 12.555 17.6894 12.5737V13.3881C17.2916 13.9955 16.8808 14.3995 16.5902 14.6404C16.5634 14.7934 16.5076 14.9362 16.4285 15.0635C16.6556 14.9138 17.1657 14.5294 17.6894 13.8142V15.4997C17.1742 15.4633 16.6979 15.3503 16.346 15.1811C16.2466 15.1333 16.1572 15.0811 16.0795 15.0249C16.0784 15.024 16.0771 15.024 16.0759 15.0232C16.0225 14.9871 15.9501 14.9993 15.912 15.0516C15.8914 15.08 15.8859 15.1141 15.8926 15.146C15.8984 15.1743 15.9136 15.2009 15.9388 15.2192C16.0083 15.2696 16.0861 15.3165 16.1697 15.3605C16.1769 15.3643 16.1842 15.3681 16.1915 15.3719C16.2886 15.4217 16.394 15.4672 16.5068 15.508C16.8476 15.6313 17.2537 15.7119 17.6894 15.7408V16.6263C17.7248 16.6057 17.7655 16.593 17.8094 16.593C17.8533 16.593 17.894 16.6056 17.9294 16.6263V15.7513C17.9693 15.7521 18.0092 15.7529 18.0494 15.7529C18.0896 15.7529 18.1295 15.752 18.1694 15.7513V16.0263C18.2048 16.0057 18.2455 15.993 18.2894 15.993C18.3333 15.993 18.374 16.0056 18.4094 16.0263V15.7408C18.8452 15.7119 19.2513 15.6313 19.592 15.508C19.7048 15.4671 19.8102 15.4217 19.9073 15.3718C19.9147 15.368 19.9219 15.3643 19.9291 15.3605C20.0127 15.3166 20.0904 15.2697 20.1599 15.2194ZM18.0496 15.513C18.0094 15.513 17.9694 15.5122 17.9296 15.5113V13.4632C17.9698 13.4001 18.0098 13.3344 18.0496 13.2671C18.0893 13.3344 18.1293 13.4001 18.1696 13.4632V15.5113C18.1297 15.5122 18.0897 15.513 18.0496 15.513Z" fill="#FF4B55"/>
<path d="M18.0495 8.64639C18.7122 8.64639 19.2495 8.75982 19.2495 8.89975C19.2495 8.66434 19.2495 8.43465 19.2495 8.39879C19.2495 8.34376 19.1987 8.29192 19.1099 8.24645L19.1374 8.19147C19.1809 8.18847 19.2171 8.16217 19.2358 8.12547C19.2438 8.10953 19.2496 8.09228 19.2496 8.07306C19.2496 8.05 19.2414 8.02965 19.2301 8.01137C19.2089 7.97715 19.1728 7.95306 19.1296 7.95306C19.0633 7.95306 19.0096 8.00678 19.0096 8.07306C19.0096 8.09706 19.0185 8.11815 19.0306 8.1369L18.999 8.20004C18.9085 8.16822 18.7969 8.14117 18.6696 8.12022L18.6831 8.06622C18.7327 8.0515 18.7696 8.00734 18.7696 7.95301C18.7696 7.88673 18.7159 7.83301 18.6496 7.83301C18.5833 7.83301 18.5296 7.88673 18.5296 7.95301C18.5296 7.98686 18.5438 8.01709 18.5663 8.03893L18.5503 8.10301C18.4834 8.09462 18.4133 8.08801 18.3406 8.08304C18.346 8.0605 18.3496 8.0372 18.3496 8.01301C18.3496 7.84736 18.2153 7.71301 18.0496 7.71301C17.884 7.71301 17.7496 7.84736 17.7496 8.01301C17.7496 8.03729 17.7532 8.0605 17.7587 8.08304C17.6858 8.08797 17.6157 8.09462 17.5489 8.10301L17.5329 8.03893C17.5554 8.01709 17.5696 7.98686 17.5696 7.95301C17.5696 7.88673 17.5159 7.83301 17.4496 7.83301C17.3833 7.83301 17.3296 7.88673 17.3296 7.95301C17.3296 8.00739 17.3665 8.0515 17.4161 8.06622L17.4296 8.12022C17.3024 8.14112 17.1908 8.16817 17.1002 8.20004L17.0686 8.1369C17.0807 8.11811 17.0896 8.09706 17.0896 8.07306C17.0896 8.00678 17.0359 7.95306 16.9696 7.95306C16.9264 7.95306 16.8902 7.97711 16.8692 8.01137C16.8579 8.0297 16.8496 8.05 16.8496 8.07306C16.8496 8.09223 16.8553 8.10953 16.8634 8.12547C16.882 8.16217 16.9182 8.18847 16.9617 8.19147L16.9893 8.24645C16.9004 8.29192 16.8497 8.34367 16.8497 8.39879C16.8497 8.4347 16.8497 8.66434 16.8497 8.89975C16.8495 8.75982 17.3868 8.64639 18.0495 8.64639Z" fill="#E6B432"/>
<path d="M16.8496 8.91306L16.8511 8.91245C16.8507 8.90842 16.8496 8.90298 16.8496 8.89975C16.8496 8.90425 16.8496 8.90861 16.8496 8.91306Z" fill="#E6B432"/>
<path d="M19.2495 8.91305C19.2495 8.9086 19.2495 8.90419 19.2495 8.89969C19.2495 8.90297 19.2484 8.90841 19.248 8.91239L19.2495 8.91305Z" fill="#E6B432"/>
<path d="M17.0896 9.15308C17.0896 9.17708 17.0807 9.19817 17.0686 9.21692L17.1141 9.30791C17.1935 9.26853 17.302 9.23474 17.4317 9.20881L17.416 9.14633C17.3665 9.13161 17.3296 9.08745 17.3296 9.03313C17.3296 8.96684 17.3833 8.91313 17.4496 8.91313C17.5158 8.91313 17.5696 8.96684 17.5696 9.03313C17.5696 9.06697 17.5554 9.0972 17.5329 9.11905L17.5502 9.18824C17.666 9.17094 17.7939 9.15941 17.9296 9.15514V9.04644C17.893 9.01349 17.8696 8.96628 17.8696 8.91313C17.8696 8.8137 17.9502 8.73313 18.0496 8.73313C18.149 8.73313 18.2296 8.8137 18.2296 8.91313C18.2296 8.96624 18.2062 9.01349 18.1696 9.04644V9.15514C18.3053 9.15945 18.4332 9.17099 18.549 9.18824L18.5664 9.11905C18.5439 9.0972 18.5297 9.06697 18.5297 9.03313C18.5297 8.96684 18.5834 8.91313 18.6497 8.91313C18.7159 8.91313 18.7697 8.96684 18.7697 9.03313C18.7697 9.0875 18.7328 9.13161 18.6832 9.14633L18.6676 9.20881C18.7973 9.23474 18.9058 9.26863 18.9851 9.30791L19.0306 9.21692C19.0185 9.19813 19.0096 9.17708 19.0096 9.15308C19.0096 9.0868 19.0633 9.03308 19.1296 9.03308C19.1583 9.03308 19.1836 9.04456 19.2042 9.06139C19.231 8.99581 19.2452 8.94374 19.2481 8.91252C19.2485 8.90849 19.2496 8.90305 19.2496 8.89981C19.2496 8.75989 18.7123 8.64645 18.0496 8.64645C17.3869 8.64645 16.8496 8.75989 16.8496 8.89981C16.8496 8.9031 16.8507 8.90853 16.8511 8.91252C16.854 8.94374 16.8682 8.99581 16.8949 9.06139C16.9156 9.04456 16.9409 9.03308 16.9696 9.03308C17.0359 9.03303 17.0896 9.0868 17.0896 9.15308Z" fill="#EBEBEB"/>
<path d="M16.8496 9.15311C16.8496 9.21658 16.8993 9.26725 16.9617 9.27151L17.0135 9.37506C16.9854 9.40258 16.9696 9.43154 16.9696 9.46164C16.9696 9.49623 16.9904 9.52947 17.0272 9.56054L17.2096 9.87311C17.2096 9.74054 17.5856 9.63311 18.0496 9.63311C18.5135 9.63311 18.8896 9.74054 18.8896 9.87311L19.0719 9.56054C19.1087 9.52947 19.1296 9.49633 19.1296 9.46164C19.1296 9.43154 19.1138 9.40258 19.0856 9.37506L19.1374 9.27151C19.1998 9.2672 19.2496 9.21658 19.2496 9.15311C19.2496 9.11556 19.2312 9.0834 19.2042 9.06142C19.1836 9.04459 19.1582 9.03311 19.1296 9.03311C19.0633 9.03311 19.0096 9.08683 19.0096 9.15311C19.0096 9.17711 19.0184 9.1982 19.0306 9.21695L18.9851 9.30794C18.9057 9.26856 18.7972 9.23476 18.6675 9.20884L18.6831 9.14636C18.7327 9.13164 18.7696 9.08748 18.7696 9.03315C18.7696 8.96687 18.7159 8.91315 18.6496 8.91315C18.5833 8.91315 18.5296 8.96687 18.5296 9.03315C18.5296 9.067 18.5438 9.09723 18.5663 9.11908L18.549 9.18826C18.4332 9.17097 18.3053 9.15944 18.1696 9.15517V9.04647C18.2061 9.01351 18.2296 8.96631 18.2296 8.91315C18.2296 8.81373 18.149 8.73315 18.0496 8.73315C17.9501 8.73315 17.8696 8.81373 17.8696 8.91315C17.8696 8.96626 17.893 9.01351 17.9296 9.04647V9.15517C17.7939 9.15948 17.6659 9.17101 17.5502 9.18826L17.5328 9.11908C17.5553 9.09723 17.5695 9.067 17.5695 9.03315C17.5695 8.96687 17.5158 8.91315 17.4495 8.91315C17.3832 8.91315 17.3295 8.96687 17.3295 9.03315C17.3295 9.08753 17.3664 9.13164 17.416 9.14636L17.4316 9.20884C17.3019 9.23476 17.1934 9.26865 17.114 9.30794L17.0686 9.21695C17.0807 9.19815 17.0896 9.17711 17.0896 9.15311C17.0896 9.08683 17.0358 9.03311 16.9696 9.03311C16.9409 9.03311 16.9156 9.04459 16.8949 9.06142C16.8679 9.0834 16.8496 9.11551 16.8496 9.15311Z" fill="#E6B432"/>
<path d="M18.0497 10.1133C18.5136 10.1133 18.8897 10.0058 18.8897 9.87327C18.8897 9.74072 18.5136 9.63327 18.0497 9.63327C17.5858 9.63327 17.2097 9.74072 17.2097 9.87327C17.2097 10.0058 17.5858 10.1133 18.0497 10.1133Z" fill="#EBEBEB"/>
<path d="M19.221 7.82837L19.0097 7.35305C19.0097 7.32305 18.9867 7.29446 18.9464 7.26798L19.117 6.92677C19.1467 6.86748 19.1227 6.79538 19.0634 6.76576C19.0039 6.73632 18.932 6.76027 18.9023 6.81943L18.8097 7.00482L18.7212 7.18173C18.6703 7.16926 18.6135 7.15834 18.5526 7.14891L18.5632 7.1063C18.6128 7.09159 18.6497 7.04743 18.6497 6.9931C18.6497 6.92682 18.596 6.8731 18.5297 6.8731C18.4634 6.8731 18.4097 6.92682 18.4097 6.9931C18.4097 7.02695 18.4239 7.05718 18.4464 7.07902L18.4329 7.13312C18.3155 7.12027 18.186 7.1131 18.0497 7.1131C17.9134 7.1131 17.7839 7.12027 17.6666 7.13312L17.653 7.07902C17.6755 7.05718 17.6897 7.02695 17.6897 6.9931C17.6897 6.92682 17.636 6.8731 17.5697 6.8731C17.5034 6.8731 17.4497 6.92682 17.4497 6.9931C17.4497 7.04748 17.4866 7.09159 17.5362 7.1063L17.5469 7.14891C17.4859 7.15834 17.4292 7.16926 17.3782 7.18173L17.2897 7.00482L17.1971 6.81943C17.1674 6.76027 17.0955 6.73637 17.0361 6.76576C16.9768 6.79538 16.9527 6.86748 16.9824 6.92677L17.153 7.26798C17.1127 7.29446 17.0897 7.32305 17.0897 7.35305L16.8784 7.82837C16.9969 7.69384 17.4759 7.59305 18.0497 7.59305C18.6235 7.59305 19.1025 7.69379 19.221 7.82837Z" fill="#E6B432"/>
<path d="M18.0499 7.1133C18.1493 7.1133 18.2299 7.03271 18.2299 6.9333C18.2299 6.83388 18.1493 6.7533 18.0499 6.7533C17.9505 6.7533 17.8699 6.83388 17.8699 6.9333C17.8699 7.03271 17.9505 7.1133 18.0499 7.1133Z" fill="#E6B432"/>
</svg>
