<svg width="24" height="24" viewBox="0 0 24 24" fill="none" xmlns="http://www.w3.org/2000/svg">
<path d="M22.2026 4.13788H1.79742C0.804703 4.13788 0 4.94258 0 5.9353V18.0647C0 19.0573 0.804703 19.8621 1.79742 19.8621H22.2026C23.1952 19.8621 24 19.0574 24 18.0647V5.9353C24 4.94258 23.1953 4.13788 22.2026 4.13788ZM7.4483 18.2069C7.4483 18.4354 7.263 18.6207 7.03448 18.6207H4.34484H1.65516C1.42664 18.6207 1.24134 18.4354 1.24134 18.2069V5.79303C1.24134 5.56452 1.42664 5.37922 1.65516 5.37922H4.34484H7.03448C7.263 5.37922 7.4483 5.56452 7.4483 5.79303V18.2069ZM22.7586 18.2069C22.7586 18.4354 22.5733 18.6207 22.3448 18.6207H9.10345C8.87494 18.6207 8.68964 18.4354 8.68964 18.2069V5.79303C8.68964 5.56452 8.87494 5.37922 9.10345 5.37922H22.3448C22.5734 5.37922 22.7587 5.56452 22.7587 5.79303V18.2068H22.7586V18.2069Z" fill="#FFD250"/>
<path d="M22.3449 5.37927H9.10351C8.87499 5.37927 8.6897 5.56457 8.6897 5.79308V18.2069C8.6897 18.4354 8.87499 18.6207 9.10351 18.6207H22.3449C22.5734 18.6207 22.7587 18.4354 22.7587 18.2069V5.79304C22.7587 5.56452 22.5734 5.37927 22.3449 5.37927Z" fill="#963C3C"/>
<path d="M1.65527 5.37927C1.42675 5.37927 1.24146 5.56457 1.24146 5.79308V18.2069C1.24146 18.4354 1.42675 18.6207 1.65527 18.6207H4.34495V5.37927H1.65527Z" fill="#5AA587"/>
<path d="M7.03437 5.37927H4.34473V18.6207H7.03437C7.26288 18.6207 7.44818 18.4354 7.44818 18.2069V5.79304C7.44818 5.56452 7.26288 5.37927 7.03437 5.37927Z" fill="#FF7350"/>
<path d="M18.4477 15.3156C18.4339 15.2232 18.5153 15.1037 18.6411 14.9321C18.6866 14.8701 18.7524 14.7802 18.7701 14.7372C18.7584 14.7364 18.7423 14.7373 18.7303 14.7379C18.6606 14.7413 18.5553 14.7461 18.4633 14.6439C18.4273 14.6039 18.41 14.5538 18.4133 14.4991C18.4202 14.388 18.511 14.2787 18.5673 14.2209C18.4221 14.119 18.2834 14.0131 18.1555 13.8852C17.9111 13.6408 17.6323 13.5231 17.3245 13.5295C17.296 13.8357 17.4538 14.037 17.6222 14.2489C17.6718 14.3113 17.7213 14.3736 17.7662 14.4387C17.9877 14.7594 17.9414 15.3785 17.9133 15.4441C17.8815 15.5184 17.7064 15.6832 17.4661 15.6511C17.3556 15.6366 17.2285 15.6738 17.1483 15.7438C17.1139 15.7739 17.0728 15.8241 17.0728 15.8913C17.0728 15.8947 17.073 15.9117 17.0783 15.9148C17.1106 15.9343 17.2312 15.8963 17.3174 15.8496C17.3413 15.8367 17.3709 15.8405 17.3909 15.8592C17.5608 16.0182 17.7313 15.8808 17.7501 15.8646C17.7733 15.8447 17.8077 15.844 17.8314 15.8631C18.0052 16.0032 18.1864 15.8501 18.1941 15.8435C18.2154 15.825 18.2466 15.8228 18.2704 15.8383C18.3458 15.8878 18.4147 15.9019 18.4763 15.8808C18.53 15.8622 18.5585 15.8218 18.5618 15.812C18.5634 15.7863 18.5289 15.6538 18.506 15.566C18.482 15.474 18.4573 15.3788 18.4477 15.3156Z" fill="#FFD250"/>
<path d="M20.3299 9.45302C20.2776 9.44904 20.2397 9.46038 20.2137 9.48607C20.1662 9.53308 20.1701 9.61779 20.1701 9.61863C20.1711 9.63747 20.1637 9.65585 20.1499 9.66869C20.1361 9.68149 20.1175 9.68805 20.0986 9.68529C20.0045 9.67296 19.8653 9.57363 19.607 9.3843C19.1966 9.0835 18.5764 8.62891 17.9846 8.55414C17.2968 8.46677 16.6846 8.68619 16.5291 9.07507C16.356 9.508 16.724 9.90246 16.7277 9.90644C16.7464 9.92627 16.7505 9.95585 16.7377 9.97989C16.6406 10.1627 16.7141 10.2976 16.7804 10.3715C16.8011 10.3105 16.8322 10.2688 16.8749 10.2432C16.9781 10.1815 17.113 10.2326 17.2994 10.3031C17.4095 10.3448 17.5344 10.392 17.68 10.4277C18.0533 10.5192 18.5086 10.4376 18.9103 10.3657C19.0523 10.3402 19.1892 10.3158 19.3166 10.2995C19.6369 10.2587 19.9581 10.4007 20.0464 10.6233C20.0892 10.7311 20.112 10.9474 19.7848 11.1854C19.1962 11.6135 16.5122 11.416 16.3541 11.4039C16.3506 11.4042 16.3471 11.4045 16.3397 11.405C16.3984 11.4709 16.4673 11.5352 16.4973 11.5432C16.5278 11.5514 16.5477 11.5808 16.5439 11.6123C16.54 11.6437 16.5135 11.6674 16.4819 11.6679L16.2069 11.6721L16.2322 11.9367C16.2341 11.9562 16.2268 11.9755 16.2124 11.9889C16.1982 12.0023 16.1784 12.0079 16.1592 12.0054C16.1484 12.0036 15.911 11.9657 15.747 11.8744L15.4364 12.0703C15.4262 12.0768 15.4144 12.08 15.4025 12.08C15.3956 12.08 15.3887 12.079 15.3821 12.0767C15.364 12.0705 15.3496 12.0565 15.343 12.0385L15.2245 11.7163L15.084 11.9974C15.0738 12.018 15.0532 12.0313 15.0304 12.0324C15.0075 12.0348 14.9858 12.0223 14.9735 12.0028L14.8531 11.8108C14.798 11.8796 14.7097 11.9798 14.6194 12.0423C14.6029 12.0539 14.5819 12.0567 14.5628 12.0503C14.5437 12.0438 14.5288 12.0286 14.5228 12.0094L14.4597 11.8102C14.4039 11.8808 14.3231 11.9744 14.2376 12.0446C14.2193 12.0597 14.194 12.0633 14.1721 12.0537C14.1503 12.0442 14.1356 12.0233 14.1341 11.9996L14.1138 11.6794C14.0415 11.7162 13.9431 11.7642 13.8886 11.7813C13.8638 11.789 13.8365 11.7807 13.8202 11.7603C13.8039 11.74 13.8017 11.7117 13.8148 11.6891C13.9126 11.5192 14.0024 11.3071 14.0092 11.2016C13.9444 11.2793 13.8536 11.3536 13.7521 11.4362C13.5362 11.6119 13.2675 11.8305 13.0698 12.2132C12.9317 12.4806 12.8325 12.9471 13.0074 13.382C13.1567 13.753 13.4779 14.0298 13.9593 14.2077C13.9432 14.1374 13.9309 14.0685 13.9296 14.0036C13.9233 13.6742 13.9917 13.3735 13.9946 13.3608C14.0025 13.3267 14.0365 13.3051 14.0706 13.3134C14.1048 13.3212 14.126 13.3553 14.1182 13.3893C14.1176 13.3923 14.0505 13.688 14.0564 14.0012C14.0594 14.1545 14.1253 14.3437 14.189 14.5266C14.2737 14.7698 14.3614 15.0213 14.3232 15.2328C14.2714 15.5205 13.9133 15.5934 13.5808 15.5379C13.4863 15.522 13.4004 15.5454 13.3386 15.603C13.276 15.6614 13.2438 15.7511 13.2527 15.8427C13.2568 15.8859 13.273 15.8946 13.2783 15.8975C13.3182 15.9191 13.4123 15.8898 13.4632 15.8631C13.4888 15.8497 13.5204 15.8552 13.54 15.8771C13.6733 16.0264 13.8529 15.8774 13.8604 15.8709C13.8861 15.8492 13.9246 15.8511 13.9477 15.8759C13.9979 15.9294 14.0511 15.956 14.1103 15.9574C14.2186 15.964 14.3214 15.8676 14.3224 15.8668C14.3411 15.8486 14.3692 15.8438 14.3929 15.8546C14.6021 15.9504 14.7119 15.8947 14.7164 15.8921C14.898 15.7373 14.7931 15.3701 14.792 15.3663C14.787 15.3495 14.7892 15.3314 14.7981 15.3164C14.8069 15.3013 14.8216 15.2906 14.8386 15.2866C15.0929 15.2283 15.2351 15.0651 15.3038 14.9569C15.1781 14.9557 15.0783 14.9117 15.0195 14.8198C14.9248 14.6714 14.9703 14.4481 15.1354 14.2507C15.4181 13.913 15.5908 13.2296 15.5649 12.9512C15.5617 12.9163 15.5874 12.8855 15.6222 12.8822C15.6562 12.8787 15.688 12.9046 15.6913 12.9395C15.7139 13.1833 15.604 13.6889 15.4034 14.0702C15.6575 13.9999 15.8895 13.897 16.1315 13.7866C16.3721 13.6768 16.621 13.5633 16.92 13.4696C17.4253 13.3114 17.8711 13.4211 18.2453 13.7955C18.4266 13.9768 18.6245 14.1095 18.8538 14.2634C18.9544 14.331 19.0592 14.4013 19.1678 14.4796C19.4624 14.6916 19.4572 14.8687 19.4517 15.0562C19.4501 15.1133 19.4482 15.1724 19.4546 15.2364C19.4851 15.5408 19.243 15.589 19.1266 15.6121C19.1107 15.6152 19.0957 15.6182 19.0827 15.6214C19.0662 15.6255 19.0466 15.6296 19.0249 15.634C18.9067 15.6579 18.7281 15.6941 18.6843 15.8454C18.6763 15.8725 18.6794 15.882 18.6794 15.882C18.698 15.8905 18.7948 15.8685 18.8718 15.8335C18.8882 15.826 18.9067 15.8259 18.9232 15.8329C18.9396 15.84 18.9523 15.8537 18.9582 15.8706C18.9806 15.9364 19.0157 15.9476 19.0272 15.9514C19.107 15.9763 19.2377 15.9028 19.2771 15.8748C19.3016 15.8576 19.3347 15.8594 19.3568 15.8797C19.4223 15.9395 19.4828 15.9658 19.5372 15.9585C19.6101 15.9483 19.6543 15.8798 19.6548 15.879C19.6653 15.8621 19.6831 15.851 19.7029 15.8492C19.7231 15.8481 19.7424 15.8553 19.7558 15.8699C19.756 15.8702 19.8115 15.9288 19.925 15.9646C19.9995 15.9879 20.0183 15.9611 20.0245 15.9521C20.0559 15.9062 20.0446 15.789 19.9833 15.7124C19.9028 15.6118 19.8655 15.4588 19.8882 15.3228C19.909 15.1975 19.9766 15.0953 20.0834 15.0273C20.2792 14.9026 20.3239 14.7683 20.3114 14.7427C20.3078 14.7409 20.2865 14.7382 20.2695 14.7359C20.1821 14.7243 20.0359 14.705 19.8855 14.4273C19.7526 14.1822 19.8812 13.7941 20.0299 13.3446C20.1054 13.117 20.1834 12.8814 20.2315 12.6504C20.3646 12.0114 19.9462 11.504 19.942 11.499C19.9204 11.4732 19.9226 11.435 19.9472 11.412C20.2408 11.1364 20.3671 10.881 20.3223 10.6528C20.2756 10.4149 20.0452 10.2485 19.8621 10.1784C19.6339 10.0909 19.2176 10.1406 18.8148 10.1885C18.4782 10.2285 18.1601 10.2664 17.9547 10.2236C17.8489 10.2013 17.7715 10.1512 17.7244 10.0745C17.6857 10.0113 17.6763 9.94211 17.6766 9.88811C17.5746 9.92646 17.5057 10.021 17.5049 10.0221C17.4933 10.0384 17.4745 10.0482 17.4545 10.0486C17.4295 10.0476 17.4153 10.0399 17.4031 10.0241C17.3512 9.95702 17.3303 9.88305 17.3412 9.80407C17.3552 9.70197 17.4211 9.61418 17.4751 9.55755C17.239 9.47463 17.058 9.67254 17.0497 9.68196C17.0291 9.70483 16.9951 9.70966 16.969 9.69396C16.8551 9.62393 16.7845 9.48649 16.789 9.34385C16.7933 9.20918 16.8627 9.09625 16.9795 9.03424C17.0595 8.99177 17.1363 8.98394 17.2075 9.0108C17.2751 9.0363 17.3226 9.08899 17.3525 9.13371C17.4389 9.03518 17.4462 8.86511 17.4462 8.86314C17.4467 8.84613 17.4538 8.83005 17.4664 8.81847C17.4788 8.8069 17.496 8.79963 17.5123 8.80146C17.6625 8.80764 17.7791 8.86193 17.8588 8.96266C17.9678 9.10052 17.978 9.29196 17.9716 9.4105C18.2116 9.28802 18.1812 9.00532 18.1796 8.9921C18.1771 8.97025 18.1859 8.94874 18.203 8.93505C18.2201 8.92146 18.2429 8.91719 18.2638 8.92483C18.5184 9.01469 18.6111 9.24175 18.6329 9.41074C18.705 9.34193 18.7061 9.25366 18.7061 9.25254C18.7061 9.22357 18.7257 9.19825 18.7538 9.19108C18.7821 9.184 18.8112 9.19671 18.8252 9.22211C18.9234 9.40164 19.0732 9.51344 19.1828 9.57593L19.1073 9.39297C19.0971 9.36818 19.1035 9.33963 19.1234 9.32168C19.1434 9.30368 19.1725 9.30021 19.196 9.31296C19.3216 9.3806 19.4211 9.45714 19.5265 9.53829C19.6535 9.63611 19.7849 9.73718 19.9699 9.82413C20.1507 9.90911 20.2725 9.89294 20.3426 9.86454C20.4153 9.83519 20.4568 9.78344 20.4703 9.748C20.4958 9.68102 20.5033 9.58483 20.4623 9.52104C20.436 9.47988 20.3914 9.45705 20.3299 9.45302Z" fill="#FFD250"/>
<path d="M12.8413 10.365C12.8415 10.3651 12.8415 10.3652 12.8415 10.3652C12.8418 10.3653 12.842 10.3652 12.8422 10.3653C12.8469 10.3668 13.3211 10.5165 13.7517 10.5421C13.7754 10.5435 13.7963 10.5581 13.8059 10.5797C13.8154 10.6014 13.8122 10.6267 13.7974 10.6452L13.7823 10.6639C13.8677 10.6511 13.9752 10.6393 14.0806 10.6388C14.0374 10.5875 13.9837 10.5221 13.9285 10.4536C13.8134 10.4515 13.392 10.4332 13.0491 10.268C12.9658 10.2276 12.8218 10.1578 12.7533 10.1931C12.7415 10.1992 12.722 10.2278 12.7252 10.2629C12.7295 10.3075 12.7706 10.3438 12.8413 10.365Z" fill="#FFD250"/>
<path d="M14.2703 9.44824C14.2637 9.44824 14.2577 9.44895 14.2524 9.45059C14.2248 9.45888 14.2107 9.49015 14.207 9.51452C14.2024 9.54574 14.2103 9.58769 14.2466 9.61193C14.2939 9.64338 14.3445 9.62187 14.3734 9.59341C14.3824 9.58455 14.4259 9.53801 14.3938 9.4871L14.3937 9.48696C14.3442 9.46413 14.3007 9.44824 14.2703 9.44824Z" fill="#FFD250"/>
<path d="M13.6479 10.9775C13.6786 11.0507 13.7262 11.1075 13.7657 11.1455C13.7806 11.1131 13.8034 11.0795 13.838 11.0543C13.8719 11.0296 13.9306 11.0056 14.0165 11.0235C14.0179 11.0236 14.0191 11.0239 14.0204 11.024C14.0229 11.0246 14.0248 11.0243 14.0274 11.025C14.0296 11.0255 14.031 11.0272 14.0332 11.0279C14.0362 11.0289 14.0395 11.029 14.0424 11.0307C14.0446 11.0318 14.0459 11.0339 14.0479 11.0353C14.0802 11.049 14.1072 11.0712 14.1215 11.1046C14.1696 11.2168 14.085 11.4345 14.0104 11.5893C14.0631 11.5632 14.1136 11.5368 14.1409 11.5222C14.1599 11.512 14.1828 11.5121 14.2017 11.5227C14.2206 11.5332 14.2328 11.5526 14.2342 11.5741L14.2521 11.857C14.3513 11.7525 14.4294 11.6389 14.4304 11.6374C14.4441 11.6174 14.4678 11.6073 14.492 11.6105C14.516 11.614 14.5359 11.631 14.5432 11.6541L14.6155 11.8826C14.7168 11.7894 14.8051 11.6647 14.8061 11.6631C14.8185 11.6458 14.8385 11.6365 14.8597 11.6362C14.8809 11.6367 14.9005 11.6479 14.9118 11.6659L15.0209 11.8398L15.1765 11.5285C15.1879 11.5058 15.2092 11.4915 15.2369 11.4935C15.2622 11.4949 15.2841 11.5112 15.2929 11.535L15.4349 11.9213L15.7121 11.7464C15.7331 11.733 15.7598 11.7333 15.7808 11.747C15.8712 11.8062 16.0101 11.8444 16.0977 11.8641L16.074 11.6158C16.0724 11.5981 16.0781 11.5806 16.09 11.5674C16.1018 11.5543 16.1185 11.5465 16.1362 11.5463L16.2948 11.5439C16.2567 11.5053 16.2251 11.4679 16.2097 11.449C16.1994 11.4364 16.1953 11.421 16.1959 11.4059C16.0791 11.4009 15.9162 11.3801 15.7534 11.3098L15.6565 11.4592C15.6472 11.4735 15.6327 11.4834 15.616 11.4868C15.6119 11.4877 15.6076 11.4882 15.6033 11.4882C15.5909 11.4882 15.5785 11.4845 15.568 11.4774L15.2016 11.2316L15.1343 11.4149C15.1266 11.4359 15.1083 11.4513 15.0863 11.4553C15.0642 11.4596 15.0417 11.4515 15.027 11.4347C14.964 11.3625 14.8652 11.2518 14.8064 11.1911C14.7534 11.2422 14.6605 11.3245 14.5612 11.3797C14.545 11.3887 14.5256 11.3901 14.5084 11.3837C14.491 11.3773 14.4774 11.3637 14.4709 11.3463L14.3704 11.0767C14.3582 11.0439 14.3749 11.0074 14.4078 10.9951C14.4405 10.983 14.4772 10.9997 14.4894 11.0325L14.5626 11.2291C14.6689 11.1553 14.7576 11.0602 14.7587 11.0591C14.7813 11.0347 14.819 11.0318 14.8448 11.0526C14.8817 11.0822 14.982 11.1926 15.052 11.271L15.1104 11.112C15.117 11.0937 15.1318 11.0795 15.1503 11.0736C15.1687 11.0672 15.1891 11.0702 15.2053 11.0812L15.5852 11.3361L15.6771 11.1945C15.6947 11.1673 15.7301 11.1577 15.7586 11.1723C15.9272 11.2567 16.1093 11.277 16.2256 11.2801C16.1546 11.1476 16.1484 10.9796 16.148 10.9402C16.053 10.8982 15.9363 10.835 15.8189 10.7385L15.7733 10.8513C15.7659 10.8693 15.7507 10.883 15.7319 10.8884C15.7132 10.8936 15.6929 10.8902 15.6772 10.8788L15.4939 10.7458L15.4761 10.8832C15.4733 10.9045 15.46 10.9229 15.4405 10.9321C15.4213 10.9414 15.3986 10.9405 15.3802 10.9292C15.3738 10.9254 15.223 10.8332 15.1331 10.7321C15.1098 10.706 15.1122 10.6658 15.1384 10.6426C15.1643 10.6193 15.2045 10.6215 15.228 10.6479C15.2659 10.6906 15.3191 10.733 15.3635 10.7652L15.3819 10.6237C15.3848 10.6015 15.3992 10.5825 15.4197 10.5736C15.4404 10.5647 15.4641 10.5675 15.4821 10.5805L15.6861 10.7285L15.735 10.608C15.7428 10.5886 15.7598 10.5744 15.7803 10.5699C15.8006 10.5655 15.8221 10.5713 15.8373 10.5857C15.9954 10.7346 16.1665 10.8149 16.273 10.8543C16.2366 10.685 16.2227 10.4727 16.222 10.4615C16.222 10.4599 16.2227 10.4586 16.2227 10.457C16.1238 10.4025 15.9841 10.3086 15.8633 10.161C15.8627 10.2391 15.8563 10.3187 15.8372 10.369C15.8305 10.3863 15.8168 10.3999 15.7993 10.4062C15.7818 10.4122 15.7625 10.4106 15.7466 10.4016C15.739 10.3972 15.6009 10.318 15.4982 10.2022C15.4804 10.266 15.4591 10.3332 15.4412 10.3632C15.424 10.3916 15.3881 10.4021 15.3584 10.3873C15.3523 10.3843 15.2551 10.3351 15.1685 10.2598C15.16 10.3443 15.147 10.4397 15.1285 10.4862C15.1218 10.5031 15.1081 10.5162 15.091 10.5224C15.0739 10.5282 15.0551 10.5269 15.0392 10.5183C15.0333 10.5152 14.9233 10.4548 14.8205 10.3783L14.7926 10.4841C14.7878 10.5022 14.7753 10.5172 14.7585 10.5253C14.7415 10.5331 14.7221 10.5333 14.705 10.5257C14.6974 10.5222 14.516 10.4388 14.4127 10.3125C14.3905 10.2855 14.3944 10.2455 14.4216 10.2234C14.4486 10.2012 14.4887 10.2051 14.5107 10.2323C14.5601 10.2926 14.6357 10.3431 14.6902 10.3747L14.7228 10.2511C14.7284 10.2296 14.7448 10.2127 14.7661 10.2064C14.7872 10.1998 14.8102 10.2053 14.8267 10.2202C14.8873 10.2751 14.9693 10.329 15.0276 10.3648C15.04 10.2864 15.0497 10.1732 15.0538 10.0998C15.0554 10.0715 15.0756 10.0477 15.1032 10.0415C15.1312 10.0352 15.1594 10.0483 15.1728 10.0732C15.2077 10.1374 15.2915 10.2 15.3547 10.2395C15.3721 10.1852 15.3934 10.1052 15.4095 10.0362C15.4157 10.0096 15.438 9.99009 15.4651 9.98747C15.4922 9.98409 15.518 9.99961 15.5291 10.0245C15.5687 10.1122 15.6647 10.1925 15.7332 10.2416C15.7407 10.1491 15.7338 10.0177 15.7253 9.93548C15.7222 9.90492 15.7413 9.87651 15.7708 9.86798C15.801 9.85983 15.8318 9.87342 15.8453 9.90089C15.9729 10.1597 16.1985 10.303 16.3159 10.3633C16.3799 9.66328 16.1747 9.39544 16.1725 9.39272C16.161 9.37828 16.1562 9.35934 16.1596 9.3412C16.1631 9.32311 16.174 9.30717 16.19 9.29789C16.304 9.23194 16.3731 9.11147 16.4155 8.99456C16.1576 9.24459 15.749 9.34064 15.55 9.37387L15.6472 9.49233C15.662 9.51042 15.6657 9.53522 15.6567 9.55683C15.6477 9.57844 15.6277 9.59334 15.6044 9.59564C15.3605 9.62001 15.1825 9.58772 15.0627 9.54731L15.1042 9.62386C15.1151 9.64392 15.1143 9.66839 15.1022 9.6877C15.0902 9.70711 15.068 9.72019 15.0457 9.71742C14.847 9.70894 14.6732 9.62704 14.5303 9.55472C14.5235 9.60136 14.5005 9.64678 14.4622 9.68423C14.4152 9.73003 14.3556 9.7537 14.2964 9.7537C14.2545 9.7537 14.2129 9.74179 14.1764 9.71742C14.1047 9.66956 14.0684 9.58458 14.0817 9.4957C14.0941 9.41404 14.1456 9.3502 14.2163 9.32906C14.3108 9.30098 14.4188 9.35564 14.5553 9.4252C14.6637 9.48042 14.7929 9.54619 14.9338 9.57567L14.8553 9.43064C14.8407 9.40364 14.8474 9.37012 14.8714 9.35086C14.8954 9.33192 14.9295 9.33244 14.9528 9.35264C14.9542 9.35386 15.112 9.48356 15.4704 9.47686L15.38 9.3667C15.3651 9.34861 15.3615 9.32367 15.3705 9.30206C15.3796 9.28045 15.3998 9.26554 15.4232 9.26334C15.43 9.26273 15.9505 9.2099 16.2708 8.95186C16.1665 8.98237 16.0858 8.97754 16.0796 8.97745C16.062 8.97604 16.0458 8.96747 16.0349 8.95364C15.8882 8.76928 15.738 8.71228 15.6623 8.69465C15.6198 8.82862 15.5169 8.93704 15.5118 8.94225C15.4982 8.95636 15.4788 8.96329 15.4595 8.96137C15.44 8.95931 15.4225 8.94839 15.4121 8.93175C15.299 8.74936 15.1359 8.7014 15.0411 8.68954C15.0527 8.82436 14.9585 8.93508 14.8958 8.98115C14.8714 8.99883 14.8381 8.99723 14.8159 8.97736C14.5437 8.73403 14.3335 8.80603 14.2484 8.85464C14.2753 8.92134 14.2626 8.97586 14.2444 9.0127C14.1145 9.27609 13.3104 9.32906 13.1505 9.33698C13.1306 9.33839 13.1108 9.32934 13.098 9.31354C13.0852 9.29775 13.0809 9.27689 13.086 9.25734C13.0977 9.21347 13.0899 9.16617 13.064 9.12389C13.0376 9.08072 12.9952 9.04926 12.9508 9.03975C12.909 9.03089 12.8293 9.03661 12.7816 9.08887C12.7271 9.14883 12.7234 9.25969 12.7708 9.40954C12.856 9.67856 13.1182 9.94359 13.2815 10.0889C13.28 10.0554 13.281 10.0308 13.2813 10.0246C13.2828 9.99754 13.3012 9.97434 13.3273 9.96694C13.3534 9.9593 13.3812 9.96933 13.3967 9.99159C13.4508 10.0693 13.5153 10.1218 13.5638 10.154L13.5956 9.95104C13.6001 9.92297 13.6226 9.90122 13.6509 9.89789C13.6789 9.8955 13.7061 9.91045 13.7169 9.93679C13.7744 10.0764 14.1382 10.5134 14.2735 10.67C14.2909 10.69 14.2939 10.7186 14.2812 10.7419C14.2685 10.765 14.2428 10.7775 14.2165 10.7743C13.9847 10.7412 13.6441 10.8184 13.6407 10.8191C13.6144 10.8252 13.5872 10.8139 13.5728 10.791C13.5585 10.7682 13.5602 10.7387 13.5771 10.7176L13.624 10.6592C13.3021 10.6257 12.9887 10.5411 12.862 10.5041L12.7555 10.7933L13.0424 10.7647C13.064 10.7619 13.0863 10.772 13.0995 10.7898C13.1129 10.8077 13.1158 10.8311 13.1074 10.8518L13.0533 10.984L13.2896 10.9215C13.3209 10.9128 13.353 10.9295 13.3649 10.9594C13.3962 11.0387 13.4346 11.0908 13.4652 11.1231L13.5318 10.976C13.5423 10.953 13.5652 10.937 13.5905 10.9387C13.6155 10.9389 13.6381 10.9541 13.6479 10.9775Z" fill="#FFD250"/>
<path d="M12.8263 14.2211C13.0764 14.3881 13.2787 14.1975 13.3867 14.0508C13.1562 13.8826 12.9884 13.6758 12.8894 13.4294C12.857 13.349 12.8359 13.2676 12.8195 13.1864C12.7959 13.1679 12.4479 12.8922 12.1564 12.5699C12.1415 12.6088 12.1219 12.6396 12.1061 12.6605C12.1266 12.7438 12.1066 12.8118 12.081 12.8554C12.0987 12.9148 12.0845 12.9737 12.0639 13.0167C12.108 13.0833 12.116 13.1484 12.0878 13.2111C12.0813 13.2254 12.0726 13.2386 12.0635 13.2516C12.0998 13.2954 12.1568 13.3956 12.1568 13.5973C12.1568 13.7329 12.207 13.8142 12.2445 13.8561C12.2664 13.8371 12.2904 13.8265 12.3167 13.8237C12.3967 13.8148 12.4624 13.8832 12.5523 13.9776C12.6226 14.0516 12.7102 14.1437 12.8263 14.2211Z" fill="#FFD250"/>
<path d="M11.582 12.5014C11.5773 12.5014 11.5726 12.5014 11.5679 12.5014C11.4767 12.5005 11.3933 12.4914 11.3165 12.4766C11.3091 12.4978 11.3248 12.5594 11.3413 12.5721C11.3574 12.5845 11.3683 12.605 11.3677 12.6254C11.3671 12.6458 11.3584 12.6657 11.3416 12.6772C11.3307 12.6848 11.2985 12.7136 11.2981 12.7416C11.2977 12.769 11.33 12.7973 11.3493 12.8118C11.3634 12.8224 11.3725 12.8384 11.3743 12.8559C11.3761 12.8735 11.3706 12.891 11.3589 12.9043C11.3508 12.914 11.3275 12.9493 11.3315 12.9789C11.3324 12.9852 11.335 13.0044 11.368 13.0268C11.3823 13.0365 11.3921 13.0518 11.395 13.0689C11.3978 13.086 11.3935 13.1035 11.3831 13.1173C11.3832 13.1173 11.3654 13.1434 11.3722 13.1692C11.3798 13.1979 11.4155 13.2199 11.444 13.2333C11.4974 13.2584 11.5742 13.2746 11.6543 13.2777C11.6567 13.2773 11.6592 13.2777 11.6617 13.2776C11.7292 13.2796 11.7985 13.273 11.8577 13.2512C11.9158 13.2297 11.9543 13.1987 11.9723 13.1589C11.9779 13.1464 11.9896 13.1207 11.9397 13.0624C11.9202 13.0396 11.9193 13.0064 11.9375 12.9825C11.9376 12.9824 11.9799 12.9242 11.9538 12.8778C11.9398 12.8529 11.9441 12.8219 11.9642 12.8018C11.9679 12.7977 12.0073 12.7513 11.9761 12.6681C11.9671 12.6442 11.9734 12.6172 11.992 12.5996C11.9943 12.5974 12.0517 12.5376 12.0504 12.4468C12.0427 12.4374 12.0349 12.4279 12.0273 12.4183C11.9045 12.4704 11.754 12.5014 11.582 12.5014Z" fill="#FFD250"/>
<path d="M12.1621 8.08002C11.9056 8.21797 11.3586 8.65049 11.3428 9.83455L11.3569 11.8299C11.3586 11.8327 11.361 11.8356 11.3624 11.8383C11.3955 11.9008 11.3799 11.9817 11.3613 12.0378C11.5198 12.0944 11.7174 12.0711 11.8021 12.0502C11.7852 12.0007 11.7718 11.9208 11.8291 11.8303C11.8202 9.45078 12.0472 8.43847 12.1621 8.08002Z" fill="#FFD250"/>
<path d="M12.1886 12.0784C12.1886 11.977 12.1121 11.8981 12.0365 11.8725C12.0208 11.8671 11.9675 11.8523 11.943 11.8844C11.8971 11.9443 11.9134 11.9867 11.929 12.0278C11.9377 12.0506 11.9467 12.0741 11.94 12.101C11.9314 12.1354 11.9001 12.1495 11.8898 12.1542C11.8037 12.1932 11.4765 12.2445 11.2504 12.1278C11.2197 12.1119 11.2073 12.0744 11.2225 12.0433C11.2464 11.9944 11.2637 11.9227 11.2505 11.8977C11.2494 11.8957 11.2464 11.89 11.2286 11.8876C11.2117 11.8853 11.1949 11.8842 11.1783 11.8842C11.1011 11.8842 11.0294 11.9084 10.9907 11.9499C10.9596 11.9832 10.9498 12.0257 10.961 12.0796C10.9986 12.2611 11.2259 12.3713 11.569 12.3744C11.8117 12.3736 12.0205 12.3163 12.1247 12.2129C12.1672 12.171 12.1886 12.1257 12.1886 12.0784Z" fill="#FFD250"/>
<path d="M11.6427 13.5835C11.6573 13.5641 11.6816 13.5548 11.7055 13.5598C11.7496 13.569 11.8592 13.5923 11.9221 13.5435C11.9441 13.5266 11.949 13.4806 11.9322 13.4506C11.9263 13.4403 11.9088 13.4091 11.8427 13.4345C11.7802 13.4586 11.6904 13.4847 11.634 13.4339C11.6227 13.4238 11.6156 13.412 11.6102 13.3998C11.5932 13.3984 11.5763 13.3974 11.5597 13.3949C11.5543 13.4089 11.5468 13.4225 11.5341 13.4339C11.4779 13.4846 11.3881 13.4586 11.3255 13.4345C11.2596 13.4094 11.2418 13.4403 11.2361 13.4506C11.2192 13.4806 11.2241 13.5266 11.246 13.5434C11.309 13.5919 11.4187 13.5689 11.4547 13.5614C11.4781 13.5567 11.5067 13.5647 11.5217 13.5839C11.5365 13.6033 11.5428 13.6285 11.5319 13.6502C11.5176 13.6788 11.4555 13.8002 11.3948 13.8761C11.4741 13.992 11.5428 14.1987 11.3819 14.3826C11.3688 14.3975 11.3484 14.4049 11.3294 14.4041C11.3096 14.4026 11.2915 14.3919 11.2808 14.3751C11.2717 14.3612 11.2394 14.3227 11.2039 14.3158C11.1931 14.3137 11.1762 14.3129 11.1516 14.3297C11.135 14.3412 11.1256 14.3791 11.1396 14.4207C11.1647 14.4951 11.2425 14.5363 11.3522 14.5312C11.3772 14.5287 11.4042 14.5459 11.4142 14.5711C11.4242 14.5963 11.4171 14.625 11.3966 14.6427L11.2932 14.7314L11.462 14.7725C11.4844 14.7779 11.502 14.7951 11.5082 14.8173C11.5085 14.8184 11.5337 14.9084 11.5842 14.9842C11.6346 14.9084 11.6598 14.8184 11.6601 14.8173C11.6661 14.7951 11.6839 14.7779 11.7062 14.7725L11.8751 14.7314L11.7716 14.6427C11.751 14.6251 11.7439 14.5963 11.7539 14.5711C11.7639 14.5459 11.7891 14.529 11.8159 14.5312C11.9244 14.536 12.0035 14.4951 12.0286 14.4206C12.0426 14.3791 12.0333 14.3412 12.0167 14.3297C11.9917 14.3128 11.9746 14.3136 11.964 14.3159C11.9272 14.3233 11.8942 14.3645 11.8873 14.3751C11.8766 14.3918 11.8585 14.4026 11.8387 14.404C11.8182 14.4051 11.7993 14.3976 11.7863 14.3826C11.6255 14.1987 11.6942 13.992 11.7735 13.876C11.7128 13.8002 11.6507 13.6788 11.6364 13.6502C11.6255 13.6287 11.628 13.6026 11.6427 13.5835Z" fill="#FFD250"/>
<path d="M20.569 9.45229C20.5351 9.39951 20.4676 9.33492 20.3381 9.32648C20.2482 9.32001 20.1761 9.3442 20.1236 9.39665C20.0815 9.4387 20.0611 9.49078 20.0515 9.53479C19.9649 9.48928 19.8265 9.38784 19.6819 9.2819C19.2609 8.97337 18.6248 8.5071 18.0003 8.42812C17.4939 8.36376 16.9179 8.46478 16.6011 8.75868C16.6059 8.71982 16.6073 8.69381 16.6075 8.68935C16.6076 8.68851 16.6068 8.6879 16.6068 8.68701C16.6069 8.67515 16.6037 8.66409 16.5977 8.6542C16.5963 8.65209 16.595 8.65049 16.5934 8.64853C16.5864 8.63938 16.5776 8.63151 16.566 8.6272C16.5658 8.6271 16.5656 8.62682 16.5654 8.62678H16.5652C16.5533 8.6226 16.5412 8.62326 16.5297 8.62598C16.5275 8.62649 16.5256 8.62687 16.5235 8.62757C16.5124 8.63146 16.5026 8.63798 16.4951 8.64735C16.4946 8.64796 16.4937 8.64801 16.4933 8.64867C16.3617 8.82529 16.1812 8.84854 16.1146 8.85074C15.8771 8.5687 15.6261 8.55993 15.6153 8.5597C15.5789 8.56209 15.5558 8.58224 15.5511 8.61379C15.5411 8.68078 15.5022 8.7471 15.4692 8.79313C15.2599 8.53293 14.9653 8.55899 14.9522 8.56007C14.9318 8.56204 14.9137 8.57376 14.9035 8.59153C14.8933 8.6092 14.8923 8.63071 14.9007 8.64942C14.9385 8.73248 14.8927 8.80485 14.8562 8.84507C14.4441 8.51489 14.1271 8.7839 14.1237 8.78685C14.0996 8.80804 14.095 8.84413 14.1133 8.87057C14.144 8.9151 14.1386 8.93967 14.1304 8.95626C14.0638 9.09135 13.5801 9.17948 13.2179 9.20535C13.216 9.1544 13.2005 9.10368 13.1721 9.05718C13.1271 8.98382 13.0561 8.93217 12.9772 8.9152C12.8895 8.89612 12.7661 8.91628 12.6875 9.00309C12.5996 9.0997 12.587 9.24918 12.6498 9.44742C12.7478 9.75712 13.0422 10.0485 13.2139 10.1984C13.1721 10.183 13.1306 10.1661 13.0904 10.1468C12.9894 10.0976 12.8201 10.0152 12.695 10.0802C12.6319 10.1129 12.5915 10.1946 12.5989 10.2744C12.6026 10.3144 12.625 10.4042 12.742 10.4616L12.6012 10.8441C12.5937 10.8646 12.5972 10.8876 12.6106 10.9048C12.6239 10.9221 12.6452 10.9315 12.6671 10.9291L12.9498 10.9009L12.8875 11.0534C12.8784 11.0757 12.8826 11.1013 12.8985 11.1193C12.9144 11.1373 12.9386 11.1453 12.9625 11.1387L13.2694 11.0574C13.3488 11.2203 13.4545 11.2773 13.4595 11.2799C13.4751 11.2881 13.4931 11.2894 13.5095 11.2837C13.526 11.278 13.5395 11.2657 13.5467 11.2499L13.5956 11.1416C13.6463 11.2125 13.7011 11.2596 13.735 11.2856C13.7144 11.3026 13.694 11.3194 13.6717 11.3376C13.4585 11.511 13.1666 11.7487 12.9568 12.1548C12.8515 12.3588 12.7694 12.6699 12.7939 13.0009C12.6411 12.8724 12.353 12.6177 12.1409 12.3569C12.1664 12.3395 12.1936 12.323 12.2141 12.3028C12.2804 12.2371 12.3154 12.1594 12.3154 12.0782C12.3154 11.9095 12.1919 11.7908 12.0771 11.752C12.0344 11.7376 11.9933 11.7355 11.9559 11.7419C11.9522 8.97721 12.2671 8.13084 12.331 7.98829C12.3411 7.96574 12.3372 7.93931 12.3209 7.92065C12.3048 7.90209 12.279 7.89454 12.2553 7.90153C12.2138 7.91371 11.2375 8.21868 11.216 9.83399L11.2296 11.7611C11.0971 11.7472 10.9713 11.7848 10.898 11.8631C10.8564 11.9076 10.812 11.9857 10.8367 12.1052C10.8695 12.2638 10.9975 12.3809 11.1938 12.4452C11.1884 12.466 11.1866 12.4895 11.1892 12.5159C11.1922 12.5468 11.2019 12.5852 11.2198 12.6184C11.1958 12.647 11.1723 12.6878 11.1711 12.7381C11.17 12.7866 11.1892 12.8321 11.2286 12.8737C11.213 12.9051 11.1995 12.9474 11.2054 12.9943C11.2091 13.0222 11.2208 13.0593 11.2539 13.0952C11.2446 13.1228 11.2388 13.159 11.2488 13.1988C11.259 13.2399 11.2845 13.2753 11.3224 13.3055C11.2253 13.2875 11.1571 13.3313 11.1251 13.3883C11.0771 13.4738 11.0966 13.5885 11.1685 13.6438C11.227 13.6888 11.2966 13.7031 11.36 13.6998C11.3277 13.7545 11.2936 13.805 11.2721 13.8218C11.2582 13.8326 11.2493 13.8487 11.2479 13.8663C11.2463 13.8839 11.2522 13.9013 11.264 13.9145C11.2706 13.9218 11.409 14.0776 11.3266 14.2396C11.3012 14.2187 11.2682 14.1991 11.229 14.1912C11.1781 14.1808 11.1265 14.1926 11.0796 14.2248C11.0126 14.2707 10.9877 14.3677 11.0191 14.4608C11.0432 14.5321 11.1031 14.6052 11.2054 14.6389L11.1164 14.7152C11.0983 14.7306 11.0905 14.755 11.096 14.7781C11.1016 14.8012 11.1196 14.8193 11.1427 14.825L11.3972 14.887C11.4167 14.9429 11.4612 15.0509 11.5357 15.1253C11.5476 15.1372 11.5702 15.1439 11.5871 15.1439C11.604 15.1439 11.6201 15.1372 11.632 15.1253C11.7064 15.0509 11.7511 14.9429 11.7705 14.887L12.025 14.825C12.0481 14.8193 12.0661 14.8013 12.0716 14.7781C12.0772 14.7549 12.0693 14.7306 12.0513 14.7152L11.9622 14.6389C12.0645 14.6051 12.1246 14.532 12.1486 14.4608C12.18 14.3677 12.1551 14.2706 12.0881 14.2248C12.0411 14.1925 11.9892 14.1809 11.9386 14.1912C11.8995 14.1991 11.8666 14.2186 11.8411 14.2395C11.7601 14.0784 11.8972 13.9216 11.9039 13.9143C11.9156 13.9012 11.9214 13.8837 11.9198 13.8662C11.9183 13.8487 11.9095 13.8326 11.8956 13.8218C11.8742 13.8051 11.8402 13.7547 11.8079 13.7C11.8713 13.7006 11.9405 13.689 11.9993 13.6437C12.0122 13.6338 12.0213 13.6202 12.0308 13.607C12.0353 13.8854 12.2117 13.9956 12.2193 14.0002C12.2494 14.0181 12.288 14.0086 12.3061 13.9788C12.321 13.9544 12.3299 13.9497 12.3297 13.9494C12.3521 13.9507 12.4146 14.0166 12.4604 14.0646C12.535 14.1431 12.628 14.2409 12.7559 14.3262C12.8496 14.3887 12.9382 14.4133 13.0196 14.4133C13.2479 14.4133 13.419 14.2206 13.492 14.1216C13.6342 14.2108 13.7954 14.2882 13.9793 14.3511C13.9856 14.3532 13.9919 14.3541 13.9983 14.3542C14.0202 14.4254 14.0441 14.4971 14.0689 14.5681C14.1483 14.7958 14.2303 15.0313 14.198 15.2101C14.1564 15.4418 13.7898 15.4441 13.6014 15.4124C13.4673 15.3906 13.3429 15.4249 13.2517 15.51C13.1604 15.5953 13.1134 15.7241 13.1261 15.8547C13.135 15.946 13.1807 15.9889 13.2176 16.0088C13.3023 16.0544 13.4167 16.0203 13.4789 15.9949C13.6218 16.1193 13.7926 16.0671 13.8959 16.0013C13.9595 16.0544 14.0304 16.0823 14.1071 16.084C14.1096 16.0841 14.1121 16.0841 14.1147 16.0841C14.2307 16.0841 14.3282 16.023 14.377 15.9857C14.6227 16.0851 14.7632 16.011 14.7878 15.9958C14.9872 15.8275 14.9544 15.5251 14.9284 15.3936C15.3383 15.2695 15.4704 14.9132 15.4761 14.8974C15.4841 14.8752 15.479 14.8504 15.4631 14.833C15.447 14.8157 15.4225 14.8087 15.3999 14.8148C15.2735 14.8487 15.1737 14.8256 15.1262 14.7512C15.0618 14.6506 15.1036 14.4859 15.2325 14.3318C15.2596 14.2995 15.2852 14.2637 15.3102 14.2265C15.627 14.1556 15.8975 14.0324 16.184 13.9018C16.4211 13.7937 16.6663 13.6819 16.9578 13.5905C17.0395 13.5649 17.1189 13.5498 17.1972 13.5397C17.1735 13.8833 17.3498 14.1097 17.5229 14.3275C17.5707 14.3876 17.6185 14.4477 17.6618 14.5104C17.8474 14.7792 17.8118 15.3428 17.7968 15.3937C17.7836 15.4226 17.6592 15.5493 17.4828 15.5251C17.3363 15.5056 17.1723 15.5539 17.0648 15.648C16.9881 15.7151 16.9458 15.8015 16.9458 15.891C16.9458 15.9673 16.9825 16.0052 17.0133 16.0236C17.1052 16.0781 17.2572 16.0198 17.3387 15.9808C17.4148 16.0396 17.493 16.0613 17.5653 16.0613C17.6551 16.0613 17.7359 16.0278 17.7926 15.9907C17.9626 16.0981 18.1407 16.0352 18.24 15.9675C18.3644 16.035 18.4644 16.0216 18.5289 15.9963C18.5498 15.9881 18.5689 15.9777 18.5863 15.9659C18.5889 15.9686 18.5913 15.9722 18.5939 15.9744C18.6614 16.0325 18.7863 16.0016 18.8662 15.9726C18.9026 16.0328 18.9506 16.0599 18.9887 16.072C19.1061 16.1094 19.241 16.0451 19.3089 16.0049C19.3912 16.0686 19.473 16.0953 19.5548 16.0838C19.6269 16.0739 19.6812 16.0351 19.7163 16.0012C19.7536 16.0281 19.8103 16.0611 19.8869 16.0853C19.9207 16.0961 19.9504 16.1004 19.9765 16.1004C20.0649 16.1004 20.111 16.05 20.1291 16.0237C20.2025 15.9166 20.1642 15.7353 20.0823 15.6329C20.034 15.5725 19.9939 15.4595 20.0133 15.3434C20.0236 15.2814 20.0559 15.1949 20.1514 15.1341C20.3237 15.0245 20.4368 14.8761 20.4394 14.7561C20.4405 14.7066 20.4217 14.6657 20.3863 14.6409C20.355 14.619 20.32 14.6144 20.2861 14.6099C20.2106 14.6 20.1166 14.5875 19.997 14.3666C19.8904 14.1697 20.0166 13.7882 20.1505 13.3843C20.227 13.1531 20.3061 12.9141 20.3557 12.6761C20.4784 12.0869 20.1826 11.6122 20.0755 11.4644C20.3733 11.1714 20.4983 10.8902 20.4468 10.6281C20.3902 10.3392 20.1209 10.1414 19.9076 10.0597C19.6497 9.96084 19.2176 10.0122 18.7998 10.0623C18.474 10.1013 18.1659 10.1383 17.9809 10.0991C17.911 10.0844 17.8612 10.0541 17.8331 10.0087C17.7842 9.92981 17.8104 9.82612 17.8106 9.82504C17.8158 9.80563 17.8113 9.78473 17.7987 9.76912C17.7861 9.75351 17.7653 9.74353 17.7468 9.74545C17.6253 9.75032 17.5284 9.81806 17.4686 9.87398C17.4651 9.85696 17.4646 9.83948 17.4671 9.82138C17.4835 9.69946 17.6239 9.59292 17.6253 9.59188C17.642 9.57928 17.6516 9.55907 17.6506 9.53803C17.6496 9.51703 17.6382 9.4979 17.6202 9.48693C17.3619 9.32957 17.1206 9.4461 16.9972 9.55556C16.945 9.50446 16.9136 9.42627 16.916 9.34757C16.9175 9.29587 16.9358 9.2009 17.0391 9.14596C17.0859 9.12107 17.126 9.11563 17.1625 9.12904C17.2234 9.15173 17.2639 9.22663 17.2744 9.25368C17.2811 9.27098 17.2952 9.28457 17.3126 9.29067C17.3301 9.29704 17.3496 9.29512 17.3656 9.2857C17.507 9.2032 17.5522 9.0299 17.5666 8.93376C17.6497 8.94731 17.7131 8.9826 17.7592 9.04073C17.8885 9.20376 17.8356 9.49092 17.8351 9.49382C17.831 9.51529 17.8383 9.53732 17.8542 9.55223C17.8701 9.56709 17.8927 9.57262 17.9138 9.56709C18.2009 9.49017 18.2928 9.25706 18.3069 9.08474C18.5264 9.22143 18.5115 9.50413 18.5106 9.5174C18.5092 9.53924 18.5191 9.56029 18.5368 9.57299C18.5545 9.58579 18.5775 9.58851 18.5977 9.58045C18.7028 9.53784 18.7609 9.46851 18.7931 9.40453C18.993 9.66656 19.2708 9.75749 19.2841 9.76185C19.3076 9.76903 19.3332 9.76251 19.35 9.74432C19.3667 9.72618 19.3714 9.69998 19.362 9.6772L19.3 9.52687C19.3504 9.56245 19.3991 9.5999 19.449 9.63838C19.5815 9.74029 19.7184 9.84571 19.9159 9.93853C20.138 10.0429 20.2962 10.0195 20.3902 9.98184C20.4839 9.94392 20.5582 9.87323 20.5889 9.7927C20.6247 9.6989 20.6382 9.5601 20.569 9.45229ZM20.4703 9.74779C20.4569 9.78323 20.4153 9.83498 20.3426 9.86432C20.2725 9.89273 20.1506 9.9089 19.9699 9.82392C19.7849 9.73696 19.6534 9.63585 19.5265 9.53807C19.4211 9.45698 19.3216 9.38043 19.196 9.31274C19.1726 9.30004 19.1434 9.30346 19.1234 9.32146C19.1035 9.33937 19.097 9.36796 19.1073 9.39276L19.1828 9.57571C19.0732 9.51318 18.9234 9.40143 18.8252 9.2219C18.8113 9.19645 18.7821 9.18374 18.7538 9.19087C18.7257 9.19804 18.7061 9.22335 18.7061 9.25232C18.7061 9.25345 18.705 9.34176 18.6329 9.41053C18.611 9.24154 18.5184 9.01453 18.2638 8.92462C18.2429 8.91703 18.2201 8.92124 18.203 8.93484C18.1859 8.94853 18.1771 8.97013 18.1796 8.99188C18.1811 9.00506 18.2116 9.28781 17.9716 9.41029C17.9781 9.29179 17.9678 9.10031 17.8588 8.96245C17.7791 8.86167 17.6625 8.80743 17.5123 8.80124C17.496 8.79942 17.4788 8.80668 17.4663 8.81826C17.4539 8.82984 17.4467 8.84592 17.4462 8.86293C17.4462 8.8649 17.4389 9.03496 17.3525 9.13349C17.3226 9.08882 17.2751 9.03609 17.2075 9.01059C17.1363 8.98373 17.0595 8.9916 16.9795 9.03403C16.8627 9.09604 16.7932 9.20896 16.789 9.34363C16.7845 9.48627 16.8551 9.62371 16.969 9.69374C16.9951 9.70954 17.0291 9.70467 17.0497 9.68174C17.058 9.67232 17.239 9.47442 17.4751 9.55734C17.4211 9.61396 17.3552 9.70181 17.3412 9.80385C17.3303 9.88279 17.3512 9.95681 17.4031 10.0239C17.4153 10.0397 17.4295 10.0474 17.4545 10.0484C17.4745 10.0481 17.4932 10.0382 17.5049 10.0219C17.5057 10.0207 17.5746 9.92624 17.6766 9.8879C17.6762 9.9419 17.6857 10.0111 17.7244 10.0743C17.7715 10.151 17.8489 10.2011 17.9547 10.2233C18.1601 10.2662 18.4782 10.2283 18.8148 10.1883C19.2176 10.1404 19.6339 10.0907 19.8621 10.1782C20.0452 10.2483 20.2756 10.4146 20.3223 10.6526C20.3671 10.8808 20.2408 11.1363 19.9472 11.4118C19.9226 11.4348 19.9203 11.4731 19.942 11.4988C19.9461 11.5038 20.3646 12.0112 20.2315 12.6502C20.1834 12.8812 20.1054 13.1167 20.0299 13.3444C19.8812 13.7939 19.7527 14.182 19.8855 14.4271C20.0359 14.7049 20.1821 14.7241 20.2695 14.7357C20.2865 14.7379 20.3077 14.7407 20.3114 14.7425C20.324 14.7681 20.2792 14.9024 20.0834 15.027C19.9765 15.0951 19.909 15.1972 19.8881 15.3225C19.8655 15.4586 19.9028 15.6116 19.9833 15.7122C20.0446 15.7888 20.0559 15.906 20.0245 15.9519C20.0183 15.9608 19.9995 15.9876 19.925 15.9644C19.8115 15.9284 19.756 15.8699 19.7558 15.8697C19.7424 15.855 19.7231 15.8478 19.7029 15.8489C19.683 15.8507 19.6652 15.8618 19.6548 15.8787C19.6542 15.8794 19.6101 15.948 19.5372 15.9582C19.4828 15.9655 19.4223 15.9392 19.3568 15.8794C19.3346 15.8592 19.3016 15.8573 19.2771 15.8745C19.2377 15.9025 19.107 15.976 19.0271 15.9511C19.0157 15.9474 18.9806 15.9361 18.9582 15.8703C18.9523 15.8534 18.9396 15.8397 18.9232 15.8326C18.9067 15.8256 18.8882 15.8257 18.8718 15.8332C18.7947 15.8682 18.698 15.8902 18.6794 15.8818C18.6794 15.8818 18.6763 15.8722 18.6843 15.8451C18.7281 15.6938 18.9067 15.6576 19.0248 15.6336C19.0466 15.6292 19.0662 15.6252 19.0827 15.6211C19.0957 15.6179 19.1107 15.6149 19.1266 15.6118C19.243 15.5886 19.4851 15.5405 19.4546 15.2361C19.4482 15.1721 19.4501 15.113 19.4517 15.0559C19.4572 14.8684 19.4625 14.6913 19.1678 14.4793C19.0592 14.4009 18.9544 14.3307 18.8538 14.2631C18.6246 14.1092 18.4266 13.9765 18.2453 13.7952C17.8711 13.4208 17.4254 13.3111 16.92 13.4693C16.621 13.563 16.3721 13.6765 16.1315 13.7863C15.8895 13.8967 15.6575 13.9996 15.4034 14.0699C15.604 13.6886 15.7139 13.1829 15.6913 12.9392C15.688 12.9043 15.6562 12.8784 15.6222 12.8819C15.5874 12.8852 15.5617 12.916 15.5649 12.9509C15.5908 13.2292 15.4181 13.9127 15.1354 14.2504C14.9703 14.4478 14.9248 14.6712 15.0195 14.8195C15.0783 14.9114 15.1781 14.9554 15.3038 14.9566C15.2351 15.0648 15.0929 15.228 14.8386 15.2863C14.8216 15.2903 14.8069 15.301 14.7981 15.3161C14.7892 15.3312 14.787 15.3492 14.792 15.366C14.7931 15.3697 14.898 15.737 14.7164 15.8918C14.7119 15.8944 14.6021 15.95 14.3929 15.8543C14.3693 15.8435 14.3411 15.8482 14.3224 15.8665C14.3213 15.8673 14.2186 15.9636 14.1103 15.9571C14.0511 15.9557 13.9979 15.9291 13.9477 15.8756C13.9246 15.8509 13.8862 15.8489 13.8604 15.8706C13.8529 15.8771 13.6733 16.0261 13.54 15.8768C13.5205 15.8549 13.4888 15.8494 13.4632 15.8628C13.4123 15.8894 13.3182 15.9188 13.2783 15.8972C13.273 15.8943 13.2568 15.8856 13.2527 15.8424C13.2438 15.7507 13.276 15.6611 13.3386 15.6026C13.4004 15.545 13.4864 15.5217 13.5808 15.5376C13.9133 15.5931 14.2713 15.5201 14.3232 15.2325C14.3613 15.0209 14.2737 14.7695 14.189 14.5263C14.1252 14.3433 14.0594 14.1541 14.0564 14.0009C14.0505 13.6877 14.1176 13.392 14.1182 13.389C14.1261 13.3549 14.1048 13.3209 14.0706 13.313C14.0365 13.3047 14.0025 13.3263 13.9946 13.3605C13.9917 13.3731 13.9233 13.6739 13.9296 14.0033C13.9309 14.0681 13.9432 14.1371 13.9593 14.2073C13.4779 14.0295 13.1567 13.7527 13.0074 13.3816C12.8324 12.9467 12.9317 12.4802 13.0698 12.2128C13.2675 11.8302 13.5362 11.6116 13.7521 11.4358C13.8536 11.3533 13.9444 11.2789 14.0092 11.2012C14.0024 11.3067 13.9127 11.5188 13.8148 11.6887C13.8018 11.7113 13.8039 11.7396 13.8202 11.76C13.8365 11.7804 13.8638 11.7886 13.8886 11.7809C13.9431 11.7639 14.0416 11.7159 14.1138 11.679L14.1341 11.9992C14.1356 12.0229 14.1503 12.0438 14.1721 12.0533C14.194 12.0629 14.2193 12.0594 14.2376 12.0442C14.3231 11.9741 14.4038 11.8805 14.4597 11.8099L14.5228 12.009C14.5288 12.0282 14.5437 12.0434 14.5628 12.0499C14.5819 12.0564 14.6028 12.0535 14.6193 12.042C14.7097 11.9795 14.798 11.8793 14.8531 11.8105L14.9735 12.0024C14.9857 12.0219 15.0076 12.0345 15.0304 12.0321C15.0533 12.031 15.0738 12.0176 15.0841 11.997L15.2246 11.716L15.3431 12.0381C15.3497 12.0561 15.3641 12.0701 15.3822 12.0763C15.3888 12.0786 15.3957 12.0797 15.4026 12.0797C15.4144 12.0797 15.4262 12.0764 15.4365 12.07L15.747 11.8741C15.9111 11.9653 16.1485 12.0032 16.1592 12.005C16.1783 12.0075 16.1982 12.002 16.2125 11.9885C16.2268 11.9751 16.2341 11.9558 16.2323 11.9363L16.207 11.6717L16.4819 11.6676C16.5136 11.667 16.54 11.6433 16.5439 11.6119C16.5478 11.5805 16.5279 11.551 16.4973 11.5429C16.4673 11.5349 16.3985 11.4705 16.3398 11.4047C16.3472 11.4042 16.3506 11.4038 16.3541 11.4036C16.5123 11.4156 19.1963 11.6132 19.7848 11.1851C20.1122 10.947 20.0893 10.7307 20.0464 10.6229C19.9581 10.4003 19.6369 10.2584 19.3166 10.2992C19.1892 10.3155 19.0523 10.3399 18.9104 10.3653C18.5087 10.4373 18.0534 10.5188 17.68 10.4273C17.5344 10.3917 17.4096 10.3444 17.2994 10.3028C17.113 10.2322 16.9782 10.1812 16.875 10.2428C16.8322 10.2684 16.8011 10.3102 16.7804 10.3712C16.7141 10.2973 16.6406 10.1623 16.7377 9.97954C16.7505 9.95549 16.7464 9.92596 16.7277 9.90609C16.724 9.9021 16.356 9.50765 16.5292 9.07471C16.6847 8.68588 17.2968 8.46642 17.9846 8.55379C18.5764 8.62865 19.1966 9.0832 19.607 9.38395C19.8654 9.57327 20.0045 9.6726 20.0987 9.68493C20.1175 9.68765 20.1361 9.68113 20.15 9.66834C20.1638 9.65554 20.1712 9.63712 20.1702 9.61828C20.1701 9.61743 20.1662 9.53273 20.2138 9.48571C20.2397 9.46003 20.2776 9.44873 20.33 9.45267C20.3915 9.4567 20.436 9.47953 20.4624 9.52049C20.5033 9.58457 20.4959 9.68081 20.4703 9.74779ZM18.4763 15.8807C18.4147 15.9019 18.3458 15.8878 18.2703 15.8383C18.2467 15.8227 18.2154 15.8249 18.194 15.8434C18.1864 15.85 18.0051 16.0031 17.8314 15.863C17.8077 15.8439 17.7734 15.8446 17.75 15.8645C17.7312 15.8807 17.5607 16.018 17.3909 15.8591C17.3709 15.8404 17.3412 15.8366 17.3174 15.8496C17.2311 15.8962 17.1105 15.9343 17.0783 15.9148C17.073 15.9116 17.0727 15.8946 17.0727 15.8912C17.0727 15.824 17.1138 15.7739 17.1483 15.7437C17.2284 15.6737 17.3556 15.6365 17.4661 15.651C17.7064 15.6831 17.8816 15.5183 17.9133 15.444C17.9414 15.3784 17.9877 14.7593 17.7662 14.4386C17.7213 14.3736 17.6718 14.3112 17.6222 14.2488C17.4537 14.0369 17.296 13.8356 17.3245 13.5294C17.6323 13.523 17.9111 13.6407 18.1555 13.8851C18.2834 14.013 18.422 14.119 18.5673 14.2208C18.511 14.2787 18.4202 14.3879 18.4133 14.499C18.4099 14.5537 18.4273 14.6038 18.4633 14.6438C18.5553 14.746 18.6606 14.7412 18.7302 14.7378C18.7422 14.7372 18.7583 14.7363 18.7701 14.7371C18.7524 14.7801 18.6866 14.87 18.6411 14.932C18.5153 15.1036 18.4339 15.2231 18.4477 15.3156C18.4572 15.3786 18.482 15.4738 18.506 15.5658C18.5289 15.6535 18.5635 15.7861 18.5619 15.8118C18.5585 15.8217 18.53 15.8621 18.4763 15.8807ZM18.7434 15.0071C18.8653 14.8407 18.9272 14.7506 18.8913 14.6789C18.8546 14.6053 18.7794 14.6085 18.7243 14.6113C18.6653 14.6141 18.6093 14.6166 18.5576 14.5591C18.5441 14.5442 18.5386 14.5281 18.5399 14.5072C18.5443 14.4347 18.626 14.3407 18.6731 14.2946C18.7095 14.3193 18.7457 14.344 18.7829 14.3689C18.8825 14.4358 18.986 14.5053 19.0935 14.5826C19.3334 14.7554 19.3299 14.8737 19.3248 15.0526C19.323 15.1109 19.3211 15.177 19.3283 15.2492C19.3459 15.4253 19.2454 15.4592 19.1018 15.4878C19.0836 15.4914 19.0667 15.4948 19.0517 15.4986C19.0368 15.5023 19.0191 15.5059 18.9994 15.5099C18.9078 15.5285 18.7613 15.5598 18.6594 15.6548C18.651 15.6204 18.6408 15.5806 18.6286 15.5341C18.6055 15.4453 18.5816 15.3534 18.573 15.297C18.566 15.2491 18.6814 15.0917 18.7434 15.0071ZM12.3169 13.8236C12.2906 13.8264 12.2666 13.8371 12.2447 13.856C12.2072 13.8142 12.157 13.7329 12.157 13.5972C12.157 13.3956 12.1 13.2953 12.0637 13.2516C12.0727 13.2386 12.0815 13.2254 12.088 13.211C12.1162 13.1484 12.1082 13.0832 12.0641 13.0167C12.0847 12.9736 12.0989 12.9148 12.0812 12.8554C12.1069 12.8118 12.1268 12.7437 12.1063 12.6605C12.1222 12.6396 12.1417 12.6088 12.1566 12.5699C12.4481 12.8921 12.7961 13.1678 12.8197 13.1863C12.8361 13.2675 12.8572 13.3489 12.8896 13.4294C12.9886 13.6757 13.1564 13.8825 13.3869 14.0507C13.2789 14.1974 13.0767 14.3881 12.8265 14.221C12.7104 14.1436 12.6228 14.0515 12.5525 13.9776C12.4626 13.8831 12.3969 13.8147 12.3169 13.8236ZM11.7862 14.3826C11.7993 14.3976 11.8181 14.4051 11.8387 14.404C11.8585 14.4025 11.8766 14.3918 11.8873 14.3751C11.8942 14.3645 11.9272 14.3233 11.9639 14.3159C11.9745 14.3135 11.9916 14.3127 12.0166 14.3297C12.0332 14.3412 12.0425 14.3791 12.0285 14.4206C12.0034 14.4951 11.9243 14.536 11.8158 14.5312C11.789 14.529 11.7638 14.5459 11.7538 14.5711C11.7438 14.5963 11.7509 14.6251 11.7715 14.6427L11.875 14.7314L11.7062 14.7725C11.6838 14.7779 11.6661 14.7951 11.66 14.8173C11.6597 14.8184 11.6345 14.9084 11.5841 14.9842C11.5336 14.9084 11.5084 14.8184 11.5081 14.8173C11.502 14.7951 11.4843 14.7779 11.4619 14.7725L11.2931 14.7314L11.3965 14.6427C11.4171 14.625 11.4242 14.5963 11.4142 14.5711C11.4041 14.5459 11.3771 14.5287 11.3522 14.5312C11.2424 14.5363 11.1646 14.4951 11.1396 14.4207C11.1256 14.3792 11.1349 14.3412 11.1515 14.3297C11.176 14.3129 11.193 14.3137 11.2038 14.3158C11.2394 14.3227 11.2716 14.3612 11.2808 14.3751C11.2916 14.3919 11.3096 14.4026 11.3294 14.4041C11.3483 14.4049 11.3687 14.3975 11.3818 14.3826C11.5427 14.1988 11.474 13.992 11.3947 13.8761C11.4554 13.8002 11.5175 13.6789 11.5318 13.6502C11.5428 13.6285 11.5364 13.6032 11.5216 13.5839C11.5067 13.5648 11.478 13.5566 11.4546 13.5614C11.4186 13.5689 11.3089 13.5919 11.2459 13.5434C11.2241 13.5266 11.2192 13.4805 11.236 13.4506C11.2417 13.4403 11.2596 13.4094 11.3254 13.4345C11.388 13.4586 11.4779 13.4846 11.534 13.4339C11.5468 13.4225 11.5542 13.4089 11.5596 13.3949C11.5763 13.3974 11.5931 13.3983 11.6101 13.3998C11.6156 13.412 11.6227 13.4238 11.634 13.4339C11.6904 13.4846 11.7801 13.4586 11.8427 13.4345C11.9087 13.4091 11.9263 13.4403 11.9321 13.4506C11.949 13.4806 11.944 13.5266 11.922 13.5435C11.8591 13.5922 11.7495 13.569 11.7054 13.5598C11.6816 13.5548 11.6574 13.5642 11.6426 13.5835C11.6279 13.6027 11.6254 13.6286 11.6362 13.6503C11.6505 13.6789 11.7126 13.8003 11.7733 13.8762C11.6941 13.992 11.6254 14.1988 11.7862 14.3826ZM11.992 12.5996C11.9733 12.6171 11.967 12.6441 11.976 12.6681C12.0072 12.7514 11.9679 12.7977 11.9641 12.8018C11.944 12.8219 11.9397 12.8529 11.9537 12.8778C11.9798 12.9242 11.9375 12.9823 11.9374 12.9825C11.9193 13.0064 11.9201 13.0395 11.9396 13.0624C11.9895 13.1206 11.9778 13.1464 11.9722 13.1588C11.9543 13.1987 11.9157 13.2297 11.8577 13.2511C11.7984 13.273 11.7291 13.2795 11.6616 13.2776C11.6591 13.2777 11.6567 13.2773 11.6542 13.2777C11.5742 13.2745 11.4973 13.2584 11.4439 13.2333C11.4154 13.2199 11.3797 13.1978 11.3721 13.1692C11.3652 13.1433 11.3831 13.1173 11.383 13.1173C11.3934 13.1034 11.3977 13.0859 11.3949 13.0688C11.392 13.0517 11.3823 13.0365 11.368 13.0268C11.3349 13.0043 11.3323 12.9852 11.3314 12.9789C11.3274 12.9493 11.3507 12.914 11.3589 12.9043C11.3705 12.891 11.376 12.8735 11.3742 12.8559C11.3724 12.8384 11.3633 12.8224 11.3492 12.8118C11.3298 12.7972 11.2976 12.7689 11.298 12.7416C11.2984 12.7135 11.3306 12.6847 11.3415 12.6772C11.3583 12.6657 11.3671 12.6457 11.3676 12.6254C11.3682 12.605 11.3574 12.5844 11.3412 12.5721C11.3247 12.5594 11.309 12.4979 11.3164 12.4766C11.3932 12.4914 11.4766 12.5005 11.5678 12.5013C11.5725 12.5013 11.5773 12.5014 11.5819 12.5014C11.7539 12.5014 11.9044 12.4704 12.0271 12.4183C12.0347 12.4278 12.0424 12.4373 12.0502 12.4468C12.0516 12.5376 11.9943 12.5974 11.992 12.5996ZM11.5691 12.3745C11.226 12.3714 10.9986 12.2612 10.9611 12.0797C10.9499 12.0257 10.9597 11.9833 10.9908 11.95C11.0295 11.9085 11.1011 11.8843 11.1783 11.8843C11.1949 11.8843 11.2118 11.8854 11.2286 11.8877C11.2465 11.8901 11.2495 11.8958 11.2505 11.8979C11.2638 11.9228 11.2465 11.9946 11.2226 12.0434C11.2074 12.0745 11.2198 12.112 11.2504 12.1279C11.4766 12.2445 11.8038 12.1934 11.8899 12.1543C11.9002 12.1496 11.9315 12.1355 11.9401 12.1011C11.9469 12.0742 11.9379 12.0507 11.9291 12.0279C11.9135 11.9869 11.8972 11.9445 11.9431 11.8845C11.9675 11.8524 12.0209 11.8672 12.0366 11.8726C12.1122 11.8982 12.1887 11.9772 12.1887 12.0786C12.1887 12.1258 12.1672 12.1711 12.1248 12.2131C12.0206 12.3164 11.8118 12.3736 11.5691 12.3745ZM11.8023 12.0502C11.7176 12.0712 11.5199 12.0944 11.3614 12.0377C11.38 11.9817 11.3958 11.9007 11.3626 11.8383C11.3611 11.8356 11.3587 11.8327 11.357 11.8299L11.3429 9.83451C11.3587 8.6504 11.9057 8.21788 12.1623 8.07998C12.0473 8.43843 11.8204 9.4507 11.8293 11.8303C11.772 11.9208 11.7854 12.0007 11.8023 12.0502ZM13.5316 10.9758L13.465 11.1229C13.4344 11.0906 13.396 11.0385 13.3646 10.9592C13.3528 10.9293 13.3207 10.9126 13.2894 10.9213L13.0531 10.9838L13.1072 10.8516C13.1156 10.831 13.1126 10.8075 13.0993 10.7896C13.0861 10.7717 13.0638 10.7617 13.0422 10.7645L12.7554 10.7931L12.8618 10.5039C12.9885 10.5409 13.3019 10.6255 13.6238 10.659L13.5769 10.7174C13.56 10.7385 13.5583 10.7679 13.5726 10.7909C13.587 10.8137 13.6143 10.825 13.6406 10.8189C13.6439 10.8182 13.9845 10.741 14.2164 10.7741C14.2427 10.7773 14.2683 10.7648 14.281 10.7417C14.2937 10.7185 14.2907 10.6898 14.2734 10.6698C14.138 10.5133 13.7742 10.0762 13.7167 9.9366C13.7059 9.91026 13.6787 9.89531 13.6507 9.8977C13.6225 9.90107 13.5999 9.92278 13.5955 9.95085L13.5636 10.1538C13.5152 10.1217 13.4507 10.0691 13.3966 9.9914C13.3811 9.96909 13.3533 9.95901 13.3271 9.96674C13.301 9.9742 13.2826 9.99735 13.2812 10.0244C13.2808 10.0306 13.2798 10.0553 13.2813 10.0887C13.118 9.94335 12.8558 9.67832 12.7706 9.40935C12.7232 9.25945 12.7269 9.14863 12.7814 9.08868C12.829 9.03637 12.9088 9.0307 12.9506 9.03956C12.9951 9.04907 13.0375 9.08053 13.0638 9.1237C13.0897 9.16603 13.0975 9.21327 13.0858 9.25715C13.0806 9.2767 13.085 9.2976 13.0978 9.31335C13.1105 9.32915 13.1305 9.33824 13.1503 9.33679C13.3102 9.32887 14.1143 9.2759 14.2443 9.01251C14.2624 8.97567 14.2751 8.92115 14.2482 8.85445C14.3333 8.80588 14.5435 8.73388 14.8157 8.97717C14.8379 8.99709 14.8712 8.99863 14.8956 8.98096C14.9583 8.93488 15.0525 8.82412 15.0409 8.68935C15.1357 8.70126 15.2988 8.74926 15.412 8.93156C15.4224 8.94824 15.4398 8.95912 15.4593 8.96118C15.4787 8.9631 15.498 8.95617 15.5117 8.94206C15.5167 8.93685 15.6196 8.82843 15.6621 8.69446C15.7378 8.71213 15.888 8.76909 16.0347 8.95345C16.0457 8.96728 16.0618 8.97585 16.0794 8.97726C16.0856 8.97735 16.1664 8.98218 16.2706 8.95167C15.9503 9.20971 15.4298 9.26249 15.423 9.26315C15.3996 9.26535 15.3794 9.28026 15.3703 9.30187C15.3613 9.32348 15.3649 9.34846 15.3798 9.36651L15.4702 9.47667C15.1118 9.48332 14.954 9.35367 14.9526 9.35245C14.9294 9.33229 14.8953 9.33182 14.8712 9.35067C14.8473 9.36988 14.8405 9.40345 14.8551 9.43045L14.9336 9.57548C14.7927 9.54599 14.6635 9.48028 14.5551 9.42501C14.4186 9.35549 14.3107 9.30079 14.2161 9.32887C14.1454 9.35001 14.0939 9.41385 14.0816 9.49551C14.0682 9.58448 14.1045 9.66946 14.1762 9.71723C14.2127 9.7416 14.2543 9.75351 14.2962 9.75351C14.3553 9.75351 14.4151 9.72984 14.462 9.68404C14.5003 9.64663 14.5233 9.60117 14.5301 9.55453C14.673 9.6269 14.8469 9.7087 15.0455 9.71723C15.0678 9.71995 15.09 9.70687 15.102 9.68751C15.1142 9.66815 15.1149 9.64373 15.104 9.62367L15.0625 9.54712C15.1824 9.58753 15.3603 9.61978 15.6042 9.59545C15.6275 9.5931 15.6476 9.57829 15.6566 9.55663C15.6655 9.53503 15.6618 9.51023 15.647 9.49213L15.5498 9.37368C15.7489 9.34054 16.1575 9.2444 16.4154 8.99437C16.3729 9.11128 16.3038 9.23174 16.1898 9.2977C16.1739 9.30698 16.1629 9.32287 16.1594 9.34101C16.1561 9.35915 16.1608 9.37809 16.1723 9.39252C16.1745 9.39524 16.3797 9.66309 16.3157 10.3631C16.1983 10.3028 15.9727 10.1594 15.8451 9.9007C15.8316 9.87328 15.8008 9.85963 15.7706 9.86779C15.7412 9.87628 15.722 9.90473 15.7251 9.93529C15.7336 10.0175 15.7405 10.1489 15.7331 10.2414C15.6645 10.1923 15.5685 10.112 15.5289 10.0243C15.5178 9.99937 15.492 9.98385 15.4649 9.98728C15.4378 9.9899 15.4155 10.0095 15.4093 10.036C15.3933 10.105 15.3719 10.185 15.3545 10.2393C15.2914 10.1998 15.2075 10.1372 15.1727 10.073C15.1592 10.0481 15.131 10.035 15.1031 10.0413C15.0754 10.0474 15.0552 10.0713 15.0536 10.0996C15.0495 10.173 15.0398 10.2863 15.0274 10.3646C14.9691 10.3289 14.8871 10.2749 14.8265 10.2201C14.81 10.2052 14.787 10.1997 14.7659 10.2062C14.7447 10.2125 14.7283 10.2294 14.7226 10.2509L14.69 10.3745C14.6355 10.3429 14.56 10.2924 14.5106 10.2321C14.4884 10.205 14.4484 10.201 14.4214 10.2232C14.3943 10.2453 14.3903 10.2853 14.4125 10.3124C14.5158 10.4386 14.6972 10.522 14.7048 10.5255C14.722 10.5331 14.7413 10.5329 14.7583 10.5251C14.7752 10.5171 14.7877 10.502 14.7925 10.4839L14.8203 10.3781C14.9231 10.4546 15.0332 10.515 15.039 10.5181C15.0549 10.5267 15.0738 10.5281 15.0909 10.5222C15.108 10.516 15.1216 10.5028 15.1283 10.486C15.1468 10.4395 15.1599 10.3441 15.1683 10.2596C15.2549 10.3349 15.3521 10.3841 15.3582 10.3871C15.3879 10.4019 15.4238 10.3914 15.441 10.363C15.4589 10.333 15.4802 10.2658 15.498 10.202C15.6007 10.3177 15.7388 10.397 15.7464 10.4014C15.7623 10.4104 15.7817 10.412 15.7992 10.406C15.8166 10.3997 15.8304 10.3861 15.837 10.3688C15.8561 10.3185 15.8625 10.2389 15.8631 10.1608C15.9839 10.3083 16.1237 10.4023 16.2225 10.4568C16.2225 10.4584 16.2218 10.4597 16.2219 10.4613C16.2226 10.4725 16.2364 10.6848 16.2728 10.8541C16.1664 10.8147 15.9952 10.7344 15.8371 10.5855C15.8219 10.5712 15.8005 10.5654 15.7801 10.5697C15.7596 10.5742 15.7427 10.5884 15.7348 10.6078L15.686 10.7283L15.482 10.5803C15.464 10.5673 15.4403 10.5645 15.4196 10.5734C15.399 10.5823 15.3847 10.6013 15.3818 10.6235L15.3633 10.765C15.319 10.7329 15.2658 10.6904 15.2278 10.6477C15.2044 10.6214 15.1642 10.6191 15.1383 10.6424C15.1121 10.6657 15.1098 10.7058 15.133 10.7319C15.2229 10.833 15.3737 10.9251 15.38 10.929C15.3985 10.9403 15.4211 10.9412 15.4404 10.9319C15.4598 10.9227 15.4731 10.9043 15.4759 10.883L15.4938 10.7456L15.6771 10.8786C15.6927 10.89 15.713 10.8934 15.7317 10.8882C15.7506 10.8828 15.7658 10.8691 15.7731 10.8511L15.8188 10.7383C15.9362 10.8348 16.0529 10.8981 16.1478 10.94C16.1483 10.9794 16.1545 11.1474 16.2254 11.2799C16.1092 11.2769 15.9271 11.2565 15.7585 11.1721C15.73 11.1576 15.6946 11.1671 15.6769 11.1944L15.5851 11.3359L15.2051 11.081C15.189 11.07 15.1686 11.067 15.1502 11.0734C15.1317 11.0794 15.1169 11.0936 15.1102 11.1118L15.0518 11.2709C14.9819 11.1924 14.8816 11.0819 14.8447 11.0524C14.8188 11.0316 14.7812 11.0345 14.7586 11.0589C14.7575 11.06 14.6688 11.1551 14.5625 11.2289L14.4893 11.0323C14.4771 10.9996 14.4404 10.9828 14.4077 10.9949C14.3748 11.0071 14.3581 11.0438 14.3703 11.0766L14.4708 11.3461C14.4772 11.3635 14.4909 11.3771 14.5083 11.3835C14.5256 11.3899 14.5448 11.3885 14.561 11.3795C14.6604 11.3243 14.7533 11.2419 14.8062 11.1909C14.8651 11.2516 14.9639 11.3623 15.0268 11.4345C15.0416 11.4514 15.0641 11.4594 15.0861 11.4551C15.1082 11.4511 15.1264 11.4357 15.1342 11.4147L15.2015 11.2314L15.5679 11.4772C15.5784 11.4842 15.5907 11.488 15.6032 11.488C15.6074 11.488 15.6117 11.4876 15.6159 11.4866C15.6326 11.4832 15.6472 11.4733 15.6564 11.4591L15.7533 11.3096C15.9161 11.3799 16.0789 11.4007 16.1958 11.4057C16.1951 11.4208 16.1992 11.4362 16.2096 11.4488C16.2251 11.4677 16.2566 11.505 16.2947 11.5437L16.1361 11.5461C16.1184 11.5464 16.1016 11.554 16.0899 11.5672C16.0781 11.5804 16.0723 11.5979 16.0739 11.6156L16.0976 11.8639C16.01 11.8442 15.8711 11.806 15.7807 11.7468C15.7597 11.7331 15.7331 11.7328 15.7121 11.7462L15.4348 11.9211L15.2928 11.5348C15.2841 11.511 15.2621 11.4948 15.2368 11.4933C15.2092 11.4914 15.1878 11.5057 15.1765 11.5283L15.0208 11.8396L14.9117 11.6657C14.9004 11.6477 14.8808 11.6365 14.8596 11.636C14.8384 11.6363 14.8184 11.6455 14.8061 11.6629C14.805 11.6645 14.7167 11.7891 14.6155 11.8824L14.5431 11.6539C14.5357 11.6308 14.5159 11.6138 14.4919 11.6103C14.4677 11.6071 14.444 11.6172 14.4303 11.6372C14.4293 11.6387 14.3512 11.7523 14.252 11.8568L14.2341 11.5739C14.2327 11.5524 14.2205 11.533 14.2016 11.5225C14.1828 11.512 14.1598 11.5117 14.1408 11.522C14.1135 11.5366 14.0631 11.5631 14.0103 11.5891C14.0849 11.4342 14.1696 11.2166 14.1214 11.1044C14.1071 11.071 14.0801 11.0488 14.0478 11.0351C14.0458 11.0337 14.0444 11.0317 14.0423 11.0305C14.0393 11.0289 14.0361 11.0288 14.0331 11.0277C14.0309 11.0271 14.0295 11.0253 14.0273 11.0248C14.0247 11.0242 14.0228 11.0243 14.0203 11.0238C14.019 11.0237 14.0178 11.0234 14.0164 11.0233C13.9304 11.0054 13.8718 11.0294 13.8379 11.0541C13.8033 11.0794 13.7805 11.113 13.7656 11.1453C13.7261 11.1073 13.6785 11.0505 13.6478 10.9773C13.6381 10.954 13.6154 10.9387 13.5902 10.9384C13.5649 10.9368 13.5421 10.9528 13.5316 10.9758ZM13.0492 10.268C13.3921 10.4332 13.8135 10.4515 13.9287 10.4536C13.9838 10.5221 14.0376 10.5875 14.0807 10.6388C13.9753 10.6393 13.8678 10.6512 13.7825 10.6639L13.7975 10.6452C13.8124 10.6267 13.8156 10.6014 13.806 10.5797C13.7965 10.5581 13.7755 10.5436 13.7519 10.5421C13.3213 10.5165 12.847 10.3669 12.8423 10.3653C12.8421 10.3652 12.8419 10.3653 12.8418 10.3652C12.8418 10.3652 12.8416 10.3651 12.8414 10.365C12.7707 10.3437 12.7295 10.3074 12.7254 10.2629C12.7222 10.2278 12.7417 10.1992 12.7535 10.1931C12.8219 10.1579 12.9659 10.2276 13.0492 10.268ZM13.6485 10.3037C13.6622 10.2939 13.6723 10.2798 13.675 10.2629L13.6935 10.144C13.7315 10.1993 13.7776 10.2605 13.8251 10.3222C13.7761 10.3188 13.7157 10.313 13.6485 10.3037ZM13.5368 10.2858C13.5059 10.2801 13.4741 10.2734 13.4418 10.2659C13.4447 10.2524 13.443 10.2378 13.4365 10.2247C13.4347 10.2211 13.433 10.2173 13.4314 10.2134C13.4715 10.2463 13.5086 10.2698 13.5368 10.2858ZM14.3733 9.59334C14.3445 9.62174 14.2939 9.64331 14.2466 9.61185C14.2103 9.58767 14.2024 9.54571 14.207 9.51445C14.2107 9.49007 14.2247 9.45881 14.2524 9.45051C14.2577 9.44896 14.2638 9.44817 14.2703 9.44817C14.3007 9.44817 14.3441 9.4641 14.3937 9.48679L14.3938 9.48693C14.426 9.53798 14.3824 9.58453 14.3733 9.59334ZM16.7851 10.5428C16.8032 10.5544 16.8262 10.5558 16.846 10.5467C16.8655 10.5376 16.8791 10.519 16.8819 10.4975C16.8925 10.4177 16.912 10.3688 16.9399 10.352C16.9905 10.3217 17.1129 10.3681 17.2544 10.4217C17.3623 10.4626 17.4966 10.5134 17.6496 10.5509C18.0489 10.6487 18.5184 10.5647 18.9325 10.4905C19.0724 10.4654 19.2071 10.4414 19.3324 10.4253C19.5944 10.3919 19.8615 10.5016 19.9284 10.67C19.9788 10.7971 19.9013 10.9437 19.71 11.0828C19.1797 11.4684 16.6405 11.2972 16.3816 11.2787C16.3128 11.2131 16.2858 11.0789 16.2778 10.9904C16.3196 11.0038 16.3477 11.0104 16.3513 11.0112C16.3556 11.0122 16.36 11.0126 16.3644 11.0126C16.3825 11.0126 16.4001 11.0047 16.4124 10.9907C16.4274 10.9732 16.4319 10.949 16.4239 10.9273C16.3844 10.8194 16.3626 10.6199 16.3536 10.5178C16.3704 10.5224 16.3881 10.5208 16.403 10.5115C16.4195 10.5014 16.4304 10.4842 16.4327 10.4649C16.5077 9.82771 16.3769 9.49546 16.3083 9.37101C16.3249 9.35831 16.3405 9.34457 16.3554 9.33023C16.36 9.6314 16.5347 9.8736 16.6061 9.96009C16.4786 10.249 16.6638 10.4659 16.7851 10.5428Z" fill="#464655"/>
<path d="M10.4228 7.27688C10.3982 6.7659 10.2769 5.93949 9.88912 5.92055C9.67058 5.91047 9.56291 6.04501 9.55846 6.05077C9.54566 6.06736 9.52466 6.07669 9.50432 6.07566L9.35615 6.06676L9.38268 6.16496C9.38905 6.18863 9.38104 6.21408 9.36229 6.22997C9.35329 6.23757 9.14376 6.41954 9.27126 6.65129C9.36838 6.82786 9.6823 6.91144 9.91148 6.97238C10.0138 6.99966 10.1023 7.02319 10.1596 7.05127C10.2619 7.10124 10.3515 7.18566 10.4228 7.27688Z" fill="#FFD250"/>
<path d="M9.8954 5.79381C9.67241 5.78289 9.53362 5.89403 9.48145 5.94714L9.2759 5.93481C9.2564 5.93326 9.23587 5.94231 9.22293 5.95811C9.21004 5.9739 9.20549 5.99495 9.21079 6.01469L9.25026 6.16112C9.14948 6.26397 9.03098 6.47753 9.16016 6.71233C9.28335 6.93648 9.62765 7.02803 9.87895 7.09497C9.9749 7.12047 10.0578 7.14254 10.1041 7.16514C10.2527 7.23779 10.372 7.40308 10.4341 7.53358C10.4448 7.55603 10.4673 7.56972 10.4914 7.56972C10.496 7.56972 10.5005 7.5692 10.5051 7.56822C10.5339 7.56184 10.5545 7.53639 10.5548 7.5069C10.5554 7.43842 10.5636 5.82639 9.8954 5.79381ZM9.91157 6.97229C9.6824 6.91136 9.36848 6.82778 9.27135 6.6512C9.14385 6.4195 9.35338 6.23753 9.36238 6.22989C9.38109 6.214 9.3891 6.18859 9.38277 6.16487L9.35624 6.06667L9.50441 6.07558C9.52481 6.07665 9.54581 6.06728 9.55856 6.05069C9.56301 6.04487 9.67068 5.91034 9.88921 5.92047C10.277 5.9394 10.3983 6.76581 10.4229 7.2768C10.3516 7.18562 10.262 7.1012 10.1597 7.05119C10.1024 7.02311 10.0139 6.99958 9.91157 6.97229Z" fill="#464655"/>
<path d="M21.0254 7.27688C21.05 6.7659 21.1713 5.93949 21.5591 5.92055C21.7776 5.91047 21.8853 6.04501 21.8897 6.05077C21.9025 6.06736 21.9235 6.07669 21.9439 6.07566L22.092 6.06676L22.0655 6.16496C22.0591 6.18863 22.0671 6.21408 22.0859 6.22997C22.0949 6.23757 22.3044 6.41954 22.1769 6.65129C22.0798 6.82786 21.7659 6.91144 21.5367 6.97238C21.4344 6.99966 21.3459 7.02319 21.2885 7.05127C21.1863 7.10124 21.0966 7.18566 21.0254 7.27688Z" fill="#FFD250"/>
<path d="M20.8936 7.50698C20.8939 7.53647 20.9145 7.56192 20.9433 7.5683C20.9479 7.56928 20.9524 7.5698 20.957 7.5698C20.981 7.5698 21.0036 7.55611 21.0142 7.53366C21.0763 7.40316 21.1957 7.23787 21.3443 7.16522C21.3906 7.14258 21.4734 7.12055 21.5694 7.09505C21.8208 7.02815 22.165 6.93656 22.2882 6.71241C22.4173 6.47756 22.2988 6.264 22.1981 6.1612L22.2376 6.01476C22.2429 5.99498 22.2383 5.97394 22.2254 5.95819C22.2125 5.94239 22.192 5.9333 22.1725 5.93489L21.9669 5.94722C21.9147 5.8942 21.7759 5.78306 21.553 5.79389C20.8849 5.82637 20.893 7.43841 20.8936 7.50698ZM21.2887 7.05112C21.1864 7.10119 21.0967 7.18561 21.0255 7.27673C21.0501 6.76575 21.1714 5.93934 21.5592 5.92041C21.7777 5.91033 21.8854 6.04486 21.8898 6.05062C21.9026 6.06722 21.9236 6.07655 21.9439 6.07551L22.0921 6.06661L22.0656 6.16481C22.0592 6.18848 22.0672 6.21394 22.086 6.22983C22.095 6.23742 22.3045 6.41939 22.177 6.65114C22.0799 6.82772 21.766 6.9113 21.5368 6.97223C21.4346 6.99956 21.3461 7.02309 21.2887 7.05112Z" fill="#464655"/>
<path d="M21.0254 16.7231C21.05 17.2341 21.1713 18.0605 21.5591 18.0794C21.7776 18.0895 21.8853 17.955 21.8897 17.9492C21.9025 17.9326 21.9235 17.9233 21.9439 17.9243L22.092 17.9332L22.0655 17.835C22.0591 17.8113 22.0671 17.7859 22.0859 17.77C22.0949 17.7624 22.3044 17.5804 22.1769 17.3487C22.0798 17.1721 21.7659 17.0885 21.5367 17.0276C21.4344 17.0003 21.3459 16.9768 21.2885 16.9487C21.1863 16.8987 21.0966 16.8143 21.0254 16.7231Z" fill="#FFD250"/>
<path d="M21.553 18.2061C21.776 18.2171 21.9147 18.1059 21.9669 18.0528L22.1725 18.0651C22.192 18.0667 22.2125 18.0576 22.2254 18.0418C22.2383 18.026 22.2429 18.005 22.2376 17.9853L22.1981 17.8388C22.2989 17.736 22.4174 17.5224 22.2882 17.2876C22.165 17.0635 21.8207 16.9719 21.5694 16.905C21.4735 16.8795 21.3906 16.8574 21.3443 16.8348C21.1957 16.7622 21.0764 16.5969 21.0142 16.4664C21.0036 16.4439 20.9811 16.4302 20.957 16.4302C20.9525 16.4302 20.9479 16.4308 20.9433 16.4317C20.9145 16.4381 20.8939 16.4636 20.8936 16.493C20.8929 16.5615 20.8848 18.1736 21.553 18.2061ZM21.5368 17.0276C21.766 17.0886 22.0799 17.1721 22.177 17.3487C22.3045 17.5804 22.095 17.7624 22.086 17.77C22.0673 17.7859 22.0593 17.8113 22.0656 17.835L22.0921 17.9332L21.944 17.9243C21.9236 17.9233 21.9026 17.9326 21.8898 17.9492C21.8854 17.955 21.7777 18.0896 21.5592 18.0794C21.1714 18.0605 21.0501 17.2341 21.0255 16.7231C21.0968 16.8143 21.1864 16.8987 21.2887 16.9487C21.346 16.9769 21.4345 17.0004 21.5368 17.0276Z" fill="#464655"/>
<path d="M10.4228 16.7231C10.3982 17.2341 10.2769 18.0605 9.88912 18.0794C9.67058 18.0895 9.56291 17.955 9.55846 17.9492C9.54566 17.9326 9.52466 17.9233 9.50432 17.9243L9.35615 17.9332L9.38268 17.835C9.38905 17.8113 9.38104 17.7859 9.36229 17.77C9.35329 17.7624 9.14376 17.5804 9.27126 17.3487C9.36838 17.1721 9.6823 17.0885 9.91148 17.0276C10.0138 17.0003 10.1023 16.9768 10.1596 16.9487C10.2619 16.8987 10.3515 16.8143 10.4228 16.7231Z" fill="#FFD250"/>
<path d="M10.5548 16.4929C10.5544 16.4634 10.5339 16.438 10.5051 16.4316C10.5005 16.4306 10.4959 16.4301 10.4914 16.4301C10.4673 16.4301 10.4448 16.4438 10.4341 16.4663C10.372 16.5968 10.2526 16.762 10.1041 16.8347C10.0577 16.8573 9.97491 16.8794 9.87891 16.9049C9.62757 16.9718 9.28337 17.0633 9.16013 17.2875C9.03099 17.5223 9.14949 17.7359 9.25023 17.8387L9.21076 17.9851C9.20546 18.0049 9.21006 18.026 9.2229 18.0417C9.23579 18.0575 9.25637 18.0666 9.27587 18.065L9.48142 18.0527C9.53359 18.1057 9.67238 18.2168 9.89537 18.206C10.5635 18.1736 10.5554 16.5616 10.5548 16.4929ZM10.1597 16.9488C10.262 16.8988 10.3516 16.8143 10.4229 16.7232C10.3983 17.2342 10.277 18.0606 9.88923 18.0796C9.6707 18.0896 9.56302 17.9551 9.55857 17.9493C9.54577 17.9327 9.52477 17.9234 9.50443 17.9244L9.35626 17.9333L9.38279 17.8351C9.38917 17.8115 9.38115 17.786 9.3624 17.7701C9.3534 17.7625 9.14387 17.5806 9.27137 17.3488C9.36849 17.1722 9.68242 17.0887 9.91159 17.0277C10.0139 17.0004 10.1024 16.9769 10.1597 16.9488Z" fill="#464655"/>
</svg>
