<svg width="24" height="24" viewBox="0 0 24 24" fill="none" xmlns="http://www.w3.org/2000/svg">
<path d="M0 5.93533V18.0647C0 19.0574 0.804703 19.8621 1.79742 19.8621H22.2026C22.6425 19.8621 23.0454 19.7038 23.3578 19.4414L0.642187 4.55865C0.249656 4.88837 0 5.38258 0 5.93533Z" fill="#FFE15A"/>
<path d="M22.2027 4.13788H1.79752C1.35755 4.13788 0.954709 4.29622 0.642334 4.55868L23.3579 19.4413C23.7504 19.1116 24.0001 18.6173 24.0001 18.0646V5.9353C24.0001 4.94258 23.1954 4.13788 22.2027 4.13788Z" fill="#FF4B55"/>
<path d="M12.7886 10.8915C12.8349 10.8543 12.8732 10.8082 12.8587 10.7694C12.8466 10.7373 12.7868 10.7074 12.7235 10.6758C12.6061 10.6171 12.4492 10.5366 12.3971 10.3438C12.3909 10.3431 12.3851 10.3437 12.3787 10.3425C12.3272 10.333 12.295 10.3507 12.2577 10.4719C12.2508 10.4939 12.2363 10.5294 12.217 10.57C12.2557 10.5956 12.3521 10.6551 12.4461 10.6765C12.6323 10.7186 12.747 10.7906 12.7886 10.8915Z" fill="#FFBE55"/>
<path d="M12.0659 10.8095C12.1215 10.8602 12.1726 10.9178 12.2228 10.982C12.2257 10.9857 12.2288 10.9894 12.2317 10.9931C12.3564 10.8975 12.5149 10.8969 12.6253 10.9149C12.5933 10.8818 12.531 10.8492 12.4128 10.8223C12.3033 10.7975 12.1972 10.7355 12.1447 10.7018C12.1204 10.7406 12.0939 10.7775 12.0659 10.8095Z" fill="#FFBE55"/>
<path d="M12.698 11.3583C12.7564 11.3921 12.8738 11.4682 12.9755 11.5779C12.9905 11.4935 12.986 11.3814 12.9068 11.2829C12.839 11.3204 12.7666 11.3441 12.698 11.3583Z" fill="#FFBE55"/>
<path d="M11.7259 10.3725L11.7063 10.3964C11.6088 10.5156 11.4981 10.6457 11.3923 10.7517C11.4567 10.7213 11.5325 10.6991 11.6112 10.6873C11.6393 10.6422 11.725 10.5227 11.8303 10.3788C11.8049 10.3626 11.7545 10.3379 11.7259 10.3725Z" fill="#FFBE55"/>
<path d="M11.3435 10.9771C11.344 10.9779 11.3506 10.986 11.3693 10.993C11.4017 11.0055 11.4617 11.0098 11.5243 10.9809C11.7067 10.8961 11.8908 10.9425 12.0718 11.1176C12.0723 11.1181 12.0721 11.119 12.0726 11.1195C12.0732 11.12 12.074 11.1199 12.0745 11.1204C12.0756 11.1215 12.1364 11.1826 12.2463 11.2385C12.1935 11.1831 12.1461 11.1265 12.1051 11.0741C12.0395 10.9903 11.9827 10.9179 11.9152 10.8748C11.7438 10.766 11.4452 10.8614 11.3608 10.9505C11.3468 10.9651 11.3435 10.9748 11.3435 10.9771Z" fill="#FFBE55"/>
<path d="M12.7612 11.0854C12.7612 11.0854 12.7608 11.0854 12.7606 11.0855C12.7512 11.0899 12.741 11.0921 12.7304 11.0923C12.73 11.0923 12.7295 11.0926 12.729 11.0926C12.7279 11.0926 12.727 11.0917 12.7259 11.0916C12.7182 11.0913 12.7105 11.0908 12.7029 11.088C12.7003 11.0871 12.4688 11.0055 12.3274 11.1079C12.367 11.1524 12.4118 11.1934 12.4618 11.2309C12.5313 11.2325 12.7718 11.2283 12.9088 11.1003C12.978 11.0357 12.9839 10.9651 12.9723 10.9096C12.9211 10.9896 12.8306 11.0523 12.7612 11.0854Z" fill="#FFBE55"/>
<path d="M10.6496 11.0092C10.6379 10.9923 10.6251 10.9776 10.6151 10.9576C10.5986 10.9246 10.5899 10.8897 10.5812 10.8548C10.528 10.9399 10.4719 11.0724 10.506 11.219C10.5461 11.1241 10.6066 11.052 10.6496 11.0092Z" fill="#FFBE55"/>
<path d="M11.9428 10.7237C12.0102 10.6533 12.0932 10.497 12.1145 10.4277C12.135 10.3608 12.1974 10.1574 12.4054 10.1951C12.4517 10.2037 12.486 10.1742 12.507 10.1482C12.4564 10.0905 12.3903 10.0531 12.3329 10.0517C12.29 10.0477 12.2407 10.0749 12.2025 10.1262C12.0154 10.3784 11.873 10.5732 11.7959 10.6818C11.8477 10.6878 11.8966 10.7029 11.9428 10.7237Z" fill="#FFBE55"/>
<path d="M11.4596 10.2699C11.3436 10.4248 11.2217 10.5121 11.1328 10.5759C11.0156 10.66 10.9866 10.6885 10.9937 10.7536C10.9951 10.7668 11.0008 10.7766 11.0126 10.786C11.0282 10.7983 11.0506 10.8071 11.0761 10.8137C11.0777 10.8129 11.0786 10.8115 11.0803 10.8108C11.2202 10.7539 11.4989 10.4134 11.5906 10.3015L11.6104 10.2773C11.7075 10.1598 11.8442 10.2068 11.919 10.2578C11.9448 10.2228 11.9708 10.1875 11.9968 10.1523C11.8616 9.98936 11.6382 10.0319 11.4596 10.2699Z" fill="#FFBE55"/>
<path d="M12.6396 10.2199C12.6175 10.2518 12.5859 10.2849 12.5454 10.3097C12.5826 10.4333 12.6866 10.49 12.7904 10.5418C12.8521 10.5725 12.9101 10.6032 12.952 10.6466C12.987 10.5211 12.9825 10.4212 12.934 10.3518C12.8628 10.25 12.7114 10.2253 12.6396 10.2199Z" fill="#FFBE55"/>
<path d="M12.0927 14.7085L12.109 14.727C12.3149 14.9614 12.5095 15.1879 12.639 15.3786C12.6351 15.2756 12.6281 15.169 12.6157 15.0948C12.6153 15.0925 12.615 15.09 12.6149 15.0876C12.5488 15.0022 12.4776 14.9226 12.4025 14.8553C12.183 14.6591 12.0592 14.4623 11.99 14.3106C11.9782 14.4411 11.9931 14.5954 12.0927 14.7085Z" fill="#FFBE55"/>
<path d="M11.9872 13.9518C11.9697 13.9209 11.9537 13.8878 11.9408 13.8508C11.9407 13.8504 11.9408 13.8502 11.9406 13.8498C11.9395 13.8494 11.9385 13.849 11.9373 13.8487C11.8925 13.9264 11.8103 13.98 11.7225 13.9801C11.7225 13.9801 11.7221 13.9801 11.722 13.9801C11.7152 13.9801 11.7092 13.9775 11.7026 13.977C11.6911 14.0275 11.6874 14.0846 11.7194 14.1151C11.7554 14.1498 11.8285 14.1493 11.8668 14.1396C11.8853 14.0604 11.9059 14.0044 11.9085 13.9979C11.9212 13.9663 11.9531 13.9479 11.9872 13.9518Z" fill="#FFBE55"/>
<path d="M11.8406 14.2938C11.8327 14.2943 11.8254 14.2956 11.8171 14.2956C11.7948 14.2956 11.7715 14.2926 11.7482 14.2881C11.7344 14.3397 11.7296 14.398 11.764 14.4331C11.7855 14.4551 11.8169 14.4636 11.8426 14.4651C11.837 14.406 11.8356 14.3479 11.8406 14.2938Z" fill="#FFBE55"/>
<path d="M9.05653 10.9595L9.05615 10.9597C8.90578 11.0101 8.72723 10.9977 8.57104 10.9671C8.66212 11.1076 8.69695 11.2768 8.70103 11.4342C8.8972 11.1783 9.11437 11.0611 9.26986 11.0056C9.18989 10.9984 9.11775 10.9836 9.05653 10.9595Z" fill="#FFBE55"/>
<path d="M12.6015 14.6819C12.5676 14.6793 12.491 14.6696 12.4001 14.642C12.4322 14.6758 12.4642 14.7097 12.5023 14.7438C12.7527 14.9677 12.9563 15.3086 13.0893 15.5715C13.1367 15.4018 13.2482 15.2563 13.368 15.1459C13.0334 15.1238 12.7716 14.8908 12.6015 14.6819Z" fill="#FFBE55"/>
<path d="M10.9082 11.9421C10.8534 11.93 10.7917 11.9072 10.7317 11.8704C10.6916 11.9979 10.6636 12.1161 10.6482 12.2239C10.7312 12.2163 10.7939 12.217 10.8366 12.2205C10.857 12.106 10.8853 12.0081 10.9082 11.9421Z" fill="#FFBE55"/>
<path d="M8.5451 11.5771C8.56305 11.4002 8.55344 11.1177 8.35713 10.9479C8.35652 10.9478 8.35596 10.9481 8.35525 10.948C8.34921 10.9472 7.78792 10.8663 7.4133 11.2489C7.27239 11.3929 7.18075 11.5056 7.10721 11.596C7.00741 11.7189 6.93578 11.8071 6.81958 11.8753C7.17114 12.0006 8.02342 12.2118 8.5451 11.5771Z" fill="#FFBE55"/>
<path d="M13.7596 9.3091C13.9164 9.39329 14.1812 9.49243 14.4128 9.37613C14.4131 9.37557 14.4131 9.37496 14.4134 9.37435C14.4163 9.36947 14.7056 8.88151 14.4955 8.3889C14.4164 8.2036 14.3472 8.07587 14.2916 7.9733C14.2164 7.83427 14.1622 7.73419 14.1435 7.60065C13.8936 7.87796 13.3725 8.58446 13.7596 9.3091Z" fill="#FFBE55"/>
<path d="M13.5455 15.1934C13.4044 15.3016 13.2052 15.5019 13.216 15.7611C13.2165 15.7617 13.2172 15.7621 13.2177 15.7628C13.2209 15.7674 13.5469 16.2316 14.0823 16.2423C14.2842 16.2464 14.4288 16.2359 14.5452 16.2273C14.7031 16.2157 14.8163 16.2076 14.9455 16.2451C14.7954 15.9035 14.365 15.139 13.5455 15.1934Z" fill="#FFBE55"/>
<path d="M12.3794 14.3466C12.378 14.3436 12.3792 14.3404 12.3782 14.3374L12.2759 14.4248C12.3429 14.4664 12.4136 14.4919 12.4741 14.5079C12.4138 14.4154 12.3806 14.3491 12.3794 14.3466Z" fill="#FFBE55"/>
<path d="M11.9574 13.3479C11.929 13.346 11.9008 13.343 11.873 13.338C11.8515 13.3727 11.8045 13.4715 11.874 13.596C11.8998 13.6424 11.9434 13.7006 12.0041 13.7148C12.0402 13.723 12.0818 13.7109 12.1258 13.6874C12.0361 13.5422 11.982 13.4143 11.9574 13.3479Z" fill="#FFBE55"/>
<path d="M13.4884 10.7136C13.5662 10.6554 13.7081 10.546 13.8764 10.4021C13.9269 10.0819 14.1137 9.7837 14.2809 9.57149C14.1108 9.59507 13.9364 9.55335 13.7895 9.49054C13.9861 10.0169 13.5603 10.6002 13.4805 10.703C13.483 10.7067 13.4859 10.7099 13.4884 10.7136Z" fill="#FFBE55"/>
<path d="M12.1652 14.3223L12.3007 14.2065C12.2126 14.1761 12.1281 14.1265 12.0591 14.051C12.0694 14.0987 12.0979 14.1968 12.1652 14.3223Z" fill="#FFBE55"/>
<path d="M10.493 12.2456C10.5101 12.101 10.5481 11.94 10.6072 11.7642C10.5693 11.7211 10.5361 11.6685 10.5097 11.6057C10.4397 11.7676 10.3386 12.0326 10.2996 12.2892C10.3706 12.2705 10.4351 12.2561 10.493 12.2456Z" fill="#FFBE55"/>
<path d="M13.1153 10.421C13.1324 10.5182 13.1212 10.6301 13.0745 10.7596C13.1026 10.8096 13.1264 10.8792 13.1264 10.9549C13.1857 10.9423 13.1901 10.9064 13.2084 10.7105L13.2163 10.6295C13.2237 10.5552 13.2103 10.4985 13.1765 10.4612C13.159 10.4419 13.1372 10.4301 13.1153 10.421Z" fill="#FFBE55"/>
<path d="M13.0989 11.7009C13.1475 11.6908 13.2092 11.6697 13.2585 11.6242C13.3331 11.5553 13.4157 11.4095 13.4021 11.344C13.4005 11.3358 13.3984 11.3305 13.3842 11.3255C13.3301 11.3062 13.3138 11.3131 13.3138 11.3134C13.3105 11.3159 13.3044 11.3295 13.3008 11.3376C13.2914 11.3582 13.2787 11.3864 13.2504 11.4049C13.2073 11.433 13.1665 11.4405 13.1289 11.4407C13.1398 11.5451 13.1192 11.6401 13.0989 11.7009Z" fill="#FFBE55"/>
<path d="M10.3546 11.0445C10.3649 10.9758 10.3849 10.9117 10.412 10.8541C10.2758 10.8032 9.96794 10.7038 9.71646 10.7384C9.36124 10.7862 9.0911 10.7464 8.91968 10.7003C9.00176 10.785 9.14276 10.8729 9.36349 10.8638C9.91094 10.8528 10.2248 10.9767 10.3546 11.0445Z" fill="#FFBE55"/>
<path d="M9.66734 11.023C9.53778 11.1245 9.44225 11.2465 9.37695 11.3506C9.57823 11.2463 9.83661 11.1421 10.0075 11.0768C9.91545 11.0534 9.8022 11.0342 9.66734 11.023Z" fill="#FFBE55"/>
<path d="M13.3537 11.1655C13.3769 11.1682 13.4021 11.1733 13.4312 11.1834C13.43 11.1776 13.4291 11.1724 13.4276 11.1655C13.4184 11.1233 13.4066 11.065 13.4096 10.9802C13.4096 10.9796 13.4092 10.9792 13.4092 10.9786C13.4092 10.9781 13.4095 10.9776 13.4095 10.9771C13.4096 10.9753 13.4092 10.9743 13.4094 10.9726C13.413 10.8939 13.3865 10.8302 13.3517 10.7831C13.3415 10.8843 13.3282 10.9607 13.2922 11.0145C13.3136 11.0483 13.3387 11.1008 13.3537 11.1655Z" fill="#FFBE55"/>
<path d="M13.5471 10.8566C13.5496 10.8676 13.5519 10.8787 13.5536 10.8901C13.9923 10.8305 14.3039 10.3892 14.4835 10.0359C14.1017 10.4401 13.6727 10.7645 13.5471 10.8566Z" fill="#FFBE55"/>
<path d="M11.722 13.8303H11.7221C11.7596 13.8301 11.7978 13.802 11.8141 13.7647C11.7882 13.7373 11.7639 13.7066 11.743 13.6691C11.7289 13.644 11.7198 13.6199 11.7114 13.5961C11.6818 13.6141 11.6491 13.6396 11.6344 13.6726C11.6234 13.6969 11.6238 13.7225 11.6358 13.7529C11.6496 13.7882 11.6758 13.8303 11.722 13.8303Z" fill="#FFBE55"/>
<path d="M10.1434 12.3349C10.1732 12.0653 10.2715 11.7863 10.3492 11.5998C10.3006 11.6368 10.24 11.6747 10.1651 11.7106C10.1567 11.7292 10.0055 12.068 9.948 12.4036C10.0171 12.3773 10.0823 12.3545 10.1434 12.3349Z" fill="#FFBE55"/>
<path d="M12.7963 14.6796C12.8836 14.6888 12.9646 14.6847 13.035 14.6747C12.9016 14.6293 12.7688 14.569 12.6599 14.5148C12.6984 14.5675 12.744 14.6243 12.7963 14.6796Z" fill="#FFBE55"/>
<path d="M11.7257 13.2971C11.3654 13.1603 11.0812 12.7726 10.9793 12.2795C10.9494 12.4709 10.9475 12.7079 11.0494 12.9205C11.1598 13.1511 11.3785 13.3131 11.6923 13.4085C11.6991 13.364 11.7118 13.3264 11.7257 13.2971Z" fill="#FFBE55"/>
<path d="M13.6425 11.0314C13.6346 11.0331 13.6259 11.033 13.6179 11.0345C13.718 11.144 14.1203 11.631 14.2292 12.4807C14.3041 12.5094 14.3738 12.5387 14.4329 12.5686C14.3938 12.2228 14.2373 11.3482 13.6425 11.0314Z" fill="#FFBE55"/>
<path d="M9.78772 12.4679C9.81894 12.2093 9.90988 11.9434 9.97175 11.7858C9.90913 11.8054 9.83943 11.8227 9.76279 11.8372C9.62779 12.0635 9.54594 12.4027 9.5083 12.5943C9.60772 12.5459 9.69993 12.5049 9.78772 12.4679Z" fill="#FFBE55"/>
<path d="M12.2116 13.8134C12.1741 13.8353 12.1391 13.8495 12.1069 13.8574C12.1905 14.0227 12.3456 14.0791 12.4774 14.0938C12.3709 14.0094 12.2841 13.9114 12.2116 13.8134Z" fill="#FFBE55"/>
<path d="M11.1341 11.012C11.1526 11.0035 11.1756 10.9969 11.1967 10.9893C11.1963 10.9854 11.1953 10.9819 11.1953 10.9779C11.1076 10.9761 10.9929 10.9619 10.9192 10.9032C10.8763 10.8688 10.8505 10.8228 10.8448 10.77C10.8273 10.6107 10.9333 10.5346 11.0454 10.4543C11.0911 10.4214 11.143 10.3834 11.1969 10.3352C11.0328 10.324 10.8856 10.379 10.7943 10.4978C10.7038 10.6152 10.6866 10.7657 10.749 10.8906C10.8342 11.0613 11.018 11.0441 11.1341 11.012Z" fill="#FFBE55"/>
<path d="M10.9317 11.1785C10.8881 11.1735 10.8457 11.1599 10.8049 11.1416C10.7985 11.2272 10.8038 11.3434 10.8594 11.4116C10.8608 11.3733 10.8655 11.3344 10.8768 11.2961C10.8875 11.2595 10.9046 11.2189 10.9317 11.1785Z" fill="#FFBE55"/>
<path d="M11.4927 11.23C11.6709 11.2441 11.8077 11.1987 11.8891 11.1604C11.7523 11.0628 11.653 11.0861 11.5872 11.1168C11.4815 11.166 11.3631 11.1629 11.2832 11.1168C11.2536 11.1302 11.2217 11.1435 11.1843 11.1542C11.1007 11.1962 11.0464 11.2558 11.0224 11.3323C11.0148 11.3563 11.0135 11.3801 11.0117 11.4037C11.0133 11.4023 11.0133 11.4 11.015 11.3987C11.1865 11.2758 11.3471 11.2206 11.4927 11.23Z" fill="#FFBE55"/>
<path d="M12.3067 13.2936C12.2455 13.3177 12.1823 13.3355 12.1172 13.3443C12.1603 13.4472 12.2455 13.6223 12.3804 13.7866C12.4507 13.6682 12.3679 13.4135 12.3067 13.2936Z" fill="#FFBE55"/>
<path d="M10.8843 11.6004C10.7253 11.5535 10.6638 11.4076 10.6525 11.2569C10.6183 11.3285 10.6 11.418 10.6343 11.5174C10.7033 11.7169 10.854 11.7751 10.9426 11.7936C10.9435 11.7704 10.9446 11.7472 10.9464 11.7241C10.9459 11.7236 10.9452 11.7235 10.9447 11.723C10.924 11.7002 10.9014 11.6559 10.8843 11.6004Z" fill="#FFBE55"/>
<path d="M10.3519 11.2119C10.3464 11.2096 10.3404 11.2101 10.3355 11.2065C10.3346 11.2059 10.3002 11.183 10.2363 11.154C10.0111 11.2755 9.8847 11.5233 9.8269 11.671C10.2349 11.5721 10.3642 11.3866 10.3895 11.3432C10.3709 11.299 10.3583 11.2551 10.3519 11.2119Z" fill="#FFBE55"/>
<path d="M12.9877 12.858C13.0634 12.6941 13.0797 12.5064 13.0397 12.2985C12.9491 12.7152 12.7278 13.0547 12.4412 13.2275C12.4542 13.2538 12.4687 13.2863 12.4838 13.3249C12.5964 13.2756 12.8593 13.1361 12.9877 12.858Z" fill="#FFBE55"/>
<path d="M13.1685 11.2795C13.1776 11.2551 13.1911 11.2299 13.2109 11.2087C13.2021 11.1621 13.1836 11.1229 13.1679 11.0977C13.1456 11.1036 13.1206 11.1079 13.0921 11.1108C13.0901 11.1109 13.0882 11.1111 13.0862 11.1111C13.0712 11.1391 13.0513 11.1665 13.0256 11.1932C13.0485 11.222 13.0682 11.2509 13.0826 11.2806C13.0865 11.2828 13.0913 11.2815 13.0949 11.2843C13.101 11.2887 13.129 11.3053 13.1685 11.2795Z" fill="#FFBE55"/>
<path d="M13.3813 11.7124C13.4587 11.9156 13.507 12.1005 13.5261 12.2638C13.5871 12.2797 13.6521 12.2971 13.7195 12.3161C13.6808 12.0285 13.5599 11.726 13.4884 11.5658C13.4566 11.6228 13.4181 11.6741 13.3813 11.7124Z" fill="#FFBE55"/>
<path d="M13.3692 12.224C13.3493 12.0978 13.3113 11.9576 13.2556 11.8051C13.1922 11.8361 13.1299 11.8493 13.084 11.8553C13.0841 11.8632 13.0848 11.8709 13.0848 11.8789C13.0848 11.8979 13.0833 11.9164 13.0828 11.9353C13.0846 11.9384 13.0872 11.9407 13.0886 11.944C13.1212 12.0234 13.146 12.1004 13.1656 12.1759C13.1892 12.1811 13.2638 12.198 13.3692 12.224Z" fill="#FFBE55"/>
<path d="M13.876 12.3616C13.9399 12.3809 14.004 12.4011 14.0664 12.4221C13.9718 11.8159 13.7236 11.413 13.5851 11.2314C13.5838 11.2606 13.5777 11.2922 13.5601 11.3288C13.558 11.3332 13.5537 11.3352 13.551 11.3389C13.5517 11.3471 13.553 11.3552 13.5529 11.3637C13.5584 11.3692 13.5638 11.3748 13.5675 11.3821C13.5782 11.403 13.833 11.9034 13.876 12.3616Z" fill="#FFBE55"/>
<path d="M12.0113 13.2019C12.5207 13.2019 12.9349 12.6084 12.9349 11.8789C12.9349 11.8389 12.9336 11.7995 12.9312 11.7603C12.8322 11.6115 12.6592 11.5078 12.6079 11.4793C12.3026 11.4738 12.0988 11.3379 12.0119 11.2659C11.9255 11.316 11.738 11.398 11.4815 11.3794C11.3775 11.3728 11.2584 11.4135 11.1256 11.504C11.1004 11.6255 11.0876 11.7513 11.0876 11.8789C11.0876 12.6084 11.502 13.2019 12.0113 13.2019Z" fill="#FFD7AA"/>
<path d="M8.39642 14.1367C8.41006 14.133 8.54745 14.0957 8.74859 14.0792C9.68014 13.8692 10.774 13.201 10.9711 13.0774C10.9518 13.0466 10.9296 13.0177 10.9137 12.9845C10.8157 12.7795 10.8001 12.5606 10.8164 12.3697C10.6761 12.3607 10.2481 12.3808 9.44295 12.7943C9.43212 12.7998 9.42045 12.8025 9.40873 12.8025C9.3934 12.8025 9.37822 12.7979 9.36532 12.7886C9.3425 12.7724 9.33064 12.7447 9.33462 12.717C9.33697 12.7004 9.37507 12.44 9.46207 12.163C8.99946 12.26 8.02278 13.2457 7.48512 13.7889C7.38354 13.8917 7.29204 13.9841 7.21461 14.0604C7.20392 14.0709 7.19257 14.0809 7.18114 14.091C7.11317 14.151 7.043 14.2131 7.09268 14.5707C7.13853 14.9009 7.568 14.9347 7.88754 14.9368H7.91093C8.01148 14.9368 8.25359 15.0204 8.67298 15.1684C9.08018 15.3121 9.54176 15.475 9.84059 15.5309C9.98356 15.5575 10.1177 15.5815 10.2415 15.6035C10.6192 15.671 10.8921 15.7195 11.035 15.7786C11.2084 15.8504 11.3996 16.2047 11.5653 16.5312L11.5971 16.5934C11.6947 16.7818 11.7131 17.0176 11.6448 17.2085C11.6117 17.3016 11.6353 17.3503 11.6472 17.367C11.6587 17.3834 11.6723 17.3893 11.6804 17.3893C11.719 17.3893 11.7468 17.3893 11.7776 17.2918C11.8165 17.1687 11.8262 17.1568 11.9899 16.9589L12.0346 16.9049C12.2032 16.7003 12.0342 16.2806 11.9531 16.0787L11.9416 16.0504C11.8839 15.9061 11.935 15.7545 11.9845 15.6081C12.0181 15.5084 12.0529 15.4055 12.0529 15.307C12.0529 15.2855 12.0471 15.2711 12.0335 15.2582C11.9549 15.1837 11.6884 15.1979 11.4937 15.2078C11.4219 15.2117 11.3539 15.2152 11.2955 15.2152C10.994 15.2152 10.5102 14.9139 9.8067 14.4541C9.45786 14.2265 9.04432 14.2068 8.76368 14.2292C8.64748 14.2546 8.53334 14.2731 8.42328 14.2831C8.38536 14.2864 8.34982 14.2603 8.34284 14.2221C8.3359 14.1843 8.35906 14.147 8.39642 14.1367Z" fill="#FFD7AA"/>
<path d="M17.002 9.21834C16.8755 9.24506 16.8602 9.24215 16.6056 9.19575L16.5385 9.18365C16.2769 9.13551 15.9944 9.48965 15.8583 9.65911L15.8391 9.68292C15.7416 9.80386 15.5846 9.8333 15.4328 9.86194C15.3293 9.88144 15.2224 9.9015 15.1364 9.94987C15.1178 9.96023 15.108 9.97247 15.1034 9.99065C15.0769 10.0954 15.2196 10.321 15.3239 10.4858C15.3623 10.5465 15.3987 10.6042 15.4273 10.6549C15.5748 10.9176 15.5488 11.487 15.4922 12.3258C15.4628 12.7637 15.67 13.151 15.8315 13.3819C15.8966 13.4554 15.9595 13.533 16.0189 13.6143C16.042 13.6459 16.0368 13.69 16.0071 13.7153C15.9773 13.7411 15.9329 13.7389 15.9054 13.7113C15.8961 13.7019 15.8104 13.6146 15.7084 13.4694C15.299 13.0134 14.7962 12.7119 14.5871 12.5975C14.5926 12.657 14.5947 12.6975 14.595 12.7061C14.5962 12.7354 14.5801 12.7625 14.554 12.7757C14.5433 12.781 14.5317 12.7837 14.5202 12.7837C14.5036 12.7837 14.4871 12.7782 14.4736 12.7675C14.2751 12.6095 13.5456 12.4173 13.1993 12.337C13.2298 12.5507 13.2046 12.7467 13.1231 12.9224C13.0394 13.1026 12.9107 13.2295 12.7896 13.3187C13.4247 14.1035 14.9288 14.4388 15.8345 14.6398C16.0676 14.6914 16.2691 14.7361 16.4172 14.779C16.4317 14.7833 16.4459 14.7881 16.4602 14.7932C16.5459 14.823 16.6342 14.854 16.9221 14.6354C17.1876 14.4337 17.0094 14.041 16.8521 13.7631L16.8406 13.7428C16.7915 13.6552 16.7459 13.4031 16.6698 12.965C16.5958 12.5394 16.5119 12.0571 16.4143 11.769C16.3674 11.6308 16.3224 11.5015 16.2809 11.3823C16.1551 11.0208 16.0641 10.7594 16.0458 10.6063C16.0236 10.42 16.2387 10.0801 16.4421 9.77611L16.4812 9.71719C16.598 9.53972 16.7946 9.40847 16.9943 9.37453C17.0916 9.35798 17.1225 9.31331 17.1313 9.29498C17.1399 9.27684 17.1385 9.26226 17.1345 9.25519C17.1157 9.22186 17.1021 9.19706 17.002 9.21834Z" fill="#FFD7AA"/>
<path d="M7.248 9.16762C7.33528 9.26301 7.34063 9.27745 7.43053 9.51848L7.45491 9.58359C7.54795 9.83222 7.99631 9.89545 8.2117 9.92564L8.24156 9.92995C8.39536 9.95198 8.50097 10.0717 8.60311 10.1878C8.67272 10.2668 8.74467 10.3483 8.83003 10.3974C8.84874 10.4081 8.86425 10.4105 8.88202 10.405C8.9858 10.3744 9.10669 10.1365 9.19495 9.96272C9.22763 9.89859 9.25852 9.8377 9.28767 9.78722C9.43795 9.5265 9.94069 9.25772 10.6906 8.87761C11.1039 8.66798 11.334 8.26031 11.4436 8.00451C11.4688 7.92065 11.4971 7.84092 11.529 7.76639C11.5445 7.73029 11.5848 7.71333 11.622 7.72486C11.659 7.73751 11.6801 7.77651 11.6704 7.81453C11.6675 7.82601 11.6414 7.92436 11.5824 8.06339C11.3818 8.74598 11.3908 9.71292 11.4042 10.1023C11.5554 9.9367 11.6992 9.8992 11.7982 9.8992C11.9076 9.8992 12.0076 9.94711 12.0876 10.0311C12.1714 9.92245 12.267 9.9014 12.3366 9.90197C12.4629 9.90506 12.5677 9.98615 12.6344 10.0704C12.7074 10.0741 12.8724 10.0936 12.9926 10.1965C13.1582 9.38362 12.7775 8.22862 12.5205 7.45068C12.4401 7.20712 12.3705 6.99665 12.3269 6.82898C12.323 6.81436 12.3199 6.79954 12.3169 6.7845C12.2988 6.69572 12.28 6.60393 11.9455 6.46837C11.6362 6.34218 11.39 6.69693 11.2313 6.97387L11.2196 6.99436C11.1694 7.0815 10.9757 7.24968 10.6378 7.53928C10.3102 7.82011 9.93872 8.13862 9.74114 8.36948C9.64664 8.47987 9.55884 8.58403 9.47808 8.68012C9.23109 8.97379 9.05255 9.18604 8.92997 9.28022C8.78095 9.39487 8.37825 9.38358 8.01206 9.36389L7.9432 9.36037C7.8278 9.35531 7.71333 9.32086 7.61058 9.26733L7.60205 9.26522L7.59703 9.25912C7.51674 9.21525 7.44314 9.16111 7.38661 9.09459C7.34953 9.05095 7.31658 9.03262 7.2907 9.02419L7.20839 9.04247C7.19175 9.07228 7.18425 9.09806 7.248 9.16762Z" fill="#FFD7AA"/>
<path d="M17.265 9.18207C17.2054 9.07576 17.1146 9.04187 16.9713 9.07168C16.8733 9.09235 16.8733 9.09216 16.6324 9.04847L16.5651 9.03615C16.2156 8.97258 15.8955 9.37313 15.7414 9.56522L15.7224 9.5888C15.6595 9.6668 15.5415 9.68883 15.4049 9.71461C15.2897 9.73646 15.1704 9.75891 15.063 9.81915C15.009 9.84957 14.9725 9.89602 14.958 9.95372C14.9158 10.1211 15.0588 10.3471 15.1971 10.5657C15.234 10.624 15.269 10.6794 15.2964 10.7282C15.4331 10.9718 15.3871 11.6549 15.3426 12.3157C15.3252 12.5749 15.3806 12.8152 15.4628 13.0207C15.0381 12.6552 14.6308 12.4489 14.5648 12.4166C14.5062 12.0198 14.3324 11.3198 13.8263 10.97C14.4844 10.6784 14.7972 9.68621 14.8121 9.63741C14.8228 9.60249 14.8068 9.56504 14.7742 9.54863C14.7418 9.53208 14.7019 9.5416 14.6803 9.57108C14.5083 9.80447 14.2873 10.031 14.0786 10.2229C14.2063 9.86194 14.4901 9.5468 14.6131 9.42272C14.6348 9.40421 14.656 9.38354 14.6765 9.36113C14.7034 9.33169 14.7025 9.28622 14.6744 9.25777C14.6643 9.24765 14.6508 9.24516 14.6379 9.24197C14.7144 9.03066 14.7854 8.68651 14.6333 8.33002C14.5516 8.13849 14.4806 8.00724 14.4236 7.90196C14.3213 7.71296 14.2746 7.6268 14.2886 7.4273C14.2908 7.39688 14.2743 7.36824 14.247 7.35493C14.2197 7.34129 14.1871 7.34579 14.1642 7.36604C14.1538 7.37522 13.1883 8.24987 13.555 9.21816C13.5439 9.22205 13.5321 9.2243 13.5235 9.23344C13.4975 9.26152 13.4968 9.30483 13.5221 9.33366C13.9335 9.80302 13.4776 10.4592 13.3732 10.5968C13.3708 10.5953 13.3686 10.5932 13.3662 10.5917C13.3662 10.4981 13.3409 10.4198 13.2873 10.3606C13.2403 10.3087 13.1818 10.2812 13.13 10.2665C13.3254 9.41382 12.9447 8.25718 12.6627 7.40368C12.5831 7.16246 12.5142 6.95433 12.4717 6.79111C12.4686 6.77902 12.4662 6.76693 12.4637 6.75465C12.4347 6.61266 12.38 6.48277 12.0018 6.32949C11.5362 6.1411 11.2088 6.71194 11.1013 6.89954L11.0899 6.91946C11.05 6.98874 10.7908 7.21083 10.5402 7.42552C10.2085 7.70986 9.83238 8.03222 9.6272 8.27194C9.53252 8.38276 9.44458 8.48743 9.36339 8.5838C9.13141 8.85952 8.94831 9.07721 8.83858 9.16168C8.72106 9.25215 8.21158 9.22468 8.02005 9.21432L7.94988 9.21061C7.77803 9.20302 7.60595 9.12151 7.50067 8.99747C7.42375 8.90682 7.32681 8.86055 7.23466 8.86815C7.16922 8.87419 7.11227 8.90851 7.08245 8.96021C7.02161 9.06572 7.03867 9.16111 7.13777 9.26893C7.20531 9.34285 7.20531 9.34285 7.29034 9.57085L7.31481 9.63638C7.43903 9.9683 7.94688 10.0397 8.19095 10.0742L8.22039 10.0783C8.31953 10.0925 8.39894 10.1827 8.49091 10.287C8.55597 10.3606 8.62628 10.4329 8.70902 10.4918C8.70395 10.4943 8.69805 10.4945 8.69355 10.4982C8.67006 10.5177 8.66059 10.5493 8.66964 10.5784C8.67049 10.5809 8.72223 10.7209 8.86099 10.8417C8.64217 10.8524 8.39209 10.7686 8.29183 10.7301C8.27594 10.7231 8.25944 10.7165 8.24247 10.7102C8.20445 10.6962 8.1625 10.7155 8.14741 10.7527C8.14225 10.7656 8.14211 10.7788 8.14408 10.7916C7.91955 10.8021 7.57628 10.8687 7.30638 11.1441C7.16059 11.2931 7.06647 11.4088 6.991 11.5018C6.85548 11.6686 6.79352 11.7446 6.60391 11.808C6.57503 11.8175 6.55488 11.8436 6.55291 11.8741C6.55084 11.9045 6.56744 11.933 6.59486 11.9462C6.60255 11.9499 7.048 12.1615 7.56541 12.1615C7.89231 12.1615 8.24781 12.0766 8.53994 11.8019C8.54772 11.8103 8.55405 11.8201 8.56544 11.8244C8.57402 11.8275 8.58283 11.829 8.59145 11.829C8.61925 11.829 8.64564 11.8134 8.65863 11.7873C8.87481 11.3497 9.17284 11.1923 9.34633 11.136C9.19169 11.3328 9.12367 11.5188 9.11988 11.5298C9.10877 11.5617 9.12034 11.5972 9.14828 11.6162C9.17622 11.6353 9.21348 11.6334 9.23917 11.6114C9.35209 11.5152 9.62706 11.3914 9.86022 11.2962C9.71922 11.4893 9.65805 11.6942 9.64516 11.7414C9.59608 11.8202 9.55375 11.9111 9.51738 12.0053C9.06189 12.0218 8.21195 12.8422 7.37898 13.6837C7.27788 13.7859 7.1868 13.8778 7.10978 13.9536C7.10088 13.9624 7.09164 13.9706 7.08217 13.979C6.97375 14.0749 6.88839 14.1871 6.94459 14.5915C7.01387 15.0892 7.67223 15.0881 7.88828 15.0867H7.9112C7.99098 15.0867 8.3125 15.2002 8.62333 15.3098C9.03573 15.4554 9.50313 15.6203 9.81334 15.6781C9.95669 15.7051 10.0914 15.7291 10.2155 15.7511C10.57 15.8143 10.8501 15.8644 10.978 15.9172C11.1148 15.9737 11.3452 16.428 11.432 16.5991L11.4644 16.6626C11.5435 16.8151 11.5588 17.0053 11.504 17.1584C11.464 17.2703 11.4716 17.3778 11.5249 17.4535C11.5628 17.5071 11.621 17.5393 11.6806 17.5393C11.8024 17.5393 11.8765 17.4769 11.9205 17.3373C11.9507 17.2419 11.9507 17.2419 12.1054 17.0547L12.1503 17.0003C12.3757 16.7271 12.1843 16.2516 12.0922 16.023L12.0809 15.9949C12.0438 15.9019 12.082 15.788 12.1265 15.6564C12.164 15.5452 12.2027 15.4303 12.2027 15.3073C12.2027 15.2453 12.1799 15.1908 12.1367 15.1497C12.0115 15.0309 11.7441 15.0453 11.4859 15.0586C11.4169 15.0623 11.3516 15.0659 11.2957 15.0659C11.0162 15.0659 10.443 14.6914 9.88877 14.3293C9.68078 14.1933 9.45531 14.1241 9.24414 14.0929C10.0836 13.8055 10.9027 13.2985 11.0602 13.1985C11.1831 13.3384 11.3472 13.4496 11.5581 13.5258C11.5346 13.5492 11.5133 13.5773 11.4982 13.6104C11.4706 13.6716 11.4699 13.7397 11.4964 13.8076C11.5129 13.8496 11.5371 13.8826 11.5647 13.9103C11.5167 14.0783 11.5638 14.171 11.6132 14.22C11.5593 14.3872 11.606 14.4856 11.657 14.538C11.7105 14.5928 11.7849 14.6161 11.8503 14.6161C11.859 14.6161 11.866 14.6135 11.8743 14.6127C11.8966 14.6811 11.9277 14.7481 11.98 14.8076L11.9964 14.826C12.2225 15.0832 12.6009 15.5136 12.6455 15.7145C12.6539 15.7519 12.6891 15.7761 12.7264 15.7728C12.7643 15.7689 12.7931 15.7371 12.7935 15.6991C12.7936 15.688 12.7952 15.515 12.7872 15.3387C12.9534 15.6082 13.0681 15.8756 13.1065 15.9696C13.1111 15.9823 13.1163 15.9952 13.1219 16.0081C13.1341 16.0364 13.1617 16.0533 13.1906 16.0533C13.2 16.0533 13.2095 16.0516 13.2188 16.0478C13.2313 16.0427 13.2408 16.034 13.2485 16.024C13.4101 16.1803 13.6939 16.3845 14.0795 16.3922C14.2877 16.3955 14.4367 16.3853 14.5563 16.3768C14.7705 16.361 14.8682 16.3539 15.0442 16.4486C15.0553 16.4546 15.0676 16.4575 15.0797 16.4575C15.0968 16.4575 15.1136 16.4517 15.1274 16.4404C15.1509 16.4211 15.1602 16.3893 15.1512 16.3604C15.147 16.3471 14.7457 15.1092 13.7128 15.0444C13.7139 15.0326 13.7166 15.0209 13.7117 15.0093C13.6968 14.9738 13.6577 14.9551 13.6209 14.9668C13.3653 15.045 13.1431 14.9633 12.9665 14.8324C13.195 14.8182 13.3535 14.7395 13.3618 14.7354C13.3915 14.7204 13.4078 14.6876 13.4017 14.6551C13.3958 14.6224 13.369 14.5976 13.3359 14.5941C13.0011 14.5588 12.4905 14.253 12.4855 14.2499C12.4834 14.2487 12.481 14.2494 12.4789 14.2484C12.4799 14.2473 12.4808 14.246 12.4817 14.2449C12.5103 14.2475 12.5386 14.2489 12.5657 14.2489C12.6291 14.2489 12.6872 14.2423 12.7341 14.2323C12.7654 14.2257 12.789 14.1999 12.7929 14.1683C12.7969 14.1365 12.7803 14.1059 12.7517 14.0917C12.6496 14.0415 12.5612 13.9736 12.4842 13.8988C12.5764 13.7868 12.5678 13.6178 12.5295 13.4686C12.563 13.4547 12.6086 13.433 12.6635 13.4018C13.3257 14.2351 14.813 14.5666 15.802 14.7862C16.0327 14.8373 16.232 14.8816 16.3757 14.9231C16.3876 14.9266 16.3992 14.9307 16.4111 14.9348C16.4582 14.9512 16.5056 14.9642 16.5608 14.9642C16.6659 14.9642 16.7994 14.9169 17.0127 14.7549C17.4131 14.4507 17.0891 13.8777 16.9825 13.6895L16.9714 13.6696C16.9324 13.6002 16.874 13.2643 16.8175 12.9396C16.7425 12.5086 16.6576 12.0203 16.5562 11.7213C16.5092 11.5824 16.4641 11.4527 16.4225 11.3334C16.3044 10.9939 16.211 10.7259 16.1947 10.5886C16.1771 10.442 16.4602 10.0187 16.5667 9.8596L16.6065 9.79969C16.7011 9.65574 16.8593 9.54966 17.0195 9.52257C17.1367 9.50251 17.2268 9.44316 17.2666 9.35954C17.2946 9.30029 17.2942 9.23391 17.265 9.18207ZM17.1313 9.29513C17.1225 9.31346 17.0915 9.35813 16.9943 9.37468C16.7944 9.40861 16.5979 9.53986 16.4812 9.71733L16.4421 9.77626C16.2386 10.0803 16.0236 10.4202 16.0458 10.6065C16.0641 10.7596 16.1551 11.0209 16.2808 11.3825C16.3224 11.5016 16.3673 11.631 16.4142 11.7692C16.5118 12.0572 16.5957 12.5395 16.6697 12.9651C16.7458 13.4032 16.7914 13.6553 16.8406 13.7429L16.852 13.7632C17.0093 14.0411 17.1875 14.4339 16.922 14.6356C16.6342 14.8542 16.546 14.8231 16.4602 14.7933C16.4458 14.7883 16.4316 14.7834 16.4171 14.7791C16.269 14.7362 16.0675 14.6916 15.8344 14.6399C14.9288 14.439 13.4247 14.1036 12.7895 13.3189C12.9106 13.2297 13.0393 13.1028 13.123 12.9225C13.2046 12.7469 13.2297 12.5509 13.1992 12.3372C13.5454 12.4175 14.275 12.6096 14.4735 12.7677C14.4871 12.7784 14.5036 12.7838 14.5201 12.7838C14.5316 12.7838 14.5432 12.7811 14.554 12.7758C14.58 12.7626 14.596 12.7355 14.5949 12.7062C14.5946 12.6977 14.5925 12.6572 14.587 12.5977C14.7961 12.712 15.2989 13.0135 15.7083 13.4696C15.8103 13.6147 15.896 13.702 15.9053 13.7114C15.9329 13.7391 15.9773 13.7413 16.007 13.7155C16.0367 13.6901 16.0419 13.6461 16.0188 13.6145C15.9594 13.5331 15.8965 13.4555 15.8314 13.382C15.6699 13.1511 15.4627 12.7638 15.4922 12.326C15.5487 11.4871 15.5748 10.9177 15.4272 10.655C15.3986 10.6043 15.3622 10.5466 15.3238 10.4859C15.2196 10.3211 15.0768 10.0955 15.1033 9.9908C15.1079 9.97266 15.1178 9.96038 15.1364 9.95002C15.2223 9.90165 15.3293 9.88158 15.4327 9.86208C15.5844 9.83344 15.7414 9.80396 15.8391 9.68307L15.8583 9.65926C15.9944 9.48976 16.2768 9.13562 16.5385 9.1838L16.6055 9.1959C16.8601 9.2423 16.8753 9.24526 17.002 9.21849C17.1021 9.19721 17.1156 9.22201 17.1345 9.25552C17.1384 9.26241 17.1399 9.27704 17.1313 9.29513ZM14.5453 16.2273C14.4289 16.2359 14.2844 16.2465 14.0824 16.2423C13.547 16.2316 13.221 15.7674 13.2178 15.7628C13.2174 15.7621 13.2166 15.7617 13.2161 15.7611C13.2053 15.5019 13.4045 15.3016 13.5456 15.1934C14.3651 15.139 14.7955 15.9034 14.9457 16.2451C14.8164 16.2076 14.7032 16.2156 14.5453 16.2273ZM13.0893 15.5715C12.9563 15.3085 12.7527 14.9677 12.5023 14.7438C12.4642 14.7097 12.4322 14.6758 12.4001 14.642C12.491 14.6696 12.5676 14.6793 12.6015 14.6819C12.7716 14.8908 13.0334 15.1238 13.368 15.1459C13.2481 15.2564 13.1366 15.4019 13.0893 15.5715ZM11.7483 14.2881C11.7716 14.2927 11.7949 14.2957 11.8173 14.2957C11.8255 14.2957 11.8328 14.2943 11.8407 14.2938C11.8357 14.3479 11.8371 14.4061 11.8428 14.4652C11.8171 14.4636 11.7856 14.4551 11.7641 14.4332C11.7297 14.3979 11.7345 14.3397 11.7483 14.2881ZM11.8668 14.1395C11.8286 14.1493 11.7554 14.1497 11.7194 14.1151C11.6875 14.0845 11.6912 14.0274 11.7026 13.9769C11.7092 13.9775 11.7153 13.9801 11.722 13.9801C11.7221 13.9801 11.7222 13.9801 11.7222 13.9801C11.8102 13.98 11.8924 13.9264 11.9373 13.8486C11.9384 13.849 11.9395 13.8495 11.9406 13.8498C11.9407 13.8501 11.9406 13.8504 11.9407 13.8507C11.9537 13.8877 11.9696 13.9209 11.9872 13.9517C11.9531 13.9478 11.9212 13.9663 11.9086 13.9978C11.9059 14.0044 11.8854 14.0604 11.8668 14.1395ZM8.42341 14.2833C8.53347 14.2734 8.64756 14.2549 8.76381 14.2295C9.04445 14.207 9.45798 14.2267 9.80683 14.4543C10.5104 14.9142 10.9942 15.2155 11.2957 15.2155C11.354 15.2155 11.422 15.212 11.4938 15.2081C11.6885 15.1981 11.955 15.1839 12.0337 15.2584C12.0472 15.2713 12.053 15.2858 12.053 15.3072C12.053 15.4057 12.0183 15.5087 11.9846 15.6083C11.9351 15.7548 11.884 15.9063 11.9418 16.0507L11.9532 16.079C12.0344 16.2808 12.2034 16.7005 12.0347 16.9051L11.99 16.9591C11.8264 17.1571 11.8166 17.169 11.7777 17.292C11.7468 17.3895 11.7191 17.3895 11.6806 17.3895C11.6725 17.3895 11.6589 17.3836 11.6473 17.3673C11.6355 17.3505 11.6118 17.3018 11.6449 17.2088C11.7132 17.0178 11.6949 16.7821 11.5973 16.5937L11.5654 16.5315C11.3998 16.205 11.2085 15.8506 11.0351 15.7789C10.8923 15.7198 10.6193 15.6713 10.2416 15.6038C10.1179 15.5817 9.98369 15.5577 9.84072 15.5312C9.54184 15.4752 9.08031 15.3124 8.67311 15.1687C8.25372 15.0206 8.01161 14.937 7.91106 14.937H7.88767C7.56813 14.9349 7.13866 14.9011 7.09281 14.571C7.04313 14.2133 7.1133 14.1513 7.18127 14.0912C7.1927 14.0811 7.20395 14.0712 7.21473 14.0606C7.29217 13.9844 7.38363 13.892 7.48525 13.7891C8.02291 13.246 8.99959 12.2603 9.4622 12.1633C9.3752 12.4402 9.33709 12.7006 9.33475 12.7173C9.33077 12.7449 9.34267 12.7727 9.36545 12.7889C9.37834 12.798 9.39353 12.8027 9.40886 12.8027C9.42053 12.8027 9.43225 12.8 9.44308 12.7946C10.2482 12.381 10.6762 12.361 10.8166 12.3699C10.8002 12.5609 10.8159 12.7798 10.9139 12.9848C10.9298 13.0179 10.9519 13.0468 10.9713 13.0776C10.7741 13.2012 9.68027 13.8695 8.74872 14.0794C8.54758 14.096 8.41014 14.1333 8.39655 14.1369C8.35919 14.1473 8.33598 14.1845 8.34302 14.2225C8.34995 14.2605 8.38544 14.2866 8.42341 14.2833ZM8.70091 11.4342C8.69683 11.2768 8.662 11.1075 8.57092 10.9671C8.72711 10.9977 8.9057 11.0101 9.05603 10.9597L9.05641 10.9595C9.11763 10.9836 9.18977 10.9984 9.26974 11.0056C9.11425 11.0611 8.89708 11.1783 8.70091 11.4342ZM7.10716 11.5961C7.18066 11.5056 7.27234 11.3929 7.41325 11.249C7.78788 10.8663 8.3492 10.9473 8.3552 10.948C8.35581 10.9481 8.35638 10.9479 8.35708 10.948C8.55344 11.1178 8.563 11.4003 8.54505 11.5772C8.02338 12.2117 7.17109 12.0007 6.81948 11.8754C6.93569 11.8071 7.00741 11.719 7.10716 11.5961ZM14.4956 8.38894C14.7057 8.88155 14.4164 9.36952 14.4135 9.3744C14.4131 9.37496 14.4132 9.37557 14.4129 9.37618C14.1813 9.49247 13.9165 9.39338 13.7598 9.30915C13.3727 8.58451 13.8938 7.87801 14.1437 7.60065C14.1624 7.73424 14.2165 7.83427 14.2918 7.9733C14.3474 8.07586 14.4165 8.2036 14.4956 8.38894ZM13.7893 9.49055C13.9363 9.55336 14.1107 9.59508 14.2807 9.57151C14.1135 9.7838 13.9267 10.082 13.8762 10.4021C13.708 10.546 13.5661 10.6553 13.4883 10.7136C13.4858 10.7098 13.4829 10.7067 13.4803 10.703C13.5602 10.6003 13.986 10.017 13.7893 9.49055ZM12.1652 14.3223C12.0979 14.1968 12.0693 14.0987 12.0591 14.0511C12.1281 14.1265 12.2126 14.1762 12.3007 14.2066L12.1652 14.3223ZM12.3782 14.3374C12.3792 14.3404 12.378 14.3437 12.3793 14.3465C12.3805 14.3491 12.4137 14.4154 12.474 14.5077C12.4135 14.4918 12.3428 14.4663 12.2758 14.4246L12.3782 14.3374ZM12.4024 14.8553C12.4775 14.9227 12.5487 15.0022 12.6148 15.0877C12.6149 15.09 12.6152 15.0925 12.6156 15.0949C12.628 15.169 12.635 15.2757 12.6389 15.3787C12.5094 15.1879 12.3148 14.9615 12.1089 14.7271L12.0925 14.7086C11.993 14.5955 11.9782 14.4412 11.99 14.3107C12.0591 14.4624 12.1829 14.6592 12.4024 14.8553ZM12.004 13.7148C11.9433 13.7006 11.8998 13.6425 11.8739 13.5961C11.8044 13.4715 11.8514 13.3727 11.8729 13.3381C11.9007 13.343 11.9289 13.346 11.9573 13.3479C11.9819 13.4143 12.036 13.5422 12.1257 13.6874C12.0817 13.7109 12.0401 13.723 12.004 13.7148ZM12.3328 10.0517C12.3902 10.0531 12.4563 10.0905 12.5069 10.1482C12.486 10.1741 12.4516 10.2036 12.4053 10.195C12.1974 10.1574 12.1349 10.3608 12.1144 10.4277C12.0931 10.497 12.0101 10.6533 11.9427 10.7237C11.8966 10.7029 11.8477 10.6877 11.7958 10.6817C11.8729 10.5731 12.0153 10.3783 12.2025 10.1262C12.2406 10.0749 12.2898 10.0476 12.3328 10.0517ZM11.9149 10.8749C11.9825 10.9179 12.0393 10.9903 12.1049 11.0742C12.1458 11.1266 12.1933 11.1831 12.246 11.2386C12.1362 11.1826 12.0753 11.1215 12.0742 11.1204C12.0737 11.1199 12.0729 11.1201 12.0724 11.1196C12.0719 11.119 12.0721 11.1182 12.0715 11.1177C11.8906 10.9426 11.7065 10.8961 11.5241 10.981C11.4615 11.0099 11.4014 11.0056 11.369 10.9931C11.3504 10.9861 11.3438 10.9779 11.3433 10.9771C11.3433 10.9748 11.3466 10.9652 11.3603 10.9506C11.4449 10.8614 11.7435 10.766 11.9149 10.8749ZM11.3923 10.7516C11.4981 10.6456 11.6087 10.5155 11.7063 10.3962L11.7258 10.3724C11.7544 10.3378 11.8048 10.3625 11.8302 10.3786C11.7249 10.5226 11.6392 10.642 11.6111 10.687C11.5324 10.699 11.4566 10.7213 11.3923 10.7516ZM12.4128 10.8222C12.531 10.8491 12.5933 10.8816 12.6253 10.9148C12.5149 10.8968 12.3564 10.8973 12.2317 10.9929C12.2288 10.9892 12.2257 10.9855 12.2228 10.9819C12.1726 10.9176 12.1216 10.8601 12.0659 10.8093C12.0939 10.7774 12.1204 10.7405 12.1446 10.7016C12.1971 10.7354 12.3033 10.7974 12.4128 10.8222ZM12.2169 10.5699C12.2362 10.5293 12.2508 10.4939 12.2575 10.4718C12.2948 10.3507 12.327 10.3329 12.3786 10.3425C12.385 10.3436 12.3907 10.343 12.397 10.3437C12.449 10.5365 12.6059 10.6171 12.7234 10.6757C12.7867 10.7073 12.8464 10.7372 12.8585 10.7693C12.8731 10.8082 12.8347 10.8542 12.7885 10.8914C12.7468 10.7906 12.6323 10.7186 12.446 10.6763C12.352 10.655 12.2555 10.5955 12.2169 10.5699ZM11.1256 11.504C11.2584 11.4135 11.3775 11.3727 11.4815 11.3794C11.738 11.3979 11.9254 11.3161 12.0119 11.2659C12.0988 11.3379 12.3025 11.4738 12.6079 11.4793C12.6592 11.5078 12.8323 11.6115 12.9312 11.7603C12.9337 11.7995 12.9349 11.8389 12.9349 11.8789C12.9349 12.6084 12.5206 13.2019 12.0113 13.2019C11.502 13.2019 11.0877 12.6084 11.0877 11.8789C11.0876 11.7513 11.1004 11.6255 11.1256 11.504ZM12.9755 11.5778C12.8738 11.4682 12.7564 11.392 12.698 11.3583C12.7665 11.344 12.839 11.3203 12.9068 11.2829C12.986 11.3815 12.9905 11.4935 12.9755 11.5778ZM12.9088 11.1001C12.7718 11.2281 12.5312 11.2322 12.4617 11.2306C12.4117 11.1932 12.367 11.1521 12.3273 11.1076C12.4687 11.0053 12.7003 11.0868 12.7028 11.0878C12.7104 11.0906 12.7181 11.0911 12.7258 11.0914C12.7269 11.0914 12.7278 11.0924 12.729 11.0924C12.7294 11.0924 12.7299 11.0921 12.7304 11.0921C12.7409 11.0919 12.7512 11.0897 12.7606 11.0853C12.7608 11.0852 12.761 11.0852 12.761 11.0852C12.8306 11.0521 12.9211 10.9894 12.9723 10.9093C12.9838 10.965 12.978 11.0355 12.9088 11.1001ZM12.9519 10.6466C12.91 10.6032 12.852 10.5726 12.7903 10.5418C12.6864 10.49 12.5825 10.4333 12.5453 10.3098C12.5857 10.2849 12.6174 10.2518 12.6395 10.2199C12.7113 10.2253 12.8627 10.2501 12.9339 10.3519C12.9823 10.4212 12.9869 10.5211 12.9519 10.6466ZM11.9188 10.2579C11.844 10.2069 11.7073 10.1599 11.6102 10.2773L11.5904 10.3015C11.4987 10.4135 11.22 10.754 11.0801 10.8109C11.0785 10.8116 11.0775 10.8129 11.0759 10.8137C11.0504 10.8072 11.028 10.7984 11.0124 10.786C11.0006 10.7767 10.995 10.7669 10.9935 10.7536C10.9864 10.6885 11.0154 10.66 11.1326 10.576C11.2215 10.5122 11.3434 10.4249 11.4595 10.27C11.638 10.032 11.8615 9.98944 11.9965 10.1525C11.9706 10.1876 11.9446 10.2228 11.9188 10.2579ZM11.2573 10.1881C11.0233 10.156 10.8081 10.2341 10.6755 10.4062C10.6205 10.4777 10.5888 10.5589 10.5739 10.6418C10.5649 10.6456 10.5547 10.6457 10.5474 10.6531C10.5286 10.6722 10.5088 10.6964 10.489 10.7231C10.3576 10.6715 10.002 10.5482 9.6963 10.5897C9.34281 10.6375 9.08177 10.5908 8.92961 10.5466C9.09245 10.4941 9.21255 10.2587 9.32856 10.0306C9.35988 9.96896 9.3895 9.9106 9.41739 9.86204C9.55675 9.6204 10.1675 9.31069 10.7583 9.01111C11.0068 8.88511 11.1938 8.69808 11.3316 8.50932C11.2241 9.18652 11.2451 9.92583 11.2573 10.1881ZM10.581 10.8548C10.5898 10.8897 10.5985 10.9247 10.615 10.9576C10.625 10.9777 10.6378 10.9923 10.6495 11.0093C10.6065 11.0521 10.546 11.1242 10.5059 11.2191C10.4718 11.0724 10.5278 10.9399 10.581 10.8548ZM10.5095 11.6058C10.5359 11.6685 10.5692 11.7211 10.6071 11.7642C10.548 11.94 10.51 12.1011 10.4928 12.2457C10.4349 12.2561 10.3705 12.2705 10.2993 12.2893C10.3384 12.0326 10.4395 11.7677 10.5095 11.6058ZM10.6481 12.2239C10.6635 12.1161 10.6915 11.9979 10.7316 11.8703C10.7916 11.9072 10.8533 11.9299 10.9081 11.942C10.8852 12.008 10.8569 12.106 10.8365 12.2204C10.7938 12.217 10.7311 12.2163 10.6481 12.2239ZM10.3491 11.5998C10.2715 11.7863 10.1732 12.0653 10.1433 12.3349C10.0823 12.3544 10.0171 12.3773 9.94792 12.4035C10.0054 12.068 10.1566 11.7291 10.165 11.7105C10.24 11.6747 10.3006 11.6369 10.3491 11.5998ZM9.82689 11.6709C9.88469 11.5233 10.0111 11.2754 10.2363 11.1539C10.3002 11.183 10.3346 11.2058 10.3354 11.2064C10.3404 11.2101 10.3464 11.2096 10.3518 11.2119C10.3583 11.2551 10.3709 11.299 10.3894 11.3432C10.3641 11.3865 10.2348 11.5721 9.82689 11.6709ZM10.9425 11.7937C10.8539 11.7751 10.7032 11.717 10.6342 11.5175C10.5998 11.4181 10.6182 11.3285 10.6525 11.257C10.6638 11.4077 10.7253 11.5536 10.8843 11.6005C10.9013 11.656 10.924 11.7003 10.9446 11.7231C10.9451 11.7236 10.9458 11.7238 10.9463 11.7243C10.9445 11.7473 10.9435 11.7705 10.9425 11.7937ZM10.8048 11.1416C10.8457 11.16 10.888 11.1735 10.9317 11.1786C10.9046 11.2189 10.8874 11.2595 10.8768 11.2962C10.8656 11.3345 10.8608 11.3735 10.8594 11.4117C10.8037 11.3434 10.7984 11.2273 10.8048 11.1416ZM10.749 10.8905C10.6865 10.7656 10.7038 10.6151 10.7943 10.4977C10.8857 10.3788 11.0328 10.3238 11.1969 10.3351C11.143 10.3833 11.0911 10.4213 11.0454 10.4542C10.9333 10.5346 10.8273 10.6106 10.8447 10.7699C10.8505 10.8228 10.8762 10.8688 10.9192 10.9031C10.9929 10.9618 11.1076 10.976 11.1953 10.9778C11.1953 10.9817 11.1963 10.9853 11.1967 10.9892C11.1756 10.9967 11.1526 11.0034 11.1341 11.0119C11.0179 11.0441 10.8341 11.0613 10.749 10.8905ZM11.0224 11.3322C11.0465 11.2557 11.1008 11.1961 11.1843 11.1541C11.2217 11.1435 11.2537 11.1301 11.2832 11.1167C11.3631 11.1628 11.4814 11.1659 11.5872 11.1167C11.653 11.086 11.7525 11.0627 11.8892 11.1603C11.8077 11.1987 11.6709 11.244 11.4927 11.2299C11.3471 11.2206 11.1865 11.2758 11.015 11.3986C11.0133 11.3998 11.0133 11.4022 11.0117 11.4035C11.0135 11.38 11.0148 11.3563 11.0224 11.3322ZM12.1173 13.3444C12.1824 13.3356 12.2455 13.3178 12.3067 13.2937C12.3679 13.4135 12.4508 13.6682 12.3805 13.7866C12.2455 13.6223 12.1604 13.4472 12.1173 13.3444ZM13.0397 12.2985C13.0797 12.5064 13.0634 12.6941 12.9877 12.8581C12.8593 13.1361 12.5964 13.2756 12.4838 13.3249C12.4687 13.2863 12.4542 13.2537 12.4411 13.2275C12.7279 13.0548 12.9492 12.7152 13.0397 12.2985ZM13.0826 11.9353C13.0831 11.9164 13.0847 11.8979 13.0847 11.8789C13.0847 11.8709 13.0839 11.8632 13.0838 11.8553C13.1297 11.8493 13.192 11.8361 13.2554 11.8051C13.3112 11.9576 13.3491 12.0978 13.369 12.224C13.2636 12.1981 13.189 12.1812 13.1654 12.1759C13.1457 12.1005 13.1209 12.0234 13.0884 11.9441C13.087 11.9406 13.0844 11.9384 13.0826 11.9353ZM13.0825 11.2807C13.0681 11.2509 13.0484 11.222 13.0256 11.1932C13.0513 11.1665 13.0712 11.1391 13.0862 11.1112C13.0882 11.1111 13.0901 11.111 13.0921 11.1108C13.1206 11.108 13.1456 11.1036 13.1679 11.0978C13.1835 11.1229 13.202 11.1621 13.2109 11.2088C13.1911 11.2298 13.1775 11.2552 13.1684 11.2796C13.1289 11.3054 13.1009 11.2887 13.0949 11.2845C13.0914 11.2816 13.0865 11.2829 13.0825 11.2807ZM13.7195 12.316C13.652 12.2971 13.587 12.2796 13.5261 12.2637C13.507 12.1005 13.4588 11.9155 13.3813 11.7123C13.4181 11.674 13.4566 11.6227 13.4883 11.5657C13.5599 11.726 13.6808 12.0285 13.7195 12.316ZM13.5508 11.3388C13.5535 11.3351 13.5578 11.333 13.5598 11.3287C13.5774 11.2921 13.5836 11.2606 13.5849 11.2313C13.7234 11.4129 13.9715 11.8158 14.0662 12.422C14.0037 12.401 13.9397 12.3807 13.8757 12.3615C13.8328 11.9033 13.578 11.403 13.5672 11.3819C13.5635 11.3746 13.5581 11.369 13.5526 11.3635C13.5528 11.3551 13.5515 11.347 13.5508 11.3388ZM14.2292 12.4807C14.1202 11.6309 13.718 11.144 13.6179 11.0345C13.6259 11.033 13.6345 11.0331 13.6425 11.0314C14.2373 11.3483 14.3938 12.2228 14.4328 12.5685C14.3738 12.5387 14.304 12.5094 14.2292 12.4807ZM13.5535 10.8901C13.5519 10.8787 13.5496 10.8676 13.5471 10.8567C13.6727 10.7645 14.1017 10.4401 14.4835 10.0358C14.3038 10.3893 13.9923 10.8305 13.5535 10.8901ZM13.4093 10.9726C13.4092 10.9743 13.4095 10.9753 13.4095 10.9771C13.4095 10.9776 13.4092 10.978 13.4092 10.9786C13.4092 10.9792 13.4095 10.9796 13.4095 10.9801C13.4066 11.0649 13.4184 11.1232 13.4275 11.1654C13.429 11.1724 13.43 11.1775 13.4311 11.1833C13.402 11.1733 13.3768 11.1683 13.3537 11.1655C13.3386 11.1007 13.3135 11.0483 13.2921 11.0145C13.3281 10.9607 13.3413 10.8842 13.3516 10.783C13.3864 10.8303 13.4129 10.8939 13.4093 10.9726ZM13.3009 11.3375C13.3045 11.3295 13.3107 11.3159 13.314 11.3133C13.3139 11.3131 13.3301 11.3061 13.3843 11.3254C13.3985 11.3305 13.4006 11.3358 13.4022 11.3439C13.4158 11.4095 13.3332 11.5553 13.2586 11.6242C13.2093 11.6696 13.1477 11.6908 13.099 11.7008C13.1193 11.64 13.1399 11.545 13.1291 11.4405C13.1667 11.4404 13.2075 11.4329 13.2506 11.4047C13.2789 11.3863 13.2915 11.3581 13.3009 11.3375ZM13.2083 10.7105C13.1899 10.9064 13.1856 10.9423 13.1263 10.9549C13.1262 10.8793 13.1024 10.8097 13.0743 10.7596C13.1212 10.6302 13.1322 10.5183 13.1152 10.4211C13.1371 10.4302 13.1588 10.4419 13.1763 10.4612C13.2102 10.4985 13.2235 10.5552 13.2161 10.6296L13.2083 10.7105ZM9.71641 10.7384C9.96794 10.7038 10.2758 10.8032 10.412 10.8541C10.3849 10.9117 10.3648 10.9757 10.3545 11.0445C10.2247 10.9767 9.91089 10.8529 9.36339 10.8638C9.14275 10.873 9.00175 10.7851 8.91958 10.7004C9.09105 10.7464 9.36114 10.7861 9.71641 10.7384ZM9.66728 11.023C9.80219 11.0341 9.91539 11.0535 10.0075 11.0768C9.8365 11.1421 9.57813 11.2463 9.37689 11.3506C9.44214 11.2464 9.53767 11.1245 9.66728 11.023ZM9.97178 11.7858C9.90991 11.9434 9.81897 12.2093 9.78775 12.4679C9.69995 12.5048 9.60775 12.5459 9.50833 12.5942C9.54602 12.4027 9.62781 12.0634 9.76281 11.8372C9.83945 11.8226 9.90911 11.8054 9.97178 11.7858ZM11.0493 12.9205C10.9473 12.7079 10.9493 12.4709 10.9793 12.2795C11.0811 12.7726 11.3653 13.1603 11.7256 13.2971C11.7117 13.3264 11.699 13.364 11.6922 13.4085C11.3785 13.3131 11.1597 13.151 11.0493 12.9205ZM11.6345 13.6725C11.6492 13.6396 11.6819 13.614 11.7115 13.5961C11.7198 13.6199 11.729 13.644 11.743 13.669C11.764 13.7066 11.7884 13.7373 11.8142 13.7647C11.7978 13.802 11.7596 13.8301 11.7222 13.8303H11.7221C11.6759 13.8303 11.6497 13.7882 11.6359 13.7529C11.6239 13.7224 11.6235 13.6969 11.6345 13.6725ZM12.7961 14.6796C12.7439 14.6242 12.6982 14.5675 12.6598 14.5148C12.7686 14.569 12.9016 14.6293 13.0348 14.6747C12.9645 14.6847 12.8835 14.6888 12.7961 14.6796ZM12.1069 13.8574C12.1391 13.8496 12.1741 13.8354 12.2116 13.8135C12.2841 13.9114 12.3709 14.0095 12.4774 14.0938C12.3456 14.0791 12.1905 14.0228 12.1069 13.8574ZM7.24816 9.01726C7.2565 9.01655 7.27197 9.01805 7.29067 9.0241C7.31655 9.03254 7.34945 9.05082 7.38658 9.09451C7.44311 9.16102 7.5167 9.21516 7.597 9.25904C7.60164 9.26157 7.60586 9.26476 7.61055 9.26724C7.71325 9.32077 7.82772 9.35522 7.94317 9.36029L8.01203 9.3638C8.37817 9.38349 8.78092 9.39483 8.92994 9.28013C9.05252 9.18596 9.23106 8.97376 9.47805 8.68004C9.55891 8.5839 9.64666 8.47974 9.74111 8.3694C9.93869 8.13849 10.3101 7.82002 10.6377 7.53919C10.9757 7.2496 11.1693 7.08151 11.2196 6.99427L11.2313 6.97379C11.3899 6.69685 11.6362 6.3421 11.9455 6.46829C12.28 6.6038 12.2987 6.69568 12.3169 6.78441C12.3199 6.79941 12.323 6.81427 12.3268 6.8289C12.3705 6.99661 12.44 7.20704 12.5205 7.4506C12.7775 8.22854 13.1582 9.38354 12.9925 10.1964C12.8724 10.0936 12.7074 10.0741 12.6343 10.0703C12.5677 9.98607 12.4629 9.90497 12.3365 9.90188C12.2669 9.90132 12.1714 9.92236 12.0876 10.031C12.0076 9.94702 11.9075 9.89912 11.7982 9.89912C11.6991 9.89912 11.5554 9.93662 11.4041 10.1022C11.3907 9.71279 11.3817 8.7459 11.5824 8.0633C11.6414 7.92427 11.6675 7.82593 11.6704 7.81444C11.6802 7.77643 11.659 7.73743 11.6219 7.72477C11.5848 7.71329 11.5445 7.73026 11.529 7.7663C11.4971 7.84079 11.4688 7.92052 11.4436 8.00443C11.334 8.26032 11.1039 8.6679 10.6906 8.87752C9.94066 9.25763 9.43792 9.52637 9.28764 9.78713C9.25848 9.83766 9.22759 9.89851 9.19492 9.96263C9.1067 10.1363 8.98577 10.3743 8.88198 10.4049C8.86427 10.4104 8.8487 10.408 8.83 10.3973C8.74464 10.3482 8.67269 10.2667 8.60308 10.1877C8.50089 10.0717 8.39528 9.9519 8.24153 9.92987L8.21167 9.92555C7.99623 9.89536 7.54788 9.83213 7.45488 9.58351L7.4305 9.5184C7.34059 9.27737 7.3352 9.26293 7.24797 9.16754C7.18417 9.09802 7.19167 9.0721 7.20827 9.04233C7.20962 9.03985 7.21056 9.03746 7.21197 9.03493C7.21614 9.02804 7.22805 9.01922 7.24816 9.01726Z" fill="#464655"/>
</svg>
