<svg width="24" height="24" viewBox="0 0 24 24" fill="none" xmlns="http://www.w3.org/2000/svg">
<path d="M22.2026 19.8621H1.79742C0.804703 19.8621 0 19.0574 0 18.0646V5.93536C0 4.94269 0.804703 4.13794 1.79742 4.13794H22.2026C23.1952 4.13794 24 4.94264 24 5.93536V18.0647C24 19.0574 23.1953 19.8621 22.2026 19.8621Z" fill="#41479B"/>
<path d="M20.6897 4.13794V19.8621L4.96558 4.13794H20.6897Z" fill="#FFE15A"/>
<path d="M9.71954 9.99264L9.95804 10.7077L10.7117 10.7135C10.7701 10.714 10.7943 10.7885 10.7474 10.8232L10.141 11.271L10.3684 11.9896C10.386 12.0452 10.3226 12.0913 10.2751 12.0574L9.66183 11.6191L9.04861 12.0574C9.00113 12.0913 8.93771 12.0453 8.95529 11.9896L9.18268 11.271L8.5763 10.8232C8.52933 10.7885 8.55352 10.714 8.61193 10.7135L9.36563 10.7077L9.60413 9.99264C9.62274 9.93723 9.70107 9.93723 9.71954 9.99264Z" fill="#F5F5F5"/>
<path d="M7.99542 8.26848L8.23391 8.98351L8.98762 8.98937C9.04602 8.98984 9.07021 9.06437 9.02324 9.09901L8.41687 9.54681L8.64426 10.2655C8.66188 10.3211 8.59846 10.3672 8.55093 10.3332L7.93771 9.89491L7.32449 10.3332C7.27701 10.3672 7.21359 10.3211 7.23116 10.2655L7.45856 9.54681L6.85218 9.09901C6.80521 9.06433 6.8294 8.98984 6.88781 8.98937L7.64151 8.98351L7.88001 8.26848C7.89857 8.21308 7.97695 8.21308 7.99542 8.26848Z" fill="#F5F5F5"/>
<path d="M6.27129 6.54436L6.50979 7.25939L7.2635 7.26525C7.3219 7.26572 7.34609 7.34021 7.29912 7.37489L6.69275 7.82269L6.92014 8.54133C6.93776 8.59697 6.87434 8.64305 6.82681 8.60911L6.21359 8.17078L5.60037 8.60911C5.55289 8.6431 5.48947 8.59702 5.50704 8.54133L5.73443 7.82269L5.12806 7.37489C5.08109 7.34021 5.10528 7.26572 5.16368 7.26525L5.91739 7.25939L6.15589 6.54436C6.1744 6.48896 6.25278 6.48896 6.27129 6.54436Z" fill="#F5F5F5"/>
<path d="M4.54717 4.82021L4.78567 5.53524L5.53938 5.5411C5.59778 5.54157 5.62197 5.61605 5.575 5.65074L4.96863 6.09853L5.19602 6.81717C5.21364 6.87282 5.15022 6.91889 5.10269 6.88496L4.48947 6.44663L3.87625 6.88496C3.82877 6.91889 3.76534 6.87286 3.78292 6.81717L4.01031 6.09853L3.40394 5.65074C3.35697 5.61605 3.38116 5.54157 3.43956 5.5411L4.19327 5.53524L4.43177 4.82021C4.45038 4.76485 4.5287 4.76485 4.54717 4.82021Z" fill="#F5F5F5"/>
<path d="M16.6162 16.8891L16.8547 17.6042L17.6084 17.61C17.6668 17.6105 17.691 17.685 17.644 17.7197L17.0376 18.1675L17.265 18.8861C17.2826 18.9418 17.2192 18.9879 17.1717 18.9539L16.5585 18.5156L15.9453 18.9539C15.8978 18.9878 15.8344 18.9418 15.852 18.8861L16.0794 18.1675L15.473 17.7197C15.4261 17.685 15.4502 17.6105 15.5087 17.61L16.2624 17.6042L16.5009 16.8891C16.5194 16.8338 16.5977 16.8338 16.6162 16.8891Z" fill="#F5F5F5"/>
<path d="M14.8921 15.1651L15.1306 15.8801L15.8843 15.8859C15.9427 15.8864 15.9669 15.9609 15.9199 15.9956L15.3135 16.4434L15.5409 17.162C15.5586 17.2177 15.4951 17.2638 15.4477 17.2298L14.8344 16.7915L14.2212 17.2298C14.1737 17.2637 14.1103 17.2177 14.1279 17.162L14.3553 16.4434L13.7489 15.9956C13.7019 15.9609 13.7261 15.8864 13.7845 15.8859L14.5382 15.8801L14.7767 15.1651C14.7953 15.1097 14.8736 15.1097 14.8921 15.1651Z" fill="#F5F5F5"/>
<path d="M13.168 13.4409L13.4065 14.156L14.1602 14.1618C14.2186 14.1623 14.2428 14.2368 14.1958 14.2715L13.5894 14.7193L13.8168 15.4379C13.8344 15.4935 13.771 15.5397 13.7235 15.5057L13.1103 15.0674L12.4971 15.5057C12.4496 15.5396 12.3862 15.4936 12.4038 15.4379L12.6312 14.7193L12.0248 14.2715C11.9778 14.2368 12.002 14.1623 12.0604 14.1618L12.8141 14.156L13.0526 13.4409C13.0711 13.3855 13.1495 13.3855 13.168 13.4409Z" fill="#F5F5F5"/>
<path d="M11.4439 11.7168L11.6824 12.4318L12.4361 12.4377C12.4945 12.4381 12.5187 12.5126 12.4717 12.5473L11.8654 12.9951L12.0927 13.7138C12.1104 13.7694 12.0469 13.8155 11.9994 13.7815L11.3862 13.3432L10.773 13.7815C10.7255 13.8155 10.6621 13.7694 10.6797 13.7138L10.907 12.9951L10.3007 12.5473C10.2537 12.5126 10.2779 12.4381 10.3363 12.4377L11.09 12.4318L11.3285 11.7168C11.3471 11.6614 11.4253 11.6614 11.4439 11.7168Z" fill="#F5F5F5"/>
<path d="M1.96606 4.13794L2.28622 4.37438L2.05883 5.09302C2.04125 5.14866 2.10463 5.19474 2.15216 5.16085L2.76533 4.72252L3.37855 5.16085C3.42603 5.19478 3.48946 5.14875 3.47183 5.09302L3.24449 4.37438L3.56478 4.13794H1.96606Z" fill="#F5F5F5"/>
<path d="M19.3326 19.3342L18.5789 19.3283L18.3405 18.6133C18.322 18.5579 18.2436 18.5579 18.2252 18.6133L17.9867 19.3283L17.233 19.3342C17.1746 19.3347 17.1504 19.4092 17.1974 19.4438L17.7638 19.862H18.8021L19.3685 19.4438C19.4152 19.4091 19.3911 19.3346 19.3326 19.3342Z" fill="#F5F5F5"/>
</svg>
