<svg width="24" height="24" viewBox="0 0 24 24" fill="none" xmlns="http://www.w3.org/2000/svg">
<path d="M1.79742 19.8621H22.2026C23.1952 19.8621 24 19.0574 24 18.0646V15.7241H0V18.0646C0 19.0574 0.804703 19.8621 1.79742 19.8621Z" fill="#73AF00"/>
<path d="M24 5.93536C24 4.94269 23.1953 4.13794 22.2026 4.13794H1.79742C0.804703 4.13794 0 4.94264 0 5.93536V15.7242H24V5.93536Z" fill="#FF4B55"/>
<path d="M1.79742 19.8621H3.31036V4.13794H1.79742C0.804703 4.13794 0 4.94264 0 5.93536V18.0647C0 19.0574 0.804703 19.8621 1.79742 19.8621Z" fill="#F5F5F5"/>
<path d="M2.89642 14.9869H2.75073V15.397H2.89642V14.9869Z" fill="#FF4B55"/>
<path d="M0.56065 6.81937H0.414307V7.22952H0.56065V6.81937Z" fill="#FF4B55"/>
<path d="M0.414062 8.05299H0.487562V8.26102H0.560406V8.46615H0.778844V8.26102H0.852391V8.05299H0.923781V7.77952H0.852391V7.57149H0.778844V7.36942H0.560406V7.57149H0.487562V7.77952H0.414062V8.05299ZM0.560406 7.84791H0.632547V7.71123H0.707547V7.84791H0.778844V7.9846H0.707547V8.12429H0.632547V7.9846H0.560406V7.84791Z" fill="#FF4B55"/>
<path d="M0.56065 8.60297H0.414307V9.01603H0.56065V8.60297Z" fill="#FF4B55"/>
<path d="M1.72842 6.81937H1.58203V7.22952H1.72842V6.81937Z" fill="#FF4B55"/>
<path d="M1.36368 7.36942V7.57149H1.29083V7.77952H1.21729V8.05299H1.29083V8.26102H1.36368V8.46615H1.58211V8.26102H1.7285V8.46615H1.94769V8.26102H2.02199V8.05299H2.09338V7.77952H2.02199V7.57149H1.94769V7.36942H1.7285V7.57149H1.58211V7.36942H1.36368ZM1.72855 7.84791H1.8021V7.71123H1.87564V7.84791H1.94769V7.9846H1.87564V8.12429H1.8021V7.9846H1.72855V7.84791ZM1.58216 7.98465H1.51011V8.12434H1.43577V7.98465H1.36372V7.84796H1.43577V7.71127H1.51011V7.84796H1.58216V7.98465Z" fill="#FF4B55"/>
<path d="M0.56065 13.4091H0.414307V13.6824H0.56065V13.4091Z" fill="#FF4B55"/>
<path d="M0.56065 10.3205H0.414307V10.5938H0.56065V10.3205Z" fill="#FF4B55"/>
<path d="M1.72842 8.60297H1.58203V9.01603H1.72842V8.60297Z" fill="#FF4B55"/>
<path d="M0.56065 14.9869H0.414307V15.397H0.56065V14.9869Z" fill="#FF4B55"/>
<path d="M0.560406 12.0029V12V11.795H0.414062V12V12.0029V12.208H0.560406V12.0029Z" fill="#FF4B55"/>
<path d="M0.56065 18.7645H0.414307V19.1747H0.56065V18.7645Z" fill="#FF4B55"/>
<path d="M2.89642 18.7645H2.75073V19.1747H2.89642V18.7645Z" fill="#FF4B55"/>
<path d="M0.56065 16.7733H0.414307V17.1834H0.56065V16.7733Z" fill="#FF4B55"/>
<path d="M1.72842 18.7645H1.58203V19.1747H1.72842V18.7645Z" fill="#FF4B55"/>
<path d="M2.52938 7.36646V7.57149H2.45734V7.77952H2.38379V8.05299H2.45734V8.25802H2.52938V8.46314H2.74937V8.25802H2.82221V8.05299H2.89426V7.77952H2.82221V7.57149H2.74937V7.36646H2.52938ZM2.74937 7.98464H2.67582V8.12128H2.60223V7.98464H2.52938V7.84495H2.60223V7.71117H2.67577V7.84495H2.74932L2.74937 7.98464Z" fill="#FF4B55"/>
<path d="M2.89642 4.82812H2.75073V5.23828H2.89642V4.82812Z" fill="#FF4B55"/>
<path d="M0.56065 4.82812H0.414307V5.23828H0.56065V4.82812Z" fill="#FF4B55"/>
<path d="M2.89642 8.60297H2.75073V9.01603H2.89642V8.60297Z" fill="#FF4B55"/>
<path d="M2.89642 6.81937H2.75073V7.22952H2.89642V6.81937Z" fill="#FF4B55"/>
<path d="M1.72842 4.82812H1.58203V5.23828H1.72842V4.82812Z" fill="#FF4B55"/>
<path d="M1.14367 17.7337H0.998779V18.0755H1.14367V17.7337Z" fill="#FF4B55"/>
<path d="M1.36368 12.0029V12V11.795H1.21729V12V12.0029V12.208H1.36368V12.0029Z" fill="#FF4B55"/>
<path d="M2.16756 4.5517V4.89656H2.02192V5.23837H1.87558V5.58309H1.72844V5.9249H1.58205V5.58309H1.43566V5.23837H1.29077V4.89656H1.14517V4.5517H0.998781V4.89656H0.852391V5.23837H0.7075V5.58309H0.560359V5.9249H0.414062V6.26976H0.560406V6.61157H0.707547V6.95629H0.852437V7.30101H0.998828V7.64282H1.14372V7.30101H1.29086V6.95629H1.43575V6.61157H1.58214V6.26976H1.72853V6.61157H1.87567V6.95629H2.02056V7.30101H2.16766V7.64282H2.31334V7.30101H2.45894V6.95629H2.60528V6.61157H2.75088V6.26976H2.89656V5.9249H2.75163V5.58309H2.60523V5.23837H2.45889V4.89656H2.3133V4.5517H2.16756ZM1.43566 6.26967H1.29077V6.61148H1.14363V6.9562H0.998781V6.61148H0.852391V6.26967H0.7075V5.92481H0.852391V5.58299H0.998781V5.23828H1.14367V5.58299H1.29081V5.92481H1.4357L1.43566 6.26967ZM2.45894 5.58309V5.9249H2.60528V6.26976H2.45894V6.61157H2.31334V6.95629H2.16766V6.61157H2.02202V6.26976H1.87567V5.9249H2.02202V5.58309H2.16766V5.23837H2.31334V5.58309H2.45894Z" fill="#FF4B55"/>
<path d="M1.72842 11.2805H1.58203V11.6223H1.72842V11.2805Z" fill="#FF4B55"/>
<path d="M1.72842 12.3802H1.58203V12.722H1.72842V12.3802Z" fill="#FF4B55"/>
<path d="M1.94775 12V12.0029V12.208H2.09339V12.0029V12V11.795H1.94775V12Z" fill="#FF4B55"/>
<path d="M2.02197 18.7646V19.1064H2.16761V19.4483H2.3133V19.1064H2.45889V18.7646H2.60523V18.4199H2.75163V18.0752H2.89656V17.7334H2.75088V17.3885H2.60528V17.0467H2.45894V16.702H2.31334V16.3602H2.16766V16.702H2.02056V17.0467H1.87567V17.3885H1.72853V17.7334H1.58214V17.3885H1.43575V17.0467H1.29086V16.702H1.14372V16.3602H0.998828V16.702H0.852437V17.0467H0.707547V17.3885H0.560406V17.7334H0.414062V18.0752H0.560406V18.4199H0.707547V18.7646H0.852437V19.1064H0.998828V19.4483H1.14522V19.1064H1.29086V18.7646H1.43575V18.4199H1.58214V18.0752H1.72853V18.4199H1.87567V18.7646H2.02197ZM1.43566 18.0751H1.29077V18.4199H1.14363V18.7646H0.998781V18.4199H0.852391V18.0751H0.7075V17.7333H0.852391V17.3885H0.998781V17.0467H1.14367V17.3885H1.29081V17.7333H1.4357L1.43566 18.0751ZM1.87563 17.7334H2.02197V17.3885H2.16761V17.0467H2.3133V17.3885H2.45889V17.7334H2.60523V18.0752H2.45889V18.4199H2.3133V18.7646H2.16761V18.4199H2.02197V18.0752H1.87563C1.87563 18.0751 1.87563 17.7334 1.87563 17.7334Z" fill="#FF4B55"/>
<path d="M1.80195 11.6909H1.7284V11.795H1.58201V11.6909H1.50996V11.5542H1.36353V11.7593H1.43557V11.8633H1.50996V12V12.0029V12.1367H1.43557V12.2407H1.36353V12.4458H1.50996V12.3091H1.58201V12.208H1.7284V12.3091H1.80195V12.4458H1.94759V12.2407H1.87554V12.1367H1.80195V12.0029V12V11.8633H1.87554V11.7593H1.94759V11.5542H1.80195V11.6909Z" fill="#FF4B55"/>
<path d="M2.31317 5.92499H2.16748V6.26985H2.31317V5.92499Z" fill="#FF4B55"/>
<path d="M2.31317 17.7337H2.16748V18.0755H2.31317V17.7337Z" fill="#FF4B55"/>
<path d="M0.778844 16.6336V16.4286H0.852391V16.2235H0.923781V15.9471H0.852391V15.7421H0.778844V15.537H0.560406V15.7421H0.487562V15.9471H0.414062V16.2235H0.487562V16.4286H0.560406V16.6336H0.778844ZM0.560406 16.0154H0.633953V15.8787H0.7075V16.0154H0.778797V16.1551H0.7075V16.2917H0.633953V16.1551H0.560406V16.0154Z" fill="#FF4B55"/>
<path d="M1.14367 5.92499H0.998779V6.26985H1.14367V5.92499Z" fill="#FF4B55"/>
<path d="M2.89642 16.7733H2.75073V17.1834H2.89642V16.7733Z" fill="#FF4B55"/>
<path d="M1.94769 16.6336V16.4286H2.02199V16.2235H2.09338V15.9471H2.02199V15.7421H1.94769V15.537H1.7285V15.7421H1.58211V15.537H1.36368V15.7421H1.29083V15.9471H1.21729V16.2235H1.29083V16.4286H1.36368V16.6336H1.58211V16.4286H1.7285V16.6336H1.94769ZM1.58211 16.1551H1.51007V16.2917H1.43572V16.1551H1.36368V16.0154H1.43572V15.8787H1.51007V16.0154H1.58211V16.1551ZM1.7285 16.0154H1.80205V15.8787H1.8756V16.0154H1.94764V16.1551H1.8756V16.2917H1.80205V16.1551H1.7285V16.0154Z" fill="#FF4B55"/>
<path d="M1.72842 16.7733H1.58203V17.1834H1.72842V16.7733Z" fill="#FF4B55"/>
<path d="M1.72842 14.9869H1.58203V15.397H1.72842V14.9869Z" fill="#FF4B55"/>
<path d="M2.89642 13.4091H2.75073V13.6824H2.89642V13.4091Z" fill="#FF4B55"/>
<path d="M2.74937 16.6336V16.4286H2.82221V16.2235H2.89426V15.9501H2.82221V15.742H2.74937V15.5399H2.52938V15.742H2.45734V15.9501H2.38379V16.2235H2.45734V16.4286H2.52938V16.6336H2.74937ZM2.52938 16.0184H2.60223V15.8817H2.67577V16.0184H2.74932V16.155H2.67577V16.2947H2.60223V16.155H2.52938V16.0184Z" fill="#FF4B55"/>
<path d="M2.75098 12V12.0029V12.208H2.89666V12.0029V12V11.795H2.75098V12Z" fill="#FF4B55"/>
<path d="M2.89642 10.3205H2.75073V10.5938H2.89642V10.3205Z" fill="#FF4B55"/>
<path d="M2.89656 9.56286H2.75087V9.22104H2.60528V8.87618H2.45894V8.53437H2.31334V8.18965H2.16766V8.53437H2.02056V8.87618H1.87567V9.22104H1.72853V9.49442V9.56281H1.58214V9.221H1.43575V8.87614H1.29086V8.53432H1.14372V8.18961H0.998828V8.53432H0.852437V8.87614H0.706047V9.221H0.560406V9.49437V9.56276H0.414062V9.90748H0.560406V10.2522H0.706047V10.594H0.852437V10.9359H0.998828V10.594H1.14372V10.2522H1.29086V9.90748H1.14372V9.49432H1.29086V9.56272V9.77075H1.43575V10.3206H1.51009V10.6594L1.29091 10.6624V10.9359H1.14377V11.1409H0.998875V11.4856H0.852484V11.1409H0.706094V10.9359H0.560453V10.7307H0.414062V11.3489H0.560406V11.6254H0.706047V11.8632H0.852437V12V12.0029V12.1367H0.706047V12.3804H0.560406V12.6539H0.414062V13.2721H0.560406V13.064H0.706047V12.859H0.852437V12.5172H0.998828V12.859H1.14372V13.064H1.29086V13.3404L1.51005 13.3434V13.6822H1.4357V14.2321H1.29081V14.4371V14.5085H1.14367V14.0924H1.29081V13.7506H1.14367V13.4088H0.998781V13.0639H0.852391V13.4088H0.706V13.7506H0.560359V14.0924H0.414062V14.4371H0.560406V14.5085V14.7789H0.707547V15.1238H0.852437V15.4685H0.998828V15.8103H1.14372V15.4685H1.29086V15.1238H1.43575V14.7789H1.58214V14.4371H1.72853V14.5085V14.7789H1.87567V15.1238H2.02202V15.4685H2.16766V15.8103H2.31334V15.4685H2.45894V15.1238H2.60528V14.7789H2.75087V14.4371H2.89656V14.0924H2.75087V13.7506H2.60528V13.4088H2.45894V13.0639H2.31334V13.4088H2.16766V13.7506H2.02056V14.0924H2.16766V14.4371V14.5085H2.02056V14.4371V14.2321H1.87567V13.6822H1.85481H1.80212V13.3404H1.85481H1.89423H1.94772H2.02202V13.0639H2.16766V12.8589H2.31334V12.5171H2.45894V12.8589H2.60528V13.0639H2.75167V13.272H2.89661V12.6538H2.75167V12.3804H2.60528V12.1367H2.45894V12.0029V12V11.8633H2.60528V11.6255H2.75167V11.3491H2.89661V10.7309H2.75167V10.936H2.60528V11.141H2.45894V11.4858H2.31334V11.141H2.16766V10.936H2.02202V10.6625H1.94767H1.89419H1.85477H1.80208V10.3207H1.85477H1.87563V9.77084H2.02052V9.56281V9.49442H2.16761V9.56281V9.90753H2.02052V10.2522H2.16761V10.5941H2.3133V10.9359H2.45889V10.5941H2.60523V10.2522H2.75083V9.90753H2.89652L2.89656 9.56286ZM2.02197 11.349V11.4857V11.6254H2.16761V11.8632H2.3133V12V12.1367H2.16761V12.3804H2.02197V12.5171V12.6537H1.80208V12.9777H1.72853V13.1323H1.65573H1.58214V12.9777H1.51009V12.6537H1.29091V12.3803H1.14377V12.1366H0.998828V12.0057V11.9968V11.8631H1.14372V11.6253H1.29086V11.3488H1.51005V11.0249H1.58209V10.8673H1.65569H1.72848V11.0219H1.80203V11.3488H2.02197V11.349Z" fill="#FF4B55"/>
</svg>
