<svg width="24" height="24" viewBox="0 0 24 24" fill="none" xmlns="http://www.w3.org/2000/svg">
<path d="M22.2025 4.13794H1.79742C0.804702 4.13794 0 4.94269 0 5.93536V9.3793H24V5.93536C24 4.94269 23.1953 4.13794 22.2025 4.13794Z" fill="#73AF00"/>
<path d="M0 18.0646C0 19.0573 0.804702 19.8621 1.79742 19.8621H22.2025C23.1952 19.8621 24 19.0574 24 18.0646V14.6207H0V18.0646Z" fill="#FF4B55"/>
<path d="M24 9.37915H0V14.6202H24V9.37915Z" fill="#F5F5F5"/>
<path d="M0.0650624 9.10199H0.0687186C0.104672 9.10199 0.133828 9.07288 0.133828 9.03693V8.89593C0.133828 8.85998 0.162937 8.83087 0.198937 8.83087H0.472077C0.50803 8.83087 0.537187 8.85998 0.537187 8.89593V9.03693C0.537187 9.07288 0.566296 9.10199 0.602296 9.10199H1.14145C1.1774 9.10199 1.20651 9.07288 1.20651 9.03693V8.75854C1.20651 8.72259 1.1774 8.69348 1.14145 8.69348H0.870045C0.834092 8.69348 0.804983 8.72259 0.804983 8.75854V8.76571C0.804983 8.80166 0.834092 8.83077 0.870045 8.83077H1.00762C1.04358 8.83077 1.07273 8.85988 1.07273 8.89584V8.90291C1.07273 8.93887 1.04362 8.96798 1.00762 8.96798H0.736124C0.700171 8.96798 0.671014 8.93887 0.671014 8.90291V8.75849C0.671014 8.72254 0.641858 8.69343 0.605905 8.69343H0.0650624C0.0291093 8.69343 0 8.72254 0 8.75849V9.03688C0 9.07279 0.0291093 9.10199 0.0650624 9.10199ZM0.334546 9.10199H0.338249C0.374202 9.10199 0.403312 9.07288 0.403312 9.03693V9.03323C0.403312 8.99727 0.374202 8.96816 0.338249 8.96816H0.334546C0.298593 8.96816 0.269437 8.99732 0.269437 9.03323V9.03693C0.269437 9.07279 0.298593 9.10199 0.334546 9.10199ZM0.0650624 8.55613H1.67864C1.71459 8.55613 1.74375 8.52703 1.74375 8.49107V8.48395C1.74375 8.44799 1.71464 8.41888 1.67864 8.41888H0.0650624C0.0291093 8.41888 0 8.44799 0 8.48395V8.49107C0 8.52703 0.0291093 8.55613 0.0650624 8.55613ZM1.67864 9.10199H1.40723C1.37128 9.10199 1.34212 9.07288 1.34212 9.03693V8.75854C1.34212 8.72259 1.37123 8.69348 1.40723 8.69348H1.81256C1.84851 8.69348 1.87767 8.66432 1.87767 8.62842V8.48399C1.87767 8.44804 1.90678 8.41893 1.94273 8.41893H1.94634C1.98229 8.41893 2.01145 8.44804 2.01145 8.48399V8.90306C2.01145 8.93901 2.04056 8.96812 2.07651 8.96812H2.08021C2.11617 8.96812 2.14528 8.93901 2.14528 8.90306V8.48399C2.14528 8.44804 2.17439 8.41893 2.21034 8.41893H2.21395C2.2499 8.41893 2.27906 8.44804 2.27906 8.48399V8.90306C2.27906 8.93901 2.30817 8.96812 2.34412 8.96812H2.34951C2.38546 8.96812 2.41462 8.93901 2.41462 8.90306V8.48399C2.41462 8.44804 2.44373 8.41893 2.47968 8.41893H2.48165C2.5176 8.41893 2.54671 8.44804 2.54671 8.48399V9.03698C2.54671 9.07293 2.5176 9.10204 2.48165 9.10204H1.94282C1.90687 9.10204 1.87776 9.07293 1.87776 9.03698V8.89598C1.87776 8.86002 1.84865 8.83092 1.81265 8.83092H1.54125C1.50529 8.83092 1.47614 8.86002 1.47614 8.89598V8.90306C1.47614 8.93901 1.50525 8.96812 1.54125 8.96812H1.67873C1.71468 8.96812 1.74384 8.99727 1.74384 9.03318V9.03688C1.74379 9.07279 1.71459 9.10199 1.67864 9.10199Z" fill="#F5F5F5"/>
<path d="M2.74768 9.10199H2.75307C2.78902 9.10199 2.81818 9.07288 2.81818 9.03693V8.89593C2.81818 8.85998 2.84729 8.83087 2.88324 8.83087H3.15296C3.18891 8.83087 3.21807 8.85998 3.21807 8.89593V9.03693C3.21807 9.07288 3.24718 9.10199 3.28313 9.10199H3.82229C3.85824 9.10199 3.88735 9.07288 3.88735 9.03693V8.75854C3.88735 8.72259 3.85824 8.69348 3.82229 8.69348H3.55088C3.51493 8.69348 3.48577 8.72259 3.48577 8.75854V8.76571C3.48577 8.80166 3.51488 8.83077 3.55088 8.83077H3.68846C3.72441 8.83077 3.75352 8.85988 3.75352 8.89584V8.90291C3.75352 8.93887 3.72441 8.96798 3.68846 8.96798H3.41696C3.38101 8.96798 3.3519 8.93887 3.3519 8.90291V8.75849C3.3519 8.72254 3.32279 8.69343 3.28683 8.69343H2.74768C2.71173 8.69343 2.68262 8.72254 2.68262 8.75849V9.03688C2.68262 9.07279 2.71177 9.10199 2.74768 9.10199ZM3.01548 9.10199H3.01913C3.05509 9.10199 3.08419 9.07288 3.08419 9.03693V9.03323C3.08419 8.99727 3.05509 8.96816 3.01913 8.96816H3.01548C2.97952 8.96816 2.95041 8.99732 2.95041 9.03323V9.03693C2.95041 9.07279 2.97952 9.10199 3.01548 9.10199ZM2.74768 8.55613H4.35957C4.39552 8.55613 4.42468 8.52703 4.42468 8.49107V8.48395C4.42468 8.44799 4.39557 8.41888 4.35957 8.41888H2.74768C2.71173 8.41888 2.68262 8.44799 2.68262 8.48395V8.49107C2.68262 8.52703 2.71177 8.55613 2.74768 8.55613ZM4.35961 9.10199H4.08647C4.05052 9.10199 4.02136 9.07288 4.02136 9.03693V8.75854C4.02136 8.72259 4.05047 8.69348 4.08647 8.69348H4.49185C4.5278 8.69348 4.55691 8.66432 4.55691 8.62842V8.48399C4.55691 8.44804 4.58602 8.41893 4.62202 8.41893H4.62741C4.66336 8.41893 4.69247 8.44804 4.69247 8.48399V8.90306C4.69247 8.93901 4.72158 8.96812 4.75758 8.96812H4.76297C4.79893 8.96812 4.82808 8.93901 4.82808 8.90306V8.48399C4.82808 8.44804 4.85719 8.41893 4.89319 8.41893H4.89516C4.93111 8.41893 4.96022 8.44804 4.96022 8.48399V8.90306C4.96022 8.93901 4.98933 8.96812 5.02533 8.96812H5.03072C5.06668 8.96812 5.09583 8.93901 5.09583 8.90306V8.48399C5.09583 8.44804 5.12494 8.41893 5.16089 8.41893H5.16455C5.2005 8.41893 5.22961 8.44804 5.22961 8.48399V9.03698C5.22961 9.07293 5.2005 9.10204 5.16455 9.10204H4.62202C4.58607 9.10204 4.55691 9.07293 4.55691 9.03698V8.89598C4.55691 8.86002 4.5278 8.83092 4.49185 8.83092H4.22213C4.18618 8.83092 4.15707 8.86002 4.15707 8.89598V8.90306C4.15707 8.93901 4.18618 8.96812 4.22213 8.96812H4.35971C4.39566 8.96812 4.42482 8.99727 4.42482 9.03318V9.03688C4.42468 9.07279 4.39557 9.10199 4.35961 9.10199Z" fill="#F5F5F5"/>
<path d="M5.42883 9.10199H5.43244C5.46839 9.10199 5.4975 9.07288 5.4975 9.03693V8.89593C5.4975 8.85998 5.52661 8.83087 5.56257 8.83087H5.83407C5.87002 8.83087 5.89913 8.85998 5.89913 8.89593V9.03693C5.89913 9.07288 5.92828 9.10199 5.96424 9.10199H6.50508C6.54103 9.10199 6.57019 9.07288 6.57019 9.03693V8.75854C6.57019 8.72259 6.54108 8.69348 6.50508 8.69348H6.23367C6.19772 8.69348 6.16857 8.72259 6.16857 8.75854V8.76571C6.16857 8.80166 6.19767 8.83077 6.23367 8.83077H6.37125C6.40721 8.83077 6.43636 8.85988 6.43636 8.89584V8.90291C6.43636 8.93887 6.40725 8.96798 6.37125 8.96798H6.09811C6.06216 8.96798 6.03305 8.93887 6.03305 8.90291V8.75849C6.03305 8.72254 6.00394 8.69343 5.96799 8.69343H5.42883C5.39288 8.69343 5.36377 8.72254 5.36377 8.75849V9.03688C5.36368 9.07279 5.39288 9.10199 5.42883 9.10199ZM5.69658 9.10199H5.70024C5.73619 9.10199 5.7653 9.07288 5.7653 9.03693V9.03323C5.7653 8.99727 5.73619 8.96816 5.70024 8.96816H5.69658C5.66063 8.96816 5.63152 8.99732 5.63152 9.03323V9.03693C5.63147 9.07279 5.66063 9.10199 5.69658 9.10199ZM5.42883 8.55613H7.04245C7.07841 8.55613 7.10756 8.52703 7.10756 8.49107V8.48395C7.10756 8.44799 7.07845 8.41888 7.04245 8.41888H5.42883C5.39288 8.41888 5.36377 8.44799 5.36377 8.48395V8.49107C5.36368 8.52703 5.39288 8.55613 5.42883 8.55613ZM7.04245 9.10199H6.76931C6.73336 9.10199 6.7042 9.07288 6.7042 9.03693V8.75854C6.7042 8.72259 6.73331 8.69348 6.76931 8.69348H7.17459C7.21055 8.69348 7.23966 8.66432 7.23966 8.62842V8.48399C7.23966 8.44804 7.26881 8.41893 7.30477 8.41893H7.30847C7.34442 8.41893 7.37353 8.44804 7.37353 8.48399V8.90306C7.37353 8.93901 7.40269 8.96812 7.43864 8.96812H7.44403C7.47998 8.96812 7.50914 8.93901 7.50914 8.90306V8.48399C7.50914 8.44804 7.53825 8.41893 7.5742 8.41893H7.57964C7.61559 8.41893 7.6447 8.44804 7.6447 8.48399V8.90306C7.6447 8.93901 7.67386 8.96812 7.70976 8.96812H7.71173C7.74769 8.96812 7.77684 8.93901 7.77684 8.90306V8.48399C7.77684 8.44804 7.80595 8.41893 7.84191 8.41893H7.84556C7.88151 8.41893 7.91062 8.44804 7.91062 8.48399V9.03698C7.91062 9.07293 7.88147 9.10204 7.84556 9.10204H7.30462C7.26867 9.10204 7.23952 9.07293 7.23952 9.03698V8.89598C7.23952 8.86002 7.21041 8.83092 7.17445 8.83092H6.90305C6.8671 8.83092 6.83794 8.86002 6.83794 8.89598V8.90306C6.83794 8.93901 6.86705 8.96812 6.90305 8.96812H7.04241C7.07836 8.96812 7.10752 8.99727 7.10752 9.03318V9.03688C7.10756 9.07279 7.07841 9.10199 7.04245 9.10199Z" fill="#F5F5F5"/>
<path d="M8.10979 9.10199H8.1134C8.14935 9.10199 8.17846 9.07288 8.17846 9.03693V8.89593C8.17846 8.85998 8.20762 8.83087 8.24352 8.83087H8.51493C8.55088 8.83087 8.58004 8.85998 8.58004 8.89593V9.03693C8.58004 9.07288 8.60915 9.10199 8.64515 9.10199H9.18608C9.22204 9.10199 9.25114 9.07288 9.25114 9.03693V8.75854C9.25114 8.72259 9.22204 8.69348 9.18608 8.69348H8.91294C8.87699 8.69348 8.84783 8.72259 8.84783 8.75854V8.76571C8.84783 8.80166 8.87699 8.83077 8.91294 8.83077H9.05052C9.08647 8.83077 9.11558 8.85988 9.11558 8.89584V8.90291C9.11558 8.93887 9.08647 8.96798 9.05052 8.96798H8.77911C8.74316 8.96798 8.71405 8.93887 8.71405 8.90291V8.75849C8.71405 8.72254 8.6849 8.69343 8.64894 8.69343H8.10979C8.07383 8.69343 8.04468 8.72254 8.04468 8.75849V9.03688C8.04472 9.07279 8.07388 9.10199 8.10979 9.10199ZM8.37758 9.10199H8.38119C8.41715 9.10199 8.44626 9.07288 8.44626 9.03693V9.03323C8.44626 8.99727 8.41715 8.96816 8.38119 8.96816H8.37758C8.34163 8.96816 8.31247 8.99732 8.31247 9.03323V9.03693C8.31247 9.07279 8.34163 9.10199 8.37758 9.10199ZM8.10979 8.55613H9.72167C9.75763 8.55613 9.78674 8.52703 9.78674 8.49107V8.48395C9.78674 8.44799 9.75763 8.41888 9.72167 8.41888H8.10979C8.07383 8.41888 8.04468 8.44799 8.04468 8.48395V8.49107C8.04472 8.52703 8.07388 8.55613 8.10979 8.55613ZM9.72172 9.10199H9.44858C9.41263 9.10199 9.38352 9.07288 9.38352 9.03693V8.75854C9.38352 8.72259 9.41263 8.69348 9.44858 8.69348H9.85738C9.89333 8.69348 9.92249 8.66432 9.92249 8.62842V8.48399C9.92249 8.44804 9.9516 8.41893 9.98755 8.41893H9.99121C10.0272 8.41893 10.0563 8.44804 10.0563 8.48399V8.90306C10.0563 8.93901 10.0854 8.96812 10.1213 8.96812H10.1233C10.1593 8.96812 10.1884 8.93901 10.1884 8.90306V8.48399C10.1884 8.44804 10.2175 8.41893 10.2535 8.41893H10.2589C10.2949 8.41893 10.324 8.44804 10.324 8.48399V8.90306C10.324 8.93901 10.3531 8.96812 10.389 8.96812H10.3927C10.4287 8.96812 10.4578 8.93901 10.4578 8.90306V8.48399C10.4578 8.44804 10.487 8.41893 10.5229 8.41893H10.5265C10.5625 8.41893 10.5916 8.44804 10.5916 8.48399V9.03698C10.5916 9.07293 10.5625 9.10204 10.5265 9.10204H9.98741C9.95146 9.10204 9.92235 9.07293 9.92235 9.03698V8.89598C9.92235 8.86002 9.89324 8.83092 9.85724 8.83092H9.5841C9.54814 8.83092 9.51899 8.86002 9.51899 8.89598V8.90306C9.51899 8.93901 9.54814 8.96812 9.5841 8.96812H9.72167C9.75763 8.96812 9.78674 8.99727 9.78674 9.03318V9.03688C9.78678 9.07279 9.75767 9.10199 9.72172 9.10199Z" fill="#F5F5F5"/>
<path d="M10.7905 9.10199H10.7942C10.8302 9.10199 10.8593 9.07288 10.8593 9.03693V8.89593C10.8593 8.85998 10.8884 8.83087 10.9244 8.83087H11.1958C11.2317 8.83087 11.2608 8.85998 11.2608 8.89593V9.03693C11.2608 9.07288 11.29 9.10199 11.3259 9.10199H11.8669C11.9028 9.10199 11.9319 9.07288 11.9319 9.03693V8.75854C11.9319 8.72259 11.9028 8.69348 11.8669 8.69348H11.5937C11.5578 8.69348 11.5286 8.72259 11.5286 8.75854V8.76571C11.5286 8.80166 11.5578 8.83077 11.5937 8.83077H11.733C11.7689 8.83077 11.798 8.85988 11.798 8.89584V8.90291C11.798 8.93887 11.7689 8.96798 11.733 8.96798H11.4616C11.4256 8.96798 11.3965 8.93887 11.3965 8.90291V8.75849C11.3965 8.72254 11.3674 8.69343 11.3314 8.69343H10.7905C10.7545 8.69343 10.7253 8.72254 10.7253 8.75849V9.03688C10.7255 9.07279 10.7546 9.10199 10.7905 9.10199ZM11.0601 9.10199H11.062C11.098 9.10199 11.1272 9.07288 11.1272 9.03693V9.03323C11.1272 8.99727 11.098 8.96816 11.062 8.96816H11.0601C11.0241 8.96816 10.995 8.99732 10.995 9.03323V9.03693C10.995 9.07279 11.0241 9.10199 11.0601 9.10199ZM10.7905 8.55613H12.4042C12.4402 8.55613 12.4693 8.52703 12.4693 8.49107V8.48395C12.4693 8.44799 12.4401 8.41888 12.4042 8.41888H10.7905C10.7546 8.41888 10.7254 8.44799 10.7254 8.48395V8.49107C10.7255 8.52703 10.7546 8.55613 10.7905 8.55613ZM12.4043 9.10199H12.1311C12.0952 9.10199 12.0661 9.07288 12.0661 9.03693V8.75854C12.0661 8.72259 12.0952 8.69348 12.1311 8.69348H12.5382C12.5741 8.69348 12.6032 8.66432 12.6032 8.62842V8.48399C12.6032 8.44804 12.6324 8.41893 12.6684 8.41893H12.672C12.7079 8.41893 12.737 8.44804 12.737 8.48399V8.90306C12.737 8.93901 12.7662 8.96812 12.8021 8.96812H12.8058C12.8417 8.96812 12.8709 8.93901 12.8709 8.90306V8.48399C12.8709 8.44804 12.9 8.41893 12.936 8.41893H12.9396C12.9755 8.41893 13.0046 8.44804 13.0046 8.48399V8.90306C13.0046 8.93901 13.0338 8.96812 13.0697 8.96812H13.0733C13.1093 8.96812 13.1384 8.93901 13.1384 8.90306V8.48399C13.1384 8.44804 13.1675 8.41893 13.2035 8.41893H13.2072C13.2431 8.41893 13.2723 8.44804 13.2723 8.48399V9.03698C13.2723 9.07293 13.2431 9.10204 13.2072 9.10204H12.668C12.6321 9.10204 12.6029 9.07293 12.6029 9.03698V8.89598C12.6029 8.86002 12.5738 8.83092 12.5379 8.83092H12.2647C12.2288 8.83092 12.1996 8.86002 12.1996 8.89598V8.90306C12.1996 8.93901 12.2288 8.96812 12.2647 8.96812H12.4039C12.4399 8.96812 12.469 8.99727 12.469 9.03318V9.03688C12.4693 9.07279 12.4402 9.10199 12.4043 9.10199Z" fill="#F5F5F5"/>
<path d="M13.4716 9.10199H13.4753C13.5113 9.10199 13.5404 9.07288 13.5404 9.03693V8.89593C13.5404 8.85998 13.5695 8.83087 13.6055 8.83087H13.8769C13.9129 8.83087 13.942 8.85998 13.942 8.89593V9.03693C13.942 9.07288 13.9712 9.10199 14.0071 9.10199H14.548C14.584 9.10199 14.6131 9.07288 14.6131 9.03693V8.75854C14.6131 8.72259 14.584 8.69348 14.548 8.69348H14.2765C14.2406 8.69348 14.2115 8.72259 14.2115 8.75854V8.76571C14.2115 8.80166 14.2406 8.83077 14.2765 8.83077H14.4125C14.4484 8.83077 14.4776 8.85988 14.4776 8.89584V8.90291C14.4776 8.93887 14.4484 8.96798 14.4125 8.96798H14.1428C14.1068 8.96798 14.0776 8.93887 14.0776 8.90291V8.75849C14.0776 8.72254 14.0485 8.69343 14.0126 8.69343H13.4716C13.4357 8.69343 13.4065 8.72254 13.4065 8.75849V9.03688C13.4065 9.07279 13.4356 9.10199 13.4716 9.10199ZM13.7411 9.10199H13.7431C13.779 9.10199 13.8082 9.07288 13.8082 9.03693V9.03323C13.8082 8.99727 13.779 8.96816 13.7431 8.96816H13.7411C13.7051 8.96816 13.676 8.99732 13.676 9.03323V9.03693C13.676 9.07279 13.7051 9.10199 13.7411 9.10199ZM13.4716 8.55613H15.0853C15.1212 8.55613 15.1503 8.52703 15.1503 8.49107V8.48395C15.1503 8.44799 15.1212 8.41888 15.0853 8.41888H13.4716C13.4356 8.41888 13.4065 8.44799 13.4065 8.48395V8.49107C13.4065 8.52703 13.4356 8.55613 13.4716 8.55613ZM15.0853 9.10199H14.8139C14.7779 9.10199 14.7488 9.07288 14.7488 9.03693V8.75854C14.7488 8.72259 14.7779 8.69348 14.8139 8.69348H15.2191C15.2551 8.69348 15.2842 8.66432 15.2842 8.62842V8.48399C15.2842 8.44804 15.3134 8.41893 15.3493 8.41893H15.353C15.389 8.41893 15.4181 8.44804 15.4181 8.48399V8.90306C15.4181 8.93901 15.4472 8.96812 15.4832 8.96812H15.4868C15.5228 8.96812 15.5519 8.93901 15.5519 8.90306V8.48399C15.5519 8.44804 15.581 8.41893 15.617 8.41893H15.6207C15.6567 8.41893 15.6858 8.44804 15.6858 8.48399V8.90306C15.6858 8.93901 15.7149 8.96812 15.7509 8.96812H15.7546C15.7905 8.96812 15.8196 8.93901 15.8196 8.90306V8.48399C15.8196 8.44804 15.8488 8.41893 15.8847 8.41893H15.8884C15.9244 8.41893 15.9535 8.44804 15.9535 8.48399V9.03698C15.9535 9.07293 15.9244 9.10204 15.8884 9.10204H15.3491C15.3132 9.10204 15.284 9.07293 15.284 9.03698V8.89598C15.284 8.86002 15.2549 8.83092 15.219 8.83092H14.9459C14.9099 8.83092 14.8808 8.86002 14.8808 8.89598V8.90306C14.8808 8.93901 14.9099 8.96812 14.9459 8.96812H15.0851C15.121 8.96812 15.1501 8.99727 15.1501 9.03318V9.03688C15.1504 9.07279 15.1212 9.10199 15.0853 9.10199Z" fill="#F5F5F5"/>
<path d="M16.1525 9.10199H16.1562C16.1922 9.10199 16.2213 9.07288 16.2213 9.03693V8.89593C16.2213 8.85998 16.2504 8.83087 16.2864 8.83087H16.5595C16.5954 8.83087 16.6246 8.85998 16.6246 8.89593V9.03693C16.6246 9.07288 16.6537 9.10199 16.6897 9.10199H17.2289C17.2649 9.10199 17.294 9.07288 17.294 9.03693V8.75854C17.294 8.72259 17.2649 8.69348 17.2289 8.69348H16.9574C16.9215 8.69348 16.8923 8.72259 16.8923 8.75854V8.76571C16.8923 8.80166 16.9214 8.83077 16.9574 8.83077H17.0968C17.1328 8.83077 17.1619 8.85988 17.1619 8.89584V8.90291C17.1619 8.93887 17.1328 8.96798 17.0968 8.96798H16.8219C16.7859 8.96798 16.7568 8.93887 16.7568 8.90291V8.75849C16.7568 8.72254 16.7277 8.69343 16.6917 8.69343H16.1526C16.1166 8.69343 16.0874 8.72254 16.0874 8.75849V9.03688C16.0874 9.07279 16.1166 9.10199 16.1525 9.10199ZM16.4203 9.10199H16.4257C16.4617 9.10199 16.4908 9.07288 16.4908 9.03693V9.03323C16.4908 8.99727 16.4617 8.96816 16.4257 8.96816H16.4203C16.3844 8.96816 16.3552 8.99732 16.3552 9.03323V9.03693C16.3552 9.07279 16.3844 9.10199 16.4203 9.10199ZM16.1525 8.55613H17.7661C17.8021 8.55613 17.8312 8.52703 17.8312 8.49107V8.48395C17.8312 8.44799 17.8021 8.41888 17.7661 8.41888H16.1525C16.1166 8.41888 16.0874 8.44799 16.0874 8.48395V8.49107C16.0874 8.52703 16.1166 8.55613 16.1525 8.55613ZM17.7662 9.10199H17.4948C17.4589 9.10199 17.4297 9.07288 17.4297 9.03693V8.75854C17.4297 8.72259 17.4588 8.69348 17.4948 8.69348H17.9001C17.9361 8.69348 17.9652 8.66432 17.9652 8.62842V8.48399C17.9652 8.44804 17.9943 8.41893 18.0303 8.41893H18.034C18.07 8.41893 18.0991 8.44804 18.0991 8.48399V8.90306C18.0991 8.93901 18.1282 8.96812 18.1642 8.96812H18.1678C18.2038 8.96812 18.2329 8.93901 18.2329 8.90306V8.48399C18.2329 8.44804 18.2621 8.41893 18.298 8.41893H18.3017C18.3377 8.41893 18.3668 8.44804 18.3668 8.48399V8.90306C18.3668 8.93901 18.3959 8.96812 18.4319 8.96812H18.4373C18.4733 8.96812 18.5024 8.93901 18.5024 8.90306V8.48399C18.5024 8.44804 18.5316 8.41893 18.5675 8.41893H18.5694C18.6053 8.41893 18.6345 8.44804 18.6345 8.48399V9.03698C18.6345 9.07293 18.6053 9.10204 18.5694 9.10204H18.0302C17.9943 9.10204 17.9651 9.07293 17.9651 9.03698V8.89598C17.9651 8.86002 17.936 8.83092 17.9 8.83092H17.6303C17.5943 8.83092 17.5652 8.86002 17.5652 8.89598V8.90306C17.5652 8.93901 17.5943 8.96812 17.6303 8.96812H17.7662C17.8021 8.96812 17.8313 8.99727 17.8313 9.03318V9.03688C17.8313 9.07279 17.8022 9.10199 17.7662 9.10199Z" fill="#F5F5F5"/>
<path d="M18.8354 9.10199H18.8373C18.8733 9.10199 18.9025 9.07288 18.9025 9.03693V8.89593C18.9025 8.85998 18.9316 8.83087 18.9676 8.83087H19.2391C19.275 8.83087 19.3042 8.85998 19.3042 8.89593V9.03693C19.3042 9.07288 19.3333 9.10199 19.3692 9.10199H19.9101C19.946 9.10199 19.9752 9.07288 19.9752 9.03693V8.75854C19.9752 8.72259 19.946 8.69348 19.9101 8.69348H19.6404C19.6045 8.69348 19.5753 8.72259 19.5753 8.75854V8.76571C19.5753 8.80166 19.6045 8.83077 19.6404 8.83077H19.7779C19.8139 8.83077 19.843 8.85988 19.843 8.89584V8.90291C19.843 8.93887 19.8139 8.96798 19.7779 8.96798H19.5049C19.4689 8.96798 19.4398 8.93887 19.4398 8.90291V8.75849C19.4398 8.72254 19.4107 8.69343 19.3747 8.69343H18.8354C18.7994 8.69343 18.7703 8.72254 18.7703 8.75849V9.03688C18.7702 9.07279 18.7994 9.10199 18.8354 9.10199ZM19.1031 9.10199H19.1068C19.1428 9.10199 19.1719 9.07288 19.1719 9.03693V9.03323C19.1719 8.99727 19.1428 8.96816 19.1068 8.96816H19.1031C19.0672 8.96816 19.0381 8.99732 19.0381 9.03323V9.03693C19.038 9.07279 19.0671 9.10199 19.1031 9.10199ZM18.8354 8.55613H20.4508C20.4867 8.55613 20.5159 8.52703 20.5159 8.49107V8.48395C20.5159 8.44799 20.4868 8.41888 20.4508 8.41888H18.8354C18.7994 8.41888 18.7703 8.44799 18.7703 8.48395V8.49107C18.7702 8.52703 18.7994 8.55613 18.8354 8.55613ZM20.4507 9.10199H20.1758C20.1399 9.10199 20.1107 9.07288 20.1107 9.03693V8.75854C20.1107 8.72259 20.1399 8.69348 20.1758 8.69348H20.5811C20.6171 8.69348 20.6462 8.66432 20.6462 8.62842V8.48399C20.6462 8.44804 20.6754 8.41893 20.7114 8.41893H20.7167C20.7527 8.41893 20.7818 8.44804 20.7818 8.48399V8.90306C20.7818 8.93901 20.811 8.96812 20.8469 8.96812H20.8505C20.8865 8.96812 20.9156 8.93901 20.9156 8.90306V8.48399C20.9156 8.44804 20.9447 8.41893 20.9807 8.41893H20.9827C21.0186 8.41893 21.0478 8.44804 21.0478 8.48399V8.90306C21.0478 8.93901 21.0769 8.96812 21.1129 8.96812H21.1183C21.1542 8.96812 21.1833 8.93901 21.1833 8.90306V8.48399C21.1833 8.44804 21.2124 8.41893 21.2484 8.41893H21.2521C21.2881 8.41893 21.3173 8.44804 21.3173 8.48399V9.03698C21.3173 9.07293 21.2881 9.10204 21.2521 9.10204H20.7112C20.6753 9.10204 20.6461 9.07293 20.6461 9.03698V8.89598C20.6461 8.86002 20.617 8.83092 20.581 8.83092H20.3096C20.2736 8.83092 20.2445 8.86002 20.2445 8.89598V8.90306C20.2445 8.93901 20.2736 8.96812 20.3096 8.96812H20.4506C20.4865 8.96812 20.5157 8.99727 20.5157 9.03318V9.03688C20.5159 9.07279 20.4867 9.10199 20.4507 9.10199Z" fill="#F5F5F5"/>
<path d="M21.5163 9.10199H21.52C21.5559 9.10199 21.5851 9.07288 21.5851 9.03693V8.89593C21.5851 8.85998 21.6142 8.83087 21.6502 8.83087H21.9216C21.9576 8.83087 21.9867 8.85998 21.9867 8.89593V9.03693C21.9867 9.07288 22.0158 9.10199 22.0518 9.10199H22.5928C22.6287 9.10199 22.6579 9.07288 22.6579 9.03693V8.75854C22.6579 8.72259 22.6288 8.69348 22.5928 8.69348H22.323C22.2871 8.69348 22.258 8.72259 22.258 8.75854V8.76571C22.258 8.80166 22.2871 8.83077 22.323 8.83077H22.4606C22.4966 8.83077 22.5257 8.85988 22.5257 8.89584V8.90291C22.5257 8.93887 22.4965 8.96798 22.4606 8.96798H22.1857C22.1497 8.96798 22.1206 8.93887 22.1206 8.90291V8.75849C22.1206 8.72254 22.0915 8.69343 22.0555 8.69343H21.5164C21.4804 8.69343 21.4513 8.72254 21.4513 8.75849V9.03688C21.4512 9.07279 21.4804 9.10199 21.5163 9.10199ZM21.7841 9.10199H21.7878C21.8237 9.10199 21.8529 9.07288 21.8529 9.03693V9.03323C21.8529 8.99727 21.8238 8.96816 21.7878 8.96816H21.7841C21.7481 8.96816 21.719 8.99732 21.719 9.03323V9.03693C21.719 9.07279 21.7481 9.10199 21.7841 9.10199ZM21.5163 8.55613H23.1282C23.1642 8.55613 23.1933 8.52703 23.1933 8.49107V8.48395C23.1933 8.44799 23.1642 8.41888 23.1282 8.41888H21.5163C21.4803 8.41888 21.4512 8.44799 21.4512 8.48395V8.49107C21.4512 8.52703 21.4804 8.55613 21.5163 8.55613ZM23.1282 9.10199H22.8568C22.8209 9.10199 22.7917 9.07288 22.7917 9.03693V8.75854C22.7917 8.72259 22.8208 8.69348 22.8568 8.69348H23.2656C23.3016 8.69348 23.3307 8.66432 23.3307 8.62842V8.48399C23.3307 8.44804 23.3598 8.41893 23.3958 8.41893H23.396C23.4319 8.41893 23.4611 8.44804 23.4611 8.48399V8.90306C23.4611 8.93901 23.4902 8.96812 23.5261 8.96812H23.5333C23.5692 8.96812 23.5984 8.93901 23.5984 8.90306V8.48399C23.5984 8.44804 23.6275 8.41893 23.6635 8.41893H23.6637C23.6996 8.41893 23.7288 8.44804 23.7288 8.48399V8.90306C23.7288 8.93901 23.7579 8.96812 23.7939 8.96812H23.7976C23.8335 8.96812 23.8627 8.93901 23.8627 8.90306V8.48399C23.8627 8.44804 23.8919 8.41893 23.9278 8.41893H23.9349C23.9708 8.41893 24 8.44804 24 8.48399V9.03698C24 9.07293 23.9708 9.10204 23.9349 9.10204H23.3957C23.3598 9.10204 23.3307 9.07293 23.3307 9.03698V8.89598C23.3307 8.86002 23.3015 8.83092 23.2656 8.83092H22.9907C22.9547 8.83092 22.9256 8.86002 22.9256 8.89598V8.90306C22.9256 8.93901 22.9547 8.96812 22.9907 8.96812H23.1282C23.1641 8.96812 23.1933 8.99727 23.1933 9.03318V9.03688C23.1933 9.07279 23.1642 9.10199 23.1282 9.10199Z" fill="#F5F5F5"/>
<path d="M0.0650624 9.51725H1.14145C1.1774 9.51725 1.20651 9.48814 1.20651 9.45219V9.30777C1.20651 9.27182 1.1774 9.24271 1.14145 9.24271H0.0650624C0.0291093 9.24271 0 9.27186 0 9.30777V9.45219C0 9.48814 0.0291093 9.51725 0.0650624 9.51725ZM1.40728 9.51725H2.48198C2.51793 9.51725 2.54704 9.48814 2.54704 9.45219V9.30777C2.54704 9.27182 2.51793 9.24271 2.48198 9.24271H1.40728C1.37133 9.24271 1.34217 9.27186 1.34217 9.30777V9.45219C1.34212 9.48814 1.37133 9.51725 1.40728 9.51725Z" fill="#F5F5F5"/>
<path d="M2.74768 9.51725H3.82238C3.85833 9.51725 3.88744 9.48814 3.88744 9.45219V9.30777C3.88744 9.27182 3.85833 9.24271 3.82238 9.24271H2.74768C2.71173 9.24271 2.68262 9.27186 2.68262 9.30777V9.45219C2.68262 9.48814 2.71177 9.51725 2.74768 9.51725ZM4.08647 9.51725H5.1646C5.20055 9.51725 5.22966 9.48814 5.22966 9.45219V9.30777C5.22966 9.27182 5.20055 9.24271 5.1646 9.24271H4.08647C4.05052 9.24271 4.02136 9.27186 4.02136 9.30777V9.45219C4.02136 9.48814 4.05052 9.51725 4.08647 9.51725Z" fill="#F5F5F5"/>
<path d="M5.42883 9.51725H6.50522C6.54117 9.51725 6.57033 9.48814 6.57033 9.45219V9.30777C6.57033 9.27182 6.54122 9.24271 6.50522 9.24271H5.42883C5.39288 9.24271 5.36377 9.27186 5.36377 9.30777V9.45219C5.36368 9.48814 5.39288 9.51725 5.42883 9.51725ZM6.76927 9.51725H7.84566C7.88161 9.51725 7.91072 9.48814 7.91072 9.45219V9.30777C7.91072 9.27182 7.88156 9.24271 7.84566 9.24271H6.76927C6.73331 9.24271 6.70416 9.27186 6.70416 9.30777V9.45219C6.70416 9.48814 6.73336 9.51725 6.76927 9.51725Z" fill="#F5F5F5"/>
<path d="M8.10979 9.51725H9.18618C9.22213 9.51725 9.25124 9.48814 9.25124 9.45219V9.30777C9.25124 9.27182 9.22213 9.24271 9.18618 9.24271H8.10979C8.07383 9.24271 8.04468 9.27186 8.04468 9.30777V9.45219C8.04472 9.48814 8.07388 9.51725 8.10979 9.51725ZM9.44858 9.51725H10.5267C10.5627 9.51725 10.5918 9.48814 10.5918 9.45219V9.30777C10.5918 9.27182 10.5627 9.24271 10.5267 9.24271H9.44858C9.41263 9.24271 9.38352 9.27186 9.38352 9.30777V9.45219C9.38347 9.48814 9.41258 9.51725 9.44858 9.51725Z" fill="#F5F5F5"/>
<path d="M10.7907 9.51725H11.8672C11.9031 9.51725 11.9322 9.48814 11.9322 9.45219V9.30777C11.9322 9.27182 11.9031 9.24271 11.8672 9.24271H10.7907C10.7547 9.24271 10.7256 9.27186 10.7256 9.30777V9.45219C10.7256 9.48814 10.7547 9.51725 10.7907 9.51725ZM12.1312 9.51725H13.2077C13.2436 9.51725 13.2728 9.48814 13.2728 9.45219V9.30777C13.2728 9.27182 13.2436 9.24271 13.2077 9.24271H12.1312C12.0952 9.24271 12.0661 9.27186 12.0661 9.30777V9.45219C12.0661 9.48814 12.0952 9.51725 12.1312 9.51725Z" fill="#F5F5F5"/>
<path d="M13.4716 9.51725H14.5481C14.584 9.51725 14.6132 9.48814 14.6132 9.45219V9.30777C14.6132 9.27182 14.5841 9.24271 14.5481 9.24271H13.4716C13.4356 9.24271 13.4065 9.27186 13.4065 9.30777V9.45219C13.4065 9.48814 13.4356 9.51725 13.4716 9.51725ZM14.8139 9.51725H15.8886C15.9245 9.51725 15.9537 9.48814 15.9537 9.45219V9.30777C15.9537 9.27182 15.9245 9.24271 15.8886 9.24271H14.8139C14.7779 9.24271 14.7488 9.27186 14.7488 9.30777V9.45219C14.7488 9.48814 14.7779 9.51725 14.8139 9.51725Z" fill="#F5F5F5"/>
<path d="M16.1525 9.51725H17.229C17.2649 9.51725 17.2941 9.48814 17.2941 9.45219V9.30777C17.2941 9.27182 17.2649 9.24271 17.229 9.24271H16.1525C16.1166 9.24271 16.0874 9.27186 16.0874 9.30777V9.45219C16.0874 9.48814 16.1166 9.51725 16.1525 9.51725ZM17.4948 9.51725H18.5694C18.6053 9.51725 18.6345 9.48814 18.6345 9.45219V9.30777C18.6345 9.27182 18.6053 9.24271 18.5694 9.24271H17.4948C17.4588 9.24271 17.4297 9.27186 17.4297 9.30777V9.45219C17.4297 9.48814 17.4588 9.51725 17.4948 9.51725Z" fill="#F5F5F5"/>
<path d="M18.8354 9.51725H19.9101C19.946 9.51725 19.9752 9.48814 19.9752 9.45219V9.30777C19.9752 9.27182 19.946 9.24271 19.9101 9.24271H18.8354C18.7994 9.24271 18.7703 9.27186 18.7703 9.30777V9.45219C18.7702 9.48814 18.7994 9.51725 18.8354 9.51725ZM20.1759 9.51725H21.2523C21.2883 9.51725 21.3174 9.48814 21.3174 9.45219V9.30777C21.3174 9.27182 21.2883 9.24271 21.2523 9.24271H20.1759C20.1399 9.24271 20.1107 9.27186 20.1107 9.30777V9.45219C20.1107 9.48814 20.1399 9.51725 20.1759 9.51725Z" fill="#F5F5F5"/>
<path d="M21.5163 9.51725H22.5928C22.6287 9.51725 22.6579 9.48814 22.6579 9.45219V9.30777C22.6579 9.27182 22.6288 9.24271 22.5928 9.24271H21.5163C21.4803 9.24271 21.4512 9.27186 21.4512 9.30777V9.45219C21.4512 9.48814 21.4804 9.51725 21.5163 9.51725ZM22.8569 9.51725H23.935C23.9709 9.51725 24.0001 9.48814 24.0001 9.45219V9.30777C24.0001 9.27182 23.9709 9.24271 23.935 9.24271H22.8569C22.8209 9.24271 22.7917 9.27186 22.7917 9.30777V9.45219C22.7917 9.48814 22.8209 9.51725 22.8569 9.51725Z" fill="#F5F5F5"/>
<path d="M23.9349 14.8981H23.9313C23.8954 14.8981 23.8662 14.9272 23.8662 14.9631V15.1041C23.8662 15.1401 23.8371 15.1692 23.8011 15.1692H23.528C23.492 15.1692 23.4629 15.1401 23.4629 15.1041V14.9631C23.4629 14.9272 23.4338 14.8981 23.3978 14.8981H22.8586C22.8227 14.8981 22.7936 14.9272 22.7936 14.9631V15.2415C22.7936 15.2775 22.8227 15.3066 22.8586 15.3066H23.13C23.166 15.3066 23.1951 15.2775 23.1951 15.2415V15.2344C23.1951 15.1984 23.166 15.1693 23.13 15.1693H22.9925C22.9565 15.1693 22.9273 15.1402 22.9273 15.1042V15.0971C22.9273 15.0612 22.9565 15.0321 22.9925 15.0321H23.264C23.2999 15.0321 23.329 15.0612 23.329 15.0971V15.2416C23.329 15.2775 23.3582 15.3067 23.3941 15.3067H23.935C23.9709 15.3067 24.0001 15.2775 24.0001 15.2416V14.9632C24 14.9272 23.9709 14.8981 23.9349 14.8981ZM23.6655 14.8981H23.6618C23.6258 14.8981 23.5967 14.9272 23.5967 14.9631V14.9668C23.5967 15.0028 23.6258 15.0319 23.6618 15.0319H23.6655C23.7014 15.0319 23.7306 15.0028 23.7306 14.9668V14.9631C23.7306 14.9272 23.7014 14.8981 23.6655 14.8981ZM23.9349 15.4439H22.3213C22.2854 15.4439 22.2562 15.473 22.2562 15.5089V15.5161C22.2562 15.5521 22.2854 15.5812 22.3213 15.5812H23.9349C23.9709 15.5812 24 15.552 24 15.5161V15.5089C24 15.473 23.9709 15.4439 23.9349 15.4439ZM22.3214 14.8981H22.5928C22.6287 14.8981 22.6579 14.9272 22.6579 14.9631V15.2415C22.6579 15.2775 22.6288 15.3066 22.5928 15.3066H22.1875C22.1515 15.3066 22.1224 15.3357 22.1224 15.3717V15.5161C22.1224 15.5521 22.0932 15.5812 22.0573 15.5812H22.0537C22.0177 15.5812 21.9886 15.552 21.9886 15.5161V15.0971C21.9886 15.0611 21.9595 15.032 21.9235 15.032H21.9198C21.8839 15.032 21.8547 15.0611 21.8547 15.0971V15.5161C21.8547 15.5521 21.8255 15.5812 21.7896 15.5812H21.786C21.75 15.5812 21.7209 15.552 21.7209 15.5161V15.0971C21.7209 15.0611 21.6918 15.032 21.6558 15.032H21.6504C21.6144 15.032 21.5853 15.0611 21.5853 15.0971V15.5161C21.5853 15.5521 21.5562 15.5812 21.5202 15.5812H21.5182C21.4822 15.5812 21.4531 15.552 21.4531 15.5161V14.9631C21.4531 14.9272 21.4822 14.8981 21.5182 14.8981H22.0573C22.0933 14.8981 22.1225 14.9272 22.1225 14.9631V15.1041C22.1225 15.1401 22.1516 15.1692 22.1875 15.1692H22.4589C22.4949 15.1692 22.524 15.1401 22.524 15.1041V15.0971C22.524 15.0611 22.4949 15.032 22.4589 15.032H22.3214C22.2855 15.032 22.2563 15.0028 22.2563 14.9669V14.9632C22.2562 14.9272 22.2854 14.8981 22.3214 14.8981Z" fill="#F5F5F5"/>
<path d="M21.2522 14.8981H21.2468C21.2109 14.8981 21.1817 14.9272 21.1817 14.9631V15.1041C21.1817 15.1401 21.1526 15.1692 21.1166 15.1692H20.8469C20.811 15.1692 20.7818 15.1401 20.7818 15.1041V14.9631C20.7818 14.9272 20.7527 14.8981 20.7167 14.8981H20.1776C20.1416 14.8981 20.1125 14.9272 20.1125 14.9631V15.2415C20.1125 15.2775 20.1416 15.3066 20.1776 15.3066H20.449C20.4849 15.3066 20.5141 15.2775 20.5141 15.2415V15.2344C20.5141 15.1984 20.4849 15.1693 20.449 15.1693H20.3114C20.2755 15.1693 20.2464 15.1402 20.2464 15.1042V15.0971C20.2464 15.0612 20.2755 15.0321 20.3114 15.0321H20.5829C20.6189 15.0321 20.648 15.0612 20.648 15.0971V15.2416C20.648 15.2775 20.6771 15.3067 20.7131 15.3067H21.2522C21.2882 15.3067 21.3174 15.2775 21.3174 15.2416V14.9632C21.3173 14.9272 21.2881 14.8981 21.2522 14.8981ZM20.9844 14.8981H20.9808C20.9448 14.8981 20.9157 14.9272 20.9157 14.9631V14.9668C20.9157 15.0028 20.9448 15.0319 20.9808 15.0319H20.9844C21.0204 15.0319 21.0495 15.0028 21.0495 14.9668V14.9631C21.0495 14.9272 21.0204 14.8981 20.9844 14.8981ZM21.2522 15.4439H19.6403C19.6044 15.4439 19.5752 15.473 19.5752 15.5089V15.5161C19.5752 15.5521 19.6044 15.5812 19.6403 15.5812H21.2522C21.2881 15.5812 21.3173 15.552 21.3173 15.5161V15.5089C21.3173 15.473 21.2881 15.4439 21.2522 15.4439ZM19.6403 14.8981H19.9134C19.9494 14.8981 19.9785 14.9272 19.9785 14.9631V15.2415C19.9785 15.2775 19.9494 15.3066 19.9134 15.3066H19.5081C19.4721 15.3066 19.443 15.3357 19.443 15.3717V15.5161C19.443 15.5521 19.4139 15.5812 19.3779 15.5812H19.3725C19.3365 15.5812 19.3074 15.552 19.3074 15.5161V15.0971C19.3074 15.0611 19.2782 15.032 19.2422 15.032H19.2369C19.2009 15.032 19.1717 15.0611 19.1717 15.0971V15.5161C19.1717 15.5521 19.1426 15.5812 19.1067 15.5812H19.1047C19.0688 15.5812 19.0397 15.552 19.0397 15.5161V15.0971C19.0397 15.0611 19.0105 15.032 18.9745 15.032H18.9692C18.9332 15.032 18.904 15.0611 18.904 15.0971V15.5161C18.904 15.5521 18.8749 15.5812 18.839 15.5812H18.8353C18.7994 15.5812 18.7703 15.552 18.7703 15.5161V14.9631C18.7703 14.9272 18.7994 14.8981 18.8353 14.8981H19.3779C19.4139 14.8981 19.443 14.9272 19.443 14.9631V15.1041C19.443 15.1401 19.4721 15.1692 19.5081 15.1692H19.7778C19.8138 15.1692 19.8429 15.1401 19.8429 15.1041V15.0971C19.8429 15.0611 19.8138 15.032 19.7778 15.032H19.6403C19.6043 15.032 19.5752 15.0028 19.5752 14.9669V14.9632C19.5752 14.9272 19.6043 14.8981 19.6403 14.8981Z" fill="#F5F5F5"/>
<path d="M18.5712 14.8981H18.5676C18.5316 14.8981 18.5025 14.9272 18.5025 14.9631V15.1041C18.5025 15.1401 18.4734 15.1692 18.4374 15.1692H18.1659C18.13 15.1692 18.1008 15.1401 18.1008 15.1041V14.9631C18.1008 14.9272 18.0716 14.8981 18.0357 14.8981H17.4949C17.4589 14.8981 17.4297 14.9272 17.4297 14.9631V15.2415C17.4297 15.2775 17.4589 15.3066 17.4949 15.3066H17.7663C17.8022 15.3066 17.8314 15.2775 17.8314 15.2415V15.2344C17.8314 15.1984 17.8023 15.1693 17.7663 15.1693H17.6287C17.5927 15.1693 17.5636 15.1402 17.5636 15.1042V15.0971C17.5636 15.0612 17.5927 15.0321 17.6287 15.0321H17.9018C17.9378 15.0321 17.9669 15.0612 17.9669 15.0971V15.2416C17.9669 15.2775 17.996 15.3067 18.032 15.3067H18.5711C18.6071 15.3067 18.6363 15.2775 18.6363 15.2416V14.9632C18.6364 14.9272 18.6071 14.8981 18.5712 14.8981ZM18.3034 14.8981H18.2998C18.2639 14.8981 18.2347 14.9272 18.2347 14.9631V14.9668C18.2347 15.0028 18.2639 15.0319 18.2998 15.0319H18.3034C18.3394 15.0319 18.3685 15.0028 18.3685 14.9668V14.9631C18.3686 14.9272 18.3394 14.8981 18.3034 14.8981ZM18.5712 15.4439H16.9576C16.9216 15.4439 16.8925 15.473 16.8925 15.5089V15.5161C16.8925 15.5521 16.9216 15.5812 16.9576 15.5812H18.5712C18.6071 15.5812 18.6363 15.552 18.6363 15.5161V15.5089C18.6364 15.473 18.6071 15.4439 18.5712 15.4439ZM16.9576 14.8981H17.2307C17.2667 14.8981 17.2958 14.9272 17.2958 14.9631V15.2415C17.2958 15.2775 17.2667 15.3066 17.2307 15.3066H16.8254C16.7895 15.3066 16.7604 15.3357 16.7604 15.3717V15.5161C16.7604 15.5521 16.7312 15.5812 16.6953 15.5812H16.6916C16.6556 15.5812 16.6265 15.552 16.6265 15.5161V15.0971C16.6265 15.0611 16.5973 15.032 16.5614 15.032H16.556C16.52 15.032 16.4909 15.0611 16.4909 15.0971V15.5161C16.4909 15.5521 16.4618 15.5812 16.4258 15.5812H16.4204C16.3844 15.5812 16.3553 15.552 16.3553 15.5161V15.0971C16.3553 15.0611 16.3262 15.032 16.2902 15.032H16.2882C16.2523 15.032 16.2231 15.0611 16.2231 15.0971V15.5161C16.2231 15.5521 16.194 15.5812 16.158 15.5812H16.1544C16.1185 15.5812 16.0894 15.552 16.0894 15.5161V14.9631C16.0894 14.9272 16.1185 14.8981 16.1544 14.8981H16.6954C16.7313 14.8981 16.7605 14.9272 16.7605 14.9631V15.1041C16.7605 15.1401 16.7896 15.1692 16.8255 15.1692H17.0969C17.1329 15.1692 17.162 15.1401 17.162 15.1041V15.0971C17.162 15.0611 17.1329 15.032 17.0969 15.032H16.9576C16.9216 15.032 16.8925 15.0028 16.8925 14.9669V14.9632C16.8925 14.9272 16.9216 14.8981 16.9576 14.8981Z" fill="#F5F5F5"/>
<path d="M15.8904 14.8981H15.8868C15.8508 14.8981 15.8217 14.9272 15.8217 14.9631V15.1041C15.8217 15.1401 15.7925 15.1692 15.7566 15.1692H15.4852C15.4492 15.1692 15.4201 15.1401 15.4201 15.1041V14.9631C15.4201 14.9272 15.391 14.8981 15.355 14.8981H14.8141C14.7781 14.8981 14.749 14.9272 14.749 14.9631V15.2415C14.749 15.2775 14.7781 15.3066 14.8141 15.3066H15.0872C15.1232 15.3066 15.1523 15.2775 15.1523 15.2415V15.2344C15.1523 15.1984 15.1232 15.1693 15.0872 15.1693H14.9496C14.9137 15.1693 14.8846 15.1402 14.8846 15.1042V15.0971C14.8846 15.0612 14.9137 15.0321 14.9496 15.0321H15.2211C15.257 15.0321 15.2861 15.0612 15.2861 15.0971V15.2416C15.2861 15.2775 15.3153 15.3067 15.3512 15.3067H15.8904C15.9263 15.3067 15.9555 15.2775 15.9555 15.2416V14.9632C15.9554 14.9272 15.9263 14.8981 15.8904 14.8981ZM15.6226 14.8981H15.619C15.583 14.8981 15.5539 14.9272 15.5539 14.9631V14.9668C15.5539 15.0028 15.5831 15.0319 15.619 15.0319H15.6226C15.6585 15.0319 15.6877 15.0028 15.6877 14.9668V14.9631C15.6876 14.9272 15.6585 14.8981 15.6226 14.8981ZM15.8904 15.4439H14.2784C14.2425 15.4439 14.2134 15.473 14.2134 15.5089V15.5161C14.2134 15.5521 14.2425 15.5812 14.2784 15.5812H15.8904C15.9263 15.5812 15.9555 15.552 15.9555 15.5161V15.5089C15.9554 15.473 15.9263 15.4439 15.8904 15.4439ZM14.2784 14.8981H14.5516C14.5875 14.8981 14.6167 14.9272 14.6167 14.9631V15.2415C14.6167 15.2775 14.5875 15.3066 14.5516 15.3066H14.1428C14.1068 15.3066 14.0777 15.3357 14.0777 15.3717V15.5161C14.0777 15.5521 14.0486 15.5812 14.0126 15.5812H14.009C13.9731 15.5812 13.9439 15.552 13.9439 15.5161V15.0971C13.9439 15.0611 13.9147 15.032 13.8788 15.032H13.8768C13.8409 15.032 13.8117 15.0611 13.8117 15.0971V15.5161C13.8117 15.5521 13.7826 15.5812 13.7466 15.5812H13.7412C13.7053 15.5812 13.6761 15.552 13.6761 15.5161V15.0971C13.6761 15.0611 13.647 15.032 13.611 15.032H13.6073C13.5714 15.032 13.5423 15.0611 13.5423 15.0971V15.5161C13.5423 15.5521 13.5131 15.5812 13.4772 15.5812H13.4736C13.4376 15.5812 13.4084 15.552 13.4084 15.5161V14.9631C13.4084 14.9272 13.4376 14.8981 13.4736 14.8981H14.0127C14.0487 14.8981 14.0778 14.9272 14.0778 14.9631V15.1041C14.0778 15.1401 14.1069 15.1692 14.1429 15.1692H14.416C14.452 15.1692 14.4811 15.1401 14.4811 15.1041V15.0971C14.4811 15.0611 14.452 15.032 14.416 15.032H14.2784C14.2425 15.032 14.2134 15.0028 14.2134 14.9669V14.9632C14.2134 14.9272 14.2425 14.8981 14.2784 14.8981Z" fill="#F5F5F5"/>
<path d="M13.2094 14.8981H13.2057C13.1697 14.8981 13.1406 14.9272 13.1406 14.9631V15.1041C13.1406 15.1401 13.1115 15.1692 13.0756 15.1692H12.8041C12.7682 15.1692 12.7391 15.1401 12.7391 15.1041V14.9631C12.7391 14.9272 12.7099 14.8981 12.674 14.8981H12.133C12.0971 14.8981 12.068 14.9272 12.068 14.9631V15.2415C12.068 15.2775 12.0971 15.3066 12.133 15.3066H12.4062C12.4421 15.3066 12.4713 15.2775 12.4713 15.2415V15.2344C12.4713 15.1984 12.4421 15.1693 12.4062 15.1693H12.267C12.231 15.1693 12.2019 15.1402 12.2019 15.1042V15.0971C12.2019 15.0612 12.2311 15.0321 12.267 15.0321H12.5384C12.5743 15.0321 12.6034 15.0612 12.6034 15.0971V15.2416C12.6034 15.2775 12.6326 15.3067 12.6685 15.3067H13.2095C13.2454 15.3067 13.2746 15.2775 13.2746 15.2416V14.9632C13.2744 14.9272 13.2453 14.8981 13.2094 14.8981ZM12.9398 14.8981H12.9379C12.9019 14.8981 12.8728 14.9272 12.8728 14.9631V14.9668C12.8728 15.0028 12.9019 15.0319 12.9379 15.0319H12.9398C12.9758 15.0319 13.0049 15.0028 13.0049 14.9668V14.9631C13.005 14.9272 12.9758 14.8981 12.9398 14.8981ZM13.2094 15.4439H11.5958C11.5598 15.4439 11.5307 15.473 11.5307 15.5089V15.5161C11.5307 15.5521 11.5599 15.5812 11.5958 15.5812H13.2094C13.2453 15.5812 13.2745 15.552 13.2745 15.5161V15.5089C13.2744 15.473 13.2453 15.4439 13.2094 15.4439ZM11.5957 14.8981H11.8688C11.9048 14.8981 11.9339 14.9272 11.9339 14.9631V15.2415C11.9339 15.2775 11.9048 15.3066 11.8688 15.3066H11.4617C11.4258 15.3066 11.3967 15.3357 11.3967 15.3717V15.5161C11.3967 15.5521 11.3676 15.5812 11.3316 15.5812H11.328C11.292 15.5812 11.2629 15.552 11.2629 15.5161V15.0971C11.2629 15.0611 11.2337 15.032 11.1978 15.032H11.1941C11.1581 15.032 11.129 15.0611 11.129 15.0971V15.5161C11.129 15.5521 11.0999 15.5812 11.0639 15.5812H11.0603C11.0244 15.5812 10.9952 15.552 10.9952 15.5161V15.0971C10.9952 15.0611 10.9661 15.032 10.9302 15.032H10.9265C10.8906 15.032 10.8615 15.0611 10.8615 15.0971V15.5161C10.8615 15.5521 10.8324 15.5812 10.7964 15.5812H10.7926C10.7567 15.5812 10.7275 15.552 10.7275 15.5161V14.9631C10.7275 14.9272 10.7566 14.8981 10.7926 14.8981H11.3318C11.3678 14.8981 11.3969 14.9272 11.3969 14.9631V15.1041C11.3969 15.1401 11.426 15.1692 11.462 15.1692H11.7351C11.7711 15.1692 11.8002 15.1401 11.8002 15.1041V15.0971C11.8002 15.0611 11.7711 15.032 11.7351 15.032H11.5959C11.5599 15.032 11.5308 15.0028 11.5308 14.9669V14.9632C11.5306 14.9272 11.5597 14.8981 11.5957 14.8981Z" fill="#F5F5F5"/>
<path d="M10.5282 14.8981H10.5245C10.4886 14.8981 10.4594 14.9272 10.4594 14.9631V15.1041C10.4594 15.1401 10.4303 15.1692 10.3944 15.1692H10.1229C10.087 15.1692 10.0579 15.1401 10.0579 15.1041V14.9631C10.0579 14.9272 10.0287 14.8981 9.99282 14.8981H9.45188C9.41593 14.8981 9.38682 14.9272 9.38682 14.9631V15.2415C9.38682 15.2775 9.41593 15.3066 9.45188 15.3066H9.72338C9.75934 15.3066 9.78845 15.2775 9.78845 15.2415V15.2344C9.78845 15.1984 9.75934 15.1693 9.72338 15.1693H9.58749C9.55154 15.1693 9.52238 15.1402 9.52238 15.1042V15.0971C9.52238 15.0612 9.55154 15.0321 9.58749 15.0321H9.85721C9.89316 15.0321 9.92232 15.0612 9.92232 15.0971V15.2416C9.92232 15.2775 9.95143 15.3067 9.98738 15.3067H10.5283C10.5643 15.3067 10.5934 15.2775 10.5934 15.2416V14.9632C10.5933 14.9272 10.5642 14.8981 10.5282 14.8981ZM10.2587 14.8981H10.2568C10.2208 14.8981 10.1917 14.9272 10.1917 14.9631V14.9668C10.1917 15.0028 10.2208 15.0319 10.2568 15.0319H10.2587C10.2947 15.0319 10.3238 15.0028 10.3238 14.9668V14.9631C10.3238 14.9272 10.2947 14.8981 10.2587 14.8981ZM10.5282 15.4439H8.91456C8.8786 15.4439 8.8495 15.473 8.8495 15.5089V15.5161C8.8495 15.5521 8.8786 15.5812 8.91456 15.5812H10.5282C10.5641 15.5812 10.5933 15.552 10.5933 15.5161V15.5089C10.5933 15.473 10.5642 15.4439 10.5282 15.4439ZM8.91456 14.8981H9.18596C9.22192 14.8981 9.25103 14.9272 9.25103 14.9631V15.2415C9.25103 15.2775 9.22192 15.3066 9.18596 15.3066H8.78068C8.74473 15.3066 8.71562 15.3357 8.71562 15.3717V15.5161C8.71562 15.5521 8.68651 15.5812 8.65051 15.5812H8.64681C8.61085 15.5812 8.58175 15.552 8.58175 15.5161V15.0971C8.58175 15.0611 8.55264 15.032 8.51668 15.032H8.51303C8.47707 15.032 8.44796 15.0611 8.44796 15.0971V15.5161C8.44796 15.5521 8.41886 15.5812 8.38286 15.5812H8.37915C8.3432 15.5812 8.31404 15.552 8.31404 15.5161V15.0971C8.31404 15.0611 8.28493 15.032 8.24898 15.032H8.24537C8.20942 15.032 8.18031 15.0611 8.18031 15.0971V15.5161C8.18031 15.5521 8.15115 15.5812 8.1152 15.5812H8.1115C8.07554 15.5812 8.04639 15.552 8.04639 15.5161V14.9631C8.04639 14.9272 8.07554 14.8981 8.1115 14.8981H8.65079C8.68674 14.8981 8.7159 14.9272 8.7159 14.9631V15.1041C8.7159 15.1401 8.74501 15.1692 8.78096 15.1692H9.05401C9.08996 15.1692 9.11912 15.1401 9.11912 15.1041V15.0971C9.11912 15.0611 9.09001 15.032 9.05401 15.032H8.91479C8.87884 15.032 8.84973 15.0028 8.84973 14.9669V14.9632C8.84945 14.9272 8.87865 14.8981 8.91456 14.8981Z" fill="#F5F5F5"/>
<path d="M7.84736 14.8981H7.84366C7.80771 14.8981 7.77855 14.9272 7.77855 14.9631V15.1041C7.77855 15.1401 7.74944 15.1692 7.71349 15.1692H7.4404C7.40444 15.1692 7.37529 15.1401 7.37529 15.1041V14.9631C7.37529 14.9272 7.34618 14.8981 7.31022 14.8981H6.77093C6.73498 14.8981 6.70582 14.9272 6.70582 14.9631V15.2415C6.70582 15.2775 6.73493 15.3066 6.77093 15.3066H7.04243C7.07838 15.3066 7.10754 15.2775 7.10754 15.2415V15.2344C7.10754 15.1984 7.07843 15.1693 7.04243 15.1693H6.90307C6.86712 15.1693 6.83796 15.1402 6.83796 15.1042V15.0971C6.83796 15.0612 6.86707 15.0321 6.90307 15.0321H7.17799C7.21394 15.0321 7.24305 15.0612 7.24305 15.0971V15.2416C7.24305 15.2775 7.27221 15.3067 7.30816 15.3067H7.84732C7.88327 15.3067 7.91243 15.2775 7.91243 15.2416V14.9632C7.91247 14.9272 7.88332 14.8981 7.84736 14.8981ZM7.57957 14.8981H7.57413C7.53818 14.8981 7.50907 14.9272 7.50907 14.9631V14.9668C7.50907 15.0028 7.53818 15.0319 7.57413 15.0319H7.57957C7.61552 15.0319 7.64463 15.0028 7.64463 14.9668V14.9631C7.64468 14.9272 7.61552 14.8981 7.57957 14.8981ZM7.84736 15.4439H6.23374C6.19779 15.4439 6.16863 15.473 6.16863 15.5089V15.5161C6.16863 15.5521 6.19774 15.5812 6.23374 15.5812H7.84736C7.88332 15.5812 7.91247 15.552 7.91247 15.5161V15.5089C7.91247 15.473 7.88332 15.4439 7.84736 15.4439ZM6.23365 14.8981H6.50505C6.54101 14.8981 6.57016 14.9272 6.57016 14.9631V15.2415C6.57016 15.2775 6.54105 15.3066 6.50505 15.3066H6.09977C6.06382 15.3066 6.03471 15.3357 6.03471 15.3717V15.5161C6.03471 15.5521 6.0056 15.5812 5.9696 15.5812H5.9659C5.92995 15.5812 5.90079 15.552 5.90079 15.5161V15.0971C5.90079 15.0611 5.87168 15.032 5.83573 15.032H5.83207C5.79612 15.032 5.76701 15.0611 5.76701 15.0971V15.5161C5.76701 15.5521 5.7379 15.5812 5.7019 15.5812H5.6982C5.66224 15.5812 5.63309 15.552 5.63309 15.5161V15.0971C5.63309 15.0611 5.60398 15.032 5.56798 15.032H5.56259C5.52663 15.032 5.49753 15.0611 5.49753 15.0971V15.5161C5.49753 15.5521 5.46842 15.5812 5.43246 15.5812H5.43059C5.39463 15.5812 5.36548 15.552 5.36548 15.5161V14.9631C5.36548 14.9272 5.39459 14.8981 5.43059 14.8981H5.96974C6.0057 14.8981 6.03485 14.9272 6.03485 14.9631V15.1041C6.03485 15.1401 6.06396 15.1692 6.09991 15.1692H6.36963C6.40559 15.1692 6.43474 15.1401 6.43474 15.1041V15.0971C6.43474 15.0611 6.40563 15.032 6.36963 15.032H6.23374C6.19779 15.032 6.16863 15.0028 6.16863 14.9669V14.9632C6.16859 14.9272 6.1977 14.8981 6.23365 14.8981Z" fill="#F5F5F5"/>
<path d="M5.1647 14.8981H5.16273C5.12678 14.8981 5.09762 14.9272 5.09762 14.9631V15.1041C5.09762 15.1401 5.06851 15.1692 5.03256 15.1692H4.76106C4.72511 15.1692 4.696 15.1401 4.696 15.1041V14.9631C4.696 14.9272 4.66689 14.8981 4.63094 14.8981H4.09005C4.05409 14.8981 4.02498 14.9272 4.02498 14.9631V15.2415C4.02498 15.2775 4.05409 15.3066 4.09005 15.3066H4.35967C4.39562 15.3066 4.42478 15.2775 4.42478 15.2415V15.2344C4.42478 15.1984 4.39567 15.1693 4.35967 15.1693H4.22219C4.18623 15.1693 4.15712 15.1402 4.15712 15.1042V15.0971C4.15712 15.0612 4.18623 15.0321 4.22219 15.0321H4.49533C4.53128 15.0321 4.56044 15.0612 4.56044 15.0971V15.2416C4.56044 15.2775 4.58955 15.3067 4.6255 15.3067H5.16479C5.20075 15.3067 5.2299 15.2775 5.2299 15.2416V14.9632C5.22986 14.9272 5.20065 14.8981 5.1647 14.8981ZM4.89695 14.8981H4.89325C4.85729 14.8981 4.82814 14.9272 4.82814 14.9631V14.9668C4.82814 15.0028 4.85725 15.0319 4.89325 15.0319H4.89695C4.9329 15.0319 4.96201 15.0028 4.96201 14.9668V14.9631C4.96206 14.9272 4.9329 14.8981 4.89695 14.8981ZM5.1647 15.4439H3.54934C3.51339 15.4439 3.48428 15.473 3.48428 15.5089V15.5161C3.48428 15.5521 3.51339 15.5812 3.54934 15.5812H5.16475C5.2007 15.5812 5.22986 15.552 5.22986 15.5161V15.5089C5.22986 15.473 5.20065 15.4439 5.1647 15.4439ZM3.54934 14.8981H3.82427C3.86022 14.8981 3.88937 14.9272 3.88937 14.9631V15.2415C3.88937 15.2775 3.86027 15.3066 3.82427 15.3066H3.41889C3.38294 15.3066 3.35383 15.3357 3.35383 15.3717V15.5161C3.35383 15.5521 3.32472 15.5812 3.28872 15.5812H3.28333C3.24738 15.5812 3.21827 15.552 3.21827 15.5161V15.0971C3.21827 15.0611 3.18916 15.032 3.15316 15.032H3.14955C3.11359 15.032 3.08444 15.0611 3.08444 15.0971V15.5161C3.08444 15.5521 3.05533 15.5812 3.01938 15.5812H3.01736C2.98141 15.5812 2.95225 15.552 2.95225 15.5161V15.0971C2.95225 15.0611 2.92314 15.032 2.88719 15.032H2.8818C2.84585 15.032 2.81669 15.0611 2.81669 15.0971V15.5161C2.81669 15.5521 2.78758 15.5812 2.75163 15.5812H2.74792C2.71197 15.5812 2.68286 15.552 2.68286 15.5161V14.9631C2.68286 14.9272 2.71197 14.8981 2.74792 14.8981H3.28886C3.32481 14.8981 3.35397 14.9272 3.35397 14.9631V15.1041C3.35397 15.1401 3.38308 15.1692 3.41903 15.1692H3.69044C3.72639 15.1692 3.7555 15.1401 3.7555 15.1041V15.0971C3.7555 15.0611 3.72639 15.032 3.69044 15.032H3.54939C3.51344 15.032 3.48433 15.0028 3.48433 14.9669V14.9632C3.48419 14.9272 3.51339 14.8981 3.54934 14.8981Z" fill="#F5F5F5"/>
<path d="M2.48371 14.8981H2.48001C2.44406 14.8981 2.41495 14.9272 2.41495 14.9631V15.1041C2.41495 15.1401 2.38584 15.1692 2.34984 15.1692H2.07843C2.04248 15.1692 2.01332 15.1401 2.01332 15.1041V14.9631C2.01332 14.9272 1.98421 14.8981 1.94826 14.8981H1.40728C1.37133 14.8981 1.34217 14.9272 1.34217 14.9631V15.2415C1.34217 15.2775 1.37128 15.3066 1.40728 15.3066H1.677C1.71295 15.3066 1.74206 15.2775 1.74206 15.2415V15.2344C1.74206 15.1984 1.71295 15.1693 1.677 15.1693H1.53942C1.50347 15.1693 1.47431 15.1402 1.47431 15.1042V15.0971C1.47431 15.0612 1.50347 15.0321 1.53942 15.0321H1.81434C1.85029 15.0321 1.87945 15.0612 1.87945 15.0971V15.2416C1.87945 15.2775 1.90856 15.3067 1.94451 15.3067H2.48367C2.51962 15.3067 2.54873 15.2775 2.54873 15.2416V14.9632C2.54882 14.9272 2.51967 14.8981 2.48371 14.8981ZM2.21596 14.8981H2.21226C2.17631 14.8981 2.1472 14.9272 2.1472 14.9631V14.9668C2.1472 15.0028 2.17631 15.0319 2.21226 15.0319H2.21596C2.25192 15.0319 2.28103 15.0028 2.28103 14.9668V14.9631C2.28103 14.9272 2.25192 14.8981 2.21596 14.8981ZM2.48371 15.4439H0.871827C0.835873 15.4439 0.806717 15.473 0.806717 15.5089V15.5161C0.806717 15.5521 0.835873 15.5812 0.871827 15.5812H2.48371C2.51967 15.5812 2.54878 15.552 2.54878 15.5161V15.5089C2.54882 15.473 2.51967 15.4439 2.48371 15.4439ZM0.871827 14.8981H1.14323C1.17919 14.8981 1.20834 14.9272 1.20834 14.9631V15.2415C1.20834 15.2775 1.17923 15.3066 1.14323 15.3066H0.73453C0.698577 15.3066 0.669421 15.3357 0.669421 15.3717V15.5161C0.669421 15.5521 0.640311 15.5812 0.604311 15.5812H0.604124C0.568171 15.5812 0.539015 15.552 0.539015 15.5161V15.0971C0.539015 15.0611 0.509905 15.032 0.473905 15.032H0.466687C0.430734 15.032 0.401577 15.0611 0.401577 15.0971V15.5161C0.401577 15.5521 0.372468 15.5812 0.336468 15.5812H0.336327C0.300374 15.5812 0.271265 15.552 0.271265 15.5161V15.0971C0.271265 15.0611 0.242109 15.032 0.206156 15.032H0.202359C0.166406 15.032 0.13725 15.0611 0.13725 15.0971V15.5161C0.13725 15.5521 0.10814 15.5812 0.0721874 15.5812H0.0650624C0.0291093 15.5812 0 15.552 0 15.5161V14.9631C0 14.9272 0.0291093 14.8981 0.0650624 14.8981H0.604218C0.640171 14.8981 0.669327 14.9272 0.669327 14.9631V15.1041C0.669327 15.1401 0.698436 15.1692 0.734436 15.1692H1.00931C1.04526 15.1692 1.07437 15.1401 1.07437 15.1041V15.0971C1.07437 15.0611 1.04526 15.032 1.00931 15.032H0.871873C0.83592 15.032 0.806764 15.0028 0.806764 14.9669V14.9632C0.806717 14.9272 0.835873 14.8981 0.871827 14.8981Z" fill="#F5F5F5"/>
<path d="M23.9348 14.4828H22.8584C22.8225 14.4828 22.7934 14.5119 22.7934 14.5479V14.6923C22.7934 14.7282 22.8225 14.7574 22.8584 14.7574H23.9348C23.9708 14.7574 23.9999 14.7282 23.9999 14.6923V14.5479C23.9999 14.5119 23.9708 14.4828 23.9348 14.4828ZM22.5926 14.4828H21.5179C21.482 14.4828 21.4529 14.5119 21.4529 14.5479V14.6923C21.4529 14.7282 21.482 14.7574 21.5179 14.7574H22.5926C22.6286 14.7574 22.6578 14.7282 22.6578 14.6923V14.5479C22.6578 14.5119 22.6286 14.4828 22.5926 14.4828Z" fill="#F5F5F5"/>
<path d="M21.2522 14.4828H20.1775C20.1416 14.4828 20.1124 14.5119 20.1124 14.5479V14.6923C20.1124 14.7282 20.1416 14.7574 20.1775 14.7574H21.2522C21.2882 14.7574 21.3174 14.7282 21.3174 14.6923V14.5479C21.3173 14.5119 21.2881 14.4828 21.2522 14.4828ZM19.9134 14.4828H18.8353C18.7994 14.4828 18.7703 14.5119 18.7703 14.5479V14.6923C18.7703 14.7282 18.7994 14.7574 18.8353 14.7574H19.9134C19.9494 14.7574 19.9786 14.7282 19.9786 14.6923V14.5479C19.9786 14.5119 19.9494 14.4828 19.9134 14.4828Z" fill="#F5F5F5"/>
<path d="M18.5712 14.4828H17.4949C17.4589 14.4828 17.4297 14.5119 17.4297 14.5479V14.6923C17.4297 14.7282 17.4589 14.7574 17.4949 14.7574H18.5712C18.6072 14.7574 18.6364 14.7282 18.6364 14.6923V14.5479C18.6364 14.5119 18.6072 14.4828 18.5712 14.4828ZM17.2308 14.4828H16.1544C16.1185 14.4828 16.0894 14.5119 16.0894 14.5479V14.6923C16.0894 14.7282 16.1185 14.7574 16.1544 14.7574H17.2308C17.2668 14.7574 17.2959 14.7282 17.2959 14.6923V14.5479C17.2959 14.5119 17.2667 14.4828 17.2308 14.4828Z" fill="#F5F5F5"/>
<path d="M15.8902 14.4828H14.8138C14.7779 14.4828 14.7488 14.5119 14.7488 14.5479V14.6923C14.7488 14.7282 14.7779 14.7574 14.8138 14.7574H15.8902C15.9262 14.7574 15.9553 14.7282 15.9553 14.6923V14.5479C15.9553 14.5119 15.9261 14.4828 15.8902 14.4828ZM14.5514 14.4828H13.4733C13.4374 14.4828 13.4082 14.5119 13.4082 14.5479V14.6923C13.4082 14.7282 13.4374 14.7574 13.4733 14.7574H14.5514C14.5874 14.7574 14.6165 14.7282 14.6165 14.6923V14.5479C14.6165 14.5119 14.5874 14.4828 14.5514 14.4828Z" fill="#F5F5F5"/>
<path d="M13.2094 14.4828H12.1329C12.0969 14.4828 12.0678 14.5119 12.0678 14.5479V14.6923C12.0678 14.7282 12.0969 14.7574 12.1329 14.7574H13.2094C13.2453 14.7574 13.2745 14.7282 13.2745 14.6923V14.5479C13.2744 14.5119 13.2453 14.4828 13.2094 14.4828ZM11.8689 14.4828H10.7924C10.7565 14.4828 10.7273 14.5119 10.7273 14.5479V14.6923C10.7273 14.7282 10.7564 14.7574 10.7924 14.7574H11.8689C11.9048 14.7574 11.9339 14.7282 11.9339 14.6923V14.5479C11.9339 14.5119 11.9048 14.4828 11.8689 14.4828Z" fill="#F5F5F5"/>
<path d="M10.5285 14.4828H9.45198C9.41602 14.4828 9.38692 14.5119 9.38692 14.5479V14.6923C9.38692 14.7282 9.41602 14.7574 9.45198 14.7574H10.5285C10.5644 14.7574 10.5936 14.7282 10.5936 14.6923V14.5479C10.5936 14.5119 10.5644 14.4828 10.5285 14.4828ZM9.1862 14.4828H8.1115C8.07554 14.4828 8.04639 14.5119 8.04639 14.5479V14.6923C8.04639 14.7282 8.07554 14.7574 8.1115 14.7574H9.1862C9.22215 14.7574 9.25126 14.7282 9.25126 14.6923V14.5479C9.25131 14.5119 9.22215 14.4828 9.1862 14.4828Z" fill="#F5F5F5"/>
<path d="M7.84746 14.4828H6.77098C6.73502 14.4828 6.70587 14.5119 6.70587 14.5479V14.6923C6.70587 14.7282 6.73498 14.7574 6.77098 14.7574H7.84746C7.88341 14.7574 7.91257 14.7282 7.91257 14.6923V14.5479C7.91257 14.5119 7.88341 14.4828 7.84746 14.4828ZM6.5052 14.4828H5.43059C5.39463 14.4828 5.36548 14.5119 5.36548 14.5479V14.6923C5.36548 14.7282 5.39459 14.7574 5.43059 14.7574H6.5052C6.54115 14.7574 6.5703 14.7282 6.5703 14.6923V14.5479C6.57026 14.5119 6.54115 14.4828 6.5052 14.4828Z" fill="#F5F5F5"/>
<path d="M5.16464 14.4828H4.08999C4.05404 14.4828 4.02493 14.5119 4.02493 14.5479V14.6923C4.02493 14.7282 4.05404 14.7574 4.08999 14.7574H5.16469C5.20064 14.7574 5.2298 14.7282 5.2298 14.6923V14.5479C5.2298 14.5119 5.2006 14.4828 5.16464 14.4828ZM3.82416 14.4828H2.74768C2.71173 14.4828 2.68262 14.5119 2.68262 14.5479V14.6923C2.68262 14.7282 2.71173 14.7574 2.74768 14.7574H3.82416C3.86011 14.7574 3.88927 14.7282 3.88927 14.6923V14.5479C3.88927 14.5119 3.86011 14.4828 3.82416 14.4828Z" fill="#F5F5F5"/>
<path d="M2.48371 14.4828H1.40728C1.37133 14.4828 1.34217 14.5119 1.34217 14.5479V14.6923C1.34217 14.7282 1.37128 14.7574 1.40728 14.7574H2.48376C2.51971 14.7574 2.54882 14.7282 2.54882 14.6923V14.5479C2.54882 14.5119 2.51967 14.4828 2.48371 14.4828ZM1.14319 14.4828H0.0650624C0.0291093 14.4828 0 14.5119 0 14.5479V14.6923C0 14.7282 0.0291093 14.7574 0.0650624 14.7574H1.14319C1.17914 14.7574 1.20829 14.7282 1.20829 14.6923V14.5479C1.20834 14.5119 1.17919 14.4828 1.14319 14.4828Z" fill="#F5F5F5"/>
<path d="M11.6578 10.0441C11.7807 10.0768 11.9116 10.0408 12.0016 9.94914C12.1375 10.0867 12.3601 10.09 12.5008 9.95575C12.5925 9.86734 12.6301 9.73309 12.5974 9.61197C12.4779 9.80514 12.2259 9.86734 12.0327 9.74617C12.0229 9.73956 12.0098 9.73305 12.0016 9.72653C11.82 9.86073 11.563 9.82473 11.4255 9.64473C11.4205 9.63484 11.4108 9.62177 11.4042 9.61202C11.3551 9.80186 11.4696 9.99822 11.6578 10.0441Z" fill="#FF4B55"/>
<path d="M12.4202 13.8682C12.8602 13.6266 13.2274 13.2461 13.4287 12.7448C13.7716 11.8856 13.5556 10.9157 12.8998 10.2867C12.8773 10.265 12.843 10.294 12.8594 10.3206C13.5062 11.3754 13.2514 12.7616 12.2505 13.5211L12.2983 10.457C12.299 10.4155 12.2804 10.3759 12.2481 10.3497L12.0853 10.2181C12.0354 10.1778 11.9642 10.178 11.9146 10.2185L11.7542 10.3497C11.7222 10.3758 11.7039 10.4152 11.7046 10.4565L11.7511 13.5228C10.75 12.7637 10.4946 11.3762 11.1405 10.3207C11.1568 10.2941 11.1225 10.2651 11.1 10.2868C10.4455 10.9159 10.2282 11.8857 10.571 12.7448C10.7723 13.246 11.1394 13.6266 11.5795 13.8682C11.2995 13.9641 11.0051 14.0151 10.7074 14.0066C10.676 14.0057 10.6697 14.0499 10.6998 14.059C11.078 14.1738 11.4669 14.1817 11.8327 14.0997L11.9762 14.3783C11.9862 14.3975 12.0137 14.3976 12.0237 14.3783L12.1682 14.0998C12.534 14.1817 12.9231 14.1737 13.3015 14.0589C13.3316 14.0498 13.3254 14.0055 13.2939 14.0064C12.9959 14.015 12.7008 13.9641 12.4202 13.8682Z" fill="#FF4B55"/>
<path d="M14.2111 11.0196C13.9859 10.5989 13.612 10.28 13.1668 10.1238C13.1389 10.114 13.1171 10.1508 13.1399 10.1696C14.1227 10.9792 14.3197 12.4211 13.5596 13.465C13.5203 13.5174 13.4777 13.5731 13.4368 13.6188C14.3699 13.118 14.7153 11.9526 14.2111 11.0196Z" fill="#FF4B55"/>
<path d="M10.4417 13.465C9.68173 12.4211 9.87715 10.9793 10.8597 10.1697C10.8826 10.1509 10.8608 10.1141 10.8329 10.1238C10.3883 10.2801 10.0169 10.5989 9.79025 11.0196C9.28287 11.9526 9.63153 13.118 10.5661 13.6188C10.522 13.573 10.4794 13.5174 10.4417 13.465Z" fill="#FF4B55"/>
</svg>
