<svg width="24" height="24" viewBox="0 0 24 24" fill="none" xmlns="http://www.w3.org/2000/svg">
<path d="M22.2026 4.13794H1.79742C0.804703 4.13794 0 4.94264 0 5.93536V9.37931H24V5.93536C24 4.94264 23.1953 4.13794 22.2026 4.13794Z" fill="#FFE15A"/>
<path d="M0 18.0647C0 19.0573 0.804703 19.8621 1.79742 19.8621H22.2026C23.1952 19.8621 24 19.0574 24 18.0647V14.6207H0V18.0647Z" fill="#FF4B55"/>
<path d="M24 9.37921H0V14.6203H24V9.37921Z" fill="#41479B"/>
<path d="M8.35039 13.0077L8.45408 13.3186L8.78178 13.3211C8.8242 13.3215 8.84183 13.3756 8.8077 13.4008L8.54408 13.5955L8.64294 13.908C8.65573 13.9485 8.60966 13.9819 8.57511 13.9572L8.30849 13.7666L8.04186 13.9572C8.00736 13.9819 7.96128 13.9484 7.97403 13.908L8.07289 13.5955L7.80927 13.4008C7.77514 13.3756 7.79272 13.3215 7.83519 13.3211L8.16298 13.3186L8.26667 13.0077C8.28003 12.9675 8.33698 12.9675 8.35039 13.0077Z" fill="#F5F5F5"/>
<path d="M8.98703 12.0179L8.93148 12.341L9.21911 12.4981C9.25633 12.5184 9.24625 12.5745 9.20425 12.5805L8.87987 12.6275L8.81931 12.9496C8.81144 12.9913 8.75509 12.9991 8.7363 12.961L8.59136 12.667L8.26628 12.709C8.22419 12.7144 8.19939 12.6631 8.22981 12.6336L8.46466 12.4049L8.32431 12.1087C8.30617 12.0703 8.34723 12.0309 8.38478 12.0507L8.6748 12.2034L8.91316 11.9784C8.94405 11.9492 8.9942 11.9761 8.98703 12.0179Z" fill="#F5F5F5"/>
<path d="M9.79284 11.1516L9.639 11.4411L9.86301 11.6803C9.89203 11.7112 9.86494 11.7613 9.82312 11.7539L9.50029 11.697L9.342 11.9841C9.32151 12.0212 9.2655 12.0109 9.25959 11.9689L9.21394 11.6443L8.89204 11.5825C8.85037 11.5745 8.84287 11.518 8.88103 11.4994L9.17559 11.3557L9.13495 11.0305C9.12965 10.9884 9.18103 10.9638 9.21051 10.9943L9.43819 11.23L9.7349 11.0909C9.77348 11.0729 9.81272 11.1141 9.79284 11.1516Z" fill="#F5F5F5"/>
<path d="M10.7626 10.6142L10.5365 10.8515L10.6878 11.1422C10.7074 11.1798 10.6678 11.2207 10.6295 11.2024L10.334 11.0606L10.1042 11.2943C10.0745 11.3246 10.0233 11.2995 10.0289 11.2575L10.0724 10.9326L9.77912 10.7862C9.74115 10.7673 9.74912 10.7109 9.79083 10.7032L10.1132 10.6442L10.1618 10.3201C10.168 10.2781 10.2241 10.2683 10.2443 10.3057L10.4 10.594L10.7233 10.54C10.7652 10.5331 10.7918 10.5835 10.7626 10.6142Z" fill="#F5F5F5"/>
<path d="M11.877 10.3651L11.5955 10.5331L11.6634 10.8538C11.6722 10.8953 11.623 10.9241 11.5911 10.8962L11.3444 10.6805L11.0604 10.8441C11.0236 10.8653 10.981 10.8274 10.9978 10.7884L11.1267 10.4871L10.8833 10.2675C10.8518 10.2391 10.8747 10.187 10.9169 10.1908L11.2433 10.2203L11.3769 9.921C11.3942 9.88228 11.4509 9.88781 11.4603 9.92916L11.5332 10.2487L11.8591 10.2833C11.9011 10.2878 11.9134 10.3434 11.877 10.3651Z" fill="#F5F5F5"/>
<path d="M15.6496 13.0077L15.5459 13.3186L15.2182 13.3211C15.1758 13.3215 15.1582 13.3756 15.1923 13.4008L15.4559 13.5955L15.3571 13.908C15.3443 13.9485 15.3904 13.9819 15.4249 13.9572L15.6915 13.7666L15.9582 13.9572C15.9927 13.9819 16.0387 13.9484 16.026 13.908L15.9271 13.5955L16.1908 13.4008C16.2249 13.3756 16.2073 13.3215 16.1649 13.3211L15.8372 13.3186L15.7335 13.0077C15.72 12.9675 15.6631 12.9675 15.6496 13.0077Z" fill="#F5F5F5"/>
<path d="M15.0131 12.0179L15.0687 12.341L14.7811 12.4981C14.7438 12.5184 14.7539 12.5745 14.7959 12.5805L15.1203 12.6275L15.1809 12.9496C15.1887 12.9913 15.2451 12.9991 15.2639 12.961L15.4088 12.667L15.7339 12.709C15.776 12.7144 15.8008 12.6631 15.7704 12.6336L15.5355 12.4049L15.6759 12.1087C15.694 12.0703 15.6529 12.0309 15.6154 12.0507L15.3254 12.2034L15.087 11.9784C15.0561 11.9492 15.006 11.9761 15.0131 12.0179Z" fill="#F5F5F5"/>
<path d="M14.2073 11.1516L14.3611 11.4411L14.1371 11.6803C14.1081 11.7112 14.1352 11.7613 14.177 11.7539L14.4998 11.697L14.6581 11.9841C14.6786 12.0212 14.7346 12.0109 14.7405 11.9689L14.7862 11.6443L15.1081 11.5825C15.1497 11.5745 15.1572 11.518 15.1191 11.4994L14.8245 11.3557L14.8651 11.0305C14.8704 10.9884 14.819 10.9638 14.7896 10.9943L14.5619 11.23L14.2652 11.0909C14.2266 11.0729 14.1874 11.1141 14.2073 11.1516Z" fill="#F5F5F5"/>
<path d="M13.2377 10.6142L13.4638 10.8515L13.3125 11.1422C13.2929 11.1798 13.3325 11.2207 13.3708 11.2024L13.6663 11.0606L13.8961 11.2943C13.9259 11.3246 13.977 11.2995 13.9714 11.2575L13.9279 10.9326L14.2212 10.7862C14.2591 10.7673 14.2512 10.7109 14.2094 10.7032L13.887 10.6442L13.8385 10.3201C13.8322 10.2781 13.7761 10.2683 13.756 10.3057L13.6003 10.594L13.277 10.54C13.2351 10.5331 13.2084 10.5835 13.2377 10.6142Z" fill="#F5F5F5"/>
<path d="M12.1231 10.3651L12.4046 10.5331L12.3367 10.8538C12.3279 10.8953 12.3771 10.9241 12.409 10.8962L12.6557 10.6805L12.9397 10.8441C12.9765 10.8653 13.0191 10.8274 13.0023 10.7884L12.8734 10.4871L13.1168 10.2675C13.1483 10.2391 13.1254 10.187 13.0832 10.1908L12.7568 10.2203L12.6232 9.921C12.6059 9.88228 12.5492 9.88781 12.5398 9.92916L12.4669 10.2487L12.141 10.2833C12.099 10.2878 12.0867 10.3434 12.1231 10.3651Z" fill="#F5F5F5"/>
</svg>
