<svg width="24" height="24" viewBox="0 0 24 24" fill="none" xmlns="http://www.w3.org/2000/svg">
<path d="M22.2026 4.13788H1.79742C0.804703 4.13788 0 4.94258 0 5.9353V18.0647C0 19.0573 0.804703 19.8621 1.79742 19.8621H22.2026C23.1952 19.8621 24 19.0574 24 18.0647V5.9353C24 4.94258 23.1953 4.13788 22.2026 4.13788Z" fill="#FFE15A"/>
<path d="M23.3794 5.37933H0.620605V18.6206H23.3794V5.37933Z" fill="#41479B"/>
<path d="M0.620605 5.37927L11.9999 11.9999L6.31034 5.37932L0.620605 5.37927Z" fill="#FF4B55"/>
<path d="M12 11.9999V5.37927L17.6897 5.37932L12 11.9999Z" fill="#FF4B55"/>
<path d="M23.3793 5.37927L12 11.9999L23.3793 8.68959V5.37927Z" fill="#FF4B55"/>
<path d="M12 11.9999H23.3793V15.3103L12 11.9999Z" fill="#FF4B55"/>
<path d="M12 11.9999L0.62085 8.68967V12L12 11.9999Z" fill="#FF4B55"/>
<path d="M0.62085 15.3104L12 11.9999L0.62085 18.6207V15.3104Z" fill="#FF4B55"/>
<path d="M12.1904 10.7889L13.6742 7.36688L12.5786 10.9322L12.1904 10.7889Z" fill="#FFE15A"/>
<path d="M14.1444 12.7568C14.1767 12.6652 14.2049 12.5719 14.2254 12.4754L16.6984 12.6947L14.2657 12.203C14.2717 12.136 14.2759 12.0685 14.2759 12C14.2759 11.934 14.2716 11.869 14.266 11.8045L16.6789 11.2964L14.2278 11.5338C14.2063 11.4308 14.1758 11.3313 14.1409 11.2338L16.3312 10.0888L14.0334 10.9819C13.9749 10.8653 13.9066 10.7547 13.8297 10.6506L15.6459 8.976L13.6542 10.44C13.443 10.2161 13.1881 10.0343 12.9016 9.9105L13.6249 7.55658L12.6444 9.81811C12.4399 9.75774 12.2241 9.72408 12.0002 9.72408C11.7744 9.72408 11.5568 9.75807 11.351 9.81928L10.3698 7.55649L11.0939 9.91271C10.8084 10.0369 10.5543 10.2187 10.3439 10.4423L8.34892 8.97586L10.1684 10.6535C10.0919 10.7573 10.0242 10.8674 9.96601 10.9836L7.66356 10.0886L9.85853 11.2362C9.82403 11.3331 9.7937 11.4318 9.77242 11.5342L7.31589 11.2962L9.73417 11.8056C9.72868 11.8697 9.72432 11.9342 9.72432 11.9999C9.72432 12.068 9.72864 12.1351 9.7345 12.2018L7.29639 12.6946L9.77476 12.4748C9.79515 12.5706 9.82309 12.6633 9.85511 12.7542L7.66942 13.8711L9.96072 13.005C10.3322 13.7571 11.1047 14.2758 12.0002 14.2758C12.8951 14.2758 13.6672 13.758 14.0389 13.0068L16.3255 13.8712L14.1444 12.7568Z" fill="#FFE15A"/>
<path d="M23.3793 18.6206L12.26 12.1513C12.0992 12.0578 11.9006 12.0578 11.7398 12.1513L0.620605 18.6206H23.3793Z" fill="#F5F5F5"/>
<path d="M12.0019 15.3327C12.0494 15.3327 12.088 15.2941 12.088 15.2466C12.088 15.199 12.0494 15.1605 12.0019 15.1605C11.9543 15.1605 11.9158 15.199 11.9158 15.2466C11.9158 15.2941 11.9543 15.3327 12.0019 15.3327Z" fill="#FF4B55"/>
<path d="M11.8705 12.3621C12.1288 12.6814 11.7109 12.8411 11.7625 13.1464C11.7625 13.1464 11.678 13.0196 11.7109 12.8411C11.7437 12.6627 11.631 12.6063 11.631 12.6063C11.631 12.6063 11.6826 12.8082 11.5558 12.921C11.429 13.0336 11.4666 13.292 11.4666 13.292C11.4666 13.292 11.307 13.184 11.3398 13.0196C11.3398 13.0196 11.1238 13.2075 11.3163 13.5221C11.3163 13.5221 11.1895 13.5127 11.1425 13.4329C11.1425 13.4329 11.03 13.764 11.4831 14.0165C11.9362 14.2689 12.002 13.6678 12.002 13.6678L12.326 14.0717C12.326 14.0717 12.7143 14.0607 12.899 13.6443L12.6767 13.685C12.6908 13.5675 12.9883 13.5363 12.8708 13.184C12.8708 13.184 12.8614 13.2592 12.7769 13.3109C12.7769 13.3109 12.78 13.0682 12.6047 12.9085C12.6047 12.9085 12.5984 13.0384 12.5421 13.0854C12.5421 13.0854 12.5609 12.9179 12.4576 12.7864C12.3589 12.6607 12.3496 12.5453 12.3496 12.5453C12.3496 12.5453 12.2322 12.7613 12.2744 12.8693C12.2744 12.8693 12.1765 12.8455 12.1664 12.7144C12.1445 12.4294 11.8705 12.3621 11.8705 12.3621Z" fill="#FF4B55"/>
<path d="M12.0018 15.2391C12.4066 15.2391 12.7348 15.0985 12.7348 14.925C12.7348 14.7515 12.4066 14.6108 12.0018 14.6108C11.597 14.6108 11.2688 14.7515 11.2688 14.925C11.2688 15.0985 11.597 15.2391 12.0018 15.2391Z" fill="#FFE15A"/>
<path d="M12.0018 15.1406C12.3518 15.1406 12.6356 15.0135 12.6356 14.8566C12.6356 14.6997 12.3518 14.5725 12.0018 14.5725C11.6517 14.5725 11.3679 14.6997 11.3679 14.8566C11.3679 15.0135 11.6517 15.1406 12.0018 15.1406Z" fill="#FF4B55"/>
<path d="M12.1348 14.8935H11.869C11.8644 14.9764 11.9019 15.0966 12.0017 15.1402V15.1405C12.0017 15.1405 12.0018 15.1404 12.0018 15.1404C12.0018 15.1404 12.002 15.1405 12.0021 15.1405V15.1402C12.102 15.0965 12.1395 14.9764 12.1348 14.8935Z" fill="#FF82AA"/>
<path d="M12.3461 14.8424L12.105 14.899C12.1197 14.9806 12.1812 15.0897 12.2817 15.1109L12.2817 15.1112L12.2819 15.111C12.2819 15.111 12.282 15.1111 12.282 15.1111V15.1108C12.3627 15.0471 12.3693 14.9221 12.3461 14.8424Z" fill="#FF82AA"/>
<path d="M12.4708 14.7559L12.303 14.8658C12.3454 14.9371 12.435 15.0222 12.522 15.0173L12.5221 15.0175L12.5222 15.0173C12.5222 15.0173 12.5223 15.0173 12.5224 15.0173L12.5222 15.0171C12.5614 14.9393 12.5193 14.8231 12.4708 14.7559Z" fill="#FF82AA"/>
<path d="M12.4659 14.5859L12.3999 14.7526C12.4894 14.8665 12.6362 14.8548 12.6362 14.8548C12.6421 14.762 12.5264 14.6427 12.4659 14.5859Z" fill="#FF82AA"/>
<path d="M11.6555 14.8424L11.8965 14.899C11.8819 14.9806 11.8204 15.0897 11.7198 15.1109L11.7198 15.1112L11.7196 15.111L11.7195 15.1111L11.7195 15.1108C11.6389 15.0471 11.6323 14.9221 11.6555 14.8424Z" fill="#FF82AA"/>
<path d="M11.5307 14.7559L11.6985 14.8658C11.6561 14.9371 11.5665 15.0222 11.4795 15.0173L11.4794 15.0175L11.4794 15.0173L11.4792 15.0173L11.4793 15.0171C11.4401 14.9393 11.4823 14.8231 11.5307 14.7559Z" fill="#FF82AA"/>
<path d="M11.5357 14.5859L11.6017 14.7526C11.5122 14.8665 11.3655 14.8548 11.3655 14.8548C11.3595 14.762 11.4753 14.6427 11.5357 14.5859Z" fill="#FF82AA"/>
<path d="M12.0018 14.915C12.2859 14.915 12.5162 14.8118 12.5162 14.6845C12.5162 14.5572 12.2859 14.4539 12.0018 14.4539C11.7176 14.4539 11.4873 14.5572 11.4873 14.6845C11.4873 14.8118 11.7176 14.915 12.0018 14.915Z" fill="#FFE15A"/>
<path d="M12.0019 14.8343C12.2133 14.8343 12.3847 14.7672 12.3847 14.6845C12.3847 14.6017 12.2133 14.5347 12.0019 14.5347C11.7905 14.5347 11.6191 14.6017 11.6191 14.6845C11.6191 14.7672 11.7905 14.8343 12.0019 14.8343Z" fill="#FF4B55"/>
<path d="M12.0408 17.2745C11.7906 17.2958 11.5708 17.1098 11.5495 16.86C11.5385 16.7351 11.6316 16.6248 11.7566 16.6142C11.8817 16.6036 11.9916 16.6963 12.0022 16.8214C12.0128 16.9465 12.123 17.039 12.2478 17.0287C12.373 17.0181 12.4658 16.9077 12.4549 16.7828C12.4763 17.0331 12.2908 17.2532 12.0408 17.2745Z" fill="#41479B"/>
<path d="M11.5495 16.86C11.5386 16.7351 11.6316 16.6249 11.7567 16.6143C11.8817 16.6036 11.9916 16.6964 12.0022 16.8215C12.0129 16.9466 12.123 17.0391 12.2479 17.0287C12.373 17.0181 12.4659 16.9077 12.455 16.7829C12.4341 16.5324 12.214 16.3472 11.9638 16.3684C11.7138 16.3898 11.5282 16.6098 11.5495 16.86Z" fill="#FF9B55"/>
<path d="M12.0022 16.0774C11.5913 16.0774 11.2583 16.4105 11.2583 16.8213C11.2583 17.2322 11.5913 17.5652 12.0022 17.5652C12.4131 17.5652 12.7461 17.2321 12.7461 16.8213C12.7461 16.4105 12.4131 16.0774 12.0022 16.0774ZM12.0022 17.4103C11.677 17.4103 11.4133 17.1466 11.4133 16.8214C11.4133 16.4961 11.6769 16.2324 12.0022 16.2324C12.3275 16.2324 12.5911 16.4961 12.5911 16.8214C12.5911 17.1466 12.3275 17.4103 12.0022 17.4103Z" fill="#FFE15A"/>
<path d="M12.0023 16.2324C11.677 16.2324 11.4133 16.4961 11.4133 16.8214C11.4133 17.1466 11.677 17.4103 12.0023 17.4103C12.3275 17.4103 12.5912 17.1466 12.5912 16.8214C12.5912 16.4961 12.3275 16.2324 12.0023 16.2324ZM12.0023 17.2724C11.7531 17.2724 11.5511 17.0705 11.5511 16.8213C11.5511 16.5722 11.7531 16.3702 12.0023 16.3702C12.2514 16.3702 12.4534 16.5722 12.4534 16.8213C12.4534 17.0705 12.2515 17.2724 12.0023 17.2724Z" fill="#FF4B55"/>
<path d="M11.7736 16.8778C11.805 16.8778 11.8304 16.8524 11.8304 16.821C11.8304 16.7897 11.805 16.7642 11.7736 16.7642C11.7422 16.7642 11.7168 16.7897 11.7168 16.821C11.7168 16.8524 11.7422 16.8778 11.7736 16.8778Z" fill="#FF9B55"/>
<path d="M12.2282 16.8778C12.2596 16.8778 12.285 16.8524 12.285 16.821C12.285 16.7897 12.2596 16.7642 12.2282 16.7642C12.1968 16.7642 12.1714 16.7897 12.1714 16.821C12.1714 16.8524 12.1968 16.8778 12.2282 16.8778Z" fill="#41479B"/>
<path d="M12.0017 15.9636C12.0398 15.9636 12.0706 15.9328 12.0706 15.8948C12.0706 15.8568 12.0398 15.8259 12.0017 15.8259C11.9637 15.8259 11.9329 15.8568 11.9329 15.8948C11.9329 15.9328 11.9637 15.9636 12.0017 15.9636Z" fill="#FF4B55"/>
<path d="M12.0708 16.0836C12.1088 16.0836 12.1397 16.0528 12.1397 16.0148C12.1397 15.9768 12.1088 15.9459 12.0708 15.9459C12.0328 15.9459 12.002 15.9768 12.002 16.0148C12.002 16.0528 12.0328 16.0836 12.0708 16.0836Z" fill="#FF4B55"/>
<path d="M11.9334 16.0836C11.9714 16.0836 12.0022 16.0528 12.0022 16.0148C12.0022 15.9768 11.9714 15.9459 11.9334 15.9459C11.8953 15.9459 11.8645 15.9768 11.8645 16.0148C11.8645 16.0528 11.8953 16.0836 11.9334 16.0836Z" fill="#FF4B55"/>
<path d="M12.0017 17.819C12.0398 17.819 12.0706 17.7881 12.0706 17.7501C12.0706 17.7121 12.0398 17.6812 12.0017 17.6812C11.9637 17.6812 11.9329 17.7121 11.9329 17.7501C11.9329 17.7881 11.9637 17.819 12.0017 17.819Z" fill="#FF4B55"/>
<path d="M11.9334 17.699C11.9714 17.699 12.0022 17.6681 12.0022 17.6301C12.0022 17.5921 11.9714 17.5612 11.9334 17.5612C11.8953 17.5612 11.8645 17.5921 11.8645 17.6301C11.8645 17.6681 11.8953 17.699 11.9334 17.699Z" fill="#FF4B55"/>
<path d="M12.0708 17.699C12.1088 17.699 12.1397 17.6681 12.1397 17.6301C12.1397 17.5921 12.1088 17.5612 12.0708 17.5612C12.0328 17.5612 12.002 17.5921 12.002 17.6301C12.002 17.6681 12.0328 17.699 12.0708 17.699Z" fill="#FF4B55"/>
<path d="M11.8762 13.946C11.8289 13.6822 11.7026 13.4841 11.5941 13.5035C11.4856 13.523 11.4359 13.7526 11.4832 14.0164C11.5174 14.2068 11.5929 14.3599 11.6729 14.4247C11.6398 14.4814 11.6197 14.5679 11.6193 14.6749C11.6788 14.68 11.74 14.6797 11.8029 14.6685C11.8657 14.6572 11.9233 14.6362 11.9773 14.6108C11.9397 14.5106 11.8908 14.4365 11.8401 14.3948C11.8925 14.3062 11.9103 14.1364 11.8762 13.946Z" fill="#FF9B55"/>
<path d="M12.1265 13.946C12.1738 13.6822 12.3 13.4841 12.4085 13.5035C12.5171 13.523 12.5667 13.7526 12.5194 14.0164C12.4853 14.2068 12.4098 14.3599 12.3297 14.4247C12.3628 14.4814 12.3829 14.5679 12.3833 14.6749C12.3239 14.68 12.2627 14.6797 12.1998 14.6685C12.1369 14.6572 12.0793 14.6362 12.0254 14.6108C12.063 14.5106 12.1119 14.4365 12.1625 14.3948C12.11 14.3062 12.0923 14.1364 12.1265 13.946Z" fill="#41479B"/>
<path d="M12.2039 13.9399C12.2039 13.6493 12.1145 13.4137 12.0043 13.4137C11.8941 13.4137 11.8047 13.6493 11.8047 13.9399C11.8047 14.1497 11.8521 14.3274 11.9193 14.412C11.8768 14.4662 11.8418 14.5546 11.8225 14.6688C11.8801 14.6856 11.9404 14.697 12.0043 14.697C12.0682 14.697 12.1285 14.6856 12.1861 14.6688C12.1667 14.5546 12.1317 14.4662 12.0892 14.412C12.1565 14.3274 12.2039 14.1496 12.2039 13.9399Z" fill="#F5F5F5"/>
<path d="M12.0022 14.4895C11.8721 14.4895 11.7528 14.4774 11.6753 14.456C11.6486 14.4489 11.6329 14.4216 11.6402 14.3948C11.6476 14.3683 11.6757 14.3507 11.7014 14.3601C11.8386 14.3967 12.1657 14.3967 12.3029 14.3601C12.3296 14.3504 12.3569 14.3683 12.3641 14.3948C12.3713 14.4217 12.3557 14.449 12.329 14.456C12.2515 14.4774 12.1322 14.4895 12.0022 14.4895Z" fill="#FFE15A"/>
<path d="M11.5747 15.2787C11.6287 15.2716 11.6968 15.2552 11.7016 15.173C11.7016 15.173 11.5794 15.1613 11.5794 15.1707C11.5794 15.18 11.5747 15.2787 11.5747 15.2787Z" fill="#FFE15A"/>
<path d="M10.3489 14.9734C10.4099 14.9906 10.4694 15.0031 10.4882 15.0783C10.4882 15.0783 10.5509 14.9531 10.4632 14.8779C10.4472 14.8642 10.3489 14.9734 10.3489 14.9734Z" fill="#FF4B55"/>
<path d="M10.6086 14.7636C10.6697 14.7808 10.7292 14.7933 10.748 14.8685C10.748 14.8685 10.8106 14.7433 10.723 14.6681C10.7069 14.6544 10.6086 14.7636 10.6086 14.7636Z" fill="#FF4B55"/>
<path d="M10.3678 15.1988C10.3303 15.1894 10.2645 15.1049 10.349 14.9734C10.4336 14.8419 10.0625 15.0391 10.0485 15.1472C10.0344 15.2552 10.0203 15.4478 10.1049 15.3962C10.1894 15.3444 10.3678 15.1988 10.3678 15.1988Z" fill="#FFE15A"/>
<path d="M10.77 15.2129C10.7826 15.144 10.77 15.097 10.8577 15.0344C10.9454 14.9719 10.9579 14.9374 10.9579 14.8966C10.9579 14.8966 10.9102 14.9475 10.8255 14.9686C10.7738 14.9816 10.7293 15.0187 10.7293 15.0187C10.7293 15.0187 10.7073 14.9405 10.7857 14.8966C10.7857 14.8966 10.6478 14.8966 10.626 15.0218C10.6041 15.147 10.6761 15.1659 10.5728 15.1784C10.4694 15.1909 10.2284 15.1409 10.1438 15.3318C10.0593 15.5228 10.316 15.385 10.3849 15.36C10.4538 15.335 10.673 15.3882 10.7074 15.3412C10.7419 15.2943 10.77 15.2129 10.77 15.2129Z" fill="#FF4B55"/>
<path d="M9.86749 15.5558L10.2385 14.9453C10.2385 14.9453 10.6072 14.8028 10.6103 14.784C10.6135 14.7652 10.7324 14.6118 10.7324 14.5898C10.7324 14.5679 10.7199 14.4615 10.6729 14.4427C10.626 14.4239 10.4764 14.4871 10.4115 14.5036C10.3465 14.5202 10.244 14.3989 10.244 14.3989C10.244 14.3989 9.64596 14.5116 9.60208 14.5837C9.55825 14.6557 9.35158 15.1723 9.34221 15.2256C9.33279 15.2788 9.34221 15.6451 9.35472 15.6389C9.36729 15.6324 9.86749 15.5558 9.86749 15.5558Z" fill="#FFF5E6"/>
<path d="M10.7545 14.4991C10.6981 14.4176 10.5948 14.4176 10.551 14.4834C10.5071 14.5492 10.4132 14.5492 10.3913 14.6306C10.374 14.6949 10.479 14.8122 10.5416 14.7902C10.6043 14.7683 10.7201 14.6963 10.7201 14.6963C10.7201 14.6963 10.8109 14.5804 10.7545 14.4991ZM10.583 14.6648C10.5573 14.6977 10.4928 14.6568 10.4924 14.6203C10.492 14.5839 10.5459 14.5818 10.5726 14.6008C10.5901 14.6131 10.604 14.638 10.583 14.6648ZM10.6795 14.5836C10.642 14.6017 10.6021 14.5366 10.6179 14.5037C10.6336 14.4708 10.6828 14.4927 10.6984 14.5216C10.7087 14.5404 10.7102 14.5689 10.6795 14.5836Z" fill="#FF4B55"/>
<path d="M10.8731 16.8676C10.9355 16.8739 11.0181 16.8653 11.0352 16.7241C11.0549 16.5623 11.1038 16.5058 11.1849 16.5432C11.2659 16.5807 11.2459 16.6453 11.2459 16.6453C11.2459 16.6453 11.3351 16.8801 11.2881 16.974C11.2412 17.068 11.1332 17.1807 11.0533 17.1995C10.9734 17.2183 10.8091 17.1103 10.8091 17.1103L10.8731 16.8676Z" fill="#FFF5E6"/>
<path d="M10.4226 16.3213C10.4758 16.2963 11.1333 15.8392 11.2116 15.6669C11.2899 15.4947 11.2461 15.3694 11.3495 15.3632C11.4528 15.3569 11.6281 15.3507 11.6125 15.2223C11.5968 15.0939 11.4246 15.1753 11.3776 15.1503C11.3307 15.1253 11.1835 15.0564 11.1553 15.1566C11.1271 15.2568 11.1553 15.3476 11.1146 15.3977C11.0739 15.4478 10.8923 15.5355 10.861 15.5291C10.8297 15.5229 10.7629 15.5147 10.7117 15.547C10.6606 15.5793 10.6324 15.6231 10.6324 15.6231C10.6324 15.6231 10.4398 15.6309 10.4124 15.6567C10.385 15.6826 10.2817 15.8203 10.2817 15.8203L10.4226 16.3213Z" fill="#FFE6D7"/>
<path d="M10.4915 16.218C10.4915 16.218 10.6167 16.171 10.706 15.9972C10.7952 15.8234 10.8844 15.8939 11.016 15.7999C11.1475 15.706 11.0629 15.5651 11.0254 15.5087C10.9878 15.4524 11.0137 15.3068 11.1428 15.3114C11.2278 15.3145 11.4998 15.5792 11.3777 15.8422C11.3777 15.8422 11.3589 15.7952 11.3119 15.7388C11.3119 15.7388 11.3824 15.9126 11.218 16.1052C11.218 16.1052 11.2227 16.0066 11.171 15.9408C11.171 15.9408 11.1663 16.185 10.9785 16.34C10.9785 16.34 11.002 16.1803 10.9738 16.1146C10.9738 16.1146 10.9456 16.3259 10.6685 16.5185C10.6685 16.5185 10.7108 16.4433 10.7014 16.3212L10.4666 16.4433L10.4915 16.218Z" fill="#5AA587"/>
<path d="M8.70504 17.0211C8.70504 17.0211 8.62053 17.2794 8.85064 17.3546C9.08075 17.4297 9.20759 17.3311 9.29211 17.3546C9.37662 17.3781 9.35782 17.5284 9.24045 17.6551C9.12303 17.782 9.00561 17.796 8.87407 17.7021C8.74259 17.6082 8.73317 17.5237 8.597 17.5565C8.46082 17.5894 8.27295 17.4579 8.27295 17.4579C8.27295 17.4579 8.39506 16.9272 8.40912 16.9319C8.42328 16.9365 8.70504 17.0211 8.70504 17.0211Z" fill="#F5DCD2"/>
<path d="M7.51096 16.3749C7.51096 16.3749 7.6731 16.2189 8.30315 16.0256C8.93315 15.8322 9.26999 15.7511 9.26999 15.7511L9.76279 15.5952C9.76279 15.5952 9.99473 15.5943 10.1469 15.5511C10.2992 15.5078 10.2992 15.5078 10.2992 15.5078C10.2992 15.5078 10.7047 16.0817 10.3991 16.6618L10.5051 16.7617C10.5051 16.7617 10.6166 16.7957 10.7012 16.8255C10.7858 16.8553 10.7234 17.0174 10.7234 17.0174L10.399 17.1671L9.45088 17.1234C9.45088 17.1234 9.43218 17.0798 9.12027 17.1795C8.80837 17.2794 8.67116 17.0548 8.07234 17.0361C7.47351 17.0174 7.51096 16.3749 7.51096 16.3749Z" fill="#FFF5E6"/>
<path d="M10.2066 14.1359C10.2066 14.1359 10.3021 14.2313 10.2504 14.3331C10.2504 14.3331 10.144 14.2235 10.0563 14.1984C9.92136 14.1599 9.89347 14.2336 9.59525 14.2477C9.40761 14.2566 9.33181 14.4364 9.1483 14.3926C8.95184 14.3456 8.7898 14.4356 8.7898 14.4356C8.7898 14.4356 8.90248 14.4216 8.99412 14.5085C9.08567 14.5953 9.24772 14.5765 9.24772 14.5765C9.24772 14.5765 9.09978 14.6799 8.97533 14.6305C8.85087 14.5812 8.67237 14.6728 8.67237 14.6728C8.70523 14.6705 8.77803 14.6822 8.86025 14.769C8.94247 14.8559 9.12566 14.8348 9.12566 14.8348C9.0928 14.8747 9.0012 14.9193 8.91467 14.9027C8.71855 14.8651 8.5092 14.9526 8.5092 14.9526C8.5092 14.9526 8.63398 14.909 8.80236 15.0337C8.97078 15.1585 9.16419 15.0837 9.16419 15.0837C9.16419 15.1648 8.99539 15.4771 8.69591 15.4665C8.32302 15.4534 8.22852 15.67 8.22852 15.67C8.22852 15.67 8.37819 15.6201 8.57159 15.6513C8.94617 15.7117 9.20159 15.4954 9.20159 15.4954C9.20159 15.4954 9.1392 15.7885 8.8835 15.7761C8.6278 15.7636 8.30342 16.0256 8.30342 16.0256C8.30342 16.0256 8.59156 15.9736 8.9637 15.9691C9.08609 15.9676 9.18561 15.9193 9.27069 15.8619C9.49447 15.7108 9.70109 15.7108 9.70109 15.7108C9.45687 15.7672 9.33008 16.0349 9.33008 16.0349C9.33008 16.0349 9.51795 15.8705 9.7903 15.8705C10.0627 15.8705 10.1472 15.5511 10.1472 15.5511C9.89366 15.5557 9.85606 15.3491 9.85606 15.3491C9.85606 15.3491 9.78092 15.3726 9.71047 15.4572C9.66589 15.5106 9.59056 15.5288 9.539 15.536C9.5202 15.3713 9.64456 15.221 9.64456 15.221C9.64456 15.221 9.47614 14.9653 9.69448 14.6908C9.91283 14.4163 10.4118 14.5036 10.4118 14.5036C10.4633 14.2736 10.2692 14.1295 10.2066 14.1359Z" fill="#5AA587"/>
<path d="M9.69922 15.0438C9.78064 15.0313 10.1595 14.906 10.1532 14.737C10.1469 14.5679 9.9215 14.6274 9.93406 14.7182C9.94658 14.809 10.028 14.7902 10.028 14.7902C10.028 14.7902 10.0201 14.8311 9.85264 14.8653C9.71487 14.8935 9.69922 15.0438 9.69922 15.0438Z" fill="#5AA587"/>
<path d="M10.7011 16.8254C10.7011 16.8254 10.936 16.7879 10.9266 16.9569C10.9171 17.126 10.7825 17.3045 10.5039 17.3828C10.5039 17.3828 10.6072 17.2936 10.5838 17.2419C10.5603 17.1902 10.4428 17.1762 10.3818 17.2654C10.3208 17.3546 10.2174 17.3922 10.1282 17.3781C10.1282 17.3781 10.2879 17.2606 10.1752 17.2184C10.0737 17.1803 10.1126 17.3452 9.8699 17.3734C9.8699 17.3734 10.0483 17.2325 9.94504 17.1949C9.84172 17.1574 9.78538 17.4015 9.60215 17.3828C9.60215 17.3828 9.75557 17.2294 9.6726 17.2043C9.54191 17.1649 9.50821 17.3922 9.27341 17.2935C9.27341 17.2935 9.39083 17.2419 9.2969 17.1151C9.20296 16.9882 9.33444 16.8286 9.40026 16.7629C9.46607 16.6971 9.51294 16.6549 9.49419 16.5891C9.49419 16.5891 9.66172 16.694 9.57716 16.8786C9.49776 17.0521 9.81913 16.9563 10.0687 16.935C10.3255 16.9131 10.4778 17.0604 10.6417 17.0102C10.7951 16.9631 10.7011 16.8254 10.7011 16.8254Z" fill="#5AA587"/>
<path d="M6.15747 16.905C6.15747 16.905 6.46553 17.0471 6.64019 16.9036C6.81485 16.7602 6.86228 16.93 7.06816 16.8052C7.27403 16.6805 7.26152 16.7491 7.42371 16.7491C7.58585 16.7491 7.70439 16.4871 7.6046 16.3062C7.6046 16.3062 7.94331 16.1749 7.8738 15.9033C7.82214 15.7013 7.56714 15.7636 7.56714 15.7636C7.56714 15.7636 7.29808 15.5945 7.1118 15.8135C6.9596 15.9926 7.04317 16.113 6.78742 16.1441C6.53172 16.1753 6.49427 16.4373 6.21981 16.4061C6.21981 16.4061 6.40694 16.6494 6.69386 16.4934C6.69391 16.4934 6.68716 16.7284 6.15747 16.905Z" fill="#5AA587"/>
<path d="M8.88363 17.364C8.88363 17.364 9.14664 17.5988 8.63003 17.7397C8.63003 17.7397 8.66294 17.6974 8.70049 17.6223C8.70049 17.6223 8.54083 17.7397 8.33411 17.7303C8.33411 17.7303 8.39514 17.6833 8.40925 17.6269C8.40925 17.6269 8.22138 17.6786 8.08521 17.5894C8.08521 17.5894 8.2496 17.5799 8.35291 17.425C8.35291 17.425 8.39988 17.5189 8.4985 17.4719C8.59713 17.425 8.65366 17.4925 8.74272 17.4954C8.81552 17.4978 8.87894 17.4602 8.88363 17.364Z" fill="#5AA587"/>
<path d="M8.75362 15.9143C8.75362 15.9143 8.56575 16.0019 8.65345 16.1679C8.7119 16.2785 8.895 16.3051 8.96653 16.2023C9.02756 16.1147 8.97914 16.0295 8.91487 16.0175C8.84756 16.005 8.80687 16.0332 8.77551 16.0895C8.77551 16.0896 8.65964 16.0458 8.75362 15.9143Z" fill="#5AA587"/>
<path d="M9.59741 16.2063C9.59741 16.2063 10.0054 16.2218 9.98488 16.5045C9.97588 16.6289 9.8076 16.7158 9.70147 16.6505C9.61091 16.5949 9.62558 16.5021 9.67283 16.461C9.72487 16.4158 9.77633 16.4321 9.82743 16.4711C9.82743 16.471 9.85335 16.3166 9.59741 16.2063Z" fill="#5AA587"/>
<path d="M10.4124 15.6567C10.4124 15.6567 10.6325 15.509 10.7183 15.6848C10.756 15.7622 10.6857 15.8723 10.5997 15.8702C10.5264 15.8683 10.5031 15.8079 10.5169 15.767C10.5323 15.722 10.5687 15.7139 10.6127 15.7194C10.6127 15.7195 10.626 15.605 10.4124 15.6567Z" fill="#5AA587"/>
<path d="M10.7117 15.547C10.7117 15.547 10.9148 15.4107 10.9939 15.5729C11.0286 15.6443 10.9638 15.7459 10.8845 15.7439C10.8168 15.7422 10.7953 15.6865 10.8081 15.6487C10.8223 15.6072 10.8559 15.5997 10.8965 15.6048C10.8965 15.6049 10.9088 15.4993 10.7117 15.547Z" fill="#5AA587"/>
<path d="M9.95093 16.4479C9.95093 16.4479 10.302 16.4612 10.2843 16.7045C10.2766 16.8115 10.1318 16.8863 10.0405 16.8301C9.96251 16.7822 9.95833 16.6943 9.99213 16.6524C10.0508 16.5796 10.1213 16.6125 10.1213 16.6125C10.1213 16.6125 10.1711 16.5428 9.95093 16.4479Z" fill="#5AA587"/>
<path d="M10.208 16.6406C10.208 16.6406 10.5955 16.6031 10.5667 16.8646C10.5592 16.9328 10.4691 16.9809 10.4107 16.945C10.3608 16.9144 10.3581 16.8581 10.3798 16.8313C10.4174 16.7847 10.4624 16.8057 10.4624 16.8057C10.4624 16.8057 10.4381 16.69 10.208 16.6406Z" fill="#5AA587"/>
<path d="M7.72297 17.8844C7.72297 17.8844 7.77599 17.992 7.8103 18.0965C7.83969 18.1858 7.99119 18.2461 8.07229 18.19C8.15338 18.1339 8.2903 17.9661 8.23419 17.9287C8.17808 17.8912 7.93508 17.9218 7.89768 17.7908C7.86022 17.6598 7.87274 17.5724 7.87274 17.5724C7.87274 17.5724 8.19782 17.6691 8.35283 17.4249C8.50785 17.1807 8.48568 16.9423 8.54643 16.8239C8.59391 16.7314 8.67744 16.6867 8.67744 16.6867C8.58196 16.3086 7.41744 16.038 7.55258 17.0194L7.36963 17.4352L7.72297 17.8844Z" fill="#FFE6D7"/>
<path d="M7.31023 17.868C7.39011 17.9197 7.68284 18.0684 7.86443 17.9557C8.01293 17.8635 8.01476 17.7584 7.92082 17.7349C7.82689 17.7114 7.77523 17.7772 7.72353 17.7349C7.67187 17.6927 7.38064 17.4531 7.48868 17.378C7.59673 17.3028 7.65518 17.242 7.65307 17.1103C7.65153 17.0132 7.56696 16.9192 7.46675 16.9099C7.34182 16.8982 7.24442 16.9506 7.11293 16.9506L7.26636 17.0288C7.16773 17.0758 7.1599 17.2089 7.04248 17.2324C7.04248 17.2324 7.12236 17.3232 7.22253 17.295C7.22253 17.295 7.18807 17.3889 7.09414 17.4014C7.09414 17.4014 7.18179 17.5016 7.26321 17.5298C7.26321 17.5298 7.21001 17.5674 7.12704 17.5518C7.12704 17.5518 7.25698 17.7428 7.45109 17.7913L7.31023 17.868Z" fill="#5AA587"/>
<path d="M7.87599 17.5104C7.87599 17.5104 7.92816 17.5014 7.93261 17.4378C7.93519 17.4012 7.89863 17.3537 7.83642 17.3573C7.76353 17.3615 7.71408 17.4583 7.749 17.5224C7.83839 17.6866 8.1712 17.6206 8.21189 17.5612C8.21194 17.5612 7.94583 17.5737 7.87599 17.5104Z" fill="#5AA587"/>
<path d="M8.032 18.2908C8.04648 18.2704 8.0582 18.2153 8.03003 18.1812C8.03003 18.1812 8.04531 18.1025 8.10517 18.1307C8.10517 18.1307 8.13062 18.1937 8.11023 18.2376C8.08994 18.2814 8.032 18.2908 8.032 18.2908Z" fill="#FFE15A"/>
<path d="M8.15405 18.2466C8.15302 18.1899 8.14027 18.1588 8.09452 18.1541C8.09452 18.1541 8.0828 18.072 8.15091 18.072C8.15091 18.072 8.20139 18.1165 8.20186 18.1649C8.20233 18.2132 8.15405 18.2466 8.15405 18.2466Z" fill="#FFE15A"/>
<path d="M8.22976 18.1916C8.2186 18.136 8.20806 18.0973 8.1571 18.0935C8.1571 18.0935 8.13001 18.0262 8.2051 18.0168C8.2051 18.0168 8.25301 18.0553 8.26215 18.1027C8.27124 18.1502 8.22976 18.1916 8.22976 18.1916Z" fill="#FFE15A"/>
<path d="M8.30524 18.1054C8.28213 18.0535 8.25912 18.0328 8.20859 18.0403C8.20859 18.0403 8.16513 17.9793 8.22504 17.9464C8.22504 17.9464 8.29798 17.9672 8.31724 18.0115C8.3366 18.0558 8.30524 18.1054 8.30524 18.1054Z" fill="#FFE15A"/>
<path d="M9.19667 17.7877C9.20731 17.7651 9.20909 17.7087 9.17529 17.6802C9.17529 17.6802 9.17632 17.6001 9.24026 17.6172C9.24026 17.6172 9.27645 17.6747 9.26421 17.7214C9.25203 17.7681 9.19667 17.7877 9.19667 17.7877Z" fill="#FFE15A"/>
<path d="M9.30926 17.7226C9.2982 17.6669 9.28015 17.6386 9.23426 17.6421C9.23426 17.6421 9.20815 17.5633 9.27513 17.5512C9.27513 17.5512 9.3327 17.5862 9.34174 17.6336C9.35079 17.6811 9.30926 17.7226 9.30926 17.7226Z" fill="#FFE15A"/>
<path d="M9.3737 17.6551C9.35284 17.6023 9.33559 17.5661 9.28473 17.5714C9.28473 17.5714 9.2461 17.5099 9.31834 17.4874C9.31834 17.4874 9.37229 17.5167 9.38973 17.5618C9.40717 17.6069 9.3737 17.6551 9.3737 17.6551Z" fill="#FFE15A"/>
<path d="M9.43266 17.5567C9.40069 17.5097 9.37434 17.4934 9.32597 17.5098C9.32597 17.5098 9.27239 17.4574 9.32545 17.4144C9.32545 17.4144 9.40092 17.4219 9.42783 17.4621C9.45469 17.5023 9.43266 17.5567 9.43266 17.5567Z" fill="#FFE15A"/>
<path d="M10.7576 14.6649C10.7678 14.7158 10.742 14.7714 10.6199 14.8246C10.4978 14.8778 10.5009 14.8559 10.4195 14.9592C10.3381 15.0626 10.3287 15.0657 10.2285 15.0844C10.1283 15.1032 10.0814 15.4132 10.2003 15.3662C10.3193 15.3193 10.335 15.2222 10.4664 15.2535C10.5979 15.2849 10.6668 15.3287 10.7701 15.2129C10.7701 15.2129 10.8703 15.3475 10.6825 15.4039C10.4946 15.4603 10.3921 15.4646 10.2994 15.5078C10.2066 15.551 9.8775 15.6567 9.85589 15.3491C9.84961 15.2599 9.91537 15.2254 9.95297 15.1597C9.99051 15.0939 10.0281 15.0501 10.1189 14.9781C10.2097 14.9061 10.1534 14.8466 10.3005 14.8246C10.4476 14.8027 10.5698 14.8058 10.6136 14.6994C10.6575 14.5929 10.7451 14.6023 10.7576 14.6649Z" fill="#FFE6D7"/>
<path d="M8.29174 16.1577C8.29174 16.1577 8.26352 16.0455 8.39435 15.998C8.36365 16.0073 8.33538 16.0157 8.30313 16.0256C8.27561 16.0341 8.25377 16.042 8.22804 16.0503C8.218 16.0638 8.2045 16.071 8.19771 16.09C8.15791 16.2015 8.25635 16.3461 8.37377 16.3303C8.4739 16.3168 8.5023 16.2287 8.46958 16.1762C8.43522 16.1213 8.3598 16.1084 8.29174 16.1577Z" fill="#5AA587"/>
<path d="M8.33233 17.3487C8.19034 17.3805 8.12645 17.3256 8.12645 17.3256C8.12645 17.3256 8.17862 17.3166 8.18308 17.2531C8.18565 17.2164 8.14909 17.169 8.08689 17.1725C8.014 17.1767 7.96455 17.2735 7.99951 17.3377C8.07644 17.4788 8.29492 17.4455 8.3912 17.3454C8.39626 17.3351 8.40151 17.3249 8.40606 17.3146C8.38501 17.328 8.35806 17.343 8.33233 17.3487Z" fill="#5AA587"/>
<path d="M8.47592 17.1114C8.47953 17.0954 8.48464 17.0792 8.48773 17.0638C8.32086 17.1313 8.2722 17.0463 8.2722 17.0463C8.2722 17.0463 8.32437 17.0373 8.32883 16.9738C8.33141 16.9372 8.29484 16.8897 8.23264 16.8933C8.15975 16.8975 8.1103 16.9943 8.14527 17.0584C8.22678 17.208 8.37209 17.1663 8.47592 17.1114Z" fill="#5AA587"/>
<path d="M8.85128 17.1908C8.7543 17.2777 8.68019 17.2729 8.68019 17.2729C8.68019 17.2729 8.71891 17.2369 8.68802 17.1812C8.67016 17.1491 8.61363 17.1293 8.56347 17.1663C8.50464 17.2096 8.51608 17.3177 8.58039 17.3524C8.73874 17.4377 8.84149 17.3057 8.89643 17.1995C8.88147 17.1974 8.86628 17.1939 8.85128 17.1908Z" fill="#5AA587"/>
<path d="M11.3507 17.1068C11.3437 17.0722 11.3075 17.0063 11.2628 17.0018C11.2628 17.0018 11.2102 16.9094 11.27 16.8759C11.27 16.8759 11.3357 16.9115 11.3576 16.975C11.3795 17.0385 11.3507 17.1068 11.3507 17.1068Z" fill="#FFE15A"/>
<path d="M11.3923 16.9391C11.3469 16.8848 11.3143 16.8675 11.2819 16.9096C11.2819 16.9096 11.2096 16.8413 11.2523 16.7719C11.2523 16.7719 11.3192 16.764 11.3577 16.8107C11.3962 16.8574 11.3923 16.9391 11.3923 16.9391Z" fill="#FFE15A"/>
<path d="M11.3962 16.8085C11.3452 16.7655 11.308 16.7385 11.2731 16.7868C11.2731 16.7868 11.203 16.7488 11.2426 16.663C11.2426 16.663 11.303 16.6516 11.3462 16.6887C11.3894 16.7257 11.3962 16.8085 11.3962 16.8085Z" fill="#FFE15A"/>
<path d="M11.3754 16.6473C11.32 16.6203 11.2891 16.6235 11.2634 16.6823C11.2634 16.6823 11.1879 16.667 11.1994 16.5739C11.1994 16.5739 11.2616 16.5199 11.3088 16.5434C11.3559 16.5668 11.3754 16.6473 11.3754 16.6473Z" fill="#FFE15A"/>
<path d="M10.1658 14.9278C10.2142 14.9278 10.2534 14.8885 10.2534 14.8401C10.2534 14.7917 10.2142 14.7524 10.1658 14.7524C10.1174 14.7524 10.0781 14.7917 10.0781 14.8401C10.0781 14.8885 10.1174 14.9278 10.1658 14.9278Z" fill="#F5F5F5"/>
<path d="M10.1658 14.8719C10.1834 14.8719 10.1976 14.8577 10.1976 14.8401C10.1976 14.8225 10.1834 14.8083 10.1658 14.8083C10.1483 14.8083 10.134 14.8225 10.134 14.8401C10.134 14.8577 10.1483 14.8719 10.1658 14.8719Z" fill="#41479B"/>
<path d="M10.3463 14.5912C10.3857 14.5912 10.4176 14.5593 10.4176 14.52C10.4176 14.4807 10.3857 14.4488 10.3463 14.4488C10.307 14.4488 10.2751 14.4807 10.2751 14.52C10.2751 14.5593 10.307 14.5912 10.3463 14.5912Z" fill="#F5F5F5"/>
<path d="M10.3461 14.5458C10.3604 14.5458 10.372 14.5343 10.372 14.52C10.372 14.5057 10.3604 14.4942 10.3461 14.4942C10.3319 14.4942 10.3203 14.5057 10.3203 14.52C10.3203 14.5343 10.3319 14.5458 10.3461 14.5458Z" fill="#41479B"/>
<path d="M7.81759 16.2414C7.7365 16.3038 7.45595 16.1663 7.2587 16.232C7.00375 16.317 7.00586 16.4809 7.00586 16.4809C7.00586 16.4809 7.16477 16.2837 7.42933 16.3807C7.57572 16.4344 7.66084 16.4372 7.66084 16.4372L7.81759 16.2414Z" fill="#FFF5E6"/>
<path d="M12.4252 15.2787C12.3712 15.2716 12.3031 15.2552 12.2983 15.173C12.2983 15.173 12.4204 15.1613 12.4204 15.1707C12.4204 15.18 12.4252 15.2787 12.4252 15.2787Z" fill="#FFE15A"/>
<path d="M13.6508 14.9734C13.5897 14.9906 13.5302 15.0031 13.5114 15.0783C13.5114 15.0783 13.4488 14.9531 13.5365 14.8779C13.5524 14.8642 13.6508 14.9734 13.6508 14.9734Z" fill="#FF4B55"/>
<path d="M13.391 14.7636C13.33 14.7808 13.2705 14.7933 13.2517 14.8685C13.2517 14.8685 13.189 14.7433 13.2767 14.6681C13.2926 14.6544 13.391 14.7636 13.391 14.7636Z" fill="#FF4B55"/>
<path d="M13.6321 15.1988C13.6696 15.1894 13.7354 15.1049 13.6509 14.9734C13.5663 14.8419 13.9374 15.0391 13.9514 15.1472C13.9655 15.2553 13.9796 15.4478 13.895 15.3962C13.8105 15.3444 13.6321 15.1988 13.6321 15.1988Z" fill="#FFE15A"/>
<path d="M13.2298 15.2129C13.2173 15.144 13.2298 15.097 13.1422 15.0344C13.0545 14.9719 13.042 14.9374 13.042 14.8966C13.042 14.8966 13.0897 14.9475 13.1743 14.9686C13.226 14.9816 13.2706 15.0187 13.2706 15.0187C13.2706 15.0187 13.2925 14.9405 13.2142 14.8966C13.2142 14.8966 13.352 14.8966 13.3738 15.0218C13.3958 15.147 13.3237 15.1659 13.427 15.1784C13.5304 15.1909 13.7715 15.1409 13.856 15.3318C13.9405 15.5228 13.6838 15.385 13.6149 15.36C13.546 15.335 13.3269 15.3882 13.2924 15.3412C13.258 15.2943 13.2298 15.2129 13.2298 15.2129Z" fill="#FF4B55"/>
<path d="M14.1323 15.5558L13.7613 14.9453C13.7613 14.9453 13.3926 14.8028 13.3894 14.784C13.3863 14.7652 13.2673 14.6118 13.2673 14.5898C13.2673 14.5679 13.2799 14.4615 13.3268 14.4427C13.3738 14.4239 13.5233 14.4871 13.5883 14.5036C13.6533 14.5202 13.7558 14.3989 13.7558 14.3989C13.7558 14.3989 14.3538 14.5116 14.3977 14.5837C14.4415 14.6557 14.6482 15.1723 14.6576 15.2256C14.667 15.2788 14.6576 15.6451 14.645 15.6389C14.6325 15.6324 14.1323 15.5558 14.1323 15.5558Z" fill="#FFF5E6"/>
<path d="M13.2799 14.6963C13.2799 14.6963 13.3958 14.7683 13.4584 14.7902C13.521 14.8121 13.626 14.6948 13.6087 14.6306C13.5868 14.5492 13.4928 14.5492 13.4491 14.4834C13.4052 14.4177 13.3019 14.4177 13.2455 14.499C13.1891 14.5804 13.2799 14.6963 13.2799 14.6963ZM13.4274 14.6007C13.4542 14.5818 13.508 14.5838 13.5076 14.6203C13.5071 14.6567 13.4426 14.6976 13.417 14.6647C13.396 14.638 13.4099 14.613 13.4274 14.6007ZM13.3015 14.5215C13.3172 14.4927 13.3664 14.4708 13.3821 14.5036C13.3978 14.5365 13.358 14.6017 13.3204 14.5836C13.2898 14.5689 13.2912 14.5404 13.3015 14.5215Z" fill="#FF4B55"/>
<path d="M13.1267 16.8676C13.0643 16.8739 12.9817 16.8653 12.9646 16.7241C12.9449 16.5623 12.8959 16.5058 12.8149 16.5432C12.7339 16.5807 12.7539 16.6453 12.7539 16.6453C12.7539 16.6453 12.6647 16.8801 12.7116 16.974C12.7586 17.068 12.8666 17.1807 12.9465 17.1995C13.0264 17.2183 13.1907 17.1103 13.1907 17.1103L13.1267 16.8676Z" fill="#FFF5E6"/>
<path d="M13.5773 16.3213C13.5241 16.2963 12.8666 15.8392 12.7883 15.6669C12.71 15.4947 12.7538 15.3694 12.6505 15.3632C12.5471 15.3569 12.3718 15.3507 12.3875 15.2223C12.4031 15.0939 12.5753 15.1753 12.6223 15.1503C12.6693 15.1253 12.8164 15.0564 12.8446 15.1566C12.8728 15.2568 12.8446 15.3476 12.8853 15.3977C12.926 15.4478 13.1076 15.5355 13.1389 15.5291C13.1702 15.5228 13.2371 15.5147 13.2882 15.547C13.3393 15.5793 13.3675 15.6231 13.3675 15.6231C13.3675 15.6231 13.5601 15.6309 13.5875 15.6567C13.6149 15.6826 13.7182 15.8203 13.7182 15.8203L13.5773 16.3213Z" fill="#FFE6D7"/>
<path d="M13.5085 16.218C13.5085 16.218 13.3833 16.171 13.294 15.9972C13.2048 15.8234 13.1156 15.8939 12.984 15.7999C12.8525 15.706 12.9371 15.5651 12.9746 15.5087C13.0121 15.4524 12.9863 15.3068 12.8572 15.3114C12.7722 15.3145 12.5002 15.5792 12.6223 15.8422C12.6223 15.8422 12.6411 15.7952 12.6881 15.7388C12.6881 15.7388 12.6176 15.9126 12.782 16.1052C12.782 16.1052 12.7773 16.0066 12.829 15.9408C12.829 15.9408 12.8336 16.185 13.0215 16.34C13.0215 16.34 12.998 16.1803 13.0262 16.1146C13.0262 16.1146 13.0544 16.3259 13.3315 16.5185C13.3315 16.5185 13.2893 16.4433 13.2986 16.3212L13.5334 16.4433L13.5085 16.218Z" fill="#5AA587"/>
<path d="M15.2948 17.0211C15.2948 17.0211 15.3793 17.2794 15.1492 17.3546C14.9191 17.4297 14.7922 17.3311 14.7077 17.3546C14.6232 17.3781 14.642 17.5284 14.7594 17.6551C14.8768 17.782 14.9942 17.796 15.1257 17.7021C15.2572 17.6082 15.2666 17.5237 15.4028 17.5565C15.539 17.5894 15.7269 17.4579 15.7269 17.4579C15.7269 17.4579 15.6047 16.9272 15.5907 16.9319C15.5766 16.9365 15.2948 17.0211 15.2948 17.0211Z" fill="#F5DCD2"/>
<path d="M16.4887 16.3749C16.4887 16.3749 16.3266 16.2189 15.6966 16.0256C15.0666 15.8322 14.7297 15.7511 14.7297 15.7511L14.2369 15.5952C14.2369 15.5952 14.005 15.5943 13.8528 15.5511C13.7006 15.5078 13.7005 15.5078 13.7005 15.5078C13.7005 15.5078 13.295 16.0817 13.6006 16.6618L13.4946 16.7617C13.4946 16.7617 13.3831 16.7957 13.2985 16.8255C13.2139 16.8553 13.2763 17.0174 13.2763 17.0174L13.6007 17.1671L14.5488 17.1234C14.5488 17.1234 14.5675 17.0798 14.8794 17.1795C15.1913 17.2793 15.3285 17.0548 15.9274 17.0361C16.5261 17.0174 16.4887 16.3749 16.4887 16.3749Z" fill="#FFF5E6"/>
<path d="M13.7932 14.1359C13.7932 14.1359 13.6977 14.2313 13.7494 14.3331C13.7494 14.3331 13.8558 14.2235 13.9435 14.1984C14.0784 14.1599 14.1063 14.2336 14.4045 14.2477C14.5922 14.2566 14.668 14.4364 14.8515 14.3926C15.0479 14.3456 15.21 14.4356 15.21 14.4356C15.21 14.4356 15.0973 14.4216 15.0057 14.5085C14.9141 14.5953 14.7521 14.5765 14.7521 14.5765C14.7521 14.5765 14.9 14.6799 15.0245 14.6305C15.1489 14.5812 15.3274 14.6728 15.3274 14.6728C15.2946 14.6705 15.2218 14.6822 15.1395 14.769C15.0574 14.8559 14.8741 14.8348 14.8741 14.8348C14.907 14.8747 14.9986 14.9193 15.0851 14.9027C15.2812 14.8651 15.4906 14.9526 15.4906 14.9526C15.4906 14.9526 15.3659 14.909 15.1974 15.0337C15.029 15.1585 14.8356 15.0837 14.8356 15.0837C14.8356 15.1648 15.0044 15.4771 15.3039 15.4665C15.6768 15.4534 15.7713 15.67 15.7713 15.67C15.7713 15.67 15.6216 15.6201 15.4282 15.6513C15.0536 15.7117 14.7982 15.4954 14.7982 15.4954C14.7982 15.4954 14.8606 15.7885 15.1163 15.7761C15.372 15.7636 15.6964 16.0256 15.6964 16.0256C15.6964 16.0256 15.4082 15.9736 15.0361 15.9691C14.9137 15.9676 14.8142 15.9193 14.7291 15.8619C14.5053 15.7108 14.2987 15.7108 14.2987 15.7108C14.5429 15.7672 14.6697 16.0349 14.6697 16.0349C14.6697 16.0349 14.4818 15.8705 14.2095 15.8705C13.9371 15.8705 13.8525 15.5511 13.8525 15.5511C14.1061 15.5557 14.1437 15.3491 14.1437 15.3491C14.1437 15.3491 14.2189 15.3726 14.2893 15.4572C14.3339 15.5106 14.4092 15.5288 14.4608 15.536C14.4796 15.3713 14.3552 15.221 14.3552 15.221C14.3552 15.221 14.5237 14.9653 14.3053 14.6908C14.087 14.4163 13.5879 14.5036 13.5879 14.5036C13.5365 14.2736 13.7306 14.1295 13.7932 14.1359Z" fill="#5AA587"/>
<path d="M14.3005 15.0438C14.2191 15.0313 13.8402 14.906 13.8465 14.737C13.8528 14.5679 14.0782 14.6274 14.0657 14.7182C14.0531 14.809 13.9717 14.7902 13.9717 14.7902C13.9717 14.7902 13.9796 14.8311 14.1471 14.8653C14.2848 14.8935 14.3005 15.0438 14.3005 15.0438Z" fill="#5AA587"/>
<path d="M13.2985 16.8254C13.2985 16.8254 13.0636 16.7879 13.073 16.9569C13.0825 17.126 13.2171 17.3045 13.4957 17.3828C13.4957 17.3828 13.3923 17.2936 13.4158 17.2419C13.4393 17.1902 13.5567 17.1762 13.6178 17.2654C13.6788 17.3546 13.7822 17.3922 13.8714 17.3781C13.8714 17.3781 13.7117 17.2606 13.8244 17.2184C13.9259 17.1803 13.887 17.3452 14.1297 17.3734C14.1297 17.3734 13.9512 17.2325 14.0545 17.1949C14.1579 17.1574 14.2142 17.4015 14.3974 17.3828C14.3974 17.3828 14.244 17.2294 14.327 17.2043C14.4577 17.1649 14.4914 17.3922 14.7262 17.2935C14.7262 17.2935 14.6087 17.2419 14.7027 17.1151C14.7966 16.9882 14.6651 16.8286 14.5993 16.7629C14.5336 16.6971 14.4866 16.6549 14.5054 16.5891C14.5054 16.5891 14.3379 16.694 14.4224 16.8786C14.5018 17.0521 14.1805 16.9563 13.9308 16.935C13.6741 16.9131 13.5218 17.0604 13.3578 17.0102C13.2045 16.9631 13.2985 16.8254 13.2985 16.8254Z" fill="#5AA587"/>
<path d="M17.8422 16.905C17.8422 16.905 17.5341 17.0471 17.3595 16.9036C17.1848 16.7602 17.1374 16.93 16.9315 16.8052C16.7256 16.6805 16.7381 16.7491 16.576 16.7491C16.4138 16.7491 16.2953 16.4871 16.3951 16.3062C16.3951 16.3062 16.0563 16.1749 16.1259 15.9033C16.1775 15.7013 16.4325 15.7636 16.4325 15.7636C16.4325 15.7636 16.7016 15.5945 16.8879 15.8135C17.0401 15.9926 16.9565 16.113 17.2122 16.1441C17.4679 16.1753 17.5054 16.4373 17.7799 16.4061C17.7799 16.4061 17.5927 16.6494 17.3058 16.4934C17.3058 16.4934 17.3125 16.7284 17.8422 16.905Z" fill="#5AA587"/>
<path d="M15.116 17.364C15.116 17.364 14.853 17.5988 15.3696 17.7397C15.3696 17.7397 15.3367 17.6974 15.2992 17.6223C15.2992 17.6223 15.4588 17.7397 15.6655 17.7303C15.6655 17.7303 15.6045 17.6833 15.5904 17.6269C15.5904 17.6269 15.7783 17.6786 15.9144 17.5894C15.9144 17.5894 15.7501 17.5799 15.6467 17.425C15.6467 17.425 15.5998 17.5189 15.5011 17.4719C15.4025 17.425 15.346 17.4925 15.2569 17.4954C15.1842 17.4978 15.1208 17.4602 15.116 17.364Z" fill="#5AA587"/>
<path d="M15.2461 15.9143C15.2461 15.9143 15.4339 16.0019 15.3462 16.1679C15.2878 16.2785 15.1047 16.3051 15.0332 16.2023C14.9721 16.1147 15.0206 16.0295 15.0848 16.0175C15.1522 16.005 15.1928 16.0332 15.2242 16.0895C15.2241 16.0896 15.34 16.0458 15.2461 15.9143Z" fill="#5AA587"/>
<path d="M14.4021 16.2063C14.4021 16.2063 13.9942 16.2218 14.0147 16.5045C14.0237 16.6289 14.1919 16.7158 14.2981 16.6505C14.3886 16.5949 14.374 16.5021 14.3267 16.461C14.2747 16.4158 14.2232 16.4321 14.1721 16.4711C14.1721 16.471 14.1462 16.3166 14.4021 16.2063Z" fill="#5AA587"/>
<path d="M13.5874 15.6567C13.5874 15.6567 13.3672 15.509 13.2814 15.6848C13.2437 15.7622 13.314 15.8723 13.4 15.8702C13.4734 15.8683 13.4967 15.8079 13.4828 15.767C13.4674 15.722 13.431 15.7139 13.387 15.7194C13.387 15.7195 13.3737 15.605 13.5874 15.6567Z" fill="#5AA587"/>
<path d="M13.2881 15.547C13.2881 15.547 13.085 15.4107 13.0059 15.5729C12.9712 15.6443 13.036 15.7459 13.1153 15.7439C13.183 15.7422 13.2045 15.6865 13.1917 15.6487C13.1775 15.6072 13.1439 15.5997 13.1033 15.6048C13.1033 15.6049 13.091 15.4993 13.2881 15.547Z" fill="#5AA587"/>
<path d="M14.0489 16.4479C14.0489 16.4479 13.6979 16.4612 13.7155 16.7045C13.7232 16.8115 13.868 16.8863 13.9594 16.8301C14.0373 16.7822 14.0415 16.6943 14.0077 16.6524C13.949 16.5796 13.8786 16.6125 13.8786 16.6125C13.8786 16.6125 13.8287 16.5428 14.0489 16.4479Z" fill="#5AA587"/>
<path d="M13.7916 16.6406C13.7916 16.6406 13.4041 16.6031 13.4329 16.8646C13.4404 16.9328 13.5305 16.9809 13.5889 16.945C13.6388 16.9144 13.6415 16.8581 13.6198 16.8313C13.5823 16.7847 13.5372 16.8057 13.5372 16.8057C13.5372 16.8057 13.5615 16.69 13.7916 16.6406Z" fill="#5AA587"/>
<path d="M16.2767 17.8844C16.2767 17.8844 16.2237 17.992 16.1894 18.0965C16.16 18.1858 16.0085 18.2461 15.9274 18.19C15.8463 18.1339 15.7094 17.9661 15.7655 17.9287C15.8216 17.8913 16.0646 17.9218 16.102 17.7908C16.1395 17.6598 16.127 17.5724 16.127 17.5724C16.127 17.5724 15.8019 17.6691 15.6469 17.4249C15.4919 17.1807 15.514 16.9423 15.4533 16.8239C15.4058 16.7314 15.3223 16.6867 15.3223 16.6867C15.4178 16.3086 16.5823 16.038 16.4471 17.0194L16.6301 17.4352L16.2767 17.8844Z" fill="#FFE6D7"/>
<path d="M16.6895 17.868C16.6097 17.9197 16.3169 18.0684 16.1353 17.9557C15.9868 17.8635 15.985 17.7584 16.0789 17.7349C16.1729 17.7114 16.2245 17.7772 16.2762 17.7349C16.3279 17.6927 16.6191 17.4531 16.5111 17.378C16.403 17.3028 16.3446 17.242 16.3467 17.1103C16.3482 17.0132 16.4328 16.9192 16.533 16.9099C16.6579 16.8982 16.7553 16.9506 16.8868 16.9506L16.7334 17.0288C16.832 17.0758 16.8399 17.2089 16.9573 17.2324C16.9573 17.2324 16.8774 17.3232 16.7772 17.295C16.7772 17.295 16.8117 17.3889 16.9056 17.4014C16.9056 17.4014 16.818 17.5016 16.7365 17.5298C16.7365 17.5298 16.7897 17.5674 16.8727 17.5518C16.8727 17.5518 16.7428 17.7428 16.5487 17.7913L16.6895 17.868Z" fill="#5AA587"/>
<path d="M16.1237 17.5104C16.1237 17.5104 16.0716 17.5014 16.0671 17.4378C16.0645 17.4012 16.1011 17.3537 16.1633 17.3573C16.2362 17.3615 16.2857 17.4583 16.2507 17.5224C16.1613 17.6866 15.8285 17.6206 15.7878 17.5612C15.7878 17.5612 16.0539 17.5737 16.1237 17.5104Z" fill="#5AA587"/>
<path d="M15.9677 18.2908C15.9533 18.2704 15.9415 18.2153 15.9697 18.1812C15.9697 18.1812 15.9544 18.1025 15.8946 18.1307C15.8946 18.1307 15.8691 18.1937 15.8895 18.2376C15.9098 18.2814 15.9677 18.2908 15.9677 18.2908Z" fill="#FFE15A"/>
<path d="M15.8457 18.2466C15.8467 18.1899 15.8594 18.1588 15.9052 18.1541C15.9052 18.1541 15.9169 18.072 15.8488 18.072C15.8488 18.072 15.7983 18.1165 15.7979 18.1649C15.7975 18.2132 15.8457 18.2466 15.8457 18.2466Z" fill="#FFE15A"/>
<path d="M15.77 18.1916C15.7812 18.136 15.7917 18.0973 15.8427 18.0935C15.8427 18.0935 15.8698 18.0262 15.7947 18.0168C15.7947 18.0168 15.7468 18.0553 15.7376 18.1027C15.7285 18.1501 15.77 18.1916 15.77 18.1916Z" fill="#FFE15A"/>
<path d="M15.6946 18.1054C15.7177 18.0535 15.7407 18.0328 15.7913 18.0403C15.7913 18.0403 15.8347 17.9793 15.7748 17.9464C15.7748 17.9464 15.7019 17.9672 15.6825 18.0115C15.6633 18.0558 15.6946 18.1054 15.6946 18.1054Z" fill="#FFE15A"/>
<path d="M14.8031 17.7877C14.7924 17.7651 14.7906 17.7087 14.8244 17.6802C14.8244 17.6802 14.8234 17.6001 14.7594 17.6172C14.7594 17.6172 14.7232 17.6747 14.7354 17.7214C14.7477 17.7681 14.8031 17.7877 14.8031 17.7877Z" fill="#FFE15A"/>
<path d="M14.6908 17.7226C14.7018 17.6669 14.7199 17.6386 14.7658 17.6421C14.7658 17.6421 14.7919 17.5633 14.7249 17.5512C14.7249 17.5512 14.6673 17.5862 14.6583 17.6336C14.6492 17.6812 14.6908 17.7226 14.6908 17.7226Z" fill="#FFE15A"/>
<path d="M14.626 17.6551C14.6469 17.6023 14.6642 17.5661 14.715 17.5714C14.715 17.5714 14.7536 17.5099 14.6814 17.4874C14.6814 17.4874 14.6275 17.5167 14.61 17.5618C14.5926 17.6069 14.626 17.6551 14.626 17.6551Z" fill="#FFE15A"/>
<path d="M14.5671 17.5567C14.5991 17.5097 14.6254 17.4934 14.6738 17.5098C14.6738 17.5098 14.7274 17.4574 14.6743 17.4144C14.6743 17.4144 14.5988 17.4219 14.5719 17.4621C14.5451 17.5023 14.5671 17.5567 14.5671 17.5567Z" fill="#FFE15A"/>
<path d="M13.2422 14.6649C13.2321 14.7158 13.2579 14.7714 13.38 14.8246C13.5022 14.8778 13.499 14.8559 13.5804 14.9592C13.6619 15.0626 13.6712 15.0657 13.7714 15.0844C13.8716 15.1032 13.9186 15.4132 13.7996 15.3662C13.6807 15.3193 13.665 15.2222 13.5335 15.2535C13.402 15.2849 13.3331 15.3287 13.2298 15.2129C13.2298 15.2129 13.1296 15.3475 13.3175 15.4039C13.5053 15.4603 13.6079 15.4646 13.7006 15.5078C13.7934 15.551 14.1224 15.6567 14.1441 15.3491C14.1503 15.2599 14.0846 15.2254 14.047 15.1597C14.0094 15.0939 13.9718 15.0501 13.881 14.9781C13.7902 14.9061 13.8466 14.8466 13.6995 14.8246C13.5523 14.8027 13.4302 14.8058 13.3864 14.6994C13.3424 14.5929 13.2547 14.6023 13.2422 14.6649Z" fill="#FFE6D7"/>
<path d="M15.7081 16.1577C15.7081 16.1577 15.7363 16.0455 15.6055 15.998C15.6362 16.0073 15.6644 16.0157 15.6967 16.0256C15.7242 16.0341 15.7461 16.042 15.7718 16.0503C15.7819 16.0638 15.7954 16.071 15.8021 16.09C15.8419 16.2015 15.7435 16.3461 15.6261 16.3303C15.526 16.3168 15.4976 16.2287 15.5303 16.1762C15.5645 16.1213 15.64 16.1084 15.7081 16.1577Z" fill="#5AA587"/>
<path d="M15.6675 17.3487C15.8095 17.3805 15.8734 17.3256 15.8734 17.3256C15.8734 17.3256 15.8212 17.3166 15.8167 17.2531C15.8142 17.2164 15.8507 17.169 15.9129 17.1725C15.9858 17.1767 16.0353 17.2735 16.0003 17.3377C15.9234 17.4788 15.7049 17.4455 15.6086 17.3454C15.6035 17.3351 15.5983 17.3249 15.5938 17.3146C15.6148 17.328 15.6418 17.343 15.6675 17.3487Z" fill="#5AA587"/>
<path d="M15.524 17.1114C15.5204 17.0954 15.5153 17.0792 15.5122 17.0638C15.6791 17.1313 15.7277 17.0463 15.7277 17.0463C15.7277 17.0463 15.6756 17.0373 15.6711 16.9738C15.6685 16.9372 15.7051 16.8897 15.7673 16.8933C15.8402 16.8975 15.8896 16.9943 15.8547 17.0584C15.7731 17.208 15.6278 17.1663 15.524 17.1114Z" fill="#5AA587"/>
<path d="M15.1487 17.1908C15.2456 17.2777 15.3198 17.2729 15.3198 17.2729C15.3198 17.2729 15.281 17.2369 15.3119 17.1812C15.3298 17.1491 15.3863 17.1293 15.4365 17.1663C15.4953 17.2096 15.4839 17.3177 15.4195 17.3524C15.2612 17.4377 15.1585 17.3057 15.1035 17.1995C15.1185 17.1974 15.1336 17.1939 15.1487 17.1908Z" fill="#5AA587"/>
<path d="M12.649 17.1068C12.656 17.0722 12.6922 17.0063 12.7368 17.0018C12.7368 17.0018 12.7894 16.9094 12.7296 16.8759C12.7296 16.8759 12.6639 16.9115 12.642 16.975C12.6201 17.0385 12.649 17.1068 12.649 17.1068Z" fill="#FFE15A"/>
<path d="M12.6073 16.9391C12.6528 16.8848 12.6853 16.8675 12.7177 16.9096C12.7177 16.9096 12.7901 16.8413 12.7474 16.7719C12.7474 16.7719 12.6805 16.764 12.6419 16.8107C12.6034 16.8573 12.6073 16.9391 12.6073 16.9391Z" fill="#FFE15A"/>
<path d="M12.6035 16.8085C12.6545 16.7655 12.6917 16.7385 12.7266 16.7868C12.7266 16.7868 12.7968 16.7488 12.7571 16.663C12.7571 16.663 12.6967 16.6516 12.6535 16.6887C12.6103 16.7257 12.6035 16.8085 12.6035 16.8085Z" fill="#FFE15A"/>
<path d="M12.6243 16.6473C12.6797 16.6203 12.7106 16.6235 12.7363 16.6823C12.7363 16.6823 12.8118 16.667 12.8002 16.5739C12.8002 16.5739 12.7381 16.5199 12.6909 16.5434C12.6438 16.5669 12.6243 16.6473 12.6243 16.6473Z" fill="#FFE15A"/>
<path d="M13.8342 14.9278C13.8826 14.9278 13.9219 14.8885 13.9219 14.8401C13.9219 14.7917 13.8826 14.7524 13.8342 14.7524C13.7858 14.7524 13.7466 14.7917 13.7466 14.8401C13.7466 14.8885 13.7858 14.9278 13.8342 14.9278Z" fill="#F5F5F5"/>
<path d="M13.8343 14.8719C13.8518 14.8719 13.8661 14.8577 13.8661 14.8401C13.8661 14.8225 13.8518 14.8083 13.8343 14.8083C13.8167 14.8083 13.8025 14.8225 13.8025 14.8401C13.8025 14.8577 13.8167 14.8719 13.8343 14.8719Z" fill="#41479B"/>
<path d="M13.6532 14.5912C13.6926 14.5912 13.7244 14.5593 13.7244 14.52C13.7244 14.4807 13.6926 14.4488 13.6532 14.4488C13.6139 14.4488 13.582 14.4807 13.582 14.52C13.582 14.5593 13.6139 14.5912 13.6532 14.5912Z" fill="#F5F5F5"/>
<path d="M13.6533 14.5458C13.6675 14.5458 13.6791 14.5343 13.6791 14.52C13.6791 14.5057 13.6675 14.4942 13.6533 14.4942C13.639 14.4942 13.6274 14.5057 13.6274 14.52C13.6274 14.5343 13.639 14.5458 13.6533 14.5458Z" fill="#41479B"/>
<path d="M16.1824 16.2414C16.2635 16.3038 16.544 16.1663 16.7413 16.232C16.9962 16.317 16.9941 16.4809 16.9941 16.4809C16.9941 16.4809 16.8352 16.2837 16.5706 16.3807C16.4242 16.4344 16.3391 16.4372 16.3391 16.4372L16.1824 16.2414Z" fill="#FFF5E6"/>
</svg>
