<svg width="24" height="24" viewBox="0 0 24 24" fill="none" xmlns="http://www.w3.org/2000/svg">
<path d="M1.79742 19.862H22.2026C23.1952 19.862 24 19.0573 24 18.0646V14.6207H0V18.0646C0 19.0573 0.804703 19.862 1.79742 19.862Z" fill="#73AF00"/>
<path d="M24 5.93536C24 4.94269 23.1953 4.13794 22.2026 4.13794H1.79742C0.804703 4.13794 0 4.94264 0 5.93536V9.37931H24V5.93536Z" fill="#FF4B55"/>
<path d="M24 9.37921H0V14.6203H24V9.37921Z" fill="#FFE15A"/>
<path d="M11.4655 9.65416C11.4655 9.65416 11.4549 9.66747 11.4349 9.69246C11.4183 9.71552 11.3933 9.75096 11.366 9.79811C11.3123 9.89182 11.256 10.0371 11.2544 10.2102C11.2539 10.2947 11.2713 10.3972 11.3001 10.4787C11.3313 10.5687 11.3831 10.6548 11.4486 10.7316C11.5142 10.8092 11.6018 10.869 11.6955 10.9132C11.7419 10.9368 11.7929 10.9503 11.8435 10.9628C11.8686 10.9704 11.8953 10.9708 11.921 10.9758C11.934 10.9783 11.9474 10.9772 11.9605 10.9782L11.9802 10.9791L11.9901 10.9796L11.995 10.9799L11.9975 10.9801L11.9988 10.9801C11.9948 10.9803 12.0094 10.9799 11.9901 10.9804C12.0222 10.9786 12.0611 10.9783 12.0875 10.9751C12.1106 10.9697 12.13 10.9706 12.1564 10.9628C12.2071 10.9503 12.258 10.9368 12.3045 10.9132C12.3981 10.8691 12.4858 10.8093 12.5514 10.7317C12.6168 10.6548 12.6686 10.5687 12.6999 10.4787C12.7298 10.3872 12.7458 10.2996 12.7455 10.2099C12.7441 10.0375 12.6877 9.89168 12.634 9.79807C12.6069 9.7511 12.5818 9.71542 12.564 9.69138C12.5454 9.66771 12.5355 9.655 12.5355 9.655L12.533 9.65186C12.5152 9.62908 12.5192 9.59622 12.542 9.57836C12.56 9.5643 12.5844 9.56388 12.6025 9.5755C12.6025 9.5755 12.6178 9.5853 12.6464 9.60363C12.6735 9.62397 12.7155 9.65271 12.7608 9.69921C12.8515 9.78911 12.9694 9.94924 13.0119 10.1819C13.033 10.2933 13.0353 10.428 13.0062 10.5604C12.9781 10.6942 12.9211 10.8326 12.829 10.9536C12.7385 11.0752 12.6169 11.1827 12.4724 11.2552C12.4011 11.2932 12.3235 11.3208 12.244 11.3401C12.2058 11.3513 12.1574 11.3559 12.1143 11.3627C12.0738 11.3672 12.0451 11.3673 12.0099 11.3697L11.9962 11.3698L11.9924 11.3696L11.9847 11.3692L11.9693 11.3684L11.9385 11.3668C11.918 11.3651 11.8975 11.3654 11.8772 11.3619C11.8367 11.3548 11.7955 11.3515 11.7561 11.3401C11.6765 11.3209 11.5989 11.2932 11.5276 11.2552C11.3831 11.1827 11.2615 11.0751 11.1711 10.9536C11.079 10.8325 11.022 10.6942 10.9938 10.5604C10.9637 10.4179 10.9675 10.2981 10.9882 10.1815C11.0306 9.94952 11.1485 9.78883 11.2393 9.69911C11.2843 9.6528 11.3265 9.62378 11.3547 9.6025C11.3819 9.58544 11.3965 9.5763 11.3965 9.5763C11.4212 9.56083 11.4537 9.56824 11.4692 9.59289C11.4813 9.61249 11.4791 9.6371 11.4655 9.65416Z" fill="#73AF00"/>
<path d="M11.896 13.775V14.4299C11.896 14.4952 11.817 14.5279 11.7708 14.4817L11.7348 14.4457C11.7048 14.4157 11.688 14.3752 11.688 14.3328V13.775H11.896Z" fill="#FF4B55"/>
<path d="M11.584 13.671V14.1463C11.584 14.1749 11.5953 14.2023 11.6155 14.2225L11.688 14.2949V13.671H11.584Z" fill="#FFE15A"/>
<path d="M11.48 13.671V13.9261C11.48 13.9625 11.4945 13.9974 11.5202 14.0231L11.5839 14.0869V13.671H11.48Z" fill="#73AF00"/>
<path d="M12.104 13.775V14.4299C12.104 14.4952 12.183 14.5279 12.2292 14.4817L12.2652 14.4457C12.2952 14.4157 12.312 14.3752 12.312 14.3328V13.775H12.104Z" fill="#FF4B55"/>
<path d="M12.416 13.671V14.1463C12.416 14.1749 12.4046 14.2023 12.3844 14.2225L12.312 14.2949V13.671H12.416Z" fill="#FFE15A"/>
<path d="M12.52 13.671V13.9261C12.52 13.9625 12.5055 13.9974 12.4798 14.0231L12.416 14.0869V13.671H12.52Z" fill="#73AF00"/>
<path d="M12.5199 11.7992L13.6638 10.9672V12.6781C13.6638 13.169 13.2658 13.567 12.7748 13.567C12.6082 13.567 12.445 13.5202 12.3037 13.4319L11.688 13.0471V11.7847L12.5199 11.7992Z" fill="#FF4B55"/>
<path d="M13.2478 11.2697V12.47C13.2478 12.961 12.8498 13.359 12.3589 13.359C12.2851 13.359 12.2123 13.3483 12.1414 13.3304L11.688 13.047V11.7846L12.5199 11.7991L13.2478 11.2697Z" fill="#FFE15A"/>
<path d="M12.9359 11.4966V12.2715C12.9359 12.7624 12.5379 13.1604 12.047 13.1604C11.9731 13.1604 11.9003 13.1498 11.8295 13.1318L11.688 13.0434V11.7846L12.5199 11.7991L12.9359 11.4966Z" fill="#73AF00"/>
<path d="M13.7262 10.78L14.1838 10.5513L13.851 10.9672H13.6638L13.7262 10.78Z" fill="#F5F5F5"/>
<path d="M13.1439 12.3191L14.2878 11.4871V13.198C14.2878 13.6889 13.8898 14.0869 13.3989 14.0869C13.2323 14.0869 13.069 14.0401 12.9277 13.9518L12.312 13.567V12.3046L13.1439 12.3191Z" fill="#FF4B55"/>
<path d="M13.5599 12.0165V12.7914C13.5599 13.2824 13.1619 13.6804 12.671 13.6804C12.5972 13.6804 12.5244 13.6697 12.4535 13.6518L12.312 13.5634V12.3047L13.1439 12.3191L13.5599 12.0165Z" fill="#73AF00"/>
<path d="M14.3502 11.3L14.8078 11.0712L14.475 11.4871H14.2878L14.3502 11.3Z" fill="#F5F5F5"/>
<path d="M12.8319 12.1111L13.9758 11.2792V12.99C13.9758 13.481 13.5778 13.879 13.0869 13.879C12.9203 13.879 12.757 13.8321 12.6157 13.7439L12 13.359V12.0967L12.8319 12.1111Z" fill="#FF4B55"/>
<path d="M13.5599 11.5817V12.782C13.5599 13.273 13.1619 13.6709 12.671 13.6709C12.5971 13.6709 12.5244 13.6603 12.4535 13.6423L12 13.359V12.0966L12.8319 12.1111L13.5599 11.5817Z" fill="#FFE15A"/>
<path d="M13.2479 11.8085V12.5834C13.2479 13.0744 12.8499 13.4724 12.359 13.4724C12.2851 13.4724 12.2124 13.4617 12.1415 13.4438L12 13.3554V12.0966L12.8319 12.1111L13.2479 11.8085Z" fill="#73AF00"/>
<path d="M14.0382 11.092L14.4958 10.8632L14.163 11.2791H13.9758L14.0382 11.092Z" fill="#F5F5F5"/>
<path d="M11.4801 11.7992L10.3362 10.9672V12.6781C10.3362 13.169 10.7342 13.567 11.2251 13.567C11.3917 13.567 11.555 13.5202 11.6963 13.4319L12.312 13.0471V11.7847L11.4801 11.7992Z" fill="#FF4B55"/>
<path d="M10.7522 11.2697V12.47C10.7522 12.961 11.1502 13.359 11.6411 13.359C11.715 13.359 11.7877 13.3483 11.8586 13.3304L12.3121 13.047V11.7846L11.4801 11.7991L10.7522 11.2697Z" fill="#FFE15A"/>
<path d="M11.0642 11.4966V12.2715C11.0642 12.7624 11.4622 13.1604 11.9531 13.1604C12.027 13.1604 12.0998 13.1498 12.1706 13.1318L12.3121 13.0434V11.7846L11.4802 11.7991L11.0642 11.4966Z" fill="#73AF00"/>
<path d="M10.2738 10.78L9.81616 10.5513L10.149 10.9672H10.3361L10.2738 10.78Z" fill="#F5F5F5"/>
<path d="M10.856 12.3191L9.71216 11.4871V13.198C9.71216 13.6889 10.1102 14.0869 10.6011 14.0869C10.7677 14.0869 10.931 14.0401 11.0722 13.9518L11.6879 13.567V12.3046L10.856 12.3191Z" fill="#FF4B55"/>
<path d="M10.4402 12.0165V12.7914C10.4402 13.2824 10.8382 13.6804 11.3291 13.6804C11.403 13.6804 11.4757 13.6697 11.5466 13.6518L11.6881 13.5634V12.3047L10.8562 12.3191L10.4402 12.0165Z" fill="#73AF00"/>
<path d="M9.64993 11.3L9.19238 11.0712L9.52515 11.4871H9.71227L9.64993 11.3Z" fill="#F5F5F5"/>
<path d="M11.1681 12.1111L10.0242 11.2792V12.99C10.0242 13.481 10.4222 13.879 10.9131 13.879C11.0797 13.879 11.243 13.8321 11.3842 13.7439L12 13.359V12.0967L11.1681 12.1111Z" fill="#FF4B55"/>
<path d="M10.4402 11.5817V12.782C10.4402 13.273 10.8382 13.6709 11.3291 13.6709C11.403 13.6709 11.4757 13.6603 11.5466 13.6423L12 13.3589V12.0966L11.1681 12.111L10.4402 11.5817Z" fill="#FFE15A"/>
<path d="M10.7522 11.8085V12.5834C10.7522 13.0744 11.1502 13.4724 11.6411 13.4724C11.715 13.4724 11.7877 13.4617 11.8586 13.4438L12.0001 13.3554V12.0966L11.1682 12.111L10.7522 11.8085Z" fill="#73AF00"/>
<path d="M10.6382 13.6572L10.5011 13.5201C10.418 13.437 10.4202 13.3015 10.5061 13.2211L12.7756 11.0885L13.0698 11.3826L10.9371 13.6522C10.8569 13.7381 10.7214 13.7404 10.6382 13.6572Z" fill="#FFBE5A"/>
<path d="M10.57 13.6926C10.6275 13.6926 10.674 13.646 10.674 13.5886C10.674 13.5312 10.6275 13.4846 10.57 13.4846C10.5126 13.4846 10.4661 13.5312 10.4661 13.5886C10.4661 13.646 10.5126 13.6926 10.57 13.6926Z" fill="#FFBE5A"/>
<path d="M12.9963 11.1624C12.9151 11.0812 12.8164 11.0482 12.7758 11.0888C12.7352 11.1294 12.7681 11.2282 12.8493 11.3094C12.9305 11.3906 13.0293 11.4235 13.0699 11.3829C13.1105 11.3423 13.0775 11.2436 12.9963 11.1624Z" fill="#F5F5F5"/>
<path d="M13.362 13.6572L13.4991 13.5201C13.5822 13.437 13.58 13.3015 13.4941 13.2211L11.2246 11.0885L10.9304 11.3826L13.063 13.6522C13.1434 13.7381 13.2788 13.7404 13.362 13.6572Z" fill="#FFBE5A"/>
<path d="M13.4304 13.6926C13.4878 13.6926 13.5344 13.646 13.5344 13.5886C13.5344 13.5312 13.4878 13.4846 13.4304 13.4846C13.373 13.4846 13.3264 13.5312 13.3264 13.5886C13.3264 13.646 13.373 13.6926 13.4304 13.6926Z" fill="#FFBE5A"/>
<path d="M11.1512 11.3095C11.2324 11.2283 11.2654 11.1296 11.2248 11.089C11.1842 11.0484 11.0854 11.0813 11.0042 11.1625C10.923 11.2437 10.8901 11.3424 10.9307 11.383C10.9713 11.4236 11.07 11.3907 11.1512 11.3095Z" fill="#F5F5F5"/>
<path d="M12.0001 13.5672C12.5079 13.5672 12.9196 13.0784 12.9196 12.4753C12.9196 11.8723 12.5079 11.3834 12.0001 11.3834C11.4922 11.3834 11.0806 11.8723 11.0806 12.4753C11.0806 13.0784 11.4922 13.5672 12.0001 13.5672Z" fill="#FFBE5A"/>
<path d="M11.9999 11.4871L12.0488 11.6989L12.1606 11.5126L12.1415 11.7291L12.3055 11.5864L12.2205 11.7865L12.4206 11.7015L12.2779 11.8654L12.4944 11.8464L12.308 11.9583L12.5199 12.0071L12.308 12.0559L12.4944 12.1678L12.2779 12.1488L12.4206 12.3127L12.2205 12.2277L12.3055 12.4278L12.1415 12.2851L12.1606 12.5016L12.0488 12.3153L11.9999 12.527L11.9511 12.3153L11.8393 12.5016L11.8583 12.2851L11.6943 12.4278L11.7793 12.2277L11.5793 12.3127L11.7219 12.1488L11.5054 12.1678L11.6918 12.0559L11.48 12.0071L11.6918 11.9583L11.5054 11.8464L11.7219 11.8654L11.5793 11.7015L11.7793 11.7865L11.6943 11.5864L11.8583 11.7291L11.8393 11.5126L11.9511 11.6989L11.9999 11.4871Z" fill="#FF4B55"/>
<path d="M13.1503 12.4556C13.1503 12.4556 12.8058 12.5466 12.5816 12.3581C12.3324 12.1486 12.1456 12.0497 12.0655 12.0126C12.0381 11.9999 12.0074 11.9999 11.98 12.0125C11.9226 12.039 11.817 12.0939 11.7237 12.1761C11.5872 12.2964 11.168 12.5336 11.0835 12.5336V13.0506L11.7432 13.6223L12.5231 13.5995L13.1503 12.4556Z" fill="#73AF00"/>
<path d="M12.0001 13.827C11.3407 13.827 10.8042 13.2205 10.8042 12.4751C10.8042 11.7297 11.3406 11.1232 12.0001 11.1232C12.6596 11.1232 13.196 11.7297 13.196 12.4751C13.196 13.2205 12.6596 13.827 12.0001 13.827ZM12.0001 11.4352C11.5127 11.4352 11.1162 11.9017 11.1162 12.4751C11.1162 13.0485 11.5127 13.515 12.0001 13.515C12.4875 13.515 12.884 13.0485 12.884 12.4751C12.884 11.9017 12.4875 11.4352 12.0001 11.4352Z" fill="#3CC8FF"/>
<path d="M11.8208 13.5443L11.8437 13.613L11.9161 13.6136C11.9255 13.6136 11.9293 13.6256 11.9218 13.6312L11.8636 13.6742L11.8855 13.7432C11.8883 13.7522 11.8781 13.7596 11.8705 13.7541L11.8115 13.712L11.7526 13.7541C11.745 13.7595 11.7348 13.7521 11.7376 13.7432L11.7595 13.6742L11.7012 13.6312C11.6937 13.6256 11.6976 13.6136 11.707 13.6136L11.7794 13.613L11.8023 13.5443C11.8053 13.5354 11.8178 13.5354 11.8208 13.5443Z" fill="#FFBE5A"/>
<path d="M11.4956 13.4046L11.5185 13.4732L11.5909 13.4738C11.6003 13.4739 11.6041 13.4859 11.5966 13.4914L11.5384 13.5344L11.5603 13.6035C11.5631 13.6124 11.5529 13.6198 11.5453 13.6143L11.4863 13.5722L11.4274 13.6143C11.4198 13.6198 11.4096 13.6124 11.4124 13.6035L11.4343 13.5344L11.3761 13.4914C11.3685 13.4858 11.3724 13.4739 11.3818 13.4738L11.4542 13.4732L11.4771 13.4046C11.4801 13.3957 11.4927 13.3957 11.4956 13.4046Z" fill="#FFBE5A"/>
<path d="M11.2346 13.1674L11.2575 13.2361L11.3299 13.2366C11.3393 13.2367 11.3432 13.2487 11.3357 13.2542L11.2774 13.2972L11.2993 13.3663C11.3021 13.3752 11.2919 13.3826 11.2843 13.3772L11.2254 13.3351L11.1664 13.3772C11.1588 13.3826 11.1486 13.3752 11.1514 13.3663L11.1733 13.2972L11.1151 13.2542C11.1075 13.2486 11.1114 13.2367 11.1208 13.2366L11.1932 13.2361L11.2161 13.1674C11.2191 13.1585 11.2316 13.1585 11.2346 13.1674Z" fill="#FFBE5A"/>
<path d="M11.0566 12.8516L11.0795 12.9203L11.152 12.9208C11.1613 12.9209 11.1652 12.9329 11.1577 12.9384L11.0995 12.9814L11.1213 13.0505C11.1242 13.0594 11.1139 13.0668 11.1063 13.0614L11.0474 13.0193L10.9885 13.0614C10.9809 13.0668 10.9706 13.0594 10.9735 13.0505L10.9953 12.9814L10.9371 12.9384C10.9295 12.9328 10.9334 12.9209 10.9428 12.9208L11.0152 12.9203L11.0382 12.8516C11.0411 12.8427 11.0537 12.8427 11.0566 12.8516Z" fill="#FFBE5A"/>
<path d="M10.978 12.4843L11.0009 12.553L11.0733 12.5536C11.0827 12.5536 11.0866 12.5656 11.0791 12.5712L11.0208 12.6142L11.0427 12.6832C11.0456 12.6922 11.0353 12.6996 11.0277 12.6941L10.9688 12.652L10.9098 12.6941C10.9023 12.6995 10.892 12.6921 10.8948 12.6832L10.9167 12.6142L10.8585 12.5712C10.8509 12.5656 10.8548 12.5536 10.8642 12.5536L10.9366 12.553L10.9595 12.4843C10.9624 12.4754 10.9751 12.4754 10.978 12.4843Z" fill="#FFBE5A"/>
<path d="M12.1785 13.5443L12.1556 13.613L12.0832 13.6136C12.0738 13.6136 12.0699 13.6256 12.0774 13.6312L12.1357 13.6742L12.1138 13.7432C12.111 13.7522 12.1212 13.7596 12.1288 13.7541L12.1877 13.712L12.2467 13.7541C12.2543 13.7595 12.2645 13.7521 12.2617 13.7432L12.2398 13.6742L12.298 13.6312C12.3056 13.6256 12.3017 13.6136 12.2923 13.6136L12.2199 13.613L12.197 13.5443C12.194 13.5354 12.1815 13.5354 12.1785 13.5443Z" fill="#FFBE5A"/>
<path d="M12.5037 13.4046L12.4808 13.4732L12.4084 13.4738C12.399 13.4739 12.3951 13.4859 12.4027 13.4914L12.4609 13.5344L12.439 13.6035C12.4362 13.6124 12.4464 13.6198 12.454 13.6143L12.513 13.5722L12.5719 13.6143C12.5795 13.6198 12.5897 13.6124 12.5869 13.6035L12.565 13.5344L12.6233 13.4914C12.6308 13.4858 12.6269 13.4739 12.6175 13.4738L12.5451 13.4732L12.5222 13.4046C12.5192 13.3957 12.5066 13.3957 12.5037 13.4046Z" fill="#FFBE5A"/>
<path d="M12.7647 13.1674L12.7418 13.2361L12.6693 13.2366C12.66 13.2367 12.6561 13.2487 12.6636 13.2542L12.7218 13.2972L12.7 13.3663C12.6971 13.3752 12.7074 13.3826 12.715 13.3772L12.7739 13.3351L12.8328 13.3772C12.8404 13.3826 12.8507 13.3752 12.8478 13.3663L12.826 13.2972L12.8842 13.2542C12.8918 13.2486 12.8879 13.2367 12.8785 13.2366L12.8061 13.2361L12.7832 13.1674C12.7803 13.1585 12.7676 13.1585 12.7647 13.1674Z" fill="#FFBE5A"/>
<path d="M12.9429 12.8516L12.92 12.9203L12.8476 12.9208C12.8382 12.9209 12.8344 12.9329 12.8419 12.9384L12.9001 12.9814L12.8782 13.0505C12.8754 13.0594 12.8856 13.0668 12.8932 13.0614L12.9521 13.0193L13.0111 13.0614C13.0187 13.0668 13.0289 13.0594 13.0261 13.0505L13.0042 12.9814L13.0624 12.9384C13.07 12.9328 13.0661 12.9209 13.0567 12.9208L12.9843 12.9203L12.9614 12.8516C12.9584 12.8427 12.9459 12.8427 12.9429 12.8516Z" fill="#FFBE5A"/>
<path d="M13.0213 12.4843L12.9984 12.553L12.926 12.5536C12.9166 12.5536 12.9127 12.5656 12.9202 12.5712L12.9785 12.6142L12.9566 12.6832C12.9538 12.6922 12.964 12.6996 12.9716 12.6941L13.0305 12.652L13.0895 12.6941C13.0971 12.6995 13.1073 12.6921 13.1045 12.6832L13.0826 12.6142L13.1408 12.5712C13.1484 12.5656 13.1445 12.5536 13.1351 12.5536L13.0627 12.553L13.0398 12.4843C13.0369 12.4754 13.0243 12.4754 13.0213 12.4843Z" fill="#FFBE5A"/>
<path d="M11.5481 13.1418L11.5826 13.307H11.5975V13.1943C11.5975 13.1943 11.6221 13.2729 11.6568 13.307H11.685C11.6715 13.2897 11.6473 13.2538 11.6473 13.2167C11.6473 13.1656 11.688 13.1586 11.688 13.1039H11.7229V13.307H11.7433L11.7811 13.126C11.7811 13.126 11.8122 13.2392 11.8708 13.307H11.8968C11.8781 13.2794 11.839 13.2081 11.8462 13.1004C11.8462 13.1004 11.902 13.0725 11.902 12.9969V12.8894C11.902 12.8693 11.9184 12.8529 11.9385 12.8529H11.9636C11.9636 12.8529 11.9262 12.7805 11.8863 12.77V12.7247L11.8563 12.7701C11.8276 12.7763 11.8107 12.8028 11.8107 12.8312V12.8967C11.8107 12.9168 11.7944 12.9332 11.7742 12.9332H11.6439C11.6053 12.9332 11.5435 12.9717 11.5435 13.0212C11.5435 13.0707 11.5805 13.1031 11.5805 13.1031L11.5481 13.1418Z" fill="#F5F5F5"/>
<path d="M12.1321 12.977H12.1202C12.0257 12.9821 11.9729 13.0443 11.9729 13.0443L12.0688 13.1402V13.3205H12.1835V13.1402L12.2793 13.0443C12.2794 13.0443 12.2266 12.9822 12.1321 12.977Z" fill="#FFBE5A"/>
<path d="M12.3684 12.682H12.3337V13.3211H12.3684V12.682Z" fill="#F5F5F5"/>
<path d="M12.3521 12.6771L12.1652 12.903C12.1652 12.903 12.1409 12.7941 12.2497 12.6869L12.0093 12.7308C12.0093 12.7308 12.0824 12.5943 12.2741 12.6089L12.0775 12.4448C12.0775 12.4448 12.2465 12.4351 12.3326 12.5618C12.3326 12.5618 12.3813 12.4156 12.5178 12.4091L12.4052 12.5802C12.4052 12.5802 12.5178 12.5228 12.6738 12.5732L12.4415 12.6349C12.4415 12.6349 12.5715 12.6479 12.6251 12.8381L12.4236 12.7C12.4236 12.7 12.4854 12.7731 12.4626 12.9161L12.3521 12.6771Z" fill="#F5F5F5"/>
<path d="M9.96179 11.092L9.50415 10.8632L9.83696 11.2791H10.0241L9.96179 11.092Z" fill="#F5F5F5"/>
<path d="M12.3254 10.8271L13.5599 10.4472L12.9045 10.2015C12.7878 10.1577 12.6641 10.1353 12.5394 10.1353H12.416C12.3586 10.1353 12.312 10.1819 12.312 10.2393V10.3433H12H11.688V10.2393C11.688 10.1819 11.6415 10.1353 11.5841 10.1353H11.4607C11.336 10.1353 11.2123 10.1578 11.0955 10.2015L10.4402 10.4472L11.6747 10.8271C11.7361 10.846 11.7659 10.9155 11.7372 10.973L11.5841 11.2792H12.416L12.2629 10.973C12.2341 10.9155 12.2639 10.846 12.3254 10.8271Z" fill="#825546"/>
<path d="M11.9999 10.6549C12.1148 10.6549 12.2079 10.5619 12.2079 10.447C12.2079 10.3322 12.1148 10.2391 11.9999 10.2391C11.8851 10.2391 11.792 10.3322 11.792 10.447C11.792 10.5619 11.8851 10.6549 11.9999 10.6549Z" fill="#F5F5F5"/>
<path d="M12.1039 10.4472C12.1039 10.5046 12.0574 10.5512 12 10.5512H11.584L11.7615 10.3737C11.781 10.3542 11.8074 10.3432 11.835 10.3432H11.9999C12.0574 10.3433 12.1039 10.3898 12.1039 10.4472Z" fill="#FFBE5A"/>
</svg>
