<svg width="24" height="24" viewBox="0 0 24 24" fill="none" xmlns="http://www.w3.org/2000/svg">
<path d="M0 18.0646C0 19.0573 0.804703 19.8621 1.79742 19.8621H22.2026C23.1952 19.8621 24 19.0574 24 18.0646V16.9655H0V18.0646Z" fill="#4173CD"/>
<path d="M22.2026 4.13794H1.79742C0.804703 4.13794 0 4.94264 0 5.93536V7.03449H24V5.93536C24 4.94264 23.1953 4.13794 22.2026 4.13794Z" fill="#4173CD"/>
<path d="M24 7.03455H0V16.9655H24V7.03455Z" fill="#FF4B55"/>
<path d="M24 6.62061H0V7.44818H24V6.62061Z" fill="#FFE15A"/>
<path d="M24 16.5515H0V17.3791H24V16.5515Z" fill="#FFE15A"/>
<path d="M21.0421 12.3993H2.94068C2.81782 12.3993 2.71826 12.2997 2.71826 12.1769V12.1065C2.71826 11.9837 2.81782 11.8841 2.94068 11.8841H21.0421C21.1649 11.8841 21.2645 11.9837 21.2645 12.1065V12.1769C21.2645 12.2997 21.1649 12.3993 21.0421 12.3993Z" fill="#FFE15A"/>
<path d="M17.5295 11.369L18.4311 10.9826L19.3326 11.369L18.4311 11.7554L17.5295 11.369Z" fill="#F5F5F5"/>
<path d="M17.7512 11.2044H4.52127C4.43038 11.2044 4.35669 11.278 4.35669 11.369C4.35669 11.4599 4.43033 11.5336 4.52127 11.5336H17.7512C17.8421 11.5336 17.9158 11.4599 17.9158 11.369C17.9158 11.2781 17.8421 11.2044 17.7512 11.2044Z" fill="#FFE15A"/>
<path d="M18.4668 10.4674L19.3683 10.0811L20.2699 10.4674L19.3683 10.8538L18.4668 10.4674Z" fill="#F5F5F5"/>
<path d="M18.6887 10.3029H5.45877C5.36788 10.3029 5.29419 10.3765 5.29419 10.4674C5.29419 10.5583 5.36783 10.632 5.45877 10.632H18.6887C18.7796 10.632 18.8533 10.5583 18.8533 10.4674C18.8533 10.3765 18.7796 10.3029 18.6887 10.3029Z" fill="#FFE15A"/>
<path d="M11.9914 8.79309C9.70354 8.79309 7.70751 10.0887 6.63843 12.0129C7.70746 13.9372 9.70354 15.2328 11.9914 15.2328C14.2793 15.2328 16.2753 13.9372 17.3444 12.0129C16.2754 10.0887 14.2792 8.79309 11.9914 8.79309Z" fill="#F5F5F5"/>
<path d="M6.63843 12.0129C7.70746 13.9371 9.70354 15.2328 11.9914 15.2328C12.3734 15.2328 12.7464 15.1936 13.1092 15.1244C12.8322 14.5164 11.8581 14.5174 11.7982 14.2883C11.7338 14.0414 12.5924 14.0951 12.7427 13.8912C12.893 13.6872 11.9271 13.6014 11.8841 13.3975C11.8412 13.1935 12.2705 13.054 12.3456 12.732C12.4208 12.41 12.5925 12.3135 12.7213 12.1203C12.8501 11.9271 12.5066 11.8627 12.4207 11.2188C12.3349 10.5748 11.8304 10.4889 11.5836 9.96307C11.3367 9.43718 11.7339 9.05079 11.9915 8.79321C9.70354 8.79307 7.70746 10.0887 6.63843 12.0129Z" fill="#464655"/>
<path d="M8.89991 10.8539H8.64233V11.8842H8.89991V10.8539Z" fill="#F5F5F5"/>
<path d="M9.41554 10.8539H9.15796V11.8842H9.41554V10.8539Z" fill="#F5F5F5"/>
<path d="M9.93067 10.8539H9.6731V11.8842H9.93067V10.8539Z" fill="#F5F5F5"/>
<path d="M10.4458 10.8539H10.1882V11.8842H10.4458V10.8539Z" fill="#F5F5F5"/>
<path d="M10.9609 10.8539H10.7034V11.8842H10.9609V10.8539Z" fill="#F5F5F5"/>
<path d="M11.4761 10.8539H11.2185V11.8842H11.4761V10.8539Z" fill="#F5F5F5"/>
<path d="M8.89991 12.3994H8.64233V13.4297H8.89991V12.3994Z" fill="#F5F5F5"/>
<path d="M9.41554 12.3994H9.15796V13.4297H9.41554V12.3994Z" fill="#F5F5F5"/>
<path d="M9.93067 12.3994H9.6731V13.4297H9.93067V12.3994Z" fill="#F5F5F5"/>
<path d="M10.4458 12.3994H10.1882V13.4297H10.4458V12.3994Z" fill="#F5F5F5"/>
<path d="M10.9609 12.3994H10.7034V13.4297H10.9609V12.3994Z" fill="#F5F5F5"/>
<path d="M11.4761 12.3994H11.2185V13.4297H11.4761V12.3994Z" fill="#F5F5F5"/>
<path d="M12.7639 10.8539H12.5063V11.8842H12.7639V10.8539Z" fill="#464655"/>
<path d="M13.2791 10.8539H13.0215V11.8842H13.2791V10.8539Z" fill="#464655"/>
<path d="M13.7942 10.8539H13.5366V11.8842H13.7942V10.8539Z" fill="#464655"/>
<path d="M14.3093 10.8539H14.0518V11.8842H14.3093V10.8539Z" fill="#464655"/>
<path d="M14.8245 10.8539H14.5669V11.8842H14.8245V10.8539Z" fill="#464655"/>
<path d="M15.3396 10.8539H15.082V11.8842H15.3396V10.8539Z" fill="#464655"/>
<path d="M12.7639 12.3994H12.5063V13.4297H12.7639V12.3994Z" fill="#464655"/>
<path d="M13.2791 12.3994H13.0215V13.4297H13.2791V12.3994Z" fill="#464655"/>
<path d="M13.7942 12.3994H13.5366V13.4297H13.7942V12.3994Z" fill="#464655"/>
<path d="M14.3093 12.3994H14.0518V13.4297H14.3093V12.3994Z" fill="#464655"/>
<path d="M14.8245 12.3994H14.5669V13.4297H14.8245V12.3994Z" fill="#464655"/>
<path d="M15.3396 12.3994H15.082V13.4297H15.3396V12.3994Z" fill="#464655"/>
<path d="M19.94 11.8439C19.7337 12.3231 19.1466 12.3795 19.4719 13.6011L19.6385 13.432C19.6385 13.432 19.8131 13.8924 20.2335 14.2025C20.2335 14.2025 20.7492 13.7702 20.7889 13.0843L21.003 13.1783C21.003 13.1782 20.8999 11.9285 19.94 11.8439Z" fill="#245DBD"/>
<path d="M20.7016 12.8258C20.6851 12.8258 20.6688 12.8182 20.6563 12.8033C20.4543 12.5596 20.197 12.4814 20.1945 12.4806C20.1605 12.4706 20.1397 12.4298 20.1481 12.3895C20.1566 12.3496 20.191 12.3246 20.2248 12.3346C20.2367 12.3381 20.5187 12.423 20.7468 12.6981C20.7714 12.7275 20.7709 12.7753 20.7461 12.8044C20.7337 12.8188 20.7177 12.8258 20.7016 12.8258Z" fill="#FF4B55"/>
<path d="M20.5561 13.3943C20.5371 13.3943 20.5183 13.3844 20.5058 13.3649C20.3559 13.1341 20.1859 13.0085 20.1842 13.0073C20.1543 12.9856 20.1451 12.9392 20.1635 12.9036C20.182 12.8684 20.221 12.8576 20.2509 12.8793C20.2588 12.8849 20.4426 13.0211 20.6064 13.2734C20.6278 13.3063 20.6226 13.3535 20.5948 13.3788C20.5833 13.3893 20.5696 13.3943 20.5561 13.3943Z" fill="#FF4B55"/>
<path d="M20.2231 14.0271C20.2195 14.0271 20.2159 14.0268 20.2122 14.0259C20.1777 14.0189 20.1544 13.9801 20.1603 13.9393C20.1853 13.7672 20.1644 13.485 20.13 13.3394C20.1206 13.2994 20.1403 13.258 20.1741 13.2466C20.2081 13.2357 20.2429 13.2589 20.2522 13.2989C20.2911 13.4633 20.3137 13.7702 20.2854 13.9646C20.2802 14.0013 20.2533 14.0271 20.2231 14.0271Z" fill="#FF4B55"/>
<path d="M19.7766 13.3329C19.7585 13.3329 19.7406 13.3239 19.7281 13.3062C19.7055 13.2745 19.7089 13.2269 19.7356 13.2002C19.7372 13.1988 19.8992 13.0343 19.9415 12.8068C19.9491 12.7663 19.9827 12.7407 20.0171 12.7495C20.0513 12.7584 20.0731 12.7986 20.0655 12.8391C20.0137 13.1175 19.8254 13.3075 19.8174 13.3154C19.8054 13.3271 19.791 13.3329 19.7766 13.3329Z" fill="#FF4B55"/>
<path d="M19.6004 12.852C19.5791 12.852 19.5583 12.8393 19.5463 12.8161C19.5279 12.7809 19.5372 12.7345 19.5671 12.7127C19.5695 12.711 19.7997 12.5415 19.8711 12.3566C19.8856 12.3184 19.9235 12.3016 19.9552 12.3193C19.9871 12.3366 20.0011 12.3812 19.9866 12.4188C19.899 12.6458 19.6443 12.8329 19.6336 12.8408C19.6231 12.8484 19.6117 12.852 19.6004 12.852Z" fill="#FF4B55"/>
<path d="M3.85709 12.0051C3.68463 12.4058 3.19371 12.453 3.46568 13.4744L3.60499 13.333C3.60499 13.333 3.75091 13.718 4.10252 13.9773C4.10252 13.9773 4.53368 13.6158 4.56687 13.0423L4.74598 13.1208C4.74598 13.1209 4.65977 12.0759 3.85709 12.0051Z" fill="#245DBD"/>
<path d="M4.49389 12.8263C4.48006 12.8263 4.46642 12.82 4.45606 12.8074C4.28712 12.6036 4.07196 12.5383 4.06985 12.5375C4.04145 12.5292 4.02401 12.4951 4.03114 12.4614C4.03817 12.428 4.06699 12.4071 4.09526 12.4155C4.1052 12.4184 4.34098 12.4894 4.53171 12.7195C4.55224 12.744 4.55192 12.784 4.5311 12.8083C4.52074 12.8204 4.50734 12.8263 4.49389 12.8263Z" fill="#FF4B55"/>
<path d="M4.37231 13.3017C4.35642 13.3017 4.34071 13.2933 4.33021 13.2771C4.20487 13.0841 4.06279 12.979 4.06134 12.978C4.03635 12.9599 4.02871 12.9211 4.04399 12.8914C4.05946 12.8619 4.09209 12.8528 4.11707 12.871C4.12359 12.8756 4.27729 12.9896 4.41435 13.2005C4.43221 13.228 4.42785 13.2675 4.40465 13.2886C4.39499 13.2975 4.38356 13.3017 4.37231 13.3017Z" fill="#FF4B55"/>
<path d="M4.09389 13.8308C4.09089 13.8308 4.08789 13.8305 4.0848 13.8298C4.05597 13.8239 4.03647 13.7915 4.04144 13.7574C4.06239 13.6135 4.04486 13.3775 4.01613 13.2558C4.00825 13.2224 4.02471 13.1878 4.05293 13.1782C4.08143 13.1691 4.11044 13.1885 4.11832 13.2219C4.15075 13.3594 4.16974 13.616 4.14611 13.7785C4.14166 13.8091 4.11916 13.8308 4.09389 13.8308Z" fill="#FF4B55"/>
<path d="M3.72063 13.2503C3.70549 13.2503 3.69049 13.2427 3.67999 13.228C3.6611 13.2015 3.66391 13.1617 3.68632 13.1393C3.68768 13.1381 3.82315 13.0006 3.85845 12.8103C3.86477 12.7764 3.89285 12.7551 3.92163 12.7624C3.95023 12.7698 3.96841 12.8034 3.96209 12.8373C3.91873 13.0701 3.76127 13.229 3.75457 13.2356C3.74468 13.2454 3.73268 13.2503 3.72063 13.2503Z" fill="#FF4B55"/>
<path d="M3.57322 12.8481C3.55536 12.8481 3.53802 12.8376 3.5279 12.8182C3.51252 12.7887 3.52035 12.7499 3.54533 12.7317C3.5473 12.7303 3.73977 12.5886 3.79949 12.4339C3.81158 12.402 3.84336 12.388 3.8699 12.4027C3.89652 12.4172 3.90824 12.4546 3.8961 12.4859C3.82279 12.6757 3.60993 12.8321 3.60093 12.8388C3.59221 12.8452 3.58265 12.8481 3.57322 12.8481Z" fill="#FF4B55"/>
</svg>
