<svg width="24" height="24" viewBox="0 0 24 24" fill="none" xmlns="http://www.w3.org/2000/svg">
<path d="M22.2026 19.8621H1.79742C0.804703 19.8621 0 19.0574 0 18.0646V5.93536C0 4.94269 0.804703 4.13794 1.79742 4.13794H22.2026C23.1952 4.13794 24 4.94264 24 5.93536V18.0647C24 19.0574 23.1953 19.8621 22.2026 19.8621Z" fill="#FF4B55"/>
<path d="M1.79705 19.8621H22.203C22.6428 19.862 23.0455 19.7037 23.3579 19.4414L0.642187 4.55865C0.249656 4.88842 0 5.38262 0 5.93537V18.0647C0 19.0572 0.804516 19.8619 1.79705 19.8621Z" fill="#464655"/>
<path d="M2.41408 11.7322L2.17727 12.4423L1.42877 12.4481C1.35696 12.4486 1.32724 12.5402 1.38494 12.5829L1.98705 13.0275L1.76125 13.7411C1.7396 13.8096 1.81755 13.8662 1.87591 13.8245L2.48486 13.3892L3.09382 13.8245C3.15222 13.8662 3.23013 13.8096 3.20847 13.7411L2.98268 13.0275L3.58478 12.5829C3.64249 12.5403 3.61277 12.4487 3.54096 12.4481L2.79246 12.4423L2.55564 11.7322C2.5331 11.6641 2.43677 11.6641 2.41408 11.7322Z" fill="#F5F5F5"/>
<path d="M7.5132 11.7322L7.27639 12.4423L6.52789 12.4481C6.45608 12.4486 6.42636 12.5402 6.48406 12.5829L7.08617 13.0275L6.86037 13.7411C6.83872 13.8096 6.91667 13.8662 6.97503 13.8245L7.58398 13.3892L8.19294 13.8245C8.25134 13.8662 8.32925 13.8096 8.30759 13.7411L8.0818 13.0275L8.68391 12.5829C8.74161 12.5403 8.71189 12.4487 8.64008 12.4481L7.89158 12.4423L7.65477 11.7322C7.63227 11.6641 7.53594 11.6641 7.5132 11.7322Z" fill="#F5F5F5"/>
<path d="M4.96364 8.64148L4.72683 9.35154L3.97833 9.35735C3.90652 9.35791 3.8768 9.44951 3.9345 9.49216L4.53661 9.93677L4.31081 10.6504C4.28916 10.7188 4.36711 10.7755 4.42547 10.7337L5.03442 10.2985L5.64338 10.7337C5.70178 10.7755 5.77969 10.7188 5.75803 10.6504L5.53224 9.93677L6.13435 9.49216C6.19205 9.44955 6.16233 9.35796 6.09052 9.35735L5.34202 9.35154L5.1052 8.64148C5.08266 8.57337 4.98638 8.57337 4.96364 8.64148Z" fill="#F5F5F5"/>
<path d="M4.96364 16.2421L4.72683 16.9522L3.97833 16.958C3.90652 16.9586 3.8768 17.0502 3.9345 17.0928L4.53661 17.5374L4.31081 18.2511C4.28916 18.3195 4.36711 18.3761 4.42547 18.3344L5.03442 17.8991L5.64338 18.3344C5.70178 18.3762 5.77969 18.3195 5.75803 18.2511L5.53224 17.5374L6.13435 17.0928C6.19205 17.0502 6.16233 16.9586 6.09052 16.958L5.34202 16.9522L5.1052 16.2421C5.08266 16.1741 4.98638 16.1741 4.96364 16.2421Z" fill="#F5F5F5"/>
<path d="M6.15135 14.3902L6.0254 14.7678L5.62738 14.7709C5.58923 14.7712 5.57338 14.8199 5.60409 14.8426L5.92424 15.079L5.80419 15.4585C5.79266 15.4949 5.8341 15.525 5.86518 15.5028L6.18904 15.2713L6.5129 15.5028C6.54393 15.525 6.58537 15.4949 6.57388 15.4585L6.45384 15.079L6.77399 14.8426C6.80469 14.8199 6.7889 14.7712 6.75069 14.7709L6.35268 14.7678L6.22673 14.3902C6.21463 14.3541 6.1634 14.3541 6.15135 14.3902Z" fill="#F5F5F5"/>
<path d="M20.5107 11.6412C20.4502 11.1722 20.2498 10.7088 20.1043 10.4227C20.1761 10.4586 20.2879 10.5233 20.2879 10.5233L20.1893 10.1658C20.4358 10.2644 20.6208 10.4556 20.6208 10.4556C20.4975 9.83906 20.3064 9.54938 20.3064 9.54938L20.4605 9.60488C20.1707 8.88975 19.7392 8.68631 19.7392 8.68631L19.9857 8.62467C19.622 8.16849 19.1103 8.01436 19.1103 8.01436L19.4432 7.85405C18.5617 7.35469 17.7109 7.8787 17.7109 7.8787C17.7109 7.8787 18.0069 7.5705 18.1178 7.44103C18.2288 7.31156 17.9637 7.26844 17.9637 7.26844C17.9637 7.26844 18.2226 7.08966 18.2103 6.98485C18.1979 6.88003 17.9637 6.93553 17.9637 6.93553C17.9637 6.93553 18.1671 6.72596 18.1671 6.60881C18.1671 6.49167 17.9575 6.56569 17.9575 6.56569C17.9575 6.56569 18.0254 6.42389 18.0439 6.31289C18.0624 6.20194 17.8589 6.29438 17.8589 6.29438C17.8589 6.29438 18.087 5.8875 18.0747 5.8012C18.0624 5.71486 17.4768 6.07861 17.0575 6.47935C16.6383 6.88013 16.6886 7.524 16.7258 7.67724C16.7629 7.83047 16.7861 8.18785 16.6004 8.31314C16.4147 8.43849 16.0834 8.13155 15.919 7.9425C15.7547 7.75345 15.5492 7.81917 15.3355 7.89314C15.1217 7.96711 14.719 7.86849 14.5957 7.85203C14.4723 7.83558 14.7354 7.97536 14.9573 8.05753C15.1793 8.1397 15.2779 8.337 15.5903 8.45208C15.8638 8.55291 16.0829 8.8088 15.8677 8.92674C15.7 9.01866 15.7012 8.87124 14.9615 8.68017C14.2217 8.48906 13.334 10.3693 13.334 10.3693C13.8092 10.3105 14.0521 10.0259 14.0521 10.0259L13.9237 10.3942C14.2749 10.3276 14.4467 10.1141 14.4467 10.1141L14.3538 10.4855C14.623 10.4019 14.8087 10.1141 14.8087 10.1141L14.7298 10.4808C14.9943 10.3554 15.1337 10.1141 15.1337 10.1141C15.1615 10.2487 15.1834 10.5234 15.1834 10.5234C15.5932 10.3044 15.6889 9.99328 15.6889 9.99328C16.1575 11.4112 16.8356 11.6454 16.8356 11.6454L16.8726 11.2755C17.0822 11.5715 17.3781 11.7194 17.3781 11.7194L17.3288 11.3988C18.0562 12.2865 18.8946 12.5085 18.8946 12.5085L18.6799 12.0172L18.9439 12.0707C18.6603 11.8303 18.5555 11.4111 18.5555 11.4111L18.7775 11.4481C18.4199 11.1214 18.2411 10.7453 18.2411 10.7453L18.457 10.7823C18.3891 10.6775 18.3336 10.3076 18.3336 10.3076C18.7282 10.431 18.9316 10.585 18.9316 10.585L18.955 10.4507C19.2935 10.6946 19.8493 11.1487 20.2345 11.7195C20.2351 11.9056 20.205 12.0937 20.1276 12.2824C19.7743 13.1442 18.8453 13.0879 18.4343 12.907C18.4343 12.907 19.7084 13.9016 20.4071 12.4878C20.4514 12.3983 20.4791 12.3024 20.4989 12.204C20.5861 12.4119 20.6463 12.6286 20.6578 12.8536C20.7318 14.2962 19.2276 14.1606 19.2276 14.1606C19.2276 14.1606 20.8921 14.8264 20.9661 12.903C20.9824 12.4753 20.8014 12.0477 20.5107 11.6412ZM18.9984 10.2012L19.0056 10.1596C19.2584 10.2336 19.5235 10.4124 19.5235 10.4124L19.582 10.2367C19.8321 10.5372 20.0319 10.8606 20.143 11.1954C19.8055 10.8327 19.4009 10.4958 18.9984 10.2012Z" fill="#FFE15A"/>
</svg>
