<svg width="24" height="24" viewBox="0 0 24 24" fill="none" xmlns="http://www.w3.org/2000/svg">
<path d="M0 18.0647C0 19.0573 0.804703 19.8621 1.79742 19.8621H22.2026C23.1947 19.8621 23.9991 19.0583 24 18.0665V14.6207H0V18.0647Z" fill="#41479B"/>
<path d="M22.2026 4.13788H1.79742C0.804703 4.13788 0 4.94263 0 5.9353V9.37925H24V5.93352C23.9991 4.94174 23.1947 4.13788 22.2026 4.13788Z" fill="#FF4B55"/>
<path d="M24 9.37915H0V14.6202H24V9.37915Z" fill="#F5F5F5"/>
<path d="M10.2621 9.51697H9.10352V10.8412H10.2621V9.51697Z" fill="#FF4B55"/>
<path d="M12.5793 9.51697H11.4207V10.8412H12.5793V9.51697Z" fill="#FF4B55"/>
<path d="M11.4208 10.8412H10.2622V12.1654H11.4208V10.8412Z" fill="#FF4B55"/>
<path d="M14.8966 9.51697H13.738V10.8412H14.8966V9.51697Z" fill="#FF4B55"/>
<path d="M13.738 10.8412H12.5793V12.1654H13.738V10.8412Z" fill="#FF4B55"/>
<path d="M11.4208 9.51697H10.2622V10.8412H11.4208V9.51697Z" fill="#F5F5F5"/>
<path d="M13.738 9.51697H12.5793V10.8412H13.738V9.51697Z" fill="#F5F5F5"/>
<path d="M10.2621 10.8412H9.10352V12.1654H10.2621V10.8412Z" fill="#F5F5F5"/>
<path d="M12.5793 10.8412H11.4207V12.1654H12.5793V10.8412Z" fill="#F5F5F5"/>
<path d="M14.8966 10.8412H13.738V12.1654H14.8966V10.8412Z" fill="#F5F5F5"/>
<path d="M12.5793 12.1654H11.4207V13.4896H12.5793V12.1654Z" fill="#FF4B55"/>
<path d="M11.4211 13.4896H10.2625V14.8138H11.4211V13.4896Z" fill="#FF4B55"/>
<path d="M13.7382 13.4896H12.5796V14.8138H13.7382V13.4896Z" fill="#FF4B55"/>
<path d="M11.4211 12.1654H10.2625V13.4896H11.4211V12.1654Z" fill="#F5F5F5"/>
<path d="M13.7382 12.1654H12.5796V13.4896H13.7382V12.1654Z" fill="#F5F5F5"/>
<path d="M12.5793 13.4896H11.4207V14.8138H12.5793V13.4896Z" fill="#F5F5F5"/>
<path d="M14.8965 9.51726V13.2414C14.8965 14.8411 13.5997 16.1379 12 16.1379C10.4003 16.1379 9.10344 14.8411 9.10344 13.2414V9.51726H14.8965ZM15.1034 9.3103H14.8965H9.10339H8.89648V9.51721V13.2413C8.89648 14.9526 10.2887 16.3448 11.9999 16.3448C13.7112 16.3448 15.1034 14.9526 15.1034 13.2413V9.51721V9.3103Z" fill="#FF4B55"/>
<path d="M10.2621 13.4896V12.1655H9.10352V13.2414C9.10352 13.3252 9.10905 13.4076 9.11603 13.4897L10.2621 13.4896Z" fill="#FF4B55"/>
<path d="M14.8841 13.4896H13.738V14.8137H14.4306C14.6819 14.4261 14.8428 13.9753 14.8841 13.4896Z" fill="#F5F5F5"/>
<path d="M9.56953 14.8138H10.2621V13.4897H9.11597C9.15731 13.9753 9.31823 14.4262 9.56953 14.8138Z" fill="#F5F5F5"/>
<path d="M13.738 13.4896H14.8841C14.8911 13.4077 14.8966 13.3252 14.8966 13.2413V12.1655H13.738V13.4896Z" fill="#FF4B55"/>
<path d="M10.2621 15.5546V14.8138H9.56958C9.75506 15.1 9.99014 15.35 10.2621 15.5546Z" fill="#FF4B55"/>
<path d="M14.4306 14.8138H13.738V15.5547C14.01 15.35 14.245 15.1 14.4306 14.8138Z" fill="#FF4B55"/>
<path d="M10.262 15.5547C10.5992 15.8085 10.9917 15.9927 11.4206 16.0798V14.8138H10.262V15.5547Z" fill="#F5F5F5"/>
<path d="M12.5791 16.0797C13.008 15.9927 13.4005 15.8084 13.7377 15.5546V14.8138H12.5791V16.0797Z" fill="#F5F5F5"/>
<path d="M12.5793 14.8138H11.4207V16.0798C11.6078 16.1179 11.8016 16.138 12 16.138C12.1984 16.138 12.3921 16.1179 12.5793 16.0798V14.8138H12.5793Z" fill="#FF4B55"/>
<path d="M9.90339 7.32607C9.6513 7.28707 9.3934 7.25894 9.13047 7.24268C8.92713 7.41007 8.7333 7.58458 8.54932 7.76533C8.7341 8.21135 8.91883 8.65736 9.10352 9.10338C9.47444 8.94977 9.8545 8.82682 10.2401 8.73461C10.1279 8.26516 10.0156 7.79561 9.90339 7.32607Z" fill="#4173CD"/>
<path d="M12.7034 7.10642C12.4769 6.99181 12.2423 6.88582 12.0001 6.78931C11.758 6.88587 11.5234 6.99185 11.2969 7.10642C11.3345 7.58768 11.3722 8.06895 11.4098 8.55031C11.8028 8.51951 12.1975 8.51951 12.5904 8.55031C12.6281 8.06899 12.6658 7.58773 12.7034 7.10642Z" fill="#4173CD"/>
<path d="M15.4508 7.76533C15.2669 7.58463 15.073 7.41011 14.8697 7.24268C14.6068 7.25889 14.3489 7.28707 14.0968 7.32607C13.9845 7.79561 13.8723 8.26511 13.76 8.73461C14.1456 8.82682 14.5257 8.94972 14.8966 9.10338C15.0814 8.65732 15.2661 8.2113 15.4508 7.76533Z" fill="#4173CD"/>
<path d="M11.2967 7.10643C11.0551 7.02848 10.8066 6.96027 10.5517 6.90271C10.3268 7.03588 10.1106 7.1773 9.90332 7.32613C10.0155 7.79568 10.1278 8.26518 10.24 8.73468C10.6256 8.64248 11.0167 8.58107 11.4096 8.55032C11.372 8.06901 11.3344 7.58774 11.2967 7.10643Z" fill="#41479B"/>
<path d="M14.0967 7.32607C13.8894 7.17724 13.6732 7.03577 13.4483 6.90265C13.1934 6.96021 12.9448 7.02851 12.7033 7.10637C12.6657 7.58763 12.628 8.0689 12.5903 8.55026C12.9833 8.58096 13.3744 8.64241 13.76 8.73462C13.8722 8.26516 13.9844 7.79562 14.0967 7.32607Z" fill="#41479B"/>
<path d="M11.342 7.684C10.9039 7.71822 10.468 7.7867 10.0381 7.88955C10.0156 7.79566 9.99316 7.70172 9.9707 7.60778C10.4153 7.50156 10.8663 7.43069 11.3193 7.3952C11.3269 7.49148 11.3344 7.58772 11.342 7.684Z" fill="#FF4B55"/>
<path d="M11.3872 8.26148C10.9793 8.2934 10.5732 8.3572 10.1728 8.45292C10.1503 8.35903 10.1279 8.26509 10.1055 8.17125C10.5205 8.07197 10.9416 8.00583 11.3646 7.97278C11.3721 8.06892 11.3797 8.16529 11.3872 8.26148Z" fill="#FF4B55"/>
<path d="M13.3746 8.35877C13.2735 8.34082 13.1722 8.32483 13.0707 8.31086C12.9037 8.2878 12.7794 8.14605 12.7939 7.98672C12.8083 7.82744 12.9679 7.71189 13.1497 7.73702C13.2586 7.75202 13.3674 7.76913 13.4759 7.78844C13.6567 7.82041 13.7738 7.97979 13.7385 8.1356C13.7034 8.29179 13.5408 8.38807 13.3746 8.35877Z" fill="#FFE15A"/>
<path d="M15.0075 8.83581C14.6224 8.67634 14.2277 8.5487 13.8274 8.45294C13.8499 8.35905 13.8723 8.26511 13.8948 8.17126C14.3098 8.27045 14.719 8.40283 15.1183 8.5682C15.0814 8.65736 15.0444 8.74661 15.0075 8.83581Z" fill="#FF4B55"/>
<path d="M14.9041 7.96681C14.8632 8.07964 14.7252 8.13331 14.5947 8.09089C14.4644 8.04842 14.3846 7.92449 14.4176 7.80908C14.4506 7.69367 14.5904 7.6326 14.7287 7.67755C14.8671 7.72241 14.945 7.85399 14.9041 7.96681Z" fill="#FFE15A"/>
<path d="M9.58233 7.80913C9.61528 7.92463 9.53546 8.04862 9.40519 8.09095C9.27483 8.13313 9.13683 8.07946 9.09586 7.96687C9.05489 7.85399 9.13289 7.72246 9.27127 7.6776C9.40955 7.63279 9.54942 7.69382 9.58233 7.80913Z" fill="#FFE15A"/>
<path d="M11.9337 7.61946C11.934 7.71542 11.8478 7.79356 11.7409 7.79684C11.6341 7.80026 11.543 7.72742 11.5374 7.63184C11.5318 7.53621 11.6179 7.45343 11.7301 7.44982C11.8422 7.44631 11.9333 7.52351 11.9337 7.61946Z" fill="#FFE15A"/>
<path d="M12.4623 7.63179C12.4566 7.7276 12.3655 7.80021 12.2588 7.79679C12.1519 7.7935 12.0657 7.71536 12.0659 7.61941C12.0663 7.52355 12.1575 7.44611 12.2695 7.44977C12.3817 7.45319 12.4678 7.53611 12.4623 7.63179Z" fill="#FFE15A"/>
<path d="M12.1878 8.06622C12.1851 8.16218 12.1011 8.23765 11.9999 8.23765C11.8989 8.2376 11.8148 8.16222 11.8121 8.06622C11.8094 7.97055 11.8935 7.89021 11.9999 7.89044C12.1064 7.89021 12.1904 7.97046 12.1878 8.06622Z" fill="#FFE15A"/>
</svg>
