<svg width="24" height="24" viewBox="0 0 24 24" fill="none" xmlns="http://www.w3.org/2000/svg">
<path d="M22.2026 19.8621H1.79742C0.804703 19.8621 0 19.0574 0 18.0646V5.93536C0 4.94269 0.804703 4.13794 1.79742 4.13794H22.2026C23.1952 4.13794 24 4.94264 24 5.93536V18.0647C24 19.0574 23.1953 19.8621 22.2026 19.8621Z" fill="#5AA587"/>
<path d="M12.9902 14.1378C13.4542 14.2487 13.9494 14.2573 14.4446 14.1344C15.317 13.9178 16.0071 13.3489 16.4081 12.6186C15.712 12.1606 14.836 11.9807 13.9636 12.1973C13.4946 12.3138 13.0831 12.5371 12.7363 12.8277C12.7396 12.8234 12.7423 12.8191 12.7456 12.8148C14.0303 11.6562 15.4645 12.0303 15.4645 12.0303L15.8038 11.7403C15.8038 11.7403 14.3572 11.2405 13.0614 12.3124C13.8633 10.7597 12.9979 9.42781 12.9979 9.42781L12.7983 9.82695C12.7983 9.82695 13.518 11.1467 12.676 12.6865C12.6751 12.6876 12.6741 12.6888 12.6731 12.6899C12.8783 12.2778 12.9979 11.8158 12.9979 11.3239C12.9979 10.4249 12.6122 9.61808 12 9.05286C11.3878 9.61808 11.002 10.4249 11.002 11.3239C11.002 11.8159 11.1216 12.2778 11.3268 12.6899C11.3259 12.6888 11.3249 12.6875 11.3239 12.6865C10.4819 11.1467 11.2016 9.82695 11.2016 9.82695L11.002 9.42781C11.002 9.42781 10.1366 10.7597 10.9386 12.3124C9.64277 11.2406 8.19611 11.7403 8.19611 11.7403L8.53544 12.0303C8.53544 12.0303 9.96962 11.6562 11.2544 12.8148C11.2577 12.8191 11.2604 12.8234 11.2637 12.8277C10.9169 12.5371 10.5054 12.3138 10.0363 12.1973C9.16389 11.9807 8.28789 12.1606 7.5918 12.6186C7.99281 13.3489 8.68291 13.9177 9.55539 14.1344C10.0506 14.2573 10.5458 14.2487 11.0097 14.1378C9.28122 14.621 8.15069 13.5799 8.15069 13.5799L7.71517 13.6775C7.71517 13.6775 9.46216 15.5508 12 13.7131C14.5378 15.5507 16.2848 13.6775 16.2848 13.6775L15.8492 13.5799C15.8493 13.5799 14.7188 14.6211 12.9902 14.1378Z" fill="#F5F5F5"/>
<path d="M9.47803 16.2941C9.6584 16.4061 9.84698 16.5059 10.0422 16.5935H13.9581C14.1534 16.5059 14.342 16.4061 14.5223 16.2941H9.47803Z" fill="#F5F5F5"/>
<path d="M10.3931 16.735C10.8955 16.914 11.4363 17.0122 12.0002 17.0122C12.5641 17.0122 13.1048 16.914 13.6073 16.735H10.3931Z" fill="#F5F5F5"/>
<path d="M8.41602 15.3988C8.47648 15.4669 8.53831 15.5338 8.60248 15.5984H15.3975C15.4617 15.5338 15.5235 15.467 15.584 15.3988H8.41602Z" fill="#F5F5F5"/>
<path d="M8.854 15.8326C8.95399 15.9198 9.05716 16.0034 9.16422 16.0821H14.8357C14.9427 16.0033 15.046 15.9198 15.1459 15.8326H8.854Z" fill="#F5F5F5"/>
<path d="M13.9958 14.8666C12.878 14.8666 12.1132 14.1195 12.1056 14.1119L11.9996 14.0067L11.8941 14.1121C11.8865 14.1197 11.1266 14.8666 10.004 14.8666H8.00635C8.0745 14.9694 8.14697 15.069 8.22272 15.166H10.0041C11.0083 15.166 11.7373 14.6407 12 14.4193C12.2626 14.6408 12.9917 15.166 13.9959 15.166H15.7773C15.853 15.069 15.9255 14.9694 15.9937 14.8666H13.9958Z" fill="#F5F5F5"/>
<path d="M11.9477 7.02553L11.7725 7.55067L11.219 7.55498C11.1659 7.55541 11.1439 7.62314 11.1866 7.65464L11.6319 7.98352L11.465 8.51133C11.4489 8.56195 11.5066 8.60381 11.5498 8.57292L12.0002 8.25098L12.4506 8.57287C12.4937 8.60377 12.5514 8.56186 12.5354 8.51128L12.3684 7.98347L12.8138 7.65459C12.8565 7.62305 12.8345 7.55531 12.7814 7.55494L12.2279 7.55062L12.0527 7.02548C12.0357 6.97514 11.9644 6.97514 11.9477 7.02553Z" fill="#FFE15A"/>
<path d="M9.32777 8.10044L9.42916 8.46859L9.11364 8.6837C9.08336 8.70433 9.09677 8.75163 9.13342 8.75327L9.51494 8.77066L9.622 9.13722C9.63231 9.17238 9.68139 9.1742 9.69428 9.13994L9.82867 8.78247L10.2104 8.79391C10.247 8.79499 10.2639 8.74886 10.2353 8.72603L9.93686 8.48772L10.0657 8.12824C10.0781 8.09374 10.0394 8.06341 10.0089 8.08356L9.69002 8.29375L9.38795 8.06013C9.35884 8.03772 9.31802 8.0651 9.32777 8.10044Z" fill="#FFE15A"/>
<path d="M7.80048 9.95487L8.07662 10.2187L7.91645 10.5653C7.90108 10.5986 7.93689 10.6323 7.96909 10.6149L8.30528 10.4338L8.58545 10.6933C8.61231 10.7182 8.65539 10.6945 8.64887 10.6585L8.58053 10.2828L8.9139 10.0965C8.94587 10.0786 8.93673 10.0303 8.9004 10.0255L8.52194 9.97437L8.44778 9.59975C8.4407 9.5638 8.3919 9.55766 8.37606 9.59066L8.2105 9.93476L7.83133 9.88948C7.79495 9.88512 7.774 9.92956 7.80048 9.95487Z" fill="#FFE15A"/>
<path d="M14.7591 8.10044L14.6577 8.46859L14.9732 8.6837C15.0035 8.70433 14.9901 8.75163 14.9535 8.75327L14.5719 8.77066L14.4649 9.13722C14.4546 9.17238 14.4055 9.1742 14.3926 9.13994L14.2582 8.78247L13.8765 8.79391C13.8399 8.79499 13.823 8.74886 13.8516 8.72603L14.15 8.48772L14.0212 8.12824C14.0088 8.09374 14.0475 8.06341 14.078 8.08356L14.3969 8.29375L14.6989 8.06013C14.728 8.03772 14.7688 8.0651 14.7591 8.10044Z" fill="#FFE15A"/>
<path d="M16.2863 9.95487L16.0102 10.2187L16.1703 10.5653C16.1857 10.5986 16.1499 10.6323 16.1177 10.6149L15.7815 10.4338L15.5013 10.6933C15.4745 10.7182 15.4314 10.6945 15.4379 10.6585L15.5063 10.2828L15.1729 10.0965C15.1409 10.0786 15.15 10.0303 15.1864 10.0255L15.5648 9.97437L15.639 9.59975C15.6461 9.5638 15.6949 9.55766 15.7107 9.59066L15.8763 9.93476L16.2555 9.88948C16.2918 9.88512 16.3128 9.92956 16.2863 9.95487Z" fill="#FFE15A"/>
</svg>
