<svg width="24" height="24" viewBox="0 0 24 24" fill="none" xmlns="http://www.w3.org/2000/svg">
<path d="M0 18.0646C0 19.0573 0.804703 19.8621 1.79742 19.8621H22.2026C23.1952 19.8621 24 19.0574 24 18.0646V15.7241H0V18.0646Z" fill="#FF4B55"/>
<path d="M22.2026 4.13794H1.79742C0.804703 4.13794 0 4.94264 0 5.93536V8.27588H24V5.93536C24 4.94264 23.1953 4.13794 22.2026 4.13794Z" fill="#FF4B55"/>
<path d="M24 8.27576H0V15.7242H24V8.27576Z" fill="#F5F5F5"/>
<path d="M14.728 10.9434L12.1013 12.0155C12.1003 12.0129 12.099 12.0105 12.0978 12.0079L14.6346 10.7375C14.5343 10.5373 14.4125 10.3498 14.2711 10.1788L12.084 11.9875C12.0819 11.9847 12.0806 11.9813 12.0781 11.9787L14.083 9.97189C13.94 9.82882 13.7818 9.701 13.612 9.58971L12.0598 11.9656C12.0563 11.9632 12.0531 11.9605 12.0493 11.9585L13.3175 9.42021C13.1138 9.31817 12.8967 9.23923 12.6695 9.1864L12.025 11.9504C12.0168 11.9485 12.009 11.9454 12.0001 11.9454C11.9913 11.9454 11.9835 11.9485 11.9753 11.9504L11.3308 9.1864C11.1035 9.23923 10.8864 9.31812 10.6828 9.42021L11.951 11.9585C11.9472 11.9605 11.944 11.9632 11.9405 11.9656L10.3883 9.58971C10.2184 9.70104 10.0603 9.82887 9.91728 9.97189L11.9221 11.9787C11.9197 11.9813 11.9185 11.9847 11.9162 11.9875L9.72917 10.1788C9.5878 10.3497 9.46597 10.5373 9.36566 10.7375L11.9024 12.0079C11.9012 12.0105 11.9 12.0129 11.8989 12.0155L9.27223 10.9434C9.19306 11.1375 9.13419 11.342 9.09781 11.5544L11.8943 12.0386C11.8939 12.041 11.8931 12.0432 11.8928 12.0457L9.07011 11.7516C9.05994 11.8512 9.05469 11.9523 9.05469 12.0546C9.05469 12.2315 9.07114 12.4044 9.10105 12.5727L12.0001 12.2727L14.8992 12.5727C14.9291 12.4043 14.9455 12.2314 14.9455 12.0546C14.9455 11.9523 14.9402 11.8512 14.9301 11.7516L12.1073 12.0457C12.1071 12.0432 12.1062 12.041 12.1059 12.0386L14.9023 11.5544C14.8661 11.3421 14.8071 11.1376 14.728 10.9434Z" fill="#FFB955"/>
<path d="M9.15332 12.8116C9.17352 12.8878 9.19687 12.9627 9.22288 13.0363H14.7773C14.8033 12.9627 14.8266 12.8878 14.8469 12.8116C14.5747 12.7765 14.5409 12.6 14.2094 12.6C13.8414 12.6 13.8414 12.8181 13.4734 12.8181C13.1054 12.8181 13.1054 12.6 12.7373 12.6C12.3692 12.6 12.3692 12.8181 12.001 12.8181C11.6331 12.8181 11.6331 12.6 11.2651 12.6C10.8968 12.6 10.8968 12.8181 10.5286 12.8181C10.1601 12.8181 10.1601 12.6 9.79157 12.6C9.45965 12.6 9.4259 12.7765 9.15332 12.8116Z" fill="#4173CD"/>
<path d="M14.1226 13.3636C13.7684 13.3636 13.7683 13.1454 13.414 13.1454C13.0596 13.1454 13.0596 13.3636 12.7051 13.3636C12.3507 13.3636 12.3507 13.1454 11.9963 13.1454C11.6418 13.1454 11.6418 13.3636 11.2873 13.3636C10.933 13.3636 10.933 13.1454 10.5787 13.1454C10.2241 13.1454 10.2241 13.3636 9.86949 13.3636C9.55487 13.3636 9.51868 13.1924 9.26733 13.1535C9.32733 13.3026 9.39844 13.446 9.48099 13.5818H14.1225H14.1228H14.5192C14.6018 13.4457 14.6731 13.3019 14.7332 13.1524C14.4744 13.1888 14.4406 13.3636 14.1226 13.3636Z" fill="#4173CD"/>
<path d="M14.4043 13.755C14.3358 13.719 14.2545 13.6909 14.1276 13.6909C13.7732 13.6909 13.7732 13.9091 13.4188 13.9091C13.0644 13.9091 13.0644 13.6909 12.7099 13.6909C12.3554 13.6909 12.3554 13.9091 12.001 13.9091C11.6466 13.9091 11.6466 13.6909 11.2924 13.6909C10.9377 13.6909 10.9377 13.9091 10.5831 13.9091C10.2282 13.9091 10.2282 13.6909 9.87345 13.6909C9.74609 13.6909 9.66467 13.7191 9.59595 13.7552C9.68984 13.8877 9.79385 14.0123 9.90781 14.1273H14.0924C14.2063 14.0122 14.3104 13.8875 14.4043 13.755Z" fill="#4173CD"/>
<path d="M13.815 14.3734C13.7079 14.3113 13.6218 14.2363 13.4139 14.2363C13.0594 14.2363 13.0594 14.4545 12.705 14.4545C12.3506 14.4545 12.3506 14.2363 11.9962 14.2363C11.6417 14.2363 11.6417 14.4545 11.2872 14.4545C10.9329 14.4545 10.9329 14.2363 10.5786 14.2363C10.3734 14.2363 10.2868 14.3093 10.1816 14.3709C10.3277 14.4857 10.4847 14.5868 10.651 14.6727H13.3487C13.5139 14.5875 13.6698 14.4871 13.815 14.3734Z" fill="#4173CD"/>
<path d="M11.2924 14.7818C11.1763 14.7818 11.0984 14.8053 11.0334 14.8368C11.3364 14.942 11.6614 15 12.0001 15H12.0007C11.6467 14.9998 11.6466 14.7818 11.2924 14.7818Z" fill="#4173CD"/>
<path d="M12.0027 14.9999C12.341 14.9996 12.6655 14.9417 12.968 14.8364C12.9032 14.8052 12.8256 14.7818 12.71 14.7818C12.3561 14.7818 12.3554 14.9991 12.0027 14.9999Z" fill="#4173CD"/>
<path d="M12.3875 11.6816L11.4541 11.4119C11.4018 11.3967 11.3655 11.3495 11.3648 11.295C11.3605 10.9493 11.3455 9.73233 11.3455 9.54544C11.3455 9.32728 11.5636 9 12 9H12.3441C12.3767 9 12.3865 9.04434 12.3566 9.05714C12.199 9.12469 12.0001 9.26545 12.0001 9.54544C12.0001 9.87788 12.3166 10.0204 12.4675 10.0694C12.5141 10.0845 12.5456 10.1273 12.5456 10.1764V11.5628C12.5455 11.6451 12.4666 11.7045 12.3875 11.6816Z" fill="#FF4B55"/>
<path d="M11.5641 12.9026C11.5983 12.8819 11.6389 12.9165 11.6235 12.9534C11.5321 13.1727 11.3082 13.5819 10.909 13.5819C10.3635 13.5819 10.2544 13.1455 10.2544 12.8182V10.5042C10.2544 10.4567 10.2929 10.4182 10.3404 10.4182H10.4956C10.5431 10.4182 10.5816 10.4567 10.5816 10.5042V12.7091C10.5818 13.0041 11.202 13.1218 11.5641 12.9026Z" fill="#FF4B55"/>
<path d="M12.3899 12.9026C12.3557 12.8819 12.3151 12.9165 12.3305 12.9534C12.4219 13.1727 12.6458 13.5819 13.045 13.5819C13.5905 13.5819 13.6996 13.1455 13.6996 12.8182V10.5042C13.6996 10.4567 13.6611 10.4182 13.6136 10.4182H13.4584C13.4108 10.4182 13.3724 10.4567 13.3724 10.5042V12.7091C13.3723 13.0041 12.752 13.1218 12.3899 12.9026Z" fill="#FF4B55"/>
<path d="M13.1474 12.5454H10.8527C10.8236 12.5454 10.8 12.5218 10.8 12.4928V12.489C10.8 12.4599 10.8236 12.4363 10.8527 12.4363H13.1474C13.1764 12.4363 13.2 12.4599 13.2 12.489V12.4928C13.2 12.5219 13.1764 12.5454 13.1474 12.5454Z" fill="#AA4650"/>
<path d="M11.0318 12.1336L11.1499 11.9761C11.168 11.9521 11.1631 11.9178 11.139 11.8997C11.115 11.8817 11.0807 11.8867 11.0627 11.9107L11.0167 11.972V11.9297C11.0167 11.8995 10.9923 11.8751 10.9621 11.8751C10.932 11.8751 10.9076 11.8995 10.9076 11.9297V11.9681L10.8646 11.9107C10.8465 11.8867 10.8123 11.8817 10.7882 11.8998C10.7641 11.9179 10.7592 11.9521 10.7773 11.9762L10.8954 12.1337L10.7773 12.2912C10.7592 12.3152 10.7641 12.3495 10.7882 12.3676C10.798 12.375 10.8095 12.3785 10.8208 12.3785C10.8374 12.3785 10.8538 12.3709 10.8645 12.3566L10.9635 12.2246L11.0625 12.3566C11.0732 12.3709 11.0895 12.3785 11.1061 12.3785C11.1175 12.3785 11.129 12.375 11.1387 12.3676C11.1629 12.3495 11.1678 12.3153 11.1497 12.2912L11.0318 12.1336Z" fill="#AA4650"/>
<path d="M12.0499 12.1336L12.168 11.9761C12.1861 11.9521 12.1812 11.9178 12.1571 11.8997C12.133 11.8817 12.0988 11.8867 12.0807 11.9107L12.0347 11.972V11.9297C12.0347 11.8995 12.0103 11.8751 11.9802 11.8751C11.95 11.8751 11.9256 11.8995 11.9256 11.9297V11.9681L11.8826 11.9107C11.8646 11.8867 11.8304 11.8817 11.8063 11.8998C11.7821 11.9179 11.7773 11.9521 11.7954 11.9762L11.9135 12.1337L11.7954 12.2912C11.7773 12.3152 11.7822 12.3495 11.8063 12.3676C11.8161 12.375 11.8276 12.3785 11.8389 12.3785C11.8555 12.3785 11.8719 12.3709 11.8825 12.3566L11.9815 12.2246L12.0805 12.3566C12.0912 12.3709 12.1076 12.3785 12.1242 12.3785C12.1356 12.3785 12.1471 12.375 12.1568 12.3676C12.1809 12.3495 12.1858 12.3153 12.1677 12.2912L12.0499 12.1336Z" fill="#AA4650"/>
<path d="M11.5408 12.1336L11.659 11.9761C11.6771 11.9521 11.6721 11.9178 11.6481 11.8997C11.624 11.8817 11.5897 11.8867 11.5717 11.9107L11.5257 11.972V11.9297C11.5257 11.8995 11.5013 11.8751 11.4711 11.8751C11.441 11.8751 11.4166 11.8995 11.4166 11.9297V11.9681L11.3736 11.9107C11.3556 11.8867 11.3214 11.8817 11.2972 11.8998C11.2731 11.9179 11.2682 11.9521 11.2863 11.9762L11.4044 12.1337L11.2863 12.2912C11.2682 12.3152 11.2731 12.3495 11.2972 12.3676C11.307 12.375 11.3185 12.3785 11.3299 12.3785C11.3465 12.3785 11.3628 12.3709 11.3735 12.3566L11.4725 12.2246L11.5715 12.3566C11.5822 12.3709 11.5986 12.3785 11.6151 12.3785C11.6265 12.3785 11.638 12.375 11.6478 12.3676C11.6719 12.3495 11.6768 12.3153 11.6587 12.2912L11.5408 12.1336Z" fill="#AA4650"/>
<path d="M12.5592 12.1336L12.6773 11.9761C12.6954 11.9521 12.6905 11.9178 12.6664 11.8997C12.6423 11.8817 12.6081 11.8867 12.59 11.9107L12.544 11.972V11.9297C12.544 11.8995 12.5196 11.8751 12.4895 11.8751C12.4593 11.8751 12.4349 11.8995 12.4349 11.9297V11.9681L12.3919 11.9107C12.3739 11.8867 12.3397 11.8817 12.3156 11.8998C12.2914 11.9179 12.2865 11.9521 12.3046 11.9762L12.4228 12.1337L12.3046 12.2912C12.2865 12.3152 12.2915 12.3495 12.3156 12.3676C12.3253 12.375 12.3368 12.3785 12.3482 12.3785C12.3648 12.3785 12.3811 12.3709 12.3918 12.3566L12.4908 12.2246L12.5898 12.3566C12.6005 12.3709 12.6169 12.3785 12.6335 12.3785C12.6448 12.3785 12.6563 12.375 12.6661 12.3676C12.6902 12.3495 12.6951 12.3153 12.677 12.2912L12.5592 12.1336Z" fill="#AA4650"/>
<path d="M13.0682 12.1336L13.1863 11.9761C13.2044 11.9521 13.1995 11.9178 13.1754 11.8997C13.1514 11.8817 13.1171 11.8867 13.099 11.9107L13.0531 11.972V11.9297C13.0531 11.8995 13.0286 11.8751 12.9985 11.8751C12.9683 11.8751 12.9439 11.8995 12.9439 11.9297V11.9681L12.9009 11.9107C12.8829 11.8867 12.8487 11.8817 12.8246 11.8998C12.8004 11.9179 12.7956 11.9521 12.8137 11.9762L12.9318 12.1337L12.8137 12.2912C12.7956 12.3152 12.8005 12.3495 12.8246 12.3676C12.8344 12.375 12.8459 12.3785 12.8572 12.3785C12.8738 12.3785 12.8902 12.3709 12.9009 12.3566L12.9999 12.2246L13.0989 12.3566C13.1095 12.3709 13.1259 12.3785 13.1425 12.3785C13.1539 12.3785 13.1654 12.375 13.1751 12.3676C13.1993 12.3495 13.2041 12.3153 13.186 12.2912L13.0682 12.1336Z" fill="#AA4650"/>
<path d="M10.9312 12.8824C11.0118 12.9177 11.4858 12.9227 11.6068 12.7967C11.7277 12.6706 11.7026 12.6152 11.7026 12.6152L11.1277 12.6202L10.9312 12.8824Z" fill="#AA4650"/>
<path d="M13.0458 12.8824C12.9651 12.9177 12.4912 12.9227 12.3702 12.7967C12.2492 12.6706 12.2744 12.6152 12.2744 12.6152L12.8492 12.6202L13.0458 12.8824Z" fill="#AA4650"/>
</svg>
