<svg width="24" height="24" viewBox="0 0 24 24" fill="none" xmlns="http://www.w3.org/2000/svg">
<path d="M22.2026 19.8621H1.79742C0.804703 19.8621 0 19.0574 0 18.0646V5.93536C0 4.94269 0.804703 4.13794 1.79742 4.13794H22.2026C23.1952 4.13794 24 4.94264 24 5.93536V18.0647C24 19.0574 23.1953 19.8621 22.2026 19.8621Z" fill="#FF4B55"/>
<path d="M0.546875 4.64491L16.9655 19.8621H18.2068L1.31309 4.20447C1.02083 4.28608 0.75875 4.43955 0.546875 4.64491Z" fill="#F5F5F5"/>
<path d="M23.4529 19.3551L7.03436 4.13794H5.79297L22.6867 19.7955C22.979 19.7139 23.2411 19.5605 23.4529 19.3551Z" fill="#F5F5F5"/>
<path d="M1.24146 4.13794L18.207 19.8621H22.7587L5.79316 4.13794H1.24146Z" fill="#464655"/>
</svg>
