<svg width="24" height="24" viewBox="0 0 24 24" fill="none" xmlns="http://www.w3.org/2000/svg">
<path d="M22.2026 19.8621H1.79742C0.804703 19.8621 0 19.0574 0 18.0646V5.93536C0 4.94269 0.804703 4.13794 1.79742 4.13794H22.2026C23.1952 4.13794 24 4.94264 24 5.93536V18.0647C24 19.0574 23.1953 19.8621 22.2026 19.8621Z" fill="#FF4B55"/>
<path d="M10.5224 12.6057C10.0008 12.6111 9.41505 12.4441 8.90182 11.8783C8.86643 11.8393 8.87135 11.7779 8.91161 11.7438L8.9118 11.7437C8.9508 11.7106 9.00846 11.7157 9.04291 11.7536C9.82525 12.6126 10.7949 12.4623 11.3742 12.2547C11.1602 12.2642 10.8913 12.2481 10.7183 12.1344C9.99574 11.6594 10.323 11.1541 9.84311 10.5433C9.36625 9.93635 8.93716 9.95121 8.2615 10.0536C7.5926 10.155 7.3795 9.66434 7.31318 9.39204C7.30132 9.34325 7.23325 9.3402 7.21582 9.38721C6.3821 11.6397 8.88897 14.4269 11.4627 12.4229C11.2087 12.5164 10.8816 12.6021 10.5224 12.6057ZM8.64429 11.8414C8.62966 11.8816 8.57224 11.88 8.55982 11.839L8.46382 11.5227L8.1334 11.5111C8.0906 11.5096 8.07438 11.4545 8.10949 11.43L8.38071 11.241L8.28963 10.9231C8.27782 10.882 8.32521 10.8495 8.35933 10.8753L8.62296 11.0748L8.89708 10.8899C8.93257 10.866 8.97808 10.901 8.96407 10.9414L8.85579 11.2538L9.11632 11.4574C9.15002 11.4838 9.1308 11.5379 9.088 11.537L8.75744 11.5306L8.64429 11.8414Z" fill="#F5F5F5"/>
<path d="M12.3688 11.1092C12.783 10.792 13.3518 10.5745 14.1018 10.7193C14.1535 10.7293 14.1864 10.7814 14.1747 10.8328L14.1747 10.833C14.1633 10.8828 14.1141 10.9133 14.0638 10.9037C12.9226 10.6854 12.2368 11.3873 11.8978 11.9008C12.0633 11.7648 12.2882 11.6164 12.4948 11.6037C13.3578 11.5504 13.3989 12.1511 14.1494 12.352C14.8949 12.5517 15.2294 12.2825 15.7087 11.7954C16.1832 11.3131 16.648 11.5779 16.8643 11.756C16.903 11.788 16.9593 11.7496 16.9451 11.7015C16.2614 9.39902 12.5837 8.67213 11.7261 11.8193C11.8731 11.5923 12.0835 11.3275 12.3688 11.1092ZM14.3301 10.5945C14.3177 10.5535 14.3646 10.5204 14.3991 10.5457L14.6657 10.7412L14.9371 10.5523C14.9722 10.5279 15.0182 10.5622 15.0048 10.6029L14.9012 10.9168L15.1647 11.1165C15.1988 11.1424 15.1803 11.1967 15.1376 11.1966L14.807 11.195L14.6985 11.5074C14.6844 11.5478 14.627 11.5471 14.6139 11.5063L14.5133 11.1914L14.1827 11.1848C14.1399 11.1839 14.1228 11.1291 14.1576 11.1041L14.426 10.911L14.3301 10.5945Z" fill="#F5F5F5"/>
<path d="M10.9876 11.3262C10.7841 10.8459 10.7157 10.2407 11.0436 9.55076C11.0662 9.50318 11.1249 9.48438 11.1717 9.50862L11.1719 9.50871C11.2173 9.5322 11.2344 9.58751 11.2126 9.63373C10.7158 10.6841 11.2239 11.5236 11.6363 11.9803C11.546 11.786 11.4586 11.5312 11.4979 11.328C11.6622 10.479 12.2541 10.5894 12.6363 9.9131C13.0162 9.24115 12.8392 8.85002 12.4874 8.26409C12.1391 7.68405 12.5118 7.30029 12.7384 7.13538C12.7789 7.10585 12.7559 7.04177 12.7058 7.04355C10.3055 7.12966 8.68182 10.5086 11.5144 12.1261C11.3314 11.9269 11.1277 11.657 10.9876 11.3262ZM10.9798 9.29852C10.937 9.3003 10.9167 9.24659 10.9498 9.21954L11.2058 9.01038L11.0908 8.7004C11.0759 8.66027 11.1207 8.62427 11.1567 8.64743L11.4347 8.82631L11.694 8.62113C11.7275 8.59456 11.7756 8.62601 11.7646 8.66745L11.6805 8.98713L11.9557 9.17027C11.9913 9.19399 11.9762 9.2494 11.9335 9.25184L11.6034 9.27054L11.5143 9.58891C11.5028 9.63012 11.4454 9.63293 11.4299 9.59304L11.3101 9.28493L10.9798 9.29852Z" fill="#F5F5F5"/>
<path d="M12.8577 12.4162C13.2889 12.7098 13.6741 13.1816 13.7722 13.9391C13.779 13.9914 13.7397 14.039 13.6873 14.044H13.687C13.6361 14.0489 13.5917 14.0117 13.585 13.961C13.4339 12.8089 12.5521 12.3783 11.958 12.2177C12.1391 12.3322 12.3506 12.499 12.4276 12.6912C12.7493 13.4938 12.192 13.7216 12.2368 14.4971C12.2814 15.2677 12.642 15.5006 13.2551 15.8027C13.862 16.1017 13.7566 16.6261 13.6554 16.8875C13.6374 16.9344 13.6914 16.9757 13.7326 16.9471C15.7038 15.5747 15.2388 11.855 11.9815 12.0292C12.2434 12.0975 12.5609 12.214 12.8577 12.4162ZM13.9624 14.1167C13.9974 14.092 14.0436 14.1261 14.0304 14.1668L13.9285 14.4813L14.1931 14.6796C14.2273 14.7053 14.2092 14.7598 14.1664 14.7598L13.8358 14.76L13.7289 15.0729C13.7151 15.1134 13.6576 15.113 13.6444 15.0723L13.5421 14.7579L13.2115 14.753C13.1686 14.7524 13.1514 14.6976 13.1859 14.6725L13.4533 14.4779L13.3558 14.162C13.3432 14.1211 13.3899 14.0876 13.4245 14.1128L13.6921 14.307L13.9624 14.1167Z" fill="#F5F5F5"/>
<path d="M11.7793 13.3511C11.6308 13.8511 11.2987 14.3617 10.6068 14.6856C10.5592 14.7079 10.5019 14.685 10.4812 14.6366L10.4811 14.6364C10.461 14.5894 10.4829 14.5358 10.5291 14.514C11.5805 14.0195 11.7224 13.0485 11.6946 12.4337C11.6407 12.6411 11.5461 12.8933 11.3865 13.0251C10.7198 13.5758 10.3332 13.1142 9.60812 13.3929C8.88765 13.6699 8.77548 14.0843 8.67428 14.7602C8.57415 15.4293 8.04245 15.4884 7.76275 15.4716C7.71268 15.4686 7.68967 15.5327 7.72947 15.5632C9.63653 17.0234 13.0384 15.4486 11.8814 12.3988C11.8961 12.6689 11.8816 13.0067 11.7793 13.3511ZM10.4956 14.9207C10.5297 14.9466 10.5113 15.001 10.4685 15.0008L10.1379 14.9993L10.0296 15.3117C10.0156 15.3522 9.95809 15.3514 9.94506 15.3107L9.84423 14.9958L9.51367 14.9892C9.47087 14.9884 9.45376 14.9336 9.48854 14.9085L9.75686 14.7154L9.66095 14.399C9.64853 14.358 9.6954 14.3248 9.7299 14.3501L9.99653 14.5456L10.2678 14.3566C10.3029 14.3321 10.349 14.3665 10.3356 14.4071L10.2321 14.7211L10.4956 14.9207Z" fill="#F5F5F5"/>
</svg>
