<svg width="24" height="24" viewBox="0 0 24 24" fill="none" xmlns="http://www.w3.org/2000/svg">
<path d="M22.2025 19.8619H1.79742C0.804703 19.8619 0 19.0572 0 18.0645V5.93518C0 4.94255 0.804703 4.13776 1.79742 4.13776H22.2025C23.1952 4.13776 24 4.94255 24 5.93518V18.0645C24 19.0572 23.1952 19.8619 22.2025 19.8619Z" fill="#73AF00"/>
<path d="M24 10.3447H0V11.4482H24V10.3447Z" fill="#FFE15A"/>
<path d="M24 11.4481H0V12.5516H24V11.4481Z" fill="#464655"/>
<path d="M24 12.5516H0V13.655H24V12.5516Z" fill="#F5F5F5"/>
<path d="M11.4482 4.138H10.3447V19.8622H11.4482V4.138Z" fill="#FFE15A"/>
<path d="M12.5517 4.138H11.4482V19.8622H12.5517V4.138Z" fill="#464655"/>
<path d="M13.6552 4.138H12.5518V19.8622H13.6552V4.138Z" fill="#F5F5F5"/>
<path d="M11.9999 16.138C14.2854 16.138 16.1381 14.2853 16.1381 11.9999C16.1381 9.71446 14.2854 7.86176 11.9999 7.86176C9.71452 7.86176 7.86182 9.71446 7.86182 11.9999C7.86182 14.2853 9.71452 16.138 11.9999 16.138Z" fill="#FF4B55"/>
<path d="M11.6448 12.7116C11.6448 12.7116 11.5965 13.0499 11.9251 13.5525H12.563L12.418 12.9436L11.6448 12.7116Z" fill="#73AF00"/>
<path d="M11.5996 10.4469C11.5996 10.4469 10.5559 12.1543 12.0892 13.1723L12.2503 12.2058L12.3534 10.9559L12.1923 10.4211L11.5996 10.4469Z" fill="#A561CD"/>
<path d="M11.5997 10.4469C11.5997 10.4469 11.4804 10.6455 11.3816 10.9443C11.5159 11.0848 11.8832 11.2588 12.3348 11.1825L12.3535 10.9559L12.1924 10.4211L11.5997 10.4469Z" fill="#73AF00"/>
<path d="M11.3999 10.2021C11.3999 10.2021 11.4127 9.8606 11.7479 9.8606C12.1667 9.8606 12.5082 9.9572 13.0493 11.0783C13.0493 11.0783 12.568 11.5508 12.2633 10.8979C12.1731 10.7046 12.1409 10.4727 12.1409 10.4727C12.1409 10.4727 11.7672 10.6015 11.5094 10.4533L11.3999 10.2021Z" fill="#A561CD"/>
<path d="M11.5673 10.3632L11.4899 10.157C11.4899 10.157 11.0583 10.0862 11.2386 10.6081C11.2386 10.6081 11.2515 10.505 11.3611 10.5179C11.4707 10.5308 11.5866 10.447 11.5673 10.3632Z" fill="#FFE15A"/>
<path d="M12.2891 12.3218C12.2891 12.3218 11.8349 12.6778 12.0894 13.5138C12.2247 13.9583 12.7659 14.4464 12.7659 14.4464C12.7659 14.4464 13.167 13.3978 13.0365 12.9919C12.9597 12.753 12.2891 12.3218 12.2891 12.3218Z" fill="#73AF00"/>
<path d="M13.1525 13.6685C13.1525 13.6685 11.9799 12.5506 11.9025 11.6711C11.8252 10.7917 12.3323 10.9313 12.4244 10.9882C12.6435 11.1234 13.1976 11.6904 13.1525 13.6685Z" fill="#73AF00"/>
<path d="M13.0069 13.9246H11.0655C11.0251 13.9246 10.9924 13.8919 10.9924 13.8515V13.7076C10.9924 13.6673 11.0251 13.6346 11.0655 13.6346H13.0069C13.0473 13.6346 13.08 13.6673 13.08 13.7076V13.8515C13.0799 13.8918 13.0472 13.9246 13.0069 13.9246Z" fill="#B34900"/>
<path d="M12.5338 13.6491C12.4662 13.6772 12.3309 13.712 12.3647 13.8327C12.3906 13.9253 12.5677 13.9149 12.5338 14.0212C12.5109 14.0931 12.1514 14.0997 12.0119 14.0792C11.9265 14.0666 11.7413 14.0163 11.7671 13.8038C11.7929 13.5912 11.8702 13.5584 11.9669 13.5203C12.0627 13.4824 12.482 13.4908 12.5435 13.5428C12.5749 13.5693 12.585 13.6278 12.5338 13.6491Z" fill="#FFE15A"/>
<path d="M12.0381 8.30314L12.1322 8.58556L12.4299 8.5879C12.4684 8.58823 12.4844 8.6374 12.4534 8.66028L12.2139 8.83714L12.3037 9.12097C12.3154 9.15767 12.2736 9.18809 12.2422 9.16568L12 8.99262L11.7578 9.16573C11.7265 9.18814 11.6847 9.15776 11.6963 9.12101L11.7861 8.83718L11.5466 8.66033C11.5156 8.6374 11.5316 8.58823 11.5701 8.58795L11.8678 8.58561L11.962 8.30318C11.9741 8.26662 12.0258 8.26662 12.0381 8.30314Z" fill="#73AF00"/>
<path d="M12.0381 14.9057L12.1322 15.1881L12.4299 15.1904C12.4684 15.1908 12.4844 15.2399 12.4534 15.2628L12.2139 15.4397L12.3037 15.7235C12.3154 15.7602 12.2736 15.7906 12.2422 15.7682L12 15.5951L11.7578 15.7682C11.7265 15.7906 11.6847 15.7602 11.6963 15.7235L11.7861 15.4397L11.5466 15.2628C11.5156 15.2399 11.5316 15.1907 11.5701 15.1904L11.8678 15.1881L11.962 14.9057C11.9741 14.8691 12.0258 14.8691 12.0381 14.9057Z" fill="#73AF00"/>
<path d="M12.0381 8.30314L12.1322 8.58556L12.4299 8.5879C12.4684 8.58823 12.4844 8.6374 12.4534 8.66028L12.2139 8.83714L12.3037 9.12097C12.3154 9.15767 12.2736 9.18809 12.2422 9.16568L12 8.99262L11.7578 9.16573C11.7265 9.18814 11.6847 9.15776 11.6963 9.12101L11.7861 8.83718L11.5466 8.66033C11.5156 8.6374 11.5316 8.58823 11.5701 8.58795L11.8678 8.58561L11.962 8.30318C11.9741 8.26662 12.0258 8.26662 12.0381 8.30314Z" fill="#73AF00"/>
<path d="M12.0381 14.9057L12.1322 15.1881L12.4299 15.1904C12.4684 15.1908 12.4844 15.2399 12.4534 15.2628L12.2139 15.4397L12.3037 15.7235C12.3154 15.7602 12.2736 15.7906 12.2422 15.7682L12 15.5951L11.7578 15.7682C11.7265 15.7906 11.6847 15.7602 11.6963 15.7235L11.7861 15.4397L11.5466 15.2628C11.5156 15.2399 11.5316 15.1907 11.5701 15.1904L11.8678 15.1881L11.962 14.9057C11.9741 14.8691 12.0258 14.8691 12.0381 14.9057Z" fill="#73AF00"/>
<path d="M9.73747 8.98079L9.81997 9.26682L9.57603 9.43745C9.54444 9.45953 9.55915 9.50912 9.59769 9.51039L9.8952 9.52032L9.98215 9.80504C9.99345 9.84193 10.0451 9.8432 10.0582 9.80701L10.1596 9.52712L10.4573 9.53246C10.4958 9.53312 10.5131 9.48442 10.4826 9.46075L10.2477 9.27784L10.3447 8.99631C10.3573 8.95989 10.3162 8.92839 10.2843 8.95L10.0378 9.11687L9.80014 8.93767C9.76934 8.91442 9.72673 8.94371 9.73747 8.98079Z" fill="#73AF00"/>
<path d="M13.4804 14.4197L13.5629 14.7057L13.3189 14.8764C13.2874 14.8984 13.3021 14.948 13.3406 14.9493L13.6381 14.9592L13.7251 15.244C13.7364 15.2808 13.788 15.2821 13.8012 15.2459L13.9025 14.966L14.2002 14.9714C14.2387 14.972 14.256 14.9233 14.2256 14.8997L13.9907 14.7168L14.0877 14.4353C14.1003 14.3989 14.0592 14.3674 14.0273 14.389L13.7808 14.5559L13.5431 14.3767C13.5124 14.3533 13.4697 14.3827 13.4804 14.4197Z" fill="#73AF00"/>
<path d="M8.33829 10.8761L8.57595 11.0553L8.48332 11.3383C8.47132 11.3749 8.51286 11.4057 8.54445 11.3836L8.78839 11.213L9.02886 11.3885C9.05998 11.4112 9.10217 11.3813 9.09087 11.3444L9.00392 11.0597L9.24514 10.8853C9.27636 10.8627 9.26084 10.8133 9.22231 10.8127L8.92465 10.8074L8.83329 10.524C8.82143 10.4873 8.76978 10.4868 8.75722 10.5232L8.66023 10.8046L8.36257 10.804C8.324 10.8039 8.30754 10.8529 8.33829 10.8761Z" fill="#73AF00"/>
<path d="M14.5968 12.9792L14.8345 13.1584L14.7419 13.4413C14.7299 13.4779 14.7714 13.5087 14.803 13.4867L15.0469 13.316L15.2874 13.4915C15.3185 13.5142 15.3607 13.4843 15.3494 13.4474L15.2625 13.1627L15.5037 12.9883C15.5349 12.9657 15.5194 12.9163 15.4808 12.9157L15.1832 12.9104L15.0918 12.627C15.08 12.5904 15.0283 12.5899 15.0157 12.6262L14.9188 12.9077L14.6211 12.907C14.5826 12.9068 14.5661 12.9559 14.5968 12.9792Z" fill="#73AF00"/>
<path d="M14.1052 8.98075L14.0227 9.26678L14.2666 9.43741C14.2982 9.45949 14.2835 9.50908 14.245 9.51035L13.9475 9.52028L13.8605 9.805C13.8492 9.84189 13.7976 9.84316 13.7844 9.80697L13.6831 9.52708L13.3854 9.53242C13.3469 9.53308 13.3296 9.48438 13.36 9.46071L13.5949 9.2778L13.4979 8.99636C13.4853 8.95994 13.5264 8.92844 13.5583 8.95005L13.8048 9.11692L14.0425 8.93772C14.0733 8.91438 14.1159 8.94367 14.1052 8.98075Z" fill="#73AF00"/>
<path d="M10.3623 14.4197L10.2798 14.7057L10.5237 14.8764C10.5553 14.8984 10.5406 14.948 10.5021 14.9493L10.2046 14.9592L10.1176 15.244C10.1063 15.2808 10.0547 15.2821 10.0415 15.2459L9.94014 14.966L9.64248 14.9714C9.60395 14.972 9.5867 14.9233 9.61712 14.8997L9.85201 14.7168L9.75498 14.4353C9.74242 14.3989 9.78348 14.3674 9.8154 14.389L10.0619 14.5559L10.2996 14.3767C10.3304 14.3533 10.373 14.3827 10.3623 14.4197Z" fill="#73AF00"/>
<path d="M15.5043 10.8761L15.2667 11.0553L15.3593 11.3383C15.3713 11.3749 15.3298 11.4057 15.2982 11.3836L15.0542 11.213L14.8138 11.3885C14.7826 11.4112 14.7404 11.3813 14.7517 11.3444L14.8387 11.0597L14.5975 10.8853C14.5663 10.8627 14.5818 10.8133 14.6203 10.8127L14.918 10.8074L15.0093 10.524C15.0212 10.4873 15.0728 10.4868 15.0854 10.5232L15.1824 10.8046L15.48 10.804C15.5186 10.8039 15.5351 10.8529 15.5043 10.8761Z" fill="#73AF00"/>
<path d="M9.24577 12.9792L9.00811 13.1584L9.10074 13.4413C9.11274 13.4779 9.07121 13.5087 9.03961 13.4867L8.79568 13.316L8.55521 13.4915C8.52408 13.5142 8.4819 13.4843 8.49319 13.4474L8.58015 13.1627L8.33893 12.9883C8.30771 12.9657 8.32322 12.9163 8.36175 12.9157L8.65941 12.9104L8.75077 12.627C8.76263 12.5904 8.81429 12.5899 8.82685 12.6262L8.92383 12.9077L9.22149 12.907C9.26011 12.9068 9.27657 12.9559 9.24577 12.9792Z" fill="#73AF00"/>
</svg>
