<svg width="24" height="24" viewBox="0 0 24 24" fill="none" xmlns="http://www.w3.org/2000/svg">
<path d="M22.2026 4.13794H1.79742C0.804703 4.13794 0 4.94264 0 5.93536V9.37931H24V5.93536C24 4.94264 23.1953 4.13794 22.2026 4.13794Z" fill="#73AF00"/>
<path d="M0 18.0646C0 19.0573 0.804703 19.862 1.79742 19.862H22.2026C23.1952 19.862 24 19.0573 24 18.0646V14.6207H0V18.0646Z" fill="#FF4B55"/>
<path d="M24 9.37921H0V14.6203H24V9.37921Z" fill="#F5F5F5"/>
<path d="M6.00445 12.2564C6.12314 12.1061 6.12314 11.8939 6.00445 11.7436L0.465891 4.72803C0.176437 5.04711 0 5.47062 0 5.93539V18.0647C0 18.5294 0.176437 18.953 0.465891 19.2721L6.00445 12.2564Z" fill="#4173CD"/>
<path d="M11.9006 12.3701C11.9006 12.3802 11.8973 13.353 11.6485 13.8315H12.3476C12.0988 13.353 12.0955 12.3802 12.0955 12.3701C12.0955 12.0349 12.4429 11.7686 12.4464 11.766L12.3293 11.6103C12.3202 11.6171 12.2045 11.7058 12.0955 11.85V11.5908H11.9007V11.85C11.7917 11.7058 11.676 11.6171 11.6669 11.6103L11.5498 11.766C11.5533 11.7686 11.9006 12.0349 11.9006 12.3701Z" fill="#B46446"/>
<path d="M12.9725 11.201C12.9665 11.201 12.961 11.2025 12.9551 11.2029C12.9154 11.0886 12.8079 11.0061 12.6801 11.0061C12.6341 11.0061 12.5911 11.0178 12.5523 11.0367C12.511 10.9609 12.4316 10.9087 12.3392 10.9087C12.3126 10.9087 12.2875 10.9141 12.2636 10.9219C12.2117 10.7996 12.0906 10.7139 11.9495 10.7139C11.776 10.7139 11.6344 10.8439 11.6129 11.0115C11.5955 11.0088 11.578 11.0061 11.5598 11.0061C11.3715 11.0061 11.2188 11.1588 11.2188 11.3471C11.2188 11.3693 11.2213 11.3908 11.2253 11.4117C11.139 11.4401 11.0712 11.5069 11.0414 11.5924C11.0355 11.5919 11.0299 11.5907 11.024 11.5907C10.9163 11.5907 10.8291 11.6779 10.8291 11.7855C10.8291 11.8931 10.9164 11.9804 11.024 11.9804C11.0736 11.9804 11.1186 11.9612 11.153 11.9305C11.1996 11.962 11.2558 11.9804 11.3163 11.9804C11.3698 11.9804 11.4193 11.965 11.4624 11.9398C11.5055 11.9649 11.555 11.9804 11.6085 11.9804C11.7699 11.9804 11.9008 11.8495 11.9008 11.6881C11.9008 11.6757 11.8986 11.664 11.8972 11.652C11.9426 11.6744 11.9929 11.6881 12.047 11.6881C12.1148 11.6881 12.1775 11.6677 12.2306 11.6336C12.2804 11.7237 12.3752 11.7855 12.4854 11.7855C12.5091 11.7855 12.5319 11.7819 12.5539 11.7766C12.6075 11.841 12.6873 11.8829 12.7777 11.8829C12.865 11.8829 12.9426 11.8439 12.9961 11.7831C13.1463 11.771 13.2649 11.6466 13.2649 11.4932C13.2647 11.3319 13.1339 11.201 12.9725 11.201Z" fill="#73AF00"/>
<path d="M12.68 11.4446C12.68 11.4344 12.6821 11.4249 12.683 11.415C12.6309 11.4632 12.5618 11.4933 12.4851 11.4933C12.3833 11.4933 12.2939 11.4412 12.2416 11.3622C12.1892 11.4412 12.0998 11.4933 11.998 11.4933C11.9197 11.4933 11.8491 11.4621 11.7966 11.412C11.7662 11.5692 11.6282 11.6881 11.4621 11.6881C11.4453 11.6881 11.4291 11.6855 11.413 11.6831C11.413 11.6848 11.4135 11.6864 11.4135 11.6881C11.4135 11.8155 11.3315 11.9227 11.2178 11.9628C11.2486 11.9738 11.2814 11.9804 11.3161 11.9804C11.3696 11.9804 11.4191 11.965 11.4622 11.9398C11.5053 11.9649 11.5548 11.9804 11.6083 11.9804C11.7697 11.9804 11.9006 11.8495 11.9006 11.6881C11.9006 11.6757 11.8984 11.664 11.897 11.652C11.9424 11.6744 11.9927 11.6881 12.0468 11.6881C12.1146 11.6881 12.1773 11.6677 12.2304 11.6336C12.2802 11.7237 12.375 11.7855 12.4852 11.7855C12.5089 11.7855 12.5317 11.7819 12.5537 11.7766C12.6073 11.841 12.6871 11.8829 12.7774 11.8829C12.8648 11.8829 12.9423 11.8439 12.9958 11.7831L12.9964 11.783C12.8198 11.7703 12.68 11.6245 12.68 11.4446Z" fill="#5FA000"/>
<path d="M11.9981 14.4525C11.9825 14.4525 11.9686 14.4425 11.9635 14.4278C11.9598 14.4169 11.8681 14.1604 11.511 14.1604H11.0239C10.7351 14.1604 10.5002 13.9254 10.5002 13.6367V10.4216C10.5002 10.4015 10.5166 10.3851 10.5368 10.3851H13.557C13.5771 10.3851 13.5935 10.4015 13.5935 10.4216V13.6367C13.5935 13.9255 13.3585 14.1604 13.0698 14.1604H12.4853C12.1261 14.1604 12.0337 14.4249 12.0328 14.4276C12.0278 14.4426 12.0139 14.4526 11.9982 14.4526H11.9981V14.4525ZM10.5732 10.4581V13.6366C10.5732 13.8851 10.7754 14.0872 11.0238 14.0872H11.511C11.8001 14.0872 11.9401 14.2425 11.9981 14.3358C12.0561 14.2424 12.196 14.0872 12.4852 14.0872H13.0698C13.3183 14.0872 13.5204 13.8851 13.5204 13.6366V10.4581H10.5732Z" fill="#464655"/>
<path d="M11.6243 9.55292L11.7169 9.70109L11.8916 9.70714L11.8095 9.8614L11.8916 10.0157L11.7169 10.0217L11.6243 10.1699L11.5318 10.0217L11.3572 10.0157L11.4392 9.8614L11.3572 9.70714L11.5318 9.70109L11.6243 9.55292Z" fill="#FFE15A"/>
<path d="M10.8011 9.68732L10.9258 9.80975L11.097 9.77488L11.0532 9.944L11.169 10.0749L11.0006 10.1215L10.9453 10.2872L10.8206 10.1647L10.6494 10.1997L10.6932 10.0305L10.5774 9.89966L10.7458 9.85302L10.8011 9.68732Z" fill="#FFE15A"/>
<path d="M10.0115 9.92096L10.1596 10.0137L10.3192 9.94262L10.3131 10.1172L10.4544 10.22L10.3001 10.3019L10.2817 10.4757L10.1336 10.383L9.97401 10.454L9.9802 10.2794L9.83887 10.1767L9.99318 10.0947L10.0115 9.92096Z" fill="#FFE15A"/>
<path d="M12.3759 9.55292L12.2833 9.70109L12.1086 9.70714L12.1907 9.8614L12.1086 10.0157L12.2833 10.0217L12.3759 10.1699L12.4684 10.0217L12.643 10.0157L12.561 9.8614L12.643 9.70714L12.4684 9.70109L12.3759 9.55292Z" fill="#FFE15A"/>
<path d="M13.1989 9.68732L13.0743 9.80975L12.9031 9.77488L12.9469 9.944L12.8311 10.0749L12.9994 10.1215L13.0548 10.2872L13.1794 10.1647L13.3506 10.1997L13.3069 10.0305L13.4227 9.89966L13.2543 9.85302L13.1989 9.68732Z" fill="#FFE15A"/>
<path d="M13.9885 9.92096L13.8404 10.0137L13.6808 9.94262L13.687 10.1172L13.5457 10.22L13.7 10.3019L13.7183 10.4757L13.8664 10.383L14.026 10.454L14.0198 10.2794L14.1612 10.1767L14.0069 10.0947L13.9885 9.92096Z" fill="#FFE15A"/>
</svg>
