<svg width="24" height="24" viewBox="0 0 24 24" fill="none" xmlns="http://www.w3.org/2000/svg">
<path d="M22.2026 4.13788H12V19.862H22.2026C23.1952 19.862 24 19.0573 24 18.0646V5.9353C24 4.94258 23.1953 4.13788 22.2026 4.13788Z" fill="#FF4B55"/>
<path d="M1.79742 4.13788C0.804703 4.13788 0 4.94258 0 5.9353V18.0647C0 19.0573 0.804703 19.8621 1.79742 19.8621H12V4.13788H1.79742Z" fill="#F5F5F5"/>
<path d="M3.44837 5.10341V6.21059C3.50936 6.21299 3.57737 6.24064 3.6339 6.29717C3.69043 6.3537 3.71818 6.42172 3.72048 6.4827H4.82767V7.58614H3.72043C3.71804 7.64713 3.69039 7.71514 3.63386 7.77167C3.57732 7.8282 3.50931 7.85586 3.44832 7.85825V8.96544H2.34489V7.85825C2.2839 7.85586 2.21589 7.8282 2.15936 7.77167C2.10282 7.71514 2.07517 7.64713 2.07278 7.58614H0.96559V6.48275H2.07278C2.07517 6.42177 2.10282 6.35375 2.15936 6.29722C2.21589 6.24069 2.2839 6.21303 2.34489 6.21064V5.10345H3.44837V5.10341ZM3.58623 4.96545H3.44828H2.34484H2.20693V5.10341V6.10199C2.15429 6.12355 2.10489 6.15659 2.06181 6.19963C2.01873 6.2427 1.98573 6.29211 1.96412 6.34475H0.96559H0.827637V6.4827V7.58614V7.72409H0.96559H1.96417C1.98578 7.77674 2.01878 7.82619 2.06186 7.86922C2.10489 7.91225 2.15429 7.9453 2.20693 7.96686V8.96544V9.10334H2.34489H3.44832H3.58628V8.96539V7.96681C3.63892 7.94525 3.68832 7.9122 3.7314 7.86913C3.77443 7.82609 3.80748 7.77669 3.82904 7.72405H4.82762H4.96553V7.58609V6.48266V6.3447H4.82757H3.82909C3.80753 6.29206 3.77448 6.24266 3.7314 6.19958C3.68837 6.15655 3.63896 6.1235 3.58628 6.10194V5.10341L3.58623 4.96545Z" fill="#FF4B55"/>
<path d="M4.82761 6.48269H3.44836V5.10339H2.34487V6.48269H0.965576V7.58617H2.34487V8.96547H3.44836V7.58617H4.82761V6.48269Z" fill="#CDCDCD"/>
<path d="M2.89645 7.58623C3.20115 7.58623 3.44816 7.33921 3.44816 7.03451C3.44816 6.7298 3.20115 6.48279 2.89645 6.48279C2.59174 6.48279 2.34473 6.7298 2.34473 7.03451C2.34473 7.33921 2.59174 7.58623 2.89645 7.58623Z" fill="#B4A08C"/>
<path d="M2.4021 7.52889C2.30629 7.43307 2.17426 7.40976 2.10721 7.47681C2.04016 7.54387 2.06347 7.6759 2.15928 7.77171C2.25509 7.86752 2.38712 7.89083 2.45417 7.82378C2.52123 7.75673 2.49792 7.6247 2.4021 7.52889Z" fill="#B4A08C"/>
<path d="M3.63383 7.77124C3.72965 7.67543 3.75296 7.5434 3.68591 7.47635C3.61885 7.4093 3.48682 7.43261 3.39101 7.52842C3.2952 7.62423 3.27189 7.75626 3.33894 7.82332C3.40599 7.89037 3.53802 7.86706 3.63383 7.77124Z" fill="#B4A08C"/>
<path d="M3.39062 6.54021C3.48643 6.63602 3.61846 6.65933 3.68551 6.59228C3.75257 6.52522 3.72926 6.3932 3.63344 6.29738C3.53763 6.20157 3.4056 6.17826 3.33855 6.24531C3.2715 6.31237 3.29481 6.44439 3.39062 6.54021Z" fill="#B4A08C"/>
<path d="M2.15913 6.29718C2.06332 6.39299 2.04001 6.52502 2.10706 6.59207C2.17412 6.65912 2.30615 6.63581 2.40196 6.54C2.49777 6.44419 2.52108 6.31216 2.45403 6.24511C2.38697 6.17805 2.25495 6.20136 2.15913 6.29718Z" fill="#B4A08C"/>
<path d="M2.89641 7.78977C2.47993 7.78977 2.14111 7.45105 2.14111 7.03447C2.14111 6.61789 2.47993 6.27917 2.89641 6.27917C3.31289 6.27917 3.65171 6.61799 3.65171 7.03447C3.65171 7.45091 3.31289 7.78977 2.89641 7.78977ZM2.89641 6.34813C2.51804 6.34813 2.21011 6.65605 2.21011 7.03442C2.21011 7.4128 2.51804 7.72072 2.89641 7.72072C3.27479 7.72072 3.58271 7.4128 3.58271 7.03442C3.58271 6.65605 3.27479 6.34813 2.89641 6.34813Z" fill="#B4A08C"/>
</svg>
