<svg width="24" height="24" viewBox="0 0 24 24" fill="none" xmlns="http://www.w3.org/2000/svg">
<path d="M22.2025 19.8621H1.79742C0.804703 19.8621 0 19.0573 0 18.0646V5.93536C0 4.94269 0.804703 4.13794 1.79742 4.13794H22.2025C23.1952 4.13794 24 4.94264 24 5.93536V18.0646C24 19.0573 23.1952 19.8621 22.2025 19.8621Z" fill="#41479B"/>
<path d="M24 11.1724H12.8276V4.13794H11.1724V11.1724H0V12.8276H11.1724V19.8621H12.8276V12.8276H24V11.1724Z" fill="#F5F5F5"/>
<path d="M8.08171 9.52122C8.06985 9.45082 8.04313 9.36743 8.00938 9.31376C7.9423 9.22104 7.86468 9.15612 7.78949 9.11571C7.19704 8.84355 6.70105 8.8969 6.22775 8.89502C5.76027 8.90707 5.32293 8.98769 4.9679 9.06541C4.87152 9.08482 4.78804 9.0993 4.69874 9.11608C4.7429 9.02487 4.90475 8.91072 5.12272 8.84154C5.6541 8.66004 6.26066 8.58715 6.85682 8.47099C7.00738 8.44151 7.16 8.40696 7.31629 8.36252C7.40043 8.33369 7.47125 8.31119 7.57035 8.26516C7.63391 8.22921 7.69649 8.18398 7.75002 8.13565C7.80702 8.08437 7.80266 8.07002 7.832 8.03543C7.96738 7.77776 7.83922 7.59429 7.73179 7.49848C7.62824 7.41349 7.541 7.3803 7.45799 7.34613C7.29683 7.2896 7.14754 7.25416 7.00344 7.22412C6.7258 7.16857 6.45285 7.11396 6.18561 7.06047C6.05868 7.03108 5.93591 6.99846 5.82819 6.9589C5.73308 6.93354 5.59869 6.83955 5.61866 6.86519C5.37308 6.84401 5.95499 6.57012 6.37457 6.41712C6.48608 6.3679 6.59694 6.31821 6.71052 6.24808C6.82194 6.17444 6.93674 6.11196 7.06054 5.90571C7.08486 5.86291 7.08383 5.85251 7.09658 5.82452L7.11074 5.78894C7.14144 5.6793 7.12457 5.70888 7.13169 5.66135C7.14618 5.54632 7.10104 5.42337 7.0296 5.32094C6.88377 5.16335 6.73874 5.11826 6.63102 5.08807C6.18552 4.98251 5.86499 5.01138 5.5865 5.01246C5.05841 5.0373 4.75658 5.05146 4.75658 5.05146L4.73619 5.0524C4.73558 5.05244 4.73502 5.05244 4.73436 5.05249C4.56557 5.06238 4.4368 5.20718 4.44669 5.37593C4.44763 5.39243 4.45536 5.40626 4.45879 5.42187C4.21963 5.48777 3.84121 5.55518 3.46682 5.46691C3.40982 5.45379 3.35718 5.48805 3.344 5.54262C3.33088 5.59765 3.36515 5.65263 3.41971 5.66543C3.5668 5.70012 3.71272 5.71371 3.85185 5.71371C4.1474 5.71371 4.39986 5.65357 4.57227 5.60074C4.62786 5.64204 4.69546 5.66805 4.76999 5.66369C4.76999 5.66369 5.07496 5.64583 5.60868 5.61462C5.85857 5.60562 6.19438 5.59244 6.4715 5.65755C6.49443 5.66112 6.50671 5.66824 6.5219 5.67466C6.52405 5.6501 6.47718 5.71929 6.40391 5.75487C6.3328 5.80076 6.24027 5.84473 6.14399 5.88841C5.94711 5.97762 5.72183 6.0543 5.47208 6.18869C5.35152 6.25985 5.20246 6.33213 5.07861 6.54358C5.02072 6.64155 4.99325 6.79994 5.02368 6.9116L5.03268 6.95712L5.03779 6.97962L5.0405 6.99077C5.02133 6.95097 5.06966 7.05799 5.06586 7.04833L5.09085 7.08996C5.11302 7.12165 5.10955 7.13477 5.1628 7.19008C5.2055 7.2363 5.25374 7.28055 5.30347 7.31918C5.34707 7.34918 5.3796 7.36333 5.41883 7.38555C5.49613 7.43112 5.5663 7.45221 5.63952 7.48094C5.7839 7.5318 5.92447 7.56635 6.06486 7.59738C6.33585 7.64838 6.61274 7.70046 6.89432 7.75348C7.01239 7.7763 7.12288 7.80508 7.22502 7.83654C7.09419 7.88369 6.9111 7.93123 6.75318 7.96165C6.17872 8.08287 5.56958 8.15618 4.95004 8.37377C4.79497 8.43279 4.63611 8.50333 4.48035 8.62263C4.33368 8.73377 4.1795 8.95544 4.19924 9.19896C4.14669 9.20632 4.08632 9.21705 4.03775 9.22244C3.51219 9.29201 3.29132 9.19948 3.30557 9.1968C3.23694 9.1563 3.14849 9.17899 3.10799 9.24766C3.06744 9.31624 3.09018 9.40474 3.1588 9.44524C3.1588 9.44524 3.2489 9.50641 3.40972 9.54166C3.56975 9.57785 3.7949 9.59444 4.06911 9.57283C4.14463 9.56768 4.23308 9.55638 4.31615 9.54762C4.37357 9.6304 4.44046 9.72171 4.50275 9.76596C4.64755 9.88741 4.80088 9.96508 4.95369 10.0331C5.56883 10.271 6.18364 10.321 6.78308 10.2974C7.08402 10.2748 7.38018 10.2397 7.6843 10.104C7.8261 10.0379 8.02072 9.93372 8.08082 9.63246C8.081 9.59388 8.08761 9.5763 8.08171 9.52122ZM7.6393 9.6161C7.63147 9.57157 7.60696 9.67258 7.49211 9.70043C7.29444 9.78729 7.02463 9.82704 6.75941 9.84101C6.22457 9.85858 5.6405 9.79615 5.13969 9.59304C5.06099 9.55666 4.99677 9.51087 4.92922 9.46708C4.96635 9.46141 4.99855 9.45748 5.03661 9.45148C5.40875 9.39218 5.79665 9.32238 6.24219 9.31502C6.66655 9.30724 7.20693 9.3131 7.56575 9.4916C7.60743 9.51405 7.62566 9.53744 7.63944 9.55155C7.63944 9.55155 7.62754 9.53726 7.6408 9.52816C7.64671 9.53726 7.6393 9.58807 7.6393 9.6161Z" fill="#F5F5F5"/>
<path d="M20.9093 9.52122C20.8974 9.45082 20.8707 9.36743 20.837 9.31376C20.7699 9.22104 20.6923 9.15612 20.6171 9.11571C20.0246 8.84355 19.5286 8.8969 19.0553 8.89502C18.5879 8.90707 18.1505 8.98769 17.7955 9.06541C17.6991 9.08482 17.6156 9.0993 17.5263 9.11608C17.5705 9.02487 17.7323 8.91072 17.9503 8.84154C18.4817 8.66004 19.0882 8.58715 19.6844 8.47099C19.835 8.44151 19.9876 8.40696 20.1439 8.36252C20.228 8.33369 20.2988 8.31119 20.3979 8.26516C20.4615 8.22921 20.5241 8.18398 20.5776 8.13565C20.6346 8.08437 20.6303 8.07002 20.6596 8.03543C20.795 7.77776 20.6669 7.59429 20.5594 7.49848C20.4558 7.41349 20.3686 7.3803 20.2856 7.34613C20.1244 7.2896 19.9751 7.25416 19.831 7.22412C19.5534 7.16857 19.2804 7.11396 19.0132 7.06047C18.8863 7.03108 18.7635 6.99846 18.6558 6.9589C18.5607 6.93354 18.4263 6.83955 18.4463 6.86519C18.2007 6.84401 18.7826 6.57012 19.2022 6.41712C19.3137 6.3679 19.4245 6.31821 19.5381 6.24808C19.6495 6.17444 19.7643 6.11196 19.8881 5.90571C19.9125 5.86291 19.9114 5.85251 19.9242 5.82452L19.9383 5.78894C19.969 5.6793 19.9522 5.70888 19.9593 5.66135C19.9738 5.54632 19.9286 5.42337 19.8572 5.32094C19.7114 5.16335 19.5663 5.11826 19.4586 5.08807C19.0131 4.98251 18.6926 5.01138 18.4141 5.01246C17.886 5.0373 17.5842 5.05146 17.5842 5.05146L17.5638 5.0524C17.5632 5.05244 17.5626 5.05244 17.562 5.05249C17.3932 5.06238 17.2644 5.20718 17.2743 5.37593C17.2752 5.39243 17.283 5.40626 17.2864 5.42187C17.0472 5.48777 16.6688 5.55518 16.2944 5.46691C16.2374 5.45379 16.1848 5.48805 16.1716 5.54262C16.1585 5.59765 16.1927 5.65263 16.2473 5.66543C16.3944 5.70012 16.5403 5.71371 16.6794 5.71371C16.975 5.71371 17.2275 5.65357 17.3999 5.60074C17.4555 5.64204 17.523 5.66805 17.5976 5.66369C17.5976 5.66369 17.9025 5.64583 18.4363 5.61462C18.6862 5.60562 19.022 5.59244 19.2991 5.65755C19.322 5.66112 19.3343 5.66824 19.3495 5.67466C19.3516 5.6501 19.3048 5.71929 19.2315 5.75487C19.1604 5.80076 19.0679 5.84473 18.9716 5.88841C18.7747 5.97762 18.5494 6.0543 18.2997 6.18869C18.1791 6.25985 18.03 6.33213 17.9062 6.54358C17.8483 6.64155 17.8208 6.79994 17.8513 6.9116L17.8603 6.95712L17.8654 6.97962L17.8681 6.99077C17.849 6.95097 17.8973 7.05799 17.8935 7.04833L17.9185 7.08996C17.9407 7.12165 17.9372 7.13477 17.9904 7.19008C18.0331 7.2363 18.0814 7.28055 18.1311 7.31918C18.1747 7.34918 18.2072 7.36333 18.2465 7.38555C18.3238 7.43112 18.3939 7.45221 18.4672 7.48094C18.6115 7.5318 18.7521 7.56635 18.8925 7.59738C19.1635 7.64838 19.4404 7.70046 19.722 7.75348C19.84 7.7763 19.9505 7.80508 20.0527 7.83654C19.9218 7.88369 19.7387 7.93123 19.5808 7.96165C19.0064 8.08287 18.3972 8.15618 17.7777 8.37377C17.6226 8.43279 17.4638 8.50333 17.308 8.62263C17.1613 8.73377 17.0071 8.95544 17.0269 9.19896C16.9743 9.20632 16.914 9.21705 16.8654 9.22244C16.3398 9.29201 16.119 9.19948 16.1332 9.1968C16.0646 9.1563 15.9761 9.17899 15.9356 9.24766C15.8951 9.31624 15.9178 9.40474 15.9864 9.44524C15.9864 9.44524 16.0765 9.50641 16.2374 9.54166C16.3974 9.57785 16.6225 9.59444 16.8968 9.57283C16.9723 9.56768 17.0607 9.55638 17.1438 9.54762C17.2012 9.6304 17.2681 9.72171 17.3304 9.76596C17.4752 9.88741 17.6285 9.96508 17.7813 10.0331C18.3965 10.271 19.0113 10.321 19.6107 10.2974C19.9117 10.2748 20.2078 10.2397 20.5119 10.104C20.6537 10.0379 20.8484 9.93372 20.9085 9.63246C20.9085 9.59388 20.9151 9.5763 20.9093 9.52122ZM20.4668 9.6161C20.459 9.57157 20.4345 9.67258 20.3197 9.70043C20.122 9.78729 19.8522 9.82704 19.587 9.84101C19.0521 9.85858 18.468 9.79615 17.9672 9.59304C17.8885 9.55666 17.8243 9.51087 17.7568 9.46708C17.7939 9.46141 17.8261 9.45748 17.8642 9.45148C18.2363 9.39218 18.6242 9.32238 19.0697 9.31502C19.4941 9.30724 20.0345 9.3131 20.3933 9.4916C20.435 9.51405 20.4532 9.53744 20.467 9.55155C20.467 9.55155 20.4551 9.53726 20.4683 9.52816C20.4742 9.53726 20.4669 9.58807 20.4668 9.6161Z" fill="#F5F5F5"/>
<path d="M8.08171 18.2109C8.06985 18.1405 8.04313 18.0571 8.00938 18.0034C7.9423 17.9107 7.86468 17.8458 7.78949 17.8053C7.19704 17.5332 6.70105 17.5865 6.22775 17.5847C5.76027 17.5967 5.32293 17.6773 4.9679 17.755C4.87152 17.7745 4.78804 17.7889 4.69874 17.8057C4.7429 17.7145 4.90475 17.6004 5.12272 17.5312C5.6541 17.3497 6.26066 17.2768 6.85682 17.1606C7.00738 17.1311 7.16 17.0966 7.31629 17.0522C7.40043 17.0233 7.47125 17.0008 7.57035 16.9548C7.63391 16.9188 7.69649 16.8736 7.75002 16.8253C7.80702 16.774 7.80266 16.7597 7.832 16.7251C7.96738 16.4674 7.83922 16.2839 7.73179 16.1881C7.62824 16.1031 7.541 16.0699 7.45799 16.0358C7.29683 15.9792 7.14754 15.9438 7.00344 15.9138C6.7258 15.8582 6.45285 15.8036 6.18561 15.7501C6.05868 15.7207 5.93591 15.6881 5.82819 15.6485C5.73308 15.6232 5.59869 15.5292 5.61866 15.5548C5.37308 15.5336 5.95499 15.2598 6.37457 15.1068C6.48608 15.0575 6.59694 15.0078 6.71052 14.9377C6.82194 14.8641 6.93674 14.8016 7.06054 14.5953C7.08486 14.5525 7.08383 14.5421 7.09658 14.5142L7.11074 14.4786C7.14144 14.3689 7.12457 14.3985 7.13169 14.351C7.14618 14.236 7.10104 14.113 7.0296 14.0106C6.88377 13.853 6.73874 13.8079 6.63102 13.7777C6.18552 13.6721 5.86499 13.701 5.5865 13.7021C5.05841 13.7269 4.75658 13.7411 4.75658 13.7411L4.73619 13.742C4.73558 13.7421 4.73502 13.7421 4.73436 13.7421C4.56557 13.752 4.4368 13.8968 4.44669 14.0656C4.44763 14.0821 4.45536 14.0959 4.45879 14.1115C4.21963 14.1774 3.84121 14.2448 3.46682 14.1565C3.40982 14.1434 3.35718 14.1777 3.344 14.2323C3.33088 14.2873 3.36515 14.3423 3.41971 14.3551C3.5668 14.3898 3.71272 14.4033 3.85185 14.4033C4.1474 14.4033 4.39986 14.3432 4.57227 14.2904C4.62786 14.3317 4.69546 14.3577 4.76999 14.3533C4.76999 14.3533 5.07496 14.3355 5.60868 14.3043C5.85857 14.2953 6.19438 14.2821 6.4715 14.3472C6.49443 14.3508 6.50671 14.3579 6.5219 14.3643C6.52405 14.3397 6.47718 14.4089 6.40391 14.4445C6.3328 14.4904 6.24027 14.5344 6.14399 14.578C5.94711 14.6673 5.72183 14.7439 5.47208 14.8783C5.35152 14.9494 5.20246 15.0217 5.07861 15.2332C5.02072 15.3311 4.99325 15.4895 5.02368 15.6012L5.03268 15.6467L5.03779 15.6692L5.0405 15.6804C5.02133 15.6406 5.06966 15.7476 5.06586 15.7379L5.09085 15.7795C5.11302 15.8112 5.10955 15.8244 5.1628 15.8797C5.2055 15.9259 5.25374 15.9701 5.30347 16.0088C5.34707 16.0388 5.3796 16.0529 5.41883 16.0751C5.49613 16.1207 5.5663 16.1418 5.63952 16.1705C5.7839 16.2214 5.92447 16.2559 6.06486 16.287C6.33585 16.338 6.61274 16.39 6.89432 16.4431C7.01239 16.4659 7.12288 16.4947 7.22502 16.5261C7.09419 16.5733 6.9111 16.6208 6.75318 16.6512C6.17872 16.7725 5.56958 16.8458 4.95004 17.0634C4.79497 17.1224 4.63611 17.1929 4.48035 17.3122C4.33368 17.4234 4.1795 17.645 4.19924 17.8885C4.14669 17.8959 4.08632 17.9066 4.03775 17.912C3.51219 17.9816 3.29132 17.8891 3.30557 17.8864C3.23694 17.8459 3.14849 17.8686 3.10799 17.9373C3.06744 18.0058 3.09018 18.0943 3.1588 18.1348C3.1588 18.1348 3.2489 18.196 3.40972 18.2313C3.56975 18.2674 3.7949 18.284 4.06911 18.2624C4.14463 18.2573 4.23308 18.246 4.31615 18.2372C4.37357 18.32 4.44046 18.4113 4.50275 18.4555C4.64755 18.577 4.80088 18.6547 4.95369 18.7227C5.56883 18.9606 6.18364 19.0106 6.78308 18.987C7.08402 18.9644 7.38018 18.9293 7.6843 18.7936C7.8261 18.7275 8.02072 18.6233 8.08082 18.322C8.081 18.2836 8.08761 18.266 8.08171 18.2109ZM7.6393 18.3058C7.63147 18.2613 7.60696 18.3623 7.49211 18.3901C7.29444 18.477 7.02463 18.5167 6.75941 18.5307C6.22457 18.5483 5.6405 18.4858 5.13969 18.2827C5.06099 18.2463 4.99677 18.2005 4.92922 18.1568C4.96635 18.1511 4.99855 18.1472 5.03661 18.1412C5.40875 18.0819 5.79665 18.0121 6.24219 18.0047C6.66655 17.997 7.20693 18.0028 7.56575 18.1813C7.60743 18.2037 7.62566 18.2271 7.63944 18.2412C7.63944 18.2412 7.62754 18.2269 7.6408 18.2178C7.64671 18.2269 7.6393 18.2778 7.6393 18.3058Z" fill="#F5F5F5"/>
<path d="M20.9093 18.2109C20.8974 18.1405 20.8707 18.0571 20.837 18.0034C20.7699 17.9107 20.6923 17.8458 20.6171 17.8053C20.0246 17.5332 19.5286 17.5865 19.0553 17.5847C18.5879 17.5967 18.1505 17.6773 17.7955 17.755C17.6991 17.7745 17.6156 17.7889 17.5263 17.8057C17.5705 17.7145 17.7323 17.6004 17.9503 17.5312C18.4817 17.3497 19.0882 17.2768 19.6844 17.1606C19.835 17.1311 19.9876 17.0966 20.1439 17.0522C20.228 17.0233 20.2988 17.0008 20.3979 16.9548C20.4615 16.9188 20.5241 16.8736 20.5776 16.8253C20.6346 16.774 20.6303 16.7597 20.6596 16.7251C20.795 16.4674 20.6669 16.2839 20.5594 16.1881C20.4558 16.1031 20.3686 16.0699 20.2856 16.0358C20.1244 15.9792 19.9751 15.9438 19.831 15.9138C19.5534 15.8582 19.2804 15.8036 19.0132 15.7501C18.8863 15.7207 18.7635 15.6881 18.6558 15.6485C18.5607 15.6232 18.4263 15.5292 18.4463 15.5548C18.2007 15.5336 18.7826 15.2598 19.2022 15.1068C19.3137 15.0575 19.4245 15.0078 19.5381 14.9377C19.6495 14.8641 19.7643 14.8016 19.8881 14.5953C19.9125 14.5525 19.9114 14.5421 19.9242 14.5142L19.9383 14.4786C19.969 14.3689 19.9522 14.3985 19.9593 14.351C19.9738 14.236 19.9286 14.113 19.8572 14.0106C19.7114 13.853 19.5663 13.8079 19.4586 13.7777C19.0131 13.6721 18.6926 13.701 18.4141 13.7021C17.886 13.7269 17.5842 13.7411 17.5842 13.7411L17.5638 13.742C17.5632 13.7421 17.5626 13.7421 17.562 13.7421C17.3932 13.752 17.2644 13.8968 17.2743 14.0656C17.2752 14.0821 17.283 14.0959 17.2864 14.1115C17.0472 14.1774 16.6688 14.2448 16.2944 14.1565C16.2374 14.1434 16.1848 14.1777 16.1716 14.2323C16.1585 14.2873 16.1927 14.3423 16.2473 14.3551C16.3944 14.3898 16.5403 14.4033 16.6794 14.4033C16.975 14.4033 17.2275 14.3432 17.3999 14.2904C17.4555 14.3317 17.523 14.3577 17.5976 14.3533C17.5976 14.3533 17.9025 14.3355 18.4363 14.3043C18.6862 14.2953 19.022 14.2821 19.2991 14.3472C19.322 14.3508 19.3343 14.3579 19.3495 14.3643C19.3516 14.3397 19.3048 14.4089 19.2315 14.4445C19.1604 14.4904 19.0679 14.5344 18.9716 14.578C18.7747 14.6673 18.5494 14.7439 18.2997 14.8783C18.1791 14.9494 18.03 15.0217 17.9062 15.2332C17.8483 15.3311 17.8208 15.4895 17.8513 15.6012L17.8603 15.6467L17.8654 15.6692L17.8681 15.6804C17.849 15.6406 17.8973 15.7476 17.8935 15.7379L17.9185 15.7795C17.9407 15.8112 17.9372 15.8244 17.9904 15.8797C18.0331 15.9259 18.0814 15.9701 18.1311 16.0088C18.1747 16.0388 18.2072 16.0529 18.2465 16.0751C18.3238 16.1207 18.3939 16.1418 18.4672 16.1705C18.6115 16.2214 18.7521 16.2559 18.8925 16.287C19.1635 16.338 19.4404 16.39 19.722 16.4431C19.84 16.4659 19.9505 16.4947 20.0527 16.5261C19.9218 16.5733 19.7387 16.6208 19.5808 16.6512C19.0064 16.7725 18.3972 16.8458 17.7777 17.0634C17.6226 17.1224 17.4638 17.1929 17.308 17.3122C17.1613 17.4234 17.0071 17.645 17.0269 17.8885C16.9743 17.8959 16.914 17.9066 16.8654 17.912C16.3398 17.9816 16.119 17.8891 16.1332 17.8864C16.0646 17.8459 15.9761 17.8686 15.9356 17.9373C15.8951 18.0058 15.9178 18.0943 15.9864 18.1348C15.9864 18.1348 16.0765 18.196 16.2374 18.2313C16.3974 18.2674 16.6225 18.284 16.8968 18.2624C16.9723 18.2573 17.0607 18.246 17.1438 18.2372C17.2012 18.32 17.2681 18.4113 17.3304 18.4555C17.4752 18.577 17.6285 18.6547 17.7813 18.7227C18.3965 18.9606 19.0113 19.0106 19.6107 18.987C19.9117 18.9644 20.2078 18.9293 20.5119 18.7936C20.6537 18.7275 20.8484 18.6233 20.9085 18.322C20.9085 18.2836 20.9151 18.266 20.9093 18.2109ZM20.4668 18.3058C20.459 18.2613 20.4345 18.3623 20.3197 18.3901C20.122 18.477 19.8522 18.5167 19.587 18.5307C19.0521 18.5483 18.468 18.4858 17.9672 18.2827C17.8885 18.2463 17.8243 18.2005 17.7568 18.1568C17.7939 18.1511 17.8261 18.1472 17.8642 18.1412C18.2363 18.0819 18.6242 18.0121 19.0697 18.0047C19.4941 17.997 20.0345 18.0028 20.3933 18.1813C20.435 18.2037 20.4532 18.2271 20.467 18.2412C20.467 18.2412 20.4551 18.2269 20.4683 18.2178C20.4742 18.2269 20.4669 18.2778 20.4668 18.3058Z" fill="#F5F5F5"/>
</svg>
