<svg width="24" height="24" viewBox="0 0 24 24" fill="none" xmlns="http://www.w3.org/2000/svg">
<path d="M22.2026 19.8621H1.79742C0.804703 19.8621 0 19.0574 0 18.0647V5.93542C0 4.94275 0.804703 4.138 1.79742 4.138H22.2026C23.1952 4.138 24 4.9427 24 5.93542V18.0647C24 19.0574 23.1953 19.8621 22.2026 19.8621Z" fill="#FF4B55"/>
<path d="M0.413813 12H11.5862C11.8148 12 12 11.8148 12 11.5862V4.55175C12 4.32324 11.8148 4.13794 11.5862 4.13794H1.79742C0.804703 4.13799 0 4.94269 0 5.93541V11.5863C0 11.8148 0.185297 12 0.413813 12Z" fill="#41479B"/>
<path d="M4.51877 8.06902C4.51877 7.66018 4.68443 7.29005 4.95227 7.02207L3.7113 6.66708C3.63926 6.6465 3.58765 6.73594 3.64146 6.78802L4.5701 7.68591L3.31694 7.99922C3.24429 8.01736 3.24429 8.12068 3.31694 8.13886L4.5701 8.45218L3.64146 9.35007C3.5876 9.40215 3.63926 9.49158 3.7113 9.471L4.95227 9.11602C4.68443 8.84799 4.51877 8.47786 4.51877 8.06902Z" fill="#F5F5F5"/>
<path d="M4.95303 7.02141C5.22102 6.75357 5.59114 6.58791 5.99999 6.58791C6.40883 6.58791 6.77896 6.75357 7.04694 7.02141L7.40192 5.78044C7.4225 5.70839 7.33307 5.65678 7.28099 5.7106L6.3831 6.63919L6.06978 5.38604C6.05164 5.31338 5.94833 5.31338 5.93014 5.38604L5.61683 6.63919L4.71894 5.7106C4.66686 5.65674 4.57738 5.70839 4.598 5.78044L4.95303 7.02141Z" fill="#F5F5F5"/>
<path d="M7.04688 9.11664C6.7789 9.38448 6.40877 9.55014 5.99993 9.55014C5.59108 9.55014 5.22096 9.38448 4.95298 9.11664L4.59799 10.3577C4.57741 10.4297 4.66685 10.4813 4.71893 10.4275L5.61682 9.4989L5.93013 10.7521C5.94827 10.8247 6.05158 10.8247 6.06977 10.7521L6.38308 9.4989L7.28098 10.4275C7.33305 10.4814 7.42249 10.4297 7.40191 10.3577L7.04688 9.11664Z" fill="#F5F5F5"/>
<path d="M8.68274 7.9991L7.42958 7.68579L8.35818 6.7879C8.41203 6.73582 8.36038 6.64638 8.28833 6.66696L7.04736 7.02195C7.31521 7.28998 7.48086 7.66005 7.48086 8.0689C7.48086 8.47774 7.31521 8.84787 7.04736 9.11585L8.28833 9.47084C8.36038 9.49141 8.41199 9.40198 8.35818 9.3499L7.42958 8.45201L8.68274 8.1387C8.75544 8.12065 8.75544 8.01738 8.68274 7.9991Z" fill="#F5F5F5"/>
<path d="M5.99993 9.24846C6.65128 9.24846 7.17931 8.72044 7.17931 8.06908C7.17931 7.41773 6.65128 6.88971 5.99993 6.88971C5.34858 6.88971 4.82056 7.41773 4.82056 8.06908C4.82056 8.72044 5.34858 9.24846 5.99993 9.24846Z" fill="#F5F5F5"/>
</svg>
