<svg width="24" height="24" viewBox="0 0 24 24" fill="none" xmlns="http://www.w3.org/2000/svg">
<path d="M22.2026 19.8621H1.79742C0.804703 19.8621 0 19.0574 0 18.0646V5.93536C0 4.94269 0.804703 4.13794 1.79742 4.13794H22.2026C23.1952 4.13794 24 4.94264 24 5.93536V18.0647C24 19.0574 23.1953 19.8621 22.2026 19.8621Z" fill="#FF4B55"/>
<path d="M21.5171 6.62067V17.3793H2.48267V6.62067H21.5171Z" fill="#FFE15A"/>
<path d="M2.48267 6.62067L11.9999 12L2.48267 17.3793V6.62067Z" fill="#73AF00"/>
<path d="M21.5172 6.62067L12 12L21.5172 17.3793V6.62067Z" fill="#73AF00"/>
<path d="M11.9999 13.6552C12.914 13.6552 13.655 12.9141 13.655 12C13.655 11.0859 12.914 10.3448 11.9999 10.3448C11.0858 10.3448 10.3447 11.0859 10.3447 12C10.3447 12.9141 11.0858 13.6552 11.9999 13.6552Z" fill="#FF4B55"/>
<path d="M12.1047 10.7872L12.3636 11.5634L13.1817 11.5697C13.2877 11.5706 13.3316 11.7057 13.2464 11.7687L12.5882 12.2547L12.8351 13.0348C12.867 13.1358 12.752 13.2194 12.6658 13.1578L12.0001 12.682L11.3345 13.1579C11.2483 13.2195 11.1334 13.1359 11.1653 13.0349L11.4121 12.2548L10.7539 11.7688C10.6687 11.7058 10.7127 11.5707 10.8186 11.5698L11.6367 11.5635L11.8956 10.7873C11.9291 10.6867 12.0712 10.6867 12.1047 10.7872Z" fill="#FFE15A"/>
<path d="M12.0619 4.68714L12.2148 5.14571L12.6982 5.14942C12.7608 5.14989 12.7868 5.22981 12.7364 5.26693L12.3475 5.55409L12.4933 6.01501C12.5122 6.07468 12.4442 6.12404 12.3933 6.08762L12 5.8066L11.6067 6.08771C11.5558 6.12414 11.4878 6.07473 11.5067 6.0151L11.6526 5.55418L11.2636 5.26703C11.2133 5.22985 11.2392 5.14998 11.3018 5.14951L11.7852 5.14581L11.9382 4.68723C11.958 4.62779 12.042 4.62779 12.0619 4.68714Z" fill="#FFE15A"/>
<path d="M17.5058 4.68715L17.6587 5.14573L18.1421 5.14943C18.2047 5.1499 18.2307 5.22982 18.1803 5.26694L17.7914 5.5541L17.9372 6.01502C17.9561 6.07469 17.8881 6.12405 17.8372 6.08763L17.4439 5.80652L17.0506 6.08763C16.9997 6.12405 16.9317 6.07465 16.9506 6.01502L17.0964 5.5541L16.7075 5.26694C16.6571 5.22977 16.6831 5.1499 16.7456 5.14943L17.2291 5.14573L17.382 4.68715C17.402 4.6278 17.4859 4.6278 17.5058 4.68715Z" fill="#FFE15A"/>
<path d="M6.61782 4.68715L6.77077 5.14573L7.2542 5.14943C7.31677 5.1499 7.34274 5.22982 7.29235 5.26694L6.90343 5.5541L7.04926 6.01502C7.06815 6.07469 7.00018 6.12405 6.94927 6.08763L6.55595 5.80652L6.16262 6.08763C6.11171 6.12405 6.04374 6.07465 6.06263 6.01502L6.20846 5.5541L5.81954 5.26694C5.7692 5.22977 5.79512 5.1499 5.8577 5.14943L6.34112 5.14573L6.49407 4.68715C6.51399 4.6278 6.59799 4.6278 6.61782 4.68715Z" fill="#FFE15A"/>
<path d="M12.0619 17.9059L12.2148 18.3645L12.6982 18.3682C12.7608 18.3687 12.7868 18.4486 12.7364 18.4857L12.3475 18.7729L12.4933 19.2338C12.5122 19.2935 12.4442 19.3428 12.3933 19.3064L12 19.0254L11.6067 19.3065C11.5558 19.3429 11.4878 19.2935 11.5067 19.2339L11.6526 18.773L11.2636 18.4858C11.2133 18.4486 11.2392 18.3688 11.3018 18.3683L11.7852 18.3646L11.9382 17.906C11.958 17.8465 12.042 17.8465 12.0619 17.9059Z" fill="#FFE15A"/>
<path d="M17.5058 17.9059L17.6587 18.3645L18.1421 18.3682C18.2047 18.3687 18.2307 18.4486 18.1803 18.4857L17.7914 18.7729L17.9372 19.2338C17.9561 19.2935 17.8881 19.3428 17.8372 19.3064L17.4439 19.0253L17.0506 19.3064C16.9997 19.3428 16.9317 19.2934 16.9506 19.2338L17.0964 18.7729L16.7075 18.4857C16.6571 18.4486 16.6831 18.3687 16.7456 18.3682L17.2291 18.3645L17.382 17.9059C17.402 17.8465 17.4859 17.8465 17.5058 17.9059Z" fill="#FFE15A"/>
<path d="M6.61782 17.9059L6.77077 18.3645L7.2542 18.3682C7.31677 18.3687 7.34274 18.4486 7.29235 18.4857L6.90343 18.7729L7.04926 19.2338C7.06815 19.2935 7.00018 19.3428 6.94927 19.3064L6.55595 19.0253L6.16262 19.3064C6.11171 19.3428 6.04374 19.2934 6.06263 19.2338L6.20846 18.7729L5.81954 18.4857C5.7692 18.4486 5.79512 18.3687 5.8577 18.3682L6.34112 18.3645L6.49407 17.9059C6.51399 17.8465 6.59799 17.8465 6.61782 17.9059Z" fill="#FFE15A"/>
<path d="M5.53448 10.9655H4.5V12C4.5 12.5714 4.96312 13.0345 5.53448 13.0345C6.10584 13.0345 6.56897 12.5714 6.56897 12C6.56897 11.4286 6.10584 10.9655 5.53448 10.9655Z" fill="#FFE15A"/>
<path d="M6.56891 13.0345L6.00027 12.9243L5.53442 12L6.45866 12.4658L6.56891 13.0345Z" fill="#FF4B55"/>
</svg>
