<svg width="24" height="24" viewBox="0 0 24 24" fill="none" xmlns="http://www.w3.org/2000/svg">
<path d="M22.2026 4.13782H16V19.8619H22.2026C23.1953 19.8619 24 19.0572 24 18.0645V5.93524C24 4.94252 23.1953 4.13782 22.2026 4.13782Z" fill="#FF4B55"/>
<path d="M16.0004 4.138H8.00024V19.8622H16.0004V4.138Z" fill="#FFE15A"/>
<path d="M1.79742 4.13782C0.804703 4.13782 0 4.94252 0 5.93524V18.0646C0 19.0572 0.804703 19.862 1.79742 19.862H8.00002V4.13782H1.79742Z" fill="#41479B"/>
<path d="M13.4663 14.8357L13.6721 14.6679L12.7341 13.5175L12.5283 13.6853L13.4663 14.8357Z" fill="#FFCD5A"/>
<path d="M12.8373 14.2759L13.249 13.9405L12.8364 13.434L12.4247 13.7694L12.8373 14.2759Z" fill="#FFBE5A"/>
<path d="M11.5869 13.6854L11.3811 13.5176L10.4431 14.668L10.6489 14.8358L11.5869 13.6854Z" fill="#FFCD5A"/>
<path d="M11.6896 13.7694L11.2778 13.434L10.8652 13.9405L11.2769 14.2759L11.6896 13.7694Z" fill="#FFBE5A"/>
<path d="M11.7254 13.9493L11.0615 15.2771L11.991 15.941V14.082L11.7254 13.9493Z" fill="#FFE15A"/>
<path d="M12.2566 13.9493L12.9205 15.2771L11.991 15.941V14.082L12.2566 13.9493Z" fill="#FFCD5A"/>
<path d="M10.1318 13.9492V10.4969H10.5302C10.5302 10.4969 10.5302 12.7542 10.5302 13.1525C10.5302 13.5508 10.1318 13.9492 10.1318 13.9492Z" fill="#FFBE5A"/>
<path d="M9.86646 14.6132V10.4969H10.2648C10.2648 10.4969 10.2648 13.4181 10.2648 13.8164C10.2648 14.2148 9.86646 14.6132 9.86646 14.6132Z" fill="#FFCD5A"/>
<path d="M9.60083 15.1443V10.4969H9.99917C9.99917 10.4969 9.99917 13.9492 9.99917 14.3476C9.99917 14.7459 9.60083 15.1443 9.60083 15.1443Z" fill="#FFE15A"/>
<path d="M10.5303 10.6296C10.5303 10.6296 10.5303 12.5217 10.5303 13.1525C10.5303 13.8164 11.4929 13.7279 11.9909 14.2147C12.4888 13.7278 13.4514 13.8164 13.4514 13.1525C13.4514 12.5218 13.4514 10.6296 13.4514 10.6296H10.5303Z" fill="#FF4B55"/>
<path d="M10.5303 12.0903C10.5303 12.5106 10.5303 12.9184 10.5303 13.1525C10.5303 13.8165 11.4929 13.7279 11.9909 14.2148C12.4888 13.7279 13.4514 13.8164 13.4514 13.1525C13.4514 12.9184 13.4514 12.5106 13.4514 12.0902L10.5303 12.0903Z" fill="#41479B"/>
<path d="M11.9908 13.8164L11.5925 13.5509V13.4181L11.7252 13.2853V12.4886L11.3269 12.223L11.7252 11.6919H11.858L11.9908 11.8247L12.1236 11.6919H12.2564L12.6547 12.223L12.2564 12.4886V13.2853L12.3891 13.4181V13.5509L11.9908 13.8164Z" fill="#FFE15A"/>
<path d="M11.4598 10.7625C11.4598 10.7625 10.9287 10.8952 10.9287 11.4264C10.9287 11.9575 11.4598 12.2231 11.4598 12.2231L11.7254 11.8247C10.9287 11.5591 11.4598 10.7625 11.4598 10.7625Z" fill="#FFE15A"/>
<path d="M12.5221 10.7625C12.5221 10.7625 13.0532 10.8952 13.0532 11.4264C13.0532 11.9575 12.5221 12.2231 12.5221 12.2231L12.2566 11.8247C13.0532 11.5591 12.5221 10.7625 12.5221 10.7625Z" fill="#FFE15A"/>
<path d="M10.6631 12.0903L10.9286 12.223L11.1942 12.0903L10.9286 11.9575L10.6631 12.0903Z" fill="#FFE15A"/>
<path d="M12.7876 12.0903L13.0531 12.223L13.3187 12.0903L13.0531 11.9575L12.7876 12.0903Z" fill="#FFE15A"/>
<path d="M11.9909 10.8288L12.0874 10.9277L12.2256 10.926L12.224 11.0642L12.3228 11.1608L12.224 11.2573L12.2256 11.3955L12.0874 11.3938L11.9909 11.4927L11.8943 11.3938L11.7561 11.3955L11.7578 11.2573L11.6589 11.1608L11.7578 11.0642L11.7561 10.926L11.8943 10.9277L11.9909 10.8288Z" fill="#FFE15A"/>
<path d="M11.0892 12.6702L11.1849 12.7767L11.3181 12.7239C11.387 12.6966 11.4517 12.7715 11.4146 12.8357L11.3429 12.9597L11.4343 13.0701C11.4816 13.1272 11.4302 13.2119 11.3577 13.1965L11.2176 13.1665L11.141 13.2875C11.1013 13.3502 11.0048 13.3275 10.9971 13.2537L10.9822 13.1113L10.8435 13.0757C10.7716 13.0573 10.7634 12.9587 10.8311 12.9286L10.962 12.8704L10.9529 12.7275C10.9484 12.6534 11.0397 12.615 11.0892 12.6702Z" fill="#FFE15A"/>
<path d="M12.8577 12.9729C12.887 12.8219 13.0116 12.7149 13.1569 12.6988C13.1271 12.6828 13.0954 12.6695 13.0605 12.6628C12.8745 12.6267 12.6945 12.7483 12.6584 12.9342C12.6224 13.1202 12.7439 13.3002 12.9299 13.3363C12.9649 13.3431 12.9992 13.3426 13.0328 13.3389C12.9041 13.2697 12.8285 13.1239 12.8577 12.9729Z" fill="#FFE15A"/>
<path d="M11.4599 10.6296L11.7254 9.30182L11.1943 8.90347L11.3271 8.77068H11.5927C11.5927 8.77068 11.7255 8.63788 11.991 8.63788C12.2566 8.63788 12.5221 8.77068 12.5221 9.16897C12.5221 9.56727 12.6549 10.6296 12.6549 10.6296H11.4599V10.6296Z" fill="#FFE15A"/>
<path d="M10.5304 10.0985C10.237 10.0985 9.99927 10.3363 9.99927 10.6296H11.0615C11.0615 10.3363 10.8237 10.0985 10.5304 10.0985Z" fill="#FFAA5A"/>
<path d="M10.3975 10.6297H9.60083V9.74583C9.60083 9.57394 9.74019 9.43463 9.91203 9.43463H10.0863C10.2582 9.43463 10.3975 9.57399 10.3975 9.74583V10.6297Z" fill="#FFBE5A"/>
<path d="M13.8498 13.9492V10.4969H13.4514C13.4514 10.4969 13.4514 12.7542 13.4514 13.1525C13.4514 13.5508 13.8498 13.9492 13.8498 13.9492Z" fill="#FFBE5A"/>
<path d="M14.1154 14.6132V10.4969H13.717C13.717 10.4969 13.717 13.4181 13.717 13.8164C13.717 14.2148 14.1154 14.6132 14.1154 14.6132Z" fill="#FFCD5A"/>
<path d="M14.381 15.1443V10.4969H13.9827C13.9827 10.4969 13.9827 13.9492 13.9827 14.3476C13.9826 14.7459 14.381 15.1443 14.381 15.1443Z" fill="#FFE15A"/>
<path d="M13.4516 10.0985C13.7449 10.0985 13.9827 10.3363 13.9827 10.6296H12.9204C12.9205 10.3363 13.1583 10.0985 13.4516 10.0985Z" fill="#FFAA5A"/>
<path d="M13.5842 10.6297H14.3809V9.74583C14.3809 9.57394 14.2416 9.43463 14.0697 9.43463H13.8955C13.7236 9.43463 13.5843 9.57399 13.5843 9.74583L13.5842 10.6297Z" fill="#FFBE5A"/>
<path d="M15.1218 12.1421L14.9517 12.0385L13.0922 15.0921L13.2623 15.1956L15.1218 12.1421Z" fill="#FFAA5A"/>
<path d="M13.5001 15.0199L13.8318 14.605L13.5074 14.3456L13.1757 14.7605L13.5001 15.0199Z" fill="#FFE15A"/>
<path d="M15.1766 12.1765L14.8931 12.0039L14.4948 12.6583L14.7783 12.8309L15.1766 12.1765Z" fill="#FFCD5A"/>
<path d="M10.98 15.0892L9.10571 12.1899L8.99419 12.262L10.8685 15.1613L10.98 15.0892Z" fill="#73AF00"/>
<path d="M10.2851 13.5648C10.2374 13.6188 10.2059 13.7007 10.1979 13.7951C10.1324 13.729 10.0572 13.6869 9.98718 13.6756C9.96871 13.7441 9.97621 13.83 10.0096 13.9168C9.92024 13.8853 9.83268 13.8805 9.76392 13.9018C9.78328 13.9996 9.86301 14.1059 9.98521 14.1787C10.1074 14.2517 10.2388 14.2714 10.3341 14.2419L10.3613 14.2243C10.4273 14.1494 10.4632 14.0216 10.4469 13.8803C10.4305 13.739 10.3663 13.6227 10.2851 13.5648Z" fill="#73AF00"/>
<path d="M10.3476 14.3662C10.421 14.3662 10.4804 14.3068 10.4804 14.2334C10.4804 14.1601 10.421 14.1006 10.3476 14.1006C10.2743 14.1006 10.2148 14.1601 10.2148 14.2334C10.2148 14.3068 10.2743 14.3662 10.3476 14.3662Z" fill="#FF4B55"/>
<path d="M9.78043 12.7842C9.73281 12.8382 9.70121 12.9201 9.69325 13.0145C9.62776 12.9484 9.55257 12.9064 9.48254 12.8951C9.46407 12.9635 9.47157 13.0494 9.505 13.1362C9.41561 13.1047 9.32804 13.0999 9.25928 13.1212C9.27864 13.2191 9.35837 13.3253 9.48057 13.3982C9.60273 13.4711 9.73412 13.4908 9.82942 13.4614L9.8567 13.4437C9.92265 13.3689 9.95861 13.241 9.94229 13.0997C9.92589 12.9583 9.86171 12.842 9.78043 12.7842Z" fill="#73AF00"/>
<path d="M9.84325 13.5858C9.91659 13.5858 9.97604 13.5263 9.97604 13.453C9.97604 13.3796 9.91659 13.3202 9.84325 13.3202C9.7699 13.3202 9.71045 13.3796 9.71045 13.453C9.71045 13.5263 9.7699 13.5858 9.84325 13.5858Z" fill="#FF4B55"/>
<path d="M9.27579 12.0037C9.22817 12.0577 9.19658 12.1396 9.18861 12.234C9.12312 12.1679 9.04794 12.1258 8.9779 12.1145C8.95944 12.183 8.96694 12.2689 9.00036 12.3557C8.91097 12.3242 8.8234 12.3194 8.75464 12.3407C8.774 12.4385 8.85373 12.5448 8.97594 12.6176C9.09809 12.6906 9.22948 12.7103 9.32478 12.6808L9.35206 12.6632C9.41801 12.5883 9.45397 12.4605 9.43765 12.3192C9.42115 12.1778 9.35703 12.0615 9.27579 12.0037Z" fill="#73AF00"/>
<path d="M9.33836 12.8053C9.41171 12.8053 9.47116 12.7459 9.47116 12.6725C9.47116 12.5992 9.41171 12.5397 9.33836 12.5397C9.26502 12.5397 9.20557 12.5992 9.20557 12.6725C9.20557 12.7459 9.26502 12.8053 9.33836 12.8053Z" fill="#FF4B55"/>
<path d="M10.9391 14.7611L10.6074 14.3462L10.283 14.6055L10.6146 15.0204L10.9391 14.7611Z" fill="#FFE15A"/>
<path d="M11.3269 8.37268H11.1941V9.30216H11.3269V8.37268Z" fill="#FFE15A"/>
<path d="M11.4594 8.50531H11.061V8.63811H11.4594V8.50531Z" fill="#FFE15A"/>
<path d="M11.1941 8.9035L11.5924 9.20228V8.77075H11.3269L11.1941 8.9035Z" fill="#FF875A"/>
<path d="M11.3271 8.37233V8.50513H11.4599V8.63792H11.3271V8.77072H11.5926C11.5926 8.77072 11.7254 8.63792 11.9909 8.63792C12.2565 8.63792 12.522 8.77072 12.522 9.16902C12.522 9.56736 12.6548 10.6296 12.6548 10.6296H12.9204C12.9204 10.3363 13.1582 10.0985 13.4515 10.0985C13.4976 10.0985 13.5416 10.1062 13.5843 10.1173V9.83295C13.5843 9.61297 13.7626 9.43461 13.9826 9.43461C14.2026 9.43461 14.381 9.61297 14.381 9.83295V10.4969V10.6297V12.9747L14.5524 12.693L14.4958 12.6585L14.8941 12.004L14.9508 12.0385L15.0359 12.0904L15.1777 12.1767L14.7793 12.8311L14.7226 12.7966L14.381 13.3579V15.1445C14.381 15.1445 14.0639 14.8265 13.996 14.4748C13.9475 14.4124 13.8916 14.3329 13.8425 14.2426L13.6905 14.4923L13.8318 14.6052L13.5001 15.0201L13.4121 14.9497L13.262 15.1963L13.0919 15.0927L13.2552 14.8243L13.1759 14.7609L13.2888 14.6196L12.9404 14.1923L12.8374 14.2762L12.5276 13.8961C12.4452 13.9292 12.3637 13.9656 12.2852 14.0073L12.9202 15.2773L11.9908 15.9413L11.0613 15.2773L11.6963 14.0073C11.6494 13.9824 11.6018 13.9588 11.5531 13.9373L11.2769 14.2762L11.174 14.1923L10.8255 14.6196L10.9385 14.7609L10.8257 14.851L10.9798 15.0894L10.8683 15.1615L10.7214 14.9344L10.6142 15.02L10.2826 14.6052L10.4316 14.486L10.3526 14.3638C10.3507 14.3639 10.3489 14.3639 10.347 14.3639C10.3036 14.3639 10.2611 14.3446 10.2359 14.3054C10.2251 14.2888 10.2193 14.2706 10.2167 14.2522C10.1917 14.2507 10.1664 14.2472 10.14 14.2409C10.0907 14.3319 10.0344 14.412 9.98564 14.4748C9.91781 14.8265 9.6007 15.1445 9.6007 15.1445V13.4506C9.56058 13.438 9.52012 13.422 9.48032 13.3982C9.35817 13.3253 9.27839 13.2191 9.25903 13.1212C9.28697 13.1126 9.31795 13.1083 9.35095 13.1083C9.39923 13.1083 9.45173 13.1176 9.50479 13.1363C9.4875 13.0913 9.47742 13.0468 9.47409 13.0046L9.3435 12.8025C9.34162 12.8026 9.33979 12.8026 9.33792 12.8026C9.29451 12.8026 9.252 12.7833 9.22673 12.7441C9.21595 12.7275 9.21014 12.7093 9.20751 12.6909C9.13401 12.6865 9.05348 12.664 8.97581 12.6177C8.85365 12.5448 8.77387 12.4385 8.75451 12.3407C8.78245 12.3321 8.81348 12.3278 8.84643 12.3278C8.89472 12.3278 8.94722 12.3371 9.00028 12.3558C8.96686 12.2689 8.95936 12.1831 8.97782 12.1146C9.04786 12.1259 9.12304 12.168 9.18853 12.2341C9.1965 12.1397 9.22809 12.0578 9.27567 12.0038C9.35695 12.0616 9.42107 12.1779 9.43739 12.3193C9.44779 12.4092 9.43523 12.4918 9.40903 12.5607C9.42473 12.5707 9.43893 12.5834 9.44967 12.6001C9.47606 12.6409 9.47512 12.69 9.45497 12.7305L9.58556 12.9326C9.59062 12.9354 9.59559 12.9388 9.60065 12.9419V10.6298V10.497V9.83309C9.60065 9.61311 9.77901 9.43475 9.999 9.43475C10.219 9.43475 10.3973 9.61311 10.3973 9.83309V10.1174C10.44 10.1064 10.484 10.0986 10.5301 10.0986C10.8235 10.0986 11.0612 10.3364 11.0612 10.6297H11.4596L11.7251 9.30191L11.5923 9.20234L11.3268 9.00317V9.30195H11.194V8.63802H11.0612V8.50522H11.194V8.37242H11.3273L11.3271 8.37233ZM13.4586 14.4072L13.5076 14.3458L13.5337 14.3667L13.7477 14.015C13.7291 13.95 13.7171 13.8833 13.7171 13.8164C13.7171 13.8099 13.7171 13.801 13.7171 13.7931C13.6012 13.6407 13.4516 13.3968 13.4516 13.1525C13.4516 13.4322 13.2799 13.5778 13.045 13.6898L13.2494 13.9406L13.1465 14.0244L13.4586 14.4072ZM10.5361 14.4025L10.6071 14.3458L10.6561 14.4071L10.9682 14.0243L10.8653 13.9405L11.0343 13.7331C10.7507 13.6146 10.5303 13.4695 10.5303 13.1525C10.5303 13.3303 10.451 13.5077 10.3631 13.6501C10.4048 13.7113 10.4363 13.7896 10.4468 13.8802C10.4572 13.9701 10.4446 14.0528 10.4184 14.1216C10.4341 14.1316 10.4483 14.1443 10.4591 14.161C10.4855 14.2018 10.4845 14.2509 10.4644 14.2915L10.5361 14.4025ZM11.3271 8.27277H11.1943C11.1393 8.27277 11.0947 8.31734 11.0947 8.37233V8.40552H11.0615C11.0065 8.40552 10.9619 8.45009 10.9619 8.50508V8.63788C10.9619 8.69286 11.0065 8.73744 11.0615 8.73744H11.0947V9.30177C11.0947 9.35675 11.1393 9.40133 11.1943 9.40133H11.3271C11.382 9.40133 11.4266 9.35675 11.4266 9.30177V9.2022L11.5328 9.28184L11.6154 9.34377L11.3781 10.53H11.1532C11.1052 10.2294 10.8442 9.99889 10.5303 9.99889C10.5193 9.99889 10.5082 9.99927 10.4971 9.99992V9.83291C10.4971 9.55836 10.2737 9.33495 9.99914 9.33495C9.72459 9.33495 9.50118 9.55836 9.50118 9.83291V10.4968V10.6296V12.1567C9.46523 12.0576 9.40678 11.9746 9.33351 11.9225C9.31608 11.91 9.29587 11.904 9.27586 11.904C9.24815 11.904 9.22068 11.9155 9.20114 11.9377C9.17048 11.9725 9.14526 12.0149 9.12647 12.0627C9.08287 12.0391 9.03801 12.0231 8.99376 12.016C8.98842 12.0151 8.98312 12.0147 8.97787 12.0147C8.93357 12.0147 8.89373 12.0443 8.88183 12.0883C8.87015 12.1316 8.86626 12.179 8.86992 12.2285C8.86209 12.2281 8.85431 12.2279 8.84658 12.2279C8.80345 12.2279 8.76262 12.2338 8.72526 12.2453C8.67656 12.2603 8.64707 12.3097 8.65692 12.3598C8.6827 12.4899 8.78283 12.6182 8.92486 12.7029C8.99039 12.742 9.06154 12.7688 9.13378 12.7819C9.13668 12.7874 9.13982 12.7927 9.1432 12.7979C9.17587 12.8485 9.22715 12.8833 9.28579 12.8963L9.35836 13.0085C9.35592 13.0085 9.35353 13.0085 9.35114 13.0085C9.30801 13.0085 9.26718 13.0144 9.22982 13.0259C9.18112 13.0409 9.15164 13.0903 9.16148 13.1404C9.18726 13.2705 9.28739 13.3988 9.42942 13.4835C9.45211 13.4971 9.47573 13.5091 9.50123 13.5199V15.144C9.50123 15.1843 9.52556 15.2207 9.56278 15.236C9.57511 15.2411 9.588 15.2436 9.60079 15.2436C9.62676 15.2436 9.65226 15.2335 9.67134 15.2143C9.68489 15.2008 9.99722 14.8842 10.0786 14.5168C10.1121 14.4728 10.143 14.4284 10.1712 14.384C10.2032 14.421 10.2466 14.4466 10.2951 14.4574L10.2994 14.464L10.2207 14.5269C10.2001 14.5434 10.1868 14.5674 10.1839 14.5937C10.181 14.6199 10.1886 14.6463 10.2051 14.6669L10.5367 15.0818C10.5532 15.1024 10.5772 15.1157 10.6035 15.1186C10.6072 15.119 10.6109 15.1192 10.6146 15.1192C10.6371 15.1192 10.659 15.1116 10.6767 15.0974L10.6979 15.0805L10.7849 15.2151C10.7993 15.2373 10.8218 15.2529 10.8477 15.2585C10.8546 15.26 10.8616 15.2607 10.8686 15.2607C10.8876 15.2607 10.9065 15.2552 10.9226 15.2447L10.987 15.203L10.9724 15.2323C10.9505 15.2761 10.9638 15.3293 11.0036 15.3578L11.9331 16.0218C11.9504 16.0341 11.9707 16.0403 11.991 16.0403C12.0113 16.0403 12.0315 16.0341 12.0489 16.0218L12.9784 15.3578C13.0183 15.3293 13.0315 15.2761 13.0095 15.2323L12.4191 14.0512C12.4441 14.0394 12.4702 14.0277 12.4975 14.0159L12.7605 14.3386C12.7801 14.3627 12.8088 14.3752 12.8377 14.3752C12.8599 14.3752 12.8821 14.3679 12.9006 14.3528L12.9264 14.3318L13.1611 14.6197L13.0984 14.6982C13.0819 14.7188 13.0743 14.7451 13.0772 14.7714C13.0801 14.7977 13.0934 14.8217 13.114 14.8382L13.1249 14.8468L13.007 15.0404C12.9784 15.0874 12.9933 15.1486 13.0403 15.1772L13.2104 15.2808C13.2261 15.2904 13.2441 15.2953 13.2622 15.2953C13.2701 15.2953 13.278 15.2944 13.2858 15.2925C13.3114 15.2862 13.3336 15.2701 13.3473 15.2475L13.4386 15.0975C13.4569 15.112 13.4787 15.119 13.5004 15.119C13.5296 15.119 13.5585 15.1062 13.5782 15.0816L13.9099 14.6668C13.9221 14.6515 13.929 14.6337 13.9311 14.6157C14.0392 14.9392 14.2985 15.2019 14.3107 15.2142C14.3298 15.2333 14.3553 15.2435 14.3813 15.2435C14.3941 15.2435 14.407 15.241 14.4193 15.236C14.4565 15.2205 14.4809 15.1843 14.4809 15.1439V13.3855L14.7592 12.9283C14.7659 12.9298 14.7727 12.9305 14.7795 12.9305C14.8132 12.9305 14.846 12.9134 14.8647 12.8826L15.2631 12.2281C15.2768 12.2056 15.281 12.1785 15.2747 12.1528C15.2685 12.1272 15.2523 12.105 15.2297 12.0913L15.0879 12.005L15.0029 11.9532L14.9461 11.9186C14.93 11.9088 14.9121 11.9041 14.8945 11.9041C14.8609 11.9041 14.8281 11.9211 14.8094 11.952L14.4809 12.4916V10.6295V10.4967V9.83277C14.4809 9.55822 14.2575 9.33481 13.9829 9.33481C13.7084 9.33481 13.485 9.55822 13.485 9.83277V9.99978C13.4739 9.99913 13.4628 9.99875 13.4518 9.99875C13.1379 9.99875 12.8768 10.2292 12.8289 10.5298H12.7433C12.7119 10.2684 12.6219 9.49049 12.6219 9.16883C12.6219 8.70383 12.2961 8.53813 11.9912 8.53813C11.7654 8.53813 11.6197 8.62419 11.5572 8.67092H11.5539C11.5576 8.66052 11.5596 8.64936 11.5596 8.63774V8.50494C11.5596 8.44995 11.515 8.40538 11.46 8.40538H11.4269V8.37219C11.4266 8.31734 11.382 8.27277 11.3271 8.27277ZM10.479 13.6499C10.5045 13.6051 10.5267 13.5608 10.5458 13.5172C10.6289 13.6287 10.7483 13.7079 10.8754 13.7706L10.7882 13.8776C10.7715 13.8981 10.7637 13.9243 10.7663 13.9506C10.769 13.9769 10.782 14.0011 10.8025 14.0177L10.8281 14.0386L10.6507 14.2562C10.6405 14.2513 10.6295 14.2481 10.6181 14.2468C10.6144 14.2463 10.6107 14.2461 10.6071 14.2461C10.5971 14.2461 10.5874 14.2476 10.5779 14.2505C10.5825 14.2004 10.5706 14.1502 10.5427 14.107C10.5394 14.1018 10.5358 14.0967 10.532 14.0918C10.5497 14.0206 10.5545 13.9447 10.5457 13.8688C10.5367 13.791 10.5139 13.7165 10.479 13.6499ZM13.1991 13.7213C13.2868 13.6702 13.372 13.6054 13.4366 13.5184C13.4874 13.6345 13.5543 13.7401 13.6176 13.8263C13.6184 13.8817 13.626 13.9388 13.6406 13.9994L13.4894 14.2478C13.4807 14.2494 13.4721 14.2522 13.464 14.2562L13.2865 14.0386L13.3121 14.0177C13.3326 14.001 13.3456 13.9769 13.3483 13.9506C13.3509 13.9244 13.3431 13.8981 13.3264 13.8776L13.1991 13.7213ZM11.2771 14.3755C11.306 14.3755 11.3347 14.363 11.3544 14.3389L11.5223 14.1328L11.0678 15.0419C11.0666 15.0396 11.0652 15.0373 11.0638 15.0351L10.9586 14.8723L11.001 14.8384C11.0216 14.8219 11.0349 14.7979 11.0378 14.7716C11.0407 14.7454 11.0331 14.719 11.0166 14.6984L10.9539 14.6199L11.1885 14.3321L11.2144 14.3531C11.2327 14.3683 11.255 14.3755 11.2771 14.3755ZM13.8212 14.4689L13.8428 14.4333C13.8619 14.4613 13.882 14.4893 13.9032 14.5171C13.9051 14.5255 13.9071 14.5338 13.9092 14.5422C13.9048 14.5367 13.8997 14.5317 13.894 14.5272L13.8212 14.4689Z" fill="#FFAA5A"/>
</svg>
