<svg width="24" height="24" viewBox="0 0 24 24" fill="none" xmlns="http://www.w3.org/2000/svg">
<path d="M0 18.0647C0 19.0574 0.804703 19.8621 1.79742 19.8621H22.2026C23.1952 19.8621 24 19.0574 24 18.0647V14.6207H0V18.0647Z" fill="#73AF00"/>
<path d="M22.2026 4.13794H1.79742C0.804703 4.13794 0 4.94264 0 5.93536V9.37931H24V5.93536C24 4.94264 23.1953 4.13794 22.2026 4.13794Z" fill="#464655"/>
<path d="M24 9.37927H0V14.6204H24V9.37927Z" fill="#FF4B55"/>
<path d="M15.2149 8.88512C14.5691 7.77948 13.3729 7.03455 12 7.03455C10.6272 7.03455 9.431 7.77948 8.78516 8.88512H15.2149Z" fill="#FF4B55"/>
<path d="M12.2137 5.27588C12.2137 5.46156 11.9999 6.62073 11.9999 6.62073C11.9999 6.62073 11.7861 5.4616 11.7861 5.27588C11.7861 5.09021 11.8819 4.9397 11.9999 4.9397C12.118 4.9397 12.2137 5.09017 12.2137 5.27588Z" fill="#FF4B55"/>
<path d="M16.0188 7.02908C15.8875 7.16037 14.9167 7.82886 14.9167 7.82886C14.9167 7.82886 15.5852 6.85803 15.7165 6.72678C15.8478 6.59548 16.022 6.55672 16.1055 6.64025C16.1889 6.72364 16.1501 6.89783 16.0188 7.02908Z" fill="#FF4B55"/>
<path d="M8.28347 6.72684C8.41477 6.85813 9.08325 7.82891 9.08325 7.82891C9.08325 7.82891 8.11242 7.16043 7.98117 7.02913C7.84988 6.89784 7.81111 6.7237 7.89464 6.64021C7.97803 6.55673 8.15217 6.59549 8.28347 6.72684Z" fill="#FF4B55"/>
<path d="M10.1044 5.61042C10.1754 5.78198 10.4215 6.93473 10.4215 6.93473C10.4215 6.93473 9.78037 5.94562 9.70936 5.7741C9.63834 5.60259 9.66914 5.4269 9.77822 5.38167C9.88725 5.33643 10.0333 5.43885 10.1044 5.61042Z" fill="#FF4B55"/>
<path d="M14.2907 5.77413C14.2197 5.94569 13.5786 6.93476 13.5786 6.93476C13.5786 6.93476 13.8247 5.78205 13.8957 5.61044C13.9668 5.43888 14.1128 5.33646 14.2219 5.38165C14.331 5.42683 14.3618 5.60257 14.2907 5.77413Z" fill="#FF4B55"/>
<path d="M11.1222 5.34252C11.1591 5.52449 11.18 6.70302 11.18 6.70302C11.18 6.70302 10.74 5.60952 10.7031 5.4275C10.6662 5.24553 10.7301 5.07899 10.8458 5.0555C10.9616 5.03202 11.0853 5.1605 11.1222 5.34252Z" fill="#FF4B55"/>
<path d="M15.1999 6.30438C15.0974 6.45916 14.2788 7.30727 14.2788 7.30727C14.2788 7.30727 14.7409 6.22296 14.8435 6.06818C14.9461 5.9134 15.109 5.84079 15.2074 5.90604C15.3059 5.97129 15.3025 6.1496 15.1999 6.30438Z" fill="#FF4B55"/>
<path d="M7.55878 7.54571C7.71356 7.64828 8.56167 8.46686 8.56167 8.46686C8.56167 8.46686 7.47736 8.00471 7.32257 7.90215C7.16779 7.79959 7.09518 7.63665 7.16043 7.53821C7.22568 7.43982 7.40404 7.44315 7.55878 7.54571Z" fill="#FF4B55"/>
<path d="M9.12141 6.08972C9.2252 6.2437 9.69545 7.32454 9.69545 7.32454C9.69545 7.32454 8.87054 6.48262 8.7668 6.32864C8.66302 6.17465 8.65834 5.99629 8.7563 5.93034C8.85418 5.86439 9.01768 5.93573 9.12141 6.08972Z" fill="#FF4B55"/>
<path d="M16.656 7.86702C16.502 7.9708 15.4211 8.44105 15.4211 8.44105C15.4211 8.44105 16.2631 7.61614 16.417 7.51241C16.571 7.40863 16.7494 7.40394 16.8153 7.50191C16.8813 7.59983 16.81 7.76333 16.656 7.86702Z" fill="#FF4B55"/>
<path d="M13.2568 5.41792C13.2212 5.60012 12.7896 6.69695 12.7896 6.69695C12.7896 6.69695 12.8016 5.51832 12.8371 5.33607C12.8727 5.15387 12.9954 5.0244 13.1113 5.04699C13.2272 5.06959 13.2923 5.23567 13.2568 5.41792Z" fill="#FF4B55"/>
<path d="M13.3843 5.4496C13.3303 5.62726 13.1982 6.79857 13.1982 6.79857C13.1982 6.79857 13.7395 5.75152 13.7934 5.57377C13.8474 5.39612 13.7995 5.22427 13.6865 5.18996C13.5736 5.15565 13.4382 5.27195 13.3843 5.4496Z" fill="#FF4B55"/>
<path d="M9.23378 6.02208C9.32129 6.18586 10.0561 7.10747 10.0561 7.10747C10.0561 7.10747 9.69845 5.98434 9.61093 5.82056C9.52342 5.65678 9.36807 5.56912 9.26392 5.62476C9.15971 5.68045 9.14626 5.85825 9.23378 6.02208Z" fill="#FF4B55"/>
<path d="M16.7236 7.97959C16.5598 8.06711 15.6382 8.80192 15.6382 8.80192C15.6382 8.80192 16.7613 8.44426 16.9251 8.35675C17.0888 8.26923 17.1765 8.11389 17.1209 8.00973C17.0653 7.90558 16.8874 7.89212 16.7236 7.97959Z" fill="#FF4B55"/>
<path d="M15.3055 6.38242C15.1877 6.52595 14.6174 7.55748 14.6174 7.55748C14.6174 7.55748 15.5182 6.79726 15.636 6.65369C15.7539 6.51015 15.7754 6.33311 15.6841 6.25815C15.5929 6.18329 15.4234 6.23889 15.3055 6.38242Z" fill="#FF4B55"/>
<path d="M7.63684 7.44013C7.78037 7.55798 8.81191 8.12821 8.81191 8.12821C8.81191 8.12821 8.05169 7.22741 7.90811 7.10962C7.76453 6.99182 7.58753 6.97026 7.51258 7.06152C7.43767 7.15284 7.49327 7.32234 7.63684 7.44013Z" fill="#FF4B55"/>
<path d="M11.2521 5.32309C11.2702 5.50791 11.5964 6.64056 11.5964 6.64056C11.5964 6.64056 11.6958 5.46606 11.6776 5.28123C11.6595 5.0964 11.5494 4.95601 11.432 4.96759C11.3145 4.97912 11.2339 5.13826 11.2521 5.32309Z" fill="#FF4B55"/>
<path d="M12.3309 5.28165C12.3125 5.46643 12.41 6.64107 12.41 6.64107C12.41 6.64107 12.7379 5.50894 12.7564 5.32416C12.7748 5.13938 12.6946 4.9801 12.577 4.96834C12.4596 4.95662 12.3494 5.09691 12.3309 5.28165Z" fill="#FF4B55"/>
<path d="M8.37032 6.64801C8.48793 6.79168 9.38746 7.55335 9.38746 7.55335C9.38746 7.55335 8.81882 6.52088 8.70126 6.37721C8.58365 6.23354 8.41424 6.17766 8.32288 6.25238C8.23148 6.32715 8.25271 6.50429 8.37032 6.64801Z" fill="#FF4B55"/>
<path d="M16.0977 7.11615C15.9541 7.23376 15.1924 8.13329 15.1924 8.13329C15.1924 8.13329 16.2249 7.56465 16.3685 7.44709C16.5122 7.32952 16.5681 7.16007 16.4934 7.06871C16.4186 6.97735 16.2415 6.99854 16.0977 7.11615Z" fill="#FF4B55"/>
<path d="M14.3967 5.82432C14.3089 5.98796 13.9495 7.11047 13.9495 7.11047C13.9495 7.11047 14.6857 6.18999 14.7735 6.02639C14.8613 5.86275 14.848 5.68486 14.744 5.62903C14.6399 5.57321 14.4844 5.66063 14.3967 5.82432Z" fill="#FF4B55"/>
<path d="M7.07856 8.34897C7.24221 8.43676 8.36472 8.79615 8.36472 8.79615C8.36472 8.79615 7.44424 8.05993 7.28064 7.97214C7.117 7.88434 6.93911 7.89761 6.88328 8.00167C6.8275 8.10568 6.91492 8.26117 7.07856 8.34897Z" fill="#FF4B55"/>
<path d="M10.2148 5.57091C10.2684 5.74871 10.8081 6.7966 10.8081 6.7966C10.8081 6.7966 10.6779 5.6251 10.6242 5.4474C10.5705 5.2696 10.4354 5.15321 10.3223 5.18734C10.2093 5.22141 10.1611 5.39316 10.2148 5.57091Z" fill="#FF4B55"/>
</svg>
