<svg width="24" height="24" viewBox="0 0 24 24" fill="none" xmlns="http://www.w3.org/2000/svg">
<path d="M22.2026 4.13794H1.79742C0.804703 4.13794 0 4.94264 0 5.93536V18.0647C0 19.0574 0.804703 19.8622 1.79742 19.8622H22.2026C23.1952 19.8622 24 19.0575 24 18.0647V5.93536C24 4.94264 23.1953 4.13794 22.2026 4.13794Z" fill="#FF4B55"/>
<path d="M11.8816 10.582L12.5302 11.4305L13.543 11.0915C13.5996 11.0725 13.6478 11.1366 13.6139 11.1857L13.0074 12.0648L13.6428 12.9232C13.6783 12.9712 13.6323 13.0368 13.5751 13.0197L12.5516 12.7145L11.9316 13.5841C11.8969 13.6327 11.8203 13.6092 11.8188 13.5495L11.7928 12.4818L10.7742 12.1608C10.7172 12.1428 10.7159 12.0627 10.7722 12.0429L11.7796 11.6883L11.7701 10.6203C11.7695 10.5606 11.8454 10.5346 11.8816 10.582Z" fill="#F5F5F5"/>
<path d="M8.29472 15.3122C6.46683 15.3122 4.98408 13.8294 4.98408 11.9998C4.98408 10.1737 6.46688 8.68756 8.29472 8.68756C8.97478 8.68756 9.60192 8.89672 10.1246 9.25072C10.2046 9.30491 10.296 9.19977 10.229 9.13011C9.44794 8.318 8.34239 7.82258 7.11661 7.86439C5.0107 7.93625 3.26733 9.62469 3.13275 11.7275C2.97863 14.1361 4.88578 16.1378 7.26028 16.1378C8.42996 16.1378 9.48117 15.6488 10.2318 14.867C10.2982 14.7979 10.2066 14.6944 10.1273 14.7481C9.60413 15.1028 8.97595 15.3122 8.29472 15.3122Z" fill="#F5F5F5"/>
</svg>
