<svg width="24" height="24" viewBox="0 0 24 24" fill="none" xmlns="http://www.w3.org/2000/svg">
<path d="M22.2026 19.8621H1.79742C0.804703 19.8621 0 19.0574 0 18.0646V5.93536C0 4.94269 0.804703 4.13794 1.79742 4.13794H22.2026C23.1952 4.13794 24 4.94264 24 5.93536V18.0647C24 19.0574 23.1953 19.8621 22.2026 19.8621Z" fill="#FF4B55"/>
<path d="M12.0593 12.0178L11.9447 12.084C11.7461 11.7981 11.757 11.0987 11.757 11.0907C11.7591 11.07 11.7466 11.0513 11.728 11.0431L10.8689 10.6671L10.8738 10.5789C11.3218 10.6306 11.8397 10.839 11.8469 10.8425C11.8645 10.8537 11.8868 10.8509 11.9025 10.8379L12.6154 10.2435L12.7688 10.3806C12.5466 10.6536 12.0058 11.0307 11.9988 11.0346C11.9796 11.0429 11.9693 11.0628 11.9712 11.0832L12.0593 12.0178Z" fill="#FFE15A"/>
<path d="M15.1765 7.78315C15.194 7.79211 15.215 7.79037 15.2309 7.77865L15.4172 7.64075L15.358 7.81268C15.3514 7.83223 15.3571 7.85408 15.3725 7.86823L15.4602 7.94661C15.4341 7.99062 15.4238 8.04476 15.4228 8.10125L15.2928 8.16725C15.2818 8.17287 15.2731 8.18225 15.2683 8.19368L15.1714 8.42839L15.1183 8.23376C15.1115 8.20812 15.0871 8.19247 15.0613 8.19598L14.8274 8.22795L15.0173 8.01289C15.0274 8.00136 15.0319 7.98598 15.0297 7.97093L14.9873 7.68692L15.1765 7.78315Z" fill="#FFE15A"/>
<path d="M13.0578 15.4474C13.0414 15.4583 13.0327 15.4775 13.0353 15.497L13.0654 15.7268L12.9438 15.5916C12.9299 15.5763 12.9081 15.5707 12.8882 15.5773L12.7771 15.6159C12.7513 15.5718 12.709 15.5365 12.6601 15.5082L12.6655 15.3626C12.6659 15.3502 12.6619 15.338 12.6543 15.3283L12.4961 15.1297L12.692 15.1777C12.7177 15.1841 12.7433 15.1704 12.7527 15.1462L12.8382 14.9261L12.9341 15.1965C12.9393 15.211 12.9505 15.2224 12.9648 15.2277L13.2337 15.3286L13.0578 15.4474Z" fill="#FFE15A"/>
<path d="M7.36825 10.0593C7.36576 10.0399 7.3524 10.0235 7.33379 10.017L7.11475 9.94133L7.29006 9.89295C7.30993 9.88738 7.3247 9.87031 7.32765 9.8496L7.3427 9.73297C7.3937 9.72959 7.44423 9.70747 7.49139 9.67639L7.61931 9.74633C7.63018 9.75224 7.64279 9.75411 7.65493 9.75153L7.90337 9.69884L7.77287 9.85269C7.75557 9.8728 7.75647 9.90177 7.77395 9.92103L7.93257 10.0959L7.64786 10.0609C7.63257 10.059 7.61743 10.064 7.60623 10.0744L7.39586 10.2699L7.36825 10.0593Z" fill="#FFE15A"/>
<path d="M11.9249 17.0927C11.7984 17.3477 11.5247 17.5592 11.4562 17.5717C11.4437 17.5738 11.4334 17.5697 11.423 17.5592C11.3919 17.5239 11.3774 17.4286 11.4189 17.3021C11.423 17.2896 11.4273 17.2731 11.4334 17.2544L11.9249 17.0927Z" fill="#F5F5F5"/>
<path d="M12.016 16.8292C11.9994 16.879 11.9849 16.9287 11.9745 16.9661L11.4685 17.1341C11.483 17.0885 11.4975 17.0387 11.5121 16.9848L12.016 16.8292Z" fill="#F5F5F5"/>
<path d="M12.1282 16.545C12.1033 16.6011 12.0805 16.655 12.0598 16.7068L11.5454 16.8644C11.5599 16.8084 11.5765 16.7504 11.591 16.6923L12.1282 16.545Z" fill="#FFE15A"/>
<path d="M12.2298 16.3398C12.2153 16.3667 12.2008 16.3937 12.1863 16.4228L11.6201 16.5762C11.645 16.4788 11.6657 16.3833 11.6823 16.3004L12.2298 16.3398Z" fill="#F5F5F5"/>
<path d="M12.3895 16.1241C12.3564 16.1552 12.3252 16.1946 12.2941 16.2402L11.699 16.1967C11.7073 16.1427 11.7135 16.095 11.7135 16.0598C11.7135 16.0328 11.7114 16.0079 11.7093 15.9809C11.7322 15.983 11.757 15.983 11.7778 15.983C11.9271 15.983 12.0329 15.956 12.1096 15.9166C12.1946 16.0411 12.3045 16.0971 12.3895 16.1241Z" fill="#F5F5F5"/>
<path d="M12.5098 16.039C12.4724 16.0349 12.3066 16.0183 12.1945 15.8566C12.2505 15.8089 12.2775 15.757 12.2899 15.7217C12.3521 15.5476 11.9187 15.2759 11.6532 15.1307C11.5288 15.0623 11.4313 14.9275 11.3442 14.7719C11.3546 14.774 11.3629 14.774 11.3733 14.774C11.506 14.774 11.6118 14.7118 11.6677 14.6641C11.7175 14.747 11.7631 14.8237 11.8046 14.8901C11.9933 15.2095 12.0805 15.3546 12.2816 15.4957C12.2878 15.4998 12.2961 15.504 12.3044 15.504C12.4019 15.5164 12.6839 15.5786 12.7005 15.703C12.7234 15.8731 12.6611 15.981 12.5098 16.039Z" fill="#F5F5F5"/>
<path d="M12.1925 15.6864C12.1697 15.7528 12.0744 15.9021 11.6969 15.8773C11.6637 15.6616 11.5683 15.5081 11.4169 15.4376C11.2199 15.3443 10.4836 14.8176 10.1477 14.5043C10.2141 14.2928 10.3883 14.1207 10.6351 14.0294C10.6704 14.0149 10.7014 14.0024 10.7284 13.9879C10.7948 14.0419 10.8549 14.102 10.9047 14.1704C10.9815 14.2783 11.0478 14.4151 11.1183 14.5603C11.2489 14.8258 11.3838 15.1016 11.6036 15.2219C12.01 15.4459 12.2112 15.6388 12.1925 15.6864Z" fill="#F5F5F5"/>
<path d="M11.6117 14.5749C11.5723 14.6144 11.4417 14.7035 11.2841 14.6579C11.2592 14.6102 11.2364 14.5625 11.2115 14.5148C11.139 14.3655 11.0705 14.2245 10.9876 14.1104C10.9399 14.042 10.8797 13.9818 10.8154 13.9279C10.9088 13.847 10.9233 13.7599 10.9274 13.6853C11.0912 13.8263 11.2448 14.0026 11.3858 14.2203C11.4748 14.3551 11.5474 14.4712 11.6117 14.5749Z" fill="#F5F5F5"/>
<path d="M10.83 13.6085C10.8279 13.6251 10.8259 13.6438 10.8259 13.6624C10.8218 13.7329 10.8155 13.8014 10.7326 13.8636C10.5584 13.7391 10.3572 13.6541 10.1851 13.5981C10.2639 13.5172 10.3157 13.4363 10.3406 13.3575C10.3406 13.3575 10.3406 13.3575 10.3427 13.3575C10.5127 13.4052 10.6765 13.4902 10.83 13.6085Z" fill="#F5F5F5"/>
<path d="M10.6308 13.9175C10.6204 13.9216 10.6121 13.9278 10.5996 13.9319C10.3404 14.0273 10.1496 14.2036 10.0646 14.4214C9.96299 14.3198 9.89042 14.2285 9.8323 14.156C9.76799 14.073 9.71413 14.0087 9.64771 13.9631C9.83431 13.8677 9.98366 13.7722 10.0978 13.679C10.0998 13.679 10.0998 13.679 10.1019 13.679C10.2637 13.7287 10.4607 13.8034 10.6308 13.9175Z" fill="#F5F5F5"/>
<path d="M10.0004 13.6229C9.89254 13.708 9.74118 13.8034 9.52752 13.9071C9.47774 13.8946 9.42801 13.8842 9.38652 13.876C9.2849 13.8573 9.21852 13.8428 9.16668 13.7847C9.13555 13.7515 9.07541 13.6582 9.01733 13.54C9.02568 13.5442 9.03393 13.5483 9.04222 13.5504C9.10237 13.5649 9.18735 13.5379 9.29315 13.5006C9.42379 13.4571 9.58349 13.4031 9.72866 13.4218C9.8593 13.4384 9.8946 13.4902 9.93604 13.5483C9.95479 13.5732 9.97344 13.6001 10.0004 13.6229Z" fill="#F5F5F5"/>
<path d="M10.2471 13.312C10.2305 13.3763 10.1849 13.4571 10.0812 13.5546C10.0563 13.538 10.0397 13.5152 10.021 13.4882C9.97541 13.4239 9.91733 13.343 9.7431 13.3202C9.5751 13.2974 9.40091 13.3555 9.25991 13.4032C9.18107 13.4301 9.0981 13.4592 9.06496 13.4508C9.02966 13.4425 8.98405 13.3865 8.98199 13.3305C8.97992 13.2662 9.038 13.2372 9.08567 13.2227C9.19353 13.1895 9.32417 13.2144 9.45275 13.2372C9.58339 13.2621 9.70785 13.2849 9.80736 13.2455C9.8758 13.2185 9.95464 13.1335 10.05 13.0111C10.1164 13.0256 10.1723 13.0485 10.2055 13.0961C10.2533 13.1647 10.2658 13.2373 10.2471 13.312Z" fill="#FFE15A"/>
<path d="M9.92997 12.9966C9.86566 13.0755 9.80965 13.1335 9.76825 13.1501C9.69775 13.1791 9.58783 13.1584 9.47168 13.1356C9.33897 13.1107 9.18757 13.0837 9.05688 13.1231C8.97804 13.1459 8.93454 13.1853 8.9096 13.2226C8.88677 13.1086 8.88677 12.9987 8.93861 12.9116C8.99046 12.8203 9.0589 12.7436 9.12944 12.6669C9.22277 12.6793 9.29116 12.698 9.5276 12.9054C9.6085 12.9759 9.73915 12.9842 9.86566 12.9904C9.88638 12.9925 9.90921 12.9946 9.92997 12.9966Z" fill="#F5F5F5"/>
<path d="M11.8566 12.1401C11.6243 12.2936 10.5895 12.9738 10.3737 13.063C10.3634 13.0671 10.3551 13.0754 10.3489 13.0837C10.3427 13.094 10.3385 13.1023 10.3323 13.1127C10.3219 13.0858 10.3074 13.0609 10.2908 13.036C10.2493 12.9759 10.1871 12.9427 10.1187 12.922C10.1498 12.8825 10.1809 12.8411 10.214 12.7955C10.3634 12.5901 10.5355 12.3599 10.7325 12.1546C11.0706 11.8021 11.5227 11.5698 11.6741 11.4993C11.6969 11.7191 11.7467 11.9784 11.8566 12.1401Z" fill="#F5F5F5"/>
<path d="M11.6637 11.3894C11.5559 11.4371 11.0437 11.6798 10.6579 12.0821C10.4547 12.2937 10.2742 12.5363 10.1311 12.7333C10.0875 12.7914 10.0461 12.8473 10.0066 12.8992C9.96103 12.8951 9.91542 12.8909 9.87182 12.8889C9.75778 12.8806 9.64992 12.8743 9.59597 12.8267C9.39689 12.6525 9.30351 12.6006 9.21436 12.5778C9.2227 12.5695 9.22889 12.5612 9.23718 12.5529C9.36782 12.4202 9.5047 12.2813 9.61256 12.0884C9.79917 11.7545 10.4234 11.0265 10.8299 10.7632L11.6533 11.1241C11.6533 11.1738 11.6555 11.2713 11.6637 11.3894Z" fill="#F5F5F5"/>
<path d="M6.40253 8.31077C6.23087 8.08362 6.16398 7.7442 6.18344 7.6774C6.18714 7.66535 6.19548 7.6579 6.20941 7.65331C6.25487 7.64126 6.3467 7.67088 6.44134 7.76449C6.45062 7.77377 6.46356 7.78488 6.47748 7.79881L6.40253 8.31077Z" fill="#F5F5F5"/>
<path d="M6.59733 8.51005C6.56025 8.47297 6.52219 8.43772 6.49341 8.41175L6.5693 7.88403C6.60366 7.91741 6.64167 7.95261 6.68339 7.98969L6.59733 8.51005Z" fill="#F5F5F5"/>
<path d="M6.80135 8.73727C6.76235 8.68998 6.72433 8.64549 6.68726 8.60377L6.77613 8.07324C6.81972 8.11126 6.86426 8.15209 6.90972 8.19095L6.80135 8.73727Z" fill="#FFE15A"/>
<path d="M6.93971 8.92002C6.92209 8.89498 6.90442 8.86995 6.88501 8.84398L7.0007 8.26892C7.07678 8.33473 7.15285 8.39591 7.21965 8.44784L6.93971 8.92002Z" fill="#F5F5F5"/>
<path d="M7.06131 9.15911C7.04833 9.11552 7.02695 9.0701 7 9.02191L7.30492 8.50891C7.34945 8.54041 7.38934 8.56732 7.42089 8.58307C7.44498 8.59511 7.46823 8.6044 7.49327 8.61457C7.48122 8.63407 7.47011 8.65629 7.46083 8.6749C7.39412 8.80849 7.37092 8.91518 7.37191 9.00143C7.22261 9.02182 7.12342 9.09513 7.06131 9.15911Z" fill="#F5F5F5"/>
<path d="M7.08373 9.30476C7.10412 9.27321 7.19309 9.13221 7.38785 9.10432C7.40548 9.17576 7.43984 9.22301 7.46581 9.24992C7.59382 9.38342 8.0306 9.11707 8.27909 8.94448C8.39595 8.86376 8.56006 8.83681 8.73813 8.82837C8.73167 8.83671 8.72796 8.84417 8.72327 8.8534C8.66393 8.97209 8.67237 9.09453 8.68999 9.16596C8.59352 9.17342 8.50451 9.17993 8.4266 9.18738C8.05657 9.21349 7.88773 9.22653 7.67168 9.34348C7.66516 9.34718 7.65776 9.35276 7.6541 9.36017C7.59945 9.44178 7.41771 9.66631 7.29898 9.62557C7.1367 9.56998 7.06802 9.46615 7.08373 9.30476Z" fill="#F5F5F5"/>
<path d="M7.54082 9.1785C7.49165 9.12844 7.40071 8.97638 7.59163 8.64985C7.79943 8.7165 7.97929 8.69977 8.11007 8.59585C8.28159 8.46132 9.08188 8.03804 9.5121 7.87744C9.67167 8.03133 9.74779 8.26411 9.71915 8.52563C9.71643 8.56364 9.71362 8.59707 9.71456 8.62763C9.63665 8.66293 9.55598 8.68983 9.47249 8.70375C9.34171 8.72419 9.1896 8.72241 9.02821 8.72063C8.73234 8.71885 8.42535 8.71622 8.21953 8.85914C7.83754 9.12277 7.57509 9.21652 7.54082 9.1785Z" fill="#F5F5F5"/>
<path d="M8.79478 9.15578C8.77715 9.1029 8.75573 8.9462 8.86697 8.82559C8.92078 8.82461 8.97361 8.82554 9.02742 8.82461C9.19345 8.82643 9.3502 8.82817 9.48932 8.80497C9.57187 8.79287 9.6525 8.76597 9.72951 8.73254C9.76017 8.85217 9.83161 8.90406 9.89653 8.94114C9.69712 9.02467 9.4709 9.08322 9.21304 9.11204C9.05259 9.13159 8.91628 9.14462 8.79478 9.15578Z" fill="#F5F5F5"/>
<path d="M10.0087 8.88819C9.99474 8.87891 9.97899 8.86873 9.96226 8.86034C9.90104 8.82514 9.84258 8.78895 9.82397 8.68695C10.0131 8.58673 10.1791 8.44475 10.3061 8.3158C10.3433 8.42244 10.3925 8.50494 10.4518 8.56245C10.4518 8.56245 10.4518 8.56245 10.4509 8.56433C10.3323 8.69516 10.183 8.80372 10.0087 8.88819Z" fill="#F5F5F5"/>
<path d="M9.82139 8.57205C9.82233 8.56094 9.82046 8.55073 9.82233 8.53774C9.85285 8.26319 9.78038 8.01373 9.62354 7.84033C9.75989 7.79482 9.87394 7.77068 9.96483 7.75118C10.0678 7.73074 10.1494 7.71124 10.2198 7.67224C10.2218 7.88182 10.2404 8.05807 10.2729 8.20179C10.272 8.20366 10.272 8.20366 10.271 8.20549C10.1542 8.32802 9.99943 8.4709 9.82139 8.57205Z" fill="#F5F5F5"/>
<path d="M10.3664 8.13958C10.3385 8.0051 10.3208 7.82707 10.3235 7.5896C10.3569 7.55065 10.3884 7.51071 10.4144 7.47738C10.4765 7.39483 10.5191 7.34191 10.5942 7.32147C10.6378 7.30849 10.7481 7.2964 10.8799 7.29729C10.8725 7.30287 10.865 7.3084 10.8595 7.31491C10.8196 7.36226 10.8058 7.45033 10.7919 7.56162C10.7725 7.69797 10.7493 7.86494 10.6678 7.98644C10.5945 8.0959 10.5324 8.10429 10.4619 8.11544C10.4313 8.12102 10.3989 8.12566 10.3664 8.13958Z" fill="#F5F5F5"/>
<path d="M10.5345 8.49941C10.4844 8.45586 10.4325 8.37889 10.3916 8.24253C10.4176 8.22767 10.4454 8.22303 10.4778 8.21839C10.5557 8.2063 10.654 8.1905 10.7523 8.04486C10.8477 7.9048 10.8737 7.72297 10.894 7.5755C10.9051 7.49295 10.9161 7.40572 10.9384 7.3798C10.9616 7.35195 11.0321 7.33616 11.0831 7.35931C11.1415 7.38622 11.1415 7.45114 11.1332 7.50027C11.1146 7.6116 11.034 7.71734 10.9561 7.82216C10.8755 7.92795 10.7995 8.02906 10.7902 8.1357C10.7838 8.20902 10.8246 8.31749 10.8914 8.4575C10.8488 8.51038 10.8034 8.55031 10.7459 8.55866C10.6635 8.57075 10.593 8.54947 10.5345 8.49941Z" fill="#FFE15A"/>
<path d="M10.9584 8.35639C10.9166 8.26367 10.8897 8.18759 10.8934 8.14306C10.8989 8.06698 10.9666 7.97797 11.0389 7.88422C11.1205 7.77664 11.2122 7.65322 11.2354 7.51873C11.2502 7.43806 11.2344 7.38144 11.2121 7.34253C11.3243 7.37309 11.4227 7.42222 11.4774 7.50753C11.5359 7.59467 11.5739 7.6902 11.6111 7.78756C11.5582 7.86551 11.5109 7.91839 11.2197 8.03717C11.1206 8.07804 11.0547 8.1912 10.9926 8.30159C10.9816 8.31926 10.9695 8.33876 10.9584 8.35639Z" fill="#F5F5F5"/>
<path d="M10.8636 10.4626C10.8301 10.1863 10.684 8.95649 10.7006 8.72371C10.7015 8.7126 10.6978 8.70149 10.6931 8.69216C10.6866 8.68199 10.6811 8.67458 10.6746 8.66432C10.7033 8.66713 10.7321 8.66525 10.7617 8.6615C10.8341 8.65128 10.8916 8.61046 10.9407 8.55847C10.9621 8.60394 10.9852 8.6503 11.0113 8.70036C11.1282 8.92569 11.2572 9.18252 11.3528 9.45055C11.5172 9.91053 11.5229 10.4188 11.5184 10.5857C11.3152 10.5411 11.08 10.4908 10.8636 10.4626Z" fill="#F5F5F5"/>
<path d="M11.6214 10.6257C11.6269 10.5079 11.6387 9.94119 11.4512 9.41629C11.3528 9.13991 11.2164 8.8701 11.104 8.654C11.0716 8.58908 11.04 8.52697 11.0112 8.46852C11.0353 8.42957 11.0594 8.39057 11.0807 8.35255C11.1392 8.25421 11.1929 8.16051 11.2597 8.1336C11.5045 8.03338 11.5926 7.973 11.6528 7.90344C11.6565 7.91455 11.6612 7.92383 11.6649 7.93499C11.7252 8.11115 11.7883 8.29569 11.9127 8.47841C12.128 8.79458 12.5002 9.67832 12.5542 10.1596L11.8635 10.7349C11.8189 10.7128 11.7308 10.6711 11.6214 10.6257Z" fill="#F5F5F5"/>
<path d="M17.1648 7.97501C17.4492 7.96184 17.767 8.09853 17.8112 8.15234C17.819 8.16223 17.8204 8.17329 17.8164 8.1874C17.8007 8.23174 17.7243 8.29071 17.5935 8.31584C17.5806 8.31828 17.5641 8.32268 17.5448 8.32629L17.1648 7.97501Z" fill="#F5F5F5"/>
<path d="M16.8901 8.02306C16.9417 8.01345 16.9923 8.00197 17.03 7.99292L17.4224 8.35386C17.3755 8.36333 17.3249 8.37476 17.2708 8.38826L16.8901 8.02306Z" fill="#F5F5F5"/>
<path d="M16.5874 8.06297C16.6484 8.05753 16.7066 8.05134 16.762 8.04431L17.1494 8.41748C17.0934 8.43197 17.0346 8.44561 16.9768 8.46112L16.5874 8.06297Z" fill="#FFE15A"/>
<path d="M16.3586 8.07381C16.3893 8.07339 16.4199 8.07301 16.4523 8.07166L16.8612 8.49217C16.7639 8.51772 16.6705 8.54589 16.5899 8.57162L16.3586 8.07381Z" fill="#F5F5F5"/>
<path d="M16.0925 8.03882C16.1358 8.05274 16.1854 8.0608 16.2403 8.06587L16.4912 8.60741C16.44 8.62635 16.3953 8.64402 16.3645 8.66113C16.3409 8.67421 16.3201 8.68808 16.2976 8.70299C16.2883 8.68204 16.2762 8.66029 16.2662 8.64215C16.1937 8.5116 16.1188 8.43219 16.0471 8.38424C16.1146 8.24952 16.1102 8.12624 16.0925 8.03882Z" fill="#F5F5F5"/>
<path d="M15.9598 7.97492C15.9742 8.00956 16.0402 8.16271 15.9532 8.3391C15.8843 8.31327 15.8259 8.31491 15.789 8.3211C15.6066 8.35124 15.5794 8.86208 15.5812 9.16461C15.5818 9.3066 15.5113 9.45725 15.4176 9.60894C15.4144 9.59886 15.4103 9.5916 15.4053 9.58255C15.3409 9.46653 15.2351 9.40419 15.1663 9.37841C15.2146 9.2946 15.2596 9.21749 15.2975 9.149C15.4851 8.82899 15.5698 8.68241 15.5954 8.43805C15.5961 8.4306 15.5956 8.42136 15.5916 8.4141C15.5552 8.32288 15.4727 8.04603 15.5735 7.97113C15.711 7.86861 15.8355 7.87077 15.9598 7.97492Z" fill="#F5F5F5"/>
<path d="M15.8055 8.42348C15.8746 8.4112 16.0515 8.42212 16.2129 8.76426C16.0405 8.89795 15.9525 9.05582 15.9644 9.22242C15.9784 9.43997 15.8752 10.3394 15.7644 10.785C15.5472 10.8297 15.3122 10.7609 15.1126 10.5894C15.0828 10.5656 15.0568 10.5445 15.031 10.528C15.046 10.4438 15.0694 10.362 15.105 10.2853C15.1621 10.1659 15.2495 10.0414 15.3422 9.90933C15.5109 9.66628 15.6866 9.41451 15.6851 9.16392C15.6837 8.69981 15.7548 8.43033 15.8055 8.42348Z" fill="#F5F5F5"/>
<path d="M15.1154 9.47058C15.169 9.48591 15.3104 9.55688 15.347 9.71677C15.3173 9.76167 15.2867 9.80475 15.2571 9.84971C15.1617 9.98564 15.0716 10.1139 15.0122 10.2418C14.9755 10.3167 14.9521 10.3985 14.9362 10.4809C14.8201 10.4385 14.737 10.4681 14.6697 10.5008C14.7135 10.2891 14.7931 10.0693 14.9151 9.84033C14.9896 9.69694 15.0559 9.57713 15.1154 9.47058Z" fill="#F5F5F5"/>
<path d="M14.6498 10.6233C14.6654 10.617 14.6827 10.6098 14.699 10.6008C14.7626 10.5702 14.8255 10.5424 14.9201 10.5847C14.8958 10.7974 14.9191 11.0146 14.9537 11.1923C14.8448 11.1627 14.7489 11.1566 14.6679 11.1731C14.6679 11.1731 14.6679 11.1731 14.6669 11.1712C14.6261 10.9994 14.621 10.8149 14.6498 10.6233Z" fill="#F5F5F5"/>
<path d="M15.0167 10.6473C15.0253 10.6544 15.0348 10.6586 15.0445 10.6675C15.2537 10.8479 15.5004 10.9291 15.7321 10.8978C15.6926 11.0359 15.648 11.1437 15.6127 11.2297C15.5713 11.3262 15.5413 11.4046 15.5337 11.4847C15.3597 11.3678 15.2038 11.2836 15.0668 11.2292C15.0658 11.2273 15.0658 11.2273 15.0648 11.2255C15.0298 11.0599 14.9995 10.8514 15.0167 10.6473Z" fill="#F5F5F5"/>
<path d="M15.0652 11.3416C15.1919 11.3946 15.3488 11.4806 15.5431 11.6171C15.5564 11.6666 15.5715 11.7152 15.5843 11.7555C15.6173 11.8534 15.6368 11.9185 15.6112 11.992C15.5973 12.0353 15.5449 12.1331 15.4697 12.2413C15.4693 12.232 15.4689 12.2228 15.4667 12.2145C15.4502 12.1549 15.3854 12.0936 15.3014 12.0193C15.1999 11.9262 15.0753 11.8127 15.0211 11.6767C14.9722 11.5544 15.0004 11.4984 15.0311 11.434C15.0439 11.4056 15.0583 11.3761 15.0652 11.3416Z" fill="#F5F5F5"/>
<path d="M14.6735 11.2768C14.7377 11.2602 14.8306 11.2608 14.9661 11.3042C14.9637 11.334 14.9518 11.3596 14.9373 11.389C14.9032 11.46 14.8607 11.5501 14.9253 11.7135C14.9868 11.8715 15.1222 11.9955 15.2323 12.0957C15.2941 12.1515 15.3598 12.21 15.3687 12.243C15.3785 12.2779 15.3517 12.3449 15.3037 12.374C15.2486 12.407 15.1949 12.3703 15.1591 12.3356C15.0778 12.2574 15.0361 12.1311 14.9937 12.0076C14.952 11.8813 14.9116 11.7615 14.8288 11.6936C14.772 11.6468 14.6594 11.6192 14.5062 11.5951C14.4866 11.5301 14.4794 11.4701 14.505 11.4178C14.5417 11.3428 14.5991 11.2967 14.6735 11.2768Z" fill="#FFE15A"/>
<path d="M14.5518 11.7072C14.6518 11.7251 14.7298 11.7459 14.7644 11.7741C14.824 11.8217 14.8593 11.9278 14.8956 12.0404C14.9383 12.1685 14.9882 12.314 15.086 12.4091C15.1442 12.4669 15.1999 12.4859 15.2445 12.4895C15.1559 12.5649 15.0598 12.6182 14.9584 12.6151C14.8535 12.6141 14.7532 12.5915 14.6519 12.5671C14.6175 12.4795 14.6006 12.4106 14.6672 12.1032C14.6896 11.9982 14.6334 11.88 14.5775 11.7663C14.5692 11.7473 14.56 11.7263 14.5518 11.7072Z" fill="#F5F5F5"/>
<path d="M12.8677 10.4384C13.1147 10.5669 14.2117 11.1417 14.3943 11.2869C14.4029 11.294 14.4142 11.2972 14.4245 11.2986C14.4366 11.299 14.4458 11.2986 14.4579 11.299C14.4394 11.3212 14.4247 11.3459 14.411 11.3725C14.3785 11.438 14.3797 11.5085 14.3948 11.5784C14.3452 11.5703 14.2939 11.5633 14.2379 11.5564C13.9859 11.5254 13.701 11.4867 13.4259 11.4141C12.9536 11.2896 12.5311 11.007 12.396 10.9089C12.5451 10.7756 12.7423 10.6028 12.8677 10.4384Z" fill="#F5F5F5"/>
<path d="M12.305 10.9713C12.3991 11.0424 12.8598 11.3726 13.3988 11.5146C13.6824 11.5896 13.9821 11.6296 14.2238 11.6591C14.2957 11.669 14.3648 11.6781 14.4292 11.6874C14.4477 11.7293 14.4663 11.7712 14.4856 11.8103C14.5337 11.9141 14.5806 12.0114 14.5651 12.0817C14.5094 12.3403 14.5094 12.4471 14.5327 12.5361C14.5214 12.5329 14.5111 12.5315 14.4998 12.5283C14.3203 12.4784 14.1324 12.4262 13.9114 12.4255C13.5289 12.4243 12.5895 12.2318 12.1619 12.0043L12.0779 11.1093C12.1215 11.085 12.2057 11.0359 12.305 10.9713Z" fill="#F5F5F5"/>
<path d="M17.9057 8.10925C17.9007 8.1002 17.8967 8.09293 17.8908 8.0867C17.8105 7.98901 17.3404 7.80873 17.007 7.89179C16.647 7.9825 16.1569 8.00546 16.0355 7.90211C15.8799 7.76448 15.7071 7.75904 15.5363 7.87553L15.4673 7.81393L15.5696 7.51665C15.5744 7.50236 15.5728 7.48717 15.5658 7.47461C15.5622 7.46823 15.5574 7.46251 15.5511 7.45797C15.5327 7.44451 15.5079 7.44456 15.4896 7.45806L15.1949 7.67617L14.9447 7.54904C14.9274 7.54023 14.9066 7.54182 14.891 7.55317C14.8753 7.56446 14.8671 7.58368 14.87 7.60281L14.9236 7.96234L14.6574 8.26384C14.6431 8.28015 14.6403 8.30354 14.6506 8.32267C14.6609 8.33514 14.6818 8.35248 14.7032 8.34957L15.0302 8.30486L15.1113 8.60223C15.1174 8.62422 15.136 8.63903 15.1581 8.64034C15.1802 8.64175 15.2008 8.62895 15.2093 8.60842L15.357 8.25104L15.4319 8.21303C15.4472 8.31264 15.4783 8.40334 15.4915 8.43882C15.4665 8.65436 15.3835 8.79531 15.2099 9.09798C15.1088 9.27039 14.9852 9.48362 14.8239 9.7914C14.5554 10.3033 14.469 10.7759 14.5669 11.1959C14.5374 11.1981 14.4928 11.1991 14.4463 11.1965C14.1988 11.0113 12.9207 10.3497 12.8666 10.3205C12.8636 10.3189 12.6557 10.1404 12.6557 10.1404C12.5981 9.63643 12.2222 8.75082 11.9999 8.41993C11.8821 8.24743 11.8217 8.07128 11.7632 7.90061C11.7076 7.74296 11.6574 7.59273 11.5655 7.45178C11.3614 7.1365 10.7224 7.18126 10.5684 7.22031C10.459 7.24914 10.3996 7.32611 10.332 7.41517C10.3051 7.45046 10.2745 7.48848 10.2365 7.53207C10.1734 7.60257 10.0854 7.62118 9.94342 7.65001C9.83214 7.67322 9.69208 7.70298 9.5094 7.76701C9.08097 7.91922 8.22789 8.37404 8.04611 8.51509C7.86714 8.6552 7.60651 8.55976 7.46739 8.49025C7.27075 8.39204 6.67694 7.84965 6.5155 7.69023C6.40319 7.58082 6.27615 7.52893 6.1825 7.55406C6.14261 7.56423 6.11106 7.59025 6.09442 7.62362C6.08978 7.6329 6.08608 7.64031 6.08425 7.64865C6.04905 7.77015 6.16609 8.25981 6.42311 8.48786C6.70145 8.73353 6.99747 9.12479 6.98078 9.28342C6.95519 9.48953 7.04842 9.63521 7.24112 9.71031L7.22931 9.802L6.92631 9.88562C6.91183 9.8897 6.9002 9.89964 6.89378 9.91248C6.8905 9.919 6.88858 9.92631 6.88834 9.934C6.88764 9.95678 6.90175 9.97722 6.92326 9.98467L7.26976 10.1045L7.30633 10.3828C7.30881 10.402 7.32189 10.4183 7.34012 10.4248C7.35831 10.4314 7.37875 10.4272 7.39295 10.414L7.6593 10.1666L8.05844 10.2157C8.08 10.2183 8.10086 10.2073 8.11084 10.1881C8.11534 10.1725 8.11778 10.1455 8.10325 10.1294L7.88144 9.88497L8.08089 9.64998C8.09561 9.63254 8.0973 9.60882 8.0859 9.58989C8.07456 9.57086 8.05239 9.56111 8.03069 9.5657L7.65236 9.6459L7.57872 9.60559C7.65226 9.53664 7.70941 9.45976 7.73125 9.42873C7.9232 9.32757 8.08642 9.31637 8.43423 9.28839C8.63364 9.27442 8.8794 9.25576 9.2244 9.21484C9.79848 9.14692 10.2371 8.95103 10.5282 8.63284C10.5468 8.656 10.5728 8.69218 10.5969 8.73203C10.584 9.04089 10.7608 10.4691 10.7673 10.5303C10.7677 10.5335 10.7642 10.6847 10.7642 10.6847C10.3392 10.9627 9.71781 11.6904 9.52155 12.0364C9.41992 12.2189 9.28923 12.3516 9.16272 12.4802C9.04661 12.6006 8.93462 12.7126 8.84959 12.8577C8.65876 13.1812 8.98441 13.7328 9.08809 13.8532C9.16272 13.9382 9.25815 13.9569 9.36808 13.9776C9.41162 13.9859 9.45934 13.9963 9.51536 14.0108C9.60658 14.0357 9.66264 14.1062 9.7518 14.2202C9.8223 14.3094 9.91145 14.4214 10.0504 14.5562C10.3781 14.8715 11.1662 15.4314 11.3736 15.5309C11.5789 15.6284 11.61 15.9042 11.61 16.0598C11.61 16.2796 11.3902 17.0532 11.3197 17.2688C11.272 17.4182 11.2823 17.555 11.3466 17.6276C11.3736 17.6587 11.4109 17.6753 11.4482 17.6753C11.4586 17.6753 11.4669 17.6753 11.4752 17.6732C11.5997 17.6504 11.9853 17.3268 12.0746 16.9951C12.17 16.6363 12.3877 16.1966 12.5371 16.1406C12.7329 16.0714 12.8215 15.9229 12.8026 15.717L12.8899 15.6866L13.1001 15.9204C13.1102 15.9315 13.1243 15.9375 13.1387 15.9375C13.146 15.9375 13.1534 15.936 13.1604 15.9327C13.181 15.9232 13.193 15.9014 13.1902 15.8788L13.1425 15.5153L13.3751 15.3582C13.3912 15.3474 13.3999 15.3284 13.3976 15.3092C13.3954 15.2899 13.3825 15.2736 13.3644 15.2668L13.024 15.1391L12.8896 14.7601C12.8822 14.7396 12.8631 14.7258 12.8415 14.7255C12.8256 14.7285 12.8003 14.7384 12.7923 14.7585L12.6727 15.0663L12.3733 14.9929C12.3512 14.9875 12.3292 14.9966 12.3173 15.0153C12.3054 15.0339 12.3066 15.0581 12.3204 15.0756L12.5612 15.3782L12.5581 15.4621C12.4636 15.4271 12.3692 15.4103 12.3317 15.4046C12.1554 15.2781 12.0725 15.1371 11.8921 14.8385C11.7904 14.6664 11.6639 14.4548 11.4731 14.1645C11.1558 13.6813 10.7846 13.3764 10.3698 13.2581C10.3823 13.2312 10.403 13.1918 10.4279 13.1523C10.7099 13.0258 11.9087 12.2295 11.9605 12.1963C11.9612 12.1958 11.9611 12.1946 11.9618 12.1941L12.1239 12.1005C12.5734 12.3371 13.513 12.5268 13.9107 12.5305C14.1196 12.5309 14.2991 12.5807 14.4729 12.6289C14.6344 12.672 14.7867 12.7156 14.9549 12.7195C15.3303 12.7293 15.6547 12.1769 15.7095 12.0279C15.7476 11.9213 15.7176 11.8288 15.6824 11.7227C15.6685 11.6806 15.6544 11.6338 15.64 11.5778C15.6174 11.4859 15.6519 11.4028 15.7083 11.2694C15.7521 11.1645 15.8067 11.0321 15.8572 10.8453C15.9737 10.4058 16.0809 9.445 16.0673 9.21536C16.0528 8.98853 16.2789 8.82746 16.4149 8.752C16.6071 8.64531 17.3902 8.46207 17.6129 8.41904C17.7666 8.38825 17.8813 8.31282 17.9135 8.22137C17.9275 8.18261 17.9239 8.14192 17.9057 8.10925ZM15.4228 8.10137L15.2928 8.16737C15.2818 8.173 15.2731 8.18237 15.2683 8.19381L15.1714 8.42851L15.1183 8.23389C15.1114 8.20825 15.0871 8.19259 15.0613 8.19611L14.8274 8.22807L15.0173 8.01301C15.0274 8.00148 15.0319 7.98611 15.0296 7.97106L14.9873 7.68704L15.1765 7.78318C15.194 7.79214 15.215 7.7904 15.2309 7.77873L15.4172 7.64082L15.358 7.81276C15.3514 7.83231 15.3571 7.85415 15.3725 7.86831L15.4602 7.94668C15.4341 7.9907 15.4239 8.04489 15.4228 8.10137ZM15.2975 9.14912C15.4851 8.82911 15.5698 8.68253 15.5955 8.43817C15.5961 8.43072 15.5957 8.42148 15.5916 8.41417C15.5552 8.3229 15.4727 8.04611 15.5735 7.9712C15.7111 7.86868 15.8356 7.87079 15.9598 7.975C15.9743 8.00964 16.0403 8.16278 15.9533 8.33917C15.8844 8.31334 15.826 8.31498 15.7891 8.32117C15.6066 8.35131 15.5794 8.86215 15.5813 9.16468C15.5819 9.30671 15.5113 9.45732 15.4176 9.60901C15.4144 9.59893 15.4104 9.59167 15.4053 9.58262C15.3409 9.46661 15.2352 9.40426 15.1663 9.37848C15.2146 9.29471 15.2596 9.21761 15.2975 9.14912ZM14.9151 9.84053C14.9897 9.69714 15.056 9.57732 15.1155 9.47073C15.169 9.48606 15.3104 9.55703 15.347 9.71701C15.3174 9.76192 15.2867 9.80504 15.2571 9.84995C15.1618 9.98589 15.0717 10.1141 15.0122 10.2421C14.9755 10.317 14.9521 10.3987 14.9362 10.4811C14.8202 10.4387 14.737 10.4683 14.6697 10.501C14.7135 10.2892 14.7931 10.0695 14.9151 9.84053ZM14.6499 10.6234C14.6654 10.6172 14.6828 10.6099 14.699 10.6008C14.7627 10.5703 14.8255 10.5424 14.9202 10.5848C14.8959 10.7975 14.9192 11.0147 14.9538 11.1924C14.8448 11.1627 14.749 11.1566 14.668 11.1731C14.668 11.1731 14.668 11.1731 14.6669 11.1713C14.6262 10.9995 14.621 10.815 14.6499 10.6234ZM14.4246 11.2987C14.4367 11.2991 14.446 11.2987 14.4581 11.2991C14.4395 11.3212 14.4248 11.346 14.4111 11.3726C14.3787 11.438 14.3798 11.5086 14.395 11.5785C14.3454 11.5704 14.294 11.5633 14.238 11.5564C13.986 11.5255 13.7012 11.4868 13.4261 11.4141C12.9537 11.2897 12.5312 11.0071 12.3962 10.9089C12.526 10.7852 12.714 10.6394 12.8679 10.4384C13.1148 10.5669 14.2118 11.1417 14.3944 11.2869C14.4031 11.2941 14.4144 11.2973 14.4246 11.2987ZM12.0594 12.0179L11.9448 12.0841C11.7462 11.7982 11.7571 11.0988 11.7571 11.0908C11.7592 11.0701 11.7467 11.0514 11.7281 11.0432L10.869 10.6672L10.8739 10.579C11.3219 10.6307 11.8398 10.8391 11.847 10.8426C11.8646 10.8537 11.8869 10.851 11.9027 10.838L12.6155 10.2436L12.769 10.3807C12.5467 10.6537 12.0059 11.0308 11.9989 11.0347C11.9798 11.043 11.9695 11.0629 11.9713 11.0832L12.0594 12.0179ZM11.6529 7.90356C11.6566 7.91467 11.6612 7.924 11.6649 7.93506C11.7253 8.11126 11.7884 8.29586 11.9127 8.47848C12.128 8.79465 12.5003 9.67839 12.5542 10.1597L11.8635 10.735C11.819 10.7128 11.7309 10.6711 11.6214 10.6256C11.6269 10.5078 11.6388 9.94117 11.4512 9.41626C11.3528 9.13989 11.2164 8.87007 11.1041 8.65398C11.0716 8.58906 11.0401 8.52695 11.0113 8.4685C11.0354 8.42954 11.0595 8.39054 11.0808 8.35253C11.1392 8.25418 11.1929 8.16048 11.2597 8.13357C11.5045 8.0335 11.5926 7.97312 11.6529 7.90356ZM11.4774 7.50761C11.5359 7.59475 11.5739 7.69028 11.611 7.78764C11.5582 7.86559 11.511 7.91847 11.2197 8.03725C11.1205 8.07812 11.0547 8.19128 10.9926 8.30167C10.9815 8.31929 10.9695 8.33879 10.9583 8.35637C10.9165 8.26365 10.8896 8.18757 10.8933 8.14304C10.8988 8.06696 10.9665 7.97795 11.0388 7.8842C11.1204 7.77662 11.2122 7.6532 11.2353 7.51871C11.2502 7.43804 11.2344 7.38142 11.212 7.34251C11.3243 7.37317 11.4226 7.42234 11.4774 7.50761ZM10.4145 7.47742C10.4766 7.39487 10.5192 7.34195 10.5944 7.32151C10.638 7.30853 10.7483 7.29643 10.88 7.29732C10.8726 7.3029 10.8652 7.30843 10.8596 7.31495C10.8197 7.36229 10.8059 7.45037 10.792 7.56165C10.7726 7.69801 10.7495 7.86498 10.6679 7.98653C10.5947 8.09598 10.5325 8.10437 10.462 8.11553C10.4314 8.12111 10.399 8.1257 10.3665 8.13967C10.3386 8.00518 10.321 7.82715 10.3236 7.58968C10.357 7.55068 10.3885 7.51084 10.4145 7.47742ZM9.96475 7.75117C10.0677 7.73073 10.1493 7.71118 10.2198 7.67223C10.2217 7.88181 10.2403 8.05806 10.2729 8.20178C10.2719 8.20365 10.2719 8.20365 10.271 8.20548C10.1542 8.32796 9.99934 8.47084 9.82131 8.572C9.82225 8.56089 9.82037 8.55062 9.82225 8.53768C9.85276 8.26314 9.7803 8.01367 9.62355 7.84028C9.75976 7.79486 9.87391 7.77067 9.96475 7.75117ZM8.11014 8.59586C8.28165 8.46132 9.08195 8.03804 9.51217 7.87745C9.67173 8.03134 9.74786 8.26407 9.71922 8.52564C9.7165 8.56365 9.71369 8.59707 9.71462 8.62764C9.63672 8.66293 9.55605 8.68984 9.47256 8.70376C9.34178 8.7242 9.18967 8.72242 9.02828 8.72064C8.73241 8.71886 8.42542 8.71623 8.21959 8.85911C7.83756 9.12264 7.57516 9.21643 7.5408 9.17842C7.49162 9.12836 7.40069 8.97629 7.59165 8.64976C7.7995 8.71656 7.97945 8.69978 8.11014 8.59586ZM6.40258 8.31086C6.23092 8.0837 6.16403 7.74428 6.18348 7.67748C6.18719 7.66543 6.19553 7.65803 6.20945 7.65339C6.25492 7.64134 6.34675 7.67097 6.44139 7.76457C6.45067 7.77386 6.46361 7.78497 6.47753 7.79889L6.40258 8.31086ZM6.59744 8.51017C6.56031 8.47309 6.5223 8.43784 6.49351 8.41187L6.5694 7.88415C6.60372 7.91753 6.64178 7.95273 6.6835 7.98981L6.59744 8.51017ZM6.68744 8.60378L6.77631 8.07325C6.8199 8.11126 6.86444 8.15209 6.90991 8.19095L6.80158 8.73728C6.76258 8.69003 6.72456 8.64554 6.68744 8.60378ZM6.93976 8.92C6.92214 8.89497 6.90447 8.86993 6.88506 8.84396L7.00075 8.2689C7.07683 8.33476 7.1529 8.39589 7.2197 8.44782L6.93976 8.92ZM7.00014 9.022L7.30511 8.509C7.34964 8.5405 7.38953 8.5674 7.42108 8.58315C7.44517 8.5952 7.46842 8.60448 7.49345 8.61465C7.4814 8.63411 7.4703 8.65637 7.46101 8.67498C7.39431 8.80857 7.37111 8.91526 7.37209 9.00146C7.22275 9.0219 7.12356 9.09526 7.06145 9.15925C7.04842 9.11565 7.02705 9.07018 7.00014 9.022ZM7.61941 9.74626C7.63028 9.75217 7.64294 9.75409 7.65503 9.75146L7.90347 9.69878L7.77297 9.85262C7.75567 9.87273 7.75656 9.9017 7.77405 9.92096L7.93267 10.0959L7.64795 10.0608C7.63267 10.059 7.61753 10.064 7.60637 10.0743L7.396 10.2698L7.36834 10.0594C7.36586 10.0399 7.3525 10.0235 7.33389 10.0171L7.11484 9.9414L7.29015 9.89298C7.31003 9.8874 7.3248 9.87034 7.32775 9.84962L7.3428 9.733C7.3938 9.72962 7.44433 9.7075 7.49148 9.67642L7.61941 9.74626ZM8.72326 8.85348C8.66392 8.97217 8.67236 9.09461 8.68998 9.16604C8.59351 9.1735 8.5045 9.18001 8.42659 9.18747C8.05656 9.21357 7.88772 9.22661 7.67167 9.34356C7.66515 9.34722 7.65775 9.35284 7.65409 9.36025C7.59944 9.44186 7.4177 9.66639 7.29897 9.62565C7.13659 9.57006 7.06797 9.46618 7.08367 9.30479C7.10406 9.27325 7.19303 9.13225 7.3878 9.10436C7.40542 9.17579 7.43978 9.22304 7.46575 9.24995C7.59376 9.38345 8.03055 9.11711 8.27903 8.94451C8.39589 8.86379 8.56 8.83684 8.73808 8.8284C8.73165 8.83675 8.72795 8.84415 8.72326 8.85348ZM9.21311 9.11204C9.05265 9.13159 8.9163 9.14462 8.7948 9.15582C8.77717 9.10295 8.7558 8.94625 8.86698 8.82564C8.9208 8.82465 8.97362 8.82559 9.02744 8.82465C9.19347 8.82648 9.35022 8.82826 9.48934 8.80501C9.57189 8.79297 9.65256 8.76601 9.72953 8.73259C9.76019 8.85222 9.83162 8.90411 9.89655 8.94118C9.69719 9.02467 9.47092 9.08317 9.21311 9.11204ZM10.4511 8.5644C10.3324 8.69523 10.1831 8.80379 10.0088 8.88826C9.99484 8.87898 9.97909 8.86881 9.96236 8.86042C9.90114 8.82521 9.84269 8.78903 9.82408 8.68703C10.0132 8.58681 10.1792 8.44487 10.3062 8.31587C10.3433 8.42251 10.3925 8.50501 10.4519 8.56253C10.452 8.56253 10.452 8.56253 10.4511 8.5644ZM10.5345 8.49943C10.4845 8.45584 10.4325 8.37892 10.3916 8.24256C10.4176 8.2277 10.4454 8.22306 10.4778 8.21842C10.5557 8.20632 10.654 8.19053 10.7522 8.04489C10.8477 7.90482 10.8737 7.723 10.894 7.57553C10.9051 7.49298 10.9161 7.40575 10.9384 7.37982C10.9615 7.35198 11.032 7.33618 11.083 7.35934C11.1415 7.38625 11.1415 7.45117 11.1332 7.50029C11.1146 7.61162 11.034 7.71737 10.9562 7.82218C10.8755 7.92798 10.7995 8.02909 10.7903 8.13573C10.7838 8.20904 10.8247 8.31751 10.8915 8.45757C10.8489 8.51045 10.8034 8.55039 10.7459 8.55873C10.6635 8.57078 10.593 8.5495 10.5345 8.49943ZM10.7006 8.72378C10.7015 8.71267 10.6978 8.70156 10.6931 8.69223C10.6866 8.68206 10.6811 8.67465 10.6746 8.66439C10.7034 8.6672 10.7321 8.66532 10.7617 8.66157C10.8341 8.65136 10.8916 8.61053 10.9407 8.55854C10.9621 8.60401 10.9852 8.65037 11.0112 8.70043C11.1282 8.92581 11.2572 9.18259 11.3528 9.45062C11.5172 9.91061 11.5229 10.4188 11.5183 10.5858C11.3173 10.5422 11.1131 10.4968 10.8635 10.4627C10.8301 10.1864 10.684 8.95661 10.7006 8.72378ZM9.23725 12.5529C9.36789 12.4202 9.50476 12.2813 9.61262 12.0884C9.79923 11.7545 10.4235 11.0266 10.83 10.7632L11.6534 11.1241C11.6534 11.1739 11.6554 11.2714 11.6637 11.3896C11.5559 11.4372 11.0437 11.6799 10.6579 12.0822C10.4547 12.2938 10.2742 12.5364 10.1311 12.7334C10.0876 12.7915 10.0461 12.8475 10.0067 12.8994C9.96105 12.8952 9.91544 12.8911 9.87184 12.889C9.7578 12.8807 9.64994 12.8745 9.59598 12.8268C9.3969 12.6526 9.30353 12.6008 9.21437 12.5779C9.22272 12.5695 9.22895 12.5612 9.23725 12.5529ZM8.90959 13.2228C8.88676 13.1088 8.88676 12.9989 8.93861 12.9118C8.99045 12.8206 9.05889 12.7438 9.12944 12.6671C9.22276 12.6796 9.29115 12.6982 9.52759 12.9056C9.6085 12.9761 9.73914 12.9844 9.86566 12.9906C9.88637 12.9927 9.9092 12.9947 9.92997 12.9968C9.86565 13.0757 9.80964 13.1337 9.76825 13.1503C9.69775 13.1793 9.58783 13.1586 9.47167 13.1357C9.33897 13.1109 9.18756 13.0839 9.05687 13.1233C8.97803 13.1461 8.93448 13.1855 8.90959 13.2228ZM9.08589 13.2228C9.19375 13.1897 9.32439 13.2145 9.45297 13.2374C9.58361 13.2623 9.70806 13.285 9.80758 13.2457C9.87601 13.2187 9.95486 13.1337 10.0502 13.0113C10.1166 13.0258 10.1725 13.0487 10.2057 13.0963C10.2534 13.1648 10.2659 13.2373 10.2472 13.312C10.2306 13.3763 10.185 13.4572 10.0813 13.5546C10.0564 13.538 10.0398 13.5152 10.0211 13.4882C9.97553 13.4239 9.91745 13.3431 9.74322 13.3202C9.57522 13.2974 9.40103 13.3555 9.26003 13.4032C9.18119 13.4302 9.09822 13.4592 9.06508 13.4509C9.02978 13.4425 8.98417 13.3866 8.98211 13.3306C8.98009 13.2664 9.03817 13.2374 9.08589 13.2228ZM9.52759 13.9072C9.47781 13.8947 9.42808 13.8843 9.38659 13.8761C9.28497 13.8574 9.21859 13.8429 9.16675 13.7848C9.13562 13.7516 9.07548 13.6583 9.0174 13.5401C9.02575 13.5443 9.034 13.5484 9.0423 13.5505C9.10244 13.565 9.18742 13.538 9.29322 13.5007C9.42386 13.4572 9.58356 13.4032 9.72873 13.4219C9.85937 13.4385 9.89467 13.4903 9.93611 13.5484C9.95476 13.5733 9.97347 13.6002 10.0004 13.623C9.89261 13.7081 9.7412 13.8035 9.52759 13.9072ZM9.83247 14.1561C9.76815 14.0731 9.7143 14.0088 9.64787 13.9632C9.83448 13.8678 9.98383 13.7724 10.0979 13.6791C10.1 13.6791 10.1 13.6791 10.102 13.6791C10.2638 13.7289 10.4608 13.8035 10.6309 13.9176C10.6205 13.9217 10.6122 13.9279 10.5998 13.9321C10.3405 14.0274 10.1497 14.2037 10.0647 14.4215C9.96311 14.3199 9.89055 14.2286 9.83247 14.1561ZM11.4169 15.4377C11.2199 15.3444 10.4837 14.8176 10.1477 14.5044C10.2141 14.2929 10.3883 14.1208 10.6351 14.0295C10.6704 14.0149 10.7015 14.0025 10.7284 13.988C10.7948 14.0419 10.855 14.102 10.9047 14.1705C10.9815 14.2783 11.0478 14.4152 11.1183 14.5604C11.249 14.8258 11.3838 15.1017 11.6036 15.2219C12.0101 15.4459 12.2113 15.6388 12.1926 15.6864C12.1698 15.7528 12.0745 15.9021 11.697 15.8773C11.6637 15.6617 11.5683 15.5082 11.4169 15.4377ZM11.4563 17.5717C11.4438 17.5738 11.4334 17.5697 11.4231 17.5592C11.392 17.5239 11.3775 17.4286 11.419 17.3021C11.4231 17.2896 11.4273 17.2731 11.4335 17.2544L11.9251 17.0927C11.7985 17.3477 11.5247 17.5593 11.4563 17.5717ZM11.9747 16.9661L11.4687 17.1341C11.4833 17.0885 11.4977 17.0387 11.5123 16.9848L12.0162 16.8293C11.9996 16.879 11.9852 16.9289 11.9747 16.9661ZM12.0598 16.7069L11.5454 16.8645C11.56 16.8085 11.5765 16.7505 11.591 16.6924L12.1281 16.5451C12.1034 16.6012 12.0805 16.6551 12.0598 16.7069ZM12.1863 16.4228L11.6202 16.5762C11.6451 16.4788 11.6658 16.3833 11.6824 16.3004L12.2299 16.3398C12.2154 16.3668 12.2009 16.3937 12.1863 16.4228ZM12.2942 16.2403L11.699 16.1967C11.7073 16.1428 11.7135 16.0951 11.7135 16.0599C11.7135 16.0329 11.7114 16.008 11.7093 15.981C11.7322 15.9831 11.757 15.9831 11.7778 15.9831C11.9271 15.9831 12.0329 15.9561 12.1096 15.9167C12.1946 16.0412 12.3046 16.0971 12.3896 16.1241C12.3564 16.1552 12.3252 16.1947 12.2942 16.2403ZM12.496 15.1297L12.6919 15.1777C12.7176 15.1842 12.7432 15.1704 12.7526 15.1462L12.8381 14.9262L12.934 15.1966C12.9392 15.211 12.9505 15.2224 12.9647 15.2277L13.2336 15.3286L13.0577 15.4474C13.0413 15.4583 13.0326 15.4775 13.0352 15.4971L13.0653 15.7269L12.9437 15.5917C12.9298 15.5763 12.908 15.5708 12.8881 15.5774L12.777 15.616C12.7512 15.5719 12.7089 15.5365 12.66 15.5083L12.6654 15.3626C12.6658 15.3503 12.6618 15.3381 12.6542 15.3284L12.496 15.1297ZM11.8047 14.8902C11.9934 15.2096 12.0805 15.3547 12.2817 15.4958C12.2879 15.4999 12.2962 15.5041 12.3045 15.5041C12.402 15.5165 12.684 15.5787 12.7006 15.7031C12.7234 15.8732 12.6612 15.9811 12.5098 16.0391C12.4724 16.035 12.3066 16.0184 12.1945 15.8566C12.2506 15.8089 12.2775 15.7571 12.2899 15.7218C12.3521 15.5476 11.9187 15.2759 11.6533 15.1307C11.5288 15.0623 11.4314 14.9275 11.3443 14.772C11.3546 14.774 11.3629 14.774 11.3733 14.774C11.506 14.774 11.6118 14.7118 11.6678 14.6641C11.7176 14.7471 11.7632 14.8239 11.8047 14.8902ZM11.3858 14.2204C11.4749 14.3552 11.5475 14.4714 11.6118 14.575C11.5724 14.6144 11.4417 14.7036 11.2841 14.658C11.2592 14.6103 11.2365 14.5626 11.2116 14.5149C11.139 14.3656 11.0706 14.2246 10.9876 14.1105C10.9399 14.042 10.8797 13.9819 10.8155 13.928C10.9088 13.8471 10.9233 13.76 10.9275 13.6854C11.0913 13.8264 11.2448 14.0026 11.3858 14.2204ZM10.83 13.6086C10.828 13.6252 10.8259 13.6439 10.8259 13.6625C10.8218 13.733 10.8155 13.8015 10.7326 13.8637C10.5584 13.7392 10.3572 13.6542 10.1851 13.5982C10.2639 13.5173 10.3157 13.4364 10.3406 13.3577C10.3406 13.3577 10.3406 13.3577 10.3427 13.3577C10.5127 13.4053 10.6765 13.4904 10.83 13.6086ZM10.3737 13.0631C10.3634 13.0673 10.3551 13.0756 10.3488 13.0839C10.3427 13.0942 10.3385 13.1025 10.3322 13.1129C10.3219 13.0859 10.3074 13.061 10.2908 13.0362C10.2493 12.976 10.1871 12.9429 10.1186 12.9221C10.1498 12.8827 10.1808 12.8412 10.214 12.7956C10.3634 12.5903 10.5355 12.3601 10.7325 12.1548C11.0706 11.8022 11.5226 11.5699 11.674 11.4994C11.6969 11.7193 11.7466 11.9785 11.8565 12.1403C11.6243 12.2937 10.5895 12.9739 10.3737 13.0631ZM14.5652 12.0817C14.5095 12.3403 14.5094 12.4471 14.5328 12.5361C14.5215 12.5329 14.5112 12.5315 14.4999 12.5282C14.3204 12.4784 14.1325 12.4262 13.9115 12.4254C13.529 12.4243 12.5896 12.2318 12.162 12.0042L12.078 11.1092C12.1215 11.0851 12.2057 11.0359 12.305 10.9713C12.3991 11.0424 12.8598 11.3726 13.3988 11.5146C13.6824 11.5897 13.9821 11.6297 14.2238 11.6591C14.2957 11.6691 14.3648 11.6781 14.4293 11.6874C14.4478 11.7294 14.4663 11.7713 14.4857 11.8104C14.5338 11.9141 14.5807 12.0114 14.5652 12.0817ZM14.9586 12.6152C14.8536 12.6142 14.7534 12.5916 14.652 12.5672C14.6176 12.4796 14.6007 12.4107 14.6673 12.1033C14.6897 11.9983 14.6335 11.8801 14.5776 11.7664C14.5693 11.7473 14.5601 11.7264 14.5519 11.7072C14.652 11.7252 14.7299 11.7459 14.7646 11.7742C14.8242 11.8217 14.8594 11.9279 14.8958 12.0406C14.9384 12.1687 14.9883 12.3141 15.0862 12.4092C15.1444 12.4671 15.2 12.486 15.2447 12.4897C15.156 12.565 15.0599 12.6183 14.9586 12.6152ZM15.3037 12.3739C15.2485 12.4069 15.1949 12.3702 15.1591 12.3355C15.0777 12.2574 15.0361 12.131 14.9936 12.0076C14.952 11.8812 14.9115 11.7614 14.8287 11.6935C14.7719 11.6467 14.6593 11.6191 14.5061 11.5951C14.4865 11.53 14.4794 11.4699 14.505 11.4178C14.5416 11.3429 14.599 11.2967 14.6734 11.2768C14.7376 11.2601 14.8305 11.2608 14.9661 11.3042C14.9636 11.334 14.9517 11.3596 14.9372 11.3889C14.9032 11.46 14.8607 11.5501 14.9252 11.7135C14.9868 11.8714 15.1222 11.9955 15.2323 12.0957C15.2941 12.1515 15.3597 12.21 15.3686 12.243C15.3785 12.2778 15.3517 12.3449 15.3037 12.3739ZM15.6112 11.992C15.5973 12.0354 15.5449 12.1332 15.4697 12.2414C15.4693 12.2321 15.469 12.2229 15.4667 12.2146C15.4502 12.155 15.3854 12.0937 15.3014 12.0194C15.1999 11.9263 15.0753 11.8128 15.0211 11.6768C14.9722 11.5545 15.0004 11.4985 15.031 11.4341C15.0437 11.4057 15.0582 11.3762 15.0651 11.3417C15.1918 11.3947 15.3487 11.4807 15.543 11.6172C15.5563 11.6667 15.5714 11.7153 15.5843 11.7556C15.6174 11.8535 15.6369 11.9185 15.6112 11.992ZM15.6127 11.2299C15.5714 11.3263 15.5413 11.4047 15.5336 11.4849C15.3596 11.3679 15.2038 11.2837 15.0668 11.2293C15.0658 11.2275 15.0658 11.2275 15.0648 11.2257C15.0298 11.0601 14.9995 10.8516 15.0167 10.6476C15.0253 10.6546 15.0348 10.6589 15.0445 10.6677C15.2537 10.8481 15.5005 10.9293 15.7321 10.898C15.6925 11.0361 15.648 11.1439 15.6127 11.2299ZM15.9644 9.22253C15.9784 9.44007 15.8752 10.3395 15.7644 10.7852C15.5472 10.8298 15.3122 10.761 15.1126 10.5895C15.0827 10.5657 15.0568 10.5446 15.031 10.5281C15.046 10.4439 15.0693 10.3621 15.105 10.2854C15.1621 10.166 15.2495 10.0415 15.3422 9.90943C15.5109 9.66639 15.6866 9.41462 15.6851 9.16403C15.6837 8.69992 15.7547 8.43043 15.8055 8.42359C15.8746 8.41131 16.0514 8.42223 16.2129 8.76437C16.0405 8.89801 15.9526 9.05593 15.9644 9.22253ZM16.3645 8.66125C16.3409 8.67432 16.3201 8.6882 16.2976 8.70311C16.2883 8.68215 16.2762 8.6604 16.2662 8.64226C16.1937 8.51172 16.1188 8.43231 16.0471 8.38436C16.1147 8.24964 16.1102 8.12636 16.0926 8.03893C16.1359 8.05286 16.1854 8.06092 16.2404 8.06598L16.4912 8.60753C16.44 8.62642 16.3952 8.64414 16.3645 8.66125ZM16.5899 8.57167L16.3586 8.07381C16.3892 8.07339 16.4198 8.07301 16.4522 8.07165L16.8612 8.49217C16.7639 8.51776 16.6705 8.54598 16.5899 8.57167ZM16.9769 8.46123L16.5874 8.06307C16.6485 8.05764 16.7067 8.05145 16.762 8.04442L17.1495 8.41759C17.0935 8.43207 17.0347 8.44576 16.9769 8.46123ZM17.2707 8.38825L16.8902 8.02314C16.9417 8.01353 16.9923 8.00204 17.03 7.993L17.4225 8.35393C17.3755 8.36326 17.325 8.37475 17.2707 8.38825ZM17.5935 8.31587C17.5806 8.31826 17.5641 8.32271 17.5448 8.32632L17.1648 7.97504C17.4492 7.96187 17.767 8.09856 17.8112 8.15237C17.819 8.16226 17.8204 8.17332 17.8164 8.18743C17.8006 8.23173 17.7242 8.2907 17.5935 8.31587Z" fill="#464655"/>
</svg>
