<svg width="24" height="24" viewBox="0 0 24 24" fill="none" xmlns="http://www.w3.org/2000/svg">
<g clip-path="url(#clip0_1_5830)">
<path d="M22.209 19.8625H1.79566C0.806408 19.8625 0 19.0608 0 18.0669V5.93324C0 4.93929 0.806408 4.13757 1.79566 4.13757H22.2043C23.1983 4.13757 24 4.94398 24 5.93324V18.0669C24.0047 19.0608 23.1983 19.8625 22.209 19.8625Z" fill="#3CC8FF"/>
<path d="M0.00463867 5.83478V11.5828C0.00463867 11.8125 0.192175 11.9954 0.417219 11.9954H11.5897C11.8194 11.9954 12.0023 11.8078 12.0023 11.5828V4.55015C12.0023 4.32042 11.8148 4.13757 11.5897 4.13757H1.79561C0.839177 4.13757 0.0515228 4.88772 0.00463867 5.83478Z" fill="#41479B"/>
<path d="M7.03726 6.64588V4.13757H4.96967V6.65056L1.26113 4.21728C0.8298 4.35324 0.464103 4.64861 0.243748 5.03306L3.29591 7.03033H0.00463867V9.09792H3.29591L0.00463867 11.2546V11.5828C0.00463867 11.8125 0.192175 11.9954 0.417219 11.9954H1.13455L4.96967 9.48237V12H7.03726V9.48706L10.8724 12H11.5897C11.8194 12 12.0023 11.8125 12.0023 11.5875V11.2593L8.71103 9.10261H12.0023V7.03501H8.71103L12.0023 4.87834V4.55015C12.0023 4.32042 11.8148 4.13757 11.5897 4.13757H10.8724L7.03726 6.64588Z" fill="#F5F5F5"/>
<path d="M12.007 7.44759H6.62468V4.13757H5.38225V7.44759H0.00463867V8.69003H5.38225V12H6.62468V8.69003H12.007V7.44759Z" fill="#FF4B55"/>
<path d="M0.384521 4.82203L3.793 7.03496H4.55252L0.68458 4.52197C0.576747 4.61105 0.473601 4.70951 0.384521 4.82203Z" fill="#FF4B55"/>
<path d="M7.79688 7.03501L11.9414 4.34386C11.8711 4.22196 11.7445 4.13757 11.5898 4.13757H11.5007L7.03735 7.03501H7.79688Z" fill="#FF4B55"/>
<path d="M4.19597 9.10266L0.060791 11.7891C0.131117 11.9157 0.262393 12.0001 0.417111 12.0001H0.496814L4.96019 9.10266H4.19597Z" fill="#FF4B55"/>
<path d="M11.9977 11.6203L8.12036 9.10266H7.36084L11.7633 11.9579C11.8945 11.897 11.9883 11.7704 11.9977 11.6203Z" fill="#FF4B55"/>
<path d="M13.3339 17.0073L13.5355 17.6121L14.1732 17.6168C14.2575 17.6168 14.2904 17.7246 14.2247 17.7715L13.7137 18.1513L13.9059 18.7561C13.9294 18.8358 13.8403 18.9014 13.7746 18.8498L13.2589 18.4794L12.7432 18.8498C12.6776 18.8967 12.5885 18.8311 12.6119 18.7561L12.8041 18.1513L12.2931 17.7715C12.2275 17.7246 12.2603 17.6168 12.3447 17.6168L12.9823 17.6121L13.1839 17.0073C13.198 16.9276 13.3058 16.9276 13.3339 17.0073Z" fill="#FFE15A"/>
<path d="M19.1945 12.45L19.3961 13.0548L20.0338 13.0595C20.1181 13.0595 20.151 13.1674 20.0853 13.2142L19.5743 13.594L19.7665 14.1988C19.79 14.2785 19.7009 14.3442 19.6352 14.2926L19.1195 13.9222L18.6038 14.2926C18.5381 14.3395 18.4491 14.2738 18.4725 14.1988L18.6647 13.594L18.1537 13.2142C18.0881 13.1674 18.1209 13.0595 18.2053 13.0595L18.8429 13.0548L19.0445 12.45C19.0586 12.3703 19.1664 12.3703 19.1945 12.45Z" fill="#FFE15A"/>
<path d="M21.956 10.7529L22.1576 11.3577L22.7952 11.3624C22.8796 11.3624 22.9124 11.4702 22.8468 11.5171L22.3358 11.8969L22.528 12.5017C22.5514 12.5814 22.4624 12.647 22.3967 12.5955L21.881 12.2251L21.3653 12.5955C21.2996 12.6423 21.2105 12.5767 21.234 12.5017L21.4262 11.8969L20.9152 11.5171C20.8495 11.4702 20.8824 11.3624 20.9667 11.3624L21.6044 11.3577L21.806 10.7529C21.82 10.6779 21.9326 10.6779 21.956 10.7529Z" fill="#FFE15A"/>
<path d="M21.2995 4.94393L21.5011 5.54874L22.1387 5.55343C22.2231 5.55343 22.2559 5.66126 22.1903 5.70814L21.6793 6.08791L21.8715 6.69271C21.8949 6.77241 21.8059 6.83805 21.7402 6.78648L21.2245 6.4161L20.7088 6.78648C20.6431 6.83336 20.554 6.76773 20.5775 6.69271L20.7697 6.08791L20.2587 5.70814C20.193 5.66126 20.2259 5.55343 20.3103 5.55343L20.9479 5.54874L21.1495 4.94393C21.1635 4.86423 21.2714 4.86423 21.2995 4.94393Z" fill="#FFE15A"/>
<path d="M15.7813 18.5169L15.5797 17.9121L14.9421 17.9074C14.8577 17.9074 14.8249 17.7995 14.8905 17.7527L15.4016 17.3729L15.2093 16.7681C15.1859 16.6884 15.275 16.6228 15.3406 16.6743L15.8563 17.0447L16.3721 16.6743C16.4377 16.6274 16.5268 16.6931 16.5033 16.7681L16.3111 17.3729L16.8221 17.7527C16.8878 17.7995 16.855 17.9074 16.7706 17.9074L16.1329 17.9121L15.9313 18.5169C15.922 18.5919 15.8094 18.5919 15.7813 18.5169Z" fill="#FFE15A"/>
<path d="M17.6895 16.8056L17.4879 16.2008L16.8503 16.1961C16.7659 16.1961 16.7331 16.0882 16.7987 16.0414L17.3098 15.6616L17.1175 15.0568C17.0941 14.9771 17.1832 14.9114 17.2488 14.963L17.7645 15.3334L18.2803 14.963C18.3459 14.9161 18.435 14.9818 18.4115 15.0568L18.2193 15.6616L18.7303 16.0414C18.796 16.0882 18.7632 16.1961 18.6788 16.1961L18.0411 16.2008L17.8395 16.8056C17.8255 16.8853 17.713 16.8853 17.6895 16.8056Z" fill="#FFE15A"/>
<path d="M19.4007 9.3511L19.1991 8.74629L18.5615 8.7416C18.4771 8.7416 18.4443 8.63377 18.5099 8.58689L19.0209 8.20713L18.8287 7.60232C18.8053 7.52262 18.8944 7.45698 18.96 7.50855L19.4757 7.87894L19.9914 7.50855C20.0571 7.46167 20.1462 7.5273 20.1227 7.60232L19.9305 8.20713L20.4415 8.58689C20.5072 8.63377 20.4743 8.7416 20.39 8.7416L19.7523 8.74629L19.5507 9.3511C19.5367 9.4308 19.4288 9.4308 19.4007 9.3511Z" fill="#FFE15A"/>
<path d="M17.4222 9.98867L17.2206 9.38387L16.583 9.37918C16.4986 9.37918 16.4657 9.27134 16.5314 9.22446L17.0424 8.8447L16.8502 8.23989C16.8268 8.16019 16.9158 8.09455 16.9815 8.14612L17.4972 8.51651L18.0129 8.14612C18.0786 8.09924 18.1676 8.16488 18.1442 8.23989L17.952 8.8447L18.463 9.22446C18.5286 9.27134 18.4958 9.37918 18.4114 9.37918L17.7738 9.38387L17.5722 9.98867C17.5628 10.0637 17.4503 10.0637 17.4222 9.98867Z" fill="#FFE15A"/>
<path d="M16.1563 14.9162L15.9547 14.3114L15.3171 14.3067C15.2327 14.3067 15.1999 14.1988 15.2655 14.152L15.7766 13.7722L15.5843 13.1674C15.5609 13.0877 15.65 13.022 15.7156 13.0736L16.2313 13.444L16.7471 13.0736C16.8127 13.0267 16.9018 13.0924 16.8783 13.1674L16.6861 13.7722L17.2065 14.1566C17.2722 14.2035 17.2393 14.3114 17.1549 14.3114L16.5173 14.316L16.3157 14.9209C16.2923 14.9959 16.1844 14.9959 16.1563 14.9162Z" fill="#FFE15A"/>
</g>
<defs>
<clipPath id="clip0_1_5830">
<rect width="24" height="24" fill="white"/>
</clipPath>
</defs>
</svg>
