<svg width="24" height="24" viewBox="0 0 24 24" fill="none" xmlns="http://www.w3.org/2000/svg">
<path d="M22.2026 19.8621H1.79742C0.804703 19.8621 0 19.0574 0 18.0646V5.93536C0 4.94269 0.804703 4.13794 1.79742 4.13794H22.2026C23.1952 4.13794 24 4.94264 24 5.93536V18.0647C24 19.0574 23.1953 19.8621 22.2026 19.8621Z" fill="#41479B"/>
<path d="M0.413813 12H1.13259L4.96556 9.48872V12H7.03453V9.48872L10.8675 12H11.5862C11.8148 12 12 11.8147 12 11.5862V11.258L8.71158 9.10346H12V7.03449H8.71148L12 4.87997V4.55175C12 4.32324 11.8148 4.13803 11.5863 4.13794H10.8674L7.03448 6.64922V4.13794H4.96552V6.64922L1.25831 4.22035C0.825469 4.35628 0.463594 4.65174 0.240609 5.03756L3.28856 7.03449H0V9.10346H3.28852L0 11.258V11.5862C0 11.8147 0.185297 12 0.413813 12Z" fill="#F5F5F5"/>
<path d="M12 7.4483H6.62067V4.13794H5.37933V7.4483H0V8.68964H5.37933V12H6.62067V8.68964H12V7.4483Z" fill="#FF4B55"/>
<path d="M0.385742 4.8235L3.79177 7.03445H4.5518L0.684805 4.52429C0.573758 4.61195 0.473398 4.7124 0.385742 4.8235Z" fill="#FF4B55"/>
<path d="M7.79446 7.03449L11.937 4.34546C11.865 4.22363 11.738 4.13794 11.5861 4.13794H11.4966L7.03442 7.03449H7.79446Z" fill="#FF4B55"/>
<path d="M4.19418 9.10352L0.0595703 11.7874C0.130867 11.9122 0.259867 12.0001 0.413898 12.0001H0.491945L4.95426 9.10352H4.19418Z" fill="#FF4B55"/>
<path d="M11.9934 11.6187L8.11843 9.10352H7.3584L11.7587 11.9598C11.8906 11.8987 11.981 11.7705 11.9934 11.6187Z" fill="#FF4B55"/>
<path d="M16.1285 9.65515C16.0785 9.65515 16.0381 9.6956 16.0381 9.74553V11.2818C16.0381 14.3543 18.2069 14.8965 18.2069 14.8965C18.2069 14.8965 20.3758 14.3543 20.3758 11.2818V9.74553C20.3758 9.6956 20.3354 9.65515 20.2854 9.65515H16.1285Z" fill="#FFE15A"/>
<path d="M20.1499 9.88109V11.2818C20.1499 13.8951 18.5346 14.5542 18.207 14.6609C17.8777 14.5535 16.264 13.8936 16.264 11.2818V9.88109H20.1499ZM20.2854 9.65515H16.1285C16.0785 9.65515 16.0381 9.6956 16.0381 9.74553V11.2818C16.0381 14.3543 18.2069 14.8965 18.2069 14.8965C18.2069 14.8965 20.3758 14.3543 20.3758 11.2818V9.74553C20.3758 9.6956 20.3354 9.65515 20.2854 9.65515Z" fill="#F5F5F5"/>
<path d="M18.4494 12.5175H17.9871C17.9871 12.5175 17.6142 12.8903 17.5287 13.7093C17.526 13.7354 17.5366 13.7618 17.5572 13.7781C17.6357 13.8396 17.8559 13.9815 18.2182 13.9815C18.5805 13.9815 18.8008 13.8396 18.8792 13.7781C18.8999 13.7619 18.9104 13.7355 18.9077 13.7093C18.8223 12.8903 18.4494 12.5175 18.4494 12.5175Z" fill="#73AF00"/>
<path d="M18.4496 12.4404H17.9873V12.0551C17.9873 11.928 18.0913 11.824 18.2184 11.824C18.3456 11.824 18.4496 11.928 18.4496 12.0551V12.4404H18.4496Z" fill="#FF4B55"/>
<path d="M18.4495 12.5944H17.9872C17.9447 12.5944 17.9102 12.5599 17.9102 12.5174C17.9102 12.4748 17.9447 12.4403 17.9872 12.4403H18.4495C18.4921 12.4403 18.5266 12.4748 18.5266 12.5174C18.5266 12.5599 18.4921 12.5944 18.4495 12.5944Z" fill="#FF4B55"/>
<path d="M19.9906 10.8908C19.977 10.8908 19.776 10.8918 19.5668 10.9277V10.8073C19.7433 10.7267 19.9162 10.6851 19.9192 10.6844C19.9398 10.6795 19.9527 10.6588 19.9479 10.638C19.9429 10.6174 19.9223 10.6044 19.9015 10.6094C19.8899 10.612 19.7346 10.6494 19.5654 10.723C19.5627 10.6769 19.5466 10.6345 19.5206 10.5995C19.6587 10.4926 19.7763 10.4247 19.7785 10.4235C19.797 10.413 19.8034 10.3895 19.7929 10.371C19.7823 10.3524 19.7588 10.346 19.7404 10.3565C19.7311 10.3619 19.6077 10.433 19.4644 10.5449C19.4276 10.5201 19.3833 10.5056 19.3356 10.5056C19.2861 10.5056 19.2403 10.5216 19.2027 10.5482C19.2422 10.3499 19.3234 10.2641 19.3245 10.263C19.3394 10.248 19.3394 10.2236 19.3244 10.2087C19.3093 10.1936 19.2849 10.1936 19.2699 10.2087C19.2653 10.2133 19.1904 10.2906 19.143 10.4642C19.0956 10.2905 19.0207 10.2132 19.0161 10.2087C19.0012 10.1937 18.977 10.1937 18.9618 10.2086C18.9468 10.2235 18.9466 10.2479 18.9615 10.263C18.9625 10.2641 19.0438 10.35 19.0833 10.5482C19.0456 10.5216 18.9999 10.5056 18.9504 10.5056C18.9027 10.5056 18.8584 10.5202 18.8215 10.545C18.6783 10.433 18.555 10.3619 18.5456 10.3566C18.5271 10.346 18.5035 10.3525 18.493 10.371C18.4825 10.3895 18.489 10.413 18.5075 10.4235C18.5096 10.4248 18.6273 10.4926 18.7654 10.5995C18.7394 10.6345 18.7234 10.6769 18.7206 10.7231C18.5514 10.6494 18.3961 10.6121 18.3844 10.6094C18.3636 10.6044 18.343 10.6174 18.3381 10.6381C18.3332 10.6588 18.3461 10.6796 18.3668 10.6844C18.3698 10.6851 18.5427 10.7267 18.7192 10.8073V10.9278C18.5101 10.8918 18.3091 10.8909 18.2954 10.8909C18.2741 10.8909 18.2568 10.9081 18.2568 10.9294C18.2568 10.9507 18.274 10.968 18.2954 10.968C18.2987 10.968 18.5093 10.9688 18.7192 11.006V11.1307C18.6036 11.1272 18.4746 11.1434 18.3552 11.2032C18.3361 11.2127 18.3285 11.2358 18.338 11.2548C18.3448 11.2683 18.3584 11.2762 18.3725 11.2762C18.3783 11.2762 18.3841 11.2748 18.3896 11.2721C18.496 11.219 18.6132 11.2051 18.7191 11.2087V11.6854C18.7191 11.7435 18.7133 11.802 18.702 11.8592L18.6429 12.1547C18.6387 12.1756 18.6522 12.1958 18.673 12.2C18.6756 12.2005 18.6781 12.2008 18.6806 12.2008C18.6986 12.2008 18.7147 12.1882 18.7184 12.1698L18.7775 11.8743C18.7899 11.8122 18.7962 11.7487 18.7962 11.6854V11.2144C18.854 11.2209 18.9059 11.2313 18.9477 11.2418L18.9771 11.6233C18.9807 11.6709 19.0045 11.712 19.0393 11.7398L18.9143 11.9273C18.8474 12.0277 18.9193 12.1622 19.04 12.1622H19.2459C19.3665 12.1622 19.4385 12.0277 19.3716 11.9273L19.2466 11.7398C19.2814 11.712 19.3051 11.6708 19.3088 11.6233L19.3381 11.2418C19.3799 11.2313 19.4318 11.2209 19.4896 11.2144V11.6854C19.4896 11.7487 19.4959 11.8122 19.5083 11.8743L19.5674 12.1698C19.5711 12.1881 19.5872 12.2008 19.6052 12.2008C19.6077 12.2008 19.6102 12.2006 19.6128 12.2C19.6336 12.1958 19.6472 12.1755 19.643 12.1546L19.5839 11.8591C19.5725 11.802 19.5667 11.7436 19.5667 11.6853V11.2086C19.6726 11.205 19.7899 11.2189 19.8962 11.272C19.9017 11.2748 19.9076 11.2761 19.9134 11.2761C19.9275 11.2761 19.9411 11.2683 19.9479 11.2548C19.9574 11.2358 19.9497 11.2126 19.9306 11.2031C19.8113 11.1435 19.6823 11.1272 19.5667 11.1307V11.006C19.7765 10.9688 19.9871 10.9679 19.9905 10.9679C20.0118 10.9679 20.029 10.9506 20.029 10.9294C20.0291 10.9081 20.0119 10.8908 19.9906 10.8908ZM19.4897 10.9425C19.4437 10.9525 19.3984 10.9644 19.3557 10.9786C19.3549 10.9634 19.3527 10.9487 19.3489 10.9344C19.3916 10.9014 19.4396 10.8715 19.4898 10.845V10.9425H19.4897ZM19.4897 10.7367V10.758C19.4287 10.7884 19.3686 10.8235 19.3148 10.8634C19.3036 10.8481 19.2908 10.8344 19.2759 10.8226C19.3336 10.7588 19.3976 10.6996 19.4607 10.6474C19.4788 10.6726 19.4897 10.7034 19.4897 10.7367ZM19.3357 10.5826C19.3586 10.5826 19.3802 10.588 19.3998 10.5971C19.3333 10.653 19.2658 10.7166 19.2054 10.7856C19.1975 10.7832 19.1897 10.7808 19.1815 10.7793V10.7752C19.1815 10.7577 19.1821 10.741 19.1827 10.7245C19.1891 10.6454 19.2548 10.5826 19.3357 10.5826ZM18.9504 10.5826C19.0312 10.5826 19.0969 10.6453 19.1033 10.7245C19.1039 10.7411 19.1045 10.7577 19.1045 10.7753V10.7793C19.0963 10.7808 19.0885 10.7832 19.0806 10.7857C19.0202 10.7167 18.9527 10.653 18.8861 10.5971C18.9058 10.588 18.9274 10.5826 18.9504 10.5826ZM18.7963 10.7367C18.7963 10.7033 18.8072 10.6726 18.8253 10.6473C18.8884 10.6995 18.9524 10.7587 19.01 10.8225C18.9952 10.8343 18.9824 10.8481 18.9712 10.8634C18.9174 10.8235 18.8573 10.7883 18.7962 10.758L18.7963 10.7367ZM18.7963 10.845C18.8464 10.8715 18.8944 10.9015 18.9372 10.9345C18.9333 10.9488 18.9311 10.9635 18.9304 10.9786C18.8876 10.9644 18.8424 10.9525 18.7963 10.9425V10.845H18.7963ZM18.7963 11.136V11.0216C18.8446 11.0325 18.8911 11.0458 18.9339 11.0617L18.9414 11.1603C18.8996 11.1506 18.8503 11.1417 18.7963 11.136ZM19.4897 11.1361C19.4357 11.1417 19.3864 11.1506 19.3446 11.1604L19.3522 11.0617C19.3949 11.0458 19.4415 11.0326 19.4897 11.0217V11.1361Z" fill="#D35A10"/>
<path d="M17.5564 11.931H17.3833L16.7219 11.3431C16.6497 11.279 16.6191 11.1799 16.6425 11.0861L16.8269 10.3485C16.8432 10.2832 16.9245 10.2607 16.9721 10.3083L17.2714 10.6076C17.2876 10.6238 17.3096 10.6329 17.3325 10.6329H17.5563V11.9311L17.5564 11.931Z" fill="#FFA033"/>
<path d="M17.4325 10.4556L17.3263 10.9336C17.3071 11.0202 17.3103 11.1104 17.3358 11.1954L17.5565 11.9311H17.7296L17.9503 11.1954C17.9758 11.1104 17.9791 11.0202 17.9598 10.9336L17.8536 10.4556C17.8317 10.357 17.7443 10.2869 17.6432 10.2869H17.6428C17.5418 10.2868 17.4543 10.3569 17.4325 10.4556Z" fill="#FF9480"/>
<path d="M17.6427 10.4598C17.5949 10.4598 17.5562 10.4986 17.5562 10.5464V11.931H17.7292V10.5464C17.7292 10.4986 17.6904 10.4598 17.6427 10.4598Z" fill="#FFA0E4"/>
</svg>
