<svg width="24" height="24" viewBox="0 0 24 24" fill="none" xmlns="http://www.w3.org/2000/svg">
<path d="M22.2026 4.13794H1.79742C0.804703 4.13794 0 4.94264 0 5.93536V18.0647C0 19.0574 0.804703 19.8621 1.79742 19.8621H22.2026C23.1952 19.8621 24 19.0574 24 18.0647V5.93536C24 4.94264 23.1953 4.13794 22.2026 4.13794Z" fill="#F5F5F5"/>
<path d="M0.098877 5.3475H23.9011C23.6575 4.64358 22.9893 4.13794 22.2026 4.13794H1.79744C1.01069 4.13794 0.342486 4.64358 0.098877 5.3475Z" fill="#FF4B55"/>
<path d="M24 8.97607H0V10.1856H24V8.97607Z" fill="#FF4B55"/>
<path d="M24 6.55688H0V7.7664H24V6.55688Z" fill="#FF4B55"/>
<path d="M0 12.191C0 12.4195 0.185297 12.6048 0.413813 12.6048H24V11.3953H0V12.191Z" fill="#FF4B55"/>
<path d="M24 16.2338H0V17.4433H24V16.2338Z" fill="#FF4B55"/>
<path d="M23.9012 18.6525H0.098877C0.342486 19.3564 1.01074 19.862 1.79744 19.862H22.2026C22.9893 19.862 23.6575 19.3564 23.9012 18.6525Z" fill="#FF4B55"/>
<path d="M24 13.8146H0V15.0241H24V13.8146Z" fill="#FF4B55"/>
<path d="M0.413813 12.6048H10.7587C10.9872 12.6048 11.1725 12.4195 11.1725 12.191V4.55175C11.1725 4.32319 10.9872 4.13794 10.7587 4.13794H1.79742C0.804703 4.13799 0 4.94269 0 5.93541V12.191C0 12.4196 0.185297 12.6048 0.413813 12.6048Z" fill="#41479B"/>
<path d="M1.1621 5.08783L1.2537 5.36252L1.54325 5.36473C1.58075 5.36505 1.59626 5.41287 1.56612 5.43513L1.3332 5.60712L1.42057 5.88316C1.43192 5.91888 1.39118 5.94851 1.36067 5.92666L1.12512 5.75833L0.889573 5.92671C0.859058 5.94855 0.818417 5.91893 0.829667 5.88321L0.917042 5.60716L0.68412 5.43518C0.65398 5.41287 0.669495 5.36505 0.706995 5.36477L0.996542 5.36257L1.08814 5.08788C1.09995 5.05226 1.1502 5.05226 1.1621 5.08783Z" fill="#F5F5F5"/>
<path d="M1.1621 6.52457L1.2537 6.79925L1.54325 6.80146C1.58075 6.80179 1.59626 6.84955 1.56612 6.87186L1.3332 7.0439L1.42057 7.31994C1.43192 7.35566 1.39118 7.38529 1.36067 7.36344L1.12512 7.19511L0.889573 7.36349C0.859058 7.38529 0.818417 7.35571 0.829667 7.31999L0.917042 7.04394L0.68412 6.87191C0.65398 6.8496 0.669495 6.80183 0.706995 6.8015L0.996542 6.7993L1.08814 6.52461C1.09995 6.48904 1.1502 6.48904 1.1621 6.52457Z" fill="#F5F5F5"/>
<path d="M1.1621 7.96161L1.2537 8.2363L1.54325 8.23851C1.58075 8.23883 1.59626 8.2866 1.56612 8.30891L1.3332 8.48094L1.42057 8.75699C1.43192 8.79271 1.39118 8.82233 1.36067 8.80049L1.12512 8.63216L0.889573 8.80054C0.859058 8.82233 0.818417 8.7928 0.829667 8.75704L0.917042 8.48099L0.68412 8.30896C0.65398 8.28665 0.669495 8.23888 0.706995 8.23855L0.996542 8.23635L1.08814 7.96166C1.09995 7.92604 1.1502 7.92604 1.1621 7.96161Z" fill="#F5F5F5"/>
<path d="M1.1621 9.3985L1.2537 9.67319L1.54325 9.67539C1.58075 9.67572 1.59626 9.72353 1.56612 9.7458L1.3332 9.91783L1.42057 10.1939C1.43192 10.2296 1.39118 10.2592 1.36067 10.2374L1.12512 10.0691L0.889573 10.2374C0.859058 10.2592 0.818417 10.2296 0.829667 10.1939L0.917042 9.91788L0.68412 9.74585C0.65398 9.72363 0.669495 9.67577 0.706995 9.67544L0.996542 9.67324L1.08814 9.39855C1.09995 9.36293 1.1502 9.36293 1.1621 9.3985Z" fill="#F5F5F5"/>
<path d="M1.1621 10.8354L1.2537 11.11L1.54325 11.1122C1.58075 11.1126 1.59626 11.1603 1.56612 11.1827L1.3332 11.3547L1.42057 11.6307C1.43192 11.6665 1.39118 11.6961 1.36067 11.6742L1.12512 11.5059L0.889573 11.6743C0.859058 11.6961 0.818417 11.6665 0.829667 11.6308L0.917042 11.3547L0.68412 11.1827C0.65398 11.1604 0.669495 11.1126 0.706995 11.1123L0.996542 11.1101L1.08814 10.8354C1.09995 10.7998 1.1502 10.7998 1.1621 10.8354Z" fill="#F5F5F5"/>
<path d="M2.27734 5.79215L2.36893 6.06684L2.65848 6.06904C2.69598 6.06937 2.7115 6.11718 2.68135 6.13945L2.44843 6.31148L2.53581 6.58753C2.54715 6.62324 2.50642 6.65287 2.4759 6.63103L2.24035 6.46265L2.00481 6.63103C1.97429 6.65282 1.93365 6.62324 1.9449 6.58753L2.03228 6.31148L1.79935 6.13945C1.76921 6.11714 1.78473 6.06937 1.82223 6.06904L2.11178 6.06684L2.20337 5.79215C2.21518 5.75662 2.26548 5.75662 2.27734 5.79215Z" fill="#F5F5F5"/>
<path d="M2.27734 7.2292L2.36893 7.50389L2.65848 7.50609C2.69598 7.50642 2.7115 7.55423 2.68135 7.5765L2.44843 7.74853L2.53581 8.02457C2.54715 8.06029 2.50642 8.08992 2.4759 8.06807L2.24035 7.8997L2.00481 8.06807C1.97429 8.08987 1.93365 8.06034 1.9449 8.02457L2.03228 7.74853L1.79935 7.5765C1.76921 7.55428 1.78473 7.50642 1.82223 7.50609L2.11178 7.50389L2.20337 7.2292C2.21518 7.19362 2.26548 7.19362 2.27734 7.2292Z" fill="#F5F5F5"/>
<path d="M2.27734 8.66609L2.36893 8.94078L2.65848 8.94298C2.69598 8.94331 2.7115 8.99107 2.68135 9.01338L2.44843 9.18542L2.53581 9.46146C2.54715 9.49718 2.50642 9.52681 2.4759 9.50496L2.24035 9.33659L2.00481 9.50496C1.97429 9.52676 1.93365 9.49718 1.9449 9.46146L2.03228 9.18542L1.79935 9.01338C1.76921 8.99107 1.78473 8.94331 1.82223 8.94298L2.11178 8.94078L2.20337 8.66609C2.21518 8.63051 2.26548 8.63051 2.27734 8.66609Z" fill="#F5F5F5"/>
<path d="M2.27734 10.1029L2.36893 10.3776L2.65848 10.3798C2.69598 10.3802 2.7115 10.4279 2.68135 10.4502L2.44843 10.6223L2.53581 10.8983C2.54715 10.934 2.50642 10.9637 2.4759 10.9418L2.24035 10.7734L2.00481 10.9418C1.97429 10.9637 1.93365 10.934 1.9449 10.8983L2.03228 10.6223L1.79935 10.4502C1.76921 10.4279 1.78473 10.3802 1.82223 10.3798L2.11178 10.3776L2.20337 10.1029C2.21518 10.0674 2.26548 10.0674 2.27734 10.1029Z" fill="#F5F5F5"/>
<path d="M3.39282 5.08772L3.48441 5.36241L3.77396 5.36461C3.81146 5.36494 3.82697 5.41275 3.79683 5.43502L3.56391 5.607L3.65129 5.88305C3.66263 5.91877 3.6219 5.94839 3.59138 5.92655L3.35583 5.75817L3.12029 5.92655C3.08977 5.94839 3.04913 5.91877 3.06038 5.88305L3.14776 5.607L2.91483 5.43502C2.88469 5.4127 2.90021 5.36489 2.93771 5.36461L3.22726 5.36241L3.31885 5.08772C3.33066 5.05214 3.38096 5.05214 3.39282 5.08772Z" fill="#F5F5F5"/>
<path d="M3.39282 6.52457L3.48441 6.79926L3.77396 6.80146C3.81146 6.80179 3.82697 6.84956 3.79683 6.87187L3.56391 7.0439L3.65129 7.31995C3.66263 7.35567 3.6219 7.38529 3.59138 7.36345L3.35583 7.19507L3.12029 7.36345C3.08977 7.38525 3.04913 7.35567 3.06038 7.31995L3.14776 7.0439L2.91483 6.87187C2.88469 6.84956 2.90021 6.80179 2.93771 6.80146L3.22726 6.79926L3.31885 6.52457C3.33066 6.48904 3.38096 6.48904 3.39282 6.52457Z" fill="#F5F5F5"/>
<path d="M3.39282 7.96162L3.48441 8.23631L3.77396 8.23851C3.81146 8.23884 3.82697 8.28661 3.79683 8.30892L3.56391 8.48095L3.65129 8.757C3.66263 8.79271 3.6219 8.82234 3.59138 8.8005L3.35583 8.63212L3.12029 8.8005C3.08977 8.82229 3.04913 8.79276 3.06038 8.757L3.14776 8.48095L2.91483 8.30892C2.88469 8.28661 2.90021 8.23884 2.93771 8.23851L3.22726 8.23631L3.31885 7.96162C3.33066 7.92604 3.38096 7.92604 3.39282 7.96162Z" fill="#F5F5F5"/>
<path d="M3.39282 9.39851L3.48441 9.6732L3.77396 9.6754C3.81146 9.67573 3.82697 9.72354 3.79683 9.74581L3.56391 9.91784L3.65129 10.1939C3.66263 10.2296 3.6219 10.2592 3.59138 10.2374L3.35583 10.069L3.12029 10.2374C3.08977 10.2592 3.04913 10.2296 3.06038 10.1939L3.14776 9.91784L2.91483 9.74581C2.88469 9.72359 2.90021 9.67573 2.93771 9.6754L3.22726 9.6732L3.31885 9.39851C3.33066 9.36293 3.38096 9.36293 3.39282 9.39851Z" fill="#F5F5F5"/>
<path d="M3.39282 10.8354L3.48441 11.1101L3.77396 11.1123C3.81146 11.1126 3.82697 11.1603 3.79683 11.1827L3.56391 11.3547L3.65129 11.6307C3.66263 11.6665 3.6219 11.6961 3.59138 11.6742L3.35583 11.5059L3.12029 11.6742C3.08977 11.696 3.04913 11.6665 3.06038 11.6307L3.14776 11.3547L2.91483 11.1827C2.88469 11.1603 2.90021 11.1126 2.93771 11.1123L3.22726 11.1101L3.31885 10.8354C3.33066 10.7998 3.38096 10.7998 3.39282 10.8354Z" fill="#F5F5F5"/>
<path d="M4.50805 5.79215L4.59965 6.06684L4.88919 6.06904C4.92669 6.06937 4.94221 6.11718 4.91207 6.13945L4.67915 6.31148L4.76652 6.58753C4.77786 6.62324 4.73713 6.65287 4.70661 6.63103L4.47107 6.46265L4.23552 6.63103C4.20501 6.65282 4.16436 6.62324 4.17561 6.58753L4.26299 6.31148L4.03007 6.13945C3.99993 6.11714 4.01544 6.06937 4.05294 6.06904L4.34249 6.06684L4.43408 5.79215C4.44585 5.75662 4.49619 5.75662 4.50805 5.79215Z" fill="#F5F5F5"/>
<path d="M4.50805 7.2292L4.59965 7.50389L4.88919 7.50609C4.92669 7.50642 4.94221 7.55423 4.91207 7.5765L4.67915 7.74853L4.76652 8.02457C4.77786 8.06029 4.73713 8.08992 4.70661 8.06807L4.47107 7.8997L4.23552 8.06807C4.20501 8.08987 4.16436 8.06034 4.17561 8.02457L4.26299 7.74853L4.03007 7.5765C3.99993 7.55428 4.01544 7.50642 4.05294 7.50609L4.34249 7.50389L4.43408 7.2292C4.44585 7.19362 4.49619 7.19362 4.50805 7.2292Z" fill="#F5F5F5"/>
<path d="M4.50805 8.66609L4.59965 8.94078L4.88919 8.94298C4.92669 8.94331 4.94221 8.99107 4.91207 9.01338L4.67915 9.18542L4.76652 9.46146C4.77786 9.49718 4.73713 9.52681 4.70661 9.50496L4.47107 9.33659L4.23552 9.50496C4.20501 9.52676 4.16436 9.49718 4.17561 9.46146L4.26299 9.18542L4.03007 9.01338C3.99993 8.99107 4.01544 8.94331 4.05294 8.94298L4.34249 8.94078L4.43408 8.66609C4.44585 8.63051 4.49619 8.63051 4.50805 8.66609Z" fill="#F5F5F5"/>
<path d="M4.50805 10.1029L4.59965 10.3776L4.88919 10.3798C4.92669 10.3802 4.94221 10.4279 4.91207 10.4502L4.67915 10.6223L4.76652 10.8983C4.77786 10.934 4.73713 10.9637 4.70661 10.9418L4.47107 10.7734L4.23552 10.9418C4.20501 10.9637 4.16436 10.934 4.17561 10.8983L4.26299 10.6223L4.03007 10.4502C3.99993 10.4279 4.01544 10.3802 4.05294 10.3798L4.34249 10.3776L4.43408 10.1029C4.44585 10.0674 4.49619 10.0674 4.50805 10.1029Z" fill="#F5F5F5"/>
<path d="M5.62333 5.08771L5.71493 5.3624L6.00447 5.3646C6.04197 5.36493 6.05749 5.41274 6.02735 5.43501L5.79443 5.60699L5.8818 5.88304C5.89315 5.91876 5.85241 5.94838 5.8219 5.92654L5.5863 5.75821L5.35076 5.92659C5.32024 5.94843 5.2796 5.91881 5.29085 5.88309L5.37822 5.60704L5.1453 5.43506C5.11516 5.41274 5.13068 5.36493 5.16818 5.36465L5.45772 5.36245L5.54932 5.08776C5.56118 5.05213 5.61147 5.05213 5.62333 5.08771Z" fill="#F5F5F5"/>
<path d="M5.62333 6.52457L5.71493 6.79926L6.00447 6.80146C6.04197 6.80179 6.05749 6.84956 6.02735 6.87187L5.79443 7.0439L5.8818 7.31995C5.89315 7.35567 5.85241 7.38529 5.8219 7.36345L5.5863 7.19507L5.35076 7.36345C5.32024 7.38525 5.2796 7.35567 5.29085 7.31995L5.37822 7.0439L5.1453 6.87187C5.11516 6.84956 5.13068 6.80179 5.16818 6.80146L5.45772 6.79926L5.54932 6.52457C5.56118 6.48904 5.61147 6.48904 5.62333 6.52457Z" fill="#F5F5F5"/>
<path d="M5.62333 7.96163L5.71493 8.23631L6.00447 8.23852C6.04197 8.23885 6.05749 8.28661 6.02735 8.30892L5.79443 8.48095L5.8818 8.757C5.89315 8.79272 5.85241 8.82235 5.8219 8.8005L5.5863 8.63208L5.35076 8.80045C5.32024 8.82225 5.2796 8.79267 5.29085 8.75695L5.37822 8.48091L5.1453 8.30888C5.11516 8.28656 5.13068 8.2388 5.16818 8.23847L5.45772 8.23627L5.54932 7.96158C5.56118 7.92605 5.61147 7.92605 5.62333 7.96163Z" fill="#F5F5F5"/>
<path d="M5.62333 9.39851L5.71493 9.6732L6.00447 9.6754C6.04197 9.67573 6.05749 9.72354 6.02735 9.74581L5.79443 9.91784L5.8818 10.1939C5.89315 10.2296 5.85241 10.2592 5.8219 10.2374L5.5863 10.069L5.35076 10.2374C5.32024 10.2592 5.2796 10.2296 5.29085 10.1939L5.37822 9.91784L5.1453 9.74581C5.11516 9.72359 5.13068 9.67573 5.16818 9.6754L5.45772 9.6732L5.54932 9.39851C5.56118 9.36293 5.61147 9.36293 5.62333 9.39851Z" fill="#F5F5F5"/>
<path d="M5.62333 10.8354L5.71493 11.1101L6.00447 11.1123C6.04197 11.1126 6.05749 11.1603 6.02735 11.1827L5.79443 11.3547L5.8818 11.6307C5.89315 11.6665 5.85241 11.6961 5.8219 11.6742L5.5863 11.5059L5.35076 11.6742C5.32024 11.696 5.2796 11.6665 5.29085 11.6307L5.37822 11.3547L5.1453 11.1827C5.11516 11.1603 5.13068 11.1126 5.16818 11.1123L5.45772 11.1101L5.54932 10.8354C5.56118 10.7998 5.61147 10.7998 5.62333 10.8354Z" fill="#F5F5F5"/>
<path d="M6.73852 5.79215L6.83011 6.06684L7.11966 6.06904C7.15716 6.06937 7.17268 6.11718 7.14254 6.13945L6.90961 6.31148L6.99699 6.58753C7.00833 6.62324 6.9676 6.65287 6.93708 6.63103L6.70154 6.46265L6.46599 6.63103C6.43547 6.65282 6.39483 6.62324 6.40608 6.58753L6.49346 6.31148L6.26054 6.13945C6.2304 6.11714 6.24591 6.06937 6.28341 6.06904L6.57296 6.06684L6.66455 5.79215C6.67641 5.75662 6.72666 5.75662 6.73852 5.79215Z" fill="#F5F5F5"/>
<path d="M6.73852 7.2292L6.83011 7.50389L7.11966 7.50609C7.15716 7.50642 7.17268 7.55423 7.14254 7.5765L6.90961 7.74853L6.99699 8.02457C7.00833 8.06029 6.9676 8.08992 6.93708 8.06807L6.70154 7.8997L6.46599 8.06807C6.43547 8.08987 6.39483 8.06034 6.40608 8.02457L6.49346 7.74853L6.26054 7.5765C6.2304 7.55428 6.24591 7.50642 6.28341 7.50609L6.57296 7.50389L6.66455 7.2292C6.67641 7.19362 6.72666 7.19362 6.73852 7.2292Z" fill="#F5F5F5"/>
<path d="M6.73852 8.66609L6.83011 8.94078L7.11966 8.94298C7.15716 8.94331 7.17268 8.99107 7.14254 9.01338L6.90961 9.18542L6.99699 9.46146C7.00833 9.49718 6.9676 9.52681 6.93708 9.50496L6.70154 9.33659L6.46599 9.50496C6.43547 9.52676 6.39483 9.49718 6.40608 9.46146L6.49346 9.18542L6.26054 9.01338C6.2304 8.99107 6.24591 8.94331 6.28341 8.94298L6.57296 8.94078L6.66455 8.66609C6.67641 8.63051 6.72666 8.63051 6.73852 8.66609Z" fill="#F5F5F5"/>
<path d="M6.73852 10.1029L6.83011 10.3776L7.11966 10.3798C7.15716 10.3802 7.17268 10.4279 7.14254 10.4502L6.90961 10.6223L6.99699 10.8983C7.00833 10.934 6.9676 10.9637 6.93708 10.9418L6.70154 10.7734L6.46599 10.9418C6.43547 10.9637 6.39483 10.934 6.40608 10.8983L6.49346 10.6223L6.26054 10.4502C6.2304 10.4279 6.24591 10.3802 6.28341 10.3798L6.57296 10.3776L6.66455 10.1029C6.67641 10.0674 6.72666 10.0674 6.73852 10.1029Z" fill="#F5F5F5"/>
<path d="M7.854 5.08772L7.94559 5.36241L8.23514 5.36461C8.27264 5.36494 8.28816 5.41275 8.25801 5.43502L8.02509 5.607L8.11247 5.88305C8.12381 5.91877 8.08308 5.94839 8.05256 5.92655L7.81701 5.75817L7.58147 5.92655C7.55095 5.94839 7.51031 5.91877 7.52156 5.88305L7.60894 5.607L7.37601 5.43502C7.34587 5.4127 7.36139 5.36489 7.39889 5.36461L7.68844 5.36241L7.78003 5.08772C7.7918 5.05214 7.84214 5.05214 7.854 5.08772Z" fill="#F5F5F5"/>
<path d="M7.854 6.52457L7.94559 6.79926L8.23514 6.80146C8.27264 6.80179 8.28816 6.84956 8.25801 6.87187L8.02509 7.0439L8.11247 7.31995C8.12381 7.35567 8.08308 7.38529 8.05256 7.36345L7.81701 7.19507L7.58147 7.36345C7.55095 7.38525 7.51031 7.35567 7.52156 7.31995L7.60894 7.0439L7.37601 6.87187C7.34587 6.84956 7.36139 6.80179 7.39889 6.80146L7.68844 6.79926L7.78003 6.52457C7.7918 6.48904 7.84214 6.48904 7.854 6.52457Z" fill="#F5F5F5"/>
<path d="M7.854 7.96162L7.94559 8.23631L8.23514 8.23851C8.27264 8.23884 8.28816 8.28661 8.25801 8.30892L8.02509 8.48095L8.11247 8.757C8.12381 8.79271 8.08308 8.82234 8.05256 8.8005L7.81701 8.63212L7.58147 8.8005C7.55095 8.82229 7.51031 8.79276 7.52156 8.757L7.60894 8.48095L7.37601 8.30892C7.34587 8.28661 7.36139 8.23884 7.39889 8.23851L7.68844 8.23631L7.78003 7.96162C7.7918 7.92604 7.84214 7.92604 7.854 7.96162Z" fill="#F5F5F5"/>
<path d="M7.854 9.39851L7.94559 9.6732L8.23514 9.6754C8.27264 9.67573 8.28816 9.72354 8.25801 9.74581L8.02509 9.91784L8.11247 10.1939C8.12381 10.2296 8.08308 10.2592 8.05256 10.2374L7.81701 10.069L7.58147 10.2374C7.55095 10.2592 7.51031 10.2296 7.52156 10.1939L7.60894 9.91784L7.37601 9.74581C7.34587 9.72359 7.36139 9.67573 7.39889 9.6754L7.68844 9.6732L7.78003 9.39851C7.7918 9.36293 7.84214 9.36293 7.854 9.39851Z" fill="#F5F5F5"/>
<path d="M7.854 10.8354L7.94559 11.1101L8.23514 11.1123C8.27264 11.1126 8.28816 11.1603 8.25801 11.1827L8.02509 11.3547L8.11247 11.6307C8.12381 11.6665 8.08308 11.6961 8.05256 11.6742L7.81701 11.5059L7.58147 11.6742C7.55095 11.696 7.51031 11.6665 7.52156 11.6307L7.60894 11.3547L7.37601 11.1827C7.34587 11.1603 7.36139 11.1126 7.39889 11.1123L7.68844 11.1101L7.78003 10.8354C7.7918 10.7998 7.84214 10.7998 7.854 10.8354Z" fill="#F5F5F5"/>
<path d="M8.96923 5.79215L9.06083 6.06684L9.35037 6.06904C9.38787 6.06937 9.40339 6.11718 9.37325 6.13945L9.14033 6.31148L9.2277 6.58753C9.23905 6.62324 9.19831 6.65287 9.1678 6.63103L8.93225 6.46265L8.6967 6.63103C8.66619 6.65282 8.62555 6.62324 8.6368 6.58753L8.72417 6.31148L8.49125 6.13945C8.46111 6.11714 8.47662 6.06937 8.51412 6.06904L8.80367 6.06684L8.89527 5.79215C8.90708 5.75662 8.95737 5.75662 8.96923 5.79215Z" fill="#F5F5F5"/>
<path d="M8.96923 7.2292L9.06083 7.50389L9.35037 7.50609C9.38787 7.50642 9.40339 7.55423 9.37325 7.5765L9.14033 7.74853L9.2277 8.02457C9.23905 8.06029 9.19831 8.08992 9.1678 8.06807L8.93225 7.8997L8.6967 8.06807C8.66619 8.08987 8.62555 8.06034 8.6368 8.02457L8.72417 7.74853L8.49125 7.5765C8.46111 7.55428 8.47662 7.50642 8.51412 7.50609L8.80367 7.50389L8.89527 7.2292C8.90708 7.19362 8.95737 7.19362 8.96923 7.2292Z" fill="#F5F5F5"/>
<path d="M8.96923 8.66609L9.06083 8.94078L9.35037 8.94298C9.38787 8.94331 9.40339 8.99107 9.37325 9.01338L9.14033 9.18542L9.2277 9.46146C9.23905 9.49718 9.19831 9.52681 9.1678 9.50496L8.93225 9.33659L8.6967 9.50496C8.66619 9.52676 8.62555 9.49718 8.6368 9.46146L8.72417 9.18542L8.49125 9.01338C8.46111 8.99107 8.47662 8.94331 8.51412 8.94298L8.80367 8.94078L8.89527 8.66609C8.90708 8.63051 8.95737 8.63051 8.96923 8.66609Z" fill="#F5F5F5"/>
<path d="M8.96923 10.1029L9.06083 10.3776L9.35037 10.3798C9.38787 10.3802 9.40339 10.4279 9.37325 10.4502L9.14033 10.6223L9.2277 10.8983C9.23905 10.934 9.19831 10.9637 9.1678 10.9418L8.93225 10.7734L8.6967 10.9418C8.66619 10.9637 8.62555 10.934 8.6368 10.8983L8.72417 10.6223L8.49125 10.4502C8.46111 10.4279 8.47662 10.3802 8.51412 10.3798L8.80367 10.3776L8.89527 10.1029C8.90708 10.0674 8.95737 10.0674 8.96923 10.1029Z" fill="#F5F5F5"/>
<path d="M10.0847 5.08772L10.1763 5.36241L10.4659 5.36461C10.5034 5.36494 10.5189 5.41275 10.4887 5.43502L10.2558 5.607L10.3432 5.88305C10.3545 5.91877 10.3138 5.94839 10.2833 5.92655L10.0477 5.75817L9.81218 5.92655C9.78167 5.94839 9.74103 5.91877 9.75228 5.88305L9.83965 5.607L9.60673 5.43502C9.57659 5.4127 9.5921 5.36489 9.6296 5.36461L9.91915 5.36241L10.0107 5.08772C10.0226 5.05214 10.0728 5.05214 10.0847 5.08772Z" fill="#F5F5F5"/>
<path d="M10.0847 6.52457L10.1763 6.79926L10.4659 6.80146C10.5034 6.80179 10.5189 6.84956 10.4887 6.87187L10.2558 7.0439L10.3432 7.31995C10.3545 7.35567 10.3138 7.38529 10.2833 7.36345L10.0477 7.19507L9.81218 7.36345C9.78167 7.38525 9.74103 7.35567 9.75228 7.31995L9.83965 7.0439L9.60673 6.87187C9.57659 6.84956 9.5921 6.80179 9.6296 6.80146L9.91915 6.79926L10.0107 6.52457C10.0226 6.48904 10.0728 6.48904 10.0847 6.52457Z" fill="#F5F5F5"/>
<path d="M10.0847 7.96162L10.1763 8.23631L10.4659 8.23851C10.5034 8.23884 10.5189 8.28661 10.4887 8.30892L10.2558 8.48095L10.3432 8.757C10.3545 8.79271 10.3138 8.82234 10.2833 8.8005L10.0477 8.63212L9.81218 8.8005C9.78167 8.82229 9.74103 8.79276 9.75228 8.757L9.83965 8.48095L9.60673 8.30892C9.57659 8.28661 9.5921 8.23884 9.6296 8.23851L9.91915 8.23631L10.0107 7.96162C10.0226 7.92604 10.0728 7.92604 10.0847 7.96162Z" fill="#F5F5F5"/>
<path d="M10.0847 9.39851L10.1763 9.6732L10.4659 9.6754C10.5034 9.67573 10.5189 9.72354 10.4887 9.74581L10.2558 9.91784L10.3432 10.1939C10.3545 10.2296 10.3138 10.2592 10.2833 10.2374L10.0477 10.069L9.81218 10.2374C9.78167 10.2592 9.74103 10.2296 9.75228 10.1939L9.83965 9.91784L9.60673 9.74581C9.57659 9.72359 9.5921 9.67573 9.6296 9.6754L9.91915 9.6732L10.0107 9.39851C10.0226 9.36293 10.0728 9.36293 10.0847 9.39851Z" fill="#F5F5F5"/>
<path d="M10.0847 10.8354L10.1763 11.1101L10.4659 11.1123C10.5034 11.1126 10.5189 11.1603 10.4887 11.1827L10.2558 11.3547L10.3432 11.6307C10.3545 11.6665 10.3138 11.6961 10.2833 11.6742L10.0477 11.5059L9.81218 11.6742C9.78167 11.696 9.74103 11.6665 9.75228 11.6307L9.83965 11.3547L9.60673 11.1827C9.57659 11.1603 9.5921 11.1126 9.6296 11.1123L9.91915 11.1101L10.0107 10.8354C10.0226 10.7998 10.0728 10.7998 10.0847 10.8354Z" fill="#F5F5F5"/>
</svg>
