<svg width="24" height="24" viewBox="0 0 24 24" fill="none" xmlns="http://www.w3.org/2000/svg">
<path d="M22.2026 4.13794H1.79742C0.804703 4.13794 0 4.94264 0 5.93536V18.0647C0 19.0574 0.804703 19.8622 1.79742 19.8622H22.2026C23.1952 19.8622 24 19.0575 24 18.0647V5.93536C24 4.94264 23.1953 4.13794 22.2026 4.13794Z" fill="#41479B"/>
<path d="M0.413813 12H1.13259L4.96556 9.48872V12H7.03453V9.48872L10.8675 12H11.5862C11.8148 12 12 11.8147 12 11.5862V11.258L8.71153 9.10345H12V7.03449H8.71148L12 4.87997V4.55175C12 4.32319 11.8147 4.13794 11.5862 4.13794H10.8674L7.03444 6.64922V4.13794H4.96547V6.64922L1.25831 4.22035C0.825469 4.35628 0.463594 4.65174 0.240609 5.03756L3.28856 7.03449H0V9.10345H3.28852L0 11.258V11.5862C0 11.8147 0.185203 12 0.413813 12Z" fill="#F5F5F5"/>
<path d="M12 7.4483H6.62067V4.13794H5.37933V7.4483H0V8.68964H5.37933V12H6.62067V8.68964H12V7.4483Z" fill="#FF4B55"/>
<path d="M0.385742 4.8235L3.79177 7.03445H4.5518L0.684805 4.52429C0.573758 4.61195 0.473398 4.7124 0.385742 4.8235Z" fill="#FF4B55"/>
<path d="M7.79446 7.03449L11.937 4.34546C11.865 4.22363 11.738 4.13794 11.5861 4.13794H11.4966L7.03442 7.03449H7.79446Z" fill="#FF4B55"/>
<path d="M4.19418 9.10352L0.0595703 11.7874C0.130867 11.9122 0.259867 12.0001 0.413898 12.0001H0.491945L4.95426 9.10352H4.19418Z" fill="#FF4B55"/>
<path d="M11.9934 11.6187L8.11843 9.10352H7.3584L11.7587 11.9598C11.8906 11.8987 11.981 11.7705 11.9934 11.6187Z" fill="#FF4B55"/>
<path d="M6.12522 14.2562L6.43755 15.2873L7.43847 14.8886C7.52388 14.8546 7.6015 14.952 7.54938 15.0276L6.93794 15.9147L7.87366 16.4487C7.95349 16.4942 7.92578 16.6156 7.8341 16.622L6.7593 16.6971L6.92528 17.7616C6.93944 17.8524 6.82722 17.9065 6.76507 17.8387L6.03625 17.0452L5.30744 17.8387C5.24528 17.9064 5.13307 17.8524 5.14722 17.7616L5.31321 16.6971L4.23841 16.622C4.14672 16.6156 4.11897 16.4942 4.19885 16.4487L5.13457 15.9147L4.52313 15.0276C4.471 14.952 4.54863 14.8546 4.63403 14.8886L5.63496 15.2873L5.94728 14.2562C5.97405 14.1682 6.0986 14.1682 6.12522 14.2562Z" fill="#F5F5F5"/>
<path d="M18.435 6.92485L18.5876 7.42852L19.0765 7.2338C19.1182 7.21721 19.1562 7.26474 19.1307 7.30173L18.832 7.73509L19.2891 7.99594C19.3281 8.01816 19.3146 8.07751 19.2697 8.0806L18.7447 8.11726L18.8258 8.63724C18.8327 8.68163 18.7779 8.70802 18.7475 8.67493L18.3915 8.28732L18.0355 8.67493C18.0051 8.70798 17.9503 8.68159 17.9572 8.63724L18.0382 8.11726L17.5132 8.0806C17.4684 8.07746 17.4549 8.01816 17.4939 7.99594L17.951 7.73509L17.6523 7.30173C17.6268 7.26474 17.6648 7.21721 17.7065 7.2338L18.1954 7.42852L18.348 6.92485C18.3612 6.88182 18.4221 6.88182 18.435 6.92485Z" fill="#F5F5F5"/>
<path d="M15.0328 10.7909L15.1854 11.2946L15.6743 11.0999C15.716 11.0833 15.754 11.1308 15.7285 11.1678L15.4298 11.6011L15.8869 11.862C15.9259 11.8842 15.9124 11.9436 15.8676 11.9467L15.3426 11.9833L15.4236 12.5033C15.4306 12.5477 15.3757 12.5741 15.3454 12.541L14.9894 12.1534L14.6333 12.541C14.603 12.574 14.5482 12.5476 14.5551 12.5033L14.6361 11.9833L14.1111 11.9467C14.0663 11.9435 14.0528 11.8842 14.0918 11.862L14.5489 11.6011L14.2502 11.1678C14.2247 11.1308 14.2627 11.0833 14.3044 11.0999L14.7933 11.2946L14.9459 10.7909C14.9589 10.7479 15.0198 10.7479 15.0328 10.7909Z" fill="#F5F5F5"/>
<path d="M21.6536 9.13572L21.8062 9.63939L22.2951 9.44467C22.3368 9.42808 22.3748 9.47561 22.3493 9.51259L22.0506 9.94595L22.5077 10.2068C22.5467 10.229 22.5332 10.2884 22.4884 10.2915L21.9634 10.3281L22.0445 10.8481C22.0514 10.8925 21.9965 10.9189 21.9662 10.8858L21.6102 10.4982L21.2541 10.8858C21.2238 10.9188 21.169 10.8925 21.1759 10.8481L21.257 10.3281L20.732 10.2915C20.6872 10.2883 20.6736 10.229 20.7126 10.2068L21.1697 9.94595L20.8711 9.51259C20.8456 9.47561 20.8835 9.42808 20.9252 9.44467L21.4142 9.63939L21.5667 9.13572C21.5797 9.09278 21.6406 9.09278 21.6536 9.13572Z" fill="#F5F5F5"/>
<path d="M18.435 15.7563L18.5876 16.26L19.0765 16.0652C19.1182 16.0486 19.1562 16.0962 19.1307 16.1332L18.832 16.5665L19.2891 16.8274C19.3281 16.8496 19.3146 16.9089 19.2697 16.912L18.7447 16.9487L18.8258 17.4687C18.8327 17.5131 18.7779 17.5394 18.7475 17.5064L18.3915 17.1187L18.0355 17.5064C18.0051 17.5394 17.9503 17.513 17.9572 17.4687L18.0382 16.9487L17.5132 16.912C17.4684 16.9089 17.4549 16.8496 17.4939 16.8274L17.951 16.5665L17.6523 16.1332C17.6268 16.0962 17.6648 16.0486 17.7065 16.0652L18.1954 16.26L18.348 15.7563C18.3612 15.7134 18.4221 15.7134 18.435 15.7563Z" fill="#F5F5F5"/>
<path d="M19.6154 11.6959L19.493 12.0632L19.1058 12.0662C19.0557 12.0667 19.0349 12.1306 19.0753 12.1604L19.3867 12.3904L19.2699 12.7595C19.2548 12.8073 19.3092 12.8468 19.3499 12.8177L19.6649 12.5926L19.9799 12.8177C20.0207 12.8468 20.0751 12.8073 20.06 12.7595L19.9432 12.3904L20.2547 12.1604C20.295 12.1306 20.2742 12.0667 20.2241 12.0662L19.837 12.0632L19.7145 11.6959C19.6985 11.6484 19.6313 11.6484 19.6154 11.6959Z" fill="#F5F5F5"/>
</svg>
