<svg width="24" height="24" viewBox="0 0 24 24" fill="none" xmlns="http://www.w3.org/2000/svg">
<path d="M18.6206 4.13794H5.37939V19.8622H18.6206V4.13794Z" fill="#F5F5F5"/>
<path d="M1.79742 4.13782C0.804703 4.13782 0 4.94252 0 5.93524V18.0646C0 19.0572 0.804703 19.862 1.79742 19.862H5.37933V4.13782H1.79742Z" fill="#FF4B55"/>
<path d="M22.2025 4.13782H18.6206V19.8619H22.2025C23.1952 19.8619 23.9999 19.0572 23.9999 18.0645V5.93524C23.9999 4.94252 23.1952 4.13782 22.2025 4.13782Z" fill="#FF4B55"/>
<path d="M14.5111 13.8168L16.9665 12.4137L16.4031 12.132C16.2451 12.053 16.1546 11.8824 16.178 11.7072L16.3613 10.3327L15.3218 10.6352C15.0922 10.702 14.8538 10.5607 14.8022 10.3272L14.7026 9.87724L13.7265 11.0196C13.5913 11.1779 13.3334 11.057 13.3687 10.8517L13.7856 8.42791L13.1474 8.60242C12.961 8.65342 12.7641 8.56858 12.6732 8.39805L12.0012 7.13847V7.1366L12.0007 7.13753L12.0002 7.1366V7.13847L11.3281 8.39805C11.2372 8.56853 11.0403 8.65338 10.8539 8.60242L10.2157 8.42791L10.6325 10.8517C10.6678 11.0569 10.41 11.1779 10.2747 11.0196L9.29859 9.87728L9.19903 10.3273C9.14737 10.5608 8.90906 10.702 8.67942 10.6352L7.63987 10.3328L7.8232 11.7072C7.84659 11.8824 7.75612 12.053 7.5981 12.1321L7.03467 12.4137L9.49012 13.8168C9.74446 13.9622 9.85593 14.2705 9.75332 14.5448L9.54342 15.1062L11.6474 14.9266C11.7638 14.9167 11.8629 15.0104 11.8595 15.1272L11.7932 17.3793H12.207L12.1407 15.1271C12.1372 15.0103 12.2363 14.9166 12.3528 14.9265L14.4577 15.1062L14.2478 14.5448C14.1453 14.2704 14.2567 13.9621 14.5111 13.8168Z" fill="#FF4B55"/>
</svg>
