<svg width="24" height="24" viewBox="0 0 24 24" fill="none" xmlns="http://www.w3.org/2000/svg">
<path d="M22.2025 4.13794H1.79742C0.80475 4.13794 0 4.94264 0 5.93536V9.37931H23.9999V5.93363C23.999 4.94175 23.1946 4.13794 22.2025 4.13794Z" fill="#464655"/>
<path d="M24 14.6207H0V18.0647C0 19.0574 0.804703 19.8621 1.79742 19.8621H22.2025C23.1946 19.8621 23.999 19.0583 23.9999 18.0665V14.6208H24V14.6207Z" fill="#73AF00"/>
<path d="M24 9.37927H0V14.6204H24V9.37927Z" fill="#FF4B55"/>
<path d="M4.47175 10.9296L4.7177 11.4631L5.28812 11.3228C5.32375 11.314 5.35323 11.351 5.33678 11.3838L5.07306 11.9087L5.53843 12.2672C5.5675 12.2896 5.55695 12.3357 5.52104 12.3433L4.94622 12.4644L4.95611 13.0517C4.95672 13.0884 4.91406 13.1089 4.88579 13.0856L4.43275 12.7117L3.9797 13.0856C3.95139 13.109 3.90878 13.0885 3.90939 13.0517L3.91928 12.4644L3.34445 12.3433C3.30854 12.3357 3.29804 12.2896 3.32706 12.2672L3.79243 11.9087L3.52872 11.3838C3.51226 11.351 3.54175 11.314 3.57737 11.3228L4.14779 11.4631L4.39375 10.9296C4.40908 10.8963 4.45647 10.8963 4.47175 10.9296Z" fill="#F5F5F5"/>
<path d="M24 9.10364H0V9.80723H24V9.10364Z" fill="#F5F5F5"/>
<path d="M24 14.1934H0V14.897H24V14.1934Z" fill="#F5F5F5"/>
<path d="M10.9312 11.8307L0.611906 4.58496C0.236953 4.9144 0 5.39707 0 5.93538V18.0647C0 18.603 0.236953 19.0856 0.611906 19.4151L10.9312 12.1694C11.0486 12.087 11.0486 11.9131 10.9312 11.8307Z" fill="#41479B"/>
<path d="M3.44811 10.0709L4.37768 11.0223L5.57881 10.4508C5.73429 10.3768 5.89451 10.5434 5.81459 10.6959L5.19701 11.8739L6.11168 12.8397C6.23014 12.9647 6.12125 13.1685 5.95147 13.1396L4.64023 12.9163L4.00442 14.0846C3.92211 14.2359 3.69458 14.1953 3.66964 14.0249L3.47679 12.7088L2.16917 12.4652C1.99986 12.4337 1.96817 12.2048 2.12253 12.1284L3.31465 11.5383L3.14225 10.2194C3.11989 10.0486 3.32773 9.94776 3.44811 10.0709Z" fill="#FFE15A"/>
</svg>
