<svg width="24" height="24" viewBox="0 0 24 24" fill="none" xmlns="http://www.w3.org/2000/svg">
<path d="M22.2026 19.8621H1.79742C0.804703 19.8621 0 19.0574 0 18.0646V5.93536C0 4.94269 0.804703 4.13794 1.79742 4.13794H22.2026C23.1952 4.13794 24 4.94264 24 5.93536V18.0647C24 19.0574 23.1953 19.8621 22.2026 19.8621Z" fill="#82AFFF"/>
<path d="M22.3826 4.14697L0 15.7242V16.5517L23.2905 4.50486C23.0334 4.30902 22.722 4.18072 22.3826 4.14697Z" fill="#FFE15A"/>
<path d="M1.61739 19.8531L24 8.27594V7.44836L0.709473 19.4952C0.966629 19.6911 1.27802 19.8194 1.61739 19.8531Z" fill="#FFE15A"/>
<path d="M23.2905 4.50488L0 16.5517V18.0646C0 18.6483 0.278391 19.1668 0.709453 19.4951L24 7.44826V5.93532C24 5.35168 23.7216 4.8332 23.2905 4.50488Z" fill="#FF4B55"/>
<path d="M4.3416 5.76465L4.93776 7.55223L6.82209 7.56681C6.92746 7.56765 6.97115 7.70209 6.8864 7.76471L5.37051 8.88413L5.93891 10.6808C5.9707 10.7812 5.85632 10.8643 5.77059 10.8031L4.23754 9.70726L2.70449 10.8031C2.6188 10.8644 2.50438 10.7812 2.53616 10.6808L3.10457 8.88413L1.58868 7.76471C1.50388 7.70213 1.54762 7.56765 1.65299 7.56681L3.53732 7.55223L4.13348 5.76465C4.1669 5.66471 4.30823 5.66471 4.3416 5.76465Z" fill="#FFE15A"/>
</svg>
