<svg width="24" height="24" viewBox="0 0 24 24" fill="none" xmlns="http://www.w3.org/2000/svg">
<path d="M22.2026 4.13794H1.79742C0.804703 4.13794 0 4.94264 0 5.93536V18.0647C0 19.0574 0.804703 19.8621 1.79742 19.8621H22.2026C23.1952 19.8621 24 19.0574 24 18.0647V5.93536C24 4.94264 23.1953 4.13794 22.2026 4.13794Z" fill="#FF4B55"/>
<path d="M0.413813 12H11.5862C11.8148 12 12 11.8148 12 11.5862V4.55175C12 4.32324 11.8148 4.13794 11.5862 4.13794H1.79742C0.804703 4.13799 0 4.94269 0 5.93541V11.5863C0 11.8148 0.185297 12 0.413813 12Z" fill="#41479B"/>
<path d="M5.89525 9.26237L5.70526 9.83195L5.10484 9.83659C5.02712 9.8372 4.99487 9.93643 5.0574 9.98256L5.5404 10.3392L5.35932 10.9117C5.33589 10.9858 5.42026 11.0471 5.4835 11.0019L5.97198 10.6527L6.46046 11.0019C6.52375 11.047 6.60807 10.9858 6.58464 10.9117L6.40356 10.3392L6.88656 9.98256C6.94909 9.93638 6.91689 9.83715 6.83912 9.83659L6.2387 9.83195L6.04871 9.26237C6.02411 9.18859 5.91986 9.18859 5.89525 9.26237Z" fill="#F5F5F5"/>
<path d="M5.90997 4.82124L5.75632 5.28202L5.27064 5.28582C5.20774 5.28629 5.18168 5.36654 5.23225 5.4039L5.62296 5.69241L5.47647 6.15549C5.45749 6.21545 5.52578 6.26504 5.57693 6.22848L5.97203 5.94606L6.36714 6.22848C6.41828 6.26504 6.48658 6.21545 6.4676 6.15549L6.32111 5.69241L6.71182 5.4039C6.76239 5.36654 6.73633 5.28629 6.67343 5.28582L6.18775 5.28202L6.0341 4.82124C6.01422 4.76157 5.92989 4.76157 5.90997 4.82124Z" fill="#F5F5F5"/>
<path d="M8.36676 6.19201L8.2131 6.65279L7.72743 6.65658C7.66452 6.65705 7.63846 6.7373 7.68904 6.77466L8.07974 7.06318L7.93326 7.52626C7.91427 7.58621 7.98257 7.6358 8.03371 7.59924L8.42882 7.31682L8.82393 7.59924C8.87507 7.6358 8.94337 7.58621 8.92438 7.52626L8.7779 7.06318L9.1686 6.77466C9.21918 6.7373 9.19312 6.65705 9.13021 6.65658L8.64454 6.65279L8.49088 6.19201C8.47101 6.13229 8.38668 6.13229 8.36676 6.19201Z" fill="#F5F5F5"/>
<path d="M3.5047 6.73506L3.35104 7.19584L2.86537 7.19964C2.80246 7.20011 2.7764 7.28036 2.82698 7.31772L3.21768 7.60623L3.0712 8.06931C3.05221 8.12926 3.12051 8.17886 3.17165 8.1423L3.56676 7.85987L3.96187 8.1423C4.01301 8.17886 4.08131 8.12926 4.06232 8.06931L3.91584 7.60623L4.30654 7.31772C4.35712 7.28036 4.33106 7.20011 4.26815 7.19964L3.78248 7.19584L3.62882 6.73506C3.60895 6.67539 3.52457 6.67539 3.5047 6.73506Z" fill="#F5F5F5"/>
<path d="M7.30778 8.23913L7.22149 8.49778L6.94886 8.49989C6.91357 8.50017 6.89894 8.54522 6.92735 8.56622L7.14668 8.72817L7.06446 8.98814C7.05382 9.0218 7.09211 9.04964 7.12085 9.02911L7.34266 8.87058L7.56447 9.02911C7.59316 9.04964 7.6315 9.0218 7.62086 8.98814L7.53864 8.72817L7.75797 8.56622C7.78638 8.54527 7.77175 8.50022 7.73646 8.49989L7.46383 8.49778L7.37753 8.23913C7.36633 8.20561 7.31894 8.20561 7.30778 8.23913Z" fill="#F5F5F5"/>
</svg>
