<svg width="24" height="24" viewBox="0 0 24 24" fill="none" xmlns="http://www.w3.org/2000/svg">
<path d="M1.79742 4.13782C0.804703 4.13782 0 4.94252 0 5.93524V18.0646C0 19.0572 0.804703 19.862 1.79742 19.862H8.00002V4.13782H1.79742Z" fill="#73AF00"/>
<path d="M16.0004 4.13794H8.00024V19.8622H16.0004V4.13794Z" fill="#F5F5F5"/>
<path d="M22.2026 4.13782H16V19.8619H22.2026C23.1953 19.8619 24 19.0572 24 18.0645V5.93524C24 4.94252 23.1953 4.13782 22.2026 4.13782Z" fill="#FF4B55"/>
<path d="M12.7137 12.37L12 12.7269V13.0837H12.3569L12.7137 12.37Z" fill="#FFD250"/>
<path d="M12 13.9758C11.9014 13.9758 11.8215 13.896 11.8215 13.7974V13.0837C11.8215 12.9851 11.9014 12.9053 12 12.9053C12.0986 12.9053 12.1784 12.9851 12.1784 13.0837V13.7974C12.1784 13.896 12.0986 13.9758 12 13.9758Z" fill="#00C3A0"/>
<path d="M11.9999 13.2622C11.2991 13.2622 10.6224 12.9918 10.0943 12.5008C10.0222 12.4337 10.018 12.3208 10.0851 12.2487C10.1527 12.1767 10.2655 12.1729 10.3372 12.2394C10.7992 12.6689 11.3897 12.9053 12 12.9053C12.6104 12.9053 13.2009 12.6689 13.6628 12.2394C13.7348 12.1727 13.8475 12.1763 13.9149 12.2487C13.982 12.3208 13.9778 12.4337 13.9057 12.5008C13.3775 12.9918 12.7008 13.2622 11.9999 13.2622Z" fill="#00C3A0"/>
<path d="M11.9999 13.9758C11.5425 13.9758 11.0994 13.8421 10.7185 13.5892L10.9161 13.2919C11.5601 13.7198 12.4397 13.7198 13.0836 13.2919L13.2812 13.5892C12.9003 13.8421 12.4573 13.9758 11.9999 13.9758Z" fill="#00AADC"/>
<path d="M11.7175 11.567L11.3235 12.1767L11.2566 12.3774L12.2825 12.1395L11.7175 11.567Z" fill="#732D37"/>
<path d="M10.908 12.5735C10.4363 12.5735 9.87016 12.1766 9.71997 11.2921L10.072 11.2326C10.1967 11.968 10.6493 12.2172 10.9209 12.2165C11.0042 12.2142 11.0911 12.1855 11.0979 12.1266C11.1059 12.0562 11.1078 12.0395 10.9212 11.9764C10.8198 11.9421 10.7048 11.9033 10.6241 11.8109C10.2978 11.4382 10.7396 11.0438 10.9519 10.8542C10.9894 10.8207 11.0049 10.7923 11.0009 10.7815C10.9893 10.751 10.9192 10.7049 10.8403 10.7049C10.6136 10.7049 10.4416 10.5768 10.3916 10.3709C10.3397 10.1576 10.4378 9.93282 10.6246 9.8363L10.7884 10.1534C10.7447 10.1761 10.7273 10.2405 10.7384 10.2865C10.7428 10.305 10.7534 10.348 10.8404 10.348C11.0589 10.348 11.2668 10.477 11.3343 10.6544C11.3633 10.73 11.4068 10.9265 11.1897 11.1204C10.9554 11.3297 10.8151 11.4872 10.8928 11.5759C10.9104 11.5959 10.9859 11.6216 11.0357 11.6383C11.1963 11.6927 11.4954 11.7938 11.4525 12.1675C11.4257 12.4025 11.2159 12.5656 10.9308 12.5733C10.9231 12.5733 10.9154 12.5735 10.908 12.5735Z" fill="#AAD264"/>
<path d="M12.3569 10.5857C12.3569 10.5857 12.7137 9.87207 12 9.51522C12 9.51522 14.4979 9.15836 14.1411 12.37L14.1409 12.3699C13.9067 12.1825 13.559 11.8401 13.4348 11.5671L12.3569 10.9426V10.5857Z" fill="#874150"/>
<path d="M12 11.2994L13.7842 12.37C13.7842 12.37 13.7842 12.37 13.0705 12.7268L12 11.6563V11.2994Z" fill="#732D37"/>
<path d="M11.2864 10.229C11.4834 10.229 11.6432 10.3888 11.6432 10.5858L11.6429 10.5862C11.43 10.7991 11.3772 11.1243 11.5118 11.3936L11.5925 11.5549C11.6261 11.6221 11.6703 11.6835 11.7235 11.7367L12.7138 12.727V12.2338C12.7138 11.6195 12.5707 11.0135 12.296 10.464C12.1146 10.1013 11.7439 9.87219 11.3385 9.87219H11.2864V10.229Z" fill="#783C46"/>
<path d="M11.2863 9.87207L10.9294 10.2289V10.5858C10.9294 10.5858 11.3539 10.3706 11.497 10.302C11.597 10.2541 11.5788 10.1408 11.5214 10.0862C11.4768 10.0437 11.2863 9.87207 11.2863 9.87207Z" fill="#FFD250"/>
<path d="M12 14.6896C10.3274 14.6896 8.9668 13.3289 8.9668 11.6564H9.32366C9.32366 13.1322 10.5242 14.3327 12 14.3327C13.4759 14.3327 14.6764 13.1322 14.6764 11.6564H15.0333C15.0332 13.3289 13.6725 14.6896 12 14.6896Z" fill="#AAD264"/>
<path d="M9.34323 12.9573C9.47697 12.9573 9.58539 12.8489 9.58539 12.7152C9.58539 12.5814 9.47697 12.473 9.34323 12.473C9.20949 12.473 9.10107 12.5814 9.10107 12.7152C9.10107 12.8489 9.20949 12.9573 9.34323 12.9573Z" fill="#FFE15A"/>
<path d="M9.87863 13.8123C10.0124 13.8123 10.1208 13.7039 10.1208 13.5702C10.1208 13.4364 10.0124 13.328 9.87863 13.328C9.74489 13.328 9.63647 13.4364 9.63647 13.5702C9.63647 13.7039 9.74489 13.8123 9.87863 13.8123Z" fill="#FFE15A"/>
<path d="M10.748 14.4588C10.8818 14.4588 10.9902 14.3504 10.9902 14.2166C10.9902 14.0829 10.8818 13.9745 10.748 13.9745C10.6143 13.9745 10.5059 14.0829 10.5059 14.2166C10.5059 14.3504 10.6143 14.4588 10.748 14.4588Z" fill="#FFE15A"/>
<path d="M14.6828 12.9573C14.8166 12.9573 14.925 12.8489 14.925 12.7152C14.925 12.5814 14.8166 12.473 14.6828 12.473C14.5491 12.473 14.4407 12.5814 14.4407 12.7152C14.4407 12.8489 14.5491 12.9573 14.6828 12.9573Z" fill="#FFE15A"/>
<path d="M14.1469 13.8123C14.2807 13.8123 14.3891 13.7039 14.3891 13.5702C14.3891 13.4364 14.2807 13.328 14.1469 13.328C14.0132 13.328 13.9048 13.4364 13.9048 13.5702C13.9048 13.7039 14.0132 13.8123 14.1469 13.8123Z" fill="#FFE15A"/>
<path d="M13.2776 14.4588C13.4113 14.4588 13.5197 14.3504 13.5197 14.2166C13.5197 14.0829 13.4113 13.9745 13.2776 13.9745C13.1438 13.9745 13.0354 14.0829 13.0354 14.2166C13.0354 14.3504 13.1438 14.4588 13.2776 14.4588Z" fill="#FFE15A"/>
<path d="M12.1783 14.1543H11.8215C11.6244 14.1543 11.4646 13.9945 11.4646 13.7974C11.4646 13.6003 11.6244 13.4406 11.8215 13.4406H12.1783C12.3754 13.4406 12.5352 13.6003 12.5352 13.7974C12.5352 13.9945 12.3754 14.1543 12.1783 14.1543Z" fill="#FFB478"/>
<path d="M13.4348 11.567C13.5538 11.9164 13.8065 12.2361 14.1409 12.3698L14.1411 12.37C14.4979 9.15836 12 9.51522 12 9.51522C13.7842 9.51522 13.4348 11.567 13.4348 11.567Z" fill="#9B4B5A"/>
</svg>
