<svg width="24" height="24" viewBox="0 0 24 24" fill="none" xmlns="http://www.w3.org/2000/svg">
<path d="M22.2026 4.13794H1.79742C0.804703 4.13794 0 4.94264 0 5.93536V6.38428H24V5.93536C24 4.94264 23.1953 4.13794 22.2026 4.13794Z" fill="#73AF00"/>
<path d="M24 6.38437H0V8.63076H24V6.38437Z" fill="#FFE15A"/>
<path d="M24 8.63062H0V10.877H24V8.63062Z" fill="#FF4B55"/>
<path d="M0 18.0646C0 19.0573 0.804703 19.8621 1.79742 19.8621H22.2026C23.1952 19.8621 24 19.0574 24 18.0646V17.6157H0V18.0646Z" fill="#73AF00"/>
<path d="M24 15.3694H0V17.6158H24V15.3694Z" fill="#FFE15A"/>
<path d="M24 13.1231H0V15.3695H24V13.1231Z" fill="#FF4B55"/>
<path d="M0.940647 4.35489C0.581818 4.5498 0.297006 4.86339 0.138428 5.24289V18.7571C0.297006 19.1366 0.581865 19.4502 0.940647 19.6451L9.17893 13.1231H24V10.8768H9.17893L0.940647 4.35489Z" fill="#464655"/>
<path d="M0.589359 19.3955L9.93103 12L0.589359 4.60449C0.227344 4.93332 0 5.40779 0 5.93537V18.0647C0 18.5922 0.227344 19.0667 0.589359 19.3955Z" fill="#F5F5F5"/>
<path d="M4.03423 8.97412L4.90625 10.741L6.85606 11.0243L5.44512 12.3996L5.77821 14.3415L4.03423 13.4247L2.29025 14.3415L2.62334 12.3996L1.2124 11.0243L3.16226 10.741L4.03423 8.97412Z" fill="#FF4B55"/>
<path d="M6.29651 12.2251L3.9792 10.4312C3.70807 9.79589 3.32271 9.38611 2.99557 9.38611C2.71765 9.38611 2.58176 9.64369 2.54285 9.79847C2.3427 9.89114 2.29573 10.0756 2.29376 10.0836C2.29048 10.0968 2.29362 10.1109 2.30196 10.1216C2.3104 10.1323 2.32324 10.1385 2.33688 10.1385L2.37837 10.1377C2.56456 10.1334 2.87477 10.1253 2.95409 10.7167C3.00359 11.0861 2.93009 11.7476 2.69642 12.2462C2.5331 12.5946 2.58706 12.8763 2.58945 12.8881C2.5939 12.9104 2.61457 12.925 2.63763 12.9236C2.6412 12.9232 2.64982 12.9229 2.66079 12.9225L2.84829 13.9825C2.85209 14.0037 2.87042 14.0192 2.89198 14.0192H5.68962C5.7101 14.0192 5.72792 14.0052 5.73274 13.9853L6.04526 12.7017C6.04535 12.7013 6.04577 12.7011 6.04587 12.7007C6.04606 12.7 6.04582 12.6993 6.04596 12.6986L6.14524 12.2909C6.2187 12.2996 6.26238 12.3041 6.26482 12.3044C6.28601 12.3072 6.30326 12.2951 6.31052 12.2767C6.31779 12.2584 6.31221 12.2373 6.29651 12.2251Z" fill="#FFE15A"/>
<path d="M6.29651 12.2251L3.9792 10.4312C3.70807 9.79589 3.32271 9.38611 2.99557 9.38611C2.71765 9.38611 2.58176 9.64369 2.54285 9.79847C2.3427 9.89114 2.29573 10.0756 2.29376 10.0836C2.29048 10.0968 2.29362 10.1109 2.30196 10.1216C2.3104 10.1323 2.32324 10.1385 2.33688 10.1385L2.37837 10.1377C2.56456 10.1334 2.87477 10.1253 2.95409 10.7167C3.00359 11.0861 2.93009 11.7476 2.69642 12.2462C2.5331 12.5946 2.58706 12.8763 2.58945 12.8881C2.5939 12.9104 2.61457 12.925 2.63763 12.9236C2.6412 12.9232 2.64982 12.9229 2.66079 12.9225L2.84829 13.9825C2.85209 14.0037 2.87042 14.0192 2.89198 14.0192H5.68962C5.7101 14.0192 5.72792 14.0052 5.73274 13.9853L6.04526 12.7017C6.04535 12.7013 6.04577 12.7011 6.04587 12.7007C6.04606 12.7 6.04582 12.6993 6.04596 12.6986L6.14524 12.2909C6.2187 12.2996 6.26238 12.3041 6.26482 12.3044C6.28601 12.3072 6.30326 12.2951 6.31052 12.2767C6.31779 12.2584 6.31221 12.2373 6.29651 12.2251ZM2.77671 12.284C2.98821 11.8329 3.10226 11.154 3.04207 10.705C2.9562 10.0646 2.59676 10.0445 2.40265 10.0484C2.43017 9.99492 2.48735 9.91636 2.59784 9.87131C2.61152 9.86578 2.62151 9.85364 2.62451 9.83911C2.6276 9.82425 2.70317 9.47498 2.99548 9.47498C3.28418 9.47498 3.64845 9.87755 3.90195 10.4766C3.9049 10.4836 3.90963 10.4898 3.91563 10.4944L6.11641 12.1981C5.72852 12.151 4.71495 12.0114 4.11457 11.7748C3.80074 11.6512 3.72921 11.4631 3.66612 11.2971C3.65745 11.2741 3.63167 11.2628 3.60879 11.2714C3.58587 11.2801 3.57434 11.3058 3.5831 11.3287C3.64582 11.4937 3.73174 11.7196 4.08204 11.8576C4.15343 11.8857 4.23049 11.9125 4.31154 11.9379C4.29743 11.9807 4.20762 12.1988 3.80942 12.3419C3.48673 12.4578 3.25709 12.6533 3.22573 12.8299C3.10779 12.8294 3.00256 12.8296 2.91415 12.8302V12.702C2.91415 12.6045 3.00799 12.4635 3.10732 12.3141C3.24574 12.106 3.40263 11.8701 3.40263 11.6287C3.40263 11.6042 3.38271 11.5843 3.3582 11.5843C3.33368 11.5843 3.31376 11.6042 3.31376 11.6287C3.31376 11.8432 3.16474 12.0673 3.03331 12.2649C2.92165 12.4327 2.82527 12.5777 2.82527 12.7019V12.8309C2.75824 12.8316 2.7057 12.8325 2.67143 12.8334C2.66351 12.7499 2.65896 12.5352 2.77671 12.284ZM4.53785 12.0027C4.48648 12.1455 4.33442 12.1938 4.22168 12.2093C4.34388 12.1007 4.38513 12.0002 4.39671 11.9635C4.44274 11.9771 4.48999 11.9901 4.53785 12.0027ZM4.62345 12.0248C4.67234 12.0371 4.72165 12.0489 4.77148 12.0603C4.72615 12.1525 4.60502 12.1978 4.47265 12.2167C4.53827 12.1751 4.59387 12.1137 4.62345 12.0248ZM5.8789 13.0096C5.42871 12.8709 4.12952 12.8355 3.31531 12.8302C3.34287 12.7294 3.47065 12.5969 3.68702 12.4907C3.68923 12.4911 3.69124 12.4921 3.69354 12.4921C4.90901 12.4964 5.75506 12.6767 5.94888 12.7221L5.8789 13.0096ZM5.82157 13.245L5.64401 13.0469C5.72866 13.0616 5.80081 13.078 5.85785 13.0963L5.82157 13.245ZM3.52451 13.2763L3.61085 13.3576C3.58427 13.3574 3.55807 13.3571 3.53088 13.357C3.52854 13.3309 3.52657 13.3033 3.52451 13.2763ZM5.76846 13.4631L5.54285 13.2159C5.52799 13.1996 5.50343 13.1966 5.48538 13.209L5.22045 13.3863L5.02109 13.1678C5.00567 13.1509 4.97951 13.1486 4.96127 13.1625L4.72179 13.3462L4.50448 13.1316C4.48817 13.1155 4.4621 13.1145 4.44467 13.1292L4.21071 13.326L3.99152 13.1226C3.97493 13.1072 3.9492 13.1069 3.93204 13.1218L3.70338 13.3227L3.51537 13.1458C3.51209 13.093 3.50918 13.0387 3.50665 12.9827L3.67498 13.148C3.69138 13.1642 3.71749 13.1649 3.73502 13.15L3.97048 12.9473L4.18559 13.1591C4.20181 13.1751 4.22763 13.1761 4.24521 13.1616L4.48142 12.9648L4.70806 13.1783C4.72404 13.1933 4.74842 13.1945 4.76552 13.1812L5.00257 12.9994L5.2009 13.227C5.2159 13.2442 5.24154 13.2471 5.2602 13.2339L5.52387 13.046L5.78599 13.3384C5.78913 13.3419 5.79307 13.344 5.79692 13.3463L5.76846 13.4631ZM5.6352 13.4488C5.56451 13.4399 5.46579 13.4293 5.3321 13.4185L5.5031 13.304L5.6352 13.4488ZM5.11549 13.403C5.02634 13.3974 4.92635 13.392 4.8147 13.3868L4.98298 13.2578L5.11549 13.403ZM4.62874 13.3791C4.52712 13.3752 4.41663 13.3717 4.29795 13.3687L4.47092 13.2232L4.62874 13.3791ZM4.12188 13.3646C4.01951 13.3625 3.91071 13.3608 3.79629 13.3594L3.96068 13.215L4.12188 13.3646ZM3.57152 12.922C3.66368 12.9232 3.75968 12.9249 3.85788 12.927L3.70798 13.056L3.57152 12.922ZM4.08195 12.9323C4.17738 12.935 4.27381 12.9382 4.37004 12.9418L4.2192 13.0675L4.08195 12.9323ZM4.59701 12.9516C4.69892 12.9565 4.79951 12.962 4.89706 12.9683L4.74148 13.0876L4.59701 12.9516ZM5.10687 12.9837C5.21646 12.9926 5.32015 13.0027 5.41559 13.0141L5.24145 13.1382L5.10687 12.9837ZM2.75056 12.9207C2.88401 12.9187 3.12321 12.9176 3.41501 12.9202C3.43165 13.3423 3.46854 13.6814 3.52456 13.9304H2.9292L2.75056 12.9207ZM5.65474 13.9305H3.61545C3.58427 13.7969 3.55901 13.6347 3.53965 13.4459C5.02512 13.4557 5.58945 13.5294 5.73049 13.5525C5.73466 13.5565 5.73931 13.5599 5.74446 13.5619L5.65474 13.9305ZM5.96988 12.6359C5.7821 12.5919 5.00698 12.4275 3.88887 12.406C3.96767 12.3746 4.03484 12.3406 4.09142 12.3054C4.11785 12.3088 4.19571 12.3173 4.29331 12.3173C4.49595 12.3173 4.78062 12.279 4.85923 12.08C5.32076 12.181 5.79382 12.2473 6.05651 12.2801L5.96988 12.6359Z" fill="#464655"/>
<path d="M3.1215 9.7784C3.1215 9.69679 3.05513 9.63037 2.97347 9.63037C2.89186 9.63037 2.82544 9.69675 2.82544 9.7784C2.82544 9.86001 2.89181 9.92643 2.97347 9.92643C3.05508 9.92643 3.1215 9.86001 3.1215 9.7784ZM2.97347 9.83761C2.9408 9.83761 2.91427 9.81107 2.91427 9.7784C2.91427 9.74573 2.9408 9.7192 2.97347 9.7192C3.00614 9.7192 3.03267 9.74573 3.03267 9.7784C3.03267 9.81107 3.00614 9.83761 2.97347 9.83761Z" fill="#464655"/>
<path d="M4.21439 12.5307C4.1341 12.5307 4.06885 12.596 4.06885 12.6762C4.06885 12.7565 4.13414 12.8218 4.21439 12.8218C4.29464 12.8218 4.35999 12.7565 4.35999 12.6762C4.35999 12.596 4.29464 12.5307 4.21439 12.5307ZM4.21439 12.733C4.18308 12.733 4.15768 12.7075 4.15768 12.6763C4.15768 12.645 4.18313 12.6195 4.21439 12.6195C4.24571 12.6195 4.27121 12.645 4.27121 12.6763C4.27121 12.7075 4.24566 12.733 4.21439 12.733Z" fill="#464655"/>
<path d="M4.6495 12.5555C4.5692 12.5555 4.50391 12.6209 4.50391 12.7011C4.50391 12.7814 4.56925 12.8467 4.6495 12.8467C4.7298 12.8467 4.79505 12.7814 4.79505 12.7011C4.79505 12.6209 4.7298 12.5555 4.6495 12.5555ZM4.6495 12.7578C4.61819 12.7578 4.59269 12.7324 4.59269 12.7011C4.59269 12.6698 4.61819 12.6443 4.6495 12.6443C4.68081 12.6443 4.70622 12.6698 4.70622 12.7011C4.70627 12.7324 4.68081 12.7578 4.6495 12.7578Z" fill="#464655"/>
</svg>
