<svg width="24" height="24" viewBox="0 0 24 24" fill="none" xmlns="http://www.w3.org/2000/svg">
<path d="M22.2025 4.13799H1.79733C0.821486 4.13799 0.0278926 4.91578 0.0012207 5.88511H23.9987C23.9719 4.91569 23.1783 4.13799 22.2025 4.13799Z" fill="#FFE15A"/>
<path d="M24 5.93541C24 5.91854 23.9992 5.9019 23.9987 5.88512H0.0013125C0.00084375 5.9019 0 5.91854 0 5.93541V7.63224H24V5.93541Z" fill="#FF4B55"/>
<path d="M24 7.63223H0V9.37926H24V7.63223Z" fill="#FFE15A"/>
<path d="M24 9.37921H0V11.1262H24V9.37921Z" fill="#FF4B55"/>
<path d="M24 11.1263H0V12.8733H24V11.1263Z" fill="#FFE15A"/>
<path d="M1.79733 19.8621H22.2025C23.1783 19.8621 23.9719 19.0843 23.9986 18.1149H0.0012207C0.0278926 19.0844 0.821486 19.8621 1.79733 19.8621Z" fill="#FFE15A"/>
<path d="M24 12.8738H0V14.6208H24V12.8738Z" fill="#FF4B55"/>
<path d="M24 14.6208H0V16.3679H24V14.6208Z" fill="#FFE15A"/>
<path d="M23.9987 18.115C23.9992 18.0982 24 18.0816 24 18.0647V16.3678H0V18.0646C0 18.0815 0.00084375 18.0982 0.0013125 18.1149H23.9987V18.115Z" fill="#FF4B55"/>
<path d="M0.413813 12H11.5862C11.8148 12 12 11.8147 12 11.5862V4.55175C12 4.32328 11.8149 4.13808 11.5865 4.13794H1.79742C0.804703 4.13799 0 4.94269 0 5.93541V11.5863C0 11.8148 0.185297 12 0.413813 12Z" fill="#64466E"/>
<path d="M11.0364 7.62253H10.0836V6.53357H10.2197V6.26137H10.0836H8.99462H8.8585V6.53357H8.99462V7.62253H8.45017V6.53357H8.58625V6.26137H8.45012H7.36117H7.22504V6.53357H7.36117V7.62253H6.54451V6.26137H6.68064V5.98917H5.31948V6.26137H5.45561V7.62253H4.6389V6.53357H4.77503V6.26137H4.6389H3.55H3.41387V6.53357H3.55V7.62253H3.0055V6.53357H3.14162V6.26137H3.0055H1.91659H1.78046V6.53357H1.91659V7.62253H0.963762H0.827637V7.89473H0.963762V10.3448H1.91659H2.86942V9.52813C2.86942 9.37776 2.99129 9.25593 3.14162 9.25593C3.292 9.25593 3.41382 9.37785 3.41382 9.52813V10.3448H3.54995H4.6389H4.77503V9.52813C4.77503 9.37776 4.8969 9.25593 5.04723 9.25593C5.19756 9.25593 5.31943 9.37785 5.31943 9.52813V10.3448H5.45556H5.59168V9.39201C5.59168 9.16649 5.77454 8.98363 6.00006 8.98363C6.22557 8.98363 6.40843 9.16649 6.40843 9.39201V10.3448H6.54456H6.68068V9.52813C6.68068 9.37776 6.80256 9.25593 6.95289 9.25593C7.10321 9.25593 7.22509 9.37785 7.22509 9.52813V10.3448H7.36121H8.45017H8.58611V9.52813C8.58611 9.37776 8.70798 9.25593 8.85831 9.25593C9.00864 9.25593 9.13051 9.37785 9.13051 9.52813V10.3448H10.0833H11.0362V7.89478H11.1723V7.62257H11.0362V7.62253H11.0364ZM2.73325 8.71143H2.18884V7.89478C2.18884 7.7444 2.31071 7.62257 2.46104 7.62257C2.61137 7.62257 2.73325 7.74449 2.73325 7.89478V8.71143ZM4.36665 8.71143H3.8222V7.89478C3.8222 7.7444 3.94407 7.62257 4.0944 7.62257C4.24478 7.62257 4.36661 7.74449 4.36661 7.89478L4.36665 8.71143ZM6.27226 7.89473H5.72781V7.35028C5.72781 7.1999 5.84968 7.07807 6.00001 7.07807C6.15039 7.07807 6.27221 7.19999 6.27221 7.35028L6.27226 7.89473ZM8.17792 8.71143H7.63346V7.89478C7.63346 7.7444 7.75534 7.62257 7.90567 7.62257C8.05604 7.62257 8.17787 7.74449 8.17787 7.89478L8.17792 8.71143ZM9.81128 8.71143H9.26682V7.89478C9.26682 7.7444 9.3887 7.62257 9.53903 7.62257C9.68935 7.62257 9.81123 7.74449 9.81123 7.89478L9.81128 8.71143Z" fill="#F5F5F5"/>
</svg>
