<svg width="24" height="24" viewBox="0 0 24 24" fill="none" xmlns="http://www.w3.org/2000/svg">
<path d="M0 18.0646C0 19.0573 0.804703 19.8621 1.79742 19.8621H22.2026C23.1952 19.8621 24 19.0574 24 18.0646V15.931H0V18.0646Z" fill="#FF4B55"/>
<path d="M22.2026 4.13794H1.79742C0.804703 4.13794 0 4.94264 0 5.93536V12H24V5.93536C24 4.94264 23.1953 4.13794 22.2026 4.13794Z" fill="#FFE15A"/>
<path d="M24 12H0V15.9309H24V12Z" fill="#41479B"/>
<path d="M11.5681 12.2322L14.5906 9.64148V13.3909C14.5906 14.0228 14.0783 14.535 13.4465 14.535C13.1638 14.535 12.8912 14.4304 12.6811 14.2413L11.5681 13.2397V12.2322Z" fill="#FFE15A"/>
<path d="M13.1625 13.7064L12.2878 12.9192V11.6154L13.871 10.2584V11.2062V13.3909C13.871 13.625 13.6806 13.8154 13.4465 13.8154C13.3415 13.8154 13.2406 13.7767 13.1625 13.7064Z" fill="#FF4B55"/>
<path d="M12.7196 11.2453V12.7274L13.4392 13.3771V11.1972V10.6286L13.871 10.2585V11.2063V13.391C13.871 13.6251 13.6806 13.8155 13.4465 13.8155C13.3415 13.8155 13.2406 13.7768 13.1625 13.7065L12.2878 12.9193V11.6155L12.7196 11.2453Z" fill="#41479B"/>
<path d="M12.4319 12.2322L9.40942 9.64148V13.3909C9.40942 14.0228 9.92172 14.535 10.5535 14.535C10.8362 14.535 11.1089 14.4304 11.319 14.2413L12.4319 13.2397V12.2322Z" fill="#FFE15A"/>
<path d="M10.8374 13.7064L11.7121 12.9192V11.6154L10.1289 10.2584V11.2062V13.3909C10.1289 13.625 10.3194 13.8154 10.5534 13.8154C10.6585 13.8154 10.7593 13.7767 10.8374 13.7064Z" fill="#FF4B55"/>
<path d="M11.2803 11.2453V12.7274L10.5607 13.3771V11.1972V10.6286L10.1289 10.2585V11.2063V13.391C10.1289 13.6251 10.3194 13.8155 10.5534 13.8155C10.6585 13.8155 10.7593 13.7768 10.8374 13.7065L11.7121 12.9193V11.6155L11.2803 11.2453Z" fill="#41479B"/>
<path d="M14.6932 9.65437H14.4863V10.8942H14.6932V9.65437Z" fill="#41479B"/>
<path d="M9.51208 9.65437H9.30518V10.8942H9.51208V9.65437Z" fill="#41479B"/>
<path d="M11.5682 9.0658C11.5682 9.0658 11.8561 7.69846 10.8486 7.87841C9.84114 8.05832 9.84113 8.34613 8.6897 8.9219C8.6897 8.9219 9.98509 9.20976 10.5608 9.06585C10.5608 9.06585 10.9926 9.64152 11.4243 9.78548H11.8562L11.5682 9.0658Z" fill="#5A4646"/>
<path d="M12.4319 9.0658C12.4319 9.0658 12.1441 7.69846 13.1516 7.87841C14.1591 8.05832 14.1591 8.34613 15.3105 8.9219C15.3105 8.9219 14.0151 9.20976 13.4394 9.06585C13.4394 9.06585 13.0076 9.64152 12.5759 9.78548H12.144L12.4319 9.0658Z" fill="#5A4646"/>
<path d="M12.4319 9.78542H11.5684V9.06046C11.5684 8.82491 11.7593 8.63399 11.9948 8.63399H12.0054C12.241 8.63399 12.4319 8.82491 12.4319 9.06046V9.78542H12.4319Z" fill="#5A4646"/>
<path d="M12 9.35349C12.159 9.35349 12.2879 9.22461 12.2879 9.06563C12.2879 8.90665 12.159 8.77777 12 8.77777C11.841 8.77777 11.7122 8.90665 11.7122 9.06563C11.7122 9.22461 11.841 9.35349 12 9.35349Z" fill="#E6E1CD"/>
<path d="M11.3823 8.87991L11.9235 9.16894C11.969 9.19322 12.0249 9.18488 12.0612 9.14846C12.1069 9.1028 12.1069 9.02883 12.0612 8.98313L11.7121 8.634H11.6281C11.4924 8.634 11.3823 8.74407 11.3823 8.87991Z" fill="#FFD0AF"/>
<path d="M11.57 8.92186H11.1365L11.3262 8.69977C11.3618 8.65805 11.4139 8.63405 11.4688 8.63405H11.7121V8.77974C11.7121 8.8582 11.6485 8.92186 11.57 8.92186Z" fill="#FFAF94"/>
<path d="M13.2274 9.78581C13.1303 9.67059 13.1096 9.51782 13.1569 9.38545C13.2954 9.36126 13.4424 9.40752 13.5395 9.52284C13.6225 9.62132 13.6465 9.74652 13.6231 9.86371C13.6519 9.91256 13.6871 9.97537 13.7258 10.0495C13.7277 10.039 13.7273 10.0285 13.7303 10.018C13.7642 9.89863 13.8588 9.81417 13.971 9.78557C14.0513 9.86892 14.0873 9.99056 14.0534 10.1099C14.0243 10.2125 13.949 10.2869 13.8575 10.3246C13.8936 10.4075 13.9294 10.4969 13.9628 10.5913C13.9647 10.5858 13.9649 10.5801 13.9671 10.5747C14.014 10.4598 14.1174 10.3863 14.232 10.3702C14.3026 10.4618 14.3251 10.5867 14.2782 10.7016C14.2372 10.8021 14.1521 10.8684 14.0549 10.8948C14.1049 11.0923 14.1381 11.3018 14.1381 11.5127H13.9942C13.9942 11.3289 13.9659 11.1448 13.9233 10.9686C13.8345 10.9973 13.7353 10.9911 13.6493 10.9386C13.5445 10.8743 13.4892 10.7615 13.4918 10.6469C13.5928 10.5925 13.7184 10.5905 13.8233 10.6547C13.8271 10.6571 13.8296 10.6604 13.8332 10.6628C13.8024 10.5742 13.7696 10.4902 13.7359 10.4114C13.6495 10.4522 13.5478 10.4585 13.4545 10.4147C13.3433 10.3625 13.2759 10.2563 13.2658 10.1421C13.3598 10.0771 13.4841 10.0614 13.595 10.113C13.5554 10.0369 13.5196 9.97312 13.4916 9.92545C13.3925 9.91401 13.297 9.86835 13.2274 9.78581Z" fill="#8CB400"/>
<path d="M10.7724 9.78581C10.8695 9.67059 10.8903 9.51782 10.8429 9.38545C10.7044 9.36126 10.5574 9.40752 10.4603 9.52284C10.3774 9.62132 10.3533 9.74652 10.3767 9.86371C10.3479 9.91256 10.3128 9.97537 10.2741 10.0495C10.2722 10.039 10.2726 10.0285 10.2696 10.018C10.2357 9.89863 10.141 9.81417 10.0289 9.78557C9.94859 9.86892 9.9125 9.99056 9.94643 10.1099C9.97559 10.2125 10.0508 10.2869 10.1424 10.3246C10.1062 10.4075 10.0705 10.4969 10.037 10.5913C10.0351 10.5858 10.035 10.5801 10.0327 10.5747C9.98586 10.4598 9.88245 10.3863 9.76789 10.3702C9.69729 10.4618 9.67479 10.5867 9.72167 10.7016C9.76268 10.8021 9.84776 10.8684 9.94498 10.8948C9.89496 11.0923 9.86178 11.3018 9.86178 11.5127H10.0057C10.0057 11.3289 10.0339 11.1448 10.0766 10.9686C10.1654 10.9973 10.2646 10.9911 10.3505 10.9386C10.4554 10.8743 10.5106 10.7615 10.508 10.6469C10.4071 10.5925 10.2814 10.5905 10.1766 10.6547C10.1728 10.6571 10.1703 10.6604 10.1666 10.6628C10.1974 10.5742 10.2303 10.4902 10.264 10.4114C10.3504 10.4522 10.452 10.4585 10.5453 10.4147C10.6566 10.3625 10.7239 10.2563 10.734 10.1421C10.64 10.0771 10.5157 10.0614 10.4048 10.113C10.4444 10.0369 10.4802 9.97312 10.5082 9.92545C10.6074 9.91401 10.7029 9.86835 10.7724 9.78581Z" fill="#8CB400"/>
<path d="M12 12.9518L8.97754 10.3612V14.1106C8.97754 14.7425 9.48984 15.2547 10.1217 15.2547C10.4043 15.2547 10.677 15.1501 10.8871 14.961L12 13.9594V12.9518Z" fill="#FFE15A"/>
<path d="M10.4055 14.4261L11.2802 13.6388V12.335L9.69702 10.978V11.9258V14.1105C9.69702 14.3446 9.88747 14.535 10.1215 14.535C10.2266 14.535 10.3274 14.4964 10.4055 14.4261Z" fill="#FF4B55"/>
<path d="M10.8485 11.9649V13.447L10.1288 14.0968V11.9168V11.3482L9.69702 10.978V11.9259V14.1106C9.69702 14.3447 9.88747 14.5351 10.1215 14.5351C10.2266 14.5351 10.3274 14.4964 10.4055 14.4261L11.2802 13.6389V12.3351L10.8485 11.9649Z" fill="#41479B"/>
<path d="M12 12.9518L15.0225 10.3612V14.1106C15.0225 14.7425 14.5102 15.2547 13.8784 15.2547C13.5957 15.2547 13.323 15.1501 13.113 14.961L12 13.9594V12.9518Z" fill="#FFE15A"/>
<path d="M13.5944 14.4261L12.7197 13.6388V12.335L14.3029 10.978V11.9258V14.1105C14.3029 14.3446 14.1125 14.535 13.8784 14.535C13.7734 14.535 13.6725 14.4964 13.5944 14.4261Z" fill="#FF4B55"/>
<path d="M13.1515 11.9649V13.447L13.8711 14.0968V11.9168V11.3482L14.3029 10.978V11.9259V14.1106C14.3029 14.3447 14.1125 14.5351 13.8784 14.5351C13.7734 14.5351 13.6725 14.4964 13.5944 14.4261L12.7197 13.6389V12.3351L13.1515 11.9649Z" fill="#41479B"/>
<path d="M12.0001 14.1033C12.795 14.1033 13.4394 13.1366 13.4394 11.9442C13.4394 10.7518 12.795 9.78516 12.0001 9.78516C11.2052 9.78516 10.5608 10.7518 10.5608 11.9442C10.5608 13.1366 11.2052 14.1033 12.0001 14.1033Z" fill="#69C3FF"/>
<path d="M10.7046 12.5201H13.2953L13.4392 11.9444L12.7833 12.0538C12.6517 12.0757 12.5172 12.0382 12.4159 11.9514L11.6713 11.3132C11.6048 11.2562 11.52 11.2248 11.4324 11.2248C11.335 11.2248 11.2416 11.2634 11.1728 11.3323L10.7046 11.8005V12.5201Z" fill="#009B64"/>
<path d="M11.8635 11.8477L12.1107 11.6897L11.6713 11.3131C11.6048 11.2561 11.52 11.2247 11.4324 11.2247C11.335 11.2247 11.2416 11.2634 11.1728 11.3322L10.7046 11.8004V11.9444L11.4242 11.8004L11.5514 11.864C11.6511 11.9139 11.7696 11.9076 11.8635 11.8477Z" fill="#F5F5F5"/>
<path d="M10.7046 12.5201L10.8485 13.3836L11.5682 14.1033H12L12.5757 13.9594L13.1514 13.3836L13.2953 12.5201H10.7046Z" fill="#5AA0E6"/>
<path d="M12 14.2472C11.127 14.2472 10.4167 13.2141 10.4167 11.9443C10.4167 10.6745 11.127 9.64143 12 9.64143C12.873 9.64143 13.5832 10.6745 13.5832 11.9443C13.5832 13.2141 12.873 14.2472 12 14.2472ZM12 9.92939C11.2858 9.92939 10.7046 10.8333 10.7046 11.9444C10.7046 13.0554 11.2857 13.9594 12 13.9594C12.7142 13.9594 13.2953 13.0554 13.2953 11.9444C13.2953 10.8333 12.7141 9.92939 12 9.92939Z" fill="#FFC88C"/>
<path d="M10.9847 14.0904C10.8641 13.9238 10.6845 13.8155 10.481 13.8155C10.2776 13.8155 10.098 13.9238 9.97729 14.0904C10.1831 14.1474 10.3515 14.3145 10.4312 14.5347C10.4633 14.6234 10.4811 14.7207 10.4811 14.823C10.481 14.4669 10.6961 14.1704 10.9847 14.0904Z" fill="#E1E1E1"/>
<path d="M10.5952 14.5444C10.5952 14.5444 10.5839 14.7363 10.4856 14.8263L10.4815 14.8229C10.3831 14.733 10.3718 14.541 10.3718 14.541L10.5952 14.5444Z" fill="#E1E1E1"/>
<path d="M13.8 14.607H10.2C10.1607 14.607 10.1289 14.5752 10.1289 14.5359V14.5342C10.1289 14.4949 10.1607 14.4631 10.2 14.4631H13.8C13.8392 14.4631 13.871 14.4949 13.871 14.5342V14.5359C13.871 14.5752 13.8392 14.607 13.8 14.607Z" fill="#966446"/>
<path d="M12.7232 14.8229H11.2768C11.1197 14.8229 10.9924 14.6956 10.9924 14.5386V14.5315C10.9924 14.3745 11.1197 14.2471 11.2768 14.2471H12.7232C12.8802 14.2471 13.0075 14.3745 13.0075 14.5315V14.5386C13.0075 14.6956 12.8802 14.8229 12.7232 14.8229Z" fill="#BE915A"/>
<path d="M10.7046 14.4631H10.2009C10.1612 14.4631 10.1289 14.4953 10.1289 14.535C10.1289 14.5748 10.1611 14.607 10.2009 14.607H10.7046V14.4631Z" fill="#B9B9B9"/>
<path d="M12 14.8229V16.1379L11.4243 15.9743L11.7121 14.8229H12Z" fill="#FF4B55"/>
<path d="M11.856 14.8229L11.5681 15.8304L10.9924 15.6865L11.4242 14.8229H11.856Z" fill="#41479B"/>
<path d="M11.2804 14.8229L10.8486 15.3986L11.2804 15.5425L11.5683 14.8229H11.2804Z" fill="#FFE15A"/>
<path d="M12 14.8229V16.1379L12.5757 15.9743L12.2879 14.8229H12Z" fill="#FF4B55"/>
<path d="M12.144 14.8229L12.4319 15.8304L13.0076 15.6865L12.5758 14.8229H12.144Z" fill="#41479B"/>
<path d="M12.7197 14.8229L13.1515 15.3986L12.7197 15.5425L12.4319 14.8229H12.7197Z" fill="#FFE15A"/>
<path d="M9.08093 11.6007L8.87402 11.3922V10.361H9.08093V11.6007Z" fill="#41479B"/>
<path d="M15.1239 11.3922L14.917 11.6007V10.361H15.1239V11.3922Z" fill="#41479B"/>
</svg>
