<svg width="24" height="24" viewBox="0 0 24 24" fill="none" xmlns="http://www.w3.org/2000/svg">
<path d="M1.79742 19.8619H8.00002V4.1378H1.79742C0.804703 4.1378 0 4.94251 0 5.93522V18.0646C0 19.0572 0.804703 19.8619 1.79742 19.8619Z" fill="#73AF00"/>
<path d="M16.0004 4.13799H8.00024V19.8622H16.0004V4.13799Z" fill="#FF4B55"/>
<path d="M22.2025 19.8619C23.1952 19.8619 24 19.0572 24 18.0645V5.93522C24 4.94255 23.1953 4.1378 22.2025 4.1378H16V19.8619H22.2025Z" fill="#FFE15A"/>
<path d="M12.0859 10.4832L12.4414 11.5492L13.565 11.5578C13.6521 11.5585 13.6881 11.6696 13.6181 11.7213L12.7142 12.3888L13.0531 13.4602C13.0794 13.5432 12.9849 13.6119 12.9141 13.5612L11.9999 12.9078L11.0857 13.5612C11.0149 13.6119 10.9204 13.5432 10.9467 13.4602L11.2856 12.3888L10.3817 11.7213C10.3116 11.6696 10.3477 11.5585 10.4348 11.5578L11.5584 11.5492L11.9139 10.4832C11.9415 10.4006 12.0583 10.4006 12.0859 10.4832Z" fill="#FFE15A"/>
</svg>
