<svg width="24" height="24" viewBox="0 0 24 24" fill="none" xmlns="http://www.w3.org/2000/svg">
<path d="M22.2134 4.13809H1.78664C0.798984 4.1439 0 4.94612 0 5.93519V12.0001H24V5.93519C24 4.94612 23.201 4.1439 22.2134 4.13809Z" fill="#F5F5F5"/>
<path d="M0 18.0645C0 19.0572 0.804703 19.8619 1.79742 19.8619H22.2026C23.1952 19.8619 24 19.0572 24 18.0645V12.0001H0V18.0645Z" fill="#FF4B55"/>
<path d="M8.27581 6.62085C5.30488 6.62085 2.89648 9.02929 2.89648 12.0002H13.6551C13.6551 9.02919 11.2468 6.62085 8.27581 6.62085Z" fill="#FF4B55"/>
<path d="M8.27581 17.3795C11.2467 17.3795 13.6551 14.971 13.6551 12.0002H2.89648C2.89648 14.971 5.30492 17.3795 8.27581 17.3795Z" fill="#F5F5F5"/>
</svg>
