<svg width="24" height="24" viewBox="0 0 24 24" fill="none" xmlns="http://www.w3.org/2000/svg">
<path d="M22.2134 4.13809H1.78664C0.798984 4.1439 0 4.94612 0 5.93519V18.0645C0 19.0572 0.804703 19.8619 1.79742 19.8619H22.2026C23.1952 19.8619 24 19.0572 24 18.0645V5.93519C24 4.94612 23.201 4.1439 22.2134 4.13809Z" fill="#41479B"/>
<path d="M24 14.8964H0V16.9655H24V14.8964Z" fill="#FFE15A"/>
<path d="M5.57544 8.00954L5.16843 9.22988L3.88204 9.23987C3.75866 9.2408 3.70752 9.39826 3.80675 9.47152L4.84161 10.2357L4.45358 11.4622C4.41641 11.5798 4.55029 11.6771 4.65065 11.6053L5.69722 10.8573L6.7438 11.6053C6.84416 11.677 6.97808 11.5798 6.94086 11.4622L6.55283 10.2357L7.58769 9.47152C7.68697 9.39821 7.63579 9.24085 7.51241 9.23987L6.22602 9.22988L5.81901 8.00954C5.78 7.89249 5.61449 7.89249 5.57544 8.00954Z" fill="#F5F5F5"/>
<path d="M2.64334 5.75756L2.40779 6.46392L1.66323 6.46973C1.59184 6.47029 1.56221 6.56137 1.61968 6.60379L2.21865 7.0461L1.99407 7.75603C1.97255 7.82409 2.05004 7.88043 2.10812 7.8389L2.71384 7.40592L3.31955 7.8389C3.37763 7.88043 3.45516 7.82409 3.4336 7.75603L3.20902 7.0461L3.80799 6.60379C3.86541 6.56137 3.83583 6.47024 3.76444 6.46973L3.01988 6.46392L2.78434 5.75756C2.76174 5.68982 2.66593 5.68982 2.64334 5.75756Z" fill="#F5F5F5"/>
</svg>
