<svg width="24" height="24" viewBox="0 0 24 24" fill="none" xmlns="http://www.w3.org/2000/svg">
<path d="M14.8965 4.55174V5.26109H23.8687C23.6019 4.60264 22.9566 4.13797 22.2025 4.13797H14.4827C14.7112 4.13797 14.8965 4.32322 14.8965 4.55174Z" fill="#FF4B55"/>
<path d="M14.8965 5.26111V6.38424H23.9999V5.93531C23.9999 5.69677 23.9531 5.46933 23.8687 5.26102H14.8965V5.26111Z" fill="#F5F5F5"/>
<path d="M24.0001 6.38443H14.8965V7.50755H24.0001V6.38443Z" fill="#FF4B55"/>
<path d="M24.0001 7.50702H14.8965V8.63014H24.0001V7.50702Z" fill="#F5F5F5"/>
<path d="M24.0001 8.63062H14.8965V9.75374H24.0001V8.63062Z" fill="#FF4B55"/>
<path d="M24.0001 9.75378H14.8965V10.8769H24.0001V9.75378Z" fill="#F5F5F5"/>
<path d="M24.0001 10.8769H14.8965V12H24.0001V10.8769Z" fill="#FF4B55"/>
<path d="M14.8965 12.7094C14.8965 12.9379 14.7112 13.1232 14.4827 13.1232H23.9999V12H14.8965V12.7094Z" fill="#F5F5F5"/>
<path d="M0.413906 13.1232H0.413813C0.185297 13.1232 0 12.9379 0 12.7094V13.1232V14.2463H24V13.1232H14.4828H0.413906Z" fill="#FF4B55"/>
<path d="M24 14.2463H0V15.3694H24V14.2463Z" fill="#F5F5F5"/>
<path d="M24 15.3694H0V16.4925H24V15.3694Z" fill="#FF4B55"/>
<path d="M24 16.493H0V17.6161H24V16.493Z" fill="#F5F5F5"/>
<path d="M0 18.0647C0 18.3032 0.046875 18.5307 0.131203 18.739H23.8687C23.9531 18.5307 23.9999 18.3033 23.9999 18.0647V17.6158H0V18.0647Z" fill="#FF4B55"/>
<path d="M1.79732 19.8621H22.2025C22.9566 19.8621 23.6019 19.3974 23.8687 18.739H0.131104C0.397916 19.3975 1.0432 19.8621 1.79732 19.8621Z" fill="#F5F5F5"/>
<path d="M0.413813 13.1232H0.413906H14.4828C14.7113 13.1232 14.8966 12.9379 14.8966 12.7094V12V10.8769V9.75375V8.63063V7.5075V6.38438V5.26125V4.55175C14.8966 4.32324 14.7113 4.13794 14.4828 4.13794H1.79742C0.804703 4.13799 0 4.94269 0 5.93541V6.38433V7.50745V8.63058V9.75371V10.8768V12V12.4138V12.7094C0 12.938 0.185297 13.1232 0.413813 13.1232Z" fill="#41479B"/>
<path d="M3.93101 8.62607C3.93101 7.06105 5.20132 5.79154 6.76488 5.79154C7.15831 5.79154 7.53237 5.87207 7.87306 6.01719C7.91726 6.03604 7.95059 5.97449 7.91088 5.9474C7.34721 5.56368 6.65787 5.35344 5.91846 5.39188C4.29288 5.47635 2.96365 6.78576 2.85856 8.41016C2.73635 10.2996 4.23148 11.8648 6.09101 11.8648C6.76301 11.8648 7.38767 11.6578 7.90643 11.3067C7.94637 11.2797 7.91328 11.218 7.86884 11.2368C7.52932 11.3808 7.15671 11.4607 6.76493 11.4607C5.20132 11.4606 3.93101 10.1911 3.93101 8.62607Z" fill="#FFE15A"/>
<path d="M10.409 8.62607L11.607 8.16253C11.6662 8.13961 11.6461 8.05115 11.5828 8.05621L10.3027 8.15873L11.1824 7.21842C11.2258 7.17206 11.1692 7.10123 11.1144 7.1332L10.0026 7.78176L10.3863 6.55476C10.4053 6.4942 10.3236 6.45487 10.2881 6.50747L9.5684 7.57364L9.38376 6.30107C9.37467 6.23822 9.28392 6.23817 9.27473 6.30103L9.15679 7.10625L9.10785 7.44703L9.08901 7.57368L8.36929 6.50836C8.33376 6.45576 8.25201 6.49514 8.27109 6.55575L8.65621 7.78171L7.54452 7.13315C7.48968 7.10118 7.43315 7.17201 7.47656 7.21837L8.35617 8.15868L7.07577 8.05621C7.01245 8.05115 6.99224 8.13961 7.05149 8.16253L8.2506 8.62607L7.05145 9.08971C6.99215 9.11264 7.0124 9.20109 7.07573 9.19603L8.35617 9.09351L7.47651 10.0362C7.43315 10.0826 7.48982 10.1534 7.54462 10.1213L8.65626 9.47048L8.27113 10.6964C8.2521 10.757 8.33376 10.7964 8.36934 10.7438L9.08906 9.67851L9.1079 9.80817L9.15684 10.1459L9.27482 10.9533C9.28401 11.0162 9.37476 11.0161 9.38385 10.9533L9.56849 9.67861L10.2882 10.7448C10.3237 10.7974 10.4054 10.7581 10.3864 10.6975L10.0027 9.47053L11.1143 10.1214C11.1691 10.1534 11.2258 10.0827 11.1824 10.0363L10.3027 9.09361L11.5829 9.19612C11.6462 9.20118 11.6664 9.11273 11.6071 9.08981L10.409 8.62607Z" fill="#FFE15A"/>
</svg>
