<svg width="24" height="24" viewBox="0 0 24 24" fill="none" xmlns="http://www.w3.org/2000/svg">
<path d="M22.2026 19.8621H1.79742C0.804703 19.8621 0 19.0574 0 18.0646V5.93536C0 4.94269 0.804703 4.13794 1.79742 4.13794H22.2026C23.1952 4.13794 24 4.94264 24 5.93536V18.0647C24 19.0574 23.1953 19.8621 22.2026 19.8621Z" fill="#41479B"/>
<path d="M0.413813 12H1.13259L4.96556 9.48872V12H7.03453V9.48872L10.8675 12H11.5862C11.8148 12 12 11.8147 12 11.5862V11.258L8.71153 9.10346H12V7.03449H8.71148L12 4.87997V4.55175C12 4.32324 11.8148 4.13794 11.5862 4.13794H10.8674L7.03444 6.64922V4.13794H4.96547V6.64922L1.25831 4.22035C0.825469 4.35628 0.463594 4.65174 0.240609 5.03756L3.28856 7.03449H0V9.10346H3.28852L0 11.258V11.5862C0 11.8147 0.185297 12 0.413813 12Z" fill="#F5F5F5"/>
<path d="M12 7.4483H6.62067V4.13794H5.37933V7.4483H0V8.68964H5.37933V12H6.62067V8.68964H12V7.4483Z" fill="#FF4B55"/>
<path d="M0.385742 4.82353L3.79177 7.03448H4.5518L0.684805 4.52432C0.573758 4.61198 0.473398 4.71243 0.385742 4.82353Z" fill="#FF4B55"/>
<path d="M7.79446 7.03449L11.937 4.34546C11.865 4.22363 11.738 4.13794 11.5861 4.13794H11.4966L7.03442 7.03449H7.79446Z" fill="#FF4B55"/>
<path d="M4.19418 9.10345L0.0595703 11.7873C0.130867 11.9121 0.259914 12 0.413898 12H0.491945L4.95426 9.10345H4.19418Z" fill="#FF4B55"/>
<path d="M11.9934 11.6187L8.11843 9.10345H7.3584L11.7587 11.9598C11.8906 11.8986 11.981 11.7704 11.9934 11.6187Z" fill="#FF4B55"/>
<path d="M18.538 17.2553C18.5212 17.2553 18.5042 17.25 18.4899 17.2399L18.0001 16.89L17.5103 17.2399C17.496 17.25 17.479 17.2553 17.4622 17.2553C17.4451 17.2553 17.4281 17.25 17.4136 17.2395C17.3849 17.2185 17.3725 17.1813 17.3832 17.1474L17.5649 16.5736L17.0808 16.2164C17.0521 16.1949 17.0402 16.1582 17.0511 16.1243C17.0622 16.0903 17.0935 16.0673 17.1293 16.0669L17.7312 16.062L17.9216 15.491C17.9329 15.4575 17.9646 15.4344 18.0002 15.4344C18.0358 15.4344 18.0675 15.4575 18.0788 15.491L18.2692 16.062L18.8711 16.0669C18.9069 16.0673 18.9382 16.0903 18.9493 16.1243C18.9602 16.1582 18.9482 16.1949 18.9196 16.2164L18.4355 16.5736L18.6172 17.1474C18.6279 17.1813 18.6156 17.2185 18.5868 17.2395C18.5721 17.25 18.555 17.2553 18.538 17.2553Z" fill="#FF4B55"/>
<path d="M18 15.5172L18.2091 16.1443L18.8702 16.1494L18.3384 16.5421L18.5378 17.1723L18 16.788L17.4622 17.1724L17.6616 16.5422L17.1298 16.1495L17.7909 16.1444L18 15.5172ZM18 15.3517C17.9288 15.3517 17.8655 15.3973 17.843 15.4649L17.6713 15.9797L17.1286 15.984C17.0574 15.9845 16.9945 16.0306 16.9725 16.0983C16.9504 16.1661 16.9743 16.2403 17.0315 16.2827L17.4681 16.6051L17.3044 17.1225C17.283 17.1904 17.3074 17.2645 17.365 17.3064C17.394 17.3274 17.4281 17.338 17.4623 17.338C17.496 17.338 17.5297 17.3276 17.5585 17.3071L18.0001 16.9915L18.4416 17.3071C18.4705 17.3276 18.5042 17.338 18.5379 17.338C18.572 17.338 18.6062 17.3274 18.6352 17.3064C18.6928 17.2644 18.7172 17.1904 18.6957 17.1225L18.5321 16.6051L18.9686 16.2827C19.026 16.2403 19.0497 16.1661 19.0277 16.0983C19.0057 16.0306 18.9428 15.9845 18.8716 15.984L18.3289 15.9797L18.1572 15.4649C18.1345 15.3973 18.0712 15.3517 18 15.3517Z" fill="#F5F5F5"/>
<path d="M18.538 10.5841C18.521 10.5841 18.5042 10.5788 18.4899 10.5687L18.0001 10.2184L17.5103 10.5687C17.496 10.5788 17.479 10.5841 17.4622 10.5841C17.4452 10.5841 17.4281 10.5788 17.4136 10.5683C17.3849 10.5473 17.3725 10.5101 17.3832 10.4762L17.5649 9.90235L17.0808 9.54474C17.0521 9.52332 17.0402 9.48615 17.0511 9.45264C17.0622 9.4187 17.0937 9.39564 17.1293 9.39526L17.7312 9.39081L17.9216 8.81982C17.9329 8.78631 17.9646 8.76324 18.0002 8.76324C18.0358 8.76324 18.0675 8.78626 18.0788 8.81982L18.2692 9.39081L18.8711 9.39526C18.9067 9.39568 18.9382 9.4187 18.9493 9.45264C18.9602 9.48615 18.9482 9.52332 18.9196 9.54474L18.4355 9.90235L18.6172 10.4762C18.6279 10.5101 18.6156 10.5473 18.5868 10.5683C18.5721 10.5788 18.555 10.5841 18.538 10.5841Z" fill="#FF4B55"/>
<path d="M18 8.84594L18.2091 9.47303L18.8702 9.47814L18.3384 9.87081L18.5378 10.5011L18 10.1167L17.4622 10.5011L17.6616 9.87081L17.1298 9.47814L17.7909 9.47303L18 8.84594ZM18 8.68042C17.9288 8.68042 17.8655 8.72598 17.843 8.79358L17.6713 9.30845L17.1286 9.31267C17.0574 9.31319 16.9945 9.35926 16.9725 9.42704C16.9504 9.49483 16.9743 9.56903 17.0315 9.61136L17.4681 9.93376L17.3044 10.4512C17.283 10.5191 17.3074 10.5932 17.365 10.6351C17.394 10.6561 17.4281 10.6667 17.4623 10.6667C17.496 10.6667 17.5297 10.6563 17.5585 10.6358L18.0001 10.3202L18.4416 10.6358C18.4705 10.6563 18.5042 10.6667 18.5379 10.6667C18.572 10.6667 18.6062 10.6561 18.6352 10.6351C18.6928 10.5932 18.7172 10.5191 18.6957 10.4512L18.5321 9.93376L18.9686 9.61136C19.026 9.56903 19.0497 9.49483 19.0277 9.42704C19.0057 9.35926 18.9428 9.31319 18.8716 9.31267L18.3289 9.30845L18.1572 8.79358C18.1345 8.72598 18.0712 8.68042 18 8.68042Z" fill="#F5F5F5"/>
<path d="M21.4344 12.653C21.4174 12.653 21.4007 12.6477 21.3863 12.6376L20.8966 12.2873L20.4068 12.6376C20.3925 12.6477 20.3755 12.653 20.3587 12.653C20.3417 12.653 20.3246 12.6477 20.31 12.6372C20.2814 12.6162 20.269 12.579 20.2797 12.5451L20.4614 11.9713L19.9773 11.6137C19.9486 11.5922 19.9367 11.5551 19.9476 11.5215C19.9587 11.4876 19.9902 11.4645 20.0258 11.4642L20.6277 11.4597L20.8181 10.8887C20.8294 10.8552 20.8611 10.8322 20.8967 10.8322C20.9323 10.8322 20.964 10.8552 20.9753 10.8887L21.1657 11.4597L21.7676 11.4642C21.8032 11.4646 21.8347 11.4876 21.8458 11.5215C21.8567 11.5551 21.8447 11.5922 21.8161 11.6137L21.332 11.9713L21.5137 12.5451C21.5243 12.579 21.5121 12.6162 21.4833 12.6372C21.4686 12.6477 21.4514 12.653 21.4344 12.653Z" fill="#FF4B55"/>
<path d="M20.8965 10.9149L21.1056 11.542L21.7666 11.5471L21.2349 11.9398L21.4343 12.5701L20.8965 12.1856L20.3587 12.5701L20.5581 11.9398L20.0263 11.5472L20.6873 11.542L20.8965 10.9149ZM20.8965 10.7494C20.8253 10.7494 20.762 10.795 20.7395 10.8625L20.5678 11.3774L20.0251 11.3816C19.9539 11.3822 19.8909 11.4282 19.869 11.496C19.8469 11.5638 19.8707 11.638 19.928 11.6803L20.3646 12.0027L20.2009 12.5202C20.1795 12.5881 20.2038 12.6622 20.2614 12.704C20.2905 12.7251 20.3246 12.7356 20.3588 12.7356C20.3925 12.7356 20.4262 12.7253 20.455 12.7047L20.8966 12.3891L21.3382 12.7047C21.367 12.7253 21.4007 12.7356 21.4344 12.7356C21.4685 12.7356 21.5027 12.7251 21.5317 12.704C21.5893 12.6621 21.6137 12.5881 21.5922 12.5202L21.4285 12.0027L21.8651 11.6803C21.9225 11.638 21.9462 11.5638 21.9242 11.496C21.9022 11.4282 21.8393 11.3822 21.7681 11.3816L21.2254 11.3774L21.0537 10.8625C21.031 10.795 20.9678 10.7494 20.8965 10.7494Z" fill="#F5F5F5"/>
<path d="M15.6412 13.4806C15.6242 13.4806 15.6075 13.4753 15.5931 13.4652L15.1034 13.1149L14.6136 13.4652C14.5992 13.4753 14.5823 13.4806 14.5655 13.4806C14.5485 13.4806 14.5314 13.4753 14.5168 13.4648C14.4881 13.4438 14.4758 13.4066 14.4865 13.3727L14.6681 12.7988L14.1841 12.4412C14.1554 12.4198 14.1435 12.3826 14.1544 12.3491C14.1655 12.3152 14.197 12.2921 14.2326 12.2917L14.8345 12.2873L15.0249 11.7163C15.0362 11.6828 15.0679 11.6597 15.1035 11.6597C15.1391 11.6597 15.1708 11.6827 15.1821 11.7163L15.3724 12.2873L15.9744 12.2917C16.0099 12.2922 16.0414 12.3152 16.0526 12.3491C16.0635 12.3826 16.0515 12.4198 16.0229 12.4412L15.5388 12.7988L15.7204 13.3727C15.7311 13.4066 15.7188 13.4438 15.6901 13.4648C15.6753 13.4753 15.6582 13.4806 15.6412 13.4806Z" fill="#FF4B55"/>
<path d="M15.1035 11.7425L15.3126 12.3696L15.9737 12.3747L15.4419 12.7674L15.6413 13.3976L15.1035 13.0132L14.5657 13.3976L14.7651 12.7674L14.2333 12.3747L14.8943 12.3696L15.1035 11.7425ZM15.1035 11.577C15.0323 11.577 14.9691 11.6225 14.9465 11.6901L14.7748 12.205L14.2321 12.2092C14.1609 12.2097 14.098 12.2558 14.076 12.3236C14.054 12.3914 14.0778 12.4656 14.1351 12.5079L14.5716 12.8303L14.408 13.3478C14.3865 13.4157 14.4109 13.4897 14.4685 13.5316C14.4975 13.5527 14.5316 13.5632 14.5658 13.5632C14.5995 13.5632 14.6332 13.5529 14.6621 13.5323L15.1036 13.2167L15.5452 13.5323C15.574 13.5528 15.6077 13.5632 15.6414 13.5632C15.6756 13.5632 15.7097 13.5527 15.7387 13.5316C15.7964 13.4897 15.8207 13.4157 15.7993 13.3478L15.6356 12.8303L16.0722 12.5079C16.1295 12.4656 16.1533 12.3914 16.1312 12.3236C16.1092 12.2558 16.0463 12.2097 15.9751 12.2092L15.4324 12.205L15.2607 11.6901C15.238 11.6225 15.1747 11.577 15.1035 11.577Z" fill="#F5F5F5"/>
</svg>
