<svg width="24" height="24" viewBox="0 0 24 24" fill="none" xmlns="http://www.w3.org/2000/svg">
<path d="M10.5652 4.13794H2.89941L10.5652 6.64915V4.13794Z" fill="#41479B"/>
<path d="M24 7.03446V5.93534C24 5.58101 23.8971 5.25092 23.7201 4.97253L17.4258 7.03446H24Z" fill="#41479B"/>
<path d="M21.1058 4.13794H13.4399V6.64915L21.1058 4.13794Z" fill="#41479B"/>
<path d="M0.28084 4.97104C0.119544 5.22411 0.0195604 5.52003 0.00268555 5.83813V7.03446H6.57962L0.28084 4.97104Z" fill="#41479B"/>
<path d="M24 11.257V9.10342H17.4258L24 11.257Z" fill="#41479B"/>
<path d="M0.00268555 9.10342V11.2579L6.57962 9.10342H0.00268555Z" fill="#41479B"/>
<path d="M13.4399 11.9999H21.1058L13.4399 9.48868V11.9999Z" fill="#41479B"/>
<path d="M2.89917 11.9999H10.565V9.48868L2.89917 11.9999Z" fill="#41479B"/>
<path d="M4.79698 17.5344C5.99645 17.5344 5.99645 17.1723 7.19593 17.1723C8.39592 17.1723 8.39592 17.5344 9.59591 17.5344C10.7959 17.5344 10.7959 17.1723 11.9959 17.1723C13.1959 17.1723 13.1959 17.5344 14.3959 17.5344C15.5955 17.5344 15.5955 17.1723 16.7952 17.1723C17.995 17.1723 17.995 17.5344 19.1948 17.5344C20.3957 17.5344 20.3957 17.1723 21.5965 17.1723C22.7982 17.1723 22.7982 17.5344 23.9999 17.5344V16.4482C22.7982 16.4482 22.7982 16.0862 21.5965 16.0862C20.3956 16.0862 20.3956 16.4482 19.1948 16.4482C17.9949 16.4482 17.9949 16.0862 16.7952 16.0862C15.5955 16.0862 15.5955 16.4482 14.3959 16.4482C13.1959 16.4482 13.1959 16.0862 11.9959 16.0862C10.7959 16.0862 10.7959 16.4482 9.59591 16.4482C8.39592 16.4482 8.39592 16.0862 7.19593 16.0862C5.99645 16.0862 5.99645 16.4482 4.79698 16.4482C3.59811 16.4482 3.59811 16.0862 2.3992 16.0862C1.20057 16.0862 1.19954 16.4476 0.00268555 16.4482V17.5344C1.19954 17.5338 1.20052 17.1723 2.3992 17.1723C3.59811 17.1723 3.59811 17.5344 4.79698 17.5344Z" fill="#F5F5F5"/>
<path d="M4.79698 15.362C5.99645 15.362 5.99645 14.9999 7.19593 14.9999C8.39592 14.9999 8.39592 15.362 9.59591 15.362C10.7959 15.362 10.7959 14.9999 11.9959 14.9999C13.1959 14.9999 13.1959 15.362 14.3959 15.362C15.5955 15.362 15.5955 14.9999 16.7952 14.9999C17.995 14.9999 17.995 15.362 19.1948 15.362C20.3957 15.362 20.3957 14.9999 21.5965 14.9999C22.7982 14.9999 22.7982 15.362 23.9999 15.362V14.2758C22.7982 14.2758 22.7982 13.9138 21.5965 13.9138C20.3956 13.9138 20.3956 14.2758 19.1948 14.2758C17.9949 14.2758 17.9949 13.9138 16.7952 13.9138C15.5955 13.9138 15.5955 14.2758 14.3959 14.2758C13.1959 14.2758 13.1959 13.9138 11.9959 13.9138C10.7959 13.9138 10.7959 14.2758 9.59591 14.2758C8.39592 14.2758 8.39592 13.9138 7.19593 13.9138C5.99645 13.9138 5.99645 14.2758 4.79698 14.2758C3.59811 14.2758 3.59811 13.9138 2.3992 13.9138C1.20057 13.9138 1.19954 14.2753 0.00268555 14.2758V15.362C1.19954 15.3614 1.20052 14.9999 2.3992 14.9999C3.59811 14.9999 3.59811 15.362 4.79698 15.362Z" fill="#F5F5F5"/>
<path d="M4.79693 13.1896C5.9964 13.1896 5.9964 12.8275 7.19588 12.8275C8.39587 12.8275 8.39587 13.1896 9.59586 13.1896C10.7959 13.1896 10.7959 12.8275 11.9958 12.8275C13.1958 12.8275 13.1958 13.1896 14.3958 13.1896C15.5955 13.1896 15.5955 12.8275 16.7951 12.8275C17.995 12.8275 17.995 13.1896 19.1948 13.1896C20.3956 13.1896 20.3956 12.8275 21.5965 12.8275C22.7981 12.8275 22.7981 13.1896 23.9998 13.1896V12H23.6419H21.106H13.4401H12.6233H11.3819H10.5651H2.89926H0.986443H0.00268555V13.1896C1.19954 13.189 1.20052 12.8275 2.3992 12.8275C3.59806 12.8275 3.59806 13.1896 4.79693 13.1896Z" fill="#F5F5F5"/>
<path d="M19.1949 18.6206C17.995 18.6206 17.995 18.2585 16.7953 18.2585C15.5956 18.2585 15.5956 18.6206 14.396 18.6206C13.196 18.6206 13.196 18.2585 11.996 18.2585C10.796 18.2585 10.796 18.6206 9.59599 18.6206C8.396 18.6206 8.396 18.2585 7.19601 18.2585C5.99653 18.2585 5.99653 18.6206 4.79706 18.6206C3.59819 18.6206 3.59819 18.2585 2.39928 18.2585C1.22985 18.2585 1.1999 18.6024 0.0878906 18.6197C0.321889 19.3406 0.998618 19.8619 1.7975 19.8619H22.2025C23.0014 19.8619 23.6781 19.3406 23.9121 18.6197C22.798 18.6024 22.768 18.2585 21.5965 18.2585C20.3958 18.2585 20.3958 18.6206 19.1949 18.6206Z" fill="#F5F5F5"/>
<path d="M12.6235 12H13.4404V9.48871L21.1062 12H23.6422L14.7197 9.10344H16.2397L24.0001 11.6221V11.2571L17.4258 9.10344H24.0001V8.68964H12.6235V12Z" fill="#F5F5F5"/>
<path d="M9.9109 9.10344L0.986443 12H2.89926L10.5651 9.48871V12H11.3819V8.68964H0.00268555V9.10344H6.57962L0.00268555 11.2579V11.825L8.39085 9.10344H9.9109Z" fill="#F5F5F5"/>
<path d="M24.0001 7.44824V7.03443H17.4258L23.7201 4.97251C23.6121 4.80268 23.4766 4.65236 23.3195 4.52758L15.5919 7.03443H14.0719L22.7421 4.22036C22.5718 4.16688 22.3907 4.13791 22.2027 4.13791H21.1063L13.4404 6.64917V4.13796H12.6235V7.44829H24.0001V7.44824Z" fill="#F5F5F5"/>
<path d="M11.3819 4.13797H10.5651V6.64923L2.8993 4.13797H1.79742C1.47305 4.13797 1.16902 4.22436 0.906288 4.37464L9.10611 7.03449H7.58606L0.469088 4.72456C0.399479 4.80092 0.336667 4.88356 0.280933 4.97107L6.57966 7.03449H0.00268555V7.4483H11.3819V4.13797Z" fill="#F5F5F5"/>
<path d="M24 7.44843H12.6235V8.68981H24V7.44843Z" fill="#FF4B55"/>
<path d="M11.382 7.44843H0.00268555V8.68981H11.382V7.44843Z" fill="#FF4B55"/>
<path d="M11.3818 8.68961V11.9999H12.6232V8.68961V7.44823V4.13794H11.3818V7.44823V8.68961Z" fill="#FF4B55"/>
<path d="M9.9109 9.10342H8.39085L0.00268555 11.825V11.9999H0.986443L9.9109 9.10342Z" fill="#FF4B55"/>
<path d="M14.7192 9.10342L23.6417 11.9999H23.9996V11.622L16.2393 9.10342H14.7192Z" fill="#FF4B55"/>
<path d="M4.79696 14.2758C5.99644 14.2758 5.99644 13.9138 7.19591 13.9138C8.3959 13.9138 8.3959 14.2758 9.59589 14.2758C10.7959 14.2758 10.7959 13.9138 11.9959 13.9138C13.1959 13.9138 13.1959 14.2758 14.3959 14.2758C15.5955 14.2758 15.5955 13.9138 16.7952 13.9138C17.995 13.9138 17.995 14.2758 19.1948 14.2758C20.3957 14.2758 20.3957 13.9138 21.5965 13.9138C22.7982 13.9138 22.7982 14.2758 23.9999 14.2758V13.1896C22.7982 13.1896 22.7982 12.8276 21.5965 12.8276C20.3956 12.8276 20.3956 13.1896 19.1948 13.1896C17.9949 13.1896 17.9949 12.8276 16.7952 12.8276C15.5955 12.8276 15.5955 13.1896 14.3959 13.1896C13.1959 13.1896 13.1959 12.8276 11.9959 12.8276C10.7959 12.8276 10.7959 13.1896 9.59589 13.1896C8.3959 13.1896 8.3959 12.8276 7.19591 12.8276C5.99644 12.8276 5.99644 13.1896 4.79696 13.1896C3.5981 13.1896 3.5981 12.8276 2.39918 12.8276C1.20055 12.8276 1.19952 13.1891 0.00267185 13.1896C0.00173436 13.1896 0.000890618 13.1896 0 13.1896V14.2758C0.000937493 14.2758 0.00178124 14.2758 0.00267185 14.2758C1.19952 14.2753 1.20051 13.9138 2.39918 13.9138C3.5981 13.9138 3.5981 14.2758 4.79696 14.2758Z" fill="#41479B"/>
<path d="M4.79696 16.4482C5.99644 16.4482 5.99644 16.0861 7.19591 16.0861C8.3959 16.0861 8.3959 16.4482 9.59589 16.4482C10.7959 16.4482 10.7959 16.0861 11.9959 16.0861C13.1959 16.0861 13.1959 16.4482 14.3959 16.4482C15.5955 16.4482 15.5955 16.0861 16.7952 16.0861C17.995 16.0861 17.995 16.4482 19.1948 16.4482C20.3957 16.4482 20.3957 16.0861 21.5965 16.0861C22.7982 16.0861 22.7982 16.4482 23.9999 16.4482V15.362C22.7982 15.362 22.7982 14.9999 21.5965 14.9999C20.3956 14.9999 20.3956 15.362 19.1948 15.362C17.9949 15.362 17.9949 14.9999 16.7952 14.9999C15.5955 14.9999 15.5955 15.362 14.3959 15.362C13.1959 15.362 13.1959 14.9999 11.9959 14.9999C10.7959 14.9999 10.7959 15.362 9.59589 15.362C8.3959 15.362 8.3959 14.9999 7.19591 14.9999C5.99644 14.9999 5.99644 15.362 4.79696 15.362C3.5981 15.362 3.5981 14.9999 2.39918 14.9999C1.20055 14.9999 1.19952 15.3614 0.00267185 15.362C0.00173436 15.362 0.000890618 15.362 0 15.362V16.4482C0.000937493 16.4482 0.00178124 16.4482 0.00267185 16.4482C1.19952 16.4476 1.20051 16.0861 2.39918 16.0861C3.5981 16.0861 3.5981 16.4482 4.79696 16.4482Z" fill="#41479B"/>
<path d="M0.0877962 18.6198C1.1998 18.6024 1.22976 18.2586 2.39918 18.2586C3.59805 18.2586 3.59805 18.6206 4.79696 18.6206C5.99644 18.6206 5.99644 18.2586 7.19591 18.2586C8.3959 18.2586 8.3959 18.6206 9.59589 18.6206C10.7959 18.6206 10.7959 18.2586 11.9959 18.2586C13.1959 18.2586 13.1959 18.6206 14.3959 18.6206C15.5955 18.6206 15.5955 18.2586 16.7952 18.2586C17.995 18.2586 17.995 18.6206 19.1948 18.6206C20.3957 18.6206 20.3957 18.2586 21.5966 18.2586C22.768 18.2586 22.798 18.6025 23.9121 18.6198C23.9688 18.4449 23.9999 18.2584 23.9999 18.0646V17.5345C22.7983 17.5345 22.7982 17.1724 21.5966 17.1724C20.3957 17.1724 20.3957 17.5345 19.1948 17.5345C17.9949 17.5345 17.9949 17.1724 16.7952 17.1724C15.5955 17.1724 15.5955 17.5345 14.3959 17.5345C13.1959 17.5345 13.1959 17.1724 11.9959 17.1724C10.7959 17.1724 10.7959 17.5345 9.59589 17.5345C8.3959 17.5345 8.3959 17.1724 7.19591 17.1724C5.99644 17.1724 5.99644 17.5345 4.79696 17.5345C3.5981 17.5345 3.5981 17.1724 2.39918 17.1724C1.20055 17.1724 1.19952 17.5339 0.00267191 17.5345C0.00173441 17.5345 0.000890671 17.5345 5.30279e-08 17.5345V18.0646C-4.68216e-05 18.2584 0.0309842 18.4449 0.0877962 18.6198Z" fill="#41479B"/>
<path d="M9.10617 7.03449L0.906391 4.37463C0.742892 4.4682 0.595284 4.58627 0.469238 4.72455L7.58617 7.03449H9.10617Z" fill="#FF4B55"/>
<path d="M15.5918 7.03448L23.3195 4.52763C23.1493 4.39244 22.9543 4.28711 22.742 4.22046L14.0718 7.03448H15.5918Z" fill="#FF4B55"/>
<path d="M14.1243 7.34807L13.5138 7.66363L13.2727 7.10277C13.2478 7.04488 13.148 7.03457 13.1044 7.08529L12.6072 7.66363L12.0873 6.85734C12.0524 6.80329 11.953 6.80329 11.9181 6.85734L11.3983 7.66363L10.9011 7.08529C10.8574 7.03457 10.7576 7.04488 10.7327 7.10277L10.4916 7.66363L9.88116 7.34807C9.80049 7.3064 9.70079 7.3746 9.74415 7.44186L10.3405 8.36675H10.3147C10.2455 8.36675 10.1893 8.41025 10.1893 8.46392V8.73828C10.1893 8.79195 10.2454 8.83545 10.3147 8.83545H13.6906C13.7598 8.83545 13.816 8.79195 13.816 8.73828V8.46392C13.816 8.41025 13.7599 8.36675 13.6906 8.36675H13.6648L14.2611 7.44186C14.3046 7.3746 14.2049 7.30635 14.1243 7.34807Z" fill="#FFE15A"/>
<path d="M18.8295 19.3047C19.6986 18.8571 20.0113 18.1858 20.1251 17.9364C20.2976 17.5585 21.0977 17.2539 21.0977 17.2539C21.0977 17.2539 20.1093 17.2585 19.5803 17.9453C19.0926 18.5784 18.2145 18.6329 17.3677 19.1174C17.287 19.0159 17.2039 18.9164 17.1177 18.8198L19.7563 15.6256L16.5621 18.2642C16.4371 18.1527 16.3078 18.046 16.1748 17.9438C16.2589 17.7251 16.4248 17.3872 16.7506 17.0024C17.3823 16.2563 17.4142 15.5164 17.424 15.2424C17.4388 14.8274 18.0613 14.2396 18.0613 14.2396C18.0613 14.2396 17.15 14.6222 16.924 15.4591C16.7159 16.2303 15.9262 16.6166 15.3293 17.3875C15.2161 17.3245 15.1013 17.2637 14.9843 17.207L16.199 13.2486L14.2583 16.9076C14.1003 16.8526 13.9401 16.8027 13.7772 16.7592C13.7714 16.5249 13.7956 16.1498 13.949 15.6708C14.247 14.7397 13.9934 14.0439 13.8975 13.7871C13.7523 13.398 14.1026 12.6168 14.1026 12.6168C14.1026 12.6168 13.407 13.319 13.5185 14.1787C13.6214 14.9711 13.0392 15.6304 12.7829 16.5714C12.6547 16.5568 12.5256 16.5453 12.3954 16.5379L12.0026 12.4137L11.6098 16.5377C11.4411 16.5473 11.2745 16.5641 11.1093 16.5856C11.0142 16.3715 10.8925 16.0152 10.8508 15.5127C10.7699 14.5385 10.2693 13.9926 10.0824 13.792C9.79936 13.4881 9.82401 12.6324 9.82401 12.6324C9.82401 12.6324 9.45005 13.5472 9.88214 14.2988C10.2803 14.9914 9.99506 15.8232 10.1182 16.7903C9.99295 16.826 9.86915 16.8649 9.74704 16.9076L7.80634 13.2485L9.02105 17.207C8.8696 17.2803 8.72218 17.3605 8.57715 17.4443C8.40732 17.2829 8.15879 17.0003 7.92812 16.5524C7.48052 15.6833 6.80913 15.3706 6.55976 15.2568C6.18195 15.0843 5.87726 14.2843 5.87726 14.2843C5.87726 14.2843 5.88186 15.2727 6.56871 15.8016C7.20185 16.2893 7.25631 17.1675 7.74076 18.0143C7.63928 18.095 7.53977 18.1781 7.44311 18.2643L4.24893 15.6256L6.8876 18.8198C6.77608 18.9448 6.6694 19.0741 6.56712 19.2072C6.34849 19.1231 6.01053 18.9571 5.62573 18.6313C4.87963 17.9997 4.13971 17.9677 3.86573 17.9579C3.4507 17.9432 2.86304 17.3206 2.86304 17.3206C2.86304 17.3206 3.24558 18.232 4.08253 18.4579C4.77435 18.6446 5.15868 19.2984 5.78647 19.8621H18.0319C18.2009 19.7005 18.4546 19.4978 18.8295 19.3047Z" fill="#FFE15A"/>
<path d="M20.8529 19.862L22.1334 19.1829L19.9204 19.862H20.8529Z" fill="#FFE15A"/>
<path d="M1.87183 19.1829L3.15225 19.862H4.08482L1.87183 19.1829Z" fill="#FFE15A"/>
</svg>
