<svg width="24" height="24" viewBox="0 0 24 24" fill="none" xmlns="http://www.w3.org/2000/svg">
<path d="M0 18.0646C0 19.0573 0.804703 19.8621 1.79742 19.8621H22.2026C23.1952 19.8621 24 19.0574 24 18.0646V16.5517H0V18.0646Z" fill="#C8414B"/>
<path d="M22.2026 4.13794H1.79742C0.804703 4.13794 0 4.94264 0 5.93536V7.4483H24V5.93536C24 4.94264 23.1953 4.13794 22.2026 4.13794Z" fill="#C8414B"/>
<path d="M24 7.44843H0V16.552H24V7.44843Z" fill="#FFD250"/>
<path d="M10.138 12L10.4888 10.4212C10.5212 10.2758 10.4105 10.1379 10.2615 10.1379H10.0144C9.86549 10.1379 9.75486 10.2758 9.78711 10.4212L10.138 12Z" fill="#C8414B"/>
<path d="M10.5517 11.1722H9.72412V14.6892H10.5517V11.1722Z" fill="#F5F5F5"/>
<path d="M10.7585 10.7588H9.51709V11.1726H10.7585V10.7588Z" fill="#FAB446"/>
<path d="M10.7588 12H8.6897V12.4138H10.7588V12Z" fill="#C8414B"/>
<path d="M10.7585 13.6552L9.51709 13.2414V12.8276L10.7585 13.2414V13.6552Z" fill="#C8414B"/>
<path d="M3.93094 12L4.2818 10.4212C4.31415 10.2758 4.20347 10.1379 4.05451 10.1379H3.80738C3.65846 10.1379 3.54783 10.2758 3.58008 10.4212L3.93094 12Z" fill="#C8414B"/>
<path d="M5.37939 10.7586C5.15087 10.7586 4.96558 10.9439 4.96558 11.1724V13.8621C4.96558 14.3648 5.4348 15.3104 7.03454 15.3104C8.63429 15.3104 9.10351 14.3648 9.10351 13.8621V11.1724C9.10351 10.9439 8.91822 10.7586 8.6897 10.7586H5.37939Z" fill="#F5F5F5"/>
<path d="M7.03454 12.8276H4.96558V11.1724C4.96558 10.9439 5.15087 10.7586 5.37939 10.7586H7.03454V12.8276Z" fill="#C8414B"/>
<path d="M7.03442 12.8276H9.10339V13.8621C9.10339 14.4334 8.64027 14.8965 8.06891 14.8965C7.49755 14.8965 7.03442 14.4334 7.03442 13.8621V12.8276Z" fill="#C8414B"/>
<path d="M4.96558 12.8276H7.03454V13.8621C7.03454 14.4334 6.57142 14.8965 6.00006 14.8965C5.4287 14.8965 4.96558 14.4334 4.96558 13.8621V12.8276Z" fill="#FAB446"/>
<path d="M6.62084 14.685V12.8276H6.20703V14.8757C6.36097 14.8445 6.50005 14.7763 6.62084 14.685Z" fill="#C8414B"/>
<path d="M5.79321 14.8757V12.8276H5.37939V14.685C5.50024 14.7763 5.63932 14.8445 5.79321 14.8757Z" fill="#C8414B"/>
<path d="M6.62078 12H5.37939V12.4138H6.62078V12Z" fill="#FFB441"/>
<path d="M6.62078 11.1722H5.37939V11.586H6.62078V11.1722Z" fill="#FAB446"/>
<path d="M6.41376 11.4183H5.58618V12.1679H6.41376V11.4183Z" fill="#FAB446"/>
<path d="M4.34467 11.1722H3.51709V14.6892H4.34467V11.1722Z" fill="#F5F5F5"/>
<path d="M4.55169 14.483H3.3103V14.8968H4.55169V14.483Z" fill="#FAB446"/>
<path d="M4.55169 10.7588H3.3103V11.1726H4.55169V10.7588Z" fill="#FAB446"/>
<path d="M4.75867 14.8964H3.10352V15.3102H4.75867V14.8964Z" fill="#5064AA"/>
<path d="M10.9655 14.483H9.72412V14.8968H10.9655V14.483Z" fill="#FAB446"/>
<path d="M10.9655 14.8964H9.3103V15.3102H10.9655V14.8964Z" fill="#5064AA"/>
<path d="M8.27599 10.3448H5.79321V10.7587H8.27599V10.3448Z" fill="#FAB446"/>
<path d="M7.24169 9.10361H6.82788V10.345H7.24169V9.10361Z" fill="#FFB441"/>
<path d="M6.62067 9.72413C6.27839 9.72413 6 9.44569 6 9.10346C6 8.76118 6.27844 8.48279 6.62067 8.48279C6.96295 8.48279 7.24134 8.76123 7.24134 9.10346C7.24139 9.44569 6.96295 9.72413 6.62067 9.72413ZM6.62067 8.89655C6.50653 8.89655 6.41377 8.98927 6.41377 9.10346C6.41377 9.2176 6.50648 9.31037 6.62067 9.31037C6.73486 9.31037 6.82758 9.21765 6.82758 9.10346C6.82758 8.98932 6.73486 8.89655 6.62067 8.89655Z" fill="#F5F5F5"/>
<path d="M7.44831 9.72413C7.10603 9.72413 6.82764 9.44569 6.82764 9.10346C6.82764 8.76118 7.10607 8.48279 7.44831 8.48279C7.79059 8.48279 8.06898 8.76123 8.06898 9.10346C8.06898 9.44569 7.79054 9.72413 7.44831 9.72413ZM7.44831 8.89655C7.33417 8.89655 7.2414 8.98927 7.2414 9.10346C7.2414 9.2176 7.33412 9.31037 7.44831 9.31037C7.56245 9.31037 7.65521 9.21765 7.65521 9.10346C7.65517 8.98932 7.56245 8.89655 7.44831 8.89655Z" fill="#F5F5F5"/>
<path d="M8.2757 10.1379C7.93342 10.1379 7.65503 9.85951 7.65503 9.51728C7.65503 9.175 7.93347 8.89661 8.2757 8.89661C8.61798 8.89661 8.89637 9.17504 8.89637 9.51728C8.89637 9.85951 8.61794 10.1379 8.2757 10.1379ZM8.2757 9.31037C8.16156 9.31037 8.06879 9.40309 8.06879 9.51728C8.06879 9.63142 8.16151 9.72418 8.2757 9.72418C8.38984 9.72418 8.48261 9.63147 8.48261 9.51728C8.48261 9.40309 8.38984 9.31037 8.2757 9.31037Z" fill="#F5F5F5"/>
<path d="M5.79304 10.1379C5.45075 10.1379 5.17236 9.85951 5.17236 9.51728C5.17236 9.175 5.4508 8.89661 5.79304 8.89661C6.13532 8.89661 6.41371 9.17504 6.41371 9.51728C6.41375 9.85951 6.13532 10.1379 5.79304 10.1379ZM5.79304 9.31037C5.67889 9.31037 5.58613 9.40309 5.58613 9.51728C5.58613 9.63142 5.67885 9.72418 5.79304 9.72418C5.90722 9.72418 5.99994 9.63142 5.99994 9.51723C5.99994 9.40309 5.90722 9.31037 5.79304 9.31037Z" fill="#F5F5F5"/>
<path d="M8.27587 13.6552V13.8621C8.27587 13.9762 8.18305 14.069 8.06896 14.069C7.95487 14.069 7.86205 13.9762 7.86205 13.8621V13.6552H8.27587ZM8.68963 13.2414H7.44824V13.8621C7.44824 14.2043 7.72668 14.4827 8.06891 14.4827C8.4112 14.4827 8.68959 14.2043 8.68959 13.8621V13.2414H8.68963Z" fill="#FAB446"/>
<path d="M8.06909 12.4138C7.84057 12.4138 7.65527 12.2285 7.65527 12V11.5862C7.65527 11.3577 7.84057 11.1724 8.06909 11.1724C8.2976 11.1724 8.4829 11.3577 8.4829 11.5862V12C8.4829 12.2285 8.2976 12.4138 8.06909 12.4138Z" fill="#FFA0D2"/>
<path d="M7.03449 13.448C7.37728 13.448 7.65516 13.1701 7.65516 12.8273C7.65516 12.4845 7.37728 12.2067 7.03449 12.2067C6.6917 12.2067 6.41382 12.4845 6.41382 12.8273C6.41382 13.1701 6.6917 13.448 7.03449 13.448Z" fill="#5064AA"/>
<path d="M7.24169 8.27579H6.82788V9.51718H7.24169V8.27579Z" fill="#FAB446"/>
<path d="M5.79321 10.3448L5.37939 9.93103L5.62179 9.68864C5.99646 9.31397 6.50468 9.10345 7.0346 9.10345C7.56452 9.10345 8.07269 9.31397 8.44741 9.68864L8.6898 9.93103L8.27599 10.3448H5.79321Z" fill="#C8414B"/>
<path d="M7.03454 10.1378C7.14881 10.1378 7.24145 10.0452 7.24145 9.93094C7.24145 9.81666 7.14881 9.72403 7.03454 9.72403C6.92027 9.72403 6.82764 9.81666 6.82764 9.93094C6.82764 10.0452 6.92027 10.1378 7.03454 10.1378Z" fill="#FFD250"/>
<path d="M6.20666 10.1378C6.32093 10.1378 6.41357 10.0452 6.41357 9.93094C6.41357 9.81666 6.32093 9.72403 6.20666 9.72403C6.09239 9.72403 5.99976 9.81666 5.99976 9.93094C5.99976 10.0452 6.09239 10.1378 6.20666 10.1378Z" fill="#FFD250"/>
<path d="M7.86194 10.1378C7.97621 10.1378 8.06884 10.0452 8.06884 9.93094C8.06884 9.81666 7.97621 9.72403 7.86194 9.72403C7.74766 9.72403 7.65503 9.81666 7.65503 9.93094C7.65503 10.0452 7.74766 10.1378 7.86194 10.1378Z" fill="#FFD250"/>
<path d="M5.37937 12H3.3103V12.4138H5.37937V12Z" fill="#C8414B"/>
<path d="M3.3103 13.6552L4.55165 13.2414V12.8276L3.3103 13.2414V13.6552Z" fill="#C8414B"/>
</svg>
