<svg width="24" height="24" viewBox="0 0 24 24" fill="none" xmlns="http://www.w3.org/2000/svg">
<path d="M22.2026 19.8621H1.79742C0.804703 19.8621 0 19.0574 0 18.0646V5.93536C0 4.94269 0.804703 4.13794 1.79742 4.13794H22.2026C23.1952 4.13794 24 4.94264 24 5.93536V18.0647C24 19.0574 23.1953 19.8621 22.2026 19.8621Z" fill="#73AF00"/>
<path d="M4.96591 9.4818C5.00669 9.74323 5.1647 9.82526 5.30205 9.81452C5.46405 9.80196 5.60612 9.65384 5.60612 9.49737V8.60027C5.60612 8.55537 5.64269 8.51871 5.68769 8.51871C5.73269 8.51871 5.76925 8.55532 5.76925 8.60027V9.50121C5.76925 9.60954 5.82278 9.71055 5.91255 9.77121C5.96734 9.80834 6.03114 9.82741 6.09541 9.82741C6.13633 9.82741 6.17744 9.81959 6.21662 9.80398L6.29814 9.7714C6.30564 10.5244 6.25984 11.1863 6.259 11.1984C6.25262 11.2883 6.32022 11.3663 6.41008 11.3727C6.41406 11.373 6.41795 11.3732 6.42189 11.3732C6.50673 11.3732 6.57831 11.3075 6.58445 11.2217C6.58825 11.1686 6.6385 10.4438 6.62341 9.64127L6.67272 9.62159C6.71594 9.60438 6.7645 9.60645 6.80608 9.62716C6.98575 9.7167 7.20194 9.68177 7.34392 9.53984L7.37331 9.51049C7.50512 9.37845 7.55045 9.18663 7.49144 9.00968L7.35255 8.59301C7.42764 8.6156 7.51014 8.58237 7.54642 8.51004C7.58673 8.42946 7.55406 8.33149 7.47348 8.29118L7.14728 8.12805C7.08827 8.09843 7.01744 8.10752 6.96742 8.15065C6.91755 8.19401 6.8987 8.26296 6.91956 8.32554L7.18201 9.11295C7.20166 9.17187 7.18656 9.2359 7.14264 9.27987L7.1133 9.30921C7.07078 9.35173 7.006 9.36209 6.95186 9.33532C6.84616 9.28249 6.72578 9.2726 6.61286 9.30138C6.58994 8.77784 6.53355 8.25649 6.41345 7.89607C6.385 7.81066 6.2928 7.76435 6.20706 7.79299C6.12161 7.82135 6.07544 7.9137 6.10394 7.99929C6.22145 8.35174 6.27264 8.88888 6.29083 9.42298L6.09555 9.50107V8.60013C6.09555 8.37523 5.91259 8.19232 5.68773 8.19232C5.46287 8.19232 5.27992 8.37523 5.27992 8.60013V9.38974L5.11352 8.56779C5.0958 8.47938 5.00983 8.42173 4.92133 8.4402C4.83297 8.4582 4.77587 8.54421 4.79383 8.63248L4.96591 9.4818Z" fill="#F5F5F5"/>
<path d="M5.28007 8.11094C5.37012 8.11094 5.44315 8.03796 5.44315 7.94782V7.78474C5.44315 7.6946 5.37012 7.62161 5.28007 7.62161C5.18997 7.62161 5.11694 7.69455 5.11694 7.78474V7.94782C5.11694 8.03796 5.18997 8.11094 5.28007 8.11094Z" fill="#F5F5F5"/>
<path d="M6.91117 7.94782H7.0743C7.16439 7.94782 7.23742 7.87488 7.23742 7.78474C7.23742 7.6946 7.16439 7.62161 7.0743 7.62161H6.91117C6.82108 7.62161 6.74805 7.69455 6.74805 7.78474C6.74805 7.87488 6.82108 7.94782 6.91117 7.94782Z" fill="#F5F5F5"/>
<path d="M5.84841 10.0915L5.03283 10.5809C4.95553 10.6273 4.93055 10.7274 4.97691 10.8047C5.00747 10.8557 5.06147 10.8839 5.11692 10.8839C5.14552 10.8839 5.17444 10.8764 5.20073 10.8606L6.01631 10.3712C6.09361 10.3249 6.11859 10.2247 6.07223 10.1474C6.02583 10.0702 5.92575 10.0452 5.84841 10.0915Z" fill="#F5F5F5"/>
<path d="M8.0476 10.3801L8.05144 10.3775C8.06513 10.4326 8.08861 10.486 8.12672 10.5308C8.193 10.6088 8.29238 10.648 8.40469 10.6388C8.56402 10.6271 8.6723 10.5543 8.74402 10.4604C8.75494 10.4679 8.76642 10.4747 8.77842 10.4807C8.8666 10.5252 8.96855 10.5218 9.06563 10.4715C9.31214 10.3445 9.36525 10.0508 9.35775 9.89725C9.35335 9.80772 9.27722 9.74453 9.18792 9.74275C9.09835 9.74659 9.0286 9.82258 9.03183 9.91211C9.03188 9.91417 9.03553 10.1077 8.91722 10.1796C8.89791 10.1527 8.87503 10.0921 8.86641 10.0421C8.85263 9.95814 8.77552 9.89968 8.69255 9.90639C8.60799 9.91304 8.54264 9.98411 8.54236 10.069C8.54232 10.0927 8.53702 10.3021 8.37544 10.3195C8.35664 10.2939 8.35632 10.1859 8.37483 10.1061C8.39044 10.0406 8.36419 9.97225 8.30883 9.93404C8.25333 9.89565 8.18016 9.89565 8.12442 9.93343L8.03339 9.99536C7.99018 9.04942 7.89056 7.94715 7.88935 7.93304C7.88124 7.84351 7.80239 7.77676 7.71216 7.78539C7.62244 7.7935 7.5563 7.87286 7.56446 7.96272C7.56586 7.97781 7.68108 9.25314 7.71657 10.2271C7.70822 10.235 7.69964 10.2437 7.69149 10.2512C7.62699 10.0886 7.49911 9.98617 7.33444 9.97061C7.10203 9.95008 6.85022 10.1082 6.75994 10.3341C6.68213 10.5285 6.73111 10.7195 6.88463 10.8206C6.99502 10.8934 7.16161 10.9163 7.3711 10.8429C7.31996 11.0226 7.22682 11.2048 7.10578 11.3458C6.99736 11.4721 6.81633 11.6178 6.58467 11.6113C6.44982 11.606 6.34622 11.5619 6.26789 11.4763C6.07903 11.27 6.0953 10.8966 6.09544 10.8926C6.10013 10.8028 6.03136 10.7262 5.94155 10.7212C5.85113 10.7117 5.77463 10.7851 5.76966 10.8751C5.76853 10.8958 5.74486 11.3865 6.02578 11.695C6.16407 11.8471 6.34777 11.9285 6.57183 11.9373C6.58275 11.9378 6.59367 11.9379 6.60464 11.9379C6.8775 11.9379 7.14225 11.8041 7.35314 11.5583C7.55152 11.3273 7.68624 11.0135 7.72664 10.7222C7.72613 11.2802 7.38985 11.9096 6.94402 12.1869C6.75469 12.3044 6.45952 12.4105 6.12703 12.2466C5.71716 12.0443 5.766 11.5758 5.76816 11.5567C5.77936 11.4673 5.71594 11.3857 5.62655 11.3746C5.53758 11.3638 5.45555 11.4267 5.44449 11.5162C5.44083 11.5454 5.36246 12.233 5.98271 12.539C6.14203 12.6177 6.30863 12.6567 6.47653 12.6567C6.69221 12.6567 6.90989 12.5922 7.11624 12.4638C7.65905 12.1264 8.05303 11.3934 8.05303 10.7209C8.05299 10.6157 8.05097 10.5009 8.0476 10.3801ZM7.06407 10.5482C7.03491 10.5289 7.05769 10.4673 7.06261 10.4551C7.09697 10.369 7.20441 10.2947 7.29024 10.2947C7.29464 10.2947 7.2991 10.2948 7.30336 10.2953C7.32422 10.2972 7.37958 10.3024 7.40339 10.4256C7.40592 10.4387 7.40808 10.452 7.40977 10.4657C7.22799 10.5724 7.10611 10.5758 7.06407 10.5482Z" fill="#F5F5F5"/>
<path d="M5.36233 12.0484C5.28503 12.003 5.18523 12.029 5.1393 12.1063C5.1318 12.1189 5.12186 12.1326 5.11173 12.145C5.10995 12.1408 5.10822 12.1364 5.10644 12.1316C5.03842 11.9501 5.08684 11.6706 5.11131 11.5782C5.13433 11.4912 5.08253 11.402 4.99562 11.3787C4.90881 11.3564 4.81952 11.4071 4.79617 11.4941C4.78431 11.5382 4.68405 11.9342 4.80095 12.2461C4.87581 12.4455 4.99075 12.4959 5.07405 12.5027C5.08145 12.5033 5.08877 12.5036 5.09603 12.5036C5.27162 12.5036 5.38848 12.3267 5.42102 12.2705C5.46606 12.1929 5.43967 12.094 5.36233 12.0484Z" fill="#F5F5F5"/>
<path d="M8.37252 9.0896C8.40781 9.0896 8.44334 9.07825 8.47316 9.05472L9.29548 8.40911C9.30683 8.40021 9.31409 8.38853 9.32239 8.37757C9.4408 8.30613 9.52095 8.1775 9.52095 8.02943C9.52095 7.80452 9.338 7.62161 9.11314 7.62161C8.88828 7.62161 8.70533 7.80447 8.70533 8.02943C8.70533 8.15529 8.76383 8.26652 8.85364 8.34138L8.27159 8.79832C8.20077 8.85391 8.18844 8.95647 8.24403 9.02721C8.27628 9.06822 8.32419 9.0896 8.37252 9.0896ZM9.11323 7.94782C9.15823 7.94782 9.1948 7.98443 9.1948 8.02938C9.1948 8.07433 9.15823 8.11094 9.11323 8.11094C9.06823 8.11094 9.03167 8.07433 9.03167 8.02938C9.03167 7.98443 9.06823 7.94782 9.11323 7.94782Z" fill="#F5F5F5"/>
<path d="M8.91994 8.93496C8.83402 8.90632 8.742 8.95263 8.71355 9.03804C8.69611 9.09026 8.61722 9.35937 8.77711 9.51907C8.83913 9.58118 8.92069 9.61226 9.02082 9.61212C9.08775 9.61212 9.16289 9.59843 9.24614 9.57054C9.3316 9.54218 9.37777 9.44984 9.34927 9.36424C9.32077 9.27884 9.22856 9.23234 9.14288 9.26116C9.05175 9.29144 9.01322 9.28652 9.00971 9.28966C9.0001 9.26548 9.00642 9.19263 9.02316 9.14055C9.05138 9.05538 9.00521 8.96332 8.91994 8.93496Z" fill="#F5F5F5"/>
<path d="M10.7869 8.26064C10.8022 8.26509 10.8175 8.26716 10.8327 8.26716C10.9033 8.26716 10.9684 8.22098 10.9892 8.14973L11.0843 7.82353C11.1096 7.73705 11.0599 7.64644 10.9735 7.62122C10.8868 7.59619 10.7964 7.64559 10.7712 7.73208L10.676 8.05828C10.6508 8.14486 10.7004 8.23547 10.7869 8.26064Z" fill="#F5F5F5"/>
<path d="M9.83601 8.24153C9.86193 8.25667 9.89029 8.26384 9.91818 8.26384C9.97424 8.26384 10.0288 8.23501 10.0591 8.18312C10.1046 8.1054 10.0784 8.00533 10.0007 7.96C9.96787 7.94087 9.97232 7.88687 9.97354 7.87619C9.97842 7.83334 10.004 7.78108 10.0484 7.7672C10.1344 7.74048 10.1825 7.64903 10.1557 7.56301C10.1288 7.47686 10.0375 7.42919 9.95137 7.45562C9.78876 7.50625 9.67021 7.65681 9.64935 7.83906C9.63004 8.00866 9.70157 8.16287 9.83601 8.24153Z" fill="#F5F5F5"/>
<path d="M8.54228 10.8839C8.45218 10.8839 8.37915 10.9569 8.37915 11.047C8.37915 11.1266 8.4362 11.1929 8.51167 11.2072C8.52024 11.2198 8.54223 11.263 8.54223 11.3732C8.54223 11.4633 8.61526 11.5363 8.70535 11.5363C8.79545 11.5363 8.86848 11.4634 8.86848 11.3732C8.86853 10.8895 8.55559 10.8839 8.54228 10.8839Z" fill="#F5F5F5"/>
<path d="M11.3093 10.2085C11.3298 10.2118 11.3502 10.2134 11.3707 10.2134C11.4989 10.2134 11.6283 10.1488 11.7566 10.0205C11.8203 9.95684 11.8203 9.85362 11.7566 9.78991C11.6929 9.72621 11.5897 9.72621 11.526 9.78991C11.4284 9.88756 11.3759 9.88962 11.3625 9.88657C11.3313 9.88212 11.3031 9.84148 11.2968 9.83037C11.2559 9.75101 11.1589 9.71937 11.079 9.75931C10.9984 9.79962 10.9657 9.89759 11.0061 9.97817C11.0161 9.99837 11.1103 10.1761 11.3093 10.2085Z" fill="#F5F5F5"/>
<path d="M14.082 9.06218C14.081 9.05965 14.08 9.05721 14.0792 9.05501C14.0503 8.97031 13.9579 8.92423 13.8734 8.95306C13.7878 8.98142 13.7416 9.07376 13.7701 9.15935C13.7828 9.19756 13.8555 9.38937 14.0355 9.41356C14.0475 9.41515 14.0595 9.41595 14.0714 9.41595C14.1844 9.41595 14.2905 9.34282 14.3869 9.19817C14.4368 9.12331 14.4165 9.02201 14.3416 8.97199C14.2665 8.92212 14.1652 8.94218 14.1154 9.01728C14.1025 9.03654 14.0914 9.05121 14.082 9.06218Z" fill="#F5F5F5"/>
<path d="M13.7619 12.0257C13.7619 11.3301 13.7313 10.6775 13.6889 10.1057C13.9205 10.5074 14.1288 10.9133 14.2616 11.2674C14.2862 11.3329 14.3483 11.3732 14.4143 11.3732C14.4333 11.3732 14.4527 11.3698 14.4716 11.3628C14.556 11.3312 14.5987 11.2372 14.5671 11.1527C14.3606 10.6023 13.9895 9.94684 13.6238 9.36494C13.5346 8.48626 13.4348 7.92854 13.433 7.91861C13.4169 7.82992 13.3321 7.77001 13.2434 7.78731C13.1547 7.80339 13.0959 7.88828 13.112 7.97687C13.1133 7.98395 13.1647 8.27125 13.2261 8.75476C13.1008 8.56881 12.9844 8.40105 12.8867 8.26295L12.8946 8.26548C12.9805 8.29412 13.0725 8.24781 13.101 8.16245C13.1295 8.0769 13.0833 7.98451 12.9979 7.95615L12.5085 7.79303C12.4406 7.77011 12.3661 7.79434 12.3246 7.85233C12.3135 7.8678 12.3059 7.88476 12.3008 7.90234C12.2031 7.83015 12.0779 7.77142 11.9603 7.82069C11.8892 7.85017 11.8044 7.92437 11.8044 8.11089C11.8044 8.25409 11.8591 8.40892 11.917 8.57298C12.013 8.84505 12.0732 9.04511 11.9715 9.14055C11.9153 9.19323 11.8591 9.21315 11.8043 9.19933C11.7037 9.17383 11.6042 9.03986 11.5378 8.84092C11.5349 8.8323 11.5289 8.82601 11.5248 8.81828C11.5591 8.56562 11.5442 8.26122 11.475 7.91579C11.4574 7.82739 11.3717 7.76987 11.2831 7.78787C11.1947 7.80555 11.1375 7.89142 11.1551 7.97983C11.2616 8.51247 11.2297 8.94705 11.0697 9.14219C11.0078 9.2177 10.9303 9.25272 10.8257 9.25272C10.7927 9.25272 10.7701 9.24222 10.7477 9.21639C10.619 9.06808 10.6195 8.58958 10.6611 8.29694C10.6677 8.2503 10.6537 8.20281 10.6227 8.16709C10.5917 8.13142 10.5468 8.11089 10.4995 8.11089C10.2189 8.11089 10.1124 8.43006 10.0186 8.71173C9.9774 8.83553 9.90062 9.06569 9.84709 9.08959C9.74837 9.08959 9.68453 8.79967 9.68396 8.60008C9.68368 8.51008 9.61079 8.43728 9.52084 8.43728C9.52084 8.43728 9.5207 8.43728 9.52056 8.43728C9.43056 8.43728 9.35767 8.51026 9.35767 8.60026C9.35767 8.97648 9.48582 9.41584 9.84704 9.41584C10.116 9.41584 10.2249 9.12278 10.3162 8.85034C10.332 9.06695 10.3809 9.29139 10.5012 9.43C10.5857 9.5275 10.6979 9.57892 10.8257 9.57892C11.0271 9.57892 11.1986 9.49942 11.3219 9.34905C11.3443 9.32186 11.3635 9.29059 11.3825 9.25905C11.4772 9.39372 11.5934 9.4825 11.7243 9.51555C11.7627 9.52525 11.8013 9.53017 11.8395 9.53017C11.9654 9.53017 12.0885 9.47823 12.1947 9.37834C12.2168 9.35762 12.2324 9.33489 12.2492 9.31253C12.2891 9.32392 12.3295 9.33067 12.3697 9.33067C12.5019 9.33067 12.6291 9.27747 12.708 9.2268C12.7835 9.17837 12.8054 9.07834 12.7574 9.0025C12.7094 8.92684 12.6089 8.9042 12.5328 8.95169C12.5314 8.95234 12.4225 9.01497 12.3482 9.0003C12.3484 8.82147 12.2837 8.63158 12.2246 8.46428C12.191 8.36898 12.1566 8.27139 12.1403 8.19161C12.1537 8.20295 12.1668 8.21472 12.1786 8.22615C12.2422 8.28986 12.3455 8.28986 12.4092 8.22615C12.4197 8.21561 12.4258 8.20281 12.4329 8.19048C12.6019 8.4234 12.9497 8.91287 13.3074 9.47706C13.3757 10.1706 13.4356 11.0552 13.4356 12.0256C13.4356 12.1157 13.5086 12.1887 13.5987 12.1887C13.6889 12.1887 13.7619 12.1158 13.7619 12.0257Z" fill="#F5F5F5"/>
<path d="M13.9249 8.43714C13.9249 8.52728 13.9979 8.60027 14.088 8.60027C14.1781 8.60027 14.2511 8.52728 14.2511 8.43714C14.2511 8.24519 14.1009 7.93506 14.0708 7.87483C14.0305 7.79439 13.9326 7.76191 13.8519 7.80189C13.7714 7.8422 13.7386 7.94017 13.779 8.02075C13.8378 8.13845 13.9249 8.35206 13.9249 8.43714Z" fill="#F5F5F5"/>
<path d="M13.1828 12.0435C13.1029 12.0027 13.0046 12.0351 12.9639 12.1154C12.9464 12.1496 12.9192 12.1877 12.8963 12.2122C12.8891 12.1474 12.9063 12.0179 12.9392 11.9105C12.9611 11.8389 12.9314 11.7615 12.8672 11.7229C12.8033 11.6842 12.7208 11.6943 12.6679 11.7473L12.3417 12.0735C12.278 12.1372 12.278 12.2404 12.3417 12.3041C12.4054 12.3678 12.5086 12.3678 12.5723 12.3041L12.5806 12.2958C12.5948 12.3613 12.6218 12.421 12.668 12.4672C12.7291 12.5284 12.803 12.5607 12.8799 12.5607C12.8948 12.5607 12.9098 12.5594 12.9248 12.5571C13.1095 12.5271 13.2246 12.3234 13.2554 12.2617C13.2955 12.1812 13.2631 12.084 13.1828 12.0435Z" fill="#F5F5F5"/>
<path d="M13.1195 10.7309H11.9699C11.98 10.6903 11.9905 10.6515 12.0013 10.6148C12.4597 10.5195 12.7322 10.3715 12.8123 10.1741C12.84 10.1056 12.8689 9.96718 12.7509 9.80803C12.6446 9.66464 12.4945 9.60033 12.3386 9.63216C12.1068 9.67913 11.9003 9.92888 11.7521 10.3287C11.2916 10.4076 10.9969 10.5728 10.8103 10.736C10.7441 10.0676 10.4846 9.6705 10.472 9.65161C10.422 9.57657 10.3206 9.55632 10.2458 9.60633C10.1708 9.65635 10.1506 9.7575 10.2005 9.8325C10.2035 9.83696 10.4993 10.2895 10.4993 11.0469C10.4993 11.7915 9.90567 12.3518 9.52069 12.3518C9.33755 12.3518 9.25735 12.1342 9.22214 11.95C9.59911 11.6858 9.93174 11.3801 10.0052 11.0864C10.1046 10.689 9.9795 10.396 9.89672 10.2022C9.89283 10.1933 9.88875 10.1837 9.88463 10.1738C9.88814 10.177 9.89147 10.1804 9.8948 10.1835C9.95836 10.2473 10.0617 10.2473 10.1254 10.1835C10.1891 10.1198 10.1891 10.0166 10.1254 9.95292C10.03 9.85749 9.84488 9.70758 9.67655 9.77799C9.60544 9.80747 9.52064 9.88167 9.52064 10.0682C9.52064 10.1525 9.55585 10.2348 9.59663 10.3304C9.67008 10.5023 9.76144 10.7162 9.68864 11.0073C9.64556 11.1796 9.43397 11.3887 9.15474 11.5962C9.12478 11.5604 9.08156 11.5364 9.03131 11.5364H9.03103C8.94103 11.5365 8.86814 11.6093 8.86814 11.6993C8.86814 11.7287 8.86945 11.76 8.87133 11.7923C8.52225 12.0183 8.12724 12.2276 7.82189 12.3664C7.73991 12.4037 7.70372 12.5004 7.74099 12.5824C7.76831 12.6425 7.82756 12.678 7.88953 12.678C7.91213 12.678 7.9351 12.6734 7.95694 12.6634C8.04863 12.6217 8.48395 12.4189 8.93114 12.1418C9.0135 12.4214 9.18802 12.678 9.52059 12.678C9.91191 12.678 10.3558 12.3581 10.612 11.8804C10.643 11.935 10.6785 11.9873 10.7209 12.0361C11.1315 12.5095 11.9334 12.5149 11.9673 12.5149C12.0552 12.5149 12.1272 12.4455 12.1304 12.3577C12.1335 12.2699 12.0666 12.1954 11.979 12.1892C11.9777 12.1891 11.8477 12.1747 11.7754 12.0902C11.7318 12.0392 11.7143 11.9692 11.722 11.876C11.7387 11.675 12.3871 11.5247 12.9586 11.5159C13.0267 11.5148 13.087 11.4716 13.1098 11.4074L13.2729 10.9487C13.2907 10.8988 13.2831 10.8432 13.2525 10.8001C13.2223 10.7567 13.1724 10.7309 13.1195 10.7309ZM12.4035 9.95199C12.4066 9.95138 12.4107 9.95039 12.4159 9.95039C12.4315 9.95039 12.4561 9.95803 12.489 10.0023C12.4951 10.0106 12.515 10.0389 12.51 10.0514C12.4913 10.0976 12.3787 10.1739 12.144 10.243C12.2472 10.0417 12.3481 9.96314 12.4035 9.95199ZM11.4184 12.0962C11.2527 12.0423 11.0838 11.957 10.9669 11.8217C10.8384 11.6731 10.791 11.4852 10.8221 11.2473C10.8268 11.2348 10.8375 11.2102 10.8562 11.1782C11.0858 11.1571 11.6995 11.2477 11.742 11.4234C11.5527 11.52 11.4133 11.6558 11.3972 11.849C11.3891 11.9459 11.399 12.0279 11.4184 12.0962Z" fill="#F5F5F5"/>
<path d="M14.8952 8.38554L14.7321 7.89617C14.7058 7.81751 14.6242 7.7705 14.5433 7.78831C14.4619 7.8057 14.4067 7.88131 14.415 7.964C14.5276 9.08956 14.7405 11.2846 14.7405 11.5363C14.7405 11.7623 14.3385 12.2074 13.6889 12.5322C13.6083 12.5725 13.5756 12.6704 13.6159 12.7511C13.6445 12.8082 13.7021 12.8412 13.762 12.8412C13.7865 12.8412 13.8114 12.8356 13.8348 12.824C14.4282 12.5273 15.0668 11.9978 15.0668 11.5363C15.0668 11.2953 14.9001 9.56126 14.8046 8.5872C14.8819 8.5542 14.9223 8.46682 14.8952 8.38554Z" fill="#F5F5F5"/>
<path d="M16.2563 9.85741C16.2877 9.88881 16.3294 9.90522 16.3717 9.90522C16.3993 9.90522 16.4271 9.89824 16.4523 9.88385C16.5161 9.84752 16.5478 9.77299 16.5297 9.70178C16.5005 9.58713 16.4908 9.44374 16.5062 9.38514C16.5879 9.38767 16.6638 9.32955 16.6758 9.24527C16.6885 9.15606 16.6266 9.07338 16.5374 9.06067C16.4295 9.04605 16.3349 9.07769 16.2687 9.15128C16.2259 9.1991 16.2004 9.26041 16.1865 9.32636L15.9976 9.13746C15.9339 9.07375 15.8307 9.07375 15.767 9.13746C15.7033 9.20116 15.7033 9.30438 15.767 9.36808L16.2563 9.85741Z" fill="#F5F5F5"/>
<path d="M16.6232 10.0275L16.0115 10.4659C15.9383 10.5183 15.9214 10.6202 15.9739 10.6935C16.0058 10.7379 16.0558 10.7615 16.1067 10.7615C16.1396 10.7615 16.1728 10.7516 16.2016 10.731L16.8132 10.2926C16.8864 10.2402 16.9033 10.1382 16.8508 10.065C16.7982 9.99165 16.6961 9.97458 16.6232 10.0275Z" fill="#F5F5F5"/>
<path d="M16.569 10.6409C16.5177 10.707 16.525 10.8 16.5833 10.8573C16.5903 10.8691 16.6221 10.9315 16.6164 11.092C16.6132 11.1822 16.6836 11.2577 16.7736 11.2609C16.7755 11.261 16.7776 11.261 16.7795 11.261C16.867 11.261 16.9393 11.1917 16.9425 11.1038C16.9543 10.7709 16.8454 10.6492 16.798 10.6124C16.727 10.5568 16.6243 10.5699 16.569 10.6409Z" fill="#F5F5F5"/>
<path d="M17.9928 11.8422C18.0829 11.8422 18.156 11.7692 18.156 11.679C18.156 11.4384 18.1436 11.1697 18.1234 10.8902C18.2852 11.1552 18.4195 11.3996 18.5057 11.6005C18.5321 11.6625 18.5923 11.6994 18.6557 11.6994C18.6771 11.6994 18.6989 11.6953 18.7198 11.6862C18.8026 11.6507 18.841 11.5548 18.8054 11.4721C18.6561 11.1236 18.377 10.662 18.0591 10.1854C17.9951 9.58671 17.9116 9.00007 17.8466 8.57928C17.8811 8.58279 17.917 8.57436 17.9485 8.55392C18 8.52092 18.0241 8.46359 18.0206 8.40654C18.0248 8.42257 18.0293 8.43865 18.0387 8.45342C18.0398 8.45501 18.1446 8.62812 18.0981 8.85279C18.0798 8.94087 18.1366 9.02721 18.2248 9.0455C18.236 9.0477 18.2471 9.04887 18.258 9.04887C18.3337 9.04887 18.4016 8.99581 18.4176 8.91875C18.4913 8.5624 18.3212 8.28973 18.3139 8.27825C18.2655 8.2024 18.1646 8.18014 18.0887 8.22823C18.037 8.26118 18.0125 8.31856 18.0158 8.37575C18.0116 8.35962 18.0069 8.3434 17.9974 8.32864L17.7221 7.90048C17.6801 7.83514 17.5978 7.8087 17.5256 7.83678C17.4532 7.86514 17.4108 7.94046 17.4243 8.01692C17.4265 8.02976 17.5512 8.74554 17.6617 9.60828C17.5366 9.4317 17.4116 9.25896 17.2903 9.09425C17.2706 8.84745 17.2509 8.61931 17.2337 8.43064C17.2427 8.42796 17.2516 8.42445 17.2603 8.42014C17.3409 8.37982 17.3736 8.28186 17.3333 8.20128L17.1701 7.87507C17.1349 7.80467 17.0546 7.76961 16.9789 7.79126C16.9034 7.81325 16.8541 7.88586 16.8619 7.96423C16.8814 8.1589 16.9016 8.37439 16.9215 8.60075C16.8183 8.46471 16.7229 8.34026 16.6412 8.23484C16.6571 8.22115 16.6707 8.20414 16.6808 8.18403C16.7211 8.10345 16.6884 8.00548 16.6078 7.96517L16.2816 7.80204C16.2132 7.76796 16.1301 7.78582 16.0818 7.8454C16.0337 7.90498 16.0334 7.99001 16.0813 8.04992C16.0901 8.06089 16.4918 8.56432 16.9722 9.21411C17.0555 10.2918 17.111 11.4129 17.0327 11.6479C17.0183 11.691 16.9933 11.7416 16.9698 11.7434C16.8712 11.7571 16.6359 11.5367 16.5177 11.3004C16.4496 11.1644 16.3517 11.1502 16.2993 11.1526C16.1239 11.1634 16.0555 11.3563 15.9312 11.7064C15.8421 11.9573 15.7314 12.2692 15.6071 12.3968C15.5397 12.3145 15.4526 12.0384 15.4043 11.7546C15.427 11.8174 15.4857 11.8627 15.5563 11.8627C15.6464 11.8627 15.7194 11.7898 15.7194 11.6997C15.7194 11.4564 15.5493 9.60382 15.4543 8.58856C15.5336 8.55668 15.5753 8.468 15.5479 8.38578L15.3848 7.8964C15.3586 7.81775 15.2781 7.77134 15.1963 7.7884C15.1151 7.8056 15.0598 7.88093 15.0677 7.96348C15.1785 9.1271 15.3864 11.3747 15.3928 11.6849C15.3924 11.6821 15.3918 11.6794 15.3915 11.6765C15.3788 11.5873 15.2956 11.5262 15.2069 11.5381C15.1177 11.551 15.0558 11.6336 15.0685 11.7227C15.1162 12.0561 15.2379 12.6294 15.5182 12.7227C15.5403 12.7302 15.5702 12.7369 15.6051 12.7369C15.6694 12.7369 15.7511 12.7141 15.8347 12.6305C16.0123 12.4529 16.1326 12.1142 16.2386 11.8156C16.2626 11.748 16.291 11.6681 16.3177 11.5996C16.4673 11.8181 16.7285 12.0902 16.993 12.0689C17.086 12.0622 17.2552 12.0122 17.3422 11.7513C17.4289 11.4911 17.3946 10.5836 17.3362 9.71478C17.4736 9.90739 17.6111 10.1046 17.7424 10.2994C17.7933 10.7879 17.8298 11.2773 17.8298 11.6792C17.8298 11.7692 17.9028 11.8422 17.9928 11.8422Z" fill="#F5F5F5"/>
<path d="M19.2304 10.9842C19.1148 10.1234 18.9539 9.1262 18.8519 8.5142C18.8979 8.52554 18.9481 8.51626 18.9886 8.48519C19.0602 8.43058 19.074 8.32815 19.0193 8.25662L18.7236 7.8692C18.678 7.80962 18.5975 7.78862 18.5287 7.81872C18.4598 7.84881 18.4204 7.92212 18.4332 7.99619C18.4362 8.01287 18.727 9.68734 18.9069 11.0275C18.9757 11.5396 18.8754 11.9973 18.6384 12.2515C18.4861 12.4148 18.2843 12.4887 18.0401 12.4745C17.9504 12.4697 17.8726 12.5372 17.867 12.6271C17.8614 12.7169 17.9296 12.7944 18.0196 12.8C18.0471 12.8018 18.0743 12.8026 18.1012 12.8026C18.4088 12.8026 18.6757 12.6898 18.877 12.4738C19.1844 12.1442 19.3133 11.6011 19.2304 10.9842Z" fill="#F5F5F5"/>
<path d="M17.436 12.0595C17.376 12.1246 17.3806 12.2272 17.444 12.2886C17.4529 12.2972 17.4635 12.3141 17.4635 12.3224C17.4636 12.327 17.457 12.3407 17.4389 12.3589C17.3752 12.4226 17.3752 12.5258 17.4389 12.5895C17.4708 12.6214 17.5125 12.6373 17.5542 12.6373C17.596 12.6373 17.6377 12.6214 17.6696 12.5895C17.7731 12.4861 17.792 12.3812 17.7897 12.3112C17.7847 12.1607 17.6822 12.0635 17.6617 12.0455C17.595 11.9876 17.4959 11.9946 17.436 12.0595Z" fill="#F5F5F5"/>
<path d="M16.8611 15.6366H16.698H15.7194V15.4735C15.7194 15.3833 15.6463 15.3103 15.5562 15.3103C15.4661 15.3103 15.3931 15.3833 15.3931 15.4735V15.6366H6.74805C7.07425 15.9628 7.7267 16.126 8.21608 16.126C8.56703 16.126 12.9448 16.126 15.3931 16.126V16.4522C15.3931 16.5423 15.4661 16.6153 15.5562 16.6153H16.8611C17.131 16.6153 17.3505 16.3958 17.3505 16.1259C17.3505 15.8561 17.131 15.6366 16.8611 15.6366ZM16.8611 16.289H15.7193V16.1259C16.5054 16.1259 17.0242 16.1259 17.0242 16.1259L16.9949 16.0381C17.0119 16.0638 17.0242 16.0928 17.0242 16.1259C17.0242 16.216 16.951 16.289 16.8611 16.289Z" fill="#F5F5F5"/>
</svg>
