<svg width="24" height="24" viewBox="0 0 24 24" fill="none" xmlns="http://www.w3.org/2000/svg">
<path d="M22.2026 4.13794H1.79742C0.804703 4.13794 0 4.94264 0 5.93536V12H24V5.93536C24 4.94264 23.1953 4.13794 22.2026 4.13794Z" fill="#41479B"/>
<path d="M0 18.0646C0 19.0573 0.804703 19.8621 1.79742 19.8621H22.2026C23.1952 19.8621 24 19.0574 24 18.0646V12H0V18.0646Z" fill="#FF4B55"/>
<path d="M7.68886 8.8447C7.68347 8.82881 7.67133 8.81588 7.65568 8.80959C7.65408 8.80898 7.6216 8.79661 7.56947 8.78194C7.59239 8.75091 7.60857 8.71453 7.60857 8.67309C7.60857 8.63756 7.59596 8.6062 7.57866 8.57789C7.63594 8.54587 7.6763 8.48695 7.6763 8.41687C7.6763 8.36133 7.6508 8.31277 7.61218 8.2785C7.65849 8.24447 7.69055 8.1922 7.69055 8.13052C7.69055 8.06166 7.65136 8.00386 7.59572 7.97142C7.62493 7.93842 7.64415 7.89623 7.64415 7.8488C7.64415 7.76625 7.58944 7.69823 7.515 7.67358C7.53197 7.64545 7.54439 7.61428 7.54439 7.57908C7.54439 7.47764 7.46288 7.39566 7.36196 7.39308C7.36613 7.37752 7.37157 7.36237 7.37157 7.3455C7.37157 7.24242 7.28771 7.15856 7.18458 7.15856C7.16719 7.15856 7.15154 7.16405 7.13555 7.1685C7.13583 7.16437 7.13794 7.16086 7.13794 7.15659C7.13794 7.05352 7.05408 6.96966 6.951 6.96966C6.91557 6.96966 6.88435 6.98217 6.85604 6.99933C6.83424 6.9203 6.76477 6.86086 6.67894 6.86086C6.62743 6.86086 6.58074 6.88181 6.5469 6.91566C6.51525 6.85725 6.45549 6.81605 6.38452 6.81605C6.31974 6.81605 6.26541 6.85116 6.23185 6.90127C6.19772 6.86498 6.15014 6.84169 6.09652 6.84169C6.02733 6.84169 5.96921 6.8812 5.93691 6.93717C5.90269 6.89883 5.85427 6.87361 5.79891 6.87361C5.73047 6.87361 5.6731 6.91233 5.64052 6.96727C5.60869 6.94223 5.57039 6.92489 5.52689 6.92489C5.44833 6.92489 5.38154 6.97392 5.35393 7.04278C5.32027 7.01025 5.27485 6.98972 5.22441 6.98972C5.15311 6.98972 5.09307 7.03125 5.06157 7.09008C5.04778 7.08155 5.03372 7.0748 5.01793 7.07006C5.05735 7.01184 5.08036 6.94162 5.08036 6.86616C5.08036 6.71967 4.99308 6.59395 4.86825 6.53587L4.92066 6.43102C4.92877 6.41484 4.92877 6.39562 4.92066 6.37941L4.85757 6.25322C4.86216 6.24905 4.86652 6.24469 4.87069 6.24009L4.99702 6.30319C5.00513 6.30722 5.01389 6.30919 5.02271 6.30919C5.03152 6.30919 5.04033 6.30708 5.04839 6.30305L5.35561 6.14944C5.37521 6.13964 5.38749 6.11976 5.38749 6.09797C5.38749 6.07617 5.37516 6.0563 5.35561 6.0465L5.04839 5.89289C5.03222 5.88478 5.0131 5.88478 4.99693 5.89289L4.87074 5.95598C4.86652 5.95134 4.86211 5.94694 4.85752 5.94267L4.92061 5.81648C4.92872 5.80031 4.92872 5.78109 4.92061 5.76487L4.767 5.45766C4.7475 5.41866 4.68343 5.41866 4.66393 5.45766L4.51032 5.76487C4.50221 5.78105 4.50221 5.80031 4.51032 5.81648L4.57341 5.94267C4.56882 5.94684 4.56446 5.9512 4.56029 5.9558L4.43396 5.8927C4.41778 5.88459 4.39866 5.88473 4.38249 5.89284L4.07527 6.04645C4.05568 6.05625 4.04339 6.07612 4.04339 6.09792C4.04339 6.11972 4.05572 6.13959 4.07527 6.14939L4.38249 6.303C4.3906 6.30703 4.39936 6.30914 4.40818 6.30914C4.41704 6.30914 4.4258 6.30703 4.43386 6.303L4.56005 6.23991C4.56427 6.24455 4.56868 6.24895 4.57327 6.25322L4.51018 6.37941C4.50207 6.39558 4.50207 6.41484 4.51018 6.43102L4.56258 6.53587C4.43775 6.59391 4.35047 6.71967 4.35047 6.86616C4.35047 6.94008 4.37293 7.0087 4.41085 7.06622C4.38802 7.07058 4.36735 7.07822 4.34822 7.09012C4.31672 7.0313 4.25668 6.98977 4.18538 6.98977C4.13499 6.98977 4.08952 7.01025 4.05586 7.04283C4.0283 6.97397 3.9615 6.92494 3.88289 6.92494C3.83935 6.92494 3.801 6.94228 3.76927 6.96731C3.73669 6.91237 3.67927 6.87366 3.61088 6.87366C3.55552 6.87366 3.5071 6.89887 3.47288 6.93722C3.44054 6.8812 3.38246 6.84173 3.31327 6.84173C3.25969 6.84173 3.21207 6.86508 3.17794 6.90131C3.14438 6.8512 3.09 6.81609 3.02527 6.81609C2.9543 6.81609 2.89458 6.8573 2.86289 6.9157C2.82905 6.88186 2.78236 6.86091 2.73085 6.86091C2.64497 6.86091 2.5755 6.92034 2.55375 6.99937C2.52554 6.98222 2.49422 6.9697 2.45879 6.9697C2.35571 6.9697 2.27185 7.05356 2.27185 7.15664C2.27185 7.16081 2.27396 7.16442 2.27424 7.16855C2.25825 7.16409 2.2426 7.15861 2.22521 7.15861C2.12208 7.15861 2.03822 7.24247 2.03822 7.34555C2.03822 7.36242 2.04366 7.37756 2.04783 7.39312C1.94691 7.3957 1.86539 7.47769 1.86539 7.57912C1.86539 7.61433 1.87782 7.6455 1.89479 7.67362C1.82035 7.69828 1.76564 7.76625 1.76564 7.84884C1.76564 7.89628 1.78482 7.93847 1.81407 7.97147C1.75847 8.00391 1.71924 8.06166 1.71924 8.13056C1.71924 8.19234 1.7513 8.24452 1.79761 8.27855C1.75899 8.31286 1.73349 8.36138 1.73349 8.41692C1.73349 8.487 1.77389 8.54592 1.83113 8.57794C1.81383 8.6063 1.80122 8.63761 1.80122 8.67314C1.80122 8.71678 1.81861 8.75522 1.84374 8.78705C1.80211 8.79937 1.77657 8.80908 1.77516 8.80964C1.7595 8.81597 1.74732 8.82881 1.74197 8.84475C1.73658 8.86078 1.7385 8.87836 1.74713 8.89289C1.75168 8.90039 2.20463 9.66098 2.35458 10.4106C2.35829 10.4292 2.37174 10.4411 2.38758 10.4486C2.50275 10.6042 3.50068 10.7258 4.71539 10.7258C5.93011 10.7258 6.92799 10.6042 7.04321 10.4486C7.05905 10.4411 7.07255 10.4292 7.07621 10.4106C7.22602 9.66155 7.67907 8.90039 7.68366 8.89289C7.69233 8.87836 7.69425 8.86078 7.68886 8.8447Z" fill="#FFE15A"/>
<path d="M7.68886 8.8447C7.68347 8.82881 7.67133 8.81588 7.65568 8.80959C7.65408 8.80898 7.6216 8.79661 7.56947 8.78194C7.59239 8.75091 7.60857 8.71453 7.60857 8.67309C7.60857 8.63756 7.59596 8.6062 7.57866 8.57789C7.63594 8.54587 7.6763 8.48695 7.6763 8.41687C7.6763 8.36133 7.6508 8.31277 7.61218 8.2785C7.65849 8.24447 7.69055 8.1922 7.69055 8.13052C7.69055 8.06166 7.65136 8.00386 7.59572 7.97142C7.62493 7.93842 7.64415 7.89623 7.64415 7.8488C7.64415 7.76625 7.58944 7.69823 7.515 7.67358C7.53197 7.64545 7.54439 7.61428 7.54439 7.57908C7.54439 7.47764 7.46288 7.39566 7.36196 7.39308C7.36613 7.37752 7.37157 7.36237 7.37157 7.3455C7.37157 7.24242 7.28771 7.15856 7.18458 7.15856C7.16719 7.15856 7.15154 7.16405 7.13555 7.1685C7.13583 7.16437 7.13794 7.16086 7.13794 7.15659C7.13794 7.05352 7.05408 6.96966 6.951 6.96966C6.91557 6.96966 6.88435 6.98217 6.85604 6.99933C6.83424 6.9203 6.76477 6.86086 6.67894 6.86086C6.62743 6.86086 6.58074 6.88181 6.5469 6.91566C6.51525 6.85725 6.45549 6.81605 6.38452 6.81605C6.31974 6.81605 6.26541 6.85116 6.23185 6.90127C6.19772 6.86498 6.15014 6.84169 6.09652 6.84169C6.02733 6.84169 5.96921 6.8812 5.93691 6.93717C5.90269 6.89883 5.85427 6.87361 5.79891 6.87361C5.73047 6.87361 5.6731 6.91233 5.64052 6.96727C5.60869 6.94223 5.57039 6.92489 5.52689 6.92489C5.44833 6.92489 5.38154 6.97392 5.35393 7.04278C5.32027 7.01025 5.27485 6.98972 5.22441 6.98972C5.15311 6.98972 5.09307 7.03125 5.06157 7.09008C5.04778 7.08155 5.03372 7.0748 5.01793 7.07006C5.05735 7.01184 5.08036 6.94162 5.08036 6.86616C5.08036 6.71967 4.99308 6.59395 4.86825 6.53587L4.92066 6.43102C4.92877 6.41484 4.92877 6.39562 4.92066 6.37941L4.85757 6.25322C4.86216 6.24905 4.86652 6.24469 4.87069 6.24009L4.99702 6.30319C5.00513 6.30722 5.01389 6.30919 5.02271 6.30919C5.03152 6.30919 5.04033 6.30708 5.04839 6.30305L5.35561 6.14944C5.37521 6.13964 5.38749 6.11976 5.38749 6.09797C5.38749 6.07617 5.37516 6.0563 5.35561 6.0465L5.04839 5.89289C5.03222 5.88478 5.0131 5.88478 4.99693 5.89289L4.87074 5.95598C4.86652 5.95134 4.86211 5.94694 4.85752 5.94267L4.92061 5.81648C4.92872 5.80031 4.92872 5.78109 4.92061 5.76487L4.767 5.45766C4.7475 5.41866 4.68343 5.41866 4.66393 5.45766L4.51032 5.76487C4.50221 5.78105 4.50221 5.80031 4.51032 5.81648L4.57341 5.94267C4.56882 5.94684 4.56446 5.9512 4.56029 5.9558L4.43396 5.8927C4.41778 5.88459 4.39866 5.88473 4.38249 5.89284L4.07527 6.04645C4.05568 6.05625 4.04339 6.07612 4.04339 6.09792C4.04339 6.11972 4.05572 6.13959 4.07527 6.14939L4.38249 6.303C4.3906 6.30703 4.39936 6.30914 4.40818 6.30914C4.41704 6.30914 4.4258 6.30703 4.43386 6.303L4.56005 6.23991C4.56427 6.24455 4.56868 6.24895 4.57327 6.25322L4.51018 6.37941C4.50207 6.39558 4.50207 6.41484 4.51018 6.43102L4.56258 6.53587C4.43775 6.59391 4.35047 6.71967 4.35047 6.86616C4.35047 6.94008 4.37293 7.0087 4.41085 7.06622C4.38802 7.07058 4.36735 7.07822 4.34822 7.09012C4.31672 7.0313 4.25668 6.98977 4.18538 6.98977C4.13499 6.98977 4.08952 7.01025 4.05586 7.04283C4.0283 6.97397 3.9615 6.92494 3.88289 6.92494C3.83935 6.92494 3.801 6.94228 3.76927 6.96731C3.73669 6.91237 3.67927 6.87366 3.61088 6.87366C3.55552 6.87366 3.5071 6.89887 3.47288 6.93722C3.44054 6.8812 3.38246 6.84173 3.31327 6.84173C3.25969 6.84173 3.21207 6.86508 3.17794 6.90131C3.14438 6.8512 3.09 6.81609 3.02527 6.81609C2.9543 6.81609 2.89458 6.8573 2.86289 6.9157C2.82905 6.88186 2.78236 6.86091 2.73085 6.86091C2.64497 6.86091 2.5755 6.92034 2.55375 6.99937C2.52554 6.98222 2.49422 6.9697 2.45879 6.9697C2.35571 6.9697 2.27185 7.05356 2.27185 7.15664C2.27185 7.16081 2.27396 7.16442 2.27424 7.16855C2.25825 7.16409 2.2426 7.15861 2.22521 7.15861C2.12208 7.15861 2.03822 7.24247 2.03822 7.34555C2.03822 7.36242 2.04366 7.37756 2.04783 7.39312C1.94691 7.3957 1.86539 7.47769 1.86539 7.57912C1.86539 7.61433 1.87782 7.6455 1.89479 7.67362C1.82035 7.69828 1.76564 7.76625 1.76564 7.84884C1.76564 7.89628 1.78482 7.93847 1.81407 7.97147C1.75847 8.00391 1.71924 8.06166 1.71924 8.13056C1.71924 8.19234 1.7513 8.24452 1.79761 8.27855C1.75899 8.31286 1.73349 8.36138 1.73349 8.41692C1.73349 8.487 1.77389 8.54592 1.83113 8.57794C1.81383 8.6063 1.80122 8.63761 1.80122 8.67314C1.80122 8.71678 1.81861 8.75522 1.84374 8.78705C1.80211 8.79937 1.77657 8.80908 1.77516 8.80964C1.7595 8.81597 1.74732 8.82881 1.74197 8.84475C1.73658 8.86078 1.7385 8.87836 1.74713 8.89289C1.75168 8.90039 2.20463 9.66098 2.35458 10.4106C2.35829 10.4292 2.37174 10.4411 2.38758 10.4486C2.50275 10.6042 3.50068 10.7258 4.71539 10.7258C5.93011 10.7258 6.92799 10.6042 7.04321 10.4486C7.05905 10.4411 7.07255 10.4292 7.07621 10.4106C7.22602 9.66155 7.67907 8.90039 7.68366 8.89289C7.69233 8.87836 7.69425 8.86078 7.68886 8.8447ZM6.06033 8.47364V7.57209C6.13341 7.56577 6.20447 7.56375 6.27282 7.56614V8.5027C6.20925 8.472 6.13749 8.46305 6.06033 8.47364ZM5.39724 7.2457C5.39883 7.24725 5.40108 7.24791 5.40272 7.24941C5.40029 7.24992 5.39785 7.25044 5.39536 7.251C5.39616 7.24922 5.39658 7.24748 5.39724 7.2457ZM7.42158 8.60142C7.4611 8.60142 7.49325 8.63353 7.49325 8.67309C7.49325 8.7127 7.4611 8.74477 7.42158 8.74477C7.38207 8.74477 7.34991 8.71266 7.34991 8.67309C7.34991 8.63348 7.38207 8.60142 7.42158 8.60142ZM7.48922 8.48855C7.44971 8.48855 7.41755 8.45644 7.41755 8.41687C7.41755 8.37727 7.44971 8.3452 7.48922 8.3452C7.52883 8.3452 7.56104 8.37731 7.56104 8.41687C7.56104 8.45648 7.52888 8.48855 7.48922 8.48855ZM7.4319 8.13047C7.4319 8.09086 7.46405 8.0588 7.50357 8.0588C7.54308 8.0588 7.57524 8.09091 7.57524 8.13047C7.57524 8.17008 7.54308 8.20214 7.50357 8.20214C7.46405 8.20219 7.4319 8.17008 7.4319 8.13047ZM5.28966 8.8447C5.22085 8.58309 5.13155 8.1893 5.09386 7.79564C5.13347 7.78177 5.20154 7.75903 5.28966 7.73236V8.8447ZM4.32938 7.80033C4.28883 8.21925 4.18988 8.63888 4.12018 8.8972V7.73227C4.21899 7.76217 4.2931 7.78744 4.32938 7.80033ZM4.78716 7.32698C4.78716 7.36659 4.755 7.39866 4.71549 7.39866C4.67597 7.39866 4.64382 7.36655 4.64382 7.32698C4.64382 7.28737 4.67597 7.25531 4.71549 7.25531C4.755 7.25522 4.78716 7.28737 4.78716 7.32698ZM4.01264 7.24608L4.01218 7.24598C4.01218 7.24598 4.01246 7.24584 4.01255 7.2457C4.0126 7.24584 4.0126 7.24598 4.01264 7.24608ZM1.90622 8.0588C1.94574 8.0588 1.97789 8.09091 1.97789 8.13047C1.97789 8.17008 1.94574 8.20214 1.90622 8.20214C1.86671 8.20214 1.83455 8.17003 1.83455 8.13047C1.8345 8.09086 1.86671 8.0588 1.90622 8.0588ZM1.99224 8.41687C1.99224 8.45648 1.96008 8.48855 1.92057 8.48855C1.88096 8.48855 1.84875 8.45644 1.84875 8.41687C1.84875 8.37727 1.88091 8.3452 1.92057 8.3452C1.96008 8.34516 1.99224 8.37722 1.99224 8.41687ZM1.98821 8.60142C2.02772 8.60142 2.05988 8.63353 2.05988 8.67309C2.05988 8.7127 2.02772 8.74477 1.98821 8.74477C1.94869 8.74477 1.91654 8.71266 1.91654 8.67309C1.91649 8.63348 1.94869 8.60142 1.98821 8.60142ZM2.28404 7.63078C2.39682 7.44834 2.61694 7.23094 3.0256 7.23094C3.4246 7.23094 3.98757 7.35286 4.34813 7.44248C4.34827 7.52067 4.34471 7.60083 4.33918 7.68145C4.09318 7.59581 3.11475 7.28264 2.6986 7.56745C2.22764 7.89042 2.37647 8.5065 2.46446 8.76164C2.38955 8.74134 2.3138 8.73216 2.24129 8.7307C2.07118 8.38941 2.08824 7.94761 2.28404 7.63078ZM2.60855 8.81752C2.56805 8.72334 2.30907 8.07197 2.69405 7.7197V8.86898C2.66639 8.8492 2.63771 8.83247 2.60855 8.81752ZM2.80927 7.63856C2.87011 7.60702 2.94183 7.58658 3.02175 7.5757V8.60086C2.90621 8.718 2.85483 8.8792 2.83219 9.00042C2.82488 8.99123 2.81682 8.98383 2.80922 8.97525V7.63856H2.80927ZM3.13702 7.56605C3.20536 7.56366 3.27643 7.56567 3.3495 7.572V8.47261C3.33694 8.47148 3.32382 8.46825 3.31154 8.46825C3.25491 8.46825 3.20175 8.48011 3.15347 8.50439C3.14752 8.50734 3.14269 8.51137 3.13697 8.51452V7.566H3.13702V7.56605ZM3.46472 7.58437C3.53611 7.59384 3.60736 7.60627 3.67721 7.62023V8.60634C3.60408 8.55591 3.53293 8.51944 3.46472 8.49717V7.58437ZM3.79247 7.64498C3.86799 7.66237 3.93929 7.68061 4.00496 7.69894V8.91825C3.94144 8.83786 3.86827 8.76183 3.79247 8.69569V7.64498ZM4.46283 7.47159C4.54946 7.49409 4.6178 7.5128 4.65788 7.52409V8.50116C4.50174 8.51695 4.38244 8.59669 4.29141 8.6947C4.3725 8.35692 4.45983 7.89595 4.46283 7.47159ZM4.77305 7.52409C4.8121 7.51312 4.87763 7.49513 4.96097 7.47347C4.96416 7.89352 5.0498 8.34895 5.13014 8.68547C5.04024 8.59191 4.92408 8.51648 4.7731 8.50125V7.52414H4.77305V7.52409ZM5.40488 7.69903C5.4706 7.68075 5.54185 7.66247 5.61736 7.64508V8.70473C5.61736 8.70741 5.61854 8.70975 5.61891 8.71237C5.54133 8.78245 5.46788 8.86284 5.40488 8.94623V7.69903ZM5.73258 7.62033C5.80247 7.60636 5.87368 7.59394 5.94507 7.58447V8.50256C5.87672 8.52764 5.80543 8.56744 5.73258 8.62008V7.62033ZM6.38803 7.5758C6.468 7.58667 6.53968 7.60702 6.60052 7.63861V8.98805C6.60052 8.99105 6.60174 8.99367 6.60221 8.99653C6.60108 8.99798 6.59977 8.99906 6.59865 9.00047C6.57474 8.87241 6.51783 8.70056 6.38803 8.58239V7.5758ZM6.71574 7.7198C7.12819 8.09742 6.79964 8.82159 6.79608 8.82928C6.79571 8.83008 6.7958 8.83087 6.79552 8.83167C6.76814 8.84723 6.74166 8.86552 6.71574 8.88562V7.7198ZM6.71114 7.56745C6.30324 7.28808 5.35299 7.58433 5.08416 7.67677C5.07886 7.59834 5.07544 7.52044 5.07558 7.44431C5.43577 7.35445 6.00361 7.23094 6.40524 7.23094C6.81389 7.23094 7.03407 7.44834 7.1468 7.63078C7.3426 7.94766 7.35971 8.38941 7.1896 8.73075C7.10944 8.73234 7.02544 8.74364 6.94294 8.76872C7.03055 8.51789 7.18636 7.89333 6.71114 7.56745ZM7.45716 7.92047C7.41764 7.92047 7.38549 7.88836 7.38549 7.8488C7.38549 7.80919 7.41764 7.77712 7.45716 7.77712C7.49677 7.77712 7.52897 7.80923 7.52897 7.8488C7.52897 7.88836 7.49672 7.92047 7.45716 7.92047ZM7.42918 7.57898C7.42918 7.61859 7.39702 7.65084 7.35736 7.65084C7.31785 7.65084 7.28569 7.61855 7.28569 7.57898C7.28569 7.53937 7.31785 7.50731 7.35736 7.50731C7.39702 7.50731 7.42918 7.53942 7.42918 7.57898ZM7.25639 7.34541C7.25639 7.38502 7.22424 7.41708 7.18458 7.41708C7.14507 7.41708 7.11291 7.38497 7.11291 7.34541C7.11291 7.3058 7.14507 7.27373 7.18458 7.27373C7.22414 7.27369 7.25639 7.30584 7.25639 7.34541ZM6.951 7.08483C6.99052 7.08483 7.02268 7.11694 7.02268 7.1565C7.02268 7.19611 6.99052 7.22836 6.951 7.22836C6.9114 7.22836 6.87919 7.19606 6.87919 7.1565C6.87919 7.11694 6.9114 7.08483 6.951 7.08483ZM6.67894 6.97603C6.71846 6.97603 6.75061 7.00814 6.75061 7.0477C6.75061 7.08731 6.71846 7.11937 6.67894 7.11937C6.63943 7.11937 6.60727 7.08727 6.60727 7.0477C6.60722 7.00814 6.63943 6.97603 6.67894 6.97603ZM6.38452 6.93117C6.42404 6.93117 6.45619 6.96328 6.45619 7.00284C6.45619 7.04241 6.42404 7.0747 6.38452 7.0747C6.34491 7.0747 6.31271 7.04241 6.31271 7.00284C6.31271 6.96333 6.34491 6.93117 6.38452 6.93117ZM6.09647 6.95686C6.13599 6.95686 6.16814 6.98897 6.16814 7.02853C6.16814 7.06809 6.13599 7.1002 6.09647 7.1002C6.05686 7.1002 6.02466 7.06809 6.02466 7.02853C6.02466 6.98897 6.05686 6.95686 6.09647 6.95686ZM5.79886 6.98883C5.83838 6.98883 5.87054 7.02094 5.87054 7.0605C5.87054 7.10011 5.83838 7.13236 5.79886 7.13236C5.75925 7.13236 5.72705 7.10006 5.72705 7.0605C5.72705 7.02094 5.75921 6.98883 5.79886 6.98883ZM5.52675 7.04011C5.56627 7.04011 5.59843 7.07222 5.59843 7.11178C5.59843 7.15134 5.56627 7.18345 5.52675 7.18345C5.48724 7.18345 5.45508 7.15134 5.45508 7.11178C5.45508 7.07222 5.48724 7.04011 5.52675 7.04011ZM5.22436 7.10494C5.26388 7.10494 5.29604 7.13705 5.29604 7.17661C5.29604 7.21617 5.26388 7.24828 5.22436 7.24828C5.18485 7.24828 5.15269 7.21617 5.15269 7.17661C5.15269 7.13705 5.18475 7.10494 5.22436 7.10494ZM4.9651 7.31798C4.92558 7.31798 4.89343 7.28587 4.89343 7.24631C4.89343 7.2067 4.92558 7.17464 4.9651 7.17464C5.00461 7.17464 5.03677 7.20675 5.03677 7.24631C5.03677 7.28587 5.00461 7.31798 4.9651 7.31798ZM4.61944 6.09797C4.61944 6.045 4.66247 6.00197 4.71544 6.00197C4.76841 6.00197 4.81144 6.045 4.81144 6.09797C4.81144 6.15094 4.76841 6.19397 4.71544 6.19397C4.66252 6.19402 4.61944 6.15094 4.61944 6.09797ZM5.02266 6.00872L5.20111 6.09802L5.02266 6.18731L4.92268 6.1373C4.92511 6.1245 4.92666 6.11147 4.92666 6.09802C4.92666 6.08456 4.92511 6.07148 4.92268 6.05869L5.02266 6.00872ZM4.62624 5.7907L4.71539 5.6123L4.80455 5.7907L4.75454 5.89069C4.74183 5.88825 4.72875 5.8867 4.71535 5.8867C4.70189 5.8867 4.68886 5.88825 4.67616 5.89069L4.62624 5.7907ZM4.40818 6.18722L4.22972 6.09792L4.40818 6.00862L4.50816 6.05864C4.50572 6.07144 4.50418 6.08447 4.50418 6.09792C4.50418 6.11137 4.50572 6.12445 4.50816 6.13725L4.40818 6.18722ZM4.62624 6.40519L4.67625 6.3052C4.68896 6.30764 4.70204 6.30919 4.71544 6.30919C4.72885 6.30919 4.74193 6.30764 4.75463 6.3052L4.80464 6.40519L4.75468 6.50517C4.74164 6.50376 4.72889 6.50119 4.71549 6.50119C4.70204 6.50119 4.68933 6.50372 4.6763 6.50517L4.62624 6.40519ZM4.71544 6.61645C4.85307 6.61645 4.96505 6.72839 4.96505 6.86606C4.96505 7.00378 4.85307 7.11567 4.71544 7.11567C4.57782 7.11567 4.46583 7.00373 4.46583 6.86606C4.46583 6.72839 4.57777 6.61645 4.71544 6.61645ZM4.44474 7.17455C4.48425 7.17455 4.51641 7.20666 4.51641 7.24622C4.51641 7.28583 4.48425 7.31789 4.44474 7.31789C4.40522 7.31789 4.37307 7.28578 4.37307 7.24622C4.37302 7.20661 4.40518 7.17455 4.44474 7.17455ZM4.18552 7.10494C4.22504 7.10494 4.25719 7.13705 4.25719 7.17661C4.25719 7.21617 4.22504 7.24828 4.18552 7.24828C4.146 7.24828 4.11385 7.21617 4.11385 7.17661C4.11385 7.13705 4.14596 7.10494 4.18552 7.10494ZM3.88304 7.04011C3.92255 7.04011 3.95471 7.07222 3.95471 7.11178C3.95471 7.15134 3.92255 7.18345 3.88304 7.18345C3.84352 7.18345 3.81136 7.15134 3.81136 7.11178C3.81136 7.07222 3.84352 7.04011 3.88304 7.04011ZM3.61102 6.98883C3.65063 6.98883 3.68283 7.02094 3.68283 7.0605C3.68283 7.10011 3.65068 7.13236 3.61102 7.13236C3.5715 7.13236 3.53935 7.10006 3.53935 7.0605C3.53925 7.02094 3.57146 6.98883 3.61102 6.98883ZM3.31336 6.95686C3.35297 6.95686 3.38518 6.98897 3.38518 7.02853C3.38518 7.06809 3.35302 7.1002 3.31336 7.1002C3.27385 7.1002 3.24169 7.06809 3.24169 7.02853C3.24169 6.98897 3.27385 6.95686 3.31336 6.95686ZM3.02527 6.93117C3.06488 6.93117 3.09708 6.96328 3.09708 7.00284C3.09708 7.04241 3.06493 7.0747 3.02527 7.0747C2.98575 7.0747 2.9536 7.04241 2.9536 7.00284C2.9536 6.96333 2.98575 6.93117 3.02527 6.93117ZM2.73089 6.97603C2.77041 6.97603 2.80257 7.00814 2.80257 7.0477C2.80257 7.08731 2.77041 7.11937 2.73089 7.11937C2.69138 7.11937 2.65922 7.08727 2.65922 7.0477C2.65918 7.00814 2.69138 6.97603 2.73089 6.97603ZM2.45883 7.08483C2.49844 7.08483 2.53064 7.11694 2.53064 7.1565C2.53064 7.19611 2.49849 7.22836 2.45883 7.22836C2.41932 7.22836 2.38716 7.19606 2.38716 7.1565C2.38711 7.11694 2.41927 7.08483 2.45883 7.08483ZM2.22525 7.27369C2.26477 7.27369 2.29693 7.3058 2.29693 7.34536C2.29693 7.38497 2.26477 7.41703 2.22525 7.41703C2.18564 7.41703 2.15344 7.38492 2.15344 7.34536C2.15349 7.30584 2.18564 7.27369 2.22525 7.27369ZM2.05243 7.50731C2.09194 7.50731 2.1241 7.53942 2.1241 7.57898C2.1241 7.61859 2.09194 7.65084 2.05243 7.65084C2.01282 7.65084 1.98061 7.61855 1.98061 7.57898C1.98061 7.53942 2.01286 7.50731 2.05243 7.50731ZM1.95263 7.77703C1.99214 7.77703 2.0243 7.80914 2.0243 7.8487C2.0243 7.88831 1.99214 7.92037 1.95263 7.92037C1.91302 7.92037 1.88082 7.88827 1.88082 7.8487C1.88091 7.80909 1.91307 7.77703 1.95263 7.77703ZM6.97397 10.3396C6.70833 10.2082 5.79929 10.1113 4.71549 10.1113C3.63169 10.1113 2.7226 10.2082 2.45696 10.3396C2.31957 9.70359 1.99107 9.08822 1.88157 8.89481C2.064 8.83884 2.58629 8.72784 2.82047 9.19622C2.83247 9.22008 2.85943 9.23269 2.88525 9.22655C2.91127 9.22041 2.92969 9.19716 2.92969 9.17044C2.92969 9.16627 2.93283 8.74359 3.20508 8.60742C3.47466 8.47331 3.91079 8.91853 4.04954 9.19627C4.04954 9.19627 4.04968 9.19636 4.04968 9.19645C4.05422 9.2055 4.06182 9.21248 4.07058 9.21811C4.07241 9.21923 4.0741 9.22027 4.07607 9.22116C4.07855 9.22237 4.08052 9.2243 4.08324 9.22519C4.08919 9.22716 4.09519 9.22805 4.10105 9.22805C4.10213 9.22805 4.10302 9.22711 4.1041 9.22706C4.10522 9.22706 4.10611 9.22777 4.10729 9.22772C4.11272 9.22711 4.11671 9.22341 4.12158 9.22139C4.12674 9.21933 4.13194 9.21834 4.1363 9.21492C4.14164 9.21075 4.14446 9.2047 4.14811 9.19884C4.1505 9.19495 4.15449 9.19266 4.15599 9.18816C4.15768 9.18286 4.16485 9.1605 4.17544 9.12562C4.22579 8.98008 4.3853 8.61361 4.71563 8.61361C4.99599 8.61361 5.15325 8.87766 5.2253 9.04659C5.24879 9.12773 5.26533 9.17972 5.2681 9.18816C5.27607 9.21263 5.29861 9.22805 5.32294 9.22805C5.3288 9.22805 5.3348 9.22716 5.34075 9.22519C5.34179 9.22481 5.34254 9.22402 5.34357 9.22364C5.3596 9.21956 5.37408 9.21155 5.38172 9.19627C5.52057 8.91839 5.95707 8.4742 6.22618 8.60742C6.24427 8.61647 6.261 8.62697 6.27675 8.63836C6.29236 8.65153 6.30291 8.66128 6.32072 8.67558C6.49815 8.84873 6.50157 9.16673 6.50157 9.17044C6.50161 9.19711 6.52004 9.22041 6.546 9.22655C6.57216 9.23255 6.59883 9.22008 6.61079 9.19622C6.8445 8.72887 7.36688 8.83917 7.54964 8.895C7.43977 9.08855 7.11136 9.70378 6.97397 10.3396Z" fill="#464655"/>
<path d="M4.94263 9.07318C4.93518 9.07932 4.92791 9.08584 4.9207 9.09259C4.86482 9.14518 4.7729 9.10389 4.7729 9.02711V9.01675C4.7729 8.98492 4.74707 8.95914 4.71529 8.95914C4.68351 8.95914 4.65768 8.98496 4.65768 9.01675V9.02711C4.65768 9.10389 4.56581 9.14518 4.50988 9.09259C4.50276 9.08589 4.4954 9.07942 4.48795 9.07318C4.46348 9.05307 4.4271 9.05607 4.40685 9.08082C4.38651 9.10529 4.38988 9.14162 4.4144 9.16196C4.57181 9.29232 4.65759 9.60062 4.65759 9.72245V9.78489C4.65759 9.81671 4.68341 9.8425 4.7152 9.8425C4.74698 9.8425 4.77281 9.81667 4.77281 9.78489V9.72245C4.77281 9.60062 4.85863 9.29237 5.01599 9.16196C5.04051 9.14157 5.04388 9.10529 5.02354 9.08082C5.00343 9.05631 4.9671 9.05312 4.94263 9.07318Z" fill="#464655"/>
<path d="M6.24895 9.31519C6.24215 9.31467 6.23545 9.31448 6.22865 9.31467C6.1747 9.31838 6.12201 9.24178 6.14817 9.18234C6.14925 9.17986 6.15037 9.17733 6.1515 9.1748C6.16158 9.15183 6.15389 9.11423 6.13467 9.08981C6.1155 9.06544 6.09061 9.06675 6.0787 9.09375C6.07748 9.09666 6.07617 9.09947 6.07486 9.10242C6.04767 9.1642 5.96934 9.14573 5.95701 9.05494C5.95547 9.04327 5.95387 9.03141 5.95204 9.01959C5.946 8.9812 5.92392 8.95458 5.90039 8.96522C5.877 8.97544 5.8612 9.01852 5.86683 9.05752C5.90015 9.31505 5.86195 9.58664 5.81831 9.68541C5.81067 9.70284 5.80294 9.72028 5.79529 9.73777C5.78344 9.76467 5.79858 9.78548 5.82947 9.78323C5.8604 9.78089 5.89401 9.75966 5.90414 9.73673C5.91084 9.72155 5.91754 9.70631 5.9242 9.69108C5.96554 9.59686 6.13875 9.38794 6.28064 9.39877C6.30347 9.39863 6.31317 9.38377 6.30408 9.36145C6.29503 9.33933 6.27098 9.31706 6.24895 9.31519Z" fill="#464655"/>
<path d="M7.1037 9.49444C7.09807 9.49444 7.09249 9.49477 7.08682 9.49543C7.04154 9.50297 7.00315 9.43271 7.02931 9.37327C7.03039 9.37079 7.03151 9.36825 7.03264 9.36572C7.04271 9.34275 7.03906 9.3069 7.02481 9.28472C7.0106 9.26255 6.98974 9.2656 6.97784 9.29265C6.97662 9.29555 6.97531 9.29836 6.97399 9.30127C6.94681 9.36305 6.88282 9.35086 6.87912 9.26391C6.8787 9.25271 6.87818 9.24136 6.87757 9.23007C6.87537 9.19336 6.85887 9.16918 6.83843 9.18122C6.81814 9.19285 6.80187 9.23569 6.80374 9.27301C6.81274 9.5199 6.76109 9.78554 6.71745 9.8843C6.70981 9.90174 6.70207 9.91918 6.69443 9.93666C6.68257 9.96357 6.69373 9.9826 6.71965 9.97819C6.74567 9.97365 6.77524 9.95068 6.78532 9.92771C6.79203 9.91252 6.79873 9.89729 6.80538 9.88205C6.84673 9.78783 7.00648 9.57301 7.12404 9.57315C7.14312 9.57132 7.15226 9.55627 7.14635 9.53532C7.14045 9.51446 7.12198 9.49463 7.1037 9.49444Z" fill="#464655"/>
<path d="M3.6118 9.6855C3.56816 9.58678 3.52996 9.31514 3.56329 9.05761C3.56891 9.01865 3.55312 8.97562 3.52972 8.96531C3.50619 8.95467 3.48407 8.9813 3.47807 9.01969C3.47624 9.0315 3.47465 9.04326 3.4731 9.05503C3.46072 9.14583 3.38244 9.1642 3.35526 9.10251C3.35394 9.09961 3.35272 9.0967 3.35141 9.09384C3.33951 9.0668 3.31471 9.06553 3.29544 9.0899C3.27627 9.11433 3.26854 9.15187 3.27862 9.17489C3.27969 9.17742 3.28082 9.17995 3.28194 9.18244C3.3081 9.24187 3.25537 9.31847 3.20146 9.31476C3.19466 9.31458 3.18796 9.31476 3.18116 9.31528C3.15913 9.31715 3.13504 9.33937 3.12594 9.36159C3.11685 9.3839 3.12655 9.39872 3.14938 9.3989C3.29127 9.38803 3.46447 9.59695 3.50582 9.69122C3.51247 9.7064 3.51922 9.72164 3.52588 9.73687C3.53596 9.75984 3.56957 9.78103 3.60055 9.78337C3.63149 9.78567 3.64658 9.76486 3.63472 9.7379C3.62713 9.72037 3.61949 9.70294 3.6118 9.6855Z" fill="#464655"/>
<path d="M2.71273 9.88421C2.66913 9.78549 2.61743 9.5198 2.62643 9.27291C2.62831 9.2356 2.61195 9.1928 2.59174 9.18113C2.57131 9.16909 2.55481 9.19327 2.5526 9.22998C2.55195 9.24127 2.55148 9.25257 2.55106 9.26382C2.5474 9.35077 2.48342 9.36291 2.45618 9.30118C2.45487 9.29827 2.45365 9.29537 2.45234 9.29255C2.44043 9.26551 2.41962 9.26246 2.40537 9.28463C2.39117 9.3068 2.38742 9.34266 2.39754 9.36563C2.39862 9.36816 2.39974 9.37069 2.40087 9.37318C2.42703 9.43262 2.38859 9.50288 2.34335 9.49534C2.33768 9.49468 2.33206 9.49435 2.32648 9.49435C2.3082 9.49449 2.28978 9.51432 2.28378 9.53518C2.27782 9.55609 2.28706 9.57118 2.30609 9.57301C2.42365 9.57287 2.58345 9.78765 2.62474 9.88191C2.6314 9.8971 2.63815 9.91233 2.64481 9.92757C2.65488 9.95054 2.68451 9.97351 2.71048 9.97805C2.73645 9.98251 2.74756 9.96348 2.7357 9.93652C2.7281 9.91913 2.72042 9.90165 2.71273 9.88421Z" fill="#464655"/>
</svg>
