<svg width="24" height="24" viewBox="0 0 24 24" fill="none" xmlns="http://www.w3.org/2000/svg">
<path d="M22.2026 4.13794H1.79742C0.804703 4.13794 0 4.94264 0 5.93536V18.0647C0 19.0574 0.804703 19.8621 1.79742 19.8621H22.2026C23.1952 19.8621 24 19.0574 24 18.0647V5.93536C24 4.94264 23.1953 4.13794 22.2026 4.13794Z" fill="#82AFFF"/>
<path d="M0.413813 12H11.5862C11.8148 12 12 11.8147 12 11.5862V4.55169C12 4.32318 11.8148 4.13788 11.5862 4.13788H1.79742C0.804703 4.13793 0 4.94263 0 5.93535V11.5862C0 11.8147 0.185297 12 0.413813 12Z" fill="#41479B"/>
<path d="M11.5862 4.13794H10.8674L7.03444 6.64922V4.13794H4.96547V6.64922L1.1325 4.13794H0.413813C0.185297 4.13794 0 4.32319 0 4.5517V4.87992L3.28852 7.03444H0V9.10341H3.28852L0 11.258V11.5862C0 11.8147 0.185297 12 0.413813 12H1.13259L4.96556 9.48872V12H7.03453V9.48872L10.8675 12H11.5862C11.8148 12 12 11.8147 12 11.5862V11.258L8.71153 9.10346H12V7.03449H8.71148L12 4.87997V4.55175C12 4.32319 11.8147 4.13794 11.5862 4.13794Z" fill="#F5F5F5"/>
<path d="M12 7.4483H6.62067V4.13794H5.37933V7.4483H0V8.68964H5.37933V12H6.62067V8.68964H12V7.4483Z" fill="#FF4B55"/>
<path d="M0.385742 4.82353L3.79177 7.03448H4.5518L0.684805 4.52432C0.573758 4.61198 0.473398 4.71243 0.385742 4.82353Z" fill="#FF4B55"/>
<path d="M7.79446 7.03449L11.937 4.34546C11.865 4.22363 11.738 4.13794 11.5861 4.13794H11.4966L7.03442 7.03449H7.79446Z" fill="#FF4B55"/>
<path d="M4.19418 9.10345L0.0595703 11.7873C0.130867 11.9121 0.259867 12 0.413898 12H0.491945L4.95426 9.10345H4.19418Z" fill="#FF4B55"/>
<path d="M11.9934 11.6187L8.11843 9.10345H7.3584L11.7587 11.9598C11.8906 11.8986 11.981 11.7704 11.9934 11.6187Z" fill="#FF4B55"/>
<path d="M15.0955 8.65393V13.1941C15.0955 15.0354 17.6819 15.9818 17.9971 16.0902C18.312 15.9818 20.8988 15.0339 20.8988 13.1941V8.65393H15.0955Z" fill="#F5F5F5"/>
<path d="M21.001 10.7363V8.55151H14.9929V10.7363H17.5874V12.7845H14.9929V13.6038H17.5874V16.0616L17.997 16.1982L18.4066 16.0616V13.6038H21.001V12.7845H18.4066V10.7363H21.001Z" fill="#FF4B55"/>
<path d="M15.6666 10.2259C15.8554 10.2259 16.0084 10.0729 16.0084 9.88407C16.0084 9.69526 15.8554 9.54221 15.6666 9.54221C15.4778 9.54221 15.3247 9.69526 15.3247 9.88407C15.3247 10.0729 15.4778 10.2259 15.6666 10.2259Z" fill="#F5F5F5"/>
<path d="M16.3234 9.42183C16.214 9.36169 16.0171 9.2003 15.9378 9.22768C15.8585 9.25505 15.8408 9.31112 15.7299 9.31965C15.6218 9.32799 15.4511 9.43346 15.5222 9.55036C15.6147 9.70252 15.9042 9.58421 15.9233 9.51305C15.9233 9.51305 15.9944 9.52444 16.0542 9.51019C16.0542 9.51019 16.1731 9.67613 16.3208 9.66521C16.4684 9.65424 16.5368 9.47105 16.5041 9.47105C16.4713 9.47105 16.3234 9.42183 16.3234 9.42183Z" fill="#FFE15A"/>
<path d="M16.7773 10.1465C16.7527 10.1916 16.5654 10.3518 16.2522 10.4255C16.1825 10.4419 16.1948 10.5239 16.1251 10.4829C16.0554 10.4419 15.8625 10.409 15.6902 10.4009C15.5179 10.3927 15.5008 10.233 15.5302 10.1752C15.5676 10.1019 15.8426 10.0572 15.8919 10.1474C15.9411 10.2377 15.978 10.2188 16.1004 10.2449C16.1763 10.2612 16.1784 10.2983 16.1784 10.2983C16.1784 10.2983 16.3179 10.1588 16.4369 10.1178C16.5558 10.0768 16.6584 9.98648 16.6789 9.98648C16.6994 9.98648 16.8061 10.0152 16.8061 10.0152L16.7773 10.1465Z" fill="#FFE15A"/>
<path d="M17.2327 9.66244C17.4132 9.72806 17.9465 9.70753 18.5167 9.52294C19.0869 9.33834 19.2511 9.30553 19.53 9.40805C19.809 9.51056 19.9297 9.18656 19.7465 9.13177C19.4588 9.04566 18.5689 9.56274 17.9245 9.27258C17.9245 9.27258 17.9055 9.35063 17.926 9.38752C17.926 9.38752 17.4583 9.40392 17.5691 8.91989C17.5691 8.91989 17.6009 9.09661 17.822 9.07631C18.2402 9.03792 18.3 9.33234 19.1854 9.05934C19.677 8.9078 20.0589 8.98219 20.0623 9.22134C20.0664 9.5093 19.6694 9.57624 19.6694 9.57624C19.6694 9.57624 19.8239 9.89213 20.1357 9.75263C20.4476 9.61313 20.4639 9.85378 20.4913 9.93591C20.5187 10.018 20.5706 10.0973 20.6389 10.1055C20.6389 10.1055 20.6882 10.2531 20.669 10.2723C20.6499 10.2914 20.5214 10.4528 20.3929 10.4528C20.2643 10.4528 19.9854 10.4528 19.9854 10.4528C19.9854 10.4528 19.9115 10.2695 20.0538 10.2668C20.1959 10.2641 20.3683 10.2532 20.3464 10.1766C20.3245 10.1 20.2124 10.0644 20.2151 9.97964C20.2151 9.97964 19.8842 10.2203 19.6791 9.93586L19.6736 10.0699C19.6736 10.0699 19.4247 10.0234 19.3345 9.82373C19.3345 9.82373 19.3591 10.048 19.1458 10.0152C19.1458 10.0152 19.1896 10.0808 19.2635 10.1273C19.3373 10.1738 19.2607 10.275 19.1185 10.3598C18.9763 10.4445 18.5387 10.6907 18.3391 10.4391C18.1394 10.1875 18.3829 10.0425 18.443 10.0589C18.5031 10.0753 18.6754 10.3406 18.7931 10.305C18.9107 10.2695 18.9681 10.1491 18.8696 10.0754C18.7711 10.0016 18.6974 9.93174 18.7595 9.8572C18.8449 9.75478 19.1595 9.78548 19.1486 9.71714C19.1376 9.64875 18.845 9.66792 18.6536 9.85931C18.4621 10.0508 17.6307 10.4911 17.2998 10.2121C16.9689 9.93319 17.2327 9.66244 17.2327 9.66244Z" fill="#FFE15A"/>
<path d="M17.1259 9.53938C17.1259 9.53938 17.3761 9.78552 17.7987 9.86348C17.7987 9.86348 17.7207 9.98245 17.4951 9.94963C17.4951 9.94963 17.5854 10.0276 17.647 10.1588C17.647 10.1588 17.5034 10.1916 17.3762 10.1219C17.3762 10.1219 17.3926 10.2285 17.4541 10.3147C17.4541 10.3147 17.2859 10.3147 17.1423 10.1876L17.0849 10.3516C17.0849 10.3516 16.9864 10.286 16.9249 10.1588C16.9249 10.1588 16.81 10.2491 16.6952 10.2491C16.6952 10.2491 16.7362 10.126 16.7362 10.0562C16.7362 10.0562 16.5722 10.1547 16.4367 10.1178C16.4367 10.1178 16.4408 9.94546 16.486 9.89624C16.486 9.89624 16.3793 9.90857 16.3096 9.87163C16.3096 9.87163 16.3506 9.77727 16.3711 9.71573C16.3711 9.71573 16.2562 9.7198 16.1865 9.65418C16.1865 9.65418 16.4081 9.56802 16.4573 9.48599L17.1259 9.53938Z" fill="#FFD25A"/>
<path d="M16.7227 8.85019C16.7719 8.87756 16.8513 8.9377 16.8841 9.03886C16.8841 9.03886 16.9744 8.90756 17.1303 8.88296C17.1303 8.88296 17.1986 8.9595 17.1795 9.15914C17.1795 9.15914 17.3518 9.10992 17.4448 9.20016C17.4448 9.20016 17.2615 9.24117 17.1768 9.39431C17.1768 9.39431 17.1438 9.55078 17.2013 9.64378C17.2013 9.64378 17.1373 9.65231 17.0728 9.6241C17.0728 9.6241 17.04 9.78 17.0728 9.82922C17.0728 9.82922 16.9825 9.81825 16.9333 9.72258C16.9333 9.72258 16.8595 9.83471 16.8649 9.9031C16.8649 9.9031 16.7665 9.84567 16.761 9.76092C16.761 9.76092 16.6926 9.88945 16.6188 9.90042C16.6188 9.90042 16.6106 9.71991 16.5778 9.65152C16.5778 9.65152 16.5149 9.71991 16.4329 9.71714C16.4329 9.71714 16.4329 9.57764 16.5013 9.51202C16.5013 9.51202 16.3864 9.54755 16.3235 9.42174C16.3235 9.42174 16.5122 9.47639 16.5587 9.3616C16.6052 9.2467 16.6188 9.21117 16.6845 9.14827C16.7501 9.08541 16.7227 8.85019 16.7227 8.85019Z" fill="#FFBE5A"/>
<path d="M17.126 9.37941C17.126 9.37941 16.8921 9.82655 16.6788 9.69123C16.4452 9.54287 16.7362 9.19482 16.7732 9.15793C16.7731 9.15788 16.9455 9.20302 17.126 9.37941Z" fill="#FFE15A"/>
<path d="M16.2827 11.6696C16.2827 11.6696 16.2582 11.3485 16.0841 11.2558C15.9204 11.1687 15.8237 11.1252 15.8049 11.0135C15.8049 11.0135 15.9472 11.0789 16.0975 11.1197C16.2333 11.1566 16.3659 11.3865 16.3256 11.6451L16.2827 11.6696Z" fill="#5ABEA0"/>
<path d="M15.7332 11.9337L15.7553 11.9745L15.7714 12.0623L15.7392 12.1664C15.7392 12.1664 15.8671 12.2173 15.8962 12.391C15.9162 12.5102 15.9687 12.536 16.0009 12.5114C16.0331 12.4869 16.0526 12.458 16.019 12.3276C15.976 12.1613 15.8599 12.003 15.8599 12.003L15.7693 11.8642L15.7332 11.9337Z" fill="#B46446"/>
<path d="M15.86 12.0031C15.7433 11.852 15.4251 11.5376 15.3648 11.9663C15.3648 11.9663 15.2401 11.6051 15.4735 11.6192C15.7432 11.6356 15.86 12.0031 15.86 12.0031Z" fill="#5ABEA0"/>
<path d="M15.7553 11.9745C15.6547 11.8642 15.6224 11.7826 15.5701 11.5785C15.5177 11.3743 15.5017 11.313 15.4412 11.3171C15.3808 11.3212 15.3446 11.3865 15.3446 11.5171C15.3446 11.5171 15.1675 11.3579 15.2882 11.2313C15.409 11.1047 15.6787 11.1742 15.6949 11.3987C15.711 11.6233 15.707 11.7744 15.7875 11.9623L15.7553 11.9745Z" fill="#5ABEA0"/>
<path d="M15.7834 11.8765C15.7834 11.8765 15.57 11.4069 16.1699 11.1537C16.1699 11.1537 15.6385 11.0108 15.7029 11.7662L15.7834 11.8765Z" fill="#5ABEA0"/>
<path d="M15.8519 12.044C15.8519 12.044 15.401 11.8724 15.4413 12.289C15.4413 12.289 15.5178 12.0929 15.7392 12.1665L15.8519 12.044Z" fill="#5ABEA0"/>
<path d="M16.3631 11.8792C16.3631 12.001 16.411 12.3545 16.343 12.3992C16.3088 12.4216 16.2121 12.4033 16.2202 12.3175C16.2283 12.2318 16.2665 11.8152 16.2665 11.7132C16.2665 11.6111 16.3631 11.8792 16.3631 11.8792Z" fill="#B46446"/>
<path d="M16.0759 12.1624C16.1538 12.0834 16.1779 11.9038 16.1511 11.6642C16.1511 11.6642 16.3121 11.7758 16.3631 11.8792C16.3631 11.8792 16.4141 11.6424 16.2477 11.5798C16.0813 11.5171 15.9927 11.5526 15.9632 11.6287C15.9336 11.705 16.014 11.7902 16.0491 11.9146C16.0813 12.029 16.0759 12.1624 16.0759 12.1624Z" fill="#5ABEA0"/>
<path d="M16.3524 11.8166C16.3524 11.8166 16.3792 11.6914 16.4678 11.6397C16.4678 11.6397 16.6503 11.7676 16.6369 11.9392C16.6369 11.9392 16.6852 11.7051 16.5859 11.6125C16.4865 11.5199 16.3738 11.4954 16.3175 11.5771C16.2611 11.6587 16.3524 11.8166 16.3524 11.8166Z" fill="#5ABEA0"/>
<path d="M16.3952 11.577C16.3952 11.577 16.4516 11.2422 16.5939 11.1687C16.7361 11.0952 16.9992 11.0271 17.0153 11.0107C17.0153 11.0107 16.7012 11.0271 16.6502 11.0271C16.5992 11.0271 16.3174 11.2312 16.3174 11.5335C16.3174 11.8356 16.3442 11.6288 16.3523 11.626C16.3603 11.6234 16.3952 11.577 16.3952 11.577Z" fill="#5ABEA0"/>
<path d="M16.5264 12.4625C16.5586 12.5299 16.6351 12.5462 16.6512 12.5115C16.6673 12.4768 16.7397 12.2114 16.7397 12.2114L16.6371 12.1624L16.5264 12.4625Z" fill="#B46446"/>
<path d="M17.1283 11.3484C17.2544 11.2749 17.3377 11.4927 17.3377 11.4927C17.3377 11.2363 17.2572 11.1552 17.0558 11.2532C16.9952 11.2827 16.9508 11.3445 16.9182 11.4162C16.8163 11.1234 16.5915 11.1279 16.5915 11.1279L16.5405 11.1633C16.7246 11.1987 16.83 11.4192 16.8746 11.5395C16.8505 11.6273 16.8389 11.7124 16.8339 11.7611C16.7133 11.8862 16.6371 12.1623 16.6371 12.1623C16.6371 12.1623 16.7237 12.2134 16.7398 12.2113C16.7398 12.2113 16.7962 12.0378 16.8666 12.0419C16.9371 12.046 17.0196 12.1583 17.0217 12.2297C17.0217 12.2297 17.1263 12.0174 17.0015 11.9357C16.9547 11.9051 16.9172 11.8934 16.8869 11.8929L16.9794 11.7887C17.1304 11.8173 17.2351 11.9603 17.2351 11.9603C17.2381 11.7051 17.1254 11.6552 17.0066 11.6766C17.0278 11.5739 17.0746 11.3797 17.1283 11.3484Z" fill="#5ABEA0"/>
<path d="M19.6135 11.7018C19.6135 11.9159 19.6135 12.3905 19.6135 12.4255C19.6135 12.4606 19.4602 12.5967 19.4602 12.5967H19.8677C19.8677 12.5967 19.7368 12.445 19.7368 12.4255C19.7368 12.4061 19.7667 11.7563 19.7667 11.7563L19.6135 11.7018Z" fill="#B46446"/>
<path d="M19.6396 11.7757C19.5424 11.7679 19.2732 11.9897 19.1947 12.3282C19.1947 12.3282 18.9554 11.9391 19.5536 11.6162C19.5536 11.6162 19.2881 11.5383 18.8844 11.9586C18.8626 11.9813 18.8433 11.3244 19.5686 11.4994C19.5686 11.4994 19.2919 11.0986 18.7236 11.4138C18.7236 11.4138 19.1012 10.7368 19.6583 11.3438C19.6583 11.3438 19.662 10.8185 19.6658 10.8729C19.6696 10.9274 19.7106 11.1686 19.7106 11.1686L19.8191 10.978L19.7331 11.3671C19.7331 11.3671 20.2303 10.7056 20.6528 11.3944C20.6528 11.3944 20.1069 11.1687 19.8453 11.4216C19.8453 11.4216 20.4061 11.2698 20.3612 11.9197C20.3612 11.9197 20.1406 11.5344 19.7817 11.585C19.7817 11.585 20.2042 11.7796 20.0696 12.3049C20.0695 12.3049 19.8149 11.7897 19.6396 11.7757Z" fill="#5ABEA0"/>
<path d="M16.0695 14.1142C16.0487 14.086 16.0195 14.0724 15.991 14.0689C16.002 14.0309 16.0093 14.0136 16.0064 13.9859C16.0151 13.9881 16.0234 13.992 16.0324 13.9931L16.0362 13.9619C16.003 13.9579 15.9669 13.943 15.9297 13.9203C15.9526 13.9006 15.9692 13.8705 15.9692 13.8335C15.9692 13.7933 15.9508 13.7596 15.9246 13.7406C15.8984 13.7597 15.88 13.7934 15.88 13.8335C15.88 13.8636 15.8923 13.8878 15.9085 13.9072C15.8947 13.8976 15.8808 13.8865 15.8667 13.8746C15.8631 13.8499 15.8537 13.825 15.8317 13.8051C15.802 13.778 15.7648 13.769 15.733 13.7754C15.7295 13.8076 15.742 13.8439 15.7716 13.871C15.7945 13.8919 15.8215 13.8991 15.8475 13.8996C15.8534 13.9046 15.8596 13.9096 15.8661 13.9148C15.8483 13.9126 15.8291 13.9144 15.8099 13.9214C15.7721 13.9352 15.7469 13.964 15.7379 13.9951C15.7648 14.0131 15.8027 14.019 15.8404 14.0052C15.8734 13.9932 15.8946 13.9691 15.906 13.9426C15.9281 13.9568 15.9523 13.9685 15.9774 13.9779L15.9734 13.9785C15.9726 14.0011 15.9741 14.0104 15.9628 14.0525C15.9375 14.0361 15.9039 14.0287 15.8684 14.0391C15.8299 14.0505 15.8028 14.0776 15.7919 14.1082C15.8177 14.1279 15.8551 14.1361 15.8936 14.1247C15.9226 14.1162 15.9423 14.0976 15.9563 14.0764C15.951 14.0924 15.9443 14.1089 15.9369 14.1257C15.9142 14.1362 15.893 14.1523 15.88 14.179C15.8624 14.2151 15.8643 14.2535 15.8795 14.2821C15.9114 14.2764 15.9427 14.2542 15.9603 14.2181C15.9738 14.1902 15.9731 14.1623 15.9663 14.1373C15.9694 14.1302 15.9725 14.1228 15.9756 14.1151C15.9785 14.1328 15.9857 14.1507 15.9978 14.1671C16.0217 14.1995 16.0564 14.2156 16.0888 14.2155C16.0985 14.1845 16.0934 14.1465 16.0695 14.1142Z" fill="#5ABEA0"/>
<path d="M15.8848 14.0133C16.0212 14.0133 16.1997 14.0081 16.1944 14.1445C16.1892 14.281 16.037 14.7429 16.3886 14.8847C16.7403 15.0264 16.7823 15.0054 16.7823 15.0054L16.9397 15.3675L17.3229 15.2311L16.9554 14.9371C16.9554 14.9371 16.9239 14.7377 16.8347 14.6012C16.8347 14.6012 17.0604 14.4857 17.1392 14.3859L16.9817 14.3754C16.9817 14.3754 17.1864 14.2442 17.2809 14.0973L17.1707 14.1078C17.1707 14.1078 17.2966 13.9818 17.3281 13.8348C17.3281 13.8348 17.1234 14.0395 16.9135 14.0658C16.9135 14.0658 17.0027 13.8348 17.0237 13.7456C17.0237 13.7456 16.8662 13.8453 16.756 13.8873C16.6458 13.9293 16.4726 13.9345 16.5513 14.2915C16.5513 14.2915 16.4568 14.2128 16.3991 14.0448C16.3414 13.8768 16.3204 13.8138 16.2417 13.8138C16.1131 13.8138 16.0632 13.9293 16.0632 13.9293L15.8848 14.0133Z" fill="#FFECDE"/>
<path d="M19.7586 14.0808C19.8058 14.0179 19.9003 13.8211 19.9829 13.8723C20.0656 13.9234 20.1758 14.0493 20.2426 13.9903C20.3095 13.9313 20.3135 13.8565 20.2111 13.8211C20.1088 13.7857 19.9947 13.7267 19.9239 13.7503C19.8531 13.7739 19.6367 13.9982 19.6367 13.9982L19.7586 14.0808Z" fill="#B46446"/>
<path d="M19.1489 14.25C19.1449 14.1595 19.206 13.7666 19.4519 13.8172C19.5856 13.8447 19.6515 13.9865 19.8257 14.0532C20.0106 14.124 20.1287 14.1673 20.0932 14.2893C20.0578 14.4113 19.9909 14.5568 19.8375 14.5923C19.684 14.6278 19.1489 14.25 19.1489 14.25Z" fill="#FFE15A"/>
<path d="M18.9876 14.5739C18.9351 14.5844 18.741 14.8678 18.9719 15.1563C18.9719 15.1563 19.2552 15.2717 19.4808 15.0934C19.7064 14.915 19.5385 14.8258 19.5385 14.8258L18.9876 14.5739Z" fill="#5ABEA0"/>
<path d="M19.0072 14.6356C18.9836 14.6001 18.9876 14.5739 18.9876 14.5739C18.9876 14.5739 18.9757 14.1674 19.145 14.1595C19.3142 14.1516 19.924 14.5529 19.924 14.6198C19.924 14.6867 19.7272 14.8795 19.562 14.9189C19.3968 14.9582 19.0072 14.6356 19.0072 14.6356Z" fill="#5ABEA0"/>
<path d="M18.5901 15.6193C18.5901 15.6193 19.1276 15.3779 19.0265 15.1814C18.9537 15.0397 18.7898 15.1305 18.7639 15.2387C18.7315 15.3738 18.6265 15.562 18.5901 15.6193Z" fill="#B46446"/>
<path d="M17.9969 16.3056L17.9658 16.2958C17.9346 16.2858 17.1926 16.0468 16.4385 15.5497C15.4257 14.8823 14.8904 14.0676 14.8904 13.1941V8.44907H21.1033V13.1941C21.1033 14.0677 20.568 14.8823 19.5552 15.5497C18.8011 16.0468 18.0591 16.2858 18.0279 16.2958L17.9969 16.3056ZM15.0952 8.65391V13.1941C15.0952 15.0354 17.6817 15.9817 17.9969 16.0902C18.3117 15.9817 20.8985 15.0339 20.8985 13.1941V8.65391H15.0952Z" fill="#464655"/>
</svg>
