<svg width="24" height="24" viewBox="0 0 24 24" fill="none" xmlns="http://www.w3.org/2000/svg">
<path d="M0 18.1625C0.0504844 19.11 0.834703 19.8629 1.79494 19.8629H22.2024C23.1952 19.8629 24 19.0581 24 18.0653V14.621H0V18.1625Z" fill="#73AF00"/>
<path d="M22.2024 4.13705H1.79494C0.834703 4.13705 0.0504844 4.88996 0 5.83754V9.37904H24V5.93471C24 4.9419 23.1952 4.13705 22.2024 4.13705Z" fill="#82AFFF"/>
<path d="M24 9.37918H0V14.6212H24V9.37918Z" fill="#FF4B55"/>
<path d="M12.5659 13.7161C11.6372 13.7161 10.8838 12.9628 10.8838 12.0332C10.8838 11.1053 11.6372 10.3502 12.5659 10.3502C12.9115 10.3502 13.2301 10.4565 13.4957 10.6363C13.5363 10.6639 13.5827 10.6104 13.5487 10.575C13.1518 10.1624 12.5901 9.91068 11.9673 9.93191C10.8973 9.96843 10.0115 10.8263 9.94316 11.8947C9.86483 13.1185 10.8338 14.1355 12.0403 14.1355C12.6346 14.1355 13.1687 13.887 13.5502 13.4898C13.5838 13.4547 13.5373 13.402 13.4971 13.4293C13.2313 13.6097 12.9121 13.7161 12.5659 13.7161Z" fill="#F5F5F5"/>
<path d="M14.0384 10.9972L14.213 11.4879L14.6834 11.2643C14.7188 11.2475 14.7558 11.2844 14.7389 11.3199L14.5153 11.7903L15.0059 11.9648C15.0429 11.9779 15.0429 12.0302 15.0059 12.0433L14.5153 12.2179L14.7389 12.6883C14.7558 12.7237 14.7188 12.7607 14.6834 12.7438L14.213 12.5202L14.0384 13.0109C14.0253 13.0479 13.973 13.0479 13.9599 13.0109L13.7854 12.5203L13.315 12.7438C13.2795 12.7607 13.2426 12.7237 13.2594 12.6883L13.483 12.2179L12.9923 12.0434C12.9554 12.0303 12.9554 11.978 12.9923 11.9648L13.483 11.7903L13.2594 11.3199C13.2426 11.2845 13.2795 11.2475 13.315 11.2644L13.7854 11.488L13.9599 10.9973C13.9731 10.9603 14.0253 10.9603 14.0384 10.9972Z" fill="#F5F5F5"/>
</svg>
