<svg width="24" height="24" viewBox="0 0 24 24" fill="none" xmlns="http://www.w3.org/2000/svg">
<path d="M22.2026 4.13794H1.79742C0.804703 4.13794 0 4.94264 0 5.93536V9.37931H24V5.93536C24 4.94264 23.1953 4.13794 22.2026 4.13794Z" fill="#41479B"/>
<path d="M0 18.0647C0 19.0573 0.804703 19.8621 1.79742 19.8621H22.2026C23.1952 19.8621 24 19.0574 24 18.0647V14.6207H0V18.0647Z" fill="#41479B"/>
<path d="M24 9.37921H0V14.6203H24V9.37921Z" fill="#F5F5F5"/>
<path d="M11.9903 13.7607C10.9921 13.7607 10.1799 12.9486 10.1799 11.9504C10.1799 11.524 10.3311 11.1099 10.6056 10.7843L10.6846 10.8509C10.4258 11.1579 10.2833 11.5483 10.2833 11.9504C10.2833 12.8915 11.049 13.6573 11.9902 13.6573L11.9903 13.7607Z" fill="#50AF69"/>
<path d="M11.3279 13.2262C11.3053 13.2648 11.2941 13.3178 11.2893 13.3715C11.2688 13.3568 11.2472 13.3431 11.2236 13.3316C11.2236 13.3316 11.1881 13.457 11.2159 13.5472C11.2159 13.5472 11.1215 13.5589 11.0349 13.6458C11.0349 13.6458 11.0647 13.6669 11.116 13.6889C11.0299 13.756 11.0034 13.8224 11.0034 13.8224C11.5111 14.0762 11.7544 13.7222 11.7649 13.7062C11.6406 13.3515 11.3279 13.2262 11.3279 13.2262Z" fill="#50AF69"/>
<path d="M11.7649 13.7064C11.7652 13.7073 11.7656 13.708 11.7659 13.7089V13.7049C11.7659 13.7049 11.7651 13.706 11.7649 13.7064Z" fill="#50AF69"/>
<path d="M10.8593 12.8879C10.8261 12.9122 10.7973 12.9527 10.7735 12.9963C10.7616 12.9764 10.7484 12.9569 10.7327 12.9386C10.7327 12.9386 10.6568 13.0313 10.6473 13.1176C10.6473 13.1176 10.5635 13.093 10.4588 13.1345C10.4588 13.1345 10.4762 13.1632 10.5113 13.2005C10.4143 13.2256 10.3677 13.2719 10.3677 13.2719C10.7028 13.6715 11.0374 13.462 11.0521 13.4524C11.0771 13.1077 10.8593 12.8879 10.8593 12.8879Z" fill="#50AF69"/>
<path d="M11.0521 13.4524C11.052 13.4533 11.0521 13.454 11.052 13.4549L11.0535 13.4515C11.0535 13.4515 11.0525 13.4522 11.0521 13.4524Z" fill="#50AF69"/>
<path d="M10.5682 12.4455C10.532 12.4531 10.4933 12.4759 10.4576 12.5027C10.4552 12.482 10.4515 12.4611 10.4455 12.4403C10.4455 12.4403 10.3488 12.4883 10.309 12.5556C10.309 12.5556 10.2494 12.5043 10.1479 12.4997C10.1479 12.4997 10.1515 12.5297 10.1667 12.5734C10.0777 12.558 10.0222 12.5787 10.0222 12.5787C10.1494 13.0312 10.5018 12.983 10.5175 12.9807C10.6656 12.7069 10.5682 12.4455 10.5682 12.4455Z" fill="#50AF69"/>
<path d="M10.5176 12.9807C10.5173 12.9813 10.517 12.982 10.5166 12.9827L10.5191 12.9804C10.5191 12.9805 10.518 12.9806 10.5176 12.9807Z" fill="#50AF69"/>
<path d="M10.4532 11.9414C10.4188 11.9436 10.3788 11.9586 10.3405 11.9777C10.3431 11.9594 10.3446 11.9408 10.3439 11.922C10.3439 11.922 10.246 11.952 10.1947 12.0056C10.1947 12.0056 10.1527 11.9539 10.0624 11.9375C10.0624 11.9375 10.0589 11.964 10.0624 12.0037C9.98586 11.9796 9.93115 11.9908 9.93115 11.9908C9.94184 12.3987 10.2701 12.3996 10.2847 12.3994C10.4809 12.1799 10.4532 11.9414 10.4532 11.9414Z" fill="#50AF69"/>
<path d="M10.2846 12.3995C10.2841 12.4001 10.2837 12.4006 10.2832 12.4012L10.2859 12.3995C10.286 12.3995 10.2849 12.3995 10.2846 12.3995Z" fill="#50AF69"/>
<path d="M10.4913 11.5239C10.4619 11.5168 10.4245 11.519 10.3874 11.5252C10.3944 11.5105 10.4004 11.4953 10.4047 11.4794C10.4047 11.4794 10.3147 11.4792 10.2578 11.5109C10.2578 11.5109 10.236 11.4566 10.1645 11.4196C10.1645 11.4196 10.1546 11.4409 10.1474 11.4751C10.0893 11.4351 10.0405 11.4304 10.0405 11.4304C9.94396 11.7753 10.2191 11.861 10.2314 11.8646C10.4529 11.7311 10.4913 11.5239 10.4913 11.5239Z" fill="#50AF69"/>
<path d="M10.2316 11.8646C10.231 11.865 10.2305 11.8653 10.23 11.8656L10.2327 11.865C10.2327 11.865 10.2318 11.8646 10.2316 11.8646Z" fill="#50AF69"/>
<path d="M10.2736 11.0161C10.2736 11.0161 10.1798 11.2618 10.3253 11.4041C10.3253 11.4041 10.515 11.348 10.6088 11.1508L10.529 11.1357L10.488 11.0129L10.3522 11.0733L10.2736 11.0161Z" fill="#50AF69"/>
<path d="M10.5377 10.6212C10.5377 10.6212 10.3908 10.8392 10.5002 11.0108C10.5002 11.0108 10.6977 10.9991 10.8337 10.8283L10.7594 10.7956L10.7473 10.6666L10.6014 10.6946L10.5377 10.6212Z" fill="#50AF69"/>
<path d="M12.01 13.7607V13.6573C12.9512 13.6573 13.7169 12.8915 13.7169 11.9504C13.7169 11.5483 13.5744 11.1579 13.3156 10.8509L13.3947 10.7843C13.6692 11.1099 13.8203 11.524 13.8203 11.9504C13.8203 12.9486 13.0082 13.7607 12.01 13.7607Z" fill="#50AF69"/>
<path d="M12.6722 13.2262C12.6948 13.2648 12.706 13.3178 12.7108 13.3715C12.7313 13.3568 12.7529 13.3431 12.7765 13.3316C12.7765 13.3316 12.812 13.457 12.7842 13.5472C12.7842 13.5472 12.8786 13.5589 12.9652 13.6458C12.9652 13.6458 12.9353 13.6669 12.8841 13.6889C12.9701 13.756 12.9966 13.8224 12.9966 13.8224C12.489 14.0762 12.2457 13.7222 12.2351 13.7062C12.3595 13.3515 12.6722 13.2262 12.6722 13.2262Z" fill="#50AF69"/>
<path d="M12.2352 13.7064C12.2348 13.7073 12.2345 13.708 12.2341 13.7089V13.7049C12.2341 13.7049 12.2349 13.706 12.2352 13.7064Z" fill="#50AF69"/>
<path d="M13.1409 12.8879C13.1741 12.9122 13.2028 12.9527 13.2267 12.9963C13.2385 12.9764 13.2517 12.9569 13.2674 12.9386C13.2674 12.9386 13.3433 13.0313 13.3528 13.1176C13.3528 13.1176 13.4366 13.093 13.5414 13.1345C13.5414 13.1345 13.5239 13.1632 13.4888 13.2005C13.5858 13.2256 13.6325 13.2719 13.6325 13.2719C13.2973 13.6715 12.9628 13.462 12.948 13.4524C12.9231 13.1077 13.1409 12.8879 13.1409 12.8879Z" fill="#50AF69"/>
<path d="M12.9482 13.4524C12.9482 13.4533 12.9482 13.454 12.9483 13.4549L12.9468 13.4515C12.9468 13.4515 12.9478 13.4522 12.9482 13.4524Z" fill="#50AF69"/>
<path d="M13.4319 12.4455C13.468 12.4531 13.5068 12.4759 13.5424 12.5027C13.5448 12.482 13.5485 12.4611 13.5546 12.4403C13.5546 12.4403 13.6512 12.4883 13.691 12.5556C13.691 12.5556 13.7507 12.5043 13.8521 12.4997C13.8521 12.4997 13.8485 12.5297 13.8333 12.5734C13.9224 12.558 13.9778 12.5787 13.9778 12.5787C13.8506 13.0312 13.4982 12.983 13.4825 12.9807C13.3344 12.7069 13.4319 12.4455 13.4319 12.4455Z" fill="#50AF69"/>
<path d="M13.4827 12.9807C13.483 12.9813 13.4833 12.982 13.4837 12.9827L13.4812 12.9804C13.4812 12.9805 13.4823 12.9806 13.4827 12.9807Z" fill="#50AF69"/>
<path d="M13.547 11.9414C13.5814 11.9436 13.6213 11.9586 13.6596 11.9777C13.657 11.9594 13.6556 11.9408 13.6563 11.922C13.6563 11.922 13.7542 11.952 13.8055 12.0056C13.8055 12.0056 13.8475 11.9539 13.9378 11.9375C13.9378 11.9375 13.9413 11.964 13.9378 12.0037C14.0143 11.9796 14.069 11.9908 14.069 11.9908C14.0584 12.3987 13.7301 12.3996 13.7155 12.3994C13.5193 12.1799 13.547 11.9414 13.547 11.9414Z" fill="#50AF69"/>
<path d="M13.7155 12.3995C13.7159 12.4001 13.7164 12.4006 13.7169 12.4012L13.7141 12.3995C13.7141 12.3995 13.7151 12.3995 13.7155 12.3995Z" fill="#50AF69"/>
<path d="M13.5088 11.5239C13.5382 11.5168 13.5756 11.519 13.6127 11.5252C13.6058 11.5105 13.5997 11.4953 13.5955 11.4794C13.5955 11.4794 13.6855 11.4792 13.7423 11.5109C13.7423 11.5109 13.7642 11.4566 13.8356 11.4196C13.8356 11.4196 13.8455 11.4409 13.8528 11.4751C13.9108 11.4351 13.9596 11.4304 13.9596 11.4304C14.0562 11.7753 13.7811 11.861 13.7688 11.8646C13.5473 11.7311 13.5088 11.5239 13.5088 11.5239Z" fill="#50AF69"/>
<path d="M13.7687 11.8646C13.7693 11.865 13.7697 11.8653 13.7703 11.8656L13.7676 11.865C13.7676 11.865 13.7685 11.8646 13.7687 11.8646Z" fill="#50AF69"/>
<path d="M13.7265 11.0161C13.7265 11.0161 13.8203 11.2618 13.6748 11.4041C13.6748 11.4041 13.4851 11.348 13.3914 11.1508L13.4711 11.1357L13.5121 11.0129L13.6479 11.0733L13.7265 11.0161Z" fill="#50AF69"/>
<path d="M13.4624 10.6212C13.4624 10.6212 13.6094 10.8392 13.4999 11.0108C13.4999 11.0108 13.3025 10.9991 13.1665 10.8283L13.2408 10.7956L13.2528 10.6666L13.3988 10.6946L13.4624 10.6212Z" fill="#50AF69"/>
<path d="M12.0001 12.6724L11.8401 12.9123C11.8128 12.9533 11.8182 13.0079 11.8531 13.0427L12.0001 13.1897L12.1471 13.0427C12.1819 13.0079 12.1873 12.9533 12.16 12.9123L12.0001 12.6724Z" fill="#41479B"/>
<path d="M12.0682 12.9123L12.0001 12.6724L11.9319 12.9123C11.9203 12.9533 11.9226 13.0079 11.9374 13.0427L12.0001 13.1897L12.0627 13.0427C12.0776 13.0078 12.0799 12.9533 12.0682 12.9123Z" fill="#F5F5F5"/>
<path d="M12.0001 10.5259V9.87933C12.0001 9.87933 11.7544 10.2328 11.7932 10.75" fill="#41479B"/>
<path d="M10.8982 10.5281C10.5428 11.2995 10.9073 11.9341 10.9838 12.0536C10.9859 12.0568 11.4913 11.2391 11.4913 11.2391L10.8982 10.5281Z" fill="#41479B"/>
<path d="M11.2725 11.5928C11.2164 11.4182 11.2083 11.2143 11.2756 10.9804L11.0557 10.7167C10.875 11.2037 10.9497 11.5632 11.1306 11.8212C11.175 11.7498 11.2243 11.6704 11.2725 11.5928Z" fill="#F5F5F5"/>
<path d="M11.4829 11.2822C11.4675 11.2822 11.4522 11.2753 11.442 11.2622L10.7934 10.4282C10.7758 10.4057 10.7799 10.3732 10.8024 10.3557C10.8251 10.3381 10.8575 10.3423 10.875 10.3648L11.5236 11.1988C11.5412 11.2213 11.5371 11.2538 11.5146 11.2713C11.5051 11.2787 11.4939 11.2822 11.4829 11.2822Z" fill="#FFE15A"/>
<path d="M10.4483 11.3296C10.2414 13.3986 11.8966 12.8813 12 12.6744L10.9655 12.1572L11.1724 11.7434L10.4483 11.3296Z" fill="#41479B"/>
<path d="M10.9486 11.5677L10.6602 11.3947C10.5953 12.6242 11.2519 12.8289 11.7361 12.7679C11.3436 12.7152 10.9513 12.4253 10.9486 11.5677Z" fill="#F5F5F5"/>
<path d="M11.1724 11.795C11.163 11.795 11.1536 11.7925 11.145 11.7871L10.3175 11.27C10.2933 11.2549 10.2859 11.2229 10.3011 11.1988C10.3162 11.1744 10.3481 11.1671 10.3724 11.1824L11.1999 11.6995C11.2241 11.7146 11.2315 11.7465 11.2163 11.7707C11.2065 11.7864 11.1896 11.795 11.1724 11.795Z" fill="#FFE15A"/>
<path d="M13.1019 10.526C13.4574 11.2974 13.0928 11.9321 13.0163 12.0515C13.0143 12.0547 12.5088 11.237 12.5088 11.237L13.1019 10.526Z" fill="#41479B"/>
<path d="M12.7278 11.5908C12.7838 11.4162 12.7919 11.2123 12.7246 10.9783L12.9445 10.7147C13.1253 11.2016 13.0505 11.5612 12.8696 11.8192C12.8252 11.7478 12.7759 11.6684 12.7278 11.5908Z" fill="#F5F5F5"/>
<path d="M12.5172 11.2802C12.5062 11.2802 12.4949 11.2767 12.4855 11.2693C12.463 11.2518 12.4589 11.2192 12.4765 11.1967L13.1251 10.3628C13.1427 10.3402 13.1751 10.3362 13.1977 10.3537C13.2202 10.3712 13.2243 10.4037 13.2067 10.4262L12.5581 11.2602C12.5479 11.2733 12.5327 11.2802 12.5172 11.2802Z" fill="#FFE15A"/>
<path d="M13.5517 11.3276C13.7586 13.3965 12.1034 12.8793 12 12.6724L13.0345 12.1552L12.8276 11.7414L13.5517 11.3276Z" fill="#41479B"/>
<path d="M13.0515 11.5656L13.3398 11.3926C13.4047 12.6221 12.7482 12.8268 12.2639 12.7658C12.6565 12.7131 13.0487 12.4233 13.0515 11.5656Z" fill="#F5F5F5"/>
<path d="M12.8277 11.793C12.8105 11.793 12.7936 11.7844 12.7837 11.7686C12.7686 11.7445 12.776 11.7126 12.8001 11.6974L13.6277 11.1803C13.652 11.165 13.6838 11.1724 13.699 11.1967C13.7141 11.2209 13.7068 11.2528 13.6826 11.2679L12.855 11.7851C12.8465 11.7905 12.837 11.793 12.8277 11.793Z" fill="#FFE15A"/>
<path d="M12 11.8447C12.2285 11.8447 12.4138 11.6595 12.4138 11.4309C12.4138 11.2024 12.2285 11.0171 12 11.0171C11.7715 11.0171 11.5862 11.2024 11.5862 11.4309C11.5862 11.6595 11.7715 11.8447 12 11.8447Z" fill="#FFE6E6"/>
<path d="M12.0001 11.6378C12.1144 11.6378 12.207 11.5452 12.207 11.4309C12.207 11.3167 12.1144 11.224 12.0001 11.224C11.8858 11.224 11.7932 11.3167 11.7932 11.4309C11.7932 11.5452 11.8858 11.6378 12.0001 11.6378Z" fill="#F5F5F5"/>
<path d="M11.9999 12.1034C11.9714 12.1034 11.9482 12.0803 11.9482 12.0517V11.4311C11.9482 11.4025 11.9714 11.3794 11.9999 11.3794C12.0285 11.3794 12.0516 11.4025 12.0516 11.4311V12.0517C12.0516 12.0803 12.0285 12.1034 11.9999 12.1034Z" fill="#FFE15A"/>
<path d="M13.4139 12.6638H10.6423L10.9656 12.0486H13.0432L13.4139 12.6638Z" fill="#5AA0E6"/>
<path d="M12.0842 12.1638H12.805L12.5808 11.9396C12.5703 11.9291 12.5574 11.9211 12.5433 11.9164L12.4652 11.8904C12.4371 11.881 12.4062 11.8852 12.3816 11.9016L12.1324 12.0677L12.0842 12.1638Z" fill="#FFB750"/>
<path d="M11.8391 12.2026H12.6994L12.4318 11.935C12.4192 11.9224 12.4039 11.9129 12.3869 11.9073L12.2938 11.8762C12.2602 11.8651 12.2233 11.87 12.1939 11.8896L11.8964 12.088L11.8391 12.2026Z" fill="#FFC455"/>
<path d="M11.5398 12.2457H12.5787L12.2555 11.9225C12.2403 11.9073 12.2218 11.8958 12.2014 11.8891L12.0889 11.8516C12.0483 11.8381 12.0038 11.844 11.9683 11.8677L11.6091 12.1071L11.5398 12.2457Z" fill="#FFCD55"/>
<path d="M11.2437 12.2845H12.4332L12.0631 11.9145C12.0457 11.897 12.0245 11.8839 12.0011 11.8761L11.8723 11.8332C11.8258 11.8177 11.7749 11.8245 11.7342 11.8517L11.3229 12.1259L11.2437 12.2845Z" fill="#FFD25A"/>
<path d="M10.7585 12.3621H12.3102L11.8276 11.8794C11.8049 11.8567 11.7772 11.8395 11.7467 11.8294L11.5787 11.7734C11.5182 11.7532 11.4516 11.7621 11.3985 11.7975L10.862 12.1551L10.7585 12.3621Z" fill="#FFE15A"/>
<path d="M12.1116 11.5238H11.8879L11.9394 11.3079H12.0171C12.0423 11.3079 12.0642 11.3252 12.07 11.3497L12.1116 11.5238Z" fill="#FF4B55"/>
<path d="M12.0987 11.5585H11.8979C11.8814 11.5585 11.8682 11.5452 11.8682 11.5288V11.5189C11.8682 11.5024 11.8815 11.4892 11.8979 11.4892H12.0987C12.1151 11.4892 12.1284 11.5025 12.1284 11.5189V11.5288C12.1284 11.5452 12.1151 11.5585 12.0987 11.5585Z" fill="#FF4B55"/>
<path d="M11.9659 11.4062L11.9157 11.3935C11.9006 11.3896 11.894 11.3718 11.903 11.3591L11.9394 11.3079L11.9659 11.4062Z" fill="#FF4B55"/>
<path d="M11.742 10.8997C11.7395 10.9187 11.7371 10.9377 11.7346 10.9567C11.815 10.9079 11.9037 10.8786 12 10.8786C12.0963 10.8787 12.185 10.9078 12.2654 10.9567C12.263 10.9376 12.2605 10.9187 12.2581 10.8997C12.1781 10.858 12.092 10.834 12 10.834C11.9081 10.834 11.822 10.8579 11.742 10.8997Z" fill="#41479B"/>
<path d="M11.7452 10.8749C11.7427 10.8939 11.7402 10.9129 11.7378 10.9319C11.8173 10.883 11.9049 10.8537 12 10.8536C12.095 10.8537 12.1826 10.883 12.2621 10.9319C12.2597 10.9129 12.2572 10.8939 12.2548 10.8749C12.1757 10.8329 12.0908 10.809 11.9999 10.809C11.9092 10.809 11.8242 10.8329 11.7452 10.8749Z" fill="#5AA0E6"/>
<path d="M11.7481 10.852C11.7456 10.871 11.7432 10.89 11.7407 10.909C11.8194 10.86 11.9061 10.8304 11.9999 10.8305C12.0939 10.8305 12.1805 10.86 12.2592 10.909C12.2567 10.89 12.2542 10.871 12.2518 10.852C12.1736 10.81 12.0897 10.7859 11.9999 10.7859C11.9103 10.7858 11.8264 10.81 11.7481 10.852Z" fill="#9BC800"/>
<path d="M11.7515 10.8258C11.7491 10.8448 11.7466 10.8638 11.7441 10.8828C11.822 10.8336 11.9074 10.804 12 10.804C12.0927 10.8041 12.1781 10.8335 12.2559 10.8828C12.2534 10.8638 12.251 10.8448 12.2485 10.8258C12.1712 10.7836 12.0885 10.7594 12 10.7594C11.9116 10.7594 11.8288 10.7836 11.7515 10.8258Z" fill="#FFE14E"/>
<path d="M11.7549 10.8001C11.7525 10.819 11.75 10.8381 11.7476 10.8571C11.8245 10.8077 11.9087 10.7781 12.0001 10.778C12.0915 10.7781 12.1757 10.8076 12.2526 10.8571C12.2502 10.8381 12.2477 10.819 12.2452 10.8001C12.1689 10.7578 12.0873 10.7334 12.0001 10.7334C11.9129 10.7335 11.8313 10.7577 11.7549 10.8001Z" fill="#FFB14E"/>
<path d="M11.7561 10.7891C11.7544 10.8024 11.7527 10.8157 11.751 10.829C11.8269 10.7796 11.9099 10.7497 11.9999 10.7497C12.0899 10.7496 12.1729 10.7795 12.2489 10.829C12.2472 10.8157 12.2455 10.8024 12.2438 10.7891C12.1678 10.7467 12.0867 10.7224 12 10.7223C11.9132 10.7222 11.832 10.7467 11.7561 10.7891Z" fill="#FF4B55"/>
<path d="M13.4483 12.7241H10.5517C10.5326 12.7241 10.5151 12.7136 10.5061 12.6968C10.4971 12.68 10.4981 12.6595 10.5087 12.6437L11.957 10.4713C11.9761 10.4426 12.0239 10.4426 12.043 10.4713L13.4913 12.6437C13.5019 12.6596 13.5029 12.68 13.4939 12.6968C13.4849 12.7136 13.4673 12.7241 13.4483 12.7241ZM10.6483 12.6207H13.3517L12 10.5933L10.6483 12.6207Z" fill="#FFE15A"/>
<path d="M11.9999 10.0345C11.9714 10.0345 11.9482 10.0114 11.9482 9.98279V9.77589C11.9482 9.74729 11.9714 9.72418 11.9999 9.72418C12.0285 9.72418 12.0516 9.74729 12.0516 9.77589V9.98279C12.0516 10.0114 12.0285 10.0345 11.9999 10.0345Z" fill="#FFE15A"/>
<path d="M12.1033 10.0345H11.8964C11.8678 10.0345 11.8447 10.0114 11.8447 9.98279C11.8447 9.9542 11.8678 9.93109 11.8964 9.93109H12.1033C12.1319 9.93109 12.155 9.9542 12.155 9.98279C12.155 10.0114 12.1319 10.0345 12.1033 10.0345Z" fill="#FFE15A"/>
<path d="M11.9999 13.7586C11.9962 13.7586 11.9924 13.7582 11.9887 13.7574C11.9381 13.7461 11.7692 13.7056 11.7193 13.6562C11.656 13.5934 11.6557 13.4909 11.7184 13.4275C11.7489 13.3969 11.7894 13.3799 11.8326 13.3799H11.8331C11.8761 13.3799 11.9165 13.3965 11.947 13.4268C11.9969 13.4763 12.0387 13.6448 12.0503 13.6953C12.0542 13.7126 12.0491 13.7308 12.0366 13.7434C12.0268 13.7532 12.0136 13.7586 11.9999 13.7586ZM11.8331 13.4832C11.8194 13.4878 11.8028 13.4894 11.7918 13.5004C11.7692 13.5231 11.7693 13.56 11.7922 13.5827C11.8047 13.5949 11.8606 13.6161 11.9276 13.6352C11.908 13.5684 11.8865 13.5126 11.8742 13.5001L11.9106 13.4635L11.8741 13.5001C11.8631 13.4892 11.8486 13.4832 11.8331 13.4832Z" fill="#41479B"/>
<path d="M11.9999 13.7586C11.9863 13.7586 11.973 13.7533 11.9632 13.7433C11.9508 13.7307 11.9456 13.7125 11.9496 13.6952C11.9612 13.6447 12.003 13.4762 12.0528 13.4267C12.0834 13.3963 12.1199 13.3825 12.1672 13.3798C12.2104 13.3799 12.2509 13.3968 12.2813 13.4274C12.3442 13.4908 12.3438 13.5933 12.2805 13.656C12.2307 13.7055 12.0617 13.746 12.0111 13.7574C12.0074 13.7582 12.0037 13.7586 11.9999 13.7586ZM12.0893 13.4634L12.1257 13.5001C12.1133 13.5126 12.0918 13.5684 12.0722 13.6351C12.1393 13.6161 12.1952 13.595 12.2077 13.5826C12.2304 13.56 12.2306 13.5231 12.208 13.5004C12.1971 13.4894 12.1825 13.4832 12.167 13.4832H12.1668C12.1513 13.4832 12.1368 13.4892 12.1258 13.5001L12.0893 13.4634ZM12.0893 13.4634H12.0903H12.0893Z" fill="#41479B"/>
<path d="M11.7929 14.069C11.7643 14.069 11.7412 14.0459 11.7412 14.0173C11.7412 13.7811 11.9671 13.6655 11.9767 13.6606C12.0024 13.6478 12.0332 13.6583 12.046 13.6837C12.0588 13.7091 12.0486 13.7401 12.0232 13.7531C12.0213 13.754 11.8447 13.8457 11.8447 14.0172C11.8447 14.0459 11.8215 14.069 11.7929 14.069Z" fill="#41479B"/>
<path d="M12.2067 14.069C12.1782 14.069 12.155 14.0458 12.155 14.0173C12.155 13.8457 11.9784 13.754 11.9766 13.7531C11.9512 13.7402 11.941 13.7091 11.9538 13.6837C11.9667 13.6583 11.9974 13.6478 12.023 13.6607C12.0327 13.6655 12.2585 13.7811 12.2585 14.0173C12.2584 14.0458 12.2353 14.069 12.2067 14.069Z" fill="#41479B"/>
</svg>
