<svg width="24" height="24" viewBox="0 0 24 24" fill="none" xmlns="http://www.w3.org/2000/svg">
<path d="M1.79742 19.8621H12V4.13794H1.79742C0.804703 4.13794 0 4.94264 0 5.93536V18.0647C0 19.0574 0.804703 19.8621 1.79742 19.8621Z" fill="#73AF00"/>
<path d="M22.2026 19.8621C23.1952 19.8621 24 19.0574 24 18.0646V5.93536C24 4.94269 23.1953 4.13794 22.2026 4.13794H12V19.8621H22.2026Z" fill="#F5F5F5"/>
<path d="M13.9974 10.4956L13.28 11.4341L12.1598 11.0592C12.0972 11.0382 12.0439 11.1091 12.0814 11.1634L12.7522 12.1357L12.0494 13.0852C12.0101 13.1383 12.061 13.2108 12.1244 13.192L13.2564 12.8544L13.9423 13.8162C13.9806 13.87 14.0654 13.844 14.0669 13.778L14.0957 12.5971L15.2223 12.242C15.2853 12.2221 15.2868 12.1335 15.2245 12.1116L14.1103 11.7193L14.1207 10.538C14.1213 10.472 14.0375 10.4431 13.9974 10.4956Z" fill="#FF4B55"/>
<path d="M12.7437 14.8421C11.1754 14.8421 9.90312 13.5698 9.90312 12C9.90312 10.433 11.1754 9.15795 12.7437 9.15795C13.3272 9.15795 13.8654 9.33743 14.3138 9.64113C14.3825 9.68763 14.4609 9.59745 14.4034 9.53763C13.7331 8.84079 12.7845 8.41573 11.7328 8.45163C9.9259 8.51327 8.43003 9.96204 8.31462 11.7663C8.18234 13.833 9.81879 15.5504 11.8562 15.5504C12.8598 15.5504 13.7618 15.1309 14.4059 14.46C14.4628 14.4007 14.3842 14.3119 14.3163 14.358C13.8673 14.6624 13.3283 14.8421 12.7437 14.8421Z" fill="#FF4B55"/>
</svg>
