<svg width="24" height="24" viewBox="0 0 24 24" fill="none" xmlns="http://www.w3.org/2000/svg">
<path d="M22.2026 4.13788H1.79742C0.804703 4.13788 0 4.94258 0 5.9353V18.0647C0 19.0573 0.804703 19.8621 1.79742 19.8621H22.2026C23.1952 19.8621 24 19.0574 24 18.0647V5.9353C24 4.94258 23.1953 4.13788 22.2026 4.13788Z" fill="#F5F5F5"/>
<path d="M10.7586 12L0.611813 4.58499C0.236906 4.91443 0 5.39705 0 5.93532V18.0647C0 19.0574 0.804703 19.8621 1.79742 19.8621H10.7586L3.70988 12H10.7586ZM9.55388 19.3241H0.537938V5.19732L9.11081 11.462H3.70988H2.50509L3.30928 12.3591L9.55388 19.3241Z" fill="#41479B"/>
<path d="M3.30928 12.3591L2.505 11.462H3.70978H9.11072L0.537842 5.19733V19.3241H9.55378L3.30928 12.3591Z" fill="#FF4B55"/>
<path d="M3.15688 13.8937L3.4881 14.5772L4.11674 14.1509C4.14445 14.132 4.18171 14.1535 4.17928 14.187L4.12438 14.9446L4.88198 14.8897C4.9154 14.8872 4.93692 14.9245 4.91807 14.9522L4.4917 15.5808L5.17528 15.9122C5.20542 15.9268 5.20542 15.9697 5.17528 15.9843L4.4917 16.3156L4.91807 16.9442C4.93692 16.9719 4.9154 17.0092 4.88198 17.0067L4.12438 16.9518L4.17928 17.7094C4.18171 17.7429 4.14445 17.7644 4.11674 17.7455L3.4881 17.3192L3.15688 18.0027C3.14226 18.0329 3.09932 18.0329 3.0847 18.0027L2.75348 17.3192L2.12484 17.7455C2.09713 17.7644 2.05987 17.7429 2.06231 17.7094L2.1172 16.9518L1.3596 17.0067C1.32618 17.0092 1.30467 16.9719 1.32351 16.9442L1.74988 16.3156L1.06631 15.9843C1.03617 15.9697 1.03617 15.9268 1.06631 15.9122L1.74988 15.5808L1.32351 14.9522C1.30467 14.9245 1.32618 14.8872 1.3596 14.8897L2.1172 14.9446L2.06231 14.187C2.05987 14.1535 2.09713 14.132 2.12484 14.1509L2.75348 14.5772L3.0847 13.8937C3.09928 13.8635 3.14226 13.8635 3.15688 13.8937Z" fill="#F5F5F5"/>
<path d="M4.01698 9.94037L3.7294 9.74392L3.98257 9.47856L3.62178 9.4127L3.74515 9.06737L3.38876 9.15395L3.36106 8.78832L3.07071 9.01239L2.89662 8.68961L2.72253 9.01239L2.43218 8.78832L2.40448 9.15395L2.04809 9.06737L2.17146 9.4127L1.81067 9.47856L2.06384 9.74392L1.77626 9.94037C1.4134 9.77096 1.09437 9.52342 0.843262 9.21723C1.01192 10.1998 1.86584 10.9483 2.89657 10.9483C3.92731 10.9483 4.78123 10.1998 4.94989 9.21723C4.69887 9.52346 4.37979 9.77096 4.01698 9.94037Z" fill="#F5F5F5"/>
</svg>
