<svg width="24" height="24" viewBox="0 0 24 24" fill="none" xmlns="http://www.w3.org/2000/svg">
<path d="M24 9.51697H0V14.4829H24V9.51697Z" fill="#FF4B55"/>
<path d="M22.2024 4.13702H1.79494C0.834703 4.13702 0.0504844 4.88993 0 5.83751V6.82699H24V5.93463C24 4.94187 23.1952 4.13702 22.2024 4.13702Z" fill="#41479B"/>
<path d="M24 6.82684H0V9.517H24V6.82684Z" fill="#F5F5F5"/>
<path d="M0 18.1625C0.0504844 19.11 0.834703 19.8629 1.79494 19.8629H22.2024C23.1952 19.8629 24 19.0581 24 18.0653V17.173H0V18.1625Z" fill="#41479B"/>
<path d="M24 14.4829H0V17.1731H24V14.4829Z" fill="#F5F5F5"/>
<path d="M6.48794 14.069C7.55713 14.069 8.42388 13.1427 8.42388 12C8.42388 10.8573 7.55713 9.93091 6.48794 9.93091C5.41875 9.93091 4.552 10.8573 4.552 12C4.552 13.1427 5.41875 14.069 6.48794 14.069Z" fill="#F5F5F5"/>
<path d="M7.48927 11.1989H5.48682V12.2001H7.48927V11.1989Z" fill="#3CC8FF"/>
<path d="M5.75383 11.7684L5.7767 11.9893L5.86666 11.7863L5.82016 12.0034L5.96847 11.8381L5.85709 12.0303L6.04919 11.9189L5.88395 12.0672L6.10108 12.0207L5.89811 12.1107L6.11898 12.1335L5.89811 12.1564L6.10108 12.2464L5.88395 12.1998L6.04919 12.3482L5.85709 12.2368L5.96847 12.4289L5.82016 12.2637L5.86666 12.4808L5.7767 12.2778L5.75383 12.4986L5.73095 12.2778L5.641 12.4808L5.6875 12.2637L5.53919 12.4289L5.65052 12.2368L5.45837 12.3482L5.62366 12.1998L5.40658 12.2464L5.60955 12.1564L5.38867 12.1335L5.60955 12.1107L5.40658 12.0207L5.62366 12.0672L5.45837 11.9189L5.65052 12.0303L5.53919 11.8381L5.6875 12.0034L5.641 11.7863L5.73095 11.9893L5.75383 11.7684Z" fill="#FFE15A"/>
<path d="M6.88847 13.602H6.08752L5.35327 13.0012V12.1335H7.68943V13.0012L6.88847 13.602Z" fill="#41479B"/>
<path d="M7.28883 11.8665H7.28878C7.2886 11.8482 7.27378 11.8335 7.25546 11.8335C7.23713 11.8335 7.22241 11.8483 7.22213 11.8665H7.22208C7.22208 11.9824 7.15495 12.1426 7.07264 12.2573C6.9577 12.1121 6.91444 11.9439 6.89817 11.8379C6.89039 11.7874 6.83578 11.7593 6.78999 11.7821C6.76795 11.7932 6.7531 11.8147 6.74935 11.839C6.69825 12.1663 6.54394 12.3055 6.444 12.3626C6.29438 12.218 6.24511 11.9839 6.22885 11.8456C6.22252 11.7918 6.16496 11.7609 6.11649 11.7851C6.09783 11.7944 6.084 11.8113 6.07749 11.8311C5.86814 12.4693 5.28638 12.5339 5.28638 12.5339V12.7342H7.62253V12.6674V12.6007V12.5339V12.4672V12.4004C7.35558 12.3338 7.28883 11.8665 7.28883 11.8665Z" fill="#73AF00"/>
<path d="M7.62268 11.2658C7.35568 11.1323 7.35568 10.9988 7.35568 10.9988C7.35568 10.9988 7.02193 10.8653 6.75493 10.8653C6.75493 10.8653 6.82168 10.7318 6.68818 10.7318C6.55468 10.7318 6.48793 10.7318 6.48793 10.7318C6.48793 10.7318 6.42118 10.7318 6.28768 10.7318C6.15418 10.7318 6.22093 10.8653 6.22093 10.8653C5.95393 10.8653 5.62018 10.9988 5.62018 10.9988C5.62018 10.9988 5.62018 11.1323 5.35318 11.2658C5.08618 11.3993 5.08618 11.6996 5.08618 11.6996C5.08618 11.7549 5.13104 11.7997 5.18626 11.7997C5.24157 11.7997 5.28634 11.7548 5.28634 11.6996C5.28634 11.6882 5.28399 11.6775 5.28048 11.6672L5.28634 11.6663L5.95379 11.199H6.48779H7.02179L7.68924 11.6663L7.6951 11.6672C7.69159 11.6774 7.68924 11.6882 7.68924 11.6996C7.68924 11.7549 7.7341 11.7997 7.78932 11.7997C7.84454 11.7997 7.8894 11.7548 7.8894 11.6996C7.88964 11.6997 7.88964 11.3993 7.62268 11.2658Z" fill="#F0AA00"/>
<path d="M7.82284 12.0668C7.75609 12.0668 7.55584 12.0668 7.55584 11.8665C7.55584 11.6663 7.82284 11.6663 7.82284 11.6663L7.42234 11.5328C7.28884 12 7.55584 12 7.55584 12.6007C7.55584 13.1389 6.95509 13.4684 6.75484 13.4684C6.55459 13.4684 6.48784 13.6019 6.48784 13.6019C6.48784 13.6019 6.42109 13.4684 6.22084 13.4684C6.02059 13.4684 5.41984 13.1389 5.41984 12.6007C5.41984 12 5.68684 12 5.55334 11.5328L5.15284 11.6663C5.15284 11.6663 5.41984 11.6663 5.41984 11.8665C5.41984 12.0668 5.21959 12.0668 5.15284 12.0668C5.08609 12.0668 4.81909 12.0668 4.81909 12.4005C4.81909 12.7343 5.15284 13.1348 5.62009 13.4018C6.08734 13.6688 5.88709 13.9358 6.4878 13.9358C7.0885 13.9358 6.8883 13.6688 7.3555 13.4018C7.8227 13.1348 8.1565 12.7343 8.1565 12.4005C8.15659 12.0668 7.88955 12.0668 7.82284 12.0668Z" fill="#F0AA00"/>
<path d="M6.35442 11.022L6.19298 10.9494C6.16617 10.9374 6.13645 10.9345 6.10786 10.9412C6.0038 10.9652 5.74561 11.0444 5.55347 11.2658L5.75372 11.3325L6.35442 11.022Z" fill="#73AF00"/>
<path d="M6.62134 11.022L6.78278 10.9494C6.80959 10.9374 6.83931 10.9345 6.8679 10.9412C6.97196 10.9652 7.23015 11.0444 7.42229 11.2658L7.22204 11.3325L6.62134 11.022Z" fill="#73AF00"/>
<path d="M6.51142 11.0655L6.63316 10.9437C6.63967 10.9372 6.63967 10.9267 6.63316 10.9202C6.62664 10.9137 6.6161 10.9137 6.60958 10.9202L6.48785 11.0419L6.36611 10.9202C6.3596 10.9137 6.34905 10.9137 6.34253 10.9202C6.33602 10.9267 6.33602 10.9372 6.34253 10.9437L6.46427 11.0655L6.34253 11.1872C6.33602 11.1937 6.33602 11.2043 6.34253 11.2108C6.34581 11.2141 6.35008 11.2157 6.35435 11.2157C6.35861 11.2157 6.36288 11.2141 6.36616 11.2108L6.48789 11.0891L6.60963 11.2108C6.61291 11.2141 6.61717 11.2157 6.62144 11.2157C6.62575 11.2157 6.62997 11.2141 6.63325 11.2108C6.63977 11.2043 6.63977 11.1937 6.63325 11.1872L6.51142 11.0655Z" fill="#73AF00"/>
<path d="M7.82283 11.6663C7.82283 11.5527 7.71554 11.5036 7.62258 11.4823V11.4294C7.49691 11.4176 7.42683 11.3705 7.30496 11.2875C7.25804 11.2554 7.20479 11.2192 7.14057 11.1802C6.90586 11.0376 6.72549 11.017 6.62133 11.022V11.1323H6.35433V11.022C6.25022 11.017 6.0698 11.0376 5.8351 11.1802C5.77083 11.2192 5.71763 11.2554 5.67071 11.2875C5.54888 11.3704 5.4788 11.4177 5.35308 11.4294V11.4823C5.26013 11.5036 5.15283 11.5527 5.15283 11.6663L5.35308 11.5995V11.6299C5.5425 11.616 5.65083 11.5433 5.78344 11.453C5.82839 11.4224 5.8793 11.3876 5.93907 11.3514C6.0915 11.2587 6.20996 11.2301 6.28758 11.2233V11.3326H6.68808V11.2233C6.76566 11.2301 6.88416 11.2588 7.0366 11.3514C7.09636 11.3877 7.14732 11.4224 7.19222 11.453C7.32479 11.5433 7.43311 11.616 7.62258 11.6299V11.5995L7.82283 11.6663Z" fill="#F5F5F5"/>
<path d="M7.2889 10.6141V10.5315H7.10299C7.13548 10.5036 7.15545 10.4708 7.15545 10.4314C7.15545 10.247 6.73587 10.1978 6.48799 10.1978C6.24012 10.1978 5.82054 10.247 5.82054 10.4314C5.82054 10.4708 5.84051 10.5037 5.87299 10.5315H5.68709V10.6141C5.52368 10.6506 5.39009 10.7383 5.38306 10.743L5.45707 10.854C5.4589 10.8528 5.64256 10.7317 5.82054 10.7317V10.665H7.15549V10.7317C7.33348 10.7317 7.51713 10.8528 7.51896 10.854L7.59298 10.743C7.5859 10.7383 7.45231 10.6505 7.2889 10.6141ZM6.75495 10.513V10.4624C6.75495 10.4297 6.7242 10.4058 6.69256 10.4136L6.48795 10.4648L6.28334 10.4136C6.25165 10.4057 6.22095 10.4297 6.22095 10.4624V10.513C6.07099 10.491 5.98231 10.4543 5.95817 10.4314C5.99426 10.3971 6.17112 10.3314 6.48795 10.3314C6.80473 10.3314 6.98159 10.3972 7.01773 10.4314C6.99354 10.4543 6.90485 10.491 6.75495 10.513Z" fill="#3CC8FF"/>
<path d="M6.49623 11.3577L6.51315 11.4084L6.56659 11.4088C6.57353 11.4088 6.57639 11.4177 6.57081 11.4218L6.52782 11.4536L6.54395 11.5045C6.54601 11.5111 6.53851 11.5166 6.53289 11.5125L6.48939 11.4815L6.44589 11.5125C6.44026 11.5166 6.43276 11.5111 6.43482 11.5045L6.45095 11.4536L6.40797 11.4218C6.40239 11.4177 6.40529 11.4088 6.41218 11.4088L6.46562 11.4084L6.48254 11.3577C6.48475 11.3511 6.49398 11.3511 6.49623 11.3577Z" fill="#F5F5F5"/>
<path d="M6.23465 11.3748L6.25678 11.4234L6.31003 11.4183C6.31692 11.4176 6.32067 11.4261 6.3156 11.4308L6.27618 11.4669L6.29756 11.5158C6.30037 11.5222 6.29343 11.5284 6.28743 11.525L6.24093 11.4986L6.20095 11.5341C6.19579 11.5387 6.18768 11.5341 6.18909 11.5273L6.19978 11.4749L6.1537 11.4478C6.14774 11.4443 6.14967 11.4353 6.15656 11.4345L6.20967 11.4285L6.22115 11.3762C6.22251 11.3695 6.23179 11.3686 6.23465 11.3748Z" fill="#F5F5F5"/>
<path d="M5.96596 11.4464L5.99811 11.4891L6.04892 11.4725C6.05549 11.4704 6.06102 11.4779 6.05703 11.4835L6.02638 11.5273L6.05788 11.5704C6.06196 11.576 6.05656 11.5836 6.04996 11.5816L5.99886 11.5659L5.9675 11.6092C5.96347 11.6148 5.95456 11.612 5.95447 11.6051L5.95353 11.5517L5.90267 11.5352C5.89611 11.5331 5.89602 11.5238 5.90258 11.5216L5.95311 11.5042L5.95302 11.4508C5.95297 11.4438 5.96178 11.4408 5.96596 11.4464Z" fill="#F5F5F5"/>
<path d="M5.69662 11.5599L5.73412 11.598L5.78226 11.5748C5.78854 11.5718 5.79496 11.5785 5.79177 11.5847L5.76716 11.6321L5.8041 11.6707C5.80888 11.6758 5.80457 11.6839 5.79772 11.6828L5.74494 11.6741L5.71958 11.7211C5.7163 11.7272 5.70716 11.7256 5.70613 11.7188L5.69816 11.6659L5.64557 11.6564C5.63873 11.6551 5.63746 11.6459 5.64365 11.6428L5.69146 11.6189L5.68433 11.5659C5.6834 11.5591 5.69174 11.555 5.69662 11.5599Z" fill="#F5F5F5"/>
<path d="M6.74418 11.3748L6.72206 11.4234L6.66881 11.4183C6.66191 11.4176 6.65816 11.4261 6.66323 11.4308L6.70265 11.4669L6.68127 11.5158C6.67846 11.5222 6.6854 11.5284 6.6914 11.525L6.7379 11.4986L6.77788 11.5341C6.78304 11.5387 6.79115 11.5341 6.78974 11.5273L6.77906 11.4749L6.82513 11.4478C6.83109 11.4443 6.82917 11.4353 6.82227 11.4345L6.76916 11.4285L6.75768 11.3762C6.75627 11.3695 6.74704 11.3686 6.74418 11.3748Z" fill="#F5F5F5"/>
<path d="M7.01301 11.4464L6.98086 11.4891L6.93004 11.4725C6.92348 11.4704 6.91795 11.4779 6.92194 11.4835L6.95259 11.5273L6.92109 11.5704C6.91701 11.576 6.9224 11.5836 6.92901 11.5816L6.98011 11.5659L7.01147 11.6092C7.0155 11.6148 7.0244 11.612 7.0245 11.6051L7.02544 11.5517L7.0763 11.5352C7.08286 11.5331 7.08295 11.5238 7.07639 11.5216L7.02586 11.5042L7.02595 11.4508C7.026 11.4438 7.01714 11.4408 7.01301 11.4464Z" fill="#F5F5F5"/>
<path d="M7.28236 11.5599L7.24486 11.598L7.19672 11.5748C7.19044 11.5718 7.18402 11.5785 7.18721 11.5847L7.21182 11.6321L7.17488 11.6707C7.1701 11.6758 7.17441 11.6839 7.18125 11.6828L7.23403 11.6741L7.25939 11.7211C7.26267 11.7272 7.27181 11.7256 7.27285 11.7188L7.28082 11.6659L7.33341 11.6564C7.34025 11.6551 7.34152 11.6459 7.33533 11.6428L7.28752 11.6189L7.29464 11.5659C7.29558 11.5591 7.28724 11.555 7.28236 11.5599Z" fill="#F5F5F5"/>
<path d="M6.02686 12.9595L6.36689 13.1869H6.77775L6.96764 13.0242L6.82157 13.0826H6.33764L6.02686 12.9595Z" fill="#8C5A28"/>
<path d="M6.25857 12.6661L6.22576 12.9971L6.07642 12.9401C6.07637 12.94 6.14509 12.7805 6.25857 12.6661Z" fill="#F5F5F5"/>
<path d="M6.57506 12.5353H6.55298V13.0987H6.57506V12.5353Z" fill="#8C5A28"/>
<path d="M6.7794 12.5826H6.75732V13.0987H6.7794V12.5826Z" fill="#8C5A28"/>
<path d="M6.37169 12.5826H6.34961V13.0987H6.37169V12.5826Z" fill="#8C5A28"/>
<path d="M6.63194 13.045H6.49709C6.48307 13.045 6.47168 13.0336 6.47168 13.0196V12.9515C6.47168 12.9375 6.48307 12.9261 6.49709 12.9261H6.63194C6.64596 12.9261 6.65735 12.9375 6.65735 12.9515V13.0196C6.65735 13.0337 6.64596 13.045 6.63194 13.045Z" fill="#F5F5F5"/>
<path d="M6.63194 12.8865H6.49709C6.48307 12.8865 6.47168 12.8751 6.47168 12.8611V12.793C6.47168 12.779 6.48307 12.7676 6.49709 12.7676H6.63194C6.64596 12.7676 6.65735 12.779 6.65735 12.793V12.8611C6.65735 12.8751 6.64596 12.8865 6.63194 12.8865Z" fill="#F5F5F5"/>
<path d="M6.63194 12.7406H6.49709C6.48307 12.7406 6.47168 12.7292 6.47168 12.7152V12.6471C6.47168 12.633 6.48307 12.6216 6.49709 12.6216H6.63194C6.64596 12.6216 6.65735 12.633 6.65735 12.6471V12.7152C6.65735 12.7292 6.64596 12.7406 6.63194 12.7406Z" fill="#F5F5F5"/>
<path d="M6.82371 13.045H6.71388C6.69987 13.045 6.68848 13.0336 6.68848 13.0196V12.9515C6.68848 12.9375 6.69987 12.9261 6.71388 12.9261H6.82371C6.83773 12.9261 6.84912 12.9375 6.84912 12.9515V13.0196C6.84912 13.0337 6.83773 13.045 6.82371 13.045Z" fill="#F5F5F5"/>
<path d="M6.82371 12.8991H6.71388C6.69987 12.8991 6.68848 12.8877 6.68848 12.8737V12.8242C6.68848 12.8102 6.69987 12.7988 6.71388 12.7988H6.82371C6.83773 12.7988 6.84912 12.8102 6.84912 12.8242V12.8737C6.84912 12.8877 6.83773 12.8991 6.82371 12.8991Z" fill="#F5F5F5"/>
<path d="M6.82371 12.7544H6.71388C6.69987 12.7544 6.68848 12.743 6.68848 12.729V12.6956C6.68848 12.6816 6.69987 12.6702 6.71388 12.6702H6.82371C6.83773 12.6702 6.84912 12.6816 6.84912 12.6956V12.729C6.84912 12.7431 6.83773 12.7544 6.82371 12.7544Z" fill="#F5F5F5"/>
<path d="M6.41575 13.045H6.30592C6.29191 13.045 6.28052 13.0336 6.28052 13.0196V12.9515C6.28052 12.9375 6.29191 12.9261 6.30592 12.9261H6.41575C6.42977 12.9261 6.44116 12.9375 6.44116 12.9515V13.0196C6.44116 13.0337 6.42977 13.045 6.41575 13.045Z" fill="#F5F5F5"/>
<path d="M6.41575 12.8991H6.30592C6.29191 12.8991 6.28052 12.8877 6.28052 12.8737V12.8242C6.28052 12.8102 6.29191 12.7988 6.30592 12.7988H6.41575C6.42977 12.7988 6.44116 12.8102 6.44116 12.8242V12.8737C6.44116 12.8877 6.42977 12.8991 6.41575 12.8991Z" fill="#F5F5F5"/>
<path d="M6.41575 12.7544H6.30592C6.29191 12.7544 6.28052 12.743 6.28052 12.729V12.6956C6.28052 12.6816 6.29191 12.6702 6.30592 12.6702H6.41575C6.42977 12.6702 6.44116 12.6816 6.44116 12.6956V12.729C6.44116 12.7431 6.42977 12.7544 6.41575 12.7544Z" fill="#F5F5F5"/>
<path d="M6.37183 12.5828V12.6494L6.46998 12.6154L6.37183 12.5828Z" fill="#F5F5F5"/>
<path d="M6.7793 12.5828V12.6494L6.87745 12.6154L6.7793 12.5828Z" fill="#F5F5F5"/>
<path d="M6.5752 12.5349V12.6015L6.6733 12.5675L6.5752 12.5349Z" fill="#F5F5F5"/>
<path d="M6.31445 12.0844L6.43253 12.1634H6.57531L6.64127 12.1069L6.5905 12.1272H6.42241L6.31445 12.0844Z" fill="#8C5A28"/>
<path d="M6.39482 11.9825L6.38343 12.0975L6.33154 12.0776C6.3315 12.0777 6.3554 12.0223 6.39482 11.9825Z" fill="#F5F5F5"/>
<path d="M6.50495 11.9366H6.49731V12.1324H6.50495V11.9366Z" fill="#8C5A28"/>
<path d="M6.57576 11.9531H6.56812V12.1323H6.57576V11.9531Z" fill="#8C5A28"/>
<path d="M6.43415 11.9531H6.42651V12.1323H6.43415V11.9531Z" fill="#8C5A28"/>
<path d="M6.52448 12.1142H6.47761C6.47273 12.1142 6.46875 12.1102 6.46875 12.1053V12.0817C6.46875 12.0768 6.47269 12.0728 6.47761 12.0728H6.52448C6.52936 12.0728 6.53334 12.0768 6.53334 12.0817V12.1053C6.53334 12.1102 6.52941 12.1142 6.52448 12.1142Z" fill="#F5F5F5"/>
<path d="M6.52448 12.059H6.47761C6.47273 12.059 6.46875 12.0551 6.46875 12.0502V12.0266C6.46875 12.0217 6.47269 12.0177 6.47761 12.0177H6.52448C6.52936 12.0177 6.53334 12.0216 6.53334 12.0266V12.0502C6.53334 12.0551 6.52941 12.059 6.52448 12.059Z" fill="#F5F5F5"/>
<path d="M6.52448 12.0084H6.47761C6.47273 12.0084 6.46875 12.0044 6.46875 11.9995V11.9759C6.46875 11.971 6.47269 11.967 6.47761 11.967H6.52448C6.52936 11.967 6.53334 11.971 6.53334 11.9759V11.9995C6.53334 12.0044 6.52941 12.0084 6.52448 12.0084Z" fill="#F5F5F5"/>
<path d="M6.59121 12.1142H6.55305C6.54817 12.1142 6.54419 12.1102 6.54419 12.1053V12.0817C6.54419 12.0768 6.54813 12.0728 6.55305 12.0728H6.59121C6.59608 12.0728 6.60006 12.0768 6.60006 12.0817V12.1053C6.59997 12.1102 6.59603 12.1142 6.59121 12.1142Z" fill="#F5F5F5"/>
<path d="M6.59121 12.0634H6.55305C6.54817 12.0634 6.54419 12.0595 6.54419 12.0546V12.0374C6.54419 12.0325 6.54813 12.0286 6.55305 12.0286H6.59121C6.59608 12.0286 6.60006 12.0325 6.60006 12.0374V12.0546C6.59997 12.0595 6.59603 12.0634 6.59121 12.0634Z" fill="#F5F5F5"/>
<path d="M6.59121 12.0131H6.55305C6.54817 12.0131 6.54419 12.0092 6.54419 12.0043V11.9927C6.54419 11.9878 6.54813 11.9838 6.55305 11.9838H6.59121C6.59608 11.9838 6.60006 11.9878 6.60006 11.9927V12.0043C6.59997 12.0092 6.59603 12.0131 6.59121 12.0131Z" fill="#F5F5F5"/>
<path d="M6.44936 12.1142H6.4112C6.40633 12.1142 6.40234 12.1102 6.40234 12.1053V12.0817C6.40234 12.0768 6.40628 12.0728 6.4112 12.0728H6.44936C6.45423 12.0728 6.45822 12.0768 6.45822 12.0817V12.1053C6.45817 12.1102 6.45423 12.1142 6.44936 12.1142Z" fill="#F5F5F5"/>
<path d="M6.44936 12.0634H6.4112C6.40633 12.0634 6.40234 12.0595 6.40234 12.0546V12.0374C6.40234 12.0325 6.40628 12.0286 6.4112 12.0286H6.44936C6.45423 12.0286 6.45822 12.0325 6.45822 12.0374V12.0546C6.45817 12.0595 6.45423 12.0634 6.44936 12.0634Z" fill="#F5F5F5"/>
<path d="M6.44936 12.0131H6.4112C6.40633 12.0131 6.40234 12.0092 6.40234 12.0043V11.9927C6.40234 11.9878 6.40628 11.9838 6.4112 11.9838H6.44936C6.45423 11.9838 6.45822 11.9878 6.45822 11.9927V12.0043C6.45817 12.0092 6.45423 12.0131 6.44936 12.0131Z" fill="#F5F5F5"/>
<path d="M6.43408 11.9536V11.9767L6.46821 11.9649L6.43408 11.9536Z" fill="#F5F5F5"/>
<path d="M6.57568 11.9536V11.9767L6.60976 11.9649L6.57568 11.9536Z" fill="#F5F5F5"/>
<path d="M6.50488 11.9369V11.96L6.53896 11.9482L6.50488 11.9369Z" fill="#F5F5F5"/>
<path d="M6.23084 11.7331H6.14421C6.11295 11.7331 6.0874 11.7075 6.0874 11.6763C6.0874 11.645 6.11295 11.6194 6.14421 11.6194H6.23084C6.26211 11.6194 6.28765 11.645 6.28765 11.6763C6.2877 11.7075 6.26211 11.7331 6.23084 11.7331Z" fill="#F5F5F5"/>
<path d="M6.88983 11.7331H6.83269C6.80133 11.7331 6.77588 11.7076 6.77588 11.6763C6.77588 11.6449 6.80133 11.6194 6.83269 11.6194H6.88983C6.92119 11.6194 6.94664 11.6449 6.94664 11.6763C6.94664 11.7076 6.92119 11.7331 6.88983 11.7331Z" fill="#F5F5F5"/>
<path d="M7.29548 11.8186H7.24513C7.22718 11.8186 7.21265 11.8041 7.21265 11.7861V11.7807C7.21265 11.7628 7.22718 11.7482 7.24513 11.7482H7.29548C7.31343 11.7482 7.32796 11.7628 7.32796 11.7807V11.7861C7.32796 11.8041 7.31343 11.8186 7.29548 11.8186Z" fill="#F5F5F5"/>
</svg>
