<svg width="24" height="24" viewBox="0 0 24 24" fill="none" xmlns="http://www.w3.org/2000/svg">
<path d="M22.2026 19.8621H1.79742C0.804703 19.8621 0 19.0574 0 18.0646V5.93536C0 4.94269 0.804703 4.13794 1.79742 4.13794H22.2026C23.1952 4.13794 24 4.94264 24 5.93536V18.0647C24 19.0574 23.1953 19.8621 22.2026 19.8621Z" fill="#4173CD"/>
<path d="M12 18C8.69166 18 6 15.3083 6 12C6 8.69166 8.69166 6 12 6C15.3083 6 18 8.69166 18 12C18 15.3083 15.3083 18 12 18ZM12 7.24139C9.37598 7.24139 7.24139 9.37603 7.24139 12C7.24139 14.624 9.37603 16.7586 12 16.7586C14.624 16.7586 16.7586 14.624 16.7586 12C16.7586 9.37603 14.624 7.24139 12 7.24139Z" fill="#F5F5F5"/>
<path d="M12 17.5861C8.9198 17.5861 6.41382 15.0801 6.41382 11.9999C6.41382 8.91974 8.9198 6.41376 12 6.41376C15.0802 6.41376 17.5862 8.91974 17.5862 11.9999C17.5862 15.0801 15.0802 17.5861 12 17.5861ZM12 6.82752C9.1479 6.82752 6.82758 9.14784 6.82758 11.9999C6.82758 14.8521 9.1479 17.1724 12 17.1724C14.8521 17.1724 17.1724 14.8521 17.1724 11.9999C17.1724 9.14784 14.8521 6.82752 12 6.82752Z" fill="#FFDC00"/>
<path d="M6.6206 12.4138C6.84914 12.4138 7.03441 12.2285 7.03441 12C7.03441 11.7715 6.84914 11.5862 6.6206 11.5862C6.39206 11.5862 6.20679 11.7715 6.20679 12C6.20679 12.2285 6.39206 12.4138 6.6206 12.4138Z" fill="#FFDC00"/>
<path d="M17.3794 12.4138C17.6079 12.4138 17.7932 12.2285 17.7932 12C17.7932 11.7715 17.6079 11.5862 17.3794 11.5862C17.1508 11.5862 16.9656 11.7715 16.9656 12C16.9656 12.2285 17.1508 12.4138 17.3794 12.4138Z" fill="#FFDC00"/>
<path d="M12 7.03441C12.2285 7.03441 12.4138 6.84914 12.4138 6.6206C12.4138 6.39206 12.2285 6.20679 12 6.20679C11.7715 6.20679 11.5862 6.39206 11.5862 6.6206C11.5862 6.84914 11.7715 7.03441 12 7.03441Z" fill="#FFDC00"/>
<path d="M8.19604 8.60985C8.42458 8.60985 8.60985 8.42458 8.60985 8.19604C8.60985 7.9675 8.42458 7.78223 8.19604 7.78223C7.9675 7.78223 7.78223 7.9675 7.78223 8.19604C7.78223 8.42458 7.9675 8.60985 8.19604 8.60985Z" fill="#FFDC00"/>
<path d="M15.8039 8.60985C16.0325 8.60985 16.2178 8.42458 16.2178 8.19604C16.2178 7.9675 16.0325 7.78223 15.8039 7.78223C15.5754 7.78223 15.3901 7.9675 15.3901 8.19604C15.3901 8.42458 15.5754 8.60985 15.8039 8.60985Z" fill="#FFDC00"/>
<path d="M16.9697 10.355C17.1983 10.355 17.3835 10.1698 17.3835 9.94122C17.3835 9.71268 17.1983 9.5274 16.9697 9.5274C16.7412 9.5274 16.5559 9.71268 16.5559 9.94122C16.5559 10.1698 16.7412 10.355 16.9697 10.355Z" fill="#FFDC00"/>
<path d="M9.94116 7.44408C10.1697 7.44408 10.355 7.25881 10.355 7.03027C10.355 6.80173 10.1697 6.61646 9.94116 6.61646C9.71261 6.61646 9.52734 6.80173 9.52734 7.03027C9.52734 7.25881 9.71261 7.44408 9.94116 7.44408Z" fill="#FFDC00"/>
<path d="M7.03027 10.355C7.25881 10.355 7.44408 10.1698 7.44408 9.94122C7.44408 9.71268 7.25881 9.5274 7.03027 9.5274C6.80173 9.5274 6.61646 9.71268 6.61646 9.94122C6.61646 10.1698 6.80173 10.355 7.03027 10.355Z" fill="#FFDC00"/>
<path d="M14.0588 7.44408C14.2874 7.44408 14.4726 7.25881 14.4726 7.03027C14.4726 6.80173 14.2874 6.61646 14.0588 6.61646C13.8303 6.61646 13.645 6.80173 13.645 7.03027C13.645 7.25881 13.8303 7.44408 14.0588 7.44408Z" fill="#FFDC00"/>
<path d="M17.2759 11.3642C17.5044 11.3642 17.6897 11.179 17.6897 10.9504C17.6897 10.7219 17.5044 10.5366 17.2759 10.5366C17.0473 10.5366 16.8621 10.7219 16.8621 10.9504C16.8621 11.179 17.0473 11.3642 17.2759 11.3642Z" fill="#FFDC00"/>
<path d="M10.9504 7.13799C11.179 7.13799 11.3642 6.95272 11.3642 6.72418C11.3642 6.49563 11.179 6.31036 10.9504 6.31036C10.7219 6.31036 10.5366 6.49563 10.5366 6.72418C10.5366 6.95272 10.7219 7.13799 10.9504 7.13799Z" fill="#FFDC00"/>
<path d="M7.52758 9.42504C7.75612 9.42504 7.94139 9.23977 7.94139 9.01122C7.94139 8.78268 7.75612 8.59741 7.52758 8.59741C7.29904 8.59741 7.11377 8.78268 7.11377 9.01122C7.11377 9.23977 7.29904 9.42504 7.52758 9.42504Z" fill="#FFDC00"/>
<path d="M14.9888 7.94146C15.2173 7.94146 15.4026 7.75619 15.4026 7.52764C15.4026 7.2991 15.2173 7.11383 14.9888 7.11383C14.7602 7.11383 14.575 7.2991 14.575 7.52764C14.575 7.75619 14.7602 7.94146 14.9888 7.94146Z" fill="#FFDC00"/>
<path d="M16.4729 9.42504C16.7014 9.42504 16.8867 9.23977 16.8867 9.01122C16.8867 8.78268 16.7014 8.59741 16.4729 8.59741C16.2444 8.59741 16.0591 8.78268 16.0591 9.01122C16.0591 9.23977 16.2444 9.42504 16.4729 9.42504Z" fill="#FFDC00"/>
<path d="M9.01122 7.94146C9.23977 7.94146 9.42504 7.75619 9.42504 7.52764C9.42504 7.2991 9.23977 7.11383 9.01122 7.11383C8.78268 7.11383 8.59741 7.2991 8.59741 7.52764C8.59741 7.75619 8.78268 7.94146 9.01122 7.94146Z" fill="#FFDC00"/>
<path d="M6.72412 11.3642C6.95266 11.3642 7.13793 11.179 7.13793 10.9504C7.13793 10.7219 6.95266 10.5366 6.72412 10.5366C6.49557 10.5366 6.3103 10.7219 6.3103 10.9504C6.3103 11.179 6.49557 11.3642 6.72412 11.3642Z" fill="#FFDC00"/>
<path d="M13.0496 7.13799C13.2781 7.13799 13.4634 6.95272 13.4634 6.72418C13.4634 6.49563 13.2781 6.31036 13.0496 6.31036C12.821 6.31036 12.6357 6.49563 12.6357 6.72418C12.6357 6.95272 12.821 7.13799 13.0496 7.13799Z" fill="#FFDC00"/>
<path d="M17.3794 12.2069C17.265 12.2069 17.1725 12.1144 17.1725 12C17.1725 9.1479 14.8522 6.82758 12.0001 6.82758C9.14794 6.82758 6.82763 9.1479 6.82763 12C6.82763 12.1144 6.7351 12.2069 6.62072 12.2069C6.50635 12.2069 6.41382 12.1144 6.41382 12C6.41382 8.9198 8.9198 6.41382 12 6.41382C15.0802 6.41382 17.5862 8.9198 17.5862 12C17.5862 12.1144 17.4937 12.2069 17.3794 12.2069Z" fill="#FFA000"/>
<path d="M13.1495 18.2069H10.8501C10.3588 18.2069 9.97563 17.7813 10.0271 17.2927L10.7585 10.3448H13.2413L13.9726 17.2927C14.024 17.7813 13.6409 18.2069 13.1495 18.2069Z" fill="#B4B4B4"/>
<path d="M13.2296 10.3448H10.7606C10.6519 10.3448 10.5605 10.2629 10.5488 10.1548L10.3946 8.73436C10.368 8.48958 10.5597 8.27588 10.8059 8.27588H13.194C13.4402 8.27588 13.6319 8.48953 13.6054 8.73436L13.4522 10.1452C13.4398 10.2588 13.3439 10.3448 13.2296 10.3448Z" fill="#AAAAAA"/>
<path d="M12.0959 8.75777L12.8629 10.9646L15.1987 11.0122C15.2949 11.0141 15.3346 11.1363 15.2579 11.1945L13.3962 12.6059L14.0728 14.8421C14.1007 14.9342 13.9967 15.0097 13.9177 14.9547L12 13.6203L10.0823 14.9547C10.0034 15.0097 9.89939 14.9342 9.92723 14.8421L10.6038 12.6059L8.742 11.1945C8.66536 11.1364 8.70506 11.0141 8.8012 11.0122L11.137 10.9646L11.9041 8.75777C11.9358 8.66693 12.0642 8.66693 12.0959 8.75777Z" fill="#F5F5F5"/>
</svg>
