<svg width="24" height="24" viewBox="0 0 24 24" fill="none" xmlns="http://www.w3.org/2000/svg">
<path d="M22.2026 19.8621H1.79742C0.804703 19.8621 0 19.0574 0 18.0647V5.93542C0 4.94275 0.804703 4.138 1.79742 4.138H22.2026C23.1952 4.138 24 4.9427 24 5.93542V18.0647C24 19.0574 23.1953 19.8621 22.2026 19.8621Z" fill="#FFE15A"/>
<path d="M0.413813 12H11.5862C11.8148 12 12 11.8147 12 11.5862V4.55175C12 4.32328 11.8149 4.13803 11.5864 4.13794H1.79742C0.804703 4.13799 0 4.94269 0 5.93541V11.5863C0 11.8148 0.185297 12 0.413813 12Z" fill="#41479B"/>
<path d="M0.413813 12H1.13259L4.96556 9.48873V12H7.03453V9.48873L10.8675 12H11.5862C11.8148 12 12 11.8147 12 11.5862V11.258L8.71158 9.10347H12V7.03455H8.71148L12 4.88003V4.55181C12 4.3233 11.8148 4.13809 11.5863 4.138H10.8674L7.03448 6.64928V4.138H4.96552V6.64928L1.25831 4.22041C0.825469 4.35634 0.463594 4.6518 0.240609 5.03763L3.28856 7.03455H0V9.10352H3.28852L0 11.258V11.5863C0 11.8148 0.185297 12 0.413813 12Z" fill="#F5F5F5"/>
<path d="M12 7.44836H6.62067V4.138H5.37933V7.44836H0V8.6897H5.37933V12H6.62067V8.6897H12V7.44836Z" fill="#FF4B55"/>
<path d="M0.385742 4.82362L3.79177 7.03457H4.5518L0.684805 4.52441C0.573758 4.61207 0.473398 4.71252 0.385742 4.82362Z" fill="#FF4B55"/>
<path d="M7.79446 7.03455L11.937 4.34552C11.865 4.22369 11.738 4.138 11.5861 4.138H11.4966L7.03442 7.03455H7.79446Z" fill="#FF4B55"/>
<path d="M4.19418 9.1035L0.0595703 11.7874C0.130867 11.9122 0.259867 12 0.413898 12H0.491945L4.95426 9.10345H4.19418V9.1035Z" fill="#FF4B55"/>
<path d="M11.9934 11.6187L8.11843 9.10352H7.3584L11.7587 11.9598C11.8906 11.8987 11.981 11.7705 11.9934 11.6187Z" fill="#FF4B55"/>
<path d="M5.99994 9.31048C6.68554 9.31048 7.24133 8.75469 7.24133 8.06909C7.24133 7.38349 6.68554 6.8277 5.99994 6.8277C5.31433 6.8277 4.75854 7.38349 4.75854 8.06909C4.75854 8.75469 5.31433 9.31048 5.99994 9.31048Z" fill="#41479B"/>
<path d="M6.08366 7.06255L6.29109 7.6844L6.94659 7.68946C7.03148 7.69012 7.06663 7.79845 6.99838 7.84884L6.47104 8.23823L6.66876 8.86321C6.69435 8.94412 6.60224 9.01105 6.5332 8.9617L5.99985 8.5806L5.46656 8.96174C5.39751 9.0111 5.3054 8.94416 5.33099 8.86326L5.52871 8.23827L5.00137 7.84888C4.93307 7.79844 4.96827 7.69016 5.05316 7.68951L5.70866 7.68445L5.91609 7.0626C5.9429 6.98207 6.0568 6.98207 6.08366 7.06255Z" fill="#FFE15A"/>
<path d="M2.64845 7.56917L2.75997 7.90353L3.11242 7.90624C3.15803 7.90662 3.17697 7.96484 3.14027 7.99193L2.85677 8.20132L2.96308 8.53732C2.97686 8.58082 2.92727 8.61682 2.89019 8.59029L2.6035 8.38535L2.31681 8.59029C2.27969 8.61682 2.23019 8.58082 2.24392 8.53732L2.35024 8.20132L2.06674 7.99193C2.03003 7.96484 2.04892 7.90657 2.09458 7.90624L2.44703 7.90353L2.55855 7.56917C2.57284 7.52585 2.63402 7.52585 2.64845 7.56917Z" fill="#FFE15A"/>
<path d="M9.47267 7.56917L9.58419 7.90353L9.93664 7.90624C9.98225 7.90662 10.0012 7.96484 9.96449 7.99193L9.68099 8.20132L9.7873 8.53732C9.80108 8.58082 9.75149 8.61682 9.71441 8.59029L9.42772 8.38535L9.14103 8.59029C9.10391 8.61682 9.05441 8.58082 9.06814 8.53732L9.17445 8.20132L8.89095 7.99193C8.85425 7.96484 8.87314 7.90657 8.9188 7.90624L9.27125 7.90353L9.38277 7.56917C9.39702 7.52585 9.45824 7.52585 9.47267 7.56917Z" fill="#FFE15A"/>
<path d="M6.05036 5.05758L6.16187 5.39194L6.51433 5.39465C6.55994 5.39503 6.57887 5.45325 6.54217 5.48034L6.25862 5.68969L6.36493 6.02569C6.37872 6.06919 6.32912 6.10518 6.29204 6.07865L6.00536 5.87372L5.71867 6.07865C5.68154 6.10518 5.63204 6.06919 5.64578 6.02569L5.75209 5.68969L5.46859 5.48029C5.43189 5.4532 5.45078 5.39494 5.49643 5.39461L5.84889 5.39189L5.9604 5.05753C5.97465 5.01426 6.03592 5.01426 6.05036 5.05758Z" fill="#FFE15A"/>
<path d="M6.05036 10.1398L6.16187 10.4742L6.51433 10.4769C6.55994 10.4773 6.57887 10.5355 6.54217 10.5626L6.25862 10.7719L6.36493 11.1079C6.37872 11.1514 6.32912 11.1874 6.29204 11.1609L6.00536 10.956L5.71867 11.1609C5.68154 11.1874 5.63204 11.1514 5.64578 11.1079L5.75209 10.7719L5.46859 10.5625C5.43189 10.5354 5.45078 10.4772 5.49643 10.4768L5.84889 10.4741L5.9604 10.1398C5.97465 10.0966 6.03592 10.0966 6.05036 10.1398Z" fill="#FFE15A"/>
</svg>
