<svg width="24" height="24" viewBox="0 0 24 24" fill="none" xmlns="http://www.w3.org/2000/svg">
<path d="M22.2024 4.13702H1.79494C0.834703 4.13702 0.0504844 4.88988 0 5.83751V18.1625C0.0504844 19.1101 0.834703 19.863 1.79494 19.863H22.2024C23.1952 19.863 24 19.0582 24 18.0654V5.93463C24 4.94182 23.1952 4.13702 22.2024 4.13702Z" fill="#464655"/>
<path d="M0 18.1624C0.0117656 18.3827 0.063375 18.5923 0.147375 18.7845L11.694 12.4138H24V11.5861H11.694L0.147375 5.21533C0.0633281 5.40757 0.0117188 5.6171 0 5.83736V6.07952L10.7308 11.9998L0 17.9203V18.1624Z" fill="#FFE15A"/>
<path d="M24 13.2415H12.0014L0.689697 19.4824C0.994666 19.7206 1.37806 19.8629 1.79496 19.8629H22.2024C23.1952 19.8629 24 19.0581 24 18.0653V13.2415Z" fill="#73AF00"/>
<path d="M22.2024 4.13702H1.79496C1.37806 4.13702 0.994619 4.27934 0.689697 4.51751L12.0014 10.7584H24V5.93463C24 4.94182 23.1952 4.13702 22.2024 4.13702Z" fill="#FF4B55"/>
<path d="M3.584 9.67877C2.40238 9.30705 1.5103 10.1657 1.30644 10.6076C1.13375 10.982 0.813035 12.6782 2.41189 12.9486C4.01071 13.2191 3.99271 11.7104 3.99271 11.7104C3.92061 11.9508 3.79133 12.6361 2.63722 12.6361C2.20433 12.6361 1.58235 11.9929 1.69958 11.2836C1.80988 10.6163 2.40603 10.2748 2.85669 10.2558C3.28339 10.2378 4.27818 10.5323 4.27818 11.7435C4.27818 13.1049 2.87507 13.2582 2.87507 13.2582V14.0803C4.09644 13.9605 4.78761 13.284 4.97061 12.2003C5.15282 11.1214 4.78541 10.0567 3.584 9.67877Z" fill="#FFE15A"/>
<path d="M2.27571 11.6975C2.24782 11.7329 2.23296 11.7769 2.23226 11.822L2.22879 12.0431L2.18576 12.1181C2.17024 12.1452 2.17943 12.1799 2.20643 12.1956C2.23376 12.2116 2.26882 12.2022 2.28453 12.1747L2.32864 12.0975L2.50517 12.0335C2.55865 12.0142 2.60164 11.9739 2.62493 11.9221C2.67106 11.8191 2.77015 11.6299 2.93065 11.4326C3.09115 11.6299 3.19024 11.8191 3.23637 11.9221C3.25962 11.9739 3.3026 12.0141 3.35609 12.0335L3.53271 12.0975L3.57682 12.1747C3.59248 12.2022 3.62764 12.2116 3.65492 12.1956C3.68192 12.1798 3.6911 12.1452 3.67559 12.1181L3.63256 12.0431L3.62909 11.822C3.62839 11.7769 3.61353 11.7329 3.58564 11.6975C3.43774 11.5097 3.28039 11.3619 3.12532 11.2313C3.24921 11.1149 3.38932 11.0037 3.56571 10.9179C3.60654 10.898 3.62787 10.8521 3.61732 10.808C3.60293 10.7477 3.53703 10.7161 3.48087 10.7423C3.3626 10.7974 3.15931 10.9059 2.9306 11.0726C2.70185 10.9059 2.4986 10.7974 2.38034 10.7423C2.32418 10.7162 2.25828 10.7478 2.24389 10.808C2.23339 10.8522 2.25471 10.898 2.29545 10.9179C2.47189 11.0037 2.61199 11.1149 2.73589 11.2313C2.58101 11.3619 2.42365 11.5097 2.27571 11.6975Z" fill="#FFE15A"/>
</svg>
