<svg width="24" height="24" viewBox="0 0 24 24" fill="none" xmlns="http://www.w3.org/2000/svg">
<path d="M22.2026 4.13794H1.79742C0.804703 4.13794 0 4.94264 0 5.93536V8.91375H24V5.93536C24 4.94264 23.1953 4.13794 22.2026 4.13794Z" fill="#82AFFF"/>
<path d="M0 18.0646C0 19.0573 0.804703 19.8621 1.79742 19.8621H22.2026C23.1952 19.8621 24 19.0574 24 18.0646V15.0862H0V18.0646Z" fill="#73AF00"/>
<path d="M24 9.5672H0V14.4324H24V9.5672Z" fill="#F5F5F5"/>
<path d="M0 9.37931V9.56727H24V9.37931V8.9137H0V9.37931Z" fill="#FF4B55"/>
<path d="M0 14.6207V15.0863H24V14.6207V14.4327H0V14.6207Z" fill="#FF4B55"/>
<path d="M5.31993 8.06584C4.47281 8.06584 3.78614 7.38081 3.78614 6.53673C3.78614 5.68956 4.47276 5.00143 5.31993 5.00143C5.32322 5.00143 5.3264 5.00143 5.32959 5.00148C5.37947 5.00213 5.39695 4.9359 5.35298 4.91232C5.09212 4.77249 4.79442 4.69337 4.47792 4.69567C3.46429 4.70289 2.64093 5.54284 2.65172 6.55646C2.66231 7.55963 3.48243 8.37165 4.49118 8.37165C4.80333 8.37165 5.09686 8.29267 5.35448 8.15476C5.39831 8.13128 5.38059 8.06504 5.3309 8.06574C5.32715 8.06584 5.32354 8.06584 5.31993 8.06584Z" fill="#F5F5F5"/>
<path d="M6.52104 7.64298L6.45255 7.84839L6.23604 7.85003C6.208 7.85021 6.19638 7.88603 6.21893 7.90267L6.39311 8.03129L6.32777 8.23773C6.31933 8.26445 6.34975 8.28657 6.37258 8.27026L6.54874 8.14436L6.7249 8.27026C6.74772 8.28657 6.7781 8.26445 6.76971 8.23773L6.70436 8.03129L6.8785 7.90267C6.90105 7.88603 6.88943 7.85021 6.86139 7.85003L6.64488 7.84839L6.5764 7.64298C6.56754 7.6164 6.52994 7.6164 6.52104 7.64298Z" fill="#F5F5F5"/>
<path d="M8.04643 7.64298L7.97794 7.84839L7.76143 7.85003C7.7334 7.85021 7.72177 7.88603 7.74432 7.90267L7.91846 8.03129L7.85311 8.23773C7.84468 8.26445 7.8751 8.28657 7.89793 8.27026L8.07408 8.14436L8.25024 8.27026C8.27307 8.28657 8.30344 8.26445 8.29505 8.23773L8.22971 8.03129L8.40385 7.90267C8.4264 7.88603 8.41477 7.85021 8.38674 7.85003L8.17022 7.84839L8.10174 7.64298C8.09288 7.6164 8.05524 7.6164 8.04643 7.64298Z" fill="#F5F5F5"/>
<path d="M9.57182 7.64298L9.50333 7.84839L9.28682 7.85003C9.25879 7.85021 9.24716 7.88603 9.26971 7.90267L9.44389 8.03129L9.37855 8.23773C9.37011 8.26445 9.40054 8.28657 9.42336 8.27026L9.59952 8.14436L9.77568 8.27026C9.7985 8.28657 9.82888 8.26445 9.82049 8.23773L9.75514 8.03129L9.92929 7.90267C9.95183 7.88603 9.94021 7.85021 9.91218 7.85003L9.69566 7.84839L9.62718 7.64298C9.61832 7.6164 9.58068 7.6164 9.57182 7.64298Z" fill="#F5F5F5"/>
<path d="M11.0972 7.64298L11.0287 7.84839L10.8122 7.85003C10.7842 7.85021 10.7726 7.88603 10.7951 7.90267L10.9692 8.03129L10.9039 8.23773C10.8955 8.26445 10.9259 8.28657 10.9487 8.27026L11.1249 8.14436L11.301 8.27026C11.3238 8.28657 11.3542 8.26445 11.3458 8.23773L11.2805 8.03129L11.4546 7.90267C11.4772 7.88603 11.4656 7.85021 11.4375 7.85003L11.221 7.84839L11.1525 7.64298C11.1437 7.6164 11.1061 7.6164 11.0972 7.64298Z" fill="#F5F5F5"/>
<path d="M12.6226 7.64298L12.5541 7.84839L12.3376 7.85003C12.3096 7.85021 12.2979 7.88603 12.3205 7.90267L12.4947 8.03129L12.4293 8.23773C12.4209 8.26445 12.4513 8.28657 12.4741 8.27026L12.6503 8.14436L12.8265 8.27026C12.8493 8.28657 12.8797 8.26445 12.8713 8.23773L12.8059 8.03129L12.9801 7.90267C13.0027 7.88603 12.991 7.85021 12.963 7.85003L12.7465 7.84839L12.678 7.64298C12.6691 7.6164 12.6315 7.6164 12.6226 7.64298Z" fill="#F5F5F5"/>
<path d="M8.04643 6.21928L7.97794 6.42469L7.76143 6.42633C7.7334 6.42652 7.72177 6.46233 7.74432 6.47897L7.91846 6.6076L7.85311 6.81403C7.84468 6.84075 7.8751 6.86288 7.89793 6.84657L8.07408 6.72066L8.25024 6.84657C8.27307 6.86288 8.30344 6.84075 8.29505 6.81403L8.22971 6.6076L8.40385 6.47897C8.4264 6.46233 8.41477 6.42652 8.38674 6.42633L8.17022 6.42469L8.10174 6.21928C8.09288 6.19261 8.05524 6.19261 8.04643 6.21928Z" fill="#F5F5F5"/>
<path d="M9.57182 6.21928L9.50333 6.42469L9.28682 6.42633C9.25879 6.42652 9.24716 6.46233 9.26971 6.47897L9.44389 6.6076L9.37855 6.81403C9.37011 6.84075 9.40054 6.86288 9.42336 6.84657L9.59952 6.72066L9.77568 6.84657C9.7985 6.86288 9.82888 6.84075 9.82049 6.81403L9.75514 6.6076L9.92929 6.47897C9.95183 6.46233 9.94021 6.42652 9.91218 6.42633L9.69566 6.42469L9.62718 6.21928C9.61832 6.19261 9.58068 6.19261 9.57182 6.21928Z" fill="#F5F5F5"/>
<path d="M11.0972 6.21928L11.0287 6.42469L10.8122 6.42633C10.7842 6.42652 10.7726 6.46233 10.7951 6.47897L10.9692 6.6076L10.9039 6.81403C10.8955 6.84075 10.9259 6.86288 10.9487 6.84657L11.1249 6.72066L11.301 6.84657C11.3238 6.86288 11.3542 6.84075 11.3458 6.81403L11.2805 6.6076L11.4546 6.47897C11.4772 6.46233 11.4656 6.42652 11.4375 6.42633L11.221 6.42469L11.1525 6.21928C11.1437 6.19261 11.1061 6.19261 11.0972 6.21928Z" fill="#F5F5F5"/>
<path d="M12.6226 6.21928L12.5541 6.42469L12.3376 6.42633C12.3096 6.42652 12.2979 6.46233 12.3205 6.47897L12.4947 6.6076L12.4293 6.81403C12.4209 6.84075 12.4513 6.86288 12.4741 6.84657L12.6503 6.72066L12.8265 6.84657C12.8493 6.86288 12.8797 6.84075 12.8713 6.81403L12.8059 6.6076L12.9801 6.47897C13.0027 6.46233 12.991 6.42652 12.963 6.42633L12.7465 6.42469L12.678 6.21928C12.6691 6.19261 12.6315 6.19261 12.6226 6.21928Z" fill="#F5F5F5"/>
<path d="M9.57182 7.64298L9.50333 7.84839L9.28682 7.85003C9.25879 7.85021 9.24716 7.88603 9.26971 7.90267L9.44389 8.03129L9.37855 8.23773C9.37011 8.26445 9.40054 8.28657 9.42336 8.27026L9.59952 8.14436L9.77568 8.27026C9.7985 8.28657 9.82888 8.26445 9.82049 8.23773L9.75514 8.03129L9.92929 7.90267C9.95183 7.88603 9.94021 7.85021 9.91218 7.85003L9.69566 7.84839L9.62718 7.64298C9.61832 7.6164 9.58068 7.6164 9.57182 7.64298Z" fill="#F5F5F5"/>
<path d="M9.57182 4.79551L9.50333 5.00091L9.28682 5.00255C9.25879 5.00274 9.24716 5.03855 9.26971 5.05519L9.44389 5.18382L9.37855 5.39026C9.37011 5.41698 9.40054 5.4391 9.42336 5.42279L9.59952 5.29688L9.77568 5.42279C9.7985 5.4391 9.82888 5.41698 9.82049 5.39026L9.75514 5.18382L9.92929 5.05519C9.95183 5.03855 9.94021 5.00274 9.91218 5.00255L9.69566 5.00091L9.62718 4.79551C9.61832 4.76893 9.58068 4.76893 9.57182 4.79551Z" fill="#F5F5F5"/>
<path d="M11.0972 7.64298L11.0287 7.84839L10.8122 7.85003C10.7842 7.85021 10.7726 7.88603 10.7951 7.90267L10.9692 8.03129L10.9039 8.23773C10.8955 8.26445 10.9259 8.28657 10.9487 8.27026L11.1249 8.14436L11.301 8.27026C11.3238 8.28657 11.3542 8.26445 11.3458 8.23773L11.2805 8.03129L11.4546 7.90267C11.4772 7.88603 11.4656 7.85021 11.4375 7.85003L11.221 7.84839L11.1525 7.64298C11.1437 7.6164 11.1061 7.6164 11.0972 7.64298Z" fill="#F5F5F5"/>
<path d="M12.6226 7.64298L12.5541 7.84839L12.3376 7.85003C12.3096 7.85021 12.2979 7.88603 12.3205 7.90267L12.4947 8.03129L12.4293 8.23773C12.4209 8.26445 12.4513 8.28657 12.4741 8.27026L12.6503 8.14436L12.8265 8.27026C12.8493 8.28657 12.8797 8.26445 12.8713 8.23773L12.8059 8.03129L12.9801 7.90267C13.0027 7.88603 12.991 7.85021 12.963 7.85003L12.7465 7.84839L12.678 7.64298C12.6691 7.6164 12.6315 7.6164 12.6226 7.64298Z" fill="#F5F5F5"/>
<path d="M11.0972 4.79551L11.0287 5.00091L10.8122 5.00255C10.7842 5.00274 10.7726 5.03855 10.7951 5.05519L10.9692 5.18382L10.9039 5.39026C10.8955 5.41698 10.9259 5.4391 10.9487 5.42279L11.1249 5.29688L11.301 5.42279C11.3238 5.4391 11.3542 5.41698 11.3458 5.39026L11.2805 5.18382L11.4546 5.05519C11.4772 5.03855 11.4656 5.00274 11.4375 5.00255L11.221 5.00091L11.1525 4.79551C11.1437 4.76893 11.1061 4.76893 11.0972 4.79551Z" fill="#F5F5F5"/>
<path d="M12.6226 4.79551L12.5541 5.00091L12.3376 5.00255C12.3096 5.00274 12.2979 5.03855 12.3205 5.05519L12.4947 5.18382L12.4293 5.39026C12.4209 5.41698 12.4513 5.4391 12.4741 5.42279L12.6503 5.29688L12.8265 5.42279C12.8493 5.4391 12.8797 5.41698 12.8713 5.39026L12.8059 5.18382L12.9801 5.05519C13.0027 5.03855 12.991 5.00274 12.963 5.00255L12.7465 5.00091L12.678 4.79551C12.6691 4.76893 12.6315 4.76893 12.6226 4.79551Z" fill="#F5F5F5"/>
</svg>
