<svg width="24" height="24" viewBox="0 0 24 24" fill="none" xmlns="http://www.w3.org/2000/svg">
<path d="M0.642187 4.55865C0.249656 4.88842 0 5.38262 0 5.93537V18.0647C0 18.6174 0.249656 19.1117 0.642187 19.4414L12 12L0.642187 4.55865Z" fill="#F5F5F5"/>
<path d="M0.64209 19.4414C0.954512 19.7038 1.35731 19.8621 1.79728 19.8621H22.2024C23.1951 19.8621 23.9999 19.0574 23.9999 18.0646V12H11.9999L0.64209 19.4414Z" fill="#FF4B55"/>
<path d="M22.2027 4.13794H1.79752C1.35755 4.13794 0.954709 4.29628 0.642334 4.55864L12.0001 12H24.0001V5.93536C24.0001 4.94264 23.1954 4.13794 22.2027 4.13794Z" fill="#41479B"/>
<path d="M4.34484 13.3448C5.08758 13.3448 5.68969 12.7427 5.68969 12C5.68969 11.2573 5.08758 10.6552 4.34484 10.6552C3.60211 10.6552 3 11.2573 3 12C3 12.7427 3.60211 13.3448 4.34484 13.3448Z" fill="#FFE15A"/>
<path d="M4.3449 12L3.84058 9.98279L4.3449 9.31036L4.84919 9.98279L4.3449 12Z" fill="#FFE15A"/>
<path d="M4.3449 12L4.84919 14.0172L4.3449 14.6896L3.84058 14.0172L4.3449 12Z" fill="#FFE15A"/>
<path d="M4.34472 12L2.32745 12.5043L1.65503 12L2.32745 11.4957L4.34472 12Z" fill="#FFE15A"/>
<path d="M4.34473 12L6.36195 11.4957L7.03437 12L6.36195 12.5043L4.34473 12Z" fill="#FFE15A"/>
<path d="M4.34473 12L5.41451 10.217L6.24659 10.0981L6.12771 10.9302L4.34473 12Z" fill="#FFE15A"/>
<path d="M4.34478 12L3.27495 13.783L2.44287 13.9019L2.56175 13.0698L4.34478 12Z" fill="#FFE15A"/>
<path d="M4.34478 12L2.56175 10.9302L2.44287 10.0981L3.27495 10.217L4.34478 12Z" fill="#FFE15A"/>
<path d="M4.34473 12L6.12771 13.0698L6.24659 13.9019L5.41451 13.783L4.34473 12Z" fill="#FFE15A"/>
<path d="M1.10906 6.17317L1.17918 6.69629L0.70687 6.93198C0.645745 6.96249 0.658589 7.05329 0.725854 7.06557L1.24504 7.16054L1.32323 7.68254C1.33335 7.75013 1.42368 7.76593 1.45617 7.70574L1.70695 7.24131L2.22754 7.32821C2.29495 7.33951 2.33789 7.25842 2.29073 7.20901L1.92651 6.82698L2.17003 6.3587C2.20153 6.29809 2.13773 6.23218 2.07614 6.26176L1.60026 6.49013L1.23018 6.11377C1.18237 6.06512 1.10001 6.10548 1.10906 6.17317Z" fill="#FFE15A"/>
<path d="M1.31726 16.355L1.22871 16.8753L0.707699 16.9599C0.640246 16.9709 0.625574 17.0614 0.686089 17.0931L1.15357 17.3381L1.07309 17.8597C1.06268 17.9273 1.1442 17.9692 1.19309 17.9214L1.57062 17.5525L2.0419 17.7903C2.10293 17.8211 2.168 17.7565 2.13771 17.6953L1.90353 17.2222L2.27525 16.8476C2.32339 16.7991 2.28209 16.7172 2.2144 16.7271L1.69212 16.8037L1.45062 16.3343C1.41931 16.2736 1.32865 16.2876 1.31726 16.355Z" fill="#FFE15A"/>
<path d="M9.50317 11.2292L9.19937 11.6608L8.69265 11.5131C8.62707 11.494 8.57486 11.5694 8.61582 11.6241L8.93246 12.0464L8.63542 12.4827C8.59698 12.5392 8.65253 12.6121 8.71721 12.5901L9.21667 12.4194L9.53982 12.8368C9.58168 12.8908 9.66821 12.8604 9.66718 12.7921L9.65921 12.2644L10.156 12.086C10.2203 12.0629 10.2182 11.9712 10.1529 11.9511L9.64848 11.7956L9.63236 11.268C9.63039 11.1996 9.5425 11.1733 9.50317 11.2292Z" fill="#FFE15A"/>
</svg>
