<svg width="24" height="24" viewBox="0 0 24 24" fill="none" xmlns="http://www.w3.org/2000/svg">
<path d="M22.2026 19.8621H1.79742C0.804703 19.8621 0 19.0574 0 18.0646V5.93536C0 4.94269 0.804703 4.13794 1.79742 4.13794H22.2026C23.1952 4.13794 24 4.94264 24 5.93536V18.0647C24 19.0574 23.1953 19.8621 22.2026 19.8621Z" fill="#4173CD"/>
<path d="M10.1493 16.1379C10.1145 16.7561 10.5237 16.8323 10.7454 16.8356C10.9671 16.8389 11.303 16.9364 11.6154 17.0002C11.9278 17.064 12.0286 16.8053 12.0286 16.8053C12.2133 17.0472 12.3936 16.9733 12.3936 16.9733C12.5414 16.8255 12.9355 16.7516 13.09 16.7415C13.2445 16.7314 13.2076 16.5198 13.2076 16.5198C13.3695 16.4297 13.4791 16.3266 13.5574 16.2223C13.5608 16.2238 13.5637 16.2261 13.567 16.2276C13.8324 16.3418 14.0373 16.0999 14.081 16.0092C14.108 15.9531 14.1574 15.9283 14.1928 15.9162L14.2053 16.0562C14.3195 15.8917 14.5681 15.9521 14.5681 15.9521C14.3128 15.5591 14.0542 15.7405 14.0542 15.7405L14.1544 15.8357C14.0023 15.9124 13.912 16.2158 13.688 16.1268C13.6689 16.1192 13.6527 16.1083 13.6356 16.0983C13.726 15.919 13.729 15.7499 13.7048 15.6532C13.6612 15.4786 13.3924 15.4382 13.2614 15.6163C13.1699 15.7407 13.2278 15.933 13.3605 16.0772C13.2904 16.126 13.201 16.1715 13.0834 16.2041C12.7206 16.3049 12.1765 15.8279 11.8003 15.8078C11.4241 15.7876 11.0949 16.1034 10.9068 16.3049C10.7186 16.5065 10.4662 16.3279 10.4701 16.1974L10.1493 16.1379ZM13.4427 15.6867C13.5133 15.6565 13.5435 15.7103 13.5536 15.7976C13.5578 15.8342 13.5377 15.8941 13.4884 15.9585C13.4107 15.839 13.398 15.706 13.4427 15.6867Z" fill="#73AF00"/>
<path d="M11.2147 16.8835L11.0142 16.9867L11.0702 16.8481L11.2147 16.8835Z" fill="#F5F5F5"/>
<path d="M11.0275 16.8356L10.842 16.931L10.8938 16.8029L11.0275 16.8356Z" fill="#F5F5F5"/>
<path d="M10.8546 16.8008L10.7175 16.8781L10.7529 16.78L10.8546 16.8008Z" fill="#F5F5F5"/>
<path d="M12.3936 16.9733L12.1753 17.0301L12.2604 16.9071L12.3936 16.9733Z" fill="#F5F5F5"/>
<path d="M12.242 16.8925L12.0386 16.9386L12.1208 16.8275L12.242 16.8925Z" fill="#F5F5F5"/>
<path d="M12.1 16.8181L11.9604 16.8906L11.9991 16.7938L12.1 16.8181Z" fill="#F5F5F5"/>
<path d="M9.20755 9.36827C9.16478 9.39836 9.16195 9.46802 9.20123 9.52386C9.24051 9.57969 9.30703 9.60056 9.3498 9.57047C9.39257 9.54038 9.3954 9.47073 9.35612 9.41489C9.31684 9.35905 9.25032 9.33818 9.20755 9.36827Z" fill="#F5F5F5"/>
<path d="M14.65 9.57101C14.6928 9.6011 14.7593 9.58023 14.7986 9.5244C14.8379 9.46856 14.8351 9.3989 14.7923 9.36881C14.7495 9.33872 14.683 9.35959 14.6437 9.41543C14.6044 9.47127 14.6073 9.54092 14.65 9.57101Z" fill="#F5F5F5"/>
<path d="M13.298 11.5169V13.9279C13.298 14.6437 12.7156 15.226 11.9999 15.226C11.2841 15.226 10.7017 14.6436 10.7017 13.9279V11.5169H13.298ZM14.0399 10.5897H9.95985C9.85743 10.5897 9.77441 10.6727 9.77441 10.7751V13.9278C9.77441 15.1569 10.7708 16.1533 11.9999 16.1533C13.2289 16.1533 14.2253 15.1569 14.2253 13.9278V10.7751C14.2253 10.6727 14.1423 10.5897 14.0399 10.5897Z" fill="#F5F5F5"/>
<path d="M10.7019 11.5169H9.77466V11.0035C9.77466 10.775 9.95996 10.5897 10.1885 10.5897H10.7019V11.5169Z" fill="#FF4B55"/>
<path d="M12.4632 10.5895H11.5359V11.5168H12.4632V10.5895Z" fill="#FF4B55"/>
<path d="M10.7017 12.4444H9.77441V13.3717H10.7017V12.4444Z" fill="#FF4B55"/>
<path d="M14.2259 12.4444H13.2986V13.3717H14.2259V12.4444Z" fill="#FF4B55"/>
<path d="M14.2253 11.5169H13.2981V10.5897H13.8116C14.0401 10.5897 14.2254 10.775 14.2254 11.0035V11.5169H14.2253Z" fill="#FF4B55"/>
<path d="M12.7889 16.0068L12.4322 15.1505C12.2968 15.1986 12.1517 15.226 12 15.226C11.8484 15.226 11.7033 15.1985 11.5679 15.1505L11.2112 16.0068C11.4567 16.1001 11.7219 16.1534 12.0001 16.1534C12.2783 16.1534 12.5434 16.1 12.7889 16.0068Z" fill="#FF4B55"/>
<path d="M10.3584 15.4267L11.0836 14.8465C10.9001 14.6634 10.772 14.4255 10.7238 14.1601L9.82983 14.4155C9.91585 14.7999 10.1017 15.1457 10.3584 15.4267Z" fill="#FF4B55"/>
<path d="M14.1701 14.4155L13.2761 14.16C13.2279 14.4254 13.0998 14.6633 12.9163 14.8464L13.6416 15.4266C13.8982 15.1457 14.084 14.7999 14.1701 14.4155Z" fill="#FF4B55"/>
<path d="M10.4237 10.7751H10.0527V11.3315H10.4237V10.7751Z" fill="#FFE15A"/>
<path d="M10.4237 12.6295H10.0527V13.1859H10.4237V12.6295Z" fill="#FFE15A"/>
<path d="M10.6092 14.4844H10.2383V15.0407H10.6092V14.4844Z" fill="#FFE15A"/>
<path d="M13.7615 14.4844H13.3906V15.0407H13.7615V14.4844Z" fill="#FFE15A"/>
<path d="M13.9473 10.7751H13.5764V11.3315H13.9473V10.7751Z" fill="#FFE15A"/>
<path d="M10.4237 11.6962H10.0527V12.2526H10.4237V11.6962Z" fill="#FF4B55"/>
<path d="M13.9473 11.6962H13.5764V12.2526H13.9473V11.6962Z" fill="#FF4B55"/>
<path d="M10.4237 13.5356H10.0527V14.0919H10.4237V13.5356Z" fill="#FF4B55"/>
<path d="M11.223 15.1758H10.8521V15.7321H11.223V15.1758Z" fill="#FF4B55"/>
<path d="M13.147 15.1758H12.7761V15.7321H13.147V15.1758Z" fill="#FF4B55"/>
<path d="M13.9473 13.5356H13.5764V14.0919H13.9473V13.5356Z" fill="#FF4B55"/>
<path d="M12.1854 10.7751H11.8145V11.3315H12.1854V10.7751Z" fill="#FFE15A"/>
<path d="M11.3045 10.7751H10.9336V11.3315H11.3045V10.7751Z" fill="#FF4B55"/>
<path d="M13.0511 10.7751H12.6802V11.3315H13.0511V10.7751Z" fill="#FF4B55"/>
<path d="M13.9473 12.6295H13.5764V13.1859H13.9473V12.6295Z" fill="#FFE15A"/>
<path d="M12.1851 15.4116H11.8142V15.9679H12.1851V15.4116Z" fill="#FFE15A"/>
<path d="M11.9999 11.8705C12.3578 11.8705 12.649 12.1616 12.649 12.5196C12.649 12.8775 12.3578 13.1686 11.9999 13.1686C11.642 13.1686 11.3508 12.8775 11.3508 12.5196C11.3508 12.1616 11.642 11.8705 11.9999 11.8705ZM11.9999 11.7777C11.5902 11.7777 11.2581 12.1098 11.2581 12.5196C11.2581 12.9293 11.5902 13.2614 11.9999 13.2614C12.4096 13.2614 12.7417 12.9293 12.7417 12.5196C12.7417 12.1099 12.4096 11.7777 11.9999 11.7777Z" fill="#FFE15A"/>
<path d="M11.888 12.4674C11.7041 12.4674 11.5892 12.5192 11.5174 12.5836C11.5469 12.4379 11.6084 12.282 11.7373 12.282C11.7629 12.282 11.7837 12.2611 11.7837 12.2356C11.7837 12.2101 11.763 12.1892 11.7373 12.1892C11.6094 12.1892 11.5299 12.2783 11.4801 12.3901C11.4496 11.7819 11.3551 11.7796 11.3201 11.7796C11.2945 11.7796 11.2737 11.8005 11.2737 11.826C11.2737 11.8483 11.2893 11.8667 11.3102 11.8712C11.3296 11.8944 11.3462 11.9724 11.3596 12.0805C11.2996 11.9531 11.2125 11.8607 11.0844 11.8607C11.0589 11.8607 11.0381 11.8816 11.0381 11.9071C11.0381 11.9326 11.0588 11.9535 11.0844 11.9535C11.2111 11.9535 11.2888 12.1079 11.3352 12.2935C11.2463 12.1666 11.112 12.0734 10.9145 12.0734C10.8889 12.0734 10.8682 12.0942 10.8682 12.1197C10.8682 12.1452 10.8889 12.1661 10.9145 12.1661C11.1196 12.1661 11.2374 12.2844 11.3052 12.4211C11.2257 12.3538 11.1122 12.3052 10.9493 12.3052C10.9237 12.3052 10.9029 12.326 10.9029 12.3515C10.9029 12.377 10.9236 12.3979 10.9493 12.3979C11.3904 12.3979 11.3973 12.813 11.3974 12.8307C11.3974 12.8374 11.402 12.8422 11.4046 12.848C11.4069 12.8531 11.407 12.8594 11.4109 12.8632L11.411 12.8634C11.4194 12.8717 11.4309 12.8769 11.4437 12.8769H11.4438C11.4486 12.8769 11.4517 12.8732 11.456 12.8719C11.4701 12.8675 11.4799 12.8579 11.4846 12.8439C11.4861 12.8393 11.49 12.836 11.4901 12.831C11.4902 12.8199 11.498 12.5602 11.888 12.5602C11.9136 12.5602 11.9344 12.5393 11.9344 12.5138C11.9344 12.4882 11.9137 12.4674 11.888 12.4674Z" fill="#73AF00"/>
<path d="M12.1159 12.4674C12.2999 12.4674 12.4147 12.5192 12.4866 12.5836C12.457 12.4379 12.3956 12.282 12.2666 12.282C12.241 12.282 12.2203 12.2611 12.2203 12.2356C12.2203 12.2101 12.241 12.1892 12.2666 12.1892C12.3945 12.1892 12.4741 12.2783 12.5238 12.3901C12.5544 11.7819 12.6489 11.7796 12.6839 11.7796C12.7095 11.7796 12.7302 11.8005 12.7302 11.826C12.7302 11.8483 12.7147 11.8667 12.6937 11.8712C12.6744 11.8944 12.6578 11.9724 12.6443 12.0805C12.7043 11.9531 12.7915 11.8607 12.9195 11.8607C12.9451 11.8607 12.9659 11.8816 12.9659 11.9071C12.9659 11.9326 12.9451 11.9535 12.9195 11.9535C12.7929 11.9535 12.7151 12.1079 12.6687 12.2935C12.7577 12.1666 12.892 12.0734 13.0894 12.0734C13.115 12.0734 13.1358 12.0942 13.1358 12.1197C13.1358 12.1452 13.1151 12.1661 13.0894 12.1661C12.8843 12.1661 12.7666 12.2844 12.6987 12.4211C12.7783 12.3538 12.8917 12.3052 13.0547 12.3052C13.0803 12.3052 13.1011 12.326 13.1011 12.3515C13.1011 12.377 13.0803 12.3979 13.0547 12.3979C12.6136 12.3979 12.6066 12.813 12.6066 12.8307C12.6066 12.8374 12.602 12.8422 12.5994 12.848C12.5971 12.8531 12.597 12.8594 12.5931 12.8632L12.593 12.8634C12.5846 12.8717 12.573 12.8769 12.5603 12.8769H12.5602C12.5554 12.8769 12.5523 12.8732 12.548 12.8719C12.5338 12.8675 12.5241 12.8579 12.5194 12.8439C12.5178 12.8393 12.514 12.836 12.5139 12.831C12.5138 12.8199 12.5059 12.5602 12.1159 12.5602C12.0903 12.5602 12.0696 12.5393 12.0696 12.5138C12.0696 12.4882 12.0903 12.4674 12.1159 12.4674Z" fill="#73AF00"/>
<path d="M11.2844 12.705C11.3671 13.0244 11.6548 13.2614 12 13.2614C12.3453 13.2614 12.6329 13.0244 12.7156 12.705H11.2844Z" fill="#FF4B55"/>
<path d="M12 13.2614C12.3453 13.2614 12.6329 13.0244 12.7156 12.705H12V13.2614Z" fill="#FFE15A"/>
<path d="M11.9999 13.5511C12.3578 13.5511 12.649 13.8422 12.649 14.2002C12.649 14.5581 12.3578 14.8492 11.9999 14.8492C11.642 14.8492 11.3508 14.5581 11.3508 14.2002C11.3508 13.8422 11.642 13.5511 11.9999 13.5511ZM11.9999 13.4584C11.5902 13.4584 11.2581 13.7905 11.2581 14.2002C11.2581 14.61 11.5902 14.9421 11.9999 14.9421C12.4096 14.9421 12.7417 14.61 12.7417 14.2002C12.7417 13.7905 12.4096 13.4584 11.9999 13.4584Z" fill="#FFE15A"/>
<path d="M11.888 14.1481C11.7041 14.1481 11.5892 14.1999 11.5174 14.2642C11.5469 14.1186 11.6084 13.9626 11.7373 13.9626C11.7629 13.9626 11.7837 13.9418 11.7837 13.9163C11.7837 13.8907 11.763 13.8699 11.7373 13.8699C11.6094 13.8699 11.5299 13.959 11.4801 14.0707C11.4496 13.4626 11.3551 13.4603 11.3201 13.4603C11.2945 13.4603 11.2737 13.4811 11.2737 13.5066C11.2737 13.5289 11.2893 13.5474 11.3102 13.5519C11.3296 13.5751 11.3462 13.6531 11.3596 13.7612C11.2996 13.6338 11.2125 13.5414 11.0844 13.5414C11.0589 13.5414 11.0381 13.5623 11.0381 13.5878C11.0381 13.6133 11.0588 13.6341 11.0844 13.6341C11.2111 13.6341 11.2888 13.7886 11.3352 13.9742C11.2463 13.8473 11.112 13.754 10.9145 13.754C10.8889 13.754 10.8682 13.7749 10.8682 13.8004C10.8682 13.8259 10.8889 13.8468 10.9145 13.8468C11.1196 13.8468 11.2374 13.9651 11.3052 14.1018C11.2257 14.0344 11.1122 13.9858 10.9493 13.9858C10.9237 13.9858 10.9029 14.0067 10.9029 14.0322C10.9029 14.0577 10.9236 14.0785 10.9493 14.0785C11.3904 14.0785 11.3973 14.4936 11.3974 14.5114C11.3974 14.5181 11.402 14.5229 11.4046 14.5287C11.4069 14.5338 11.407 14.54 11.4109 14.5439L11.411 14.544C11.4194 14.5524 11.4309 14.5576 11.4437 14.5576H11.4438C11.4486 14.5576 11.4517 14.5539 11.456 14.5525C11.4701 14.5481 11.4799 14.5385 11.4846 14.5245C11.4861 14.52 11.49 14.5167 11.4901 14.5116C11.4902 14.5006 11.498 14.2408 11.888 14.2408C11.9136 14.2408 11.9344 14.22 11.9344 14.1945C11.9344 14.1689 11.9137 14.1481 11.888 14.1481Z" fill="#73AF00"/>
<path d="M12.1159 14.1481C12.2999 14.1481 12.4147 14.1999 12.4866 14.2642C12.457 14.1186 12.3956 13.9626 12.2666 13.9626C12.241 13.9626 12.2203 13.9418 12.2203 13.9163C12.2203 13.8907 12.241 13.8699 12.2666 13.8699C12.3945 13.8699 12.4741 13.959 12.5238 14.0707C12.5544 13.4626 12.6489 13.4603 12.6839 13.4603C12.7095 13.4603 12.7302 13.4811 12.7302 13.5066C12.7302 13.5289 12.7147 13.5474 12.6937 13.5519C12.6744 13.5751 12.6578 13.6531 12.6443 13.7612C12.7043 13.6338 12.7915 13.5414 12.9195 13.5414C12.9451 13.5414 12.9659 13.5623 12.9659 13.5878C12.9659 13.6133 12.9451 13.6341 12.9195 13.6341C12.7929 13.6341 12.7151 13.7886 12.6687 13.9742C12.7577 13.8473 12.892 13.754 13.0894 13.754C13.115 13.754 13.1358 13.7749 13.1358 13.8004C13.1358 13.8259 13.1151 13.8468 13.0894 13.8468C12.8843 13.8468 12.7666 13.9651 12.6987 14.1018C12.7783 14.0344 12.8917 13.9858 13.0547 13.9858C13.0803 13.9858 13.1011 14.0067 13.1011 14.0322C13.1011 14.0577 13.0803 14.0785 13.0547 14.0785C12.6136 14.0785 12.6066 14.4936 12.6066 14.5114C12.6066 14.5181 12.602 14.5229 12.5994 14.5287C12.5971 14.5338 12.597 14.54 12.5931 14.5439L12.593 14.544C12.5846 14.5524 12.573 14.5576 12.5603 14.5576H12.5602C12.5554 14.5576 12.5523 14.5539 12.548 14.5525C12.5338 14.5481 12.5241 14.5385 12.5194 14.5245C12.5178 14.52 12.514 14.5167 12.5139 14.5116C12.5138 14.5006 12.5059 14.2408 12.1159 14.2408C12.0903 14.2408 12.0696 14.22 12.0696 14.1945C12.0696 14.1689 12.0903 14.1481 12.1159 14.1481Z" fill="#73AF00"/>
<path d="M11.2844 14.3857C11.3671 14.7051 11.6548 14.942 12 14.942C12.3453 14.942 12.6329 14.7051 12.7156 14.3857H11.2844Z" fill="#FF4B55"/>
<path d="M12 14.942C12.3453 14.942 12.6329 14.7051 12.7156 14.3857H12V14.942Z" fill="#FFE15A"/>
<path d="M9.40355 11.146V10.7751H8.47632V11.146H8.6618V15.226H8.47632V15.5969H8.6618H9.21812H9.40355V15.226H9.21812V11.146H9.40355Z" fill="#F5F5F5"/>
<path d="M15.5237 11.146V10.7751H14.5964V11.146H14.7819V15.226H14.5964V15.5969H14.7819H15.3382H15.5237V15.226H15.3382V11.146H15.5237Z" fill="#F5F5F5"/>
<path d="M14.04 10.5897H9.96003C9.75519 10.5897 9.58911 10.4236 9.58911 10.2188C9.58911 10.0139 9.75519 9.84784 9.96003 9.84784H14.04C14.2449 9.84784 14.411 10.0139 14.411 10.2188C14.411 10.4236 14.2449 10.5897 14.04 10.5897Z" fill="#FFE15A"/>
<path d="M12.1389 10.3579H11.8608C11.7839 10.3579 11.7217 10.2956 11.7217 10.2188C11.7217 10.142 11.784 10.0797 11.8608 10.0797H12.1389C12.2157 10.0797 12.278 10.142 12.278 10.2188C12.278 10.2956 12.2157 10.3579 12.1389 10.3579Z" fill="#FF4B55"/>
<path d="M13.5298 10.3579H13.2516C13.1748 10.3579 13.1125 10.2956 13.1125 10.2188C13.1125 10.142 13.1748 10.0797 13.2516 10.0797H13.5298C13.6066 10.0797 13.6689 10.142 13.6689 10.2188C13.6689 10.2956 13.6066 10.3579 13.5298 10.3579Z" fill="#73AF00"/>
<path d="M10.748 10.3579H10.4699C10.3931 10.3579 10.3308 10.2956 10.3308 10.2188C10.3308 10.142 10.3931 10.0797 10.4699 10.0797H10.748C10.8249 10.0797 10.8871 10.142 10.8871 10.2188C10.8871 10.2956 10.8249 10.3579 10.748 10.3579Z" fill="#73AF00"/>
<path d="M14.6042 9.07895L14.3337 9.17167L14.3598 9.42967C14.0611 9.7691 13.9112 9.79099 13.8494 9.76952C13.773 9.74313 13.7378 9.63424 13.7236 9.5508L13.8352 9.66241C14.3916 9.10605 14.0728 8.28888 14.0728 8.28888C13.9164 8.31785 13.8468 8.46274 13.8468 8.46274C13.7019 8.45116 13.5513 8.46274 13.5513 8.46274C13.5397 8.59024 13.586 8.76986 13.586 8.76986C13.268 8.83544 13.1371 9.0078 13.1371 9.0078C13.1916 9.16052 13.3659 9.29144 13.3659 9.29144C13.3137 9.41894 13.3775 9.5696 13.3775 9.5696C13.457 9.5696 13.5259 9.5456 13.5746 9.52206C13.3669 9.781 13.2691 9.78719 13.236 9.77472C13.1356 9.7375 13.1102 9.44111 13.1243 9.24255C13.1257 9.22225 13.1137 9.20336 13.0947 9.196C13.0759 9.18892 13.0542 9.19469 13.0415 9.21067L12.8816 9.41458C12.2142 8.52541 12.7419 7.99324 12.7419 7.99324V7.62231H12.5565V7.80775H12.3975V7.62231H12.2386V7.80775H12.0796V7.62231H11.9207V7.80775H11.7617V7.62231H11.6028V7.80775H11.4438V7.62231H11.2584V7.99324C11.2584 7.99324 11.786 8.52531 11.1187 9.41458L10.9588 9.21067C10.9461 9.19455 10.9244 9.1886 10.9056 9.196C10.8866 9.20336 10.8746 9.2223 10.876 9.24255C10.8901 9.44111 10.8648 9.73746 10.7643 9.77472C10.731 9.78677 10.6331 9.78081 10.425 9.52117C10.4738 9.54508 10.5432 9.56964 10.6239 9.56964C10.6239 9.56964 10.6876 9.41899 10.6355 9.29149C10.6355 9.29149 10.8096 9.16056 10.8643 9.00785C10.8643 9.00785 10.7333 8.83549 10.4153 8.76991C10.4153 8.76991 10.4616 8.59028 10.4501 8.46278C10.4501 8.46278 10.2994 8.4512 10.1545 8.46278C10.1545 8.46278 10.085 8.31789 9.92848 8.28892C9.92848 8.28892 9.60969 9.10605 10.1661 9.66245L10.2764 9.55211C10.2621 9.63546 10.2269 9.74331 10.1509 9.76961C10.0888 9.79113 9.93941 9.76924 9.64147 9.43089L9.66763 9.17181L9.39716 9.0791C9.25808 8.65797 8.92578 8.70817 8.92578 8.70817C9.146 8.8975 9.19236 9.38046 9.19236 9.38046L9.76419 9.93681L9.79513 9.84794C9.78233 9.77364 9.76245 9.71552 9.74103 9.66846C9.92042 9.83416 10.0661 9.89758 10.1813 9.85717C10.2945 9.81799 10.3425 9.69011 10.3628 9.5936C10.5149 9.78156 10.6371 9.87203 10.7391 9.87203C10.7591 9.87203 10.7782 9.86856 10.7966 9.86167C10.9424 9.80772 10.9705 9.55047 10.9726 9.37858L11.073 9.50664V9.84794H11.8149C11.8149 9.74552 11.8979 9.6625 12.0003 9.6625C12.1027 9.6625 12.1858 9.74552 12.1858 9.84794H12.9276V9.50664L13.028 9.37858C13.0301 9.55047 13.0583 9.80772 13.2041 9.86167C13.2224 9.86856 13.2416 9.87203 13.2615 9.87203C13.3635 9.87203 13.4857 9.78147 13.6378 9.5936C13.6581 9.69011 13.7061 9.81799 13.8193 9.85717C13.9351 9.89758 14.0812 9.83378 14.2613 9.667C14.2397 9.71435 14.2194 9.77289 14.2065 9.84799L14.2374 9.93686L14.8092 9.3805C14.8092 9.3805 14.8556 8.89755 15.0758 8.70822C15.0755 8.70803 14.7432 8.65783 14.6042 9.07895Z" fill="#FFE15A"/>
<path d="M11.3044 10.3579C11.2275 10.3579 11.1653 10.2956 11.1653 10.2188C11.1653 10.142 11.2276 10.0797 11.3044 10.0797C11.3812 10.0797 11.4434 10.142 11.4434 10.2188C11.4435 10.2956 11.3812 10.3579 11.3044 10.3579Z" fill="#F5F5F5"/>
<path d="M12.6952 10.3579C12.6184 10.3579 12.5562 10.2956 12.5562 10.2188C12.5562 10.142 12.6184 10.0797 12.6952 10.0797C12.7721 10.0797 12.8343 10.142 12.8343 10.2188C12.8343 10.2956 12.772 10.3579 12.6952 10.3579Z" fill="#F5F5F5"/>
<path d="M14.0863 10.3579C14.0095 10.3579 13.9473 10.2956 13.9473 10.2188C13.9473 10.142 14.0096 10.0797 14.0863 10.0797C14.1632 10.0797 14.2254 10.142 14.2254 10.2188C14.2254 10.2956 14.1631 10.3579 14.0863 10.3579Z" fill="#FF4B55"/>
<path d="M9.91349 10.3579C9.83666 10.3579 9.77441 10.2956 9.77441 10.2188C9.77441 10.142 9.83671 10.0797 9.91349 10.0797C9.99032 10.0797 10.0526 10.142 10.0526 10.2188C10.0526 10.2956 9.99037 10.3579 9.91349 10.3579Z" fill="#FF4B55"/>
<path d="M11.9999 8.92062C12.1023 8.92062 12.1853 8.8376 12.1853 8.73518C12.1853 8.63277 12.1023 8.54974 11.9999 8.54974C11.8975 8.54974 11.8145 8.63277 11.8145 8.73518C11.8145 8.8376 11.8975 8.92062 11.9999 8.92062Z" fill="#F5F5F5"/>
<path d="M10.1046 8.90525C10.0404 8.92144 10.0037 8.99494 10.0224 9.06942C10.0412 9.14389 10.1085 9.19114 10.1726 9.17495C10.2368 9.15876 10.2736 9.08526 10.2548 9.01078C10.236 8.9363 10.1687 8.88906 10.1046 8.90525Z" fill="#F5F5F5"/>
<path d="M13.8291 9.17487C13.8933 9.19107 13.9605 9.14382 13.9793 9.06934C13.9981 8.99486 13.9613 8.92136 13.8972 8.90517C13.833 8.88898 13.7658 8.93623 13.747 9.0107C13.7282 9.08518 13.765 9.15868 13.8291 9.17487Z" fill="#F5F5F5"/>
<path d="M9.77446 12.3837C9.59929 12.3506 9.3659 12.3264 9.10968 12.3534C8.85876 12.3799 8.56569 12.4579 8.29077 12.6446V13.8194C8.67463 12.8916 9.53066 13.0709 9.77441 13.1445V12.3837H9.77446Z" fill="#F5F5F5"/>
<path d="M14.2253 12.3837C14.4005 12.3506 14.6339 12.3264 14.8901 12.3534C15.141 12.3799 15.4341 12.4579 15.709 12.6446V13.8194C15.3252 12.8916 14.4691 13.0709 14.2254 13.1445V12.3837H14.2253Z" fill="#F5F5F5"/>
<path d="M10.9879 15.5225C10.9879 15.5225 10.7881 15.8361 10.6869 15.8665C10.6869 15.8665 10.5498 15.9664 10.522 15.9563L11.0031 15.3986L10.9879 15.5225Z" fill="#FF4B55"/>
<path d="M10.9705 15.7036C10.8764 15.6935 10.8025 15.7472 10.7555 15.811C10.7085 15.8749 10.5818 15.8959 10.5687 15.813C10.5569 15.7384 10.8196 15.5053 10.8196 15.5053C10.8196 15.5053 10.776 15.4268 10.656 15.4573C10.5419 15.4864 10.4297 15.6699 10.4297 15.6699C10.4297 15.6699 10.3156 15.6253 10.224 15.7016L9.83179 16.1503C9.83179 16.1503 10.3136 16.5618 10.9268 15.9554L10.8227 15.9218C10.8562 15.7943 10.9705 15.7036 10.9705 15.7036Z" fill="#73AF00"/>
<path d="M10.3917 15.8649C10.4168 15.8649 10.4372 15.8445 10.4372 15.8194C10.4372 15.7942 10.4168 15.7739 10.3917 15.7739C10.3666 15.7739 10.3462 15.7942 10.3462 15.8194C10.3462 15.8445 10.3666 15.8649 10.3917 15.8649Z" fill="#F5F5F5"/>
<path d="M8.47632 7.88368C9.04599 7.88171 9.6113 7.98127 10.1454 8.17876V7.59765C9.60933 7.41282 9.04444 7.32507 8.47632 7.33895V7.88368Z" fill="#F5F5F5"/>
<path d="M13.1126 7.25153C12.3812 7.07594 11.6186 7.07594 10.8872 7.25153C10.8872 7.06609 10.8872 6.88061 10.8872 6.69517C11.6186 6.51958 12.3813 6.51958 13.1126 6.69517C13.1126 6.88061 13.1126 7.06605 13.1126 7.25153Z" fill="#F5F5F5"/>
<path d="M11.0725 6.82758C10.6188 6.86972 10.1718 6.97598 9.74585 7.14609C9.77252 7.32961 9.79919 7.51317 9.82587 7.69669C10.2267 7.53661 10.6463 7.43428 11.0725 7.38736V6.82758Z" fill="#F5F5F5"/>
<path d="M8.29077 8.51881C8.54343 8.44827 8.80068 8.39628 9.06107 8.36769V7.80786C8.80101 7.832 8.54376 7.87977 8.29077 7.94596V8.51881Z" fill="#F5F5F5"/>
<path d="M15.5236 7.88368C14.9539 7.88171 14.3886 7.98127 13.8545 8.17876V7.59765C14.3906 7.41282 14.9554 7.32507 15.5236 7.33895V7.88368Z" fill="#F5F5F5"/>
<path d="M12.927 6.82758C13.3807 6.86972 13.8276 6.97598 14.2536 7.14609C14.2269 7.32961 14.2003 7.51317 14.1736 7.69669C13.7727 7.53661 13.3531 7.43428 12.927 7.38736V6.82758Z" fill="#F5F5F5"/>
<path d="M15.709 8.51881C15.4564 8.44827 15.1991 8.39628 14.9387 8.36769V7.80786C15.1988 7.832 15.456 7.87977 15.709 7.94596V8.51881Z" fill="#F5F5F5"/>
</svg>
