<svg width="24" height="24" viewBox="0 0 24 24" fill="none" xmlns="http://www.w3.org/2000/svg">
<path d="M24 9.37935H0V4.55175C0 4.32324 0.185297 4.13794 0.413812 4.13794H23.5862C23.8147 4.13794 24 4.32324 24 4.55175L24 9.37935Z" fill="#464655"/>
<path d="M23.5861 19.8621H0.413812C0.185297 19.8621 0 19.6768 0 19.4483V14.6207H24V19.4483C24 19.6768 23.8147 19.8621 23.5861 19.8621Z" fill="#73AF00"/>
<path d="M24 9.37927H0V14.6204H24V9.37927Z" fill="#F5F5F5"/>
<path d="M0.601311 19.4059L9.66083 12.2145C9.79892 12.1049 9.79892 11.8952 9.66083 11.7856L0.601311 4.59412C0.232453 4.92332 0 5.4021 0 5.93539V18.0647C0 18.5979 0.232453 19.0767 0.601311 19.4059Z" fill="#FF4B55"/>
<path d="M12.42 12C12.42 11.0561 13.0364 10.2565 13.8886 9.98119C13.9376 9.96535 13.9311 9.89368 13.88 9.88866C13.7164 9.87259 13.5473 9.87512 13.3747 9.8993C12.3738 10.0398 11.6016 10.8863 11.5533 11.8958C11.4951 13.1148 12.4661 14.1215 13.6723 14.1215C13.7421 14.1215 13.811 14.118 13.879 14.1114C13.9304 14.1064 13.9371 14.0345 13.888 14.0186C13.0362 13.743 12.42 12.9436 12.42 12Z" fill="#FF4B55"/>
<path d="M14.2211 10.6062L13.9424 11.4419L13.0614 11.4488C12.9473 11.4497 12.9 11.5952 12.9918 11.663L13.7005 12.1863L13.4347 13.0263C13.4003 13.1351 13.5241 13.225 13.6169 13.1587L14.3336 12.6463L15.0503 13.1587C15.1431 13.225 15.2669 13.1351 15.2325 13.0263L14.9668 12.1863L15.6755 11.663C15.7672 11.5952 15.7199 11.4496 15.6058 11.4488L14.7248 11.4419L14.4461 10.6062C14.4103 10.498 14.2573 10.498 14.2211 10.6062Z" fill="#FF4B55"/>
</svg>
