<svg width="24" height="24" viewBox="0 0 24 24" fill="none" xmlns="http://www.w3.org/2000/svg">
<path d="M22.2025 19.8621H1.79742C0.804703 19.8621 0 19.0573 0 18.0646V5.93536C0 4.94269 0.804703 4.13794 1.79742 4.13794H22.2025C23.1952 4.13794 24 4.94264 24 5.93536V18.0646C24 19.0573 23.1952 19.8621 22.2025 19.8621Z" fill="#F5F5F5"/>
<path d="M24 10.3448H13.6552V4.13794H10.3448V10.3448H0V13.6552H10.3448V19.8621H13.6552V13.6552H24V10.3448Z" fill="#FF4B55"/>
<path d="M16.9654 13.2414V10.7586L16.3447 11.3793H7.6551L7.03442 10.7586V13.2414L7.6551 12.6207H16.3447L16.9654 13.2414Z" fill="#FFE15A"/>
<path d="M10.7585 16.9655H13.2413L12.6206 16.3448V7.6552L13.2413 7.03448H10.7585L11.3792 7.6552V16.3448L10.7585 16.9655Z" fill="#FFE15A"/>
</svg>
