<svg width="24" height="24" viewBox="0 0 24 24" fill="none" xmlns="http://www.w3.org/2000/svg">
<path d="M22.2026 4.13794H1.79742C0.804703 4.13794 0 4.94264 0 5.93536V12H24V5.93536C24 4.94264 23.1953 4.13794 22.2026 4.13794Z" fill="#4173CD"/>
<path d="M24 12H0V15.9309H24V12Z" fill="#FFE15A"/>
<path d="M0 18.0646C0 19.0573 0.804703 19.8621 1.79742 19.8621H22.2026C23.1952 19.8621 24 19.0574 24 18.0646V15.931H0V18.0646Z" fill="#73AF00"/>
<path d="M21.4787 8.34937L23.1725 8.06897L21.4787 7.78856L22.9362 6.88134L21.2641 7.27045L22.2635 5.87452L20.8676 6.87394L21.2567 5.20181L20.3495 6.65934L20.069 4.96552L19.7886 6.6593L18.8814 5.20177L19.2705 6.87389L17.8746 5.87447L18.874 7.27041L17.2019 6.8813L18.6594 7.78852L16.9656 8.06897L18.6594 8.34937L17.2018 9.25659L18.874 8.86748L17.8745 10.2634L19.2705 9.264L18.8814 10.9361L19.7886 9.47859L20.069 11.1724L20.3494 9.47864L21.2567 10.9362L20.8675 9.26405L22.2635 10.2635L21.2641 8.86753L22.9362 9.25664L21.4787 8.34937ZM20.069 9.10345C19.4977 9.10345 19.0345 8.64033 19.0345 8.06897C19.0345 7.49761 19.4977 7.03448 20.069 7.03448C20.6404 7.03448 21.1035 7.49761 21.1035 8.06897C21.1035 8.64033 20.6404 9.10345 20.069 9.10345Z" fill="#FFE15A"/>
<path d="M20.0691 8.84496C20.4976 8.84496 20.845 8.49759 20.845 8.06909C20.845 7.64058 20.4976 7.29321 20.0691 7.29321C19.6406 7.29321 19.2932 7.64058 19.2932 8.06909C19.2932 8.49759 19.6406 8.84496 20.0691 8.84496Z" fill="#FFE15A"/>
</svg>
