<svg width="24" height="24" viewBox="0 0 24 24" fill="none" xmlns="http://www.w3.org/2000/svg">
<path d="M22.2026 19.862H1.79742C0.804703 19.862 0 19.0573 0 18.0646V5.9353C0 4.94263 0.804703 4.13788 1.79742 4.13788H22.2026C23.1952 4.13788 24 4.94258 24 5.9353V18.0646C24 19.0573 23.1953 19.862 22.2026 19.862Z" fill="#41479B"/>
<path d="M12.0026 7.862C10.43 8.68939 9.36938 10.66 9.36938 11.9999C9.36938 13.3399 10.43 15.3105 12.0026 16.1379C13.5752 15.3105 14.6358 13.3399 14.6358 11.9999C14.6358 10.66 13.5752 8.68934 12.0026 7.862Z" fill="#3CC8FF"/>
<path d="M12.3422 10.5831C12.5962 10.4492 13.03 10.3018 13.5229 10.4827C13.5229 10.4827 13.0482 9.95388 12.3895 10.3847C12.5667 10.1698 12.8329 9.90372 13.1211 9.82961C13.1211 9.82961 12.5475 9.61539 12.2004 10.3804C12.2676 9.99456 12.2554 9.38706 11.6335 9.03442C11.6335 9.03442 11.9813 9.78063 12.0154 10.3998C11.9952 10.29 11.9547 10.1751 11.848 10.0638C11.5191 9.72067 11.2332 9.69208 11.2332 9.69208C11.2332 9.69208 11.6891 10.1973 11.9132 10.6753C11.7841 10.5209 11.5567 10.3232 11.1904 10.3353C10.3325 10.3639 10.1467 10.8786 10.1467 10.8786C10.5023 10.7289 11.0667 10.6543 11.5041 10.6913C10.9393 10.7908 10.7387 11.4945 10.7387 11.4945C11.1922 10.929 11.6872 10.8371 11.8848 10.8236C11.5238 11.1223 11.5458 11.6723 11.5458 11.6723C11.6297 11.3627 11.9547 11.0098 12.1131 10.8516C12.5396 11.313 12.59 11.8316 12.59 11.8316C12.59 11.8316 12.6834 11.6756 12.6403 11.358C12.5996 11.0582 12.4115 10.8614 12.2679 10.7457C13.0209 10.8495 13.5123 11.3957 13.5123 11.3957C13.2659 10.6769 12.6493 10.5833 12.3422 10.5831Z" fill="#73AF00"/>
<path d="M22.2025 4.13788H1.79739C0.837295 4.13788 0.0531699 4.89069 0.00268555 5.83818V18.1618C0.0531699 19.1093 0.837295 19.8621 1.79739 19.8621H22.2025C23.1952 19.8621 24 19.0573 24 18.0646V5.9353C24 4.94258 23.1953 4.13788 22.2025 4.13788ZM23.1751 19.0344H0.830311V4.96546H23.1752L23.1751 19.0344Z" fill="#FF4B55"/>
<path d="M11.1621 12.9999L11.5415 12.3448L14.6579 12.2758L14.451 13.1379L11.1621 12.9999Z" fill="#FF965A"/>
<path d="M9.48315 12.8275C9.79553 14.0534 10.7315 15.4691 12.0027 16.1379C13.2739 15.4691 14.2098 14.0534 14.5222 12.8275H9.48315Z" fill="#4173CD"/>
<path d="M9.93359 14.0689C9.93359 14.0689 10.8362 14.0242 11.3784 14.2469C11.5139 14.3025 11.5314 14.4855 11.4091 14.566C11.1449 14.7398 10.7612 15.0389 10.7612 15.3103L9.93359 14.0689Z" fill="#FFE15A"/>
<path d="M11.5197 15.7241C11.4852 15.3792 11.7904 15.1285 12.2094 14.9655C12.7525 14.7543 12.455 14.4181 12.1835 14.1983C11.8596 13.9361 12.2783 13.8621 14.0369 13.8276L13.1749 15.1724L12.0025 16.138L11.5197 15.7241Z" fill="#FFE15A"/>
<path d="M12.0026 16.3719L11.9062 16.321C10.2649 15.4578 9.16235 13.3897 9.16235 12C9.16235 10.6103 10.2649 8.54213 11.9062 7.67902L12.0026 7.62811L12.0989 7.67902C13.7401 8.54218 14.8428 10.6103 14.8428 12C14.8428 13.3897 13.7402 15.4579 12.0989 16.321L12.0026 16.3719ZM12.0026 8.09761C10.5468 8.91957 9.57617 10.7582 9.57617 12C9.57617 13.2417 10.5468 15.0804 12.0026 15.9023C13.4584 15.0803 14.4289 13.2417 14.4289 12C14.4289 10.7582 13.4584 8.91952 12.0026 8.09761Z" fill="#FF4B55"/>
<path d="M12.8818 14.3619C12.8629 14.3619 12.8439 14.3569 12.8269 14.3461C12.2645 13.9927 11.9421 13.4078 11.9421 12.7413V10.8362C11.9421 10.779 11.9885 10.7327 12.0456 10.7327C12.1027 10.7327 12.149 10.779 12.149 10.8362V12.7413C12.149 13.3351 12.4362 13.8562 12.9368 14.1708C12.9853 14.2013 12.9999 14.2651 12.9695 14.3134C12.9498 14.3448 12.9162 14.3619 12.8818 14.3619Z" fill="#A54B37"/>
<path d="M12.0459 11.0689C12.1709 11.0689 12.2722 10.9676 12.2722 10.8426C12.2722 10.7176 12.1709 10.6163 12.0459 10.6163C11.9209 10.6163 11.8196 10.7176 11.8196 10.8426C11.8196 10.9676 11.9209 11.0689 12.0459 11.0689Z" fill="#A54B37"/>
</svg>
