<svg width="24" height="24" viewBox="0 0 24 24" fill="none" xmlns="http://www.w3.org/2000/svg">
<path d="M22.2026 19.8621H1.79742C0.804703 19.8621 0 19.0574 0 18.0646V5.93536C0 4.94269 0.804703 4.13794 1.79742 4.13794H22.2026C23.1952 4.13794 24 4.94264 24 5.93536V18.0647C24 19.0574 23.1953 19.8621 22.2026 19.8621Z" fill="#F5F5F5"/>
<path d="M0 18.0646C0 19.0573 0.804703 19.8621 1.79742 19.8621H22.2026C23.1947 19.8621 23.999 19.0583 24 18.0664V14.4828H0V18.0646Z" fill="#FF4B55"/>
<path d="M16.5517 9.93104V9.10346H15.7241V7.03449H16.1379V6.20691H13.6551V7.03449H14.069V9.10346H12.8276V6.20691H13.2414V5.37933H10.7586V6.20691H11.1724V9.10346H9.93102V7.03449H10.3448V6.20691H7.86205V7.03449H8.27587V9.10346H7.44824V9.93104H7.86205V13.2414H7.44824V14.069H16.5517V13.2414H16.1379V9.93104H16.5517Z" fill="#FF4B55"/>
<path d="M12.8275 13.6552H11.1724V12C11.1724 11.5429 11.5429 11.1724 11.9999 11.1724C12.457 11.1724 12.8275 11.5429 12.8275 12V13.6552Z" fill="#464655"/>
<path d="M12.0002 7.86206C11.7717 7.86206 11.5864 8.04736 11.5864 8.27587V9.51726H12.414V8.27587C12.414 8.04731 12.2288 7.86206 12.0002 7.86206Z" fill="#464655"/>
<path d="M14.8967 8.27588C14.6682 8.27588 14.4829 8.46118 14.4829 8.68969V9.51727H15.3105V8.68969C15.3105 8.46108 15.1252 8.27588 14.8967 8.27588Z" fill="#464655"/>
<path d="M9.10351 8.27588C8.87499 8.27588 8.6897 8.46118 8.6897 8.68969V9.51727H9.51728V8.68969C9.51728 8.46108 9.33202 8.27588 9.10351 8.27588Z" fill="#464655"/>
<path d="M15.3104 13.6552H13.6553V12.4138C13.6553 11.9567 14.0258 11.5862 14.4829 11.5862C14.9399 11.5862 15.3104 11.9567 15.3104 12.4138V13.6552Z" fill="#464655"/>
<path d="M10.3449 13.6552H8.6897V12.4138C8.6897 11.9567 9.0602 11.5862 9.51728 11.5862C9.97435 11.5862 10.3449 11.9567 10.3449 12.4138V13.6552Z" fill="#464655"/>
<path d="M13.1377 15.1035C13.1377 15.0344 13.1031 14.9697 13.0456 14.9313L12.2067 14.372V14.1969L12.9199 13.8402C13.0221 13.7891 13.0635 13.6648 13.0124 13.5626C12.9611 13.4602 12.8372 13.419 12.7348 13.4701L11.9998 13.8376L11.2647 13.4701C11.1628 13.419 11.0382 13.4602 10.9871 13.5626C10.936 13.6649 10.9774 13.7891 11.0796 13.8402L11.7928 14.1969V14.372L10.9539 14.9313C10.8964 14.9697 10.8618 15.0344 10.8618 15.1035C10.8618 15.1726 10.8964 15.2372 10.9539 15.2756L11.7928 15.8349V17.5862H10.9653V17.9031C10.9653 18.0174 11.0578 18.11 11.1722 18.11C11.2513 18.11 11.3203 18.0655 11.355 18.0001H11.7929V18.4139H11.3514C11.3157 18.352 11.2488 18.3104 11.1722 18.3104C11.0578 18.3104 10.9653 18.4029 10.9653 18.5173V18.8277H11.7929V19.0346C11.7929 19.149 11.8854 19.2415 11.9998 19.2415C12.1142 19.2415 12.2067 19.149 12.2067 19.0346V18.8277V17.5863V15.8349L13.0456 15.2756C13.1031 15.2372 13.1377 15.1726 13.1377 15.1035ZM11.9998 15.4754L11.4417 15.1035L11.9998 14.7315L12.5578 15.1035L11.9998 15.4754Z" fill="#FFE15A"/>
</svg>
