<svg width="24" height="24" viewBox="0 0 24 24" fill="none" xmlns="http://www.w3.org/2000/svg">
<path d="M22.2026 19.8621H1.79742C0.804703 19.8621 0 19.0574 0 18.0646V5.93536C0 4.94269 0.804703 4.13794 1.79742 4.13794H22.2026C23.1952 4.13794 24 4.94264 24 5.93536V18.0647C24 19.0574 23.1953 19.8621 22.2026 19.8621Z" fill="#41479B"/>
<path d="M0.413813 12H1.13259L4.96556 9.48872V12H7.03453V9.48872L10.8675 12H11.5862C11.8148 12 12 11.8147 12 11.5862V11.258L8.71158 9.10346H12V7.03449H8.71148L12 4.87997V4.55175C12 4.32324 11.8148 4.13803 11.5863 4.13794H10.8674L7.03448 6.64922V4.13794H4.96552V6.64922L1.25831 4.22035C0.825469 4.35628 0.463594 4.65174 0.240609 5.03756L3.28856 7.03449H0V9.10346H3.28852L0 11.258V11.5862C0 11.8147 0.185297 12 0.413813 12Z" fill="#F5F5F5"/>
<path d="M12 7.4483H6.62067V4.13794H5.37933V7.4483H0V8.68964H5.37933V12H6.62067V8.68964H12V7.4483Z" fill="#FF4B55"/>
<path d="M0.385742 4.8235L3.79177 7.03445H4.5518L0.684805 4.52429C0.573758 4.61195 0.473398 4.7124 0.385742 4.8235Z" fill="#FF4B55"/>
<path d="M7.79446 7.03449L11.937 4.34546C11.865 4.22363 11.738 4.13794 11.5861 4.13794H11.4966L7.03442 7.03449H7.79446Z" fill="#FF4B55"/>
<path d="M4.19418 9.10352L0.0595703 11.7874C0.130867 11.9122 0.259867 12.0001 0.413898 12.0001H0.491945L4.95426 9.10352H4.19418Z" fill="#FF4B55"/>
<path d="M11.9934 11.6187L8.11843 9.10352H7.3584L11.7587 11.9598C11.8906 11.8987 11.981 11.7705 11.9934 11.6187Z" fill="#FF4B55"/>
<path d="M15.502 16.5184L15.3078 16.0652L15.4048 16.2918L15.3066 16.0657C15.3476 16.0477 16.3088 15.6091 16.3088 14.3195H16.8019C16.8019 15.9426 15.5551 16.4956 15.502 16.5184Z" fill="#E67346"/>
<path d="M15.6946 15.4156L15.3459 15.067C16.0125 14.4005 16.3588 14.2177 16.3961 14.199L16.6167 14.64L16.5064 14.4195L16.6186 14.639C16.6155 14.6407 16.3033 14.8069 15.6946 15.4156Z" fill="#EB7D4B"/>
<path d="M20.5685 16.5184L20.7627 16.0652L20.6656 16.2918L20.7638 16.0657C20.7229 16.0477 19.7616 15.6091 19.7616 14.3195H19.2686C19.2686 15.9426 20.5154 16.4956 20.5685 16.5184Z" fill="#E67346"/>
<path d="M20.3759 15.4156L20.7245 15.067C20.058 14.4005 19.7116 14.2177 19.6743 14.199L19.4538 14.64L19.5641 14.4195L19.4519 14.639C19.455 14.6407 19.7672 14.8069 20.3759 15.4156Z" fill="#EB7D4B"/>
<path d="M18.0346 7.90942H15.4048C15.4048 7.90942 15.4048 11.0323 15.4048 11.854C15.4048 12.6758 15.5692 14.8125 18.0346 15.6343C20.5 14.8125 20.6643 12.6759 20.6643 11.854C20.6643 11.0322 20.6643 7.90942 20.6643 7.90942H18.0346Z" fill="#4173CD"/>
<path d="M19.1851 8.89551H17.7721C17.6228 8.89551 17.478 8.84469 17.3614 8.75146L16.8098 8.31008C16.7514 8.26349 16.6791 8.23804 16.6044 8.23804H16.5554C16.3738 8.23804 16.2267 8.38518 16.2267 8.56672H15.9802C15.844 8.56672 15.7336 8.67712 15.7336 8.81324C15.7336 8.94937 15.844 9.05976 15.9802 9.05976H16.2267C16.3175 9.05976 16.3911 9.13335 16.3911 9.22415V10.046C16.3911 10.352 16.6011 10.6069 16.8841 10.6801V11.1965H17.2128L17.3361 10.7034H18.8565L19.0208 10.8678V11.1965H19.1852V10.7034H19.3496V11.1965H19.514V10.6578C19.6119 10.6009 19.6784 10.4961 19.6784 10.3747V9.38854C19.6782 9.11629 19.4574 8.89551 19.1851 8.89551Z" fill="#C8C8C8"/>
<path d="M16.2266 11.0322L16.5553 12.0184H19.5138L19.8425 11.0322H16.2266Z" fill="#73AF00"/>
<path d="M19.7855 11.6897C19.3473 11.6897 19.3473 12.0184 18.9092 12.0184C18.4711 12.0184 18.4711 11.6897 18.033 11.6897C17.595 11.6897 17.595 12.0184 17.157 12.0184C16.7188 12.0184 16.7188 11.6897 16.2806 11.6897C15.8434 11.6897 15.8423 12.0169 15.407 12.0183C15.4123 12.2014 15.4279 12.4253 15.4684 12.6728C15.843 12.6422 15.8652 12.3472 16.2807 12.3472C16.7188 12.3472 16.7188 12.6759 17.157 12.6759C17.595 12.6759 17.595 12.3472 18.0331 12.3472C18.4711 12.3472 18.4711 12.6759 18.9092 12.6759C19.3474 12.6759 19.3474 12.3472 19.7856 12.3472C20.2022 12.3472 20.224 12.6428 20.6005 12.6729C20.6409 12.4254 20.6566 12.2014 20.6619 12.0183C20.2245 12.0176 20.224 11.6897 19.7855 11.6897Z" fill="#F5F5F5"/>
<path d="M19.7854 12.3472C19.3473 12.3472 19.3473 12.6759 18.9091 12.6759C18.471 12.6759 18.471 12.3472 18.0329 12.3472C17.5949 12.3472 17.5949 12.6759 17.1569 12.6759C16.7187 12.6759 16.7187 12.3472 16.2806 12.3472C15.8651 12.3472 15.8429 12.6422 15.4683 12.6728C15.5004 12.8698 15.5487 13.0817 15.6194 13.2994C15.8592 13.2157 15.9291 13.0045 16.2805 13.0045C16.7187 13.0045 16.7187 13.3332 17.1568 13.3332C17.5948 13.3332 17.5948 13.0045 18.0329 13.0045C18.4709 13.0045 18.4709 13.3332 18.909 13.3332C19.3472 13.3332 19.3472 13.0045 19.7854 13.0045C20.138 13.0045 20.2077 13.2165 20.449 13.2999C20.5197 13.082 20.5681 12.87 20.6003 12.6729C20.224 12.6428 20.2021 12.3472 19.7854 12.3472Z" fill="#4173CD"/>
<path d="M19.7856 13.0045C19.3474 13.0045 19.3474 13.3332 18.9092 13.3332C18.4712 13.3332 18.4712 13.0045 18.0331 13.0045C17.5951 13.0045 17.5951 13.3332 17.157 13.3332C16.7189 13.3332 16.7189 13.0045 16.2807 13.0045C15.9293 13.0045 15.8593 13.2156 15.6196 13.2994C15.6763 13.4739 15.7481 13.6522 15.8378 13.8298C15.949 13.7465 16.0585 13.6619 16.2807 13.6619C16.7188 13.6619 16.7188 13.9906 17.157 13.9906C17.595 13.9906 17.595 13.6619 18.0331 13.6619C18.4711 13.6619 18.4711 13.9906 18.9092 13.9906C19.3474 13.9906 19.3474 13.6619 19.7856 13.6619C20.0091 13.6619 20.1188 13.7472 20.2306 13.8309C20.3206 13.653 20.3924 13.4746 20.4492 13.2999C20.2079 13.2164 20.1382 13.0045 19.7856 13.0045Z" fill="#F5F5F5"/>
<path d="M19.7857 13.662C19.3475 13.662 19.3475 13.9907 18.9093 13.9907C18.4712 13.9907 18.4712 13.662 18.0331 13.662C17.5951 13.662 17.5951 13.9907 17.1571 13.9907C16.719 13.9907 16.719 13.662 16.2808 13.662C16.0586 13.662 15.949 13.7465 15.8379 13.8299C15.9234 13.9992 16.0257 14.1677 16.1479 14.3317C16.1876 14.3242 16.231 14.3195 16.2808 14.3195C16.7189 14.3195 16.7189 14.6482 17.1571 14.6482C17.5951 14.6482 17.5951 14.3195 18.0331 14.3195C18.4712 14.3195 18.4712 14.6482 18.9093 14.6482C19.3475 14.6482 19.3475 14.3195 19.7857 14.3195C19.8363 14.3195 19.8806 14.3243 19.921 14.332C20.043 14.1683 20.1452 14.0001 20.2307 13.831C20.1189 13.7472 20.0092 13.662 19.7857 13.662Z" fill="#4173CD"/>
<path d="M19.9208 14.332C19.8805 14.3242 19.8362 14.3195 19.7855 14.3195C19.3473 14.3195 19.3473 14.6481 18.9091 14.6481C18.4711 14.6481 18.4711 14.3195 18.033 14.3195C17.595 14.3195 17.595 14.6481 17.1569 14.6481C16.7188 14.6481 16.7188 14.3195 16.2806 14.3195C16.2309 14.3195 16.1875 14.3241 16.1477 14.3316C16.4141 14.6892 16.7754 15.0245 17.2644 15.2973C17.5974 15.2481 17.6344 14.9769 18.0329 14.9769C18.4323 14.9769 18.4685 15.2493 18.8036 15.2976C19.2929 15.0249 19.6543 14.6896 19.9208 14.332Z" fill="#F5F5F5"/>
<path d="M18.117 11.6897H17.9526V14.4839H18.117V11.6897Z" fill="#FF965A"/>
<path d="M18.5273 12.1003H17.541V12.2647H18.5273V12.1003Z" fill="#FF965A"/>
<path d="M18.5273 13.0865H17.541V13.2509H18.5273V13.0865Z" fill="#FF965A"/>
<path d="M18.5273 12.2644H17.541V12.9146H18.5273V12.2644Z" fill="#FFE15A"/>
<path d="M17.9524 11.6897V12.0184L17.4592 11.8541L17.9524 11.6897Z" fill="#FF4B55"/>
<path d="M19.2125 11.6897H19.0481V13.6209H19.2125V11.6897Z" fill="#FF965A"/>
<path d="M19.6232 12.1003H18.637V12.2647H19.6232V12.1003Z" fill="#FF965A"/>
<path d="M19.6232 13.0865H18.637V13.2509H19.6232V13.0865Z" fill="#FF965A"/>
<path d="M19.6232 12.2644H18.637V12.9146H19.6232V12.2644Z" fill="#FFE15A"/>
<path d="M19.048 11.6897V12.0184L18.5549 11.8541L19.048 11.6897Z" fill="#FF4B55"/>
<path d="M17.014 11.6897H16.8496V13.6071H17.014V11.6897Z" fill="#FF965A"/>
<path d="M17.4252 12.1003H16.439V12.2647H17.4252V12.1003Z" fill="#FF965A"/>
<path d="M17.4252 13.0865H16.439V13.2509H17.4252V13.0865Z" fill="#FF965A"/>
<path d="M17.4252 12.2644H16.439V12.9146H17.4252V12.2644Z" fill="#FFE15A"/>
<path d="M16.8498 11.6897V12.0184L16.3567 11.8541L16.8498 11.6897Z" fill="#FF4B55"/>
<path d="M18.8563 13.4976C18.8563 13.9507 18.4876 14.3194 18.0344 14.3194C17.5813 14.3194 17.2126 13.9507 17.2126 13.4976H17.0482H16.8852L15.7721 13.2462L15.7358 13.4066L16.2265 13.5174V13.6619L16.5882 13.8066C16.7308 14.4743 17.3248 14.9767 18.0344 14.9767C18.7369 14.9767 19.3255 14.4839 19.4755 13.8262H20.0067V13.3332L18.8563 13.4976Z" fill="#FF965A"/>
<path d="M20.6643 7.90939C20.6643 7.90939 20.6643 11.0322 20.6643 11.854C20.6643 12.6758 20.4999 14.8125 18.0345 15.6343C15.5691 14.8125 15.4047 12.6758 15.4047 11.854C15.4047 11.0322 15.4047 7.90939 15.4047 7.90939H18.0345H20.6643ZM20.8286 7.745H20.6642H18.0344H15.4046H15.2402V7.90939V11.854C15.2402 13.8029 16.2141 15.2008 17.9824 15.7902L18.0344 15.8075L18.0863 15.7902C19.8547 15.2007 20.8285 13.8028 20.8285 11.854V7.90939L20.8286 7.745Z" fill="#F5F5F5"/>
<path d="M18.0344 16.4561C16.8247 16.4561 15.7028 16.0508 15.0334 15.372L15.5015 14.9104C16.05 15.4665 16.9969 15.7986 18.0345 15.7986C19.072 15.7986 20.0189 15.4666 20.5675 14.9104L21.0355 15.372C20.366 16.0508 19.2441 16.4561 18.0344 16.4561Z" fill="#FF965A"/>
</svg>
