<svg width="24" height="24" viewBox="0 0 24 24" fill="none" xmlns="http://www.w3.org/2000/svg">
<path d="M22.2026 19.8621H1.79742C0.804703 19.8621 0 19.0574 0 18.0646V5.93536C0 4.94269 0.804703 4.13794 1.79742 4.13794H22.2026C23.1952 4.13794 24 4.94264 24 5.93536V18.0647C24 19.0574 23.1953 19.8621 22.2026 19.8621Z" fill="#F5F5F5"/>
<path d="M18.7058 13.5941L18.8568 14.1239L19.3816 12.5641L17.9259 13.3316L18.473 13.396L16.7258 15.449L16.7106 15.4055L18.1061 12.516L18.386 12.9906L18.5001 11.3488L17.2853 12.4589L17.831 12.3831L16.4355 15.2726L16.3919 15.2878L16.9136 12.6429L17.3042 13.0314L17.0002 11.414L16.1049 12.7949L16.6138 12.5837L16.0513 15.4356L15.8676 15.8159L15.6698 15.9485L15.5884 16.3611L14.8965 17.1741L15.4366 17.1306L15.3386 17.6276L15.5297 17.4995L15.5481 17.7287L15.8764 17.3431L16.1781 17.7931L16.3848 16.7457L16.6573 16.4255L16.6382 16.188L16.8219 15.8077L18.7058 13.5941Z" fill="#4173CD"/>
<path d="M6.13678 12.0435C6.19612 11.7767 6.15932 11.5268 6.0577 11.3729C5.90034 11.4692 5.76112 11.68 5.70178 11.9468C5.67431 12.0704 5.66939 12.1893 5.68007 12.2978L5.3534 11.8107C5.48643 11.7022 5.60095 11.5165 5.65293 11.2828C5.71228 11.016 5.67548 10.766 5.57386 10.6121C5.4165 10.7085 5.27728 10.9193 5.21793 11.1861C5.18634 11.3282 5.18362 11.4642 5.20186 11.5848L4.98098 11.2555C4.99204 11.0883 4.94067 10.8849 4.81743 10.6911C4.67076 10.4604 4.46798 10.3097 4.28728 10.2727C4.2442 10.4521 4.29478 10.6996 4.44145 10.9302C4.56609 11.1262 4.73076 11.2596 4.8885 11.3194L5.0909 11.6554C4.98937 11.5878 4.86506 11.5326 4.72293 11.501C4.45612 11.4416 4.20614 11.4784 4.05225 11.58C4.14862 11.7374 4.35942 11.8766 4.62623 11.936C4.8599 11.988 5.0767 11.963 5.23134 11.8884L5.53401 12.3908C5.44021 12.3352 5.33053 12.2893 5.20692 12.2618C4.94011 12.2024 4.69012 12.2392 4.53623 12.3408C4.63261 12.4981 4.8434 12.6374 5.11021 12.6968C5.33386 12.7465 5.54212 12.7257 5.6955 12.6587L5.97417 13.1213C5.88801 13.0748 5.79211 13.0349 5.68345 13.0108C5.41664 12.9514 5.16665 12.9882 5.01276 13.0898C5.10914 13.2472 5.31993 13.3864 5.58675 13.4458C5.80059 13.4933 6.00103 13.477 6.15243 13.4172L6.42122 13.8633C6.34401 13.8255 6.26086 13.7924 6.16739 13.7716C5.90057 13.7123 5.65059 13.749 5.4967 13.8507C5.59307 14.008 5.80387 14.1473 6.07068 14.2066C6.2745 14.2519 6.46767 14.2405 6.61654 14.1875L6.86137 14.5938C6.79401 14.5641 6.72243 14.5381 6.64392 14.5207C6.37711 14.4613 6.12712 14.4981 5.97323 14.5997C6.06961 14.757 6.2804 14.8963 6.54721 14.9557C6.74161 14.9989 6.92606 14.99 7.07189 14.9432L7.84945 16.2338L8.17973 16.0238L7.34034 14.7724C7.4445 14.6601 7.53075 14.4968 7.57396 14.3025C7.63331 14.0356 7.59651 13.7857 7.49489 13.6318C7.33753 13.7281 7.19831 13.9389 7.13896 14.2058C7.12148 14.2843 7.11468 14.3601 7.11304 14.4337L6.84886 14.0398C6.9599 13.9274 7.0522 13.7573 7.09748 13.5534C7.15682 13.2866 7.12003 13.0366 7.0184 12.8828C6.86104 12.9791 6.72182 13.1899 6.66248 13.4567C6.64167 13.5502 6.63651 13.6395 6.63796 13.7254L6.3479 13.2929C6.46631 13.1811 6.56601 13.0065 6.61359 12.7927C6.67293 12.5259 6.63614 12.2759 6.53451 12.122C6.37715 12.2184 6.23793 12.4292 6.17859 12.696C6.15445 12.8046 6.1499 12.9084 6.15548 13.0061L5.85464 12.5576C5.97993 12.447 6.087 12.2672 6.13678 12.0435Z" fill="#73AF00"/>
<path d="M9.51727 12L9.10345 9.51724H9.03942C8.66381 9.51724 8.3985 9.14922 8.51733 8.79283L8.51869 8.78884C8.61361 8.50403 8.46281 8.19574 8.17973 8.09584L2.49816 6.09063C2.17612 5.97695 1.8728 6.30081 2.00733 6.61474L2.62345 8.05235C2.80073 8.46592 3.10795 8.81045 3.49861 9.03372L5.07469 9.93433C5.5455 10.2033 6.07833 10.3449 6.62058 10.3449H6.62067L6.76205 10.6276C7.18266 11.4687 8.04239 12 8.98275 12H9.51727Z" fill="#FFE15A"/>
<path d="M14.4829 12.0001L14.8967 9.51728H14.9608C15.3364 9.51728 15.6017 9.14927 15.4828 8.79288L15.4815 8.78889C15.3866 8.50408 15.5374 8.19578 15.8204 8.09589L21.4998 6.09143C21.8227 5.97743 22.1268 6.30222 21.9919 6.61699L21.3768 8.05235C21.1995 8.46593 20.8923 8.81046 20.5016 9.03372L18.9255 9.93433C18.4547 10.2033 17.9219 10.3449 17.3796 10.3449H17.3795L17.2381 10.6276C16.8175 11.4687 15.9578 12.0001 15.0175 12.0001H14.4829Z" fill="#FFE15A"/>
<path d="M13.6551 9.10346L12.6287 6.70847C12.4983 6.40416 12.1991 6.20691 11.8681 6.20691H11.5862L11.1724 6.62072H10.7585L10.3447 7.03453H10.9222C11.0686 7.03453 11.1673 7.18421 11.1096 7.31883L10.3447 9.1035H13.6551V9.10346Z" fill="#FFE15A"/>
<path d="M10.7586 13.2414L9.931 12L9.17312 12.7579C8.85517 13.0758 8.61559 13.4635 8.47342 13.89L8.27584 14.4827L7.86203 14.8965H7.32418C7.14662 14.8965 6.98425 14.9969 6.90484 15.1557L6.78817 15.3891C6.7112 15.543 6.82314 15.7241 6.99522 15.7241H7.86203L8.13793 15.1724L9.45714 14.5127C9.49693 14.4928 9.53322 14.4667 9.56467 14.4352L10.7586 13.2414Z" fill="#FFE15A"/>
<path d="M13.2415 13.2414L14.069 12L14.8269 12.7579C15.1449 13.0758 15.3844 13.4635 15.5266 13.89L15.7242 14.4827L16.138 14.8965H16.6758C16.8534 14.8965 17.0158 14.9969 17.0952 15.1557L17.2119 15.3891C17.2888 15.543 17.1769 15.7241 17.0048 15.7241H16.138L15.8621 15.1724L14.5429 14.5127C14.5031 14.4928 14.4669 14.4667 14.4354 14.4352L13.2415 13.2414Z" fill="#FFE15A"/>
<path d="M10.7587 13.6552L9.75302 15.3312C9.61736 15.5573 9.66668 15.8486 9.86922 16.0174L11.3964 17.29C11.746 17.5814 12.2539 17.5814 12.6036 17.29L14.1307 16.0174C14.3333 15.8485 14.3826 15.5573 14.2469 15.3312L13.2414 13.6552H10.7587Z" fill="#FFE15A"/>
<path d="M12.0001 8.6897C12.0001 8.6897 10.7587 9.10351 9.10352 8.6897C9.10352 8.6897 9.10352 9.51728 9.10352 10.3449C9.10352 11.1724 9.51733 13.6552 12.0001 14.4828C14.4828 13.6552 14.8966 11.1724 14.8966 10.3449C14.8966 9.51728 14.8966 8.6897 14.8966 8.6897C13.2415 9.10351 12.0001 8.6897 12.0001 8.6897Z" fill="#F5F5F5"/>
<path d="M12.0001 8.6897C12.0001 8.6897 10.7587 9.10351 9.10352 8.6897C9.10352 8.6897 9.10352 9.51728 9.10352 10.3449H14.8966C14.8966 9.51728 14.8966 8.6897 14.8966 8.6897C13.2415 9.10351 12.0001 8.6897 12.0001 8.6897Z" fill="#41479B"/>
<path d="M9.96874 12.992V10.3448H9.51733V12.1868C9.63462 12.4561 9.78199 12.729 9.96874 12.992Z" fill="#FF4B55"/>
<path d="M10.8716 10.3448H10.4202V13.521C10.5569 13.6564 10.7063 13.7853 10.8716 13.9053V10.3448Z" fill="#FF4B55"/>
<path d="M14.0315 12.992C14.2183 12.729 14.3656 12.4561 14.4829 12.1867V10.3448H14.0315V12.992Z" fill="#FF4B55"/>
<path d="M11.7744 10.3448H11.323V14.1854C11.4644 14.2616 11.615 14.331 11.7744 14.394V10.3448Z" fill="#FF4B55"/>
<path d="M13.5801 10.3448H13.1287V13.9053C13.2939 13.7853 13.4433 13.6564 13.5801 13.521V10.3448Z" fill="#FF4B55"/>
<path d="M12.6772 14.1854V10.3448H12.2258V14.394C12.3852 14.331 12.5359 14.2616 12.6772 14.1854Z" fill="#FF4B55"/>
<path d="M7.64933 15.2334L7.35547 15.4143L7.84916 16.2338L8.17944 16.0237L7.64933 15.2334Z" fill="#73AF00"/>
<path d="M16.8115 15.8296L16.5519 15.3104H16.0762L16.0516 15.4356L15.8679 15.8159L15.6701 15.9485L15.5886 16.3612L14.8967 17.1742L15.4369 17.1307L15.3389 17.6276L15.53 17.4995L15.5484 17.7288L15.8767 17.3431L16.1784 17.7932L16.385 16.7457L16.6576 16.4255L16.6385 16.188L16.8115 15.8296Z" fill="#4173CD"/>
<path d="M3.9607 10.3448H2.89663L2.99212 10.6313L2.3646 12.8276L1.73709 10.6313L1.83262 10.3448H0.768555L1.05505 10.7268L1.9281 13.7825L1.83262 14.069H2.89663L2.80115 13.7825L3.6742 10.7268L3.9607 10.3448Z" fill="#4173CD"/>
<path d="M21.9902 10.6109L22.1676 10.3448H21.9902H21.2809H21.1035L21.2809 10.6109V13.803L21.1035 14.069H21.2809H21.9902H22.1676L21.9902 13.803V10.6109Z" fill="#4173CD"/>
</svg>
