<svg width="24" height="24" viewBox="0 0 24 24" fill="none" xmlns="http://www.w3.org/2000/svg">
<path d="M22.2026 19.8621H1.79742C0.804703 19.8621 0 19.0574 0 18.0646V5.93536C0 4.94269 0.804703 4.13794 1.79742 4.13794H22.2026C23.1952 4.13794 24 4.94264 24 5.93536V18.0647C24 19.0574 23.1953 19.8621 22.2026 19.8621Z" fill="#FF4B55"/>
<path d="M1.79742 4.13794C0.804703 4.13794 0 4.94264 0 5.93536V18.0647C0 19.0574 0.804703 19.8622 1.79742 19.8622H8.68964V4.13794H1.79742Z" fill="#73AF00"/>
<path d="M8.69286 15.7209C10.7479 15.7209 12.4138 14.055 12.4138 12C12.4138 9.94497 10.7479 8.27905 8.69286 8.27905C6.63784 8.27905 4.97192 9.94497 4.97192 12C4.97192 14.055 6.63784 15.7209 8.69286 15.7209Z" fill="#FFE15A"/>
<path d="M9.93443 10.7586V12.4138C9.93443 13.0983 9.37756 13.6552 8.69304 13.6552C8.00852 13.6552 7.45165 13.0983 7.45165 12.4138V10.7586H9.93443ZM10.3482 9.93103H7.03784C6.80932 9.93103 6.62402 10.1163 6.62402 10.3448V12.4138C6.62402 13.5564 7.55037 14.4828 8.69299 14.4828C9.83562 14.4828 10.762 13.5564 10.762 12.4138V10.3448C10.762 10.1163 10.5767 9.93103 10.3482 9.93103Z" fill="#FF4B55"/>
<path d="M9.9342 10.7585V12.4137C9.9342 13.0982 9.37732 13.6551 8.69281 13.6551C8.00829 13.6551 7.45142 13.0982 7.45142 12.4137V10.7585H9.9342Z" fill="#F5F5F5"/>
<path d="M7.03454 10.5518C7.14881 10.5518 7.24145 10.4591 7.24145 10.3448C7.24145 10.2306 7.14881 10.1379 7.03454 10.1379C6.92027 10.1379 6.82764 10.2306 6.82764 10.3448C6.82764 10.4591 6.92027 10.5518 7.03454 10.5518Z" fill="#FFE15A"/>
<path d="M10.3448 10.5518C10.4591 10.5518 10.5518 10.4591 10.5518 10.3448C10.5518 10.2306 10.4591 10.1379 10.3448 10.1379C10.2306 10.1379 10.1379 10.2306 10.1379 10.3448C10.1379 10.4591 10.2306 10.5518 10.3448 10.5518Z" fill="#FFE15A"/>
<path d="M7.03454 12.2069C7.14881 12.2069 7.24145 12.1143 7.24145 12C7.24145 11.8857 7.14881 11.7931 7.03454 11.7931C6.92027 11.7931 6.82764 11.8857 6.82764 12C6.82764 12.1143 6.92027 12.2069 7.03454 12.2069Z" fill="#FFE15A"/>
<path d="M10.3448 12.2069C10.4591 12.2069 10.5518 12.1143 10.5518 12C10.5518 11.8857 10.4591 11.7931 10.3448 11.7931C10.2306 11.7931 10.1379 11.8857 10.1379 12C10.1379 12.1143 10.2306 12.2069 10.3448 12.2069Z" fill="#FFE15A"/>
<path d="M8.68982 10.5518C8.80409 10.5518 8.89672 10.4591 8.89672 10.3448C8.89672 10.2306 8.80409 10.1379 8.68982 10.1379C8.57555 10.1379 8.48291 10.2306 8.48291 10.3448C8.48291 10.4591 8.57555 10.5518 8.68982 10.5518Z" fill="#FFE15A"/>
<path d="M9.932 13.7327C10.0463 13.7327 10.1389 13.64 10.1389 13.5258C10.1389 13.4115 10.0463 13.3188 9.932 13.3188C9.81773 13.3188 9.7251 13.4115 9.7251 13.5258C9.7251 13.64 9.81773 13.7327 9.932 13.7327Z" fill="#FFE15A"/>
<path d="M7.4718 13.7327C7.58607 13.7327 7.67871 13.64 7.67871 13.5258C7.67871 13.4115 7.58607 13.3188 7.4718 13.3188C7.35753 13.3188 7.26489 13.4115 7.26489 13.5258C7.26489 13.64 7.35753 13.7327 7.4718 13.7327Z" fill="#FFE15A"/>
<path d="M8.9601 11.895V12.2514C8.9601 12.3987 8.84019 12.5186 8.69282 12.5186C8.54544 12.5186 8.42554 12.3987 8.42554 12.2514V11.895H8.9601Z" fill="#41479B"/>
<path d="M8.9601 11.0503V11.4066C8.9601 11.554 8.84019 11.6739 8.69282 11.6739C8.54544 11.6739 8.42554 11.554 8.42554 11.4066V11.0503H8.9601Z" fill="#41479B"/>
<path d="M8.9601 12.7485V13.1049C8.9601 13.2523 8.84019 13.3722 8.69282 13.3722C8.54544 13.3722 8.42554 13.2523 8.42554 13.1049V12.7485H8.9601Z" fill="#41479B"/>
<path d="M9.68007 11.895V12.2514C9.68007 12.3987 9.56016 12.5186 9.41279 12.5186C9.26541 12.5186 9.14551 12.3987 9.14551 12.2514V11.895H9.68007Z" fill="#41479B"/>
<path d="M8.24037 11.895V12.2514C8.24037 12.3987 8.12047 12.5186 7.97309 12.5186C7.82572 12.5186 7.70581 12.3987 7.70581 12.2514V11.895H8.24037Z" fill="#41479B"/>
</svg>
