<svg width="24" height="24" viewBox="0 0 24 24" fill="none" xmlns="http://www.w3.org/2000/svg">
<path d="M22.2026 19.8619H1.79742C0.804703 19.8619 0 19.0572 0 18.0645V5.93524C0 4.94257 0.804703 4.13782 1.79742 4.13782H22.2026C23.1952 4.13782 24 4.94252 24 5.93524V18.0646C24 19.0572 23.1953 19.8619 22.2026 19.8619Z" fill="#73AF00"/>
<path d="M7.44843 4.13794H3.3103V19.8622H7.44843V4.13794Z" fill="#FF4B55"/>
<path d="M7.03448 5.93086L6.2069 6.62048H4.5517L3.72412 5.93086V5.24119L4.5517 4.55151H6.2069L7.03448 5.24119V5.93086Z" fill="#F5F5F5"/>
<path d="M7.03448 11.724L6.2069 12.4137H4.5517L3.72412 11.724V11.0344L4.5517 10.3447H6.2069L7.03448 11.0344V11.724Z" fill="#73AF00"/>
<path d="M7.03448 8.82742L6.2069 9.51704H4.5517L3.72412 8.82742V8.13775L4.5517 7.44812H6.2069L7.03448 8.13775V8.82742Z" fill="#73AF00"/>
<path d="M7.03448 14.6205L6.2069 15.3102H4.5517L3.72412 14.6205V13.9308L4.5517 13.2412H6.2069L7.03448 13.9308V14.6205Z" fill="#73AF00"/>
<path d="M3.3103 6.20679L4.13788 7.03437L3.3103 7.86194V6.20679Z" fill="#FFB400"/>
<path d="M7.44818 7.86194L6.62061 7.03437L7.44818 6.20679V7.86194Z" fill="#FFB400"/>
<path d="M3.3103 9.10327L4.13788 9.93085L3.3103 10.7584V9.10327Z" fill="#FFB400"/>
<path d="M7.44818 10.7584L6.62061 9.93085L7.44818 9.10327V10.7584Z" fill="#FFB400"/>
<path d="M3.3103 11.9999L4.13788 12.8275L3.3103 13.655V11.9999Z" fill="#FFB400"/>
<path d="M7.44818 13.655L6.62061 12.8275L7.44818 11.9999V13.655Z" fill="#FFB400"/>
<path d="M3.3103 14.8965L4.13788 15.7241L3.3103 16.5516V14.8965Z" fill="#FFB400"/>
<path d="M7.44818 16.5516L6.62061 15.7241L7.44818 14.8965V16.5516Z" fill="#FFB400"/>
<path d="M3.3103 4.13782H4.13788L3.3103 4.9654V4.13782Z" fill="#FFB400"/>
<path d="M7.44818 4.9654L6.62061 4.13782H7.44818V4.9654Z" fill="#FFB400"/>
<path d="M5.58593 7.44836H5.17212V9.51743H5.58593V7.44836Z" fill="#FFB400"/>
<path d="M6.20667 8.27563H4.55151V8.68945H6.20667V8.27563Z" fill="#FF4B55"/>
<path d="M6.62055 7.79289L6.20679 7.44812V9.51704L6.62055 9.17223V7.79289Z" fill="#FFB400"/>
<path d="M4.13794 9.17223L4.5517 9.517V7.44812L4.13794 7.79289V9.17223Z" fill="#FFB400"/>
<path d="M5.37932 4.55151H4.5517L3.72412 5.24119V5.586H5.37932V4.55151Z" fill="#FFB400"/>
<path d="M5.37939 6.62042H6.20693L7.03455 5.9308V5.58594H5.37939V6.62042Z" fill="#FFB400"/>
<path d="M5.37938 6.20672L4.55176 5.58844L5.37938 4.96533L6.20696 5.58844L5.37938 6.20672Z" fill="#FF4B55"/>
<path d="M5.37939 6.20678L6.20697 5.5885L6.20369 5.58606H5.37939V6.20678Z" fill="#73AF00"/>
<path d="M5.37932 5.586V4.96533L4.55493 5.586H5.37932Z" fill="#73AF00"/>
<path d="M6.20667 10.7587H4.55151V12.0001H6.20667V10.7587Z" fill="#FF4B55"/>
<path d="M6.6206 11.172H6.20679V11.5858H6.6206V11.172Z" fill="#FFB400"/>
<path d="M5.58593 11.172H5.17212V11.5858H5.58593V11.172Z" fill="#F5F5F5"/>
<path d="M5.58593 13.655H5.17212V14.0688H5.58593V13.655Z" fill="#FF4B55"/>
<path d="M6.20703 14.069H5.79321V14.4828H6.20703V14.069Z" fill="#FFB400"/>
<path d="M4.96533 14.069H4.55151V14.4828H4.96533V14.069Z" fill="#FFB400"/>
<path d="M5.58593 14.4828H5.17212V14.8966H5.58593V14.4828Z" fill="#FF4B55"/>
<path d="M4.552 11.172H4.13818V11.5858H4.552V11.172Z" fill="#FFB400"/>
<path d="M7.03448 17.5172L6.2069 18.2068H4.5517L3.72412 17.5172V16.8274L4.5517 16.1378H6.2069L7.03448 16.8274V17.5172Z" fill="#F5F5F5"/>
<path d="M5.37932 16.1378H4.5517L3.72412 16.8274V17.1723H5.37932V16.1378Z" fill="#FFB400"/>
<path d="M5.37939 18.2067H6.20693L7.03455 17.5171V17.1722H5.37939V18.2067Z" fill="#FFB400"/>
<path d="M6.20696 17.3791L5.37938 17.7929L4.55176 17.3791V16.9653L5.37938 16.5515L6.20696 16.9653V17.3791Z" fill="#FF4B55"/>
<path d="M13.1254 6.39099C13.0813 6.36934 13.0414 6.42666 13.0772 6.46037C13.5454 6.90226 13.8414 7.52284 13.8414 8.21504C13.8414 9.57474 12.7484 10.6656 11.4045 10.6656C11.1565 10.6656 10.9175 10.6269 10.6922 10.5565C10.6455 10.5419 10.6152 10.6045 10.6555 10.6325C11.0484 10.9056 11.5219 11.0689 12.0389 11.0689C13.4006 11.0689 14.5133 9.97787 14.5133 8.59843C14.5133 7.62896 13.9443 6.79351 13.1254 6.39099Z" fill="#F5F5F5"/>
<path d="M9.75793 7.9874L9.65672 8.27376L9.89485 8.46225C9.92569 8.48667 9.90774 8.53626 9.86841 8.53523L9.5648 8.5274L9.45914 8.81212C9.44546 8.84901 9.39272 8.84723 9.38157 8.80954L9.29517 8.5184L8.99171 8.50589C8.95238 8.50429 8.9378 8.45358 8.97019 8.43131L9.22041 8.25919L9.13852 7.96669C9.12792 7.92881 9.17161 7.89923 9.20283 7.92319L9.44386 8.10797L9.69675 7.93968C9.72942 7.91793 9.77105 7.95037 9.75793 7.9874Z" fill="#F5F5F5"/>
<path d="M10.9877 8.6085L10.8865 8.89486L11.1246 9.08334C11.1554 9.10776 11.1375 9.15736 11.0981 9.15633L10.7945 9.1485L10.6889 9.43322C10.6752 9.47011 10.6225 9.46833 10.6113 9.43064L10.5249 9.1395L10.2214 9.12698C10.1821 9.12539 10.1675 9.07467 10.1999 9.0524L10.4501 8.88028L10.3683 8.58778C10.3577 8.5499 10.4013 8.52033 10.4326 8.54428L10.6736 8.72906L10.9265 8.56078C10.9591 8.53903 11.0007 8.57142 10.9877 8.6085Z" fill="#F5F5F5"/>
<path d="M10.9752 7.32908L10.874 7.61544L11.1121 7.80392C11.143 7.82834 11.125 7.87794 11.0857 7.87691L10.7821 7.86908L10.6764 8.1538C10.6627 8.19069 10.61 8.18891 10.5989 8.15122L10.5125 7.86008L10.209 7.84756C10.1697 7.84597 10.1551 7.79525 10.1875 7.77298L10.4377 7.60086L10.3558 7.30836C10.3452 7.27048 10.3889 7.24091 10.4201 7.26486L10.6611 7.44964L10.914 7.28136C10.9467 7.25952 10.9883 7.29195 10.9752 7.32908Z" fill="#F5F5F5"/>
<path d="M11.0172 6.09422L10.916 6.38058L11.1541 6.56906C11.185 6.59348 11.167 6.64308 11.1277 6.64204L10.8241 6.63422L10.7184 6.91893C10.7047 6.95583 10.652 6.95404 10.6408 6.91636L10.5545 6.62522L10.251 6.6127C10.2117 6.61111 10.1971 6.56039 10.2295 6.53812L10.4797 6.366L10.3978 6.0735C10.3872 6.03562 10.4309 6.00604 10.4621 6.03L10.7031 6.21478L10.956 6.0465C10.9887 6.0247 11.0304 6.05714 11.0172 6.09422Z" fill="#F5F5F5"/>
<path d="M12.222 6.71531L12.1208 7.00167L12.359 7.19015C12.3898 7.21457 12.3718 7.26417 12.3325 7.26314L12.0289 7.25531L11.9233 7.54003C11.9096 7.57692 11.8568 7.57514 11.8457 7.53745L11.7593 7.24631L11.4558 7.23379C11.4165 7.2322 11.4019 7.18148 11.4343 7.15922L11.6845 6.98709L11.6026 6.69459C11.592 6.65672 11.6357 6.62714 11.6669 6.65109L11.908 6.83587L12.1609 6.66759C12.1935 6.64584 12.2352 6.67828 12.222 6.71531Z" fill="#F5F5F5"/>
</svg>
