<svg width="24" height="24" viewBox="0 0 24 24" fill="none" xmlns="http://www.w3.org/2000/svg">
<path d="M22.2026 19.8621H1.79742C0.804703 19.8621 0 19.0574 0 18.0646V5.93536C0 4.94269 0.804703 4.13794 1.79742 4.13794H22.2026C23.1952 4.13794 24 4.94264 24 5.93536V18.0647C24 19.0574 23.1953 19.8621 22.2026 19.8621Z" fill="#F5F5F5"/>
<path d="M22.2026 4.13794H1.79742C0.804703 4.13794 0 4.94264 0 5.93536V12H24V5.93536C24 4.94264 23.1953 4.13794 22.2026 4.13794Z" fill="#FF4B55"/>
<path d="M0 12H24V19.4483C24 19.6768 23.8147 19.8621 23.5862 19.8621H0.413813C0.185297 19.8621 0 19.6768 0 19.4483V12Z" fill="#F5F5F5"/>
<path d="M3.4016 8.07478C3.4016 6.71409 4.40004 5.58614 5.70378 5.37745C5.77456 5.3661 5.77774 5.26874 5.7079 5.25262C5.38512 5.17842 5.04232 5.15728 4.68635 5.20574C3.2802 5.39728 2.19326 6.61415 2.17339 8.03315C2.15075 9.65343 3.45696 10.9728 5.06956 10.9728C5.28907 10.9728 5.50221 10.9471 5.70734 10.8999C5.77714 10.8839 5.77362 10.7863 5.70293 10.775C4.39971 10.5665 3.4016 9.44081 3.4016 8.07478Z" fill="#F5F5F5"/>
<path d="M5.7253 8.80283L5.60282 9.17014L5.21568 9.17314C5.16557 9.17356 5.14475 9.2375 5.18511 9.26726L5.49655 9.49728L5.37974 9.86642C5.36464 9.91423 5.41907 9.95375 5.4598 9.92459L5.7748 9.69945L6.0898 9.92459C6.13058 9.95375 6.18496 9.91418 6.16986 9.86642L6.05305 9.49728L6.36449 9.26726C6.40485 9.23745 6.38403 9.17356 6.33393 9.17314L5.94678 9.17014L5.8243 8.80283C5.80841 8.75534 5.74114 8.75534 5.7253 8.80283Z" fill="#F5F5F5"/>
<path d="M7.63912 8.80283L7.51663 9.17014L7.12949 9.17314C7.07938 9.17356 7.05857 9.2375 7.09893 9.26726L7.41037 9.49728L7.29356 9.86642C7.27846 9.91423 7.33288 9.95375 7.37362 9.92459L7.68862 9.69945L8.00362 9.92459C8.0444 9.95375 8.09878 9.91418 8.08368 9.86642L7.96687 9.49728L8.27831 9.26726C8.31867 9.23745 8.29785 9.17356 8.24774 9.17314L7.8606 9.17014L7.73812 8.80283C7.72223 8.75534 7.65501 8.75534 7.63912 8.80283Z" fill="#F5F5F5"/>
<path d="M6.69088 5.84949L6.56839 6.2168L6.18125 6.2198C6.13114 6.22018 6.11033 6.28416 6.15069 6.31393L6.46213 6.54394L6.34531 6.91309C6.33022 6.9609 6.38464 7.00041 6.42538 6.97126L6.74038 6.74612L7.05538 6.97126C7.09616 7.00041 7.15053 6.96085 7.13544 6.91309L7.01863 6.54394L7.33006 6.31393C7.37042 6.28412 7.34961 6.22023 7.2995 6.2198L6.91236 6.2168L6.78988 5.84949C6.77399 5.80196 6.70672 5.80196 6.69088 5.84949Z" fill="#F5F5F5"/>
<path d="M5.165 6.981L5.04251 7.34831L4.65537 7.35131C4.60526 7.35168 4.58445 7.41567 4.62481 7.44543L4.93625 7.67545L4.81944 8.04459C4.80434 8.0924 4.85876 8.13192 4.8995 8.10276L5.2145 7.87762L5.5295 8.10276C5.57028 8.13192 5.62465 8.09236 5.60956 8.04459L5.49275 7.67545L5.80423 7.44543C5.84459 7.41562 5.82378 7.35173 5.77367 7.35131L5.38653 7.34831L5.26404 6.981C5.24811 6.93342 5.18084 6.93342 5.165 6.981Z" fill="#F5F5F5"/>
<path d="M8.20382 6.981L8.08133 7.34831L7.69419 7.35131C7.64408 7.35168 7.62327 7.41567 7.66363 7.44543L7.97507 7.67545L7.85825 8.04459C7.84316 8.0924 7.89758 8.13192 7.93832 8.10276L8.25332 7.87762L8.56832 8.10276C8.6091 8.13192 8.66347 8.09236 8.64838 8.04459L8.53157 7.67545L8.843 7.44543C8.88336 7.41562 8.86255 7.35173 8.81244 7.35131L8.4253 7.34831L8.30282 6.981C8.28693 6.93342 8.21966 6.93342 8.20382 6.981Z" fill="#F5F5F5"/>
</svg>
