<svg width="24" height="24" viewBox="0 0 24 24" fill="none" xmlns="http://www.w3.org/2000/svg">
<path d="M0 18.0646C0 19.0573 0.804703 19.8621 1.79742 19.8621H22.2026C23.1952 19.8621 24 19.0574 24 18.0646V15.7241H0V18.0646Z" fill="#73AF00"/>
<path d="M22.2026 4.13794H1.79742C0.804703 4.13794 0 4.94264 0 5.93536V8.27588H24V5.93536C24 4.94264 23.1953 4.13794 22.2026 4.13794Z" fill="#FF4B55"/>
<path d="M24 8.27576H0V15.7242H24V8.27576Z" fill="#464655"/>
<path d="M14.3465 10.6609L14.9693 11.4755L15.9417 11.15C15.9961 11.1318 16.0423 11.1933 16.0098 11.2405L15.4274 12.0845L16.0375 12.9087C16.0715 12.9548 16.0274 13.0178 15.9724 13.0014L14.9898 12.7084L14.3944 13.5433C14.3611 13.59 14.2876 13.5674 14.2862 13.5101L14.2612 12.485L13.2832 12.1768C13.2285 12.1596 13.2272 12.0827 13.2813 12.0636L14.2485 11.7231L14.2395 10.6977C14.239 10.6403 14.3117 10.6153 14.3465 10.6609Z" fill="#F5F5F5"/>
<path d="M12.6563 14.0109C11.5467 14.0109 10.6465 13.1107 10.6465 12C10.6465 10.8914 11.5466 9.98922 12.6563 9.98922C13.0692 9.98922 13.4499 10.1162 13.7672 10.3311C13.8158 10.364 13.8713 10.3002 13.8306 10.2579C13.3564 9.76492 12.6852 9.46412 11.9411 9.48953C10.6626 9.53312 9.60429 10.5581 9.52263 11.8347C9.42907 13.297 10.5868 14.5121 12.0283 14.5121C12.7384 14.5121 13.3766 14.2153 13.8323 13.7406C13.8725 13.6987 13.817 13.6358 13.7689 13.6684C13.4512 13.8837 13.0699 14.0109 12.6563 14.0109Z" fill="#F5F5F5"/>
</svg>
