<svg width="24" height="24" viewBox="0 0 24 24" fill="none" xmlns="http://www.w3.org/2000/svg">
<path d="M22.2026 19.8621H1.79742C0.804703 19.8621 0 19.0574 0 18.0646V5.93536C0 4.94269 0.804703 4.13794 1.79742 4.13794H22.2026C23.1952 4.13794 24 4.94264 24 5.93536V18.0647C24 19.0574 23.1953 19.8621 22.2026 19.8621Z" fill="#41479B"/>
<path d="M22.345 17.3793H5.79321C5.56469 17.3793 5.37939 17.194 5.37939 16.9654C5.37939 16.7369 5.56469 16.5516 5.79321 16.5516H22.345L22.7588 16.9654L22.345 17.3793Z" fill="#FFE15A"/>
<path d="M22.5518 16.1379H5.79321C5.79321 16.1379 12.4139 8.68958 18.6208 7.03442C18.6208 7.03442 16.5518 12.4138 21.5173 15.7241H22.5518C22.6661 15.7241 22.7587 15.8167 22.7587 15.931C22.7587 16.0453 22.6662 16.1379 22.5518 16.1379Z" fill="#FFE15A"/>
<path d="M5.07018 13.7424L5.23072 14.2239L5.73819 14.2278C5.80386 14.2283 5.83114 14.3122 5.77827 14.3512L5.36999 14.6527L5.52308 15.1365C5.54291 15.1992 5.47157 15.251 5.41813 15.2128L5.00525 14.9177L4.59238 15.2128C4.53894 15.251 4.4676 15.1992 4.48743 15.1365L4.64052 14.6527L4.23224 14.3512C4.17936 14.3122 4.20664 14.2283 4.27232 14.2278L4.77979 14.2239L4.94033 13.7424C4.96119 13.6801 5.04941 13.6801 5.07018 13.7424Z" fill="#F5F5F5"/>
<path d="M5.05784 7.12359L5.18806 7.51415L5.59976 7.51734C5.65311 7.51776 5.67518 7.58578 5.63229 7.61742L5.30112 7.86201L5.42529 8.25454C5.44137 8.3054 5.38348 8.3474 5.34017 8.31642L5.0052 8.07698L4.67023 8.31642C4.62687 8.3474 4.56903 8.30536 4.58511 8.25454L4.70928 7.86201L4.37811 7.61742C4.33522 7.58578 4.35729 7.51776 4.41064 7.51734L4.82234 7.51415L4.95256 7.12359C4.96943 7.07306 5.04097 7.07306 5.05784 7.12359Z" fill="#F5F5F5"/>
<path d="M1.9387 9.5405L2.06892 9.93106L2.48062 9.93425C2.53397 9.93467 2.55604 10.0027 2.51315 10.0343L2.18198 10.2789L2.30615 10.6715C2.32223 10.7223 2.26434 10.7643 2.22103 10.7333L1.88606 10.4939L1.55109 10.7333C1.50773 10.7643 1.44989 10.7223 1.46597 10.6715L1.59014 10.2789L1.25897 10.0343C1.21608 10.0027 1.23815 9.93467 1.2915 9.93425L1.7032 9.93106L1.83342 9.5405C1.85034 9.48992 1.92187 9.48992 1.9387 9.5405Z" fill="#F5F5F5"/>
<path d="M7.28853 9.3757L7.38875 9.67626L7.70558 9.6787C7.7466 9.67903 7.76361 9.73134 7.73061 9.75572L7.47571 9.94392L7.57128 10.246C7.58366 10.2851 7.53913 10.3175 7.50575 10.2936L7.24804 10.1093L6.99032 10.2936C6.95694 10.3174 6.91241 10.2851 6.92479 10.246L7.02036 9.94392L6.76546 9.75572C6.73246 9.73134 6.74947 9.67903 6.79049 9.6787L7.10732 9.67626L7.20754 9.3757C7.22052 9.33684 7.27555 9.33684 7.28853 9.3757Z" fill="#F5F5F5"/>
</svg>
