<svg width="24" height="24" viewBox="0 0 24 24" fill="none" xmlns="http://www.w3.org/2000/svg">
<path d="M22.2026 4.13794H1.79742C0.804703 4.13794 0 4.94264 0 5.93536V18.0647C0 19.0574 0.804703 19.8621 1.79742 19.8621H22.2026C23.1952 19.8621 24 19.0574 24 18.0647V5.93536C24 4.94264 23.1953 4.13794 22.2026 4.13794Z" fill="#FF4B55"/>
<path d="M10.2714 10.8674C10.3598 10.7327 10.4646 10.611 10.5811 10.5008C10.5808 10.5009 10.5806 10.5012 10.5803 10.5014L4.5518 4.13794H1.79752C1.35755 4.13794 0.954709 4.29628 0.642334 4.55874L10.2714 10.8674Z" fill="#FFE15A"/>
<path d="M9.95241 12.212C9.94509 12.1413 9.93103 12.0727 9.93103 12.0001C9.93103 11.9274 9.94509 11.8588 9.95241 11.7881V11.7882L0 10.7587V13.2414L9.95241 12.2119V12.212Z" fill="#FFE15A"/>
<path d="M11.9999 9.93103C12.1101 9.93103 12.216 9.94688 12.3215 9.96342L13.2413 4.13794H10.7585L11.6784 9.96342C11.7838 9.94688 11.8898 9.93103 11.9999 9.93103Z" fill="#FFE15A"/>
<path d="M13.4189 10.5008C13.5355 10.6111 13.6403 10.7327 13.7286 10.8674L23.3578 4.55874C23.0453 4.29628 22.6425 4.13794 22.2026 4.13794H19.4482L13.4197 10.5014C13.4195 10.5012 13.4191 10.501 13.4189 10.5008Z" fill="#FFE15A"/>
<path d="M13.7286 13.1327C13.6402 13.2674 13.5355 13.3891 13.4189 13.4993C13.4192 13.4992 13.4195 13.4989 13.4197 13.4987L19.4482 19.8622H22.2026C22.6425 19.8622 23.0454 19.7038 23.3578 19.4414L13.7286 13.1327Z" fill="#FFE15A"/>
<path d="M14.0476 11.7881C14.0549 11.8587 14.069 11.9274 14.069 12.0001C14.069 12.0727 14.0549 12.1413 14.0476 12.212V12.2119L24 13.2414V10.7587L14.0476 11.7882V11.7881Z" fill="#FFE15A"/>
<path d="M11.9999 14.069C11.8898 14.069 11.7838 14.0532 11.6784 14.0366L10.7585 19.8621H13.2413L12.3215 14.0366C12.216 14.0532 12.1101 14.069 11.9999 14.069Z" fill="#FFE15A"/>
<path d="M10.5809 13.4993C10.4644 13.389 10.3596 13.2674 10.2712 13.1327L0.64209 19.4414C0.954512 19.7038 1.35731 19.8622 1.79728 19.8622H4.55161L10.5801 13.4987C10.5804 13.4989 10.5807 13.4991 10.5809 13.4993Z" fill="#FFE15A"/>
<path d="M11.9999 13.6552C12.914 13.6552 13.655 12.9141 13.655 12C13.655 11.0859 12.914 10.3448 11.9999 10.3448C11.0858 10.3448 10.3447 11.0859 10.3447 12C10.3447 12.9141 11.0858 13.6552 11.9999 13.6552Z" fill="#FFE15A"/>
</svg>
