<svg width="24" height="24" viewBox="0 0 24 24" fill="none" xmlns="http://www.w3.org/2000/svg">
<path d="M23.1725 4.96545H0.827637V19.0345H23.1725V4.96545Z" fill="#F5F5F5"/>
<path d="M22.2026 4.13794H1.79742C0.804703 4.13794 0 4.94264 0 5.93536V18.0647C0 19.0574 0.804703 19.8622 1.79742 19.8622H22.2026C23.1952 19.8622 24 19.0575 24 18.0647V5.93536C24 4.94264 23.1953 4.13794 22.2026 4.13794ZM23.1724 19.0345H0.827578V4.96552H23.1724V19.0345Z" fill="#F5F5F5"/>
<path d="M15.3951 15.2252C15.7428 15.2252 16.0247 14.9432 16.0247 14.5955C16.0247 14.2477 15.7428 13.9658 15.3951 13.9658C15.0473 13.9658 14.7654 14.2477 14.7654 14.5955C14.7654 14.9432 15.0473 15.2252 15.3951 15.2252Z" fill="#F5F5F5"/>
<path d="M16.5002 10.9801C16.0367 11.3697 15.7251 11.3861 15.7251 11.3861C16.5494 11.0498 16.4633 10.4101 16.4633 10.4101C16.0737 10.9227 15.6759 11.0662 15.6759 11.0662C16.5043 10.5044 16.373 9.74979 16.373 9.74979C16.1024 10.3486 15.76 10.5823 15.76 10.5823C16.4489 9.6657 16.1106 9.07516 16.1106 9.07516C15.8399 9.92407 15.6123 10.1702 15.6123 10.1702C16.1413 8.75529 15.6882 8.34724 15.6882 8.34724C15.6882 9.10591 15.4052 9.54063 15.4052 9.54063C15.7005 8.53999 15.2371 7.96582 15.2371 7.96582C15.2371 7.96582 15.2327 8.78163 15.0756 9.20895C15.0379 9.15166 15.0156 9.15926 15.0156 9.15926C14.9357 9.68327 14.6541 10.0522 14.5325 10.191C14.5055 10.0604 14.4243 10.0204 14.4243 10.0204C14.4243 10.0204 14.4097 10.1486 14.2946 10.3377C14.2193 10.4616 13.8632 10.7505 13.8058 11.0047C13.7598 11.2086 13.9616 11.3779 14.0272 11.4189C14.0928 11.4599 14.1625 11.5338 14.1338 11.6526C14.1051 11.7716 13.8918 11.7592 13.7401 11.7551C13.5884 11.7511 13.5679 12.0012 13.3997 11.993L13.3712 12.1796L13.3053 12.194C13.3053 12.194 12.6164 13.5669 12.5577 14.0341L12.0504 14.101L11.5431 14.0341C11.4844 13.5669 10.7955 12.194 10.7955 12.194L10.7296 12.1796L10.7011 11.993C10.533 12.0012 10.5125 11.7511 10.3607 11.7551C10.2089 11.7592 9.99569 11.7716 9.967 11.6526C9.93831 11.5337 10.008 11.4598 10.0736 11.4189C10.1392 11.3779 10.3411 11.2085 10.295 11.0047C10.2376 10.7504 9.88155 10.4616 9.80617 10.3377C9.69114 10.1486 9.67652 10.0204 9.67652 10.0204C9.67652 10.0204 9.59533 10.0604 9.56833 10.191C9.44678 10.0521 9.16516 9.68327 9.08528 9.15926C9.08528 9.15926 9.06297 9.15171 9.02528 9.20895C8.86816 8.78159 8.8638 7.96582 8.8638 7.96582C8.8638 7.96582 8.40039 8.53995 8.69566 9.54063C8.69566 9.54063 8.41267 9.10596 8.41267 8.34724C8.41267 8.34724 7.95953 8.75529 8.48856 10.1702C8.48856 10.1702 8.26098 9.92412 7.99028 9.07516C7.99028 9.07516 7.65194 9.6657 8.34091 10.5823C8.34091 10.5823 7.99848 10.3486 7.72783 9.74979C7.72783 9.74979 7.59663 10.5044 8.425 11.0662C8.425 11.0662 8.02717 10.9227 7.63759 10.4101C7.63759 10.4101 7.55148 11.0499 8.37578 11.3861C8.37578 11.3861 8.06411 11.3697 7.6007 10.9801C7.6007 10.9801 7.51867 11.5461 8.59314 11.8372C8.59314 11.8372 8.1543 11.829 7.7073 11.5296C7.7073 11.5296 7.69497 12.0874 8.61363 12.1981C8.61363 12.1981 8.31016 12.2432 7.96975 12.1202C7.96975 12.1202 7.98208 12.5713 8.78177 12.6287C8.78177 12.6287 8.46597 12.6533 8.26094 12.6041C8.26094 12.6041 8.28142 13.0675 8.91302 12.9896C8.91302 12.9896 8.69973 13.0593 8.63003 13.0798C8.63003 13.0798 8.64236 13.4581 9.30053 13.3228C9.30053 13.3228 9.18363 13.3956 9.02369 13.4202C9.02369 13.4202 9.15902 13.736 9.70858 13.5965L9.5958 13.7196C9.5958 13.7196 10.0203 13.9656 10.3463 13.6273L10.2294 13.8364C10.2294 13.8364 10.5062 13.941 10.6784 13.6704C10.6784 13.6704 10.6313 14.0764 10.0571 14.1502C10.0571 14.1502 10.0776 14.2363 10.1022 14.2691C10.1022 14.2691 10.0653 14.3389 9.73309 14.3963C9.73309 14.3963 9.8028 14.5029 9.87663 14.5357C9.87663 14.5357 9.73309 14.6588 9.65519 14.6833C9.65519 14.6833 9.77824 14.7448 9.85614 14.7572C9.85614 14.7572 9.68392 14.9253 9.47064 14.9294C9.25736 14.9335 8.87603 14.9089 8.87603 14.9089C8.87603 14.9089 8.87195 14.7038 8.77352 14.5274C8.67508 14.3511 8.64231 14.3378 8.64231 14.3378C8.64231 14.3378 8.66383 14.1963 8.60233 14.1379C8.54083 14.0794 8.50698 14.0517 8.50698 14.0517C8.50698 14.0517 8.5398 13.7688 8.44956 13.5924C8.35938 13.4161 8.03945 13.0306 8.02305 12.7435C8.00664 12.4564 8.01897 12.3498 8.01897 12.3498L7.92053 12.3744L7.85491 12.2391L7.96563 12.2268L7.92053 12.0217L7.76875 12.0791L7.74822 11.9028L7.5678 11.9766L7.65798 12.1366L7.49805 12.1817L7.59241 12.3703L7.71545 12.2924L7.74827 12.4564C7.74827 12.4564 7.67444 12.4728 7.63342 12.5384C7.63342 12.5384 7.83634 12.6731 7.89588 12.8337C7.99024 13.088 7.9615 13.6622 8.09683 13.8344C8.23216 14.0066 8.3388 14.1255 8.3388 14.1255C8.3388 14.1255 8.30088 14.2424 8.34391 14.307C8.38699 14.3716 8.44848 14.39 8.44848 14.39C8.44848 14.39 8.41155 14.6515 8.50694 14.8237C8.60228 14.9959 8.65764 15.0391 8.65764 15.0391C8.65764 15.0391 8.31006 15.2513 8.55616 15.4974C8.55616 15.4974 8.52334 15.7209 8.75711 15.7742C8.75711 15.7742 8.76944 15.9506 8.97039 15.9301C8.97039 15.9301 9.06883 15.9014 9.09344 15.9506C9.11805 15.9998 9.09344 16.2828 9.09344 16.2828C9.09344 16.2828 9.18363 16.2746 9.24105 16.2336L9.42147 16.3238L9.42555 16.1228L9.65111 16.0326C9.65111 16.0326 9.55267 16.049 9.35172 15.8604C9.35172 15.8604 9.38453 15.8399 9.40914 15.6799C9.40914 15.6799 9.56908 15.5528 9.60194 15.4503C9.63475 15.3478 9.86031 15.1222 10.1228 15.0484L10.1587 15.2083C10.1587 15.2083 10.534 14.8762 10.6908 14.8577L10.8199 15.0279C10.8199 15.0279 11.3039 14.3102 11.5171 14.183C11.5007 14.2405 11.6196 14.2487 11.3551 14.5439C11.0906 14.8392 11.2546 15.073 11.2546 15.073C11.0906 15.2083 11.1234 15.3313 11.1028 15.4708C11.0823 15.6102 10.5369 15.9711 10.5369 15.9711C10.7091 16.1885 10.9019 16.1393 10.9019 16.1393C10.7952 16.209 10.828 16.4427 10.828 16.4427C10.9839 16.4838 11.1397 16.4141 11.1397 16.4141C11.0864 16.5617 11.1684 16.6642 11.1684 16.6642C11.2668 16.6027 11.4924 16.5657 11.4924 16.5657C11.4637 16.82 11.6277 16.9553 11.6277 16.9553L11.7713 16.7995C11.7959 17.0865 12.0502 17.2506 12.0502 17.2506C12.0502 17.2506 12.3045 17.0865 12.3291 16.7995L12.4726 16.9553C12.4726 16.9553 12.6367 16.82 12.6079 16.5657C12.6079 16.5657 12.8335 16.6027 12.9319 16.6642C12.9319 16.6642 13.014 16.5617 12.9606 16.4141C12.9606 16.4141 13.1165 16.4838 13.2723 16.4427C13.2723 16.4427 13.3051 16.209 13.1985 16.1393C13.1985 16.1393 13.3913 16.1884 13.5635 15.9711C13.5635 15.9711 13.018 15.6102 12.9975 15.4708C12.977 15.3313 13.0098 15.2083 12.8457 15.073C12.8457 15.073 13.0098 14.8392 12.7452 14.5439C12.4807 14.2486 12.5996 14.2404 12.5832 14.183C12.7965 14.3102 13.2804 15.0279 13.2804 15.0279L13.4096 14.8577C13.5665 14.8762 13.9417 15.2083 13.9417 15.2083L13.9776 15.0484L13.9844 15.041C14.18 15.1464 14.5032 15.2889 14.6338 15.3887C14.7732 15.4954 14.8881 15.5036 15.2243 15.3887C15.5606 15.2739 16.1863 15.0973 16.0938 14.8884C16.0887 14.877 16.083 14.8693 16.0774 14.8604C16.0921 14.8065 16.0982 14.7123 15.9994 14.63C15.9994 14.63 16.0006 14.6529 15.9998 14.6824L15.6792 14.5629C15.6686 14.5345 15.6528 14.5067 15.6221 14.4824C15.6221 14.4824 15.6226 14.507 15.6182 14.5402L15.536 14.5095L15.7001 14.0479C15.6877 14.0409 15.6737 14.037 15.6608 14.0309C15.6641 13.9891 15.672 13.9313 15.6842 13.8709C15.7243 13.8849 15.7609 13.9022 15.7875 13.9239L15.8338 13.7549C15.8338 13.7549 15.784 13.7516 15.7183 13.7393C15.7349 13.6883 15.7546 13.6425 15.778 13.6129L15.5606 13.5473C15.5606 13.5473 15.5662 13.6132 15.5624 13.6954C15.5209 13.6785 15.4813 13.6571 15.4494 13.6298L15.3984 13.8174C15.4159 13.8184 15.4752 13.8235 15.544 13.8358C15.5316 13.8909 15.5097 13.9397 15.4783 13.9764C15.4706 13.9753 15.4634 13.9725 15.4555 13.9718L15.2962 14.4201L14.864 14.2591C14.8455 14.2882 14.8312 14.32 14.8178 14.3522C14.8201 14.3475 14.8222 14.3402 14.8246 14.3372C14.8246 14.3372 14.6574 14.4247 14.6597 14.5532C14.6289 14.5648 14.6019 14.5879 14.5867 14.628C14.5375 14.7572 14.8389 15.0463 14.7651 15.0832C14.6926 15.1194 14.314 14.8076 14.2533 14.7552C14.3313 14.7401 14.4452 14.6834 14.4452 14.6834C14.3673 14.6588 14.2238 14.5358 14.2238 14.5358C14.2976 14.503 14.3673 14.3963 14.3673 14.3963C14.0351 14.3389 13.9982 14.2692 13.9982 14.2692C14.0228 14.2364 14.0433 14.1503 14.0433 14.1503C13.4692 14.0764 13.422 13.6704 13.422 13.6704C13.5942 13.9411 13.871 13.8365 13.871 13.8365L13.7541 13.6273C14.0801 13.9657 14.5046 13.7196 14.5046 13.7196L14.3918 13.5966C14.9413 13.736 15.0767 13.4202 15.0767 13.4202C14.9168 13.3956 14.7999 13.3228 14.7999 13.3228C15.4581 13.4582 15.4704 13.0798 15.4704 13.0798C15.4007 13.0593 15.1874 12.9896 15.1874 12.9896C15.8189 13.0676 15.8395 12.6041 15.8395 12.6041C15.6344 12.6533 15.3186 12.6288 15.3186 12.6288C16.1183 12.5713 16.1306 12.1203 16.1306 12.1203C15.7902 12.2433 15.4868 12.1982 15.4868 12.1982C16.4054 12.0874 16.3931 11.5297 16.3931 11.5297C15.9461 11.8291 15.5073 11.8373 15.5073 11.8373C16.5822 11.546 16.5002 10.9801 16.5002 10.9801ZM15.5682 15.037C15.5244 14.9659 15.6288 14.9022 15.6758 14.8345L15.8576 14.9021C15.7959 14.9758 15.6134 15.1104 15.5682 15.037ZM15.4467 14.7491C15.3878 14.8405 15.3468 14.943 15.1652 14.9479C14.9377 14.954 14.9007 14.751 14.8516 14.6403C14.8372 14.608 14.8125 14.5836 14.7841 14.5669C14.784 14.547 14.785 14.5252 14.7867 14.5031L15.4467 14.7491Z" fill="#F5F5F5"/>
<path d="M11.983 10.4162C11.983 10.4162 11.6908 10.1671 11.6047 10.0317C11.6047 10.0317 11.7031 9.99175 11.7523 9.93025C11.7523 9.93025 11.4878 9.78879 11.3463 9.64422C11.3463 9.64422 11.4386 9.62885 11.5093 9.57039C11.5093 9.57039 11.2718 9.52746 11.1513 9.33293C11.4259 9.23913 11.334 8.98291 11.334 8.98291C11.2786 9.05674 11.051 9.14899 10.805 9.04441C10.5589 8.93983 10.2883 9.01361 10.2883 9.14899C10.2883 9.14899 9.73463 8.98905 9.87305 9.52427C9.87305 9.52427 9.9622 9.32435 10.1591 9.39818C10.356 9.472 10.5559 9.72419 10.5559 9.72419C10.5559 9.72419 10.4328 9.79183 10.2053 9.71805C10.2053 9.71805 10.2975 10.0717 10.7128 9.89336C10.7128 9.89336 10.8768 9.98154 10.885 10.2399C10.885 10.2399 10.9547 10.203 10.9998 10.121C10.9998 10.121 11.0655 10.3711 10.9793 10.5762C10.9793 10.5762 11.0942 10.5557 11.1311 10.5188C11.1311 10.5188 11.1639 10.7361 11.0204 10.9125C11.0204 10.9125 11.6509 11.2129 12.0508 10.8838C12.0508 10.8838 11.9001 10.7116 11.8509 10.5516C11.8507 10.5515 11.9337 10.5176 11.983 10.4162Z" fill="#F5F5F5"/>
<path d="M13.8129 9.14899C13.8129 9.01366 13.5422 8.93983 13.2962 9.04441C13.0501 9.14899 12.8225 9.05674 12.7672 8.98291C12.7672 8.98291 12.6752 9.23913 12.9499 9.33293C12.8294 9.52746 12.5918 9.57039 12.5918 9.57039C12.6626 9.62885 12.7549 9.64422 12.7549 9.64422C12.6134 9.78879 12.3489 9.93025 12.3489 9.93025C12.3981 9.99175 12.4965 10.0317 12.4965 10.0317C12.4104 10.1671 12.1182 10.4162 12.1182 10.4162C12.1674 10.5177 12.2505 10.5515 12.2505 10.5515C12.2013 10.7115 12.0505 10.8837 12.0505 10.8837C12.4504 11.2128 13.0809 10.9124 13.0809 10.9124C12.9374 10.736 12.9702 10.5187 12.9702 10.5187C13.0072 10.5556 13.122 10.5761 13.122 10.5761C13.0359 10.3711 13.1015 10.1209 13.1015 10.1209C13.1466 10.2029 13.2164 10.2398 13.2164 10.2398C13.2246 9.98144 13.3886 9.89327 13.3886 9.89327C13.8038 10.0717 13.8961 9.71796 13.8961 9.71796C13.6685 9.79179 13.5455 9.7241 13.5455 9.7241C13.5455 9.7241 13.7454 9.47191 13.9423 9.39808C14.1391 9.32425 14.2283 9.52418 14.2283 9.52418C14.3665 8.9891 13.8129 9.14899 13.8129 9.14899Z" fill="#F5F5F5"/>
<path d="M13.5624 12.4164C13.5084 12.1021 13.4618 11.8306 13.5974 11.5195L13.6228 11.4614L13.0857 10.8447L13.0222 10.8659C13.0168 10.8677 12.4554 11.0513 12.0956 10.8713L12.0507 10.8488L12.0058 10.8713C11.6476 11.0507 11.0848 10.8677 11.0789 10.8658L11.0155 10.8448L10.4785 11.4614L10.5038 11.5195C10.6394 11.8306 10.5929 12.1021 10.5389 12.4164C10.488 12.7132 10.4303 13.0497 10.5319 13.46C10.6421 13.9054 11.0132 14.0637 11.3405 14.2036C11.5928 14.3112 11.8311 14.4129 11.9658 14.6265L12.0506 14.761L12.1355 14.6265C12.2702 14.4129 12.5084 14.3113 12.7608 14.2036C13.0881 14.0637 13.4592 13.9054 13.5694 13.46C13.6709 13.0497 13.6132 12.7132 13.5624 12.4164ZM10.7121 11.4988L11.0806 11.0756C11.2476 11.1215 11.6989 11.2208 12.0506 11.0715C12.4023 11.2209 12.8536 11.1215 13.0206 11.0756L13.3892 11.4988C13.2598 11.8396 13.3107 12.1368 13.3645 12.4503C13.4048 12.6853 13.4449 12.9273 13.4112 13.206H10.69C10.6564 12.9273 10.6965 12.6853 10.7367 12.4503C10.7905 12.1368 10.8415 11.8396 10.7121 11.4988ZM12.682 14.019C12.4539 14.1164 12.2192 14.2165 12.0506 14.4066C11.882 14.2165 11.6473 14.1164 11.4192 14.019C11.0991 13.8823 10.823 13.7629 10.7319 13.4275H13.3692C13.2782 13.7629 13.0021 13.8823 12.682 14.019Z" fill="#F5F5F5"/>
<path d="M10.7121 11.4988L11.0807 11.0757C11.2476 11.1215 11.6989 11.2208 12.0506 11.0715C12.4023 11.2209 12.8536 11.1215 13.0206 11.0757L13.3892 11.4988C13.2598 11.8397 13.3107 12.1368 13.3646 12.4504C13.4048 12.6853 13.4449 12.9273 13.4112 13.206H10.6901C10.6564 12.9273 10.6965 12.6853 10.7367 12.4504C10.7906 12.1369 10.8415 11.8396 10.7121 11.4988Z" fill="#F5F5F5"/>
<path d="M10.7178 13.369C10.7209 13.3834 10.7229 13.3972 10.7266 13.4119C10.8128 13.7602 11.0938 13.8801 11.4192 14.019C11.6473 14.1164 11.882 14.2166 12.0506 14.4066C12.2192 14.2166 12.4539 14.1164 12.682 14.019C13.0074 13.8801 13.2884 13.7601 13.3746 13.4119C13.3783 13.3973 13.3803 13.3834 13.3835 13.369H10.7178Z" fill="#F5F5F5"/>
<path d="M13.2545 12.2059C13.2545 12.0244 13.0821 11.9958 12.9253 11.9989C12.7685 12.0021 12.5392 11.9734 12.5334 11.8515C12.5298 11.7756 12.6573 11.7685 12.7404 11.7951C12.7885 11.8106 13.0884 11.8641 13.1824 11.6634C13.1824 11.6634 13.0728 11.6669 12.9571 11.641C12.8679 11.621 12.502 11.6665 12.4362 11.8076C12.3703 11.9487 12.5827 12.0895 12.8272 12.0895C13.0718 12.0895 13.1053 12.1385 13.1034 12.1981C13.1009 12.2765 12.9069 12.2986 12.7955 12.2976C12.62 12.2339 12.2106 12.2838 12.2086 12.276C12.2063 12.2666 12.1142 12.1085 12.1142 12.1085C12.1142 12.1085 12.2818 12.0966 12.3031 12.0659C12.3243 12.0353 12.1759 11.9174 12.1759 11.9174C12.1759 11.9174 12.3007 11.8676 12.3054 11.8322C12.3106 11.7933 12.2041 11.7011 12.2041 11.7011C12.2041 11.7011 12.2453 11.6605 12.2762 11.5913C12.2983 11.5418 12.1226 11.5286 12.1226 11.5286C12.132 11.491 12.1284 11.4545 12.0818 11.4377C12.0458 11.4247 11.9125 11.4753 11.8216 11.4753C11.7307 11.4753 11.6962 11.5411 11.6962 11.5411C11.6962 11.5411 11.5363 11.56 11.5143 11.5787C11.4924 11.5976 11.5206 11.7198 11.5206 11.7198C11.4391 11.7073 11.4015 11.6352 11.4015 11.6352C11.3607 11.8201 11.552 11.839 11.552 11.839L11.5833 11.9393C11.5833 11.9393 11.5833 11.9393 11.6617 11.9488C11.7401 11.9582 11.7025 12.0334 11.5802 12.0334C11.4579 12.0334 11.406 12.1793 11.406 12.1793C11.321 12.1817 11.2738 12.1132 11.2549 12.0258C11.2341 11.9297 11.2464 11.7819 11.262 11.6883C11.2809 11.5749 11.2242 11.5419 11.2242 11.5419L11.1864 11.6363C11.1841 11.5395 11.0991 11.5301 11.0991 11.5301L11.0849 11.6481C11.0424 11.5702 10.9693 11.6056 10.9693 11.6056C10.9693 11.6056 11.0401 11.8606 11.0378 11.8747C11.0354 11.8889 11.0118 11.9007 10.9787 11.8653C10.9457 11.8298 10.9221 11.8535 10.9221 11.8535C10.9576 12.1084 11.0942 12.071 11.0942 12.071C11.0942 12.071 11.1003 12.1509 11.1416 12.313C11.1857 12.4861 11.367 12.4536 11.367 12.4536C11.367 12.51 11.4109 12.5915 11.4234 12.7796C11.436 12.9677 11.2636 13.0994 11.2636 13.0994C11.1068 13.0963 11.1225 13.25 11.1225 13.25H11.5551C11.5551 12.8499 11.7271 12.7813 11.7271 12.7813C11.9821 12.7931 12.2276 12.6869 12.2276 12.6869C12.1898 12.8403 12.2559 12.904 12.2559 12.904C12.3598 12.8899 12.3079 13.0952 12.2772 13.0952C12.2465 13.0952 12.1827 13.0952 12.145 13.0952C12.1073 13.0952 11.9986 13.2133 11.9986 13.2133H12.4472C12.4472 13.2133 12.5156 13.1141 12.5392 13.0646C12.5628 13.015 12.4873 12.9465 12.4826 12.8946C12.4779 12.8427 12.5605 12.8096 12.5605 12.8096C12.6479 12.9323 12.8485 12.9395 12.8485 12.9395L12.8438 12.8474C12.8438 12.8474 12.9477 12.8828 12.9713 12.9135C12.9949 12.9441 12.9902 13.0858 12.8651 13.1023C12.74 13.1188 12.7305 13.2086 12.7305 13.2086C12.7305 13.2086 13.0162 13.2086 13.0728 13.2086C13.1295 13.2086 13.1743 13.1023 13.1743 13.0622C13.1743 13.0221 13.1743 12.76 13.1743 12.7033C13.1743 12.6467 13.1271 12.6538 13.0162 12.6419C12.9154 12.6312 12.925 12.5209 12.8835 12.3929C13.0292 12.388 13.2545 12.3561 13.2545 12.2059Z" fill="#F5F5F5"/>
<path d="M13.2281 7.91588C13.2 7.66834 13.0027 7.3531 12.251 7.20535C12.2485 7.12548 12.1994 7.05779 12.1291 7.02929V6.89134H12.2522V6.74373H12.1291V6.62073H11.9815V6.74377H11.8585V6.89138H11.9815V7.02934C11.9114 7.05784 11.8621 7.12552 11.8597 7.2054C11.108 7.3532 10.9107 7.66838 10.8826 7.91593C10.8476 8.2246 11.0686 8.51729 11.268 8.62946V8.78607H12.8428V8.62946C13.042 8.51729 13.263 8.22456 13.2281 7.91588ZM12.4036 8.39237H12.1832V7.48445C12.3649 7.56652 12.4773 7.69238 12.51 7.86526C12.5508 8.08051 12.4647 8.29998 12.4036 8.39237ZM11.6006 7.86512C11.6333 7.69224 11.7457 7.56643 11.9274 7.4844V8.39232H11.7069C11.6458 8.29998 11.5597 8.08046 11.6006 7.86512ZM11.4184 7.61584C11.3822 7.68835 11.3591 7.76087 11.3473 7.82748C11.3117 8.02913 11.3525 8.23407 11.42 8.39237H11.3683C11.2579 8.31634 11.116 8.12931 11.1369 7.94476C11.1515 7.81562 11.2494 7.70485 11.4184 7.61584ZM12.7424 8.39237H12.6905C12.758 8.23416 12.7989 8.02923 12.7633 7.82757C12.7515 7.76096 12.7284 7.68835 12.6922 7.61579C12.8612 7.70481 12.9591 7.81566 12.9737 7.94471C12.9946 8.12931 12.8527 8.31634 12.7424 8.39237Z" fill="#F5F5F5"/>
<path d="M23.1725 4.96545H0.827637V19.0345H23.1725V4.96545Z" fill="#C8414B"/>
<path d="M22.2026 4.13794H1.79742C0.804703 4.13794 0 4.94264 0 5.93536V18.0647C0 19.0574 0.804703 19.8622 1.79742 19.8622H22.2026C23.1952 19.8622 24 19.0575 24 18.0647V5.93536C24 4.94264 23.1953 4.13794 22.2026 4.13794ZM23.1724 19.0345H0.827578V4.96552H23.1724V19.0345Z" fill="#E6B432"/>
<path d="M15.3951 15.2252C15.7428 15.2252 16.0247 14.9432 16.0247 14.5955C16.0247 14.2477 15.7428 13.9658 15.3951 13.9658C15.0473 13.9658 14.7654 14.2477 14.7654 14.5955C14.7654 14.9432 15.0473 15.2252 15.3951 15.2252Z" fill="#41479B"/>
<path d="M16.5002 10.9801C16.0367 11.3697 15.7251 11.3861 15.7251 11.3861C16.5494 11.0498 16.4633 10.4101 16.4633 10.4101C16.0737 10.9227 15.6759 11.0662 15.6759 11.0662C16.5043 10.5044 16.373 9.74979 16.373 9.74979C16.1024 10.3486 15.76 10.5823 15.76 10.5823C16.4489 9.6657 16.1106 9.07516 16.1106 9.07516C15.8399 9.92407 15.6123 10.1702 15.6123 10.1702C16.1413 8.75529 15.6882 8.34724 15.6882 8.34724C15.6882 9.10591 15.4052 9.54063 15.4052 9.54063C15.7005 8.53999 15.2371 7.96582 15.2371 7.96582C15.2371 7.96582 15.2327 8.78163 15.0756 9.20895C15.0379 9.15166 15.0156 9.15926 15.0156 9.15926C14.9357 9.68327 14.6541 10.0522 14.5325 10.191C14.5055 10.0604 14.4243 10.0204 14.4243 10.0204C14.4243 10.0204 14.4097 10.1486 14.2946 10.3377C14.2193 10.4616 13.8632 10.7505 13.8058 11.0047C13.7598 11.2086 13.9616 11.3779 14.0272 11.4189C14.0928 11.4599 14.1625 11.5338 14.1338 11.6526C14.1051 11.7716 13.8918 11.7592 13.7401 11.7551C13.5884 11.7511 13.5679 12.0012 13.3997 11.993L13.3712 12.1796L13.3053 12.194C13.3053 12.194 12.6164 13.5669 12.5577 14.0341L12.0504 14.101L11.5431 14.0341C11.4844 13.5669 10.7955 12.194 10.7955 12.194L10.7296 12.1796L10.7011 11.993C10.533 12.0012 10.5125 11.7511 10.3607 11.7551C10.2089 11.7592 9.99569 11.7716 9.967 11.6526C9.93831 11.5337 10.008 11.4598 10.0736 11.4189C10.1392 11.3779 10.3411 11.2085 10.295 11.0047C10.2376 10.7504 9.88155 10.4616 9.80617 10.3377C9.69114 10.1486 9.67652 10.0204 9.67652 10.0204C9.67652 10.0204 9.59533 10.0604 9.56833 10.191C9.44678 10.0521 9.16516 9.68327 9.08528 9.15926C9.08528 9.15926 9.06297 9.15171 9.02528 9.20895C8.86816 8.78159 8.8638 7.96582 8.8638 7.96582C8.8638 7.96582 8.40039 8.53995 8.69566 9.54063C8.69566 9.54063 8.41267 9.10596 8.41267 8.34724C8.41267 8.34724 7.95953 8.75529 8.48856 10.1702C8.48856 10.1702 8.26098 9.92412 7.99028 9.07516C7.99028 9.07516 7.65194 9.6657 8.34091 10.5823C8.34091 10.5823 7.99848 10.3486 7.72783 9.74979C7.72783 9.74979 7.59663 10.5044 8.425 11.0662C8.425 11.0662 8.02717 10.9227 7.63759 10.4101C7.63759 10.4101 7.55148 11.0499 8.37578 11.3861C8.37578 11.3861 8.06411 11.3697 7.6007 10.9801C7.6007 10.9801 7.51867 11.5461 8.59314 11.8372C8.59314 11.8372 8.1543 11.829 7.7073 11.5296C7.7073 11.5296 7.69497 12.0874 8.61363 12.1981C8.61363 12.1981 8.31016 12.2432 7.96975 12.1202C7.96975 12.1202 7.98208 12.5713 8.78177 12.6287C8.78177 12.6287 8.46597 12.6533 8.26094 12.6041C8.26094 12.6041 8.28142 13.0675 8.91302 12.9896C8.91302 12.9896 8.69973 13.0593 8.63003 13.0798C8.63003 13.0798 8.64236 13.4581 9.30053 13.3228C9.30053 13.3228 9.18363 13.3956 9.02369 13.4202C9.02369 13.4202 9.15902 13.736 9.70858 13.5965L9.5958 13.7196C9.5958 13.7196 10.0203 13.9656 10.3463 13.6273L10.2294 13.8364C10.2294 13.8364 10.5062 13.941 10.6784 13.6704C10.6784 13.6704 10.6313 14.0764 10.0571 14.1502C10.0571 14.1502 10.0776 14.2363 10.1022 14.2691C10.1022 14.2691 10.0653 14.3389 9.73309 14.3963C9.73309 14.3963 9.8028 14.5029 9.87663 14.5357C9.87663 14.5357 9.73309 14.6588 9.65519 14.6833C9.65519 14.6833 9.77824 14.7448 9.85614 14.7572C9.85614 14.7572 9.68392 14.9253 9.47064 14.9294C9.25736 14.9335 8.87603 14.9089 8.87603 14.9089C8.87603 14.9089 8.87195 14.7038 8.77352 14.5274C8.67508 14.3511 8.64231 14.3378 8.64231 14.3378C8.64231 14.3378 8.66383 14.1963 8.60233 14.1379C8.54083 14.0794 8.50698 14.0517 8.50698 14.0517C8.50698 14.0517 8.5398 13.7688 8.44956 13.5924C8.35938 13.4161 8.03945 13.0306 8.02305 12.7435C8.00664 12.4564 8.01897 12.3498 8.01897 12.3498L7.92053 12.3744L7.85491 12.2391L7.96563 12.2268L7.92053 12.0217L7.76875 12.0791L7.74822 11.9028L7.5678 11.9766L7.65798 12.1366L7.49805 12.1817L7.59241 12.3703L7.71545 12.2924L7.74827 12.4564C7.74827 12.4564 7.67444 12.4728 7.63342 12.5384C7.63342 12.5384 7.83634 12.6731 7.89588 12.8337C7.99024 13.088 7.9615 13.6622 8.09683 13.8344C8.23216 14.0066 8.3388 14.1255 8.3388 14.1255C8.3388 14.1255 8.30088 14.2424 8.34391 14.307C8.38699 14.3716 8.44848 14.39 8.44848 14.39C8.44848 14.39 8.41155 14.6515 8.50694 14.8237C8.60228 14.9959 8.65764 15.0391 8.65764 15.0391C8.65764 15.0391 8.31006 15.2513 8.55616 15.4974C8.55616 15.4974 8.52334 15.7209 8.75711 15.7742C8.75711 15.7742 8.76944 15.9506 8.97039 15.9301C8.97039 15.9301 9.06883 15.9014 9.09344 15.9506C9.11805 15.9998 9.09344 16.2828 9.09344 16.2828C9.09344 16.2828 9.18363 16.2746 9.24105 16.2336L9.42147 16.3238L9.42555 16.1228L9.65111 16.0326C9.65111 16.0326 9.55267 16.049 9.35172 15.8604C9.35172 15.8604 9.38453 15.8399 9.40914 15.6799C9.40914 15.6799 9.56908 15.5528 9.60194 15.4503C9.63475 15.3478 9.86031 15.1222 10.1228 15.0484L10.1587 15.2083C10.1587 15.2083 10.534 14.8762 10.6908 14.8577L10.8199 15.0279C10.8199 15.0279 11.3039 14.3102 11.5171 14.183C11.5007 14.2405 11.6196 14.2487 11.3551 14.5439C11.0906 14.8392 11.2546 15.073 11.2546 15.073C11.0906 15.2083 11.1234 15.3313 11.1028 15.4708C11.0823 15.6102 10.5369 15.9711 10.5369 15.9711C10.7091 16.1885 10.9019 16.1393 10.9019 16.1393C10.7952 16.209 10.828 16.4427 10.828 16.4427C10.9839 16.4838 11.1397 16.4141 11.1397 16.4141C11.0864 16.5617 11.1684 16.6642 11.1684 16.6642C11.2668 16.6027 11.4924 16.5657 11.4924 16.5657C11.4637 16.82 11.6277 16.9553 11.6277 16.9553L11.7713 16.7995C11.7959 17.0865 12.0502 17.2506 12.0502 17.2506C12.0502 17.2506 12.3045 17.0865 12.3291 16.7995L12.4726 16.9553C12.4726 16.9553 12.6367 16.82 12.6079 16.5657C12.6079 16.5657 12.8335 16.6027 12.9319 16.6642C12.9319 16.6642 13.014 16.5617 12.9606 16.4141C12.9606 16.4141 13.1165 16.4838 13.2723 16.4427C13.2723 16.4427 13.3051 16.209 13.1985 16.1393C13.1985 16.1393 13.3913 16.1884 13.5635 15.9711C13.5635 15.9711 13.018 15.6102 12.9975 15.4708C12.977 15.3313 13.0098 15.2083 12.8457 15.073C12.8457 15.073 13.0098 14.8392 12.7452 14.5439C12.4807 14.2486 12.5996 14.2404 12.5832 14.183C12.7965 14.3102 13.2804 15.0279 13.2804 15.0279L13.4096 14.8577C13.5665 14.8762 13.9417 15.2083 13.9417 15.2083L13.9776 15.0484L13.9844 15.041C14.18 15.1464 14.5032 15.2889 14.6338 15.3887C14.7732 15.4954 14.8881 15.5036 15.2243 15.3887C15.5606 15.2739 16.1863 15.0973 16.0938 14.8884C16.0887 14.877 16.083 14.8693 16.0774 14.8604C16.0921 14.8065 16.0982 14.7123 15.9994 14.63C15.9994 14.63 16.0006 14.6529 15.9998 14.6824L15.6792 14.5629C15.6686 14.5345 15.6528 14.5067 15.6221 14.4824C15.6221 14.4824 15.6226 14.507 15.6182 14.5402L15.536 14.5095L15.7001 14.0479C15.6877 14.0409 15.6737 14.037 15.6608 14.0309C15.6641 13.9891 15.672 13.9313 15.6842 13.8709C15.7243 13.8849 15.7609 13.9022 15.7875 13.9239L15.8338 13.7549C15.8338 13.7549 15.784 13.7516 15.7183 13.7393C15.7349 13.6883 15.7546 13.6425 15.778 13.6129L15.5606 13.5473C15.5606 13.5473 15.5662 13.6132 15.5624 13.6954C15.5209 13.6785 15.4813 13.6571 15.4494 13.6298L15.3984 13.8174C15.4159 13.8184 15.4752 13.8235 15.544 13.8358C15.5316 13.8909 15.5097 13.9397 15.4783 13.9764C15.4706 13.9753 15.4634 13.9725 15.4555 13.9718L15.2962 14.4201L14.864 14.2591C14.8455 14.2882 14.8312 14.32 14.8178 14.3522C14.8201 14.3475 14.8222 14.3402 14.8246 14.3372C14.8246 14.3372 14.6574 14.4247 14.6597 14.5532C14.6289 14.5648 14.6019 14.5879 14.5867 14.628C14.5375 14.7572 14.8389 15.0463 14.7651 15.0832C14.6926 15.1194 14.314 14.8076 14.2533 14.7552C14.3313 14.7401 14.4452 14.6834 14.4452 14.6834C14.3673 14.6588 14.2238 14.5358 14.2238 14.5358C14.2976 14.503 14.3673 14.3963 14.3673 14.3963C14.0351 14.3389 13.9982 14.2692 13.9982 14.2692C14.0228 14.2364 14.0433 14.1503 14.0433 14.1503C13.4692 14.0764 13.422 13.6704 13.422 13.6704C13.5942 13.9411 13.871 13.8365 13.871 13.8365L13.7541 13.6273C14.0801 13.9657 14.5046 13.7196 14.5046 13.7196L14.3918 13.5966C14.9413 13.736 15.0767 13.4202 15.0767 13.4202C14.9168 13.3956 14.7999 13.3228 14.7999 13.3228C15.4581 13.4582 15.4704 13.0798 15.4704 13.0798C15.4007 13.0593 15.1874 12.9896 15.1874 12.9896C15.8189 13.0676 15.8395 12.6041 15.8395 12.6041C15.6344 12.6533 15.3186 12.6288 15.3186 12.6288C16.1183 12.5713 16.1306 12.1203 16.1306 12.1203C15.7902 12.2433 15.4868 12.1982 15.4868 12.1982C16.4054 12.0874 16.3931 11.5297 16.3931 11.5297C15.9461 11.8291 15.5073 11.8373 15.5073 11.8373C16.5822 11.546 16.5002 10.9801 16.5002 10.9801ZM15.5682 15.037C15.5244 14.9659 15.6288 14.9022 15.6758 14.8345L15.8576 14.9021C15.7959 14.9758 15.6134 15.1104 15.5682 15.037ZM15.4467 14.7491C15.3878 14.8405 15.3468 14.943 15.1652 14.9479C14.9377 14.954 14.9007 14.751 14.8516 14.6403C14.8372 14.608 14.8125 14.5836 14.7841 14.5669C14.784 14.547 14.785 14.5252 14.7867 14.5031L15.4467 14.7491Z" fill="#E6B432"/>
<path d="M11.983 10.4162C11.983 10.4162 11.6908 10.1671 11.6047 10.0317C11.6047 10.0317 11.7031 9.99175 11.7523 9.93025C11.7523 9.93025 11.4878 9.78879 11.3463 9.64422C11.3463 9.64422 11.4386 9.62885 11.5093 9.57039C11.5093 9.57039 11.2718 9.52746 11.1513 9.33293C11.4259 9.23913 11.334 8.98291 11.334 8.98291C11.2786 9.05674 11.051 9.14899 10.805 9.04441C10.5589 8.93983 10.2883 9.01361 10.2883 9.14899C10.2883 9.14899 9.73463 8.98905 9.87305 9.52427C9.87305 9.52427 9.9622 9.32435 10.1591 9.39818C10.356 9.472 10.5559 9.72419 10.5559 9.72419C10.5559 9.72419 10.4328 9.79183 10.2053 9.71805C10.2053 9.71805 10.2975 10.0717 10.7128 9.89336C10.7128 9.89336 10.8768 9.98154 10.885 10.2399C10.885 10.2399 10.9547 10.203 10.9998 10.121C10.9998 10.121 11.0655 10.3711 10.9793 10.5762C10.9793 10.5762 11.0942 10.5557 11.1311 10.5188C11.1311 10.5188 11.1639 10.7361 11.0204 10.9125C11.0204 10.9125 11.6509 11.2129 12.0508 10.8838C12.0508 10.8838 11.9001 10.7116 11.8509 10.5516C11.8507 10.5515 11.9337 10.5176 11.983 10.4162Z" fill="#E6B432"/>
<path d="M13.8129 9.14899C13.8129 9.01366 13.5422 8.93983 13.2962 9.04441C13.0501 9.14899 12.8225 9.05674 12.7672 8.98291C12.7672 8.98291 12.6752 9.23913 12.9499 9.33293C12.8294 9.52746 12.5918 9.57039 12.5918 9.57039C12.6626 9.62885 12.7549 9.64422 12.7549 9.64422C12.6134 9.78879 12.3489 9.93025 12.3489 9.93025C12.3981 9.99175 12.4965 10.0317 12.4965 10.0317C12.4104 10.1671 12.1182 10.4162 12.1182 10.4162C12.1674 10.5177 12.2505 10.5515 12.2505 10.5515C12.2013 10.7115 12.0505 10.8837 12.0505 10.8837C12.4504 11.2128 13.0809 10.9124 13.0809 10.9124C12.9374 10.736 12.9702 10.5187 12.9702 10.5187C13.0072 10.5556 13.122 10.5761 13.122 10.5761C13.0359 10.3711 13.1015 10.1209 13.1015 10.1209C13.1466 10.2029 13.2164 10.2398 13.2164 10.2398C13.2246 9.98144 13.3886 9.89327 13.3886 9.89327C13.8038 10.0717 13.8961 9.71796 13.8961 9.71796C13.6685 9.79179 13.5455 9.7241 13.5455 9.7241C13.5455 9.7241 13.7454 9.47191 13.9423 9.39808C14.1391 9.32425 14.2283 9.52418 14.2283 9.52418C14.3665 8.9891 13.8129 9.14899 13.8129 9.14899Z" fill="#E6B432"/>
<path d="M13.5624 12.4164C13.5084 12.1021 13.4618 11.8306 13.5974 11.5195L13.6228 11.4614L13.0857 10.8447L13.0222 10.8659C13.0168 10.8677 12.4554 11.0513 12.0956 10.8713L12.0507 10.8488L12.0058 10.8713C11.6476 11.0507 11.0848 10.8677 11.0789 10.8658L11.0155 10.8448L10.4785 11.4614L10.5038 11.5195C10.6394 11.8306 10.5929 12.1021 10.5389 12.4164C10.488 12.7132 10.4303 13.0497 10.5319 13.46C10.6421 13.9054 11.0132 14.0637 11.3405 14.2036C11.5928 14.3112 11.8311 14.4129 11.9658 14.6265L12.0506 14.761L12.1355 14.6265C12.2702 14.4129 12.5084 14.3113 12.7608 14.2036C13.0881 14.0637 13.4592 13.9054 13.5694 13.46C13.6709 13.0497 13.6132 12.7132 13.5624 12.4164ZM10.7121 11.4988L11.0806 11.0756C11.2476 11.1215 11.6989 11.2208 12.0506 11.0715C12.4023 11.2209 12.8536 11.1215 13.0206 11.0756L13.3892 11.4988C13.2598 11.8396 13.3107 12.1368 13.3645 12.4503C13.4048 12.6853 13.4449 12.9273 13.4112 13.206H10.69C10.6564 12.9273 10.6965 12.6853 10.7367 12.4503C10.7905 12.1368 10.8415 11.8396 10.7121 11.4988ZM12.682 14.019C12.4539 14.1164 12.2192 14.2165 12.0506 14.4066C11.882 14.2165 11.6473 14.1164 11.4192 14.019C11.0991 13.8823 10.823 13.7629 10.7319 13.4275H13.3692C13.2782 13.7629 13.0021 13.8823 12.682 14.019Z" fill="#E6B432"/>
<path d="M10.7121 11.4988L11.0807 11.0757C11.2476 11.1215 11.6989 11.2208 12.0506 11.0715C12.4023 11.2209 12.8536 11.1215 13.0206 11.0757L13.3892 11.4988C13.2598 11.8397 13.3107 12.1368 13.3646 12.4504C13.4048 12.6853 13.4449 12.9273 13.4112 13.206H10.6901C10.6564 12.9273 10.6965 12.6853 10.7367 12.4504C10.7906 12.1369 10.8415 11.8396 10.7121 11.4988Z" fill="#41479B"/>
<path d="M10.7178 13.3689C10.7209 13.3833 10.7229 13.3971 10.7266 13.4117C10.8128 13.7601 11.0938 13.88 11.4192 14.0189C11.6473 14.1163 11.882 14.2164 12.0506 14.4065C12.2192 14.2164 12.4539 14.1163 12.682 14.0189C13.0074 13.88 13.2884 13.76 13.3746 13.4117C13.3783 13.3972 13.3803 13.3833 13.3835 13.3689H10.7178Z" fill="#73AF00"/>
<path d="M13.2545 12.2059C13.2545 12.0244 13.0821 11.9958 12.9253 11.9989C12.7685 12.0021 12.5392 11.9734 12.5334 11.8515C12.5298 11.7756 12.6573 11.7685 12.7404 11.7951C12.7885 11.8106 13.0884 11.8641 13.1824 11.6634C13.1824 11.6634 13.0728 11.6669 12.9571 11.641C12.8679 11.621 12.502 11.6665 12.4362 11.8076C12.3703 11.9487 12.5827 12.0895 12.8272 12.0895C13.0718 12.0895 13.1053 12.1385 13.1034 12.1981C13.1009 12.2765 12.9069 12.2986 12.7955 12.2976C12.62 12.2339 12.2106 12.2838 12.2086 12.276C12.2063 12.2666 12.1142 12.1085 12.1142 12.1085C12.1142 12.1085 12.2818 12.0966 12.3031 12.0659C12.3243 12.0353 12.1759 11.9174 12.1759 11.9174C12.1759 11.9174 12.3007 11.8676 12.3054 11.8322C12.3106 11.7933 12.2041 11.7011 12.2041 11.7011C12.2041 11.7011 12.2453 11.6605 12.2762 11.5913C12.2983 11.5418 12.1226 11.5286 12.1226 11.5286C12.132 11.491 12.1284 11.4545 12.0818 11.4377C12.0458 11.4247 11.9125 11.4753 11.8216 11.4753C11.7307 11.4753 11.6962 11.5411 11.6962 11.5411C11.6962 11.5411 11.5363 11.56 11.5143 11.5787C11.4924 11.5976 11.5206 11.7198 11.5206 11.7198C11.4391 11.7073 11.4015 11.6352 11.4015 11.6352C11.3607 11.8201 11.552 11.839 11.552 11.839L11.5833 11.9393C11.5833 11.9393 11.5833 11.9393 11.6617 11.9488C11.7401 11.9582 11.7025 12.0334 11.5802 12.0334C11.4579 12.0334 11.406 12.1793 11.406 12.1793C11.321 12.1817 11.2738 12.1132 11.2549 12.0258C11.2341 11.9297 11.2464 11.7819 11.262 11.6883C11.2809 11.5749 11.2242 11.5419 11.2242 11.5419L11.1864 11.6363C11.1841 11.5395 11.0991 11.5301 11.0991 11.5301L11.0849 11.6481C11.0424 11.5702 10.9693 11.6056 10.9693 11.6056C10.9693 11.6056 11.0401 11.8606 11.0378 11.8747C11.0354 11.8889 11.0118 11.9007 10.9787 11.8653C10.9457 11.8298 10.9221 11.8535 10.9221 11.8535C10.9576 12.1084 11.0942 12.071 11.0942 12.071C11.0942 12.071 11.1003 12.1509 11.1416 12.313C11.1857 12.4861 11.367 12.4536 11.367 12.4536C11.367 12.51 11.4109 12.5915 11.4234 12.7796C11.436 12.9677 11.2636 13.0994 11.2636 13.0994C11.1068 13.0963 11.1225 13.25 11.1225 13.25H11.5551C11.5551 12.8499 11.7271 12.7813 11.7271 12.7813C11.9821 12.7931 12.2276 12.6869 12.2276 12.6869C12.1898 12.8403 12.2559 12.904 12.2559 12.904C12.3598 12.8899 12.3079 13.0952 12.2772 13.0952C12.2465 13.0952 12.1827 13.0952 12.145 13.0952C12.1073 13.0952 11.9986 13.2133 11.9986 13.2133H12.4472C12.4472 13.2133 12.5156 13.1141 12.5392 13.0646C12.5628 13.015 12.4873 12.9465 12.4826 12.8946C12.4779 12.8427 12.5605 12.8096 12.5605 12.8096C12.6479 12.9323 12.8485 12.9395 12.8485 12.9395L12.8438 12.8474C12.8438 12.8474 12.9477 12.8828 12.9713 12.9135C12.9949 12.9441 12.9902 13.0858 12.8651 13.1023C12.74 13.1188 12.7305 13.2086 12.7305 13.2086C12.7305 13.2086 13.0162 13.2086 13.0728 13.2086C13.1295 13.2086 13.1743 13.1023 13.1743 13.0622C13.1743 13.0221 13.1743 12.76 13.1743 12.7033C13.1743 12.6467 13.1271 12.6538 13.0162 12.6419C12.9154 12.6312 12.925 12.5209 12.8835 12.3929C13.0292 12.388 13.2545 12.3561 13.2545 12.2059Z" fill="#E6B432"/>
<path d="M13.2281 7.91588C13.2 7.66834 13.0027 7.3531 12.251 7.20535C12.2485 7.12548 12.1994 7.05779 12.1291 7.02929V6.89134H12.2522V6.74373H12.1291V6.62073H11.9815V6.74377H11.8585V6.89138H11.9815V7.02934C11.9114 7.05784 11.8621 7.12552 11.8597 7.2054C11.108 7.3532 10.9107 7.66838 10.8826 7.91593C10.8476 8.2246 11.0686 8.51729 11.268 8.62946V8.78607H12.8428V8.62946C13.042 8.51729 13.263 8.22456 13.2281 7.91588ZM12.4036 8.39237H12.1832V7.48445C12.3649 7.56652 12.4773 7.69238 12.51 7.86526C12.5508 8.08051 12.4647 8.29998 12.4036 8.39237ZM11.6006 7.86512C11.6333 7.69224 11.7457 7.56643 11.9274 7.4844V8.39232H11.7069C11.6458 8.29998 11.5597 8.08046 11.6006 7.86512ZM11.4184 7.61584C11.3822 7.68835 11.3591 7.76087 11.3473 7.82748C11.3117 8.02913 11.3525 8.23407 11.42 8.39237H11.3683C11.2579 8.31634 11.116 8.12931 11.1369 7.94476C11.1515 7.81562 11.2494 7.70485 11.4184 7.61584ZM12.7424 8.39237H12.6905C12.758 8.23416 12.7989 8.02923 12.7633 7.82757C12.7515 7.76096 12.7284 7.68835 12.6922 7.61579C12.8612 7.70481 12.9591 7.81566 12.9737 7.94471C12.9946 8.12931 12.8527 8.31634 12.7424 8.39237Z" fill="#E6B432"/>
</svg>
