<svg width="24" height="24" viewBox="0 0 24 24" fill="none" xmlns="http://www.w3.org/2000/svg">
<path d="M1.79494 4.13696C0.834703 4.13696 0.0504844 4.88982 0 5.83745V18.1624C0.0504844 19.11 0.834703 19.8629 1.79494 19.8629H9.51834V19.8112V4.13696H1.79494Z" fill="#41479B"/>
<path d="M22.2024 4.13696H9.51831V19.8111H22.6305C23.4166 19.619 24 18.9105 24 18.0653V5.93457C24 4.94176 23.1952 4.13696 22.2024 4.13696Z" fill="#F5F5F5"/>
<path d="M12.3101 11.9096C12.1359 11.9096 11.9669 11.9689 11.8308 12.0778L11.0056 12.7379C10.8696 12.8468 10.7005 12.9061 10.5263 12.9061H10.2972V12.7743C10.2972 12.572 10.4612 12.4079 10.6637 12.4079H11.0446V12.2302C11.0446 12.0531 10.9011 11.9096 10.724 11.9096H10.5464C10.5464 11.7721 10.4349 11.6605 10.2973 11.6605C9.60944 11.6605 9.05176 12.2181 9.05176 12.906H8.57359C8.3994 12.906 8.23037 12.8467 8.09439 12.7379L7.26915 12.0777C7.13312 11.9689 6.96409 11.9096 6.78995 11.9096H3.15601C3.03358 11.9096 2.97226 12.0576 3.05884 12.1442L4.31659 13.4019C4.47751 13.5629 4.69581 13.6533 4.92339 13.6533H5.81345L6.54414 14.2013C6.71659 14.3307 6.92636 14.4006 7.14198 14.4006H8.05539C8.21218 14.4006 8.35989 14.3267 8.45392 14.2013L8.55353 14.0684V14.6497L7.93881 15.8792C7.87787 16.001 7.96647 16.1444 8.10268 16.1444H10.114C10.2152 16.1444 10.2972 16.0623 10.2972 15.9611V13.7363L10.646 14.2013C10.7401 14.3268 10.8877 14.4006 11.0446 14.4006H11.958C12.1736 14.4006 12.3834 14.3307 12.5558 14.2013L13.2865 13.6533H14.1766C14.4042 13.6533 14.6224 13.5629 14.7834 13.402L16.0411 12.1442C16.1276 12.0577 16.0664 11.9096 15.9439 11.9096H12.3101Z" fill="#FFE15A"/>
<path d="M9.59797 7.87344L9.71704 8.23054L10.0935 8.23344C10.1422 8.23382 10.1624 8.29602 10.1233 8.32494L9.82044 8.54858L9.93397 8.90751C9.94864 8.95396 9.89572 8.9924 9.85611 8.96404L9.54988 8.74518L9.24364 8.96404C9.20404 8.9924 9.15111 8.95396 9.16579 8.90751L9.27932 8.54858L8.9765 8.32494C8.93727 8.29598 8.95752 8.23382 9.00627 8.23344L9.38272 8.23054L9.50179 7.87344C9.51716 7.82718 9.58255 7.82718 9.59797 7.87344Z" fill="#FFE15A"/>
<path d="M4.0687 10.1239L4.40541 10.2922L4.67363 10.028C4.70831 9.99387 4.76663 10.0235 4.75941 10.0718L4.70339 10.444L5.03747 10.6175C5.08074 10.64 5.07047 10.7045 5.02242 10.7125L4.65113 10.7743L4.58934 11.1456C4.58133 11.1936 4.51678 11.2039 4.49433 11.1606L4.32085 10.8266L3.94861 10.8826C3.90038 10.8898 3.8707 10.8316 3.90488 10.7968L4.16902 10.5286L4.00074 10.1919C3.97884 10.1484 4.02511 10.1021 4.0687 10.1239Z" fill="#FFE15A"/>
<path d="M15.0993 10.192L14.931 10.5287L15.1951 10.7969C15.2293 10.8317 15.1996 10.8899 15.1514 10.8827L14.7792 10.8267L14.6057 11.1608C14.5832 11.204 14.5186 11.1938 14.5107 11.1457L14.4489 10.7744L14.0776 10.7126C14.0295 10.7046 14.0193 10.6401 14.0625 10.6176L14.3966 10.4441L14.3406 10.0719C14.3333 10.0237 14.3916 9.994 14.4264 10.0282L14.6946 10.2923L15.0313 10.124C15.0748 10.1021 15.1211 10.1484 15.0993 10.192Z" fill="#FFE15A"/>
<path d="M6.60954 8.44877L6.85624 8.73311L7.20513 8.59174C7.25027 8.57341 7.29274 8.62314 7.26761 8.66496L7.07341 8.98746L7.31566 9.2756C7.34702 9.31291 7.31285 9.36864 7.26536 9.35763L6.89866 9.2726L6.69949 9.59205C6.67371 9.63339 6.6101 9.61811 6.60593 9.5696L6.57349 9.19455L6.20819 9.1038C6.16089 9.09203 6.15574 9.02688 6.20064 9.00785L6.54729 8.86108L6.52066 8.48557C6.51724 8.43696 6.57761 8.41197 6.60954 8.44877Z" fill="#FFE15A"/>
<path d="M12.5793 8.4856L12.5527 8.86111L12.8993 9.00788C12.9442 9.02686 12.9391 9.09211 12.8918 9.10383L12.5265 9.19458L12.494 9.56963C12.4899 9.61819 12.4262 9.63347 12.4005 9.59208L12.2013 9.27263L11.8346 9.35766C11.7871 9.36868 11.753 9.31289 11.7843 9.27563L12.0265 8.98749L11.8323 8.66499C11.8072 8.62322 11.8497 8.57353 11.8948 8.59177L12.2437 8.73314L12.4904 8.4488C12.5223 8.41196 12.5827 8.43694 12.5793 8.4856Z" fill="#FFE15A"/>
<path d="M8.07534 8.01392L8.26181 8.34092L8.63156 8.27038C8.67942 8.26123 8.71139 8.31828 8.67857 8.35433L8.42521 8.63272L8.60657 8.96253C8.63006 9.00528 8.58567 9.05328 8.54123 9.03317L8.19815 8.87825L7.94048 9.15266C7.9071 9.18819 7.84771 9.16081 7.8531 9.11234L7.89445 8.73819L7.55381 8.57792C7.5097 8.55716 7.51739 8.49223 7.56515 8.48239L7.93378 8.40608L7.98089 8.03258C7.98712 7.98434 8.05125 7.97159 8.07534 8.01392Z" fill="#FFE15A"/>
<path d="M13.9233 9.21466L13.8239 9.57776L14.1352 9.78935C14.1756 9.81672 14.1578 9.87968 14.1091 9.88193L13.7331 9.8996L13.6281 10.2611C13.6145 10.3079 13.5492 10.3105 13.5319 10.2649L13.3989 9.91277L13.0227 9.92463C12.9739 9.92618 12.9513 9.86482 12.9893 9.83435L13.2831 9.59904L13.1556 9.2449C13.1391 9.19905 13.1905 9.15855 13.2312 9.18532L13.5458 9.39204L13.8432 9.16127C13.8818 9.13136 13.9362 9.16769 13.9233 9.21466Z" fill="#FFE15A"/>
<path d="M5.2567 9.16124L5.55408 9.39201L5.8687 9.18529C5.90944 9.15853 5.96077 9.19898 5.94427 9.24487L5.81672 9.59901L6.11053 9.83432C6.14855 9.86479 6.12595 9.92615 6.0772 9.9246L5.70098 9.91274L5.56795 10.2649C5.55075 10.3104 5.48541 10.3079 5.47177 10.2611L5.36681 9.89957L4.99078 9.8819C4.94212 9.8796 4.92436 9.81665 4.96467 9.78932L5.27602 9.57773L5.17664 9.21464C5.1638 9.16771 5.21817 9.13139 5.2567 9.16124Z" fill="#FFE15A"/>
<path d="M11.1188 8.03268L11.1659 8.40618L11.5345 8.48249C11.5823 8.49238 11.5899 8.55731 11.5459 8.57802L11.2052 8.73829L11.2466 9.11245C11.2519 9.16087 11.1925 9.18829 11.1592 9.15276L10.9015 8.87835L10.5585 9.03328C10.514 9.05334 10.4696 9.00529 10.4931 8.96263L10.6745 8.63282L10.4211 8.35443C10.3883 8.31838 10.4203 8.26134 10.4681 8.27048L10.8379 8.34102L11.0244 8.01402C11.0486 7.97156 11.1127 7.98431 11.1188 8.03268Z" fill="#FFE15A"/>
<path d="M3.38378 5.91409V6.98527C3.38378 7.42824 3.02336 7.78862 2.58044 7.78862C2.13752 7.78862 1.7771 7.4282 1.7771 6.98527V5.91409H3.38378ZM3.65153 5.37854H1.50925C1.36136 5.37854 1.24146 5.49845 1.24146 5.64634V6.98532C1.24146 7.72482 1.84094 8.32431 2.58044 8.32431C3.31994 8.32431 3.91942 7.72482 3.91942 6.98532V5.64634C3.91933 5.49845 3.79942 5.37854 3.65153 5.37854Z" fill="#FF4B55"/>
<path d="M3.38379 5.91406V6.98525C3.38379 7.42822 3.02337 7.78859 2.58044 7.78859C2.13752 7.78859 1.7771 7.42817 1.7771 6.98525V5.91406H3.38379Z" fill="#F5F5F5"/>
<path d="M1.50741 5.77996C1.58135 5.77996 1.64129 5.72002 1.64129 5.64608C1.64129 5.57214 1.58135 5.51221 1.50741 5.51221C1.43347 5.51221 1.37354 5.57214 1.37354 5.64608C1.37354 5.72002 1.43347 5.77996 1.50741 5.77996Z" fill="#FFE15A"/>
<path d="M3.6495 5.77996C3.72344 5.77996 3.78337 5.72002 3.78337 5.64608C3.78337 5.57214 3.72344 5.51221 3.6495 5.51221C3.57556 5.51221 3.51562 5.57214 3.51562 5.64608C3.51562 5.72002 3.57556 5.77996 3.6495 5.77996Z" fill="#FFE15A"/>
<path d="M1.50741 6.85149C1.58135 6.85149 1.64129 6.79155 1.64129 6.71762C1.64129 6.64368 1.58135 6.58374 1.50741 6.58374C1.43347 6.58374 1.37354 6.64368 1.37354 6.71762C1.37354 6.79155 1.43347 6.85149 1.50741 6.85149Z" fill="#FFE15A"/>
<path d="M3.6495 6.85149C3.72344 6.85149 3.78337 6.79155 3.78337 6.71762C3.78337 6.64368 3.72344 6.58374 3.6495 6.58374C3.57556 6.58374 3.51562 6.64368 3.51562 6.71762C3.51562 6.79155 3.57556 6.85149 3.6495 6.85149Z" fill="#FFE15A"/>
<path d="M2.57846 5.77996C2.65239 5.77996 2.71233 5.72002 2.71233 5.64608C2.71233 5.57214 2.65239 5.51221 2.57846 5.51221C2.50452 5.51221 2.44458 5.57214 2.44458 5.64608C2.44458 5.72002 2.50452 5.77996 2.57846 5.77996Z" fill="#FFE15A"/>
<path d="M3.38192 7.83916C3.45586 7.83916 3.5158 7.77922 3.5158 7.70529C3.5158 7.63135 3.45586 7.57141 3.38192 7.57141C3.30798 7.57141 3.24805 7.63135 3.24805 7.70529C3.24805 7.77922 3.30798 7.83916 3.38192 7.83916Z" fill="#FFE15A"/>
<path d="M1.79012 7.83916C1.86406 7.83916 1.924 7.77922 1.924 7.70529C1.924 7.63135 1.86406 7.57141 1.79012 7.57141C1.71619 7.57141 1.65625 7.63135 1.65625 7.70529C1.65625 7.77922 1.71619 7.83916 1.79012 7.83916Z" fill="#FFE15A"/>
<path d="M2.75331 6.64954V6.88016C2.75331 6.9755 2.67574 7.05308 2.58039 7.05308C2.48505 7.05308 2.40747 6.9755 2.40747 6.88016V6.64954H2.75331Z" fill="#41479B"/>
<path d="M2.75331 6.10278V6.33341C2.75331 6.42875 2.67574 6.50633 2.58039 6.50633C2.48505 6.50633 2.40747 6.42875 2.40747 6.33341V6.10278H2.75331Z" fill="#41479B"/>
<path d="M2.75331 7.2019V7.43253C2.75331 7.52787 2.67574 7.60545 2.58039 7.60545C2.48505 7.60545 2.40747 7.52787 2.40747 7.43253V7.2019H2.75331Z" fill="#41479B"/>
<path d="M3.21913 6.64954V6.88016C3.21913 6.9755 3.14156 7.05308 3.04621 7.05308C2.95087 7.05308 2.87329 6.9755 2.87329 6.88016V6.64954H3.21913Z" fill="#41479B"/>
<path d="M2.28749 6.64954V6.88016C2.28749 6.9755 2.20992 7.05308 2.11457 7.05308C2.01923 7.05308 1.94165 6.9755 1.94165 6.88016V6.64954H2.28749Z" fill="#41479B"/>
</svg>
