<svg width="24" height="24" viewBox="0 0 24 24" fill="none" xmlns="http://www.w3.org/2000/svg">
<g clip-path="url(#clip0_1_6146)">
<path d="M18.6206 4.13794H5.37939V19.8622H18.6206V4.13794Z" fill="#FFE15A"/>
<path d="M22.2025 19.8619C23.1952 19.8619 23.9999 19.0572 23.9999 18.0645V5.93524C23.9999 4.94257 23.1952 4.13782 22.2025 4.13782H18.6206V19.8619H22.2025Z" fill="#73AF00"/>
<path d="M1.79742 19.8619H5.37933V4.13782H1.79742C0.804703 4.13782 0 4.94252 0 5.93524V18.0646C0 19.0572 0.804703 19.8619 1.79742 19.8619Z" fill="#4173CD"/>
<path d="M8.99463 11.7879L10.3369 14.4724L11.6793 11.7879L10.3369 9.10327L8.99463 11.7879Z" fill="#73AF00"/>
<path d="M12.3208 11.7879L13.6631 14.4724L15.0054 11.7879L13.6631 9.10327L12.3208 11.7879Z" fill="#73AF00"/>
<path d="M10.6577 15.0152L12 17.6998L13.3423 15.0152L12 12.3307L10.6577 15.0152Z" fill="#73AF00"/>
</g>
<defs>
<clipPath id="clip0_1_6146">
<rect width="24" height="24" fill="white"/>
</clipPath>
</defs>
</svg>
