<svg width="24" height="24" viewBox="0 0 24 24" fill="none" xmlns="http://www.w3.org/2000/svg">
<path d="M22.1254 4.13824H1.86995C0.838899 4.13824 0 4.97246 0 6.00819V17.9918C0 19.0228 0.834212 19.8617 1.86995 19.8617H22.1301C23.1611 19.8617 24 19.0275 24 17.9918V6.00351C23.9953 4.97246 23.1611 4.13824 22.1254 4.13824Z" fill="#41479B"/>
<path d="M0.412419 11.9976H1.12947L4.96309 9.48564V11.9976H7.02988V9.48564L10.8635 11.9976H11.5806C11.8102 11.9976 11.993 11.8102 11.993 11.5852V11.2572L8.70299 9.10134H11.9977V7.03455H8.70767L11.9977 4.87872V4.55066C11.9977 4.32102 11.8102 4.13824 11.5852 4.13824H10.8682L7.03456 6.65025V4.13824H4.96778V6.65025L1.27944 4.23198C0.848272 4.37257 0.492091 4.66783 0.262449 5.05213L3.28998 7.03455H0V9.10134H3.28998L0 11.2572V11.5852C0 11.8102 0.187463 11.9976 0.412419 11.9976Z" fill="#F5F5F5"/>
<path d="M11.9977 7.44697H6.61746V4.13824H5.3802V7.44697H0V8.68892H5.3802V11.9976H6.61746V8.68892H11.9977V7.44697Z" fill="#FF4B55"/>
<path d="M0.407715 4.83653L3.78674 7.02985H4.54597L0.70297 4.53659C0.599865 4.62564 0.49676 4.72874 0.407715 4.83653Z" fill="#FF4B55"/>
<path d="M7.79389 7.03455L11.9368 4.34445C11.8665 4.2226 11.74 4.13824 11.5853 4.13824H11.4963L7.03467 7.03455H7.79389Z" fill="#FF4B55"/>
<path d="M4.19449 9.10135L0 11.7868C0.0702988 11.9133 0.257762 11.9977 0.412419 11.9977H0.492091L4.95372 9.10135H4.19449Z" fill="#FF4B55"/>
<path d="M11.9929 11.618L8.11714 9.10135H7.35791L11.7586 11.9555C11.8898 11.8946 11.9789 11.768 11.9929 11.618Z" fill="#FF4B55"/>
<path d="M15.4002 9.03105C15.3439 9.77153 15.1143 14.4675 18.095 15.5313C21.0756 14.4675 20.846 9.77153 20.7898 9.03105C20.4289 9.17165 19.1213 9.60281 18.095 8.8717C17.0686 9.59812 15.7611 9.17165 15.4002 9.03105Z" fill="#F5F5F5"/>
<path d="M19.5618 9.97773C19.3977 9.85119 19.0978 10.0855 18.7557 10.0621C18.4417 10.0387 18.0527 9.71996 17.5512 9.86056C17.4106 9.73402 17.4809 9.43408 17.4809 9.43408C17.1294 9.65904 17.106 9.96835 17.1294 10.1371C16.8811 10.4651 16.8951 10.9713 16.942 11.1213C17.0029 11.3228 17.1154 11.3462 17.1341 11.5712C17.1529 11.7961 17.2372 11.7164 17.2372 11.7164C17.4106 11.618 17.4388 11.4353 17.5137 11.1306C17.7996 11.1681 17.9824 10.9104 17.9824 10.9104C17.7949 10.9666 17.6778 10.8682 17.6122 10.7744C17.6215 10.7463 17.6309 10.7182 17.6403 10.6854C17.8512 10.1043 18.8682 10.2636 18.9619 10.423C19.1306 10.7135 19.3556 10.8213 19.3556 10.8213C19.3556 10.5167 19.1306 10.2542 19.1306 10.2542C19.4727 10.1933 19.5618 9.97773 19.5618 9.97773ZM17.1201 11.2244C17.0873 11.2244 17.0591 11.1962 17.0591 11.1634C17.0591 11.1306 17.0873 11.1025 17.1201 11.1025C17.1529 11.1025 17.181 11.1306 17.181 11.1634C17.181 11.1962 17.1576 11.2244 17.1201 11.2244Z" fill="#FFA028"/>
<path d="M18.5636 13.6942C18.7604 13.6333 18.737 13.249 18.9525 12.9818C19.1494 12.7334 19.6321 12.5975 19.8055 12.1054C19.9883 12.0632 20.1992 12.2882 20.1992 12.2882C20.2132 11.8711 19.9695 11.6743 19.8196 11.5993C19.6883 11.2056 19.2665 10.9338 19.1119 10.8869C18.9151 10.8213 18.826 10.9057 18.6339 10.7932C18.4417 10.6807 18.4558 10.7932 18.4558 10.7932C18.437 10.9947 18.5776 11.1212 18.7838 11.3509C18.5917 11.5665 18.6948 11.8617 18.6948 11.8617C18.751 11.6743 18.9057 11.6368 19.0135 11.6368C19.0322 11.6602 19.051 11.6836 19.0697 11.7118C19.4259 12.2179 18.7229 12.9584 18.5354 12.9443C18.198 12.9209 17.9824 13.0427 17.9824 13.0427C18.2308 13.2161 18.5776 13.1833 18.5776 13.1833C18.437 13.4973 18.5636 13.6942 18.5636 13.6942ZM18.9197 10.9806C18.9385 10.9525 18.976 10.9478 19.0041 10.9666C19.0322 10.9853 19.0369 11.0228 19.0182 11.0509C18.9994 11.0791 18.9619 11.0838 18.9338 11.065C18.9104 11.0463 18.901 11.0088 18.9197 10.9806Z" fill="#FFA028"/>
<path d="M15.8968 11.0041C15.8687 11.2103 16.2296 11.3509 16.3795 11.6555C16.5201 11.9367 16.4405 12.4335 16.8154 12.7991C16.7779 12.9818 16.4873 13.0756 16.4873 13.0756C16.8576 13.263 17.1388 13.1271 17.27 13.024C17.6824 13.0709 18.1042 12.7991 18.212 12.6819C18.3526 12.5272 18.3151 12.4148 18.4979 12.2882C18.6806 12.157 18.5729 12.1242 18.5729 12.1242C18.3995 12.0211 18.226 12.0961 17.9261 12.1851C17.8136 11.9227 17.4996 11.8899 17.4996 11.8899C17.6449 12.0211 17.6168 12.1757 17.5699 12.2742C17.5371 12.2789 17.509 12.2882 17.4762 12.2929C16.8669 12.4054 16.492 11.4493 16.5811 11.29C16.7451 10.9947 16.7263 10.7463 16.7263 10.7463C16.4639 10.901 16.3514 11.2291 16.3514 11.2291C16.1265 10.9713 15.8968 11.0041 15.8968 11.0041ZM18.2073 12.471C18.226 12.4991 18.2167 12.5366 18.1839 12.5554C18.1558 12.5741 18.1183 12.5647 18.0995 12.5319C18.0808 12.5038 18.0901 12.4663 18.1229 12.4476C18.1558 12.4335 18.1932 12.4429 18.2073 12.471Z" fill="#FFA028"/>
<path d="M18.095 15.686L18.0715 15.6766C14.7159 14.5097 15.2549 8.9748 15.2643 8.91856L15.2736 8.82014L15.3674 8.86232C15.3814 8.87169 16.9421 9.56062 18.0528 8.72641L18.095 8.6936L18.1371 8.72641C19.2525 9.56062 20.8085 8.87169 20.8225 8.86232L20.9163 8.82014L20.9257 8.91856C20.9303 8.9748 21.474 14.5097 18.1184 15.6766L18.095 15.686ZM15.4002 9.03104C15.3439 9.77152 15.1143 14.4675 18.095 15.5313C21.0756 14.4675 20.846 9.77152 20.7897 9.03104C20.4289 9.17164 19.1213 9.6028 18.095 8.87169C17.0686 9.59811 15.761 9.17164 15.4002 9.03104Z" fill="#CDCE0C"/>
<path d="M16.2249 13.8629C16.6326 14.6034 17.2278 15.222 18.0948 15.5313C18.9618 15.222 19.557 14.6034 19.9647 13.8629H16.2249Z" fill="#82AFFF"/>
</svg>
