<svg width="24" height="24" viewBox="0 0 24 24" fill="none" xmlns="http://www.w3.org/2000/svg">
<path d="M22.2026 19.8621H1.79742C0.804703 19.8621 0 19.0574 0 18.0646V5.93536C0 4.94269 0.804703 4.13794 1.79742 4.13794H22.2026C23.1952 4.13794 24 4.94264 24 5.93536V18.0647C24 19.0574 23.1953 19.8621 22.2026 19.8621Z" fill="#F5F5F5"/>
<path d="M22.4611 4.15674L11.9999 11.0107L1.53873 4.15674C0.911822 4.24711 0.389729 4.66083 0.146729 5.22352L10.4898 12.0001L0.146729 18.7766C0.389729 19.3393 0.911869 19.753 1.53878 19.8434L11.9999 12.9894L22.4611 19.8433C23.088 19.7529 23.6101 19.3393 23.8531 18.7765L13.51 12.0001L23.8532 5.22352C23.6101 4.66083 23.088 4.24711 22.4611 4.15674Z" fill="#FF4B55"/>
<path d="M13.2448 5.94661C13.2448 5.94661 13.1138 5.75007 12.9173 5.88108C12.9173 5.88108 13.1446 6.04491 12.991 6.2169C12.8284 6.39891 12.605 6.22088 12.591 6.09043C12.6506 6.08588 12.6977 6.03661 12.6977 5.97586C12.6977 5.91207 12.646 5.86041 12.5822 5.86041C12.5185 5.86041 12.4668 5.91207 12.4668 5.97586C12.4668 6.02565 12.4985 6.06769 12.5426 6.08391C12.5145 6.19557 12.2216 6.28102 12.1372 6.0961C12.0421 5.88793 12.1925 5.71116 12.3952 5.73572C12.3952 5.73572 12.3563 5.47777 12.082 5.58624C12.082 5.58624 12.1966 5.2914 12.0001 5.09485C11.8035 5.2914 11.9182 5.58624 11.9182 5.58624C11.6438 5.47772 11.605 5.73572 11.605 5.73572C11.8076 5.71116 11.958 5.88783 11.863 6.0961C11.7785 6.28102 11.4857 6.19557 11.4575 6.08391C11.5016 6.06774 11.5333 6.02569 11.5333 5.97586C11.5333 5.91207 11.4817 5.86041 11.4179 5.86041C11.3541 5.86041 11.3024 5.91207 11.3024 5.97586C11.3024 6.03666 11.3495 6.08588 11.4091 6.09043C11.3951 6.22088 11.1716 6.39891 11.0092 6.2169C10.8556 6.04491 11.0829 5.88108 11.0829 5.88108C10.8863 5.75007 10.7553 5.94661 10.7553 5.94661C10.6898 5.68454 10.4277 5.75007 10.4277 5.75007C10.6898 6.07763 10.8825 6.75338 10.8825 6.75338H13.1178C13.1178 6.75338 13.3105 6.07768 13.5726 5.75007C13.5724 5.75007 13.3103 5.68454 13.2448 5.94661Z" fill="#FFE15A"/>
<path d="M13.1176 6.75329C12.756 6.62584 12.3779 6.56213 11.9999 6.56213C11.6219 6.56213 11.2439 6.62584 10.8823 6.75329C10.296 9.32199 11.9999 10.0086 11.9999 10.0086C11.9999 10.0086 13.7038 9.32199 13.1176 6.75329Z" fill="#FF4B55"/>
<path d="M11.1825 7.66714C11.1825 7.66714 11.1288 7.65701 11.0821 7.69442C11.0821 7.69442 11.0657 7.62983 11.1498 7.61426C11.2339 7.59861 11.1825 7.66714 11.1825 7.66714Z" fill="#82AFFF"/>
<path d="M11.1177 7.58545C11.1177 7.58545 11.0752 7.55113 11.0164 7.56201C11.0164 7.56201 11.0325 7.49737 11.114 7.52338C11.1954 7.54935 11.1177 7.58545 11.1177 7.58545Z" fill="#82AFFF"/>
<path d="M11.1529 7.61891C11.1529 7.61891 11.0942 7.60878 11.0431 7.64619C11.0431 7.64619 11.0253 7.5816 11.1172 7.56603C11.209 7.55043 11.1529 7.61891 11.1529 7.61891Z" fill="#82AFFF"/>
<path d="M12.1697 7.79049C12.1697 7.79049 12.1151 7.79307 12.0783 7.84027C12.0783 7.84027 12.0474 7.78121 12.1256 7.74662C12.2037 7.71198 12.1697 7.79049 12.1697 7.79049Z" fill="#82AFFF"/>
<path d="M12.0897 7.72013C12.0897 7.72013 12.0403 7.6966 11.9856 7.72079C11.9856 7.72079 11.9863 7.65413 12.0716 7.6606C12.1568 7.66707 12.0897 7.72013 12.0897 7.72013Z" fill="#82AFFF"/>
<path d="M12.1299 7.75039C12.1299 7.75039 12.0704 7.75409 12.0294 7.80228C12.0294 7.80228 11.9971 7.74359 12.0829 7.70717C12.1687 7.67075 12.1299 7.75039 12.1299 7.75039Z" fill="#82AFFF"/>
<path d="M12.7935 7.82432C12.7935 7.82432 12.7731 7.82432 12.7365 7.85878C12.7365 7.85878 12.7103 7.80018 12.7874 7.7714C12.8647 7.74262 12.7935 7.82432 12.7935 7.82432Z" fill="#82AFFF"/>
<path d="M12.7544 7.74374C12.7544 7.74374 12.7083 7.71824 12.6543 7.7383C12.6543 7.7383 12.6588 7.67427 12.7405 7.68538C12.8221 7.69658 12.7544 7.74374 12.7544 7.74374Z" fill="#82AFFF"/>
<path d="M12.7914 7.77523C12.7914 7.77523 12.734 7.77537 12.6918 7.81929C12.6918 7.81929 12.6642 7.76093 12.7488 7.73089C12.8334 7.70089 12.7914 7.77523 12.7914 7.77523Z" fill="#82AFFF"/>
<path d="M11.0926 7.26178C11.0926 7.26178 11.0432 7.22896 10.9807 7.24635C10.9807 7.24635 10.9919 7.17515 11.0824 7.19521C11.173 7.21528 11.0926 7.26178 11.0926 7.26178Z" fill="#82AFFF"/>
<path d="M11.0884 7.13886C11.0884 7.13886 11.0565 7.08876 10.9885 7.08435C10.9885 7.08435 11.0325 7.0168 11.1098 7.06865C11.1872 7.1204 11.0884 7.13886 11.0884 7.13886Z" fill="#82AFFF"/>
<path d="M11.0888 7.20417C11.0888 7.20417 11.0368 7.16573 10.968 7.17988C10.968 7.17988 10.9835 7.10474 11.0809 7.13249C11.1783 7.16034 11.0888 7.20417 11.0888 7.20417Z" fill="#82AFFF"/>
<path d="M12.6359 7.42894C12.7224 7.43129 12.8251 7.39702 12.8414 7.30749C12.8602 7.2046 12.7721 7.15257 12.6538 7.15721C12.5675 7.16063 12.3488 7.21022 12.1922 7.20469C12.0373 7.19926 12.0331 7.04597 12.2677 7.06224C12.6157 7.08638 12.671 7.04124 12.671 7.04124C12.4841 7.07626 12.4094 7.01086 12.2109 7.01086C12.0124 7.01086 11.9743 7.14835 12.0544 7.2234C12.1443 7.30749 12.4701 7.25143 12.5566 7.23507C12.643 7.21871 12.7526 7.21786 12.7613 7.27866C12.769 7.33318 12.6243 7.33022 12.5217 7.32629C12.3585 7.32001 12.1209 7.3643 11.9096 7.37522C11.7335 7.38432 11.709 7.33468 11.6689 7.28382C11.6783 7.2669 11.6837 7.24801 11.6837 7.22804C11.6837 7.21796 11.6821 7.20821 11.6795 7.19874C11.6928 7.18416 11.7068 7.16082 11.7132 7.1229C11.7132 7.1229 11.6681 7.11497 11.6341 7.13218C11.6068 7.11066 11.5707 7.09721 11.5307 7.09721C11.4907 7.09721 11.4546 7.11066 11.4273 7.13218C11.3933 7.11502 11.3482 7.1229 11.3482 7.1229C11.3546 7.16086 11.3686 7.18411 11.3819 7.19874C11.3793 7.20816 11.3778 7.21786 11.3778 7.22804C11.3778 7.26469 11.3954 7.29783 11.4238 7.3216C11.4375 7.33308 11.4477 7.34818 11.4512 7.36571L11.4561 7.3906C11.4583 7.40152 11.4653 7.41005 11.4745 7.41525C11.3293 7.4003 11.2606 7.30908 11.2254 7.25836C11.1856 7.20118 11.1608 7.07466 11.1 7.06065L11.0642 7.25143C11.0642 7.25143 11.1409 7.4289 11.2837 7.50132C11.4449 7.58302 11.4753 7.58541 11.5282 7.60876C11.5344 7.63679 11.4285 7.6539 11.3211 7.63215C11.2461 7.61696 11.145 7.50802 11.0875 7.5158L11.1545 7.66482C11.3367 7.78004 11.4959 7.78247 11.6325 7.75824C11.729 7.74113 11.7657 7.66252 11.7721 7.62886C11.8115 7.62155 11.8545 7.6134 11.9875 7.58072C12.0432 7.56704 12.1074 7.55982 12.1712 7.55682C12.1892 7.59788 12.2304 7.65047 12.3721 7.65544C12.3721 7.65544 12.4063 7.70996 12.2896 7.69904C12.1728 7.68811 12.1428 7.65174 12.0743 7.65952L12.1354 7.80493C12.1354 7.80493 12.2849 7.75355 12.4686 7.77226C12.4686 7.77226 12.5028 7.78163 12.5231 7.75205C12.5433 7.72247 12.534 7.70536 12.5153 7.67888C12.5048 7.66397 12.4987 7.61569 12.4954 7.57618C12.5627 7.5931 12.7692 7.55119 12.8438 7.55747C12.9185 7.56366 12.9295 7.6509 12.9123 7.68047C12.8952 7.71005 12.7387 7.68479 12.7387 7.68479L12.7913 7.82841C12.7913 7.82841 12.8071 7.82082 12.8469 7.78327C12.8793 7.75276 13.012 7.76307 13.012 7.73968V7.47361C13.012 7.46101 13.001 7.45116 12.9884 7.45224C12.6958 7.47774 12.6359 7.42894 12.6359 7.42894Z" fill="#FFE15A"/>
<path d="M11.4692 7.33447C11.4736 7.34305 11.4769 7.35238 11.4787 7.36227L11.4831 7.38716C11.4846 7.39588 11.4915 7.40221 11.4995 7.40221H11.5673C11.5753 7.40221 11.5822 7.39588 11.5838 7.38716L11.5882 7.36227C11.5899 7.35238 11.5932 7.3431 11.5976 7.33447H11.4692Z" fill="#FF4B55"/>
<path d="M11.5334 7.38367C11.5178 7.38367 11.5055 7.38559 11.5072 7.40734L11.5136 7.50039C11.5146 7.51459 11.5232 7.52542 11.5334 7.52542C11.5436 7.52542 11.5523 7.51459 11.5533 7.50039L11.5596 7.40734C11.5613 7.38559 11.549 7.38367 11.5334 7.38367Z" fill="#82AFFF"/>
<path d="M11.3313 8.58621C11.3313 8.58621 11.2875 8.57791 11.2493 8.60843C11.2493 8.60843 11.236 8.55574 11.3046 8.54299C11.3732 8.53038 11.3313 8.58621 11.3313 8.58621Z" fill="#82AFFF"/>
<path d="M11.2785 8.51958C11.2785 8.51958 11.2438 8.49159 11.1958 8.50045C11.1958 8.50045 11.2089 8.44767 11.2754 8.4689C11.3419 8.49009 11.2785 8.51958 11.2785 8.51958Z" fill="#82AFFF"/>
<path d="M11.3075 8.54692C11.3075 8.54692 11.2596 8.53862 11.2179 8.56913C11.2179 8.56913 11.2034 8.51645 11.2783 8.5037C11.3532 8.49104 11.3075 8.54692 11.3075 8.54692Z" fill="#82AFFF"/>
<path d="M12.1368 8.68694C12.1368 8.68694 12.0923 8.68905 12.0623 8.72749C12.0623 8.72749 12.0371 8.6793 12.1009 8.65108C12.1647 8.62291 12.1368 8.68694 12.1368 8.68694Z" fill="#82AFFF"/>
<path d="M12.0715 8.62949C12.0715 8.62949 12.0312 8.61032 11.9866 8.63001C11.9866 8.63001 11.9871 8.57563 12.0567 8.58093C12.1263 8.58618 12.0715 8.62949 12.0715 8.62949Z" fill="#82AFFF"/>
<path d="M12.1042 8.65412C12.1042 8.65412 12.0557 8.65716 12.0222 8.69645C12.0222 8.69645 11.9958 8.64854 12.0658 8.61887C12.1359 8.58915 12.1042 8.65412 12.1042 8.65412Z" fill="#82AFFF"/>
<path d="M12.6455 8.7144C12.6455 8.7144 12.6289 8.7144 12.599 8.74248C12.599 8.74248 12.5775 8.69467 12.6405 8.67128C12.7035 8.64779 12.6455 8.7144 12.6455 8.7144Z" fill="#82AFFF"/>
<path d="M12.6136 8.64869C12.6136 8.64869 12.576 8.62788 12.532 8.64429C12.532 8.64429 12.5357 8.59207 12.6023 8.60116C12.6689 8.61021 12.6136 8.64869 12.6136 8.64869Z" fill="#82AFFF"/>
<path d="M12.6437 8.67442C12.6437 8.67442 12.5968 8.67452 12.5624 8.71038C12.5624 8.71038 12.5398 8.6628 12.6088 8.63828C12.6779 8.61377 12.6437 8.67442 12.6437 8.67442Z" fill="#82AFFF"/>
<path d="M11.258 8.25556C11.258 8.25556 11.2178 8.22884 11.1667 8.243C11.1667 8.243 11.1758 8.18488 11.2498 8.20128C11.3236 8.21769 11.258 8.25556 11.258 8.25556Z" fill="#82AFFF"/>
<path d="M11.2548 8.15529C11.2548 8.15529 11.2288 8.11437 11.1733 8.11081C11.1733 8.11081 11.2092 8.05573 11.2723 8.09797C11.3353 8.14025 11.2548 8.15529 11.2548 8.15529Z" fill="#82AFFF"/>
<path d="M11.255 8.20858C11.255 8.20858 11.2126 8.17723 11.1565 8.1888C11.1565 8.1888 11.1691 8.12749 11.2486 8.15018C11.3281 8.17282 11.255 8.20858 11.255 8.20858Z" fill="#82AFFF"/>
<path d="M12.5169 8.39187C12.5874 8.39379 12.6712 8.36586 12.6845 8.29282C12.6998 8.20892 12.628 8.16645 12.5315 8.17029C12.461 8.17311 12.2827 8.21351 12.1549 8.20901C12.0285 8.20456 12.0251 8.07954 12.2165 8.09281C12.5004 8.1125 12.5454 8.0757 12.5454 8.0757C12.393 8.10425 12.3321 8.0509 12.1701 8.0509C12.0082 8.0509 11.9771 8.16303 12.0425 8.22429C12.1157 8.29287 12.3816 8.24717 12.4521 8.23381C12.5226 8.22045 12.612 8.21975 12.6191 8.26939C12.6254 8.31382 12.5073 8.31143 12.4237 8.30825C12.2905 8.30314 12.0967 8.33928 11.9243 8.34814C11.7807 8.35554 11.7607 8.31504 11.728 8.27361C11.7357 8.25978 11.74 8.24445 11.74 8.22814C11.74 8.21993 11.7387 8.21201 11.7366 8.20428C11.7475 8.19237 11.7588 8.17334 11.7641 8.1424C11.7641 8.1424 11.7273 8.13593 11.6996 8.14995C11.6774 8.13242 11.6479 8.12145 11.6152 8.12145C11.5825 8.12145 11.5531 8.13242 11.5308 8.14995C11.5031 8.13593 11.4663 8.1424 11.4663 8.1424C11.4715 8.17334 11.4829 8.19237 11.4938 8.20428C11.4917 8.21197 11.4904 8.21989 11.4904 8.22814C11.4904 8.25804 11.5048 8.28509 11.528 8.30445C11.5391 8.31383 11.5475 8.32611 11.5503 8.34045L11.5543 8.36079C11.5561 8.3697 11.5618 8.37664 11.5693 8.3809C11.4509 8.36872 11.3948 8.29433 11.3661 8.25293C11.3337 8.20629 11.3134 8.10307 11.2638 8.09164L11.2346 8.24722C11.2346 8.24722 11.2972 8.39201 11.4137 8.45107C11.5451 8.51773 11.5699 8.51965 11.6131 8.53868C11.6181 8.56156 11.5318 8.57553 11.4442 8.55772C11.383 8.54529 11.3006 8.45651 11.2536 8.46279L11.3083 8.58434C11.4569 8.67832 11.5867 8.68029 11.6982 8.66051C11.7769 8.64654 11.8068 8.58247 11.812 8.555C11.8441 8.54904 11.8792 8.54239 11.9877 8.51572C12.0332 8.50456 12.0855 8.49865 12.1376 8.49622C12.1523 8.52973 12.1859 8.57267 12.3014 8.57665C12.3014 8.57665 12.3294 8.62109 12.2341 8.61218C12.1388 8.60328 12.1145 8.57361 12.0585 8.57998L12.1084 8.69858C12.1084 8.69858 12.2303 8.65667 12.3802 8.6719C12.3802 8.6719 12.4082 8.6795 12.4247 8.6554C12.4412 8.63126 12.4336 8.61729 12.4183 8.59573C12.4097 8.58359 12.4048 8.54417 12.4021 8.51192C12.457 8.52575 12.6254 8.49153 12.6862 8.49659C12.7472 8.50165 12.7561 8.57276 12.7421 8.59695C12.7282 8.62109 12.6005 8.60047 12.6005 8.60047L12.6434 8.71761C12.6434 8.71761 12.6563 8.71142 12.6888 8.68076C12.7153 8.65587 12.8234 8.66426 12.8234 8.64523V8.4282C12.8234 8.41789 12.8145 8.40987 12.8043 8.41076C12.5658 8.43162 12.5169 8.39187 12.5169 8.39187Z" fill="#FFE15A"/>
<path d="M11.5654 8.3147C11.569 8.32173 11.5717 8.32932 11.5731 8.33734L11.5766 8.35768C11.5779 8.36481 11.5835 8.36996 11.59 8.36996H11.6454C11.6518 8.36996 11.6574 8.36481 11.6587 8.35768L11.6623 8.33734C11.6637 8.32932 11.6664 8.32168 11.6699 8.3147H11.5654Z" fill="#FF4B55"/>
<path d="M11.6177 8.35486C11.6049 8.35486 11.595 8.35641 11.5963 8.37422L11.6015 8.45011C11.6024 8.46173 11.6093 8.47055 11.6177 8.47055C11.6261 8.47055 11.6331 8.46173 11.6339 8.45011L11.6391 8.37422C11.6404 8.35641 11.6305 8.35486 11.6177 8.35486Z" fill="#82AFFF"/>
<path d="M11.497 9.31659C11.497 9.31659 11.4641 9.3104 11.4356 9.33323C11.4356 9.33323 11.4256 9.29376 11.477 9.28424C11.5284 9.27473 11.497 9.31659 11.497 9.31659Z" fill="#82AFFF"/>
<path d="M11.4574 9.26659C11.4574 9.26659 11.4314 9.24564 11.3955 9.25225C11.3955 9.25225 11.4054 9.21273 11.4551 9.22862C11.5049 9.24456 11.4574 9.26659 11.4574 9.26659Z" fill="#82AFFF"/>
<path d="M11.479 9.28705C11.479 9.28705 11.4432 9.28086 11.412 9.30369C11.412 9.30369 11.4011 9.26422 11.4572 9.2547C11.5133 9.24519 11.479 9.28705 11.479 9.28705Z" fill="#82AFFF"/>
<path d="M12.1 9.39194C12.1 9.39194 12.0666 9.39348 12.0442 9.42231C12.0442 9.42231 12.0253 9.38622 12.0731 9.36512C12.1209 9.34398 12.1 9.39194 12.1 9.39194Z" fill="#82AFFF"/>
<path d="M12.0511 9.34889C12.0511 9.34889 12.021 9.3345 11.9875 9.34932C11.9875 9.34932 11.988 9.30863 12.04 9.31252C12.0922 9.31646 12.0511 9.34889 12.0511 9.34889Z" fill="#82AFFF"/>
<path d="M12.0755 9.36741C12.0755 9.36741 12.0392 9.36971 12.0142 9.3991C12.0142 9.3991 11.9944 9.36324 12.0468 9.34102C12.0992 9.3188 12.0755 9.36741 12.0755 9.36741Z" fill="#82AFFF"/>
<path d="M12.4809 9.41252C12.4809 9.41252 12.4684 9.41251 12.446 9.43356C12.446 9.43356 12.43 9.39775 12.4771 9.38022C12.5243 9.36264 12.4809 9.41252 12.4809 9.41252Z" fill="#82AFFF"/>
<path d="M12.4571 9.36336C12.4571 9.36336 12.429 9.3478 12.396 9.36003C12.396 9.36003 12.3988 9.32094 12.4486 9.32769C12.4985 9.33448 12.4571 9.36336 12.4571 9.36336Z" fill="#82AFFF"/>
<path d="M12.4796 9.3825C12.4796 9.3825 12.4445 9.38259 12.4187 9.40945C12.4187 9.40945 12.4017 9.37383 12.4534 9.35545C12.5051 9.33708 12.4796 9.3825 12.4796 9.3825Z" fill="#82AFFF"/>
<path d="M11.4421 9.06895C11.4421 9.06895 11.412 9.04893 11.3738 9.05953C11.3738 9.05953 11.3806 9.01603 11.4359 9.02831C11.4912 9.04054 11.4421 9.06895 11.4421 9.06895Z" fill="#82AFFF"/>
<path d="M11.4396 8.99394C11.4396 8.99394 11.4202 8.96334 11.3787 8.96062C11.3787 8.96062 11.4056 8.91941 11.4527 8.95101C11.5 8.98265 11.4396 8.99394 11.4396 8.99394Z" fill="#82AFFF"/>
<path d="M11.4397 9.03383C11.4397 9.03383 11.4079 9.01034 11.366 9.01902C11.366 9.01902 11.3754 8.97312 11.4349 8.99009C11.4945 9.00701 11.4397 9.03383 11.4397 9.03383Z" fill="#82AFFF"/>
<path d="M12.3846 9.1711C12.4374 9.17255 12.5002 9.1516 12.5101 9.09694C12.5216 9.03408 12.4678 9.00235 12.3956 9.00516C12.3428 9.00722 12.2093 9.03755 12.1136 9.03418C12.019 9.03085 12.0165 8.93724 12.1597 8.94718C12.3723 8.9619 12.4061 8.93433 12.4061 8.93433C12.292 8.95576 12.2463 8.91577 12.1251 8.91577C12.0038 8.91577 11.9805 8.99972 12.0295 9.04562C12.0843 9.09699 12.2834 9.06272 12.3361 9.05274C12.3889 9.04276 12.4559 9.04224 12.4612 9.07937C12.466 9.11265 12.3775 9.11087 12.3149 9.10843C12.2152 9.10458 12.0701 9.13163 11.941 9.13833C11.8335 9.14387 11.8185 9.11354 11.794 9.08251C11.7997 9.07215 11.803 9.06066 11.803 9.04848C11.803 9.04233 11.802 9.03638 11.8005 9.03062C11.8086 9.02166 11.8171 9.00746 11.821 8.98426C11.821 8.98426 11.7935 8.97943 11.7727 8.98988C11.7561 8.97676 11.734 8.96851 11.7096 8.96851C11.6851 8.96851 11.6631 8.97671 11.6464 8.98988C11.6256 8.97938 11.5981 8.98426 11.5981 8.98426C11.602 9.00741 11.6106 9.02166 11.6187 9.03062C11.6171 9.03633 11.6161 9.04229 11.6161 9.04848C11.6161 9.07088 11.627 9.09108 11.6443 9.10562C11.6527 9.1126 11.6588 9.12183 11.661 9.13257L11.664 9.14776C11.6653 9.15441 11.6696 9.15962 11.6751 9.1628C11.5865 9.15366 11.5445 9.09793 11.523 9.06699C11.4987 9.03207 11.4835 8.95482 11.4465 8.94619L11.4246 9.06268C11.4246 9.06268 11.4715 9.1711 11.5586 9.2153C11.6571 9.26522 11.6756 9.26668 11.7079 9.28093C11.7118 9.29804 11.647 9.30849 11.5815 9.29522C11.5356 9.2859 11.4739 9.21938 11.4388 9.22416L11.4797 9.31519C11.591 9.38555 11.6882 9.38705 11.7717 9.37224C11.8306 9.36179 11.853 9.31379 11.8569 9.29326C11.8809 9.2888 11.9072 9.28379 11.9884 9.26382C12.0225 9.25543 12.0616 9.25102 12.1006 9.24924C12.1117 9.27432 12.1368 9.30643 12.2233 9.30943C12.2233 9.30943 12.2442 9.34271 12.1729 9.33605C12.1015 9.3294 12.0832 9.30718 12.0414 9.31191L12.0787 9.40074C12.0787 9.40074 12.1701 9.36933 12.2822 9.38077C12.2822 9.38077 12.3031 9.38644 12.3155 9.3684C12.3279 9.35035 12.3222 9.33985 12.3107 9.32372C12.3043 9.31463 12.3006 9.2851 12.2986 9.26101C12.3397 9.27137 12.4658 9.24572 12.5114 9.24957C12.557 9.25341 12.5637 9.30662 12.5533 9.32466C12.5428 9.34271 12.4472 9.32729 12.4472 9.32729L12.4793 9.41499C12.4793 9.41499 12.4889 9.41035 12.5133 9.38743C12.5331 9.36882 12.6141 9.37505 12.6141 9.3608V9.19829C12.6141 9.1906 12.6075 9.1846 12.5997 9.18526C12.4212 9.20096 12.3846 9.1711 12.3846 9.1711Z" fill="#FFE15A"/>
<path d="M11.6721 9.1134C11.6748 9.1187 11.6768 9.12437 11.6778 9.13037L11.6805 9.14556C11.6814 9.1509 11.6857 9.15475 11.6905 9.15475H11.7319C11.7368 9.15475 11.741 9.15086 11.7419 9.14556L11.7446 9.13037C11.7457 9.12437 11.7476 9.11865 11.7503 9.1134H11.6721Z" fill="#FF4B55"/>
<path d="M11.7112 9.14343C11.7016 9.14343 11.6942 9.14456 11.6952 9.15792L11.699 9.21473C11.6997 9.2234 11.705 9.23006 11.7112 9.23006C11.7175 9.23006 11.7227 9.22345 11.7233 9.21473L11.7272 9.15792C11.7282 9.14456 11.7207 9.14343 11.7112 9.14343Z" fill="#82AFFF"/>
</svg>
