<svg width="24" height="24" viewBox="0 0 24 24" fill="none" xmlns="http://www.w3.org/2000/svg">
<path d="M22.2026 4.13794H1.79742C0.804703 4.13794 0 4.94264 0 5.93536V9.37931H24V5.93536C24 4.94264 23.1953 4.13794 22.2026 4.13794Z" fill="#FAB446"/>
<path d="M0 18.0647C0 19.0574 0.804703 19.8621 1.79742 19.8621H22.2026C23.1952 19.8621 24 19.0574 24 18.0647V14.6207H0V18.0647Z" fill="#73AF00"/>
<path d="M24 9.37927H0V14.6204H24V9.37927Z" fill="#F5F5F5"/>
<path d="M12 14.2241C10.7736 14.2241 9.77588 13.2264 9.77588 12C9.77588 10.7736 10.7736 9.77588 12 9.77588C13.2264 9.77588 14.2241 10.7736 14.2241 12C14.2241 13.2264 13.2264 14.2241 12 14.2241ZM12 10.1896C11.0017 10.1896 10.1896 11.0017 10.1896 12C10.1896 12.9983 11.0017 13.8104 12 13.8104C12.9983 13.8104 13.8104 12.9983 13.8104 12C13.8104 11.0017 12.9983 10.1896 12 10.1896Z" fill="#41479B"/>
<path d="M11.9999 12.2521C12.1392 12.2521 12.2521 12.1392 12.2521 11.9999C12.2521 11.8607 12.1392 11.7478 11.9999 11.7478C11.8607 11.7478 11.7478 11.8607 11.7478 11.9999C11.7478 12.1392 11.8607 12.2521 11.9999 12.2521Z" fill="#41479B"/>
<path d="M11.9999 12.0378L11.3591 12.1025L9.98267 12.0378V11.9621L11.3591 11.8975L11.9999 11.9621V12.0378Z" fill="#41479B"/>
<path d="M12 12.0378L12.6408 12.1025L14.0172 12.0378V11.9621L12.6408 11.8975L12 11.9621V12.0378Z" fill="#41479B"/>
<path d="M11.9621 12L11.8975 11.3592L11.9621 9.98279H12.0378L12.1025 11.3592L12.0378 12H11.9621Z" fill="#41479B"/>
<path d="M11.9621 12L11.8975 12.6408L11.9621 14.0172H12.0378L12.1025 12.6408L12.0378 12H11.9621Z" fill="#41479B"/>
<path d="M11.9733 12.0267L11.4744 11.6194L10.5469 10.6004L10.6004 10.5469L11.6194 11.4744L12.0267 11.9733L11.9733 12.0267Z" fill="#41479B"/>
<path d="M11.9734 12.0267L12.3807 12.5255L13.3997 13.4531L13.4532 13.3996L12.5257 12.3806L12.0268 11.9733L11.9734 12.0267Z" fill="#41479B"/>
<path d="M11.9734 11.9733L12.3807 11.4744L13.3997 10.5469L13.4532 10.6004L12.5257 11.6194L12.0268 12.0267L11.9734 11.9733Z" fill="#41479B"/>
<path d="M11.9733 11.9733L11.4744 12.3806L10.5469 13.3996L10.6004 13.4531L11.6194 12.5255L12.0267 12.0267L11.9733 11.9733Z" fill="#41479B"/>
<path d="M12.0145 12.035L11.4472 12.34L10.1508 12.807L10.1218 12.7371L11.3687 12.1506L11.9855 11.9651L12.0145 12.035Z" fill="#41479B"/>
<path d="M12.0146 12.035L12.6313 11.8495L13.8782 11.263L13.8493 11.1931L12.5529 11.6601L11.9856 11.9651L12.0146 12.035Z" fill="#41479B"/>
<path d="M11.9651 12.0145L11.6601 11.4472L11.1931 10.1508L11.263 10.1218L11.8495 11.3687L12.035 11.9855L11.9651 12.0145Z" fill="#41479B"/>
<path d="M11.9651 12.0144L12.1506 12.6312L12.7371 13.8781L12.807 13.8491L12.34 12.5528L12.035 11.9855L11.9651 12.0144Z" fill="#41479B"/>
<path d="M11.9855 12.035L11.3687 11.8495L10.1218 11.263L10.1508 11.1931L11.4472 11.6601L12.0145 11.9651L11.9855 12.035Z" fill="#41479B"/>
<path d="M11.9856 12.035L12.5529 12.34L13.8493 12.807L13.8782 12.7371L12.6313 12.1506L12.0146 11.9651L11.9856 12.035Z" fill="#41479B"/>
<path d="M11.9651 11.9855L12.1506 11.3687L12.7371 10.1218L12.807 10.1508L12.34 11.4472L12.035 12.0145L11.9651 11.9855Z" fill="#41479B"/>
<path d="M11.9651 11.9855L11.6601 12.5528L11.1931 13.8491L11.263 13.8781L11.8495 12.6312L12.035 12.0144L11.9651 11.9855Z" fill="#41479B"/>
<path d="M12 12.3402C12.1879 12.3402 12.3402 12.1879 12.3402 12C12.3402 11.8122 12.1879 11.6599 12 11.6599C11.8122 11.6599 11.6599 11.8122 11.6599 12C11.6599 12.1879 11.8122 12.3402 12 12.3402Z" fill="#F5F5F5"/>
<path d="M12.0001 12.2039C12.1127 12.2039 12.204 12.1126 12.204 12C12.204 11.8873 12.1127 11.796 12.0001 11.796C11.8875 11.796 11.7961 11.8873 11.7961 12C11.7961 12.1126 11.8875 12.2039 12.0001 12.2039Z" fill="#41479B"/>
</svg>
