<svg width="24" height="24" viewBox="0 0 24 24" fill="none" xmlns="http://www.w3.org/2000/svg">
<path d="M22.2025 4.13794H1.79742C0.804703 4.13794 0 4.94264 0 5.93531V9.37927H24V5.93531C24 4.94264 23.1952 4.13794 22.2025 4.13794Z" fill="#73AF00"/>
<path d="M24 14.6207H0V18.0647C0 19.0574 0.804703 19.8621 1.79742 19.8621H22.2025C23.1952 19.8621 24 19.0574 24 18.0647V14.6207Z" fill="#FF4B55"/>
<path d="M24 9.37927H0V14.6204H24V9.37927Z" fill="#F5F5F5"/>
<path d="M12.1043 10.8039L12.3625 11.5779L13.1784 11.5843C13.284 11.5851 13.3279 11.7199 13.2429 11.7826L12.5865 12.2673L12.8326 13.0453C12.8644 13.146 12.7497 13.2293 12.6638 13.1679L11.9999 12.6935L11.3361 13.1679C11.2501 13.2294 11.1355 13.146 11.1673 13.0454L11.4134 12.2674L10.757 11.7827C10.672 11.72 10.7158 11.5851 10.8214 11.5843L11.6374 11.578L11.8955 10.8039C11.9291 10.7037 12.0709 10.7037 12.1043 10.8039Z" fill="#464655"/>
<path d="M6.39776 6.27465C6.43024 6.48282 6.5561 6.54817 6.66555 6.53968C6.79455 6.52965 6.90771 6.41167 6.90771 6.28712V5.57261C6.90771 5.53679 6.93682 5.50764 6.97268 5.50764C7.00854 5.50764 7.03765 5.53679 7.03765 5.57261V6.29017C7.03765 6.37646 7.08026 6.45686 7.15174 6.50518C7.19538 6.53471 7.24619 6.55 7.29738 6.55C7.32996 6.55 7.36273 6.54381 7.39394 6.53134L7.45887 6.50537C7.46487 7.10509 7.42835 7.63225 7.42769 7.6419C7.42263 7.71343 7.47649 7.77559 7.54802 7.7807C7.55116 7.78098 7.5543 7.78107 7.55744 7.78107C7.62499 7.78107 7.68204 7.72876 7.68691 7.66042C7.68991 7.61814 7.72994 7.04092 7.71794 6.40178L7.75723 6.38612C7.79168 6.37243 7.8303 6.37407 7.8634 6.39057C8.00651 6.46187 8.17863 6.43407 8.29179 6.32106L8.31523 6.29771C8.42023 6.19257 8.45627 6.03981 8.4093 5.89886L8.29868 5.56698C8.35849 5.58498 8.42421 5.5585 8.45308 5.50089C8.48519 5.43671 8.45918 5.35867 8.39501 5.32656L8.13518 5.19662C8.08816 5.17304 8.03177 5.18026 7.99198 5.21462C7.95227 5.24912 7.93727 5.30406 7.95387 5.35393L8.16288 5.98103C8.17854 6.028 8.16649 6.079 8.13152 6.11396L8.10818 6.13731C8.07429 6.1712 8.02273 6.1794 7.9796 6.15812C7.89541 6.11607 7.79955 6.10815 7.7096 6.13112C7.69132 5.71417 7.64646 5.29895 7.55074 5.01193C7.5281 4.94392 7.45465 4.90703 7.38635 4.92986C7.31829 4.95245 7.28149 5.026 7.30423 5.09415C7.39779 5.37484 7.43862 5.80267 7.4531 6.22806L7.29762 6.29026V5.5727C7.29762 5.39359 7.15193 5.2479 6.97282 5.2479C6.79376 5.2479 6.64802 5.39354 6.64802 5.5727V6.20157L6.51551 5.54696C6.5014 5.47656 6.43291 5.43062 6.36246 5.44534C6.2921 5.45968 6.24663 5.52821 6.26093 5.59843L6.39776 6.27465Z" fill="#F5F5F5"/>
<path d="M6.64776 5.18286C6.71948 5.18286 6.7777 5.12478 6.7777 5.05292V4.92303C6.7777 4.85122 6.71953 4.79309 6.64776 4.79309C6.57604 4.79309 6.51782 4.85117 6.51782 4.92303V5.05297C6.51792 5.12473 6.57604 5.18286 6.64776 5.18286Z" fill="#F5F5F5"/>
<path d="M7.94683 5.05297H8.07677C8.14849 5.05297 8.20671 4.99489 8.20671 4.92303C8.20671 4.85117 8.14853 4.79309 8.07677 4.79309H7.94683C7.87511 4.79309 7.81689 4.85117 7.81689 4.92303C7.81689 4.99489 7.87507 5.05297 7.94683 5.05297Z" fill="#F5F5F5"/>
<path d="M7.10057 6.76033L6.45103 7.15004C6.38948 7.18698 6.36956 7.26676 6.4065 7.32826C6.43087 7.36886 6.47385 7.39131 6.51801 7.39131C6.54079 7.39131 6.56381 7.38536 6.58471 7.37279L7.23426 6.98308C7.29581 6.94614 7.31573 6.86636 7.27879 6.80486C7.2419 6.74336 7.16217 6.72348 7.10057 6.76033Z" fill="#F5F5F5"/>
<path d="M8.85194 6.99015L8.85498 6.98808C8.86591 7.032 8.88461 7.07447 8.91494 7.11015C8.96772 7.1723 9.04689 7.20352 9.13633 7.19616C9.26322 7.18688 9.34947 7.12894 9.40652 7.05408C9.41519 7.06004 9.42438 7.06552 9.43394 7.0703C9.50416 7.10569 9.58534 7.10302 9.66264 7.06294C9.859 6.96183 9.90128 6.72788 9.89528 6.60558C9.89181 6.53429 9.83116 6.48394 9.76 6.48254C9.68861 6.48558 9.63311 6.5461 9.63564 6.6174C9.63569 6.61904 9.63864 6.77321 9.54433 6.83039C9.52895 6.80893 9.51072 6.76074 9.50388 6.7209C9.49291 6.654 9.4315 6.60746 9.36541 6.6128C9.29805 6.61814 9.24602 6.67472 9.24578 6.74232C9.24573 6.76121 9.24156 6.9279 9.11284 6.94186C9.09789 6.92143 9.09766 6.83541 9.11233 6.77185C9.12475 6.71972 9.10384 6.6653 9.05973 6.63483C9.01553 6.60427 8.95722 6.60427 8.91288 6.63432L8.84036 6.68368C8.80591 5.9303 8.72664 5.05243 8.72566 5.04118C8.71919 4.96988 8.65638 4.91672 8.58452 4.92357C8.51303 4.93004 8.46039 4.99322 8.46686 5.06475C8.46798 5.07675 8.55977 6.09244 8.58803 6.86818C8.58142 6.8745 8.57453 6.88139 8.56802 6.88749C8.51664 6.75797 8.41483 6.67641 8.28362 6.66394C8.09852 6.64758 7.89798 6.77354 7.82608 6.95344C7.76411 7.10822 7.80311 7.26033 7.92541 7.34091C8.01334 7.3989 8.146 7.41713 8.31288 7.35863C8.27219 7.50174 8.19798 7.64691 8.10156 7.75913C8.01522 7.85972 7.87103 7.97579 7.68653 7.97063C7.57914 7.96646 7.49659 7.9313 7.43425 7.86305C7.28383 7.69875 7.29677 7.40138 7.29691 7.39819C7.30061 7.32666 7.24586 7.26563 7.17438 7.26169C7.10238 7.2541 7.04144 7.3126 7.03745 7.38422C7.03656 7.40072 7.01777 7.79143 7.24145 8.03719C7.35156 8.15832 7.49791 8.22319 7.67636 8.23018C7.68503 8.23055 7.69375 8.23069 7.70247 8.23069C7.91983 8.23069 8.13063 8.12415 8.29858 7.92835C8.45659 7.74436 8.56389 7.49447 8.59605 7.26249C8.59563 7.70691 8.32788 8.20814 7.9727 8.42897C7.82191 8.52258 7.58683 8.6071 7.32203 8.47655C6.99559 8.31544 7.0345 7.94236 7.03619 7.92708C7.04514 7.85593 6.99461 7.79096 6.92341 7.7821C6.85253 7.77347 6.78723 7.82358 6.77842 7.89488C6.77552 7.91808 6.71308 8.46577 7.20709 8.70947C7.33398 8.77215 7.46664 8.80327 7.60042 8.80327C7.77222 8.80327 7.94556 8.75189 8.10991 8.64966C8.54223 8.38097 8.85602 7.79715 8.85602 7.2615C8.8562 7.17783 8.85461 7.08633 8.85194 6.99015ZM8.06861 7.12407C8.04541 7.10869 8.06355 7.05961 8.06748 7.04986C8.09486 6.98138 8.18041 6.92208 8.2488 6.92208C8.25227 6.92208 8.25583 6.92218 8.25925 6.9226C8.27584 6.9241 8.31995 6.92827 8.33889 7.02638C8.34091 7.03679 8.34259 7.04743 8.34395 7.05835C8.19916 7.14333 8.10213 7.14605 8.06861 7.12407Z" fill="#F5F5F5"/>
<path d="M6.71339 8.31888C6.65185 8.28274 6.57235 8.30341 6.53579 8.36491C6.52983 8.37495 6.52186 8.38587 6.51385 8.39576C6.51244 8.39243 6.51104 8.38891 6.50968 8.38512C6.45554 8.2406 6.49407 8.01799 6.51357 7.9444C6.53189 7.87512 6.49065 7.80406 6.42141 7.78554C6.35227 7.76782 6.28111 7.80813 6.26255 7.87741C6.25308 7.91252 6.17321 8.22795 6.26639 8.47634C6.32602 8.6352 6.41752 8.67527 6.48389 8.68071C6.4898 8.68123 6.49561 8.68151 6.50138 8.68151C6.64125 8.68151 6.7343 8.54056 6.76022 8.49593C6.79604 8.43401 6.77504 8.35521 6.71339 8.31888Z" fill="#F5F5F5"/>
<path d="M9.11075 5.96242C9.13883 5.96242 9.16714 5.95342 9.1909 5.93462L9.84584 5.42045C9.85489 5.41337 9.86065 5.40404 9.86726 5.39532C9.96157 5.33842 10.0254 5.23599 10.0254 5.11801C10.0254 4.9389 9.87973 4.79321 9.70062 4.79321C9.52156 4.79321 9.37583 4.93885 9.37583 5.11801C9.37583 5.21823 9.42237 5.30687 9.4939 5.36645L9.03036 5.73038C8.97397 5.77468 8.96417 5.85638 9.00842 5.91273C9.03411 5.94535 9.07222 5.96242 9.11075 5.96242ZM9.70067 5.05299C9.73653 5.05299 9.76564 5.08215 9.76564 5.11796C9.76564 5.15378 9.73653 5.18293 9.70067 5.18293C9.66481 5.18293 9.6357 5.15378 9.6357 5.11796C9.6357 5.08215 9.66481 5.05299 9.70067 5.05299Z" fill="#F5F5F5"/>
<path d="M9.54687 5.83916C9.47844 5.81633 9.40517 5.85322 9.38248 5.92124C9.36856 5.96281 9.30579 6.17713 9.43311 6.30434C9.48251 6.35384 9.54748 6.37855 9.62722 6.37841C9.68051 6.37841 9.74037 6.36749 9.80665 6.34531C9.87472 6.32272 9.91151 6.24917 9.88878 6.18102C9.86609 6.113 9.79264 6.07597 9.72439 6.09894C9.65183 6.12303 9.62108 6.11909 9.61836 6.12163C9.61072 6.10231 9.61578 6.04433 9.62905 6.00284C9.65155 5.93506 9.61475 5.86175 9.54687 5.83916Z" fill="#F5F5F5"/>
<path d="M11.0337 5.30214C11.0458 5.30571 11.0581 5.30735 11.0702 5.30735C11.1265 5.30735 11.1783 5.27055 11.1948 5.21383L11.2707 4.954C11.2908 4.8851 11.2512 4.81296 11.1823 4.79289C11.1132 4.77297 11.0413 4.8123 11.0212 4.88121L10.9454 5.14103C10.9253 5.20989 10.9649 5.28208 11.0337 5.30214Z" fill="#F5F5F5"/>
<path d="M10.2765 5.28693C10.2971 5.29897 10.3197 5.30464 10.342 5.30464C10.3866 5.30464 10.4301 5.28168 10.4543 5.24029C10.4905 5.17836 10.4697 5.09872 10.4078 5.06258C10.3816 5.04739 10.3852 5.00436 10.3861 4.99588C10.39 4.96175 10.4103 4.92018 10.4458 4.90907C10.5143 4.88774 10.5526 4.81494 10.5312 4.74646C10.5098 4.67783 10.4371 4.63991 10.3685 4.66096C10.239 4.70132 10.1446 4.82118 10.128 4.96635C10.1125 5.10144 10.1694 5.22425 10.2765 5.28693Z" fill="#F5F5F5"/>
<path d="M9.2459 7.39136C9.17419 7.39136 9.11597 7.44943 9.11597 7.52129C9.11597 7.58472 9.16139 7.6375 9.22153 7.64889C9.22837 7.65892 9.2459 7.69328 9.2459 7.78108C9.2459 7.85289 9.30408 7.91101 9.37584 7.91101C9.44761 7.91101 9.50578 7.85294 9.50578 7.78108C9.50573 7.39581 9.2565 7.39136 9.2459 7.39136Z" fill="#F5F5F5"/>
<path d="M11.4499 6.85346C11.4662 6.85613 11.4825 6.8574 11.4988 6.8574C11.6008 6.8574 11.7039 6.80588 11.8061 6.70379C11.8569 6.65307 11.8569 6.57085 11.8061 6.52008C11.7554 6.46937 11.6732 6.46937 11.6224 6.52008C11.5448 6.5979 11.5029 6.59949 11.4922 6.5971C11.4674 6.59354 11.4449 6.56119 11.4399 6.55229C11.4073 6.48915 11.33 6.46384 11.2664 6.49571C11.2022 6.52782 11.1762 6.60582 11.2083 6.67004C11.2164 6.68612 11.2914 6.82768 11.4499 6.85346Z" fill="#F5F5F5"/>
<path d="M13.6581 5.94052C13.6573 5.9385 13.6565 5.93658 13.6559 5.93485C13.6329 5.86735 13.5593 5.83069 13.492 5.85366C13.4239 5.87625 13.3871 5.9498 13.4098 6.01796C13.4199 6.04843 13.4778 6.20114 13.6212 6.22046C13.6307 6.22177 13.6402 6.22238 13.6497 6.22238C13.7397 6.22238 13.8241 6.16416 13.901 6.04894C13.9408 5.98932 13.9246 5.9086 13.865 5.8688C13.8052 5.8291 13.7245 5.84508 13.6848 5.90485C13.6745 5.92008 13.6656 5.93175 13.6581 5.94052Z" fill="#F5F5F5"/>
<path d="M13.4032 8.30071C13.4032 7.74669 13.3788 7.22699 13.3451 6.77165C13.5296 7.09157 13.6955 7.41482 13.8012 7.69682C13.8208 7.74894 13.8703 7.7811 13.9229 7.7811C13.938 7.7811 13.9534 7.77843 13.9685 7.7729C14.0357 7.74768 14.0697 7.67282 14.0445 7.60555C13.8801 7.16718 13.5845 6.64513 13.2932 6.18168C13.2222 5.48183 13.1427 5.03769 13.1412 5.02977C13.1284 4.95913 13.0609 4.91141 12.9902 4.92524C12.9196 4.93808 12.8728 5.00568 12.8856 5.07622C12.8867 5.08185 12.9276 5.31069 12.9765 5.69577C12.8767 5.54769 12.784 5.41405 12.7061 5.30408L12.7125 5.3061C12.781 5.32893 12.8541 5.29204 12.8769 5.22402C12.8996 5.15591 12.8628 5.08232 12.7948 5.05972L12.4051 4.92979C12.351 4.91151 12.2917 4.93082 12.2586 4.97694C12.2497 4.98927 12.2436 5.00277 12.2396 5.01679C12.1618 4.95927 12.0621 4.91258 11.9685 4.95172C11.9118 4.97521 11.8443 5.03432 11.8443 5.18286C11.8443 5.29691 11.8878 5.42024 11.934 5.55088C12.0105 5.76754 12.0584 5.92691 11.9774 6.0029C11.9326 6.0449 11.8879 6.06074 11.8443 6.04972C11.7641 6.02943 11.6848 5.92274 11.632 5.76426C11.6298 5.75736 11.625 5.7524 11.6217 5.74621C11.649 5.54493 11.6371 5.30254 11.5821 5.02747C11.5681 4.95707 11.4998 4.91127 11.4292 4.92557C11.3588 4.93963 11.3132 5.00802 11.3273 5.07847C11.4121 5.50269 11.3867 5.84882 11.2592 6.00421C11.2099 6.06435 11.1482 6.09224 11.0649 6.09224C11.0386 6.09224 11.0206 6.08385 11.0028 6.06332C10.9002 5.94519 10.9007 5.5641 10.9338 5.33108C10.939 5.29391 10.9278 5.25608 10.9032 5.22768C10.8785 5.19927 10.8427 5.18286 10.8051 5.18286C10.5816 5.18286 10.4968 5.43707 10.4221 5.66141C10.3893 5.75999 10.3281 5.94332 10.2855 5.96235C10.2069 5.96235 10.156 5.73144 10.1556 5.57249C10.1554 5.50082 10.0973 5.44283 10.0256 5.44283H10.0255C9.95378 5.44283 9.89575 5.50091 9.89575 5.57263C9.89575 5.87226 9.9978 6.22218 10.2855 6.22218C10.4996 6.22218 10.5865 5.98874 10.6591 5.7718C10.6717 5.94435 10.7106 6.12313 10.8064 6.23347C10.8738 6.3111 10.9631 6.35207 11.0649 6.35207C11.2253 6.35207 11.3619 6.28874 11.4601 6.16902C11.4779 6.14736 11.4932 6.12247 11.5083 6.09735C11.5838 6.20455 11.6763 6.27529 11.7805 6.30158C11.8111 6.30936 11.8419 6.31326 11.8724 6.31326C11.9727 6.31326 12.0707 6.27186 12.1553 6.19236C12.1729 6.17582 12.1853 6.15777 12.1987 6.13996C12.2305 6.14905 12.2627 6.15444 12.2947 6.15444C12.4 6.15444 12.5012 6.11207 12.5641 6.07176C12.6242 6.03318 12.6416 5.95354 12.6034 5.89316C12.5651 5.83288 12.4851 5.81488 12.4245 5.85271C12.4234 5.85322 12.3366 5.9031 12.2775 5.89138C12.2776 5.74897 12.2261 5.59771 12.179 5.46444C12.1522 5.38855 12.1248 5.31083 12.1119 5.24727C12.1225 5.25627 12.133 5.26569 12.1424 5.27479C12.193 5.32551 12.2753 5.32551 12.326 5.27479C12.3344 5.2664 12.3392 5.25622 12.3449 5.24638C12.4795 5.43191 12.7565 5.82172 13.0414 6.27107C13.0958 6.8234 13.1435 7.52802 13.1435 8.30076C13.1435 8.37257 13.2017 8.43069 13.2735 8.43069C13.345 8.4306 13.4032 8.37252 13.4032 8.30071Z" fill="#F5F5F5"/>
<path d="M13.533 5.44266C13.533 5.51447 13.5912 5.57259 13.6629 5.57259C13.7346 5.57259 13.7929 5.51451 13.7929 5.44266C13.7929 5.28975 13.6732 5.04276 13.6492 4.99481C13.6171 4.93073 13.5392 4.90486 13.4749 4.93673C13.4107 4.96884 13.3847 5.04684 13.4168 5.11106C13.4637 5.20476 13.533 5.37492 13.533 5.44266Z" fill="#F5F5F5"/>
<path d="M12.9419 8.31498C12.8782 8.28249 12.7999 8.30827 12.7675 8.37217C12.7535 8.39945 12.7319 8.42977 12.7136 8.44927C12.7078 8.39767 12.7216 8.29449 12.7478 8.20899C12.7652 8.1519 12.7416 8.09021 12.6904 8.05956C12.6395 8.02871 12.5738 8.03673 12.5318 8.07896L12.2719 8.33879C12.2212 8.38951 12.2212 8.47173 12.2719 8.52249C12.3226 8.57331 12.4049 8.57321 12.4556 8.52249L12.4622 8.51588C12.4734 8.56801 12.495 8.61559 12.5318 8.65238C12.5805 8.70109 12.6393 8.72687 12.7006 8.72687C12.7124 8.72687 12.7244 8.72584 12.7362 8.72396C12.8834 8.7001 12.975 8.53787 12.9996 8.48879C13.0316 8.42471 13.0058 8.34718 12.9419 8.31498Z" fill="#F5F5F5"/>
<path d="M12.8917 7.26962H11.9762C11.9843 7.23728 11.9927 7.20648 12.0012 7.17713C12.3663 7.10124 12.5833 6.98345 12.6471 6.82609C12.6692 6.77153 12.6922 6.66128 12.5983 6.53457C12.5136 6.42043 12.394 6.36915 12.2698 6.39451C12.0853 6.43196 11.9208 6.63085 11.8027 6.94932C11.436 7.01213 11.2012 7.14376 11.0526 7.2737C11 6.74134 10.7932 6.42512 10.7833 6.41007C10.7434 6.35035 10.6627 6.33418 10.6031 6.37403C10.5434 6.41387 10.5273 6.49445 10.5671 6.55417C10.5694 6.55773 10.805 6.91815 10.805 7.52138C10.805 8.11435 10.3322 8.5607 10.0256 8.5607C9.87969 8.5607 9.81589 8.38731 9.78777 8.24073C10.088 8.03031 10.3529 7.78684 10.4114 7.55289C10.4906 7.23634 10.3909 7.00304 10.325 6.84868C10.3219 6.8416 10.3186 6.83396 10.3154 6.82609C10.3182 6.82862 10.3208 6.83129 10.3235 6.83387C10.3741 6.88459 10.4564 6.88459 10.5071 6.83387C10.5578 6.78315 10.5578 6.70093 10.5071 6.65017C10.4312 6.57418 10.2837 6.45479 10.1496 6.51085C10.093 6.53434 10.0255 6.59345 10.0255 6.74199C10.0255 6.80912 10.0535 6.8747 10.086 6.95082C10.1445 7.08774 10.2172 7.25813 10.1593 7.48998C10.1249 7.62718 9.95638 7.79368 9.73405 7.95896C9.71019 7.93046 9.67574 7.91129 9.63575 7.91129H9.63556C9.56389 7.91138 9.50586 7.96937 9.50586 8.04109C9.50586 8.06448 9.50689 8.08946 9.50839 8.1151C9.23038 8.29515 8.9158 8.46179 8.67256 8.57246C8.60727 8.60213 8.57844 8.67915 8.60811 8.74449C8.62991 8.79235 8.67706 8.82062 8.72642 8.82062C8.74442 8.82062 8.7627 8.81696 8.78009 8.80895C8.85313 8.77576 9.19981 8.61423 9.55602 8.39349C9.62159 8.6162 9.76058 8.82062 10.0255 8.82062C10.3371 8.82062 10.6907 8.56576 10.8947 8.18528C10.9193 8.22878 10.9477 8.2704 10.9814 8.30931C11.3084 8.68637 11.9471 8.69068 11.9741 8.69068C12.0441 8.69068 12.1014 8.63537 12.104 8.56548C12.1064 8.49559 12.0531 8.4362 11.9834 8.43128C11.9824 8.43118 11.8789 8.41974 11.8213 8.35248C11.7865 8.31188 11.7726 8.25606 11.7788 8.18185C11.7921 8.02178 12.3085 7.90215 12.7637 7.89498C12.818 7.89409 12.866 7.85968 12.8841 7.80859L13.0141 7.4432C13.0282 7.40349 13.0221 7.3592 12.9978 7.32484C12.9736 7.29015 12.9339 7.26962 12.8917 7.26962ZM12.3215 6.64923C12.3239 6.64871 12.3273 6.64792 12.3313 6.64792C12.3438 6.64792 12.3634 6.65401 12.3895 6.68931C12.3945 6.69592 12.4103 6.71846 12.4063 6.72835C12.3914 6.76515 12.3017 6.8259 12.1148 6.88098C12.197 6.72067 12.2774 6.65814 12.3215 6.64923ZM11.537 8.35698C11.405 8.31409 11.2705 8.24607 11.1774 8.1384C11.075 8.02004 11.0373 7.87032 11.062 7.6809C11.0657 7.67096 11.0742 7.65132 11.0891 7.62582C11.2721 7.60904 11.7607 7.68118 11.7946 7.82115C11.6439 7.89812 11.5328 8.00626 11.52 8.1601C11.5136 8.23721 11.5214 8.30256 11.537 8.35698Z" fill="#F5F5F5"/>
<path d="M14.3059 5.4016L14.1759 5.01188C14.155 4.94921 14.09 4.9118 14.0255 4.92596C13.9607 4.93979 13.9168 5.00002 13.9234 5.06588C14.013 5.96232 14.1826 7.71052 14.1826 7.91096C14.1826 8.09096 13.8624 8.44543 13.345 8.70413C13.2809 8.73624 13.2548 8.81424 13.287 8.87846C13.3097 8.92402 13.3556 8.95027 13.4033 8.95027C13.4227 8.95027 13.4426 8.94582 13.4613 8.93659C13.9338 8.70024 14.4424 8.27855 14.4424 7.91101C14.4424 7.71905 14.3096 6.33798 14.2336 5.56224C14.2953 5.53595 14.3274 5.46624 14.3059 5.4016Z" fill="#F5F5F5"/>
<path d="M15.39 6.57378C15.4149 6.59876 15.4482 6.61184 15.4819 6.61184C15.5038 6.61184 15.5259 6.60626 15.5461 6.59483C15.5969 6.5659 15.6221 6.50651 15.6077 6.44984C15.5844 6.35848 15.5767 6.24434 15.589 6.19765C15.6541 6.19967 15.7145 6.15336 15.724 6.08623C15.7342 6.01517 15.6849 5.94931 15.6139 5.93918C15.528 5.92751 15.4525 5.95273 15.3999 6.01137C15.3657 6.04943 15.3454 6.09828 15.3344 6.15083L15.1839 6.00036C15.1332 5.94964 15.051 5.94964 15.0002 6.00036C14.9495 6.05108 14.9495 6.13329 15.0002 6.18406L15.39 6.57378Z" fill="#F5F5F5"/>
<path d="M15.6821 6.70931L15.1949 7.05843C15.1366 7.10015 15.1232 7.18139 15.1649 7.23975C15.1903 7.27514 15.2302 7.29389 15.2706 7.29389C15.2968 7.29389 15.3233 7.28601 15.3462 7.26951L15.8334 6.92039C15.8917 6.87867 15.9051 6.79743 15.8633 6.73907C15.8215 6.68081 15.7401 6.66722 15.6821 6.70931Z" fill="#F5F5F5"/>
<path d="M15.6389 7.19791C15.5981 7.25055 15.6039 7.32462 15.6503 7.37023C15.6559 7.37965 15.6812 7.42934 15.6767 7.55721C15.6741 7.62902 15.7302 7.68916 15.8019 7.69169C15.8035 7.69179 15.805 7.69179 15.8066 7.69179C15.8762 7.69179 15.9338 7.63662 15.9363 7.56659C15.9458 7.30146 15.859 7.20452 15.8213 7.17518C15.7647 7.13093 15.683 7.14129 15.6389 7.19791Z" fill="#F5F5F5"/>
<path d="M16.7726 8.15462C16.8443 8.15462 16.9025 8.09654 16.9025 8.02468C16.9025 7.83301 16.8927 7.61902 16.8766 7.39637C17.0054 7.60745 17.1124 7.80202 17.181 7.96215C17.2021 8.01151 17.25 8.04095 17.3005 8.04095C17.3175 8.04095 17.3349 8.03762 17.3516 8.0304C17.4175 8.00209 17.448 7.92573 17.4197 7.85991C17.3008 7.58237 17.0785 7.21473 16.8253 6.83509C16.7744 6.35823 16.7078 5.89107 16.6561 5.55591C16.6836 5.55873 16.7122 5.55198 16.7373 5.53576C16.7783 5.50946 16.7975 5.4638 16.7948 5.41838C16.7981 5.43118 16.8017 5.44398 16.8092 5.45574C16.8101 5.45705 16.8935 5.59491 16.8565 5.77379C16.842 5.84391 16.8871 5.91273 16.9574 5.9273C16.9663 5.92909 16.9752 5.92998 16.9839 5.92998C17.0442 5.92998 17.0983 5.8877 17.111 5.82634C17.1696 5.54251 17.0342 5.32534 17.0284 5.31624C16.9898 5.25582 16.9095 5.2381 16.849 5.2764C16.8078 5.3027 16.7884 5.34835 16.791 5.39387C16.7877 5.38102 16.784 5.36809 16.7764 5.35632L16.5572 5.0153C16.5237 4.96327 16.4582 4.94223 16.4007 4.96459C16.343 4.98718 16.3093 5.04718 16.32 5.10807C16.3218 5.11824 16.421 5.68838 16.5091 6.37548C16.4095 6.23485 16.3099 6.09732 16.2133 5.96607C16.1976 5.76952 16.1818 5.58779 16.1683 5.43755C16.1754 5.4354 16.1825 5.43259 16.1893 5.42916C16.2535 5.39705 16.2795 5.31905 16.2474 5.25484L16.1175 4.99501C16.0895 4.93895 16.0255 4.91101 15.9652 4.9283C15.905 4.94579 15.8658 5.00368 15.872 5.06612C15.8875 5.22113 15.9036 5.39279 15.9195 5.57307C15.8373 5.46474 15.7613 5.3656 15.6963 5.28165C15.7089 5.27073 15.7198 5.25718 15.7278 5.2412C15.7599 5.17702 15.7339 5.09898 15.6697 5.06687L15.4099 4.93693C15.3554 4.90979 15.2892 4.92399 15.2507 4.97143C15.2124 5.01887 15.2122 5.0866 15.2503 5.13432C15.2574 5.14304 15.5772 5.54401 15.9598 6.06155C16.0262 6.91993 16.0704 7.81276 16.008 7.99998C15.9965 8.0342 15.9766 8.07456 15.9579 8.07596C15.8794 8.08688 15.692 7.91129 15.5979 7.72313C15.5436 7.61476 15.4656 7.60351 15.4239 7.60543C15.2843 7.61405 15.2298 7.76771 15.1308 8.04652C15.0598 8.24635 14.9716 8.49474 14.8726 8.59637C14.819 8.53084 14.7496 8.3109 14.7111 8.08487C14.7292 8.13484 14.776 8.17098 14.8322 8.17098C14.9039 8.17098 14.9621 8.1129 14.9621 8.04104C14.9621 7.84735 14.8266 6.37187 14.7509 5.56327C14.8141 5.53787 14.8474 5.46723 14.8255 5.40179L14.6956 5.01207C14.6747 4.9494 14.6106 4.91251 14.5454 4.92605C14.4808 4.93974 14.4367 4.99974 14.443 5.06551C14.5313 5.99223 14.6968 7.78234 14.702 8.02941C14.7016 8.02721 14.7012 8.02496 14.7009 8.0228C14.6908 7.95174 14.6245 7.90309 14.5539 7.9126C14.4829 7.92291 14.4336 7.98859 14.4438 8.05965C14.4817 8.3252 14.5786 8.78176 14.8019 8.8561C14.8195 8.86205 14.8433 8.8674 14.8711 8.8674C14.9223 8.8674 14.9874 8.84926 15.0539 8.7827C15.1954 8.64123 15.2911 8.37156 15.3756 8.13366C15.3947 8.07985 15.4173 8.0162 15.4386 7.96163C15.5578 8.13568 15.7657 8.35234 15.9764 8.33537C16.0505 8.33002 16.1852 8.29023 16.2545 8.08238C16.3235 7.8751 16.2963 7.15238 16.2497 6.46046C16.3591 6.61388 16.4687 6.77091 16.5732 6.92607C16.6137 7.31509 16.6427 7.7049 16.6427 8.02501C16.6427 8.09654 16.7008 8.15462 16.7726 8.15462Z" fill="#F5F5F5"/>
<path d="M17.7587 7.47133C17.6667 6.78574 17.5385 5.99158 17.4572 5.50417C17.4939 5.51317 17.5338 5.50581 17.5661 5.48111C17.6232 5.43761 17.6341 5.35605 17.5905 5.29905L17.3551 4.99052C17.3187 4.94308 17.2547 4.92635 17.1998 4.9503C17.1449 4.9743 17.1136 5.03266 17.1238 5.09163C17.1262 5.10499 17.3578 6.43858 17.5011 7.50588C17.5558 7.91378 17.4759 8.27824 17.2872 8.48074C17.1659 8.61077 17.0052 8.66964 16.8107 8.65835C16.7393 8.6545 16.6774 8.70831 16.6729 8.77989C16.6684 8.85147 16.7227 8.91306 16.7944 8.91771C16.8163 8.91911 16.8379 8.91972 16.8594 8.91972C17.1044 8.91972 17.317 8.82986 17.4773 8.65788C17.722 8.39514 17.8246 7.96267 17.7587 7.47133Z" fill="#F5F5F5"/>
<path d="M16.3294 8.32765C16.2817 8.37954 16.2854 8.46124 16.3359 8.51018C16.3429 8.51702 16.3513 8.53048 16.3514 8.53709C16.3514 8.54074 16.3462 8.55166 16.3317 8.56615C16.281 8.61687 16.281 8.69909 16.3317 8.74985C16.3571 8.77526 16.3903 8.78792 16.4236 8.78792C16.4569 8.78792 16.4901 8.77526 16.5155 8.74985C16.5979 8.66749 16.613 8.58392 16.6111 8.52823C16.6071 8.40832 16.5255 8.33093 16.5092 8.31663C16.4561 8.27037 16.3772 8.27599 16.3294 8.32765Z" fill="#F5F5F5"/>
</svg>
