<svg width="24" height="24" viewBox="0 0 24 24" fill="none" xmlns="http://www.w3.org/2000/svg">
<path d="M22.2024 4.13705H1.79494C0.834703 4.13705 0.0504844 4.88987 0 5.83754V8.06855H24V5.93471C24 4.9419 23.1952 4.13705 22.2024 4.13705Z" fill="#FFE15A"/>
<path d="M24 8.06808H0V11.9995H24V8.06808Z" fill="#F5F5F5"/>
<path d="M24 11.9999H0V15.9313H24V11.9999Z" fill="#FF4B55"/>
<path d="M0 18.1625C0.0504844 19.11 0.834703 19.8629 1.79494 19.8629H22.2024C23.1952 19.8629 24 19.0581 24 18.0653V15.9315H0V18.1625Z" fill="#4173CD"/>
<path d="M11.7501 11.8353L0.640734 4.55685C0.270703 4.86717 0.027375 5.32359 0 5.83753V18.1625C0.027375 18.6764 0.270703 19.1329 0.640734 19.4432L11.7501 12.1647C11.8687 12.0869 11.8687 11.913 11.7501 11.8353Z" fill="#73AF00"/>
<path d="M2.28943 12C2.28943 10.5036 3.26757 9.23748 4.61888 8.8014C4.6899 8.77848 4.68001 8.67474 4.60599 8.66509C4.46687 8.6469 4.32521 8.63705 4.18107 8.63705C2.32374 8.63705 0.818115 10.1427 0.818115 12C0.818115 13.8573 2.32379 15.363 4.18107 15.363C4.32521 15.363 4.46687 15.3531 4.60599 15.3349C4.68001 15.3252 4.6899 15.2215 4.61888 15.1986C3.26757 14.7625 2.28943 13.4964 2.28943 12Z" fill="#F5F5F5"/>
<path d="M4.63613 9.43135L4.72871 9.70895L5.0213 9.71124C5.05918 9.71157 5.07488 9.75985 5.04441 9.78235L4.80905 9.95617L4.89732 10.2352C4.90876 10.2713 4.86765 10.3012 4.83681 10.2791L4.59873 10.109L4.36065 10.2791C4.32981 10.3012 4.2887 10.2713 4.30013 10.2352L4.3884 9.95617L4.15304 9.78235C4.12257 9.75985 4.13827 9.71148 4.17615 9.71124L4.46874 9.70895L4.56132 9.43135C4.57327 9.3954 4.62413 9.3954 4.63613 9.43135Z" fill="#F5F5F5"/>
<path d="M4.63613 10.8381L4.72871 11.1157L5.0213 11.118C5.05918 11.1183 5.07488 11.1666 5.04441 11.1891L4.80905 11.3629L4.89732 11.6419C4.90876 11.678 4.86765 11.7079 4.83681 11.6858L4.59873 11.5157L4.36065 11.6858C4.32981 11.7079 4.2887 11.678 4.30013 11.6419L4.3884 11.3629L4.15304 11.1891C4.12257 11.1666 4.13827 11.1182 4.17615 11.118L4.46874 11.1157L4.56132 10.8381C4.57327 10.8021 4.62413 10.8021 4.63613 10.8381Z" fill="#F5F5F5"/>
<path d="M4.63613 12.2447L4.72871 12.5223L5.0213 12.5246C5.05918 12.525 5.07488 12.5732 5.04441 12.5957L4.80905 12.7696L4.89732 13.0485C4.90876 13.0846 4.86765 13.1146 4.83681 13.0925L4.59873 12.9224L4.36065 13.0925C4.32981 13.1146 4.2887 13.0846 4.30013 13.0485L4.3884 12.7696L4.15304 12.5957C4.12257 12.5732 4.13827 12.5249 4.17615 12.5246L4.46874 12.5223L4.56132 12.2447C4.57327 12.2088 4.62413 12.2088 4.63613 12.2447Z" fill="#F5F5F5"/>
<path d="M4.63613 13.6514L4.72871 13.929L5.0213 13.9313C5.05918 13.9316 5.07488 13.9799 5.04441 14.0024L4.80905 14.1762L4.89732 14.4552C4.90876 14.4913 4.86765 14.5212 4.83681 14.4992L4.59873 14.329L4.36065 14.4992C4.32981 14.5212 4.2887 14.4913 4.30013 14.4552L4.3884 14.1762L4.15304 14.0024C4.12257 13.9799 4.13827 13.9315 4.17615 13.9313L4.46874 13.929L4.56132 13.6514C4.57327 13.6155 4.62413 13.6155 4.63613 13.6514Z" fill="#F5F5F5"/>
</svg>
