<svg width="24" height="24" viewBox="0 0 24 24" fill="none" xmlns="http://www.w3.org/2000/svg">
<path d="M22.2026 4.13788H1.79742C0.804703 4.13788 0 4.94258 0 5.9353V9.37925H24V5.9353C24 4.94258 23.1953 4.13788 22.2026 4.13788Z" fill="#F5F5F5"/>
<path d="M0 18.0646C0 19.0573 0.804703 19.862 1.79742 19.862H22.2026C23.1952 19.862 24 19.0573 24 18.0646V14.6206H0V18.0646Z" fill="#73AF00"/>
<path d="M24 9.37915H0V14.6202H24V9.37915Z" fill="#FF4B55"/>
<path d="M1.79742 4.13788C0.804703 4.13788 0 4.94258 0 5.9353V18.0647C0 19.0573 0.804703 19.8621 1.79742 19.8621H6.20691V4.13788H1.79742Z" fill="#FF4B55"/>
<path d="M1.69012 7.5676C1.66696 7.57022 1.6446 7.57303 1.6228 7.57594V7.87064C1.64474 7.87622 1.6671 7.88175 1.69012 7.88719V7.5676Z" fill="#F5F5F5"/>
<path d="M2.70951 8.12929C2.64805 8.12437 2.55365 8.1149 2.44096 8.10117L1.73413 8.72981C1.82568 8.74377 1.93541 8.76234 1.98121 8.77692C2.16285 8.61806 2.40632 8.40149 2.70951 8.12929Z" fill="#F5F5F5"/>
<path d="M3.77304 7.12945V7.09856V7.06894H2.51904V7.09856V7.12945V7.15908H3.77304V7.12945Z" fill="#F5F5F5"/>
<path d="M2.84473 5.33602C2.84473 5.42433 2.9778 5.49891 3.13535 5.49891C3.2929 5.49891 3.42598 5.42433 3.42598 5.33602C3.42598 5.2477 3.2929 5.17313 3.13535 5.17313C2.9778 5.17313 2.84473 5.24775 2.84473 5.33602Z" fill="#F5F5F5"/>
<path d="M2.57291 7.52774C2.28984 7.52634 2.00732 7.53674 1.77637 7.55859V7.90649C2.04773 7.96471 2.36385 8.00934 2.57291 8.03156C2.57291 8.03151 2.57291 7.52774 2.57291 7.52774Z" fill="#F5F5F5"/>
<path d="M1.1145 9.24464C1.22639 9.24225 1.47216 9.19804 1.63856 9.06806C1.69017 9.02775 1.77821 8.95359 1.902 8.84606C1.81805 8.82886 1.67719 8.808 1.6021 8.79764L1.1145 9.24464Z" fill="#F5F5F5"/>
<path d="M2.73422 6.98282V6.82467C2.71304 6.79307 2.69115 6.7605 2.66883 6.72736L2.47632 6.86737C2.51466 6.93323 2.53922 6.97509 2.54377 6.98282H2.73422Z" fill="#F5F5F5"/>
<path d="M1.25291 7.69693C1.2523 7.69951 1.2508 7.70551 1.26045 7.71798C1.29617 7.76378 1.39958 7.80751 1.53678 7.84731V7.58875C1.37202 7.61603 1.26411 7.65217 1.25291 7.69693Z" fill="#F5F5F5"/>
<path d="M3.45538 7.57349V7.24518H2.82031V8.04712H2.9818C3.24289 8.04716 3.45538 7.83463 3.45538 7.57349Z" fill="#F5F5F5"/>
<path d="M2.43488 6.38089C2.09485 5.87971 1.73171 5.35293 1.64307 5.24854C1.65572 5.29518 1.68643 5.38288 1.758 5.54694C1.85039 5.75872 2.07464 6.16461 2.26032 6.49143L2.43488 6.38089Z" fill="#F5F5F5"/>
<path d="M2.30298 6.56639C2.35135 6.65105 2.39565 6.72802 2.43301 6.79252L2.62084 6.65593C2.57617 6.5896 2.53018 6.52158 2.48326 6.4523L2.30298 6.56639Z" fill="#F5F5F5"/>
<path d="M2.73431 8.04557V7.52971C2.70923 7.52919 2.68415 7.52868 2.65894 7.52835V8.0399C2.68795 8.04252 2.71322 8.04445 2.73431 8.04557Z" fill="#F5F5F5"/>
<path d="M3.45562 6.54001H2.82056V6.63015H3.45562V6.54001Z" fill="#F5F5F5"/>
<path d="M4.33813 6.97745V6.98284H4.37043C4.39424 6.98284 4.41351 7.00206 4.41351 7.02592V7.20221C4.41351 7.22603 4.39429 7.24525 4.37043 7.24525H4.33813V7.25064C4.33813 7.27431 4.35745 7.29367 4.38117 7.29367H5.10778C5.13149 7.29367 5.15081 7.27431 5.15081 7.25064V6.9775C5.15081 6.95382 5.13149 6.93442 5.10778 6.93442H4.38121C4.35745 6.93442 4.33813 6.95368 4.33813 6.97745Z" fill="#F5F5F5"/>
<path d="M5.15104 9.24231L4.66612 8.7977C4.59102 8.80806 4.45021 8.82887 4.36621 8.84612C4.49226 8.95548 4.58029 9.02964 4.62965 9.06821C4.79348 9.19604 5.03423 9.2409 5.15104 9.24231Z" fill="#F5F5F5"/>
<path d="M4.15503 7.09856V7.12945V7.15908H4.3273V7.06894H4.15503V7.09856Z" fill="#F5F5F5"/>
<path d="M4.28689 8.77697C4.33269 8.7623 4.44256 8.74369 4.5343 8.72977L3.49302 7.80057C3.4648 7.86394 3.42542 7.92127 3.37695 7.9696L3.40437 7.99407C3.78158 8.3318 4.07647 8.59332 4.28689 8.77697Z" fill="#F5F5F5"/>
<path d="M1.95379 7.25053V7.24514H1.92149C1.89768 7.24514 1.87841 7.22592 1.87841 7.20211V7.02581C1.87841 7.002 1.89763 6.98273 1.92149 6.98273H1.95379V6.97734C1.95379 6.95367 1.93447 6.93427 1.91071 6.93427H1.18414C1.16043 6.93427 1.14111 6.95362 1.14111 6.97734V7.25048C1.14111 7.27416 1.16043 7.29352 1.18414 7.29352H1.91071C1.93447 7.29366 1.95379 7.27434 1.95379 7.25053Z" fill="#F5F5F5"/>
<path d="M2.13687 7.12945V7.09856V7.06894H1.9646V7.15908H2.13687V7.12945Z" fill="#F5F5F5"/>
<path d="M3.79186 6.86743L3.59935 6.72742C3.57966 6.75671 3.56039 6.78535 3.5415 6.81343V6.98284H3.72441C3.72896 6.9751 3.75352 6.93329 3.79186 6.86743Z" fill="#F5F5F5"/>
<path d="M2.87793 6.27638H3.39801L3.28354 6.14944H2.9924L2.87793 6.27638Z" fill="#F5F5F5"/>
<path d="M3.45562 6.36658H2.82056V6.45405H3.45562V6.36658Z" fill="#F5F5F5"/>
<path d="M3.13525 5.58501C3.09339 5.58501 3.05416 5.57962 3.01685 5.57165V6.05836H3.25633V5.57114C3.21827 5.57948 3.17805 5.58501 3.13525 5.58501Z" fill="#F5F5F5"/>
<path d="M2.82031 6.80654H3.45266C3.45256 6.80115 3.4535 6.7959 3.45547 6.7907V6.7164H2.82031V6.80654Z" fill="#F5F5F5"/>
<path d="M3.64746 6.65593L3.83529 6.79252C3.87265 6.72807 3.91695 6.65105 3.96532 6.56639L3.78504 6.4523C3.73807 6.52163 3.69218 6.5896 3.64746 6.65593Z" fill="#F5F5F5"/>
<path d="M3.45562 6.89291H2.82056V6.98305H3.45562V6.89291Z" fill="#F5F5F5"/>
<path d="M4.00806 6.49143C4.19368 6.16462 4.41793 5.75873 4.51037 5.54695C4.58218 5.38246 4.61279 5.29476 4.62545 5.24826C4.5384 5.3504 4.17437 5.8784 3.8335 6.3809L4.00806 6.49143Z" fill="#F5F5F5"/>
<path d="M5.27109 9.2354L4.70957 8.72047C4.70015 8.71185 4.68745 8.70758 4.6747 8.70955C4.66991 8.71016 4.65909 8.71166 4.6447 8.71363C4.6439 8.71283 4.64362 8.71176 4.64273 8.71105L3.52349 7.71229C3.53493 7.6678 3.54159 7.62144 3.54159 7.57349V7.24518H3.81309C3.84806 7.29069 3.90243 7.32055 3.96407 7.32055C4.02576 7.32055 4.08013 7.29069 4.11506 7.24518H4.25198V7.25057C4.25198 7.32177 4.30991 7.37971 4.38112 7.37971H5.10773C5.17893 7.37971 5.23687 7.32177 5.23687 7.25057V6.97743C5.23687 6.90622 5.17893 6.84829 5.10773 6.84829H4.38126C4.31006 6.84829 4.25212 6.90622 4.25212 6.97743V6.98282H4.1152C4.08023 6.9373 4.02585 6.90744 3.96421 6.90744C3.91743 6.90744 3.87515 6.92497 3.84192 6.95291C3.98704 6.70447 4.44299 5.91697 4.58943 5.5814C4.74651 5.2213 4.73385 5.1748 4.69673 5.14494C4.65754 5.11358 4.60795 5.14963 4.58924 5.16336C4.5172 5.21572 3.81862 6.24777 3.54168 6.65915V6.31949C3.54168 6.31851 3.54121 6.31771 3.54117 6.31682L3.54112 6.31672C3.54013 6.30215 3.53198 6.29001 3.52007 6.28302L3.34256 6.08615V5.54479C3.44521 5.50072 3.5121 5.4246 3.5121 5.33601C3.5121 5.19641 3.34659 5.08701 3.13532 5.08701C2.92406 5.08701 2.75854 5.19641 2.75854 5.33601C2.75854 5.42535 2.82665 5.50185 2.93076 5.54568V6.08924L2.75662 6.28241C2.74354 6.28982 2.73431 6.30332 2.73431 6.3194V6.6703C2.46276 6.26685 1.75185 5.21615 1.67924 5.16332C1.66045 5.14972 1.61081 5.11363 1.57171 5.1449C1.53454 5.17476 1.52188 5.22126 1.67901 5.58135C1.82081 5.90629 2.25267 6.65474 2.41171 6.92755C2.38631 6.91504 2.35813 6.9074 2.32799 6.9074C2.26631 6.9074 2.21193 6.93726 2.17701 6.98277H2.04004V6.97738C2.04004 6.90618 1.9821 6.84824 1.9109 6.84824H1.18424C1.11304 6.84824 1.0551 6.90618 1.0551 6.97738V7.25052C1.0551 7.32172 1.11304 7.37966 1.18424 7.37966H1.91081C1.98201 7.37966 2.03995 7.32172 2.03995 7.25052V7.24513H2.17687C2.21184 7.29065 2.26621 7.32051 2.32785 7.32051C2.38949 7.32051 2.44392 7.29065 2.47888 7.24513H2.73426V7.44341C2.33507 7.43488 1.2299 7.43357 1.16934 7.67605C1.16371 7.69851 1.16315 7.73333 1.19254 7.77093C1.30902 7.92013 1.89937 8.02902 2.32757 8.08658L1.62557 8.71096C1.62468 8.71176 1.62435 8.71283 1.62356 8.71363C1.60917 8.71162 1.59834 8.71016 1.59356 8.70955C1.58062 8.70768 1.56806 8.71185 1.55868 8.72047L0.997118 9.2354C0.98015 9.25086 0.978415 9.27702 0.993181 9.29469C1.01179 9.3171 1.05909 9.32802 1.12232 9.32802C1.27799 9.32802 1.53046 9.26165 1.69143 9.13597C1.82409 9.03238 2.19159 8.71016 2.78381 8.17832C2.80945 8.1553 2.82642 8.14002 2.83396 8.13332H2.98181C3.10467 8.13332 3.21796 8.0931 3.3104 8.02574L3.34687 8.05832C4.02871 8.66863 4.44243 9.03116 4.57673 9.13597C4.7377 9.26179 4.99012 9.32802 5.14574 9.32802C5.20902 9.32802 5.25627 9.3171 5.27493 9.29469C5.28984 9.27702 5.28801 9.25086 5.27109 9.2354ZM2.82046 8.04716V7.24522H3.45552V7.57354C3.45552 7.83463 3.24304 8.04716 2.9819 8.04716H2.82046ZM1.53684 7.84733C1.39968 7.80749 1.29627 7.7638 1.26051 7.71801C1.25081 7.70554 1.25231 7.69958 1.25296 7.69696C1.26417 7.65215 1.37207 7.61605 1.53684 7.58877V7.84733ZM1.64301 5.24854C1.7316 5.35293 2.09479 5.87962 2.43482 6.3809L2.26026 6.49143C2.07463 6.16461 1.85038 5.75872 1.75795 5.54694C1.68637 5.38288 1.65567 5.29527 1.64301 5.24854ZM2.66892 6.7274C2.69123 6.76049 2.71307 6.79302 2.73431 6.82471V6.98286H2.54381C2.53926 6.97518 2.5147 6.93332 2.47635 6.86741L2.66892 6.7274ZM2.43295 6.79255C2.39559 6.7281 2.35129 6.65108 2.30291 6.56643L2.4832 6.45233C2.53017 6.52166 2.5761 6.58968 2.62077 6.65596L2.43295 6.79255ZM2.73435 7.52976V8.04561C2.71331 8.04444 2.68799 8.04252 2.65898 8.03999V7.52844C2.68415 7.52882 2.70923 7.52924 2.73435 7.52976ZM1.77632 7.55854C2.00732 7.53669 2.28979 7.52633 2.57287 7.52769V8.03151C2.36381 8.00933 2.04768 7.96466 1.77632 7.90644V7.55854ZM1.6229 7.57593C1.6447 7.57302 1.66701 7.57026 1.69021 7.56758V7.88713C1.6672 7.88169 1.64484 7.87621 1.6229 7.87058V7.57593ZM2.44101 8.10112C2.5537 8.1149 2.6481 8.12432 2.70956 8.12924C2.40637 8.40144 2.1629 8.61796 1.98135 8.77687C1.93551 8.76224 1.82582 8.74372 1.73427 8.72976L2.44101 8.10112ZM1.90204 8.84601C1.77824 8.95354 1.69021 9.02779 1.6386 9.06801C1.4722 9.19804 1.22648 9.24229 1.11454 9.24458L1.60213 8.79754C1.67723 8.80799 1.81804 8.8288 1.90204 8.84601ZM2.51906 7.15907V7.12949V7.09855V7.06897H3.7731V7.09855V7.12949V7.15907H2.51906ZM3.42595 5.33601C3.42595 5.42432 3.29287 5.4989 3.13532 5.4989C2.97777 5.4989 2.8447 5.42432 2.8447 5.33601C2.8447 5.24769 2.97777 5.17311 3.13532 5.17311C3.29287 5.17311 3.42595 5.24774 3.42595 5.33601ZM2.82046 6.63032V6.54018H3.45552V6.63032H2.82046ZM3.45552 6.71638V6.79068C3.45356 6.79588 3.45262 6.80113 3.45271 6.80652H2.82046V6.71638H3.45552ZM2.82046 6.45402V6.36655H3.45552V6.45402H2.82046ZM3.28368 6.14943L3.39815 6.27641H2.87807L2.99254 6.14943H3.28368ZM3.01692 6.0584V5.57169C3.05427 5.57966 3.09346 5.58505 3.13532 5.58505C3.17817 5.58505 3.21834 5.57952 3.2564 5.57118V6.0584H3.01692ZM2.82046 6.89268H3.45552V6.98282H2.82046V6.89268ZM4.51045 5.54694C4.41806 5.75872 4.19381 6.16461 4.00813 6.49143L3.83357 6.3809C4.17445 5.8784 4.53848 5.3504 4.62552 5.24826C4.61287 5.29476 4.58221 5.38246 4.51045 5.54694ZM4.06912 7.09855V7.12949C4.06912 7.18738 4.02206 7.23444 3.96417 7.23444C3.90627 7.23444 3.85921 7.18738 3.85921 7.12949V7.09855C3.85921 7.04066 3.90627 6.9936 3.96417 6.9936C4.02201 6.9936 4.06912 7.04066 4.06912 7.09855ZM3.83545 6.79255L3.64762 6.65596C3.69229 6.58963 3.73827 6.52161 3.7852 6.45233L3.96548 6.56643C3.9171 6.65104 3.87276 6.72801 3.83545 6.79255ZM3.54163 6.81337C3.56052 6.78524 3.57974 6.75665 3.59948 6.72735L3.79199 6.86736C3.75365 6.93322 3.72909 6.97508 3.72454 6.98282H3.54163V6.81337ZM3.49307 7.80051L4.53435 8.72971C4.44271 8.74372 4.33274 8.76229 4.28695 8.77691C4.07648 8.59311 3.78163 8.33174 3.40438 7.99396L3.37696 7.96949C3.42548 7.9213 3.46476 7.86393 3.49307 7.80051ZM4.66626 8.79758L5.15118 9.24219C5.03432 9.24083 4.79362 9.19607 4.62984 9.06815C4.58048 9.02957 4.49245 8.95536 4.3664 8.84605C4.45035 8.8288 4.59116 8.80799 4.66626 8.79758ZM5.15095 6.97743V7.25057C5.15095 7.27424 5.13163 7.2936 5.10791 7.2936H4.38126C4.35754 7.2936 4.33823 7.27424 4.33823 7.25057V7.24518H4.37052C4.39434 7.24518 4.4136 7.22596 4.4136 7.20215V7.02585C4.4136 7.00204 4.39438 6.98277 4.37052 6.98277H4.33823V6.97738C4.33823 6.95371 4.35754 6.9343 4.38126 6.9343H5.10787C5.13159 6.9344 5.15095 6.95366 5.15095 6.97743ZM4.32745 7.15907H4.15523V7.12949V7.09855V7.06897H4.32745V7.15907ZM1.14121 7.25052V6.97738C1.14121 6.95371 1.16052 6.9343 1.18424 6.9343H1.91081C1.93452 6.9343 1.95388 6.95366 1.95388 6.97738V6.98277H1.92159C1.89777 6.98277 1.87851 7.00199 1.87851 7.02585V7.20215C1.87851 7.22596 1.89773 7.24518 1.92159 7.24518H1.95388V7.25057C1.95388 7.27424 1.93457 7.2936 1.91081 7.2936H1.18424C1.16052 7.29365 1.14121 7.27433 1.14121 7.25052ZM1.96467 7.06893H2.13688V7.09851V7.12944V7.15902H1.96467V7.06893ZM2.43295 7.12944C2.43295 7.18733 2.38584 7.2344 2.32799 7.2344C2.27015 7.2344 2.22304 7.18733 2.22304 7.12944V7.09851C2.22304 7.04061 2.2701 6.99355 2.32799 6.99355C2.38588 6.99355 2.43295 7.04061 2.43295 7.09851V7.12944Z" fill="#D23741"/>
</svg>
