<svg width="24" height="24" viewBox="0 0 24 24" fill="none" xmlns="http://www.w3.org/2000/svg">
<path d="M22.2025 19.862H1.79742C0.804702 19.862 0 19.0573 0 18.0646V5.93536C0 4.94269 0.804702 4.13794 1.79742 4.13794H22.2025C23.1952 4.13794 24 4.94264 24 5.93536V18.0647C24 19.0573 23.1953 19.862 22.2025 19.862Z" fill="#73AF00"/>
<path d="M0 15.6573V16.894L19.4698 4.13794H17.5821L0 15.6573Z" fill="#FFE15A"/>
<path d="M6.41793 19.862L24 8.34266V7.10596L4.53027 19.862H6.41793Z" fill="#FFE15A"/>
<path d="M22.2025 4.13794H19.4697L0 16.894V18.0646C0 19.0573 0.804702 19.862 1.79742 19.862H4.53023L24 7.10596V5.93536C24 4.94264 23.1953 4.13794 22.2025 4.13794Z" fill="#464655"/>
<path d="M7.31344 12.9327L8.16276 13.6166L9.08479 13.0345C9.20418 12.9591 9.35081 13.079 9.30051 13.211L8.91253 14.2301L9.75112 14.927C9.85968 15.0173 9.79092 15.1938 9.64992 15.1868L8.56082 15.1327L8.15704 16.1457C8.10473 16.2768 7.91564 16.266 7.8787 16.1297L7.59361 15.0772L6.5055 15.0062C6.36459 14.997 6.3165 14.8138 6.43467 14.7366L7.34756 14.1402L7.07878 13.0833C7.04405 12.9466 7.20347 12.8442 7.31344 12.9327Z" fill="#F5F5F5"/>
<path d="M15.141 7.79483L15.9904 8.47873L16.9124 7.89654C17.0318 7.82117 17.1784 7.94112 17.1281 8.07307L16.7401 9.09214L17.5787 9.78912C17.6873 9.8794 17.6186 10.0558 17.4775 10.0489L16.3884 9.99481L15.9847 11.0078C15.9324 11.1389 15.7433 11.1281 15.7063 10.9918L15.4212 9.93926L14.3331 9.86829C14.1922 9.8591 14.1441 9.67587 14.2623 9.59867L15.1752 9.00223L14.9064 7.94539C14.8717 7.80861 15.0311 7.70628 15.141 7.79483Z" fill="#F5F5F5"/>
<path d="M23.9998 8.34265L6.41772 19.862H22.2025C23.1951 19.862 23.9999 19.0573 23.9999 18.0646L23.9998 8.34265Z" fill="#FF4B55"/>
</svg>
