<svg width="24" height="24" viewBox="0 0 24 24" fill="none" xmlns="http://www.w3.org/2000/svg">
<path d="M22.2026 4.13788H1.79742C0.804703 4.13788 0 4.94258 0 5.9353V18.0647C0 19.0573 0.804703 19.8621 1.79742 19.8621H22.2026C23.1952 19.8621 24 19.0574 24 18.0647V5.9353C24 4.94258 23.1953 4.13788 22.2026 4.13788Z" fill="#FF4B55"/>
<path d="M3.98481 6.59679L4.37931 7.77963L5.62619 7.78929C5.78763 7.79051 5.85456 7.99657 5.72467 8.09243L4.72164 8.8331L5.09772 10.0219C5.14638 10.1759 4.97116 10.3031 4.83981 10.2093L3.82544 9.48419L2.81106 10.2093C2.67972 10.3031 2.5045 10.1758 2.55316 10.0219L2.92924 8.83305L1.9262 8.09243C1.79631 7.99652 1.86325 7.79051 2.02469 7.78929L3.27156 7.77963L3.66606 6.59679C3.71716 6.44365 3.93377 6.44365 3.98481 6.59679Z" fill="#FFE15A"/>
<path d="M8.51261 6.88825L8.7955 7.27394L9.25202 7.13116C9.31113 7.11269 9.35974 7.1801 9.32355 7.2303L9.04408 7.61847L9.32093 8.00852C9.35679 8.059 9.30771 8.12608 9.24874 8.10719L8.79316 7.96136L8.50774 8.34522C8.4708 8.39491 8.39182 8.36894 8.39158 8.30707L8.38947 7.82871L7.93619 7.67585C7.8775 7.65602 7.87779 7.57296 7.93661 7.55355L8.39083 7.40374L8.39618 6.92543C8.39683 6.86369 8.476 6.83833 8.51261 6.88825Z" fill="#FFE15A"/>
<path d="M6.79036 5.7384L7.26586 5.79006L7.46873 5.35689C7.49503 5.30083 7.57758 5.31044 7.59019 5.37105L7.68797 5.83923L8.16262 5.8983C8.22408 5.90594 8.24044 5.9874 8.18667 6.0182L7.77159 6.25586L7.86211 6.72555C7.87383 6.78639 7.80141 6.82708 7.75552 6.7855L7.40119 6.46417L6.9825 6.69536C6.92831 6.72531 6.86714 6.66897 6.89255 6.61248L7.08862 6.17617L6.73931 5.84936C6.69417 5.80726 6.72881 5.73175 6.79036 5.7384Z" fill="#FFE15A"/>
<path d="M7.54207 10.374L7.25923 10.7598L6.80271 10.617C6.7436 10.5986 6.69499 10.6659 6.73118 10.7162L7.01065 11.1044L6.7338 11.4944C6.69795 11.5449 6.74702 11.612 6.80599 11.5931L7.26152 11.4473L7.54695 11.8311C7.58388 11.8808 7.66287 11.8548 7.6631 11.793L7.66521 11.3146L8.11849 11.1617C8.17718 11.1419 8.1769 11.0588 8.11807 11.0394L7.66385 10.8896L7.65851 10.4113C7.65776 10.3495 7.57868 10.3241 7.54207 10.374Z" fill="#FFE15A"/>
<path d="M9.26435 9.29349L8.7888 9.34515L8.58593 8.91197C8.55963 8.85591 8.47713 8.86552 8.46448 8.92613L8.36665 9.39432L7.89199 9.45338C7.83054 9.46102 7.81418 9.54249 7.86794 9.57329L8.28302 9.81094L8.19251 10.2806C8.18079 10.3415 8.25321 10.3822 8.2991 10.3406L8.65343 10.0193L9.07212 10.2504C9.1263 10.2804 9.18748 10.2241 9.16207 10.1676L8.96599 9.73125L9.3153 9.40444C9.36063 9.36235 9.32599 9.28683 9.26435 9.29349Z" fill="#FFE15A"/>
</svg>
