<svg width="24" height="24" viewBox="0 0 24 24" fill="none" xmlns="http://www.w3.org/2000/svg">
<path d="M22.2026 4.13794H1.79742C0.804703 4.13794 0 4.94264 0 5.93536V9.37931H24V5.93536C24 4.94264 23.1953 4.13794 22.2026 4.13794Z" fill="#73AF00"/>
<path d="M0 18.0647C0 19.0573 0.804703 19.8621 1.79742 19.8621H22.2026C23.1952 19.8621 24 19.0574 24 18.0647V14.6207H0V18.0647Z" fill="#FF4B55"/>
<path d="M24 9.37921H0V14.6203H24V9.37921Z" fill="#FFE15A"/>
<path d="M16.9663 12.0046C16.9663 14.7433 14.7428 16.9708 12.0001 16.9708C9.2574 16.9708 7.03394 14.7433 7.03394 12.0046C7.03394 9.25795 9.25745 7.03448 12.0001 7.03448C14.7428 7.03448 16.9663 9.25795 16.9663 12.0046Z" fill="#4173CD"/>
<path d="M8.2229 10.7561H11.1083L11.7613 8.74669L11.9347 9.28566L10.9865 12.2067L10.704 12.0007L10.9994 11.0931H8.67881L8.2229 10.7561ZM9.66459 15.1991L10.5564 12.4564L8.84723 11.2119H9.41095L11.8951 13.0153L11.6127 13.2214L10.8389 12.6586L10.1205 14.8702L9.66459 15.1991ZM14.3355 15.1991L12.0001 13.5029L10.2919 14.7434L10.4663 14.2123L12.9484 12.4049L13.0544 12.7378L12.2825 13.2967L14.1602 14.6641L14.3355 15.1991ZM15.7772 10.7561L13.4437 12.4564L14.0967 14.4659L13.6409 14.1329L12.6936 11.2118H13.0404L13.3357 12.1235L15.2144 10.756H15.7771V10.7561H15.7772ZM12.0001 8.01343L12.8919 10.7561H15.0054L14.5486 11.0931H11.4789L11.5869 10.7561H12.544L11.8256 8.54846L12.0001 8.01343Z" fill="#F2DD30"/>
<path d="M12.0832 15.9761H11.9177V13.8239H12.0832V15.9761ZM15.7524 13.3046L13.7063 12.6427L13.7578 12.4882L15.8049 13.1501L15.7524 13.3046ZM8.24663 13.3046L8.19507 13.1501L10.2431 12.4882L10.2938 12.6427L8.24663 13.3046ZM13.1386 10.5777L13.0037 10.4827L14.2691 8.74268L14.4009 8.83783L13.1386 10.5777ZM10.8645 10.5777L9.5971 8.83783L9.73093 8.74268L10.9953 10.4827L10.8645 10.5777Z" fill="#F2DD30"/>
</svg>
