<svg width="24" height="24" viewBox="0 0 24 24" fill="none" xmlns="http://www.w3.org/2000/svg">
<path d="M22.2026 19.8621H1.79742C0.804703 19.8621 0 19.0574 0 18.0646V5.93536C0 4.94269 0.804703 4.13794 1.79742 4.13794H22.2026C23.1952 4.13794 24 4.94264 24 5.93536V18.0647C24 19.0574 23.1953 19.8621 22.2026 19.8621Z" fill="#82AFFF"/>
<path d="M11.9453 6.40195L11.6265 7.35782L10.6189 7.36565C10.5637 7.36607 10.5408 7.43657 10.5852 7.46943L11.3958 8.06798L11.0918 9.02863C11.0752 9.08127 11.1351 9.12491 11.1801 9.09276L11.9998 8.50682L12.8196 9.09276C12.8645 9.12487 12.9245 9.08132 12.9078 9.02863L12.6038 8.06798L13.4144 7.46943C13.4588 7.43662 13.4359 7.36612 13.3807 7.36565L12.3731 7.35782L12.0543 6.40195C12.0369 6.34954 11.9627 6.34954 11.9453 6.40195Z" fill="#F5F5F5"/>
<path d="M11.9453 14.9361L11.6265 15.892L10.6189 15.8998C10.5637 15.9002 10.5408 15.9707 10.5852 16.0036L11.3958 16.6021L11.0918 17.5628C11.0752 17.6154 11.1351 17.6591 11.1801 17.6269L11.9998 17.041L12.8196 17.6269C12.8645 17.659 12.9245 17.6155 12.9078 17.5628L12.6038 16.6021L13.4144 16.0036C13.4588 15.9708 13.4359 15.9003 13.3807 15.8998L12.3731 15.892L12.0543 14.9361C12.0369 14.8837 11.9627 14.8837 11.9453 14.9361Z" fill="#F5F5F5"/>
<path d="M17.5983 11.9457L16.6424 11.6269L16.6346 10.6193C16.6341 10.5641 16.5636 10.5412 16.5308 10.5856L15.9322 11.3962L14.9716 11.0923C14.9189 11.0756 14.8753 11.1356 14.9075 11.1805L15.4934 12.0003L14.9075 12.8201C14.8753 12.865 14.9189 12.925 14.9716 12.9083L15.9322 12.6044L16.5308 13.4149C16.5636 13.4594 16.6341 13.4364 16.6346 13.3812L16.6424 12.3736L17.5983 12.0548C17.6506 12.0374 17.6506 11.9632 17.5983 11.9457Z" fill="#F5F5F5"/>
<path d="M6.40157 11.9457L7.35745 11.6269L7.36528 10.6193C7.3657 10.5641 7.4362 10.5412 7.46906 10.5856L8.06761 11.3962L9.02826 11.0923C9.0809 11.0756 9.12454 11.1356 9.09239 11.1805L8.50645 12.0003L9.09239 12.8201C9.1245 12.865 9.08095 12.925 9.02826 12.9083L8.06761 12.6044L7.46906 13.4149C7.43625 13.4594 7.36575 13.4364 7.36528 13.3812L7.35745 12.3736L6.40157 12.0548C6.34921 12.0374 6.34921 11.9632 6.40157 11.9457Z" fill="#F5F5F5"/>
</svg>
