<svg width="24" height="24" viewBox="0 0 24 24" fill="none" xmlns="http://www.w3.org/2000/svg">
<path d="M22.2026 19.8621H1.79742C0.804703 19.8621 0 19.0574 0 18.0646V5.93536C0 4.94269 0.804703 4.13794 1.79742 4.13794H22.2026C23.1952 4.13794 24 4.94264 24 5.93536V18.0647C24 19.0574 23.1953 19.8621 22.2026 19.8621Z" fill="#FF4B55"/>
<path d="M12.047 7.86206C14.3306 7.86206 16.1816 9.71803 16.1816 12C16.1816 14.2886 14.3306 16.1379 12.047 16.1379C9.75845 16.1379 7.90576 14.2886 7.90576 12C7.90571 9.71803 9.7584 7.86206 12.047 7.86206Z" fill="#F5F5F5"/>
<path d="M12.7989 14.3187C11.518 14.3187 10.479 13.2797 10.479 12.0002C10.479 10.7238 11.5179 9.68485 12.7989 9.68485C13.2346 9.68485 13.6418 9.80691 13.9898 10.0178C14.0419 10.0493 14.0968 9.9811 14.0533 9.9383C13.5312 9.42389 12.8163 9.10529 12.0266 9.10529C10.4235 9.10529 9.12549 10.4033 9.12549 12.0003C9.12549 13.6004 10.4235 14.8984 12.0266 14.8984C12.8159 14.8984 13.5305 14.58 14.0525 14.0657C14.096 14.0229 14.0411 13.9547 13.989 13.9862C13.6412 14.1969 13.2343 14.3187 12.7989 14.3187Z" fill="#FF4B55"/>
<path d="M12.5869 10.3775L13.2265 11.2459L14.2552 10.9219C14.3883 10.88 14.4982 11.0317 14.417 11.1451L13.7887 12.0218L14.4148 12.9C14.4958 13.0136 14.3855 13.1651 14.2524 13.1228L13.2246 12.7962L12.5827 13.6629C12.4997 13.7751 12.3216 13.717 12.3207 13.5773L12.3137 12.4989L11.2911 12.1564C11.1586 12.112 11.1589 11.9247 11.2914 11.8807L12.3149 11.5408L12.3247 10.4623C12.3259 10.3227 12.5041 10.2651 12.5869 10.3775Z" fill="#FF4B55"/>
</svg>
