<svg width="24" height="24" viewBox="0 0 24 24" fill="none" xmlns="http://www.w3.org/2000/svg">
<path d="M22.2026 19.8621H1.79742C0.804703 19.8621 0 19.0574 0 18.0646V5.93536C0 4.94269 0.804703 4.13794 1.79742 4.13794H22.2026C23.1952 4.13794 24 4.94264 24 5.93536V18.0647C24 19.0574 23.1953 19.8621 22.2026 19.8621Z" fill="#73AF00"/>
<path d="M16.4554 10.5462C16.4444 10.4755 16.3418 10.4791 16.3338 10.5502C16.0869 12.7253 14.2419 14.4151 12.0001 14.4151C9.75895 14.4151 7.91329 12.7253 7.6664 10.5503C7.65834 10.4791 7.55582 10.4756 7.54476 10.5463C7.51045 10.7651 7.4917 10.9889 7.4917 11.2173C7.4917 13.7048 9.51061 15.7244 12.0001 15.7244C14.4905 15.7244 16.5086 13.7049 16.5086 11.2173C16.5084 10.9889 16.4896 10.765 16.4554 10.5462Z" fill="#FFE15A"/>
<path d="M11.9442 8.68463L11.6182 9.66216L10.5877 9.67013C10.5313 9.67055 10.5078 9.74264 10.5533 9.77621L11.3823 10.3883L11.0714 11.3708C11.0544 11.4247 11.1157 11.4693 11.1617 11.4364L12 10.8373L12.8384 11.4365C12.8843 11.4694 12.9456 11.4248 12.9286 11.3709L12.6178 10.3884L13.4468 9.7763C13.4923 9.74274 13.4688 9.67064 13.4123 9.67022L12.3819 9.66225L12.0559 8.68472C12.0379 8.63105 11.9621 8.63105 11.9442 8.68463Z" fill="#FFE15A"/>
</svg>
