<svg width="24" height="24" viewBox="0 0 24 24" fill="none" xmlns="http://www.w3.org/2000/svg">
<path d="M22.2026 19.8621H1.79742C0.804703 19.8621 0 19.0574 0 18.0646V5.93536C0 4.94269 0.804703 4.13794 1.79742 4.13794H22.2026C23.1952 4.13794 24 4.94264 24 5.93536V18.0647C24 19.0574 23.1953 19.8621 22.2026 19.8621Z" fill="#41479B"/>
<path d="M12.5301 9.49163C12.2909 9.44635 12 9.14251 12.1034 8.97441C12.2069 8.80632 12.0129 8.43132 11.7801 8.5606C11.5473 8.68993 11.3922 8.84509 11.1723 8.89679C10.9525 8.94849 10.7715 9.11663 10.9395 9.27179C11.1076 9.42695 11.3662 9.73731 11.1206 10.0606C10.8749 10.3839 10.9525 10.1641 10.6551 10.3063C10.3576 10.4485 10.1507 10.733 10.2412 10.9011C10.3318 11.0692 10.4093 11.1339 10.1507 11.2502C9.89212 11.3666 9.77573 11.2891 9.56883 11.3408C9.36192 11.3925 8.85764 11.6511 8.70244 11.8709C8.54728 12.0908 8.21104 11.8839 8.06883 11.858C7.92661 11.8321 7.64212 11.9356 7.57744 12.1036C7.51279 12.2717 7.62914 12.4269 7.87486 12.5045C8.12053 12.5821 8.22398 12.595 8.10764 12.8019C7.9913 13.0089 8.06883 13.4097 8.26279 13.5261C8.45676 13.6425 8.83176 14.0045 8.83176 14.2502C8.83176 14.4959 8.78006 14.858 9.14212 14.9097C9.50419 14.9614 10.0602 15.1166 10.2542 15.4528C10.4482 15.789 10.4999 15.9829 10.5387 16.1898C10.5775 16.3967 10.6162 16.5648 10.7326 16.7976C10.849 17.0304 10.9266 17.4312 10.8102 17.5217C10.6938 17.6123 10.6033 17.6769 10.6938 17.8515C10.7843 18.026 10.8037 18.0907 10.9718 17.9937C11.1399 17.8967 11.1399 18.0001 11.2305 17.9807C11.321 17.9613 11.7348 17.8126 11.6572 17.6122C11.5796 17.4118 11.4115 16.9527 11.6507 16.7135C11.8899 16.4743 12.2132 16.4355 12.4201 16.2739C12.627 16.1123 12.9697 16.0864 13.2347 15.8278C13.4998 15.5692 13.7843 15.7243 13.8296 15.9054C13.8749 16.0864 13.946 16.4355 14.1529 16.429C14.3598 16.4226 14.405 16.4226 14.4438 16.1704C14.4826 15.9183 14.8059 15.3558 14.9352 15.4269C15.0645 15.498 15.1809 15.4398 15.1874 15.3299C15.1938 15.22 15.4395 15.123 15.543 15.2782C15.6464 15.4334 15.8727 15.5562 15.8662 15.3623C15.8598 15.1683 15.5947 15.1942 15.5882 14.9808C15.5818 14.7674 15.8016 14.6317 15.9956 14.5411C16.1895 14.4506 16.0732 14.2179 16.1314 14.0886C16.1895 13.9592 16.5064 13.7976 16.5193 13.6683C16.5322 13.539 16.4417 13.4873 16.5775 13.4549C16.7133 13.4226 16.8814 13.3644 16.7844 13.2157C16.6874 13.067 16.7197 12.9571 16.8232 12.886C16.9267 12.8149 16.9752 12.4773 16.8243 12.4335C16.6733 12.3896 16.4008 12.5162 16.3326 12.599C16.2645 12.6818 15.987 12.3264 15.8555 12.2387C15.7241 12.1511 14.877 12.2046 14.8965 12.0586C14.916 11.9126 15.2715 11.3795 15.1163 11.2955C14.9612 11.2114 14.7155 11.0886 14.515 11.0239C14.3146 10.9593 14.3599 11.1791 14.25 11.0045C14.14 10.83 14.1013 10.2092 13.9784 10.2092C13.8555 10.2092 13.765 10.4679 13.7133 10.3709C13.6616 10.2739 13.7327 9.60146 13.4482 9.58852C13.1638 9.57559 13.1573 9.74368 12.9957 9.62087C12.834 9.4981 12.8572 9.55351 12.5301 9.49163Z" fill="#FF9B55"/>
<path d="M10.7736 5.81338L10.5587 6.45744L9.87981 6.46274C9.84259 6.46307 9.82717 6.51055 9.85712 6.53263L10.4033 6.93594L10.1985 7.58328C10.1873 7.61877 10.2276 7.64816 10.2579 7.62646L10.8103 7.23167L11.3627 7.6265C11.3929 7.64811 11.4333 7.61882 11.4221 7.58333L11.2173 6.93599L11.7635 6.53267C11.7934 6.5106 11.778 6.46307 11.7408 6.46278L11.0619 6.45749L10.847 5.81342C10.8353 5.77808 10.7853 5.77808 10.7736 5.81338Z" fill="#F5F5F5"/>
<path d="M13.1657 5.81338L12.9508 6.45745L12.2719 6.46274C12.2347 6.46307 12.2193 6.51056 12.2492 6.53263L12.7953 6.93595L12.5906 7.58329C12.5793 7.61877 12.6197 7.64816 12.65 7.62646L13.2024 7.23163L13.7548 7.62646C13.7851 7.64807 13.8255 7.61877 13.8143 7.58329L13.6095 6.93595L14.1556 6.53263C14.1856 6.51056 14.1701 6.46302 14.1329 6.46274L13.454 6.45745L13.2392 5.81338C13.2273 5.77809 13.1774 5.77809 13.1657 5.81338Z" fill="#F5F5F5"/>
<path d="M8.41371 6.20779L8.19888 6.85186L7.51994 6.85715C7.48272 6.85748 7.4673 6.90496 7.49726 6.92704L8.0434 7.33036L7.8386 7.9777C7.8274 8.01318 7.86776 8.04257 7.89808 8.02087L8.45046 7.62604L9.00283 8.02087C9.03311 8.04248 9.07352 8.01318 9.06232 7.9777L8.85752 7.33036L9.40366 6.92704C9.43361 6.90496 9.41819 6.85743 9.38097 6.85715L8.70204 6.85186L8.48721 6.20779C8.47544 6.1725 8.42547 6.1725 8.41371 6.20779Z" fill="#F5F5F5"/>
<path d="M6.1808 7.01938L5.96597 7.66344L5.28703 7.66874C5.24981 7.66907 5.23439 7.71655 5.26435 7.73863L5.81049 8.14195L5.60569 8.78929C5.59449 8.82477 5.63485 8.85416 5.66517 8.83246L6.21755 8.43763L6.76992 8.83246C6.8002 8.85407 6.84061 8.82477 6.82941 8.78929L6.62461 8.14195L7.17075 7.73863C7.2007 7.71655 7.18528 7.66902 7.14806 7.66874L6.46913 7.66344L6.2543 7.01938C6.24253 6.98404 6.19256 6.98404 6.1808 7.01938Z" fill="#F5F5F5"/>
<path d="M15.5927 6.20779L15.8075 6.85186L16.4864 6.85715C16.5237 6.85748 16.5391 6.90496 16.5091 6.92704L15.963 7.33036L16.1678 7.9777C16.179 8.01318 16.1386 8.04257 16.1083 8.02087L15.5559 7.62604L15.0036 8.02087C14.9733 8.04248 14.9329 8.01318 14.9441 7.9777L15.1489 7.33036L14.6027 6.92704C14.5728 6.90496 14.5882 6.85743 14.6254 6.85715L15.3043 6.85186L15.5191 6.20779C15.5309 6.1725 15.5809 6.1725 15.5927 6.20779Z" fill="#F5F5F5"/>
<path d="M17.8256 7.01938L18.0404 7.66344L18.7193 7.66874C18.7566 7.66907 18.772 7.71655 18.742 7.73863L18.1959 8.14195L18.4007 8.78929C18.4119 8.82477 18.3715 8.85416 18.3412 8.83246L17.7888 8.43763L17.2365 8.83246C17.2062 8.85407 17.1658 8.82477 17.177 8.78929L17.3818 8.14195L16.8356 7.73863C16.8057 7.71655 16.8211 7.66902 16.8583 7.66874L17.5372 7.66344L17.7521 7.01938C17.7638 6.98404 17.8138 6.98404 17.8256 7.01938Z" fill="#F5F5F5"/>
</svg>
