<svg width="24" height="24" viewBox="0 0 24 24" fill="none" xmlns="http://www.w3.org/2000/svg">
<g clip-path="url(#clip0_1_2947)">
<path d="M1.70456 19.8609H7.99997V4.13921H1.79742C0.804703 4.13921 0 4.94391 0 5.93663V18.066C0 19.0275 0.755062 19.8127 1.70456 19.8609Z" fill="#F5F5F5"/>
<path d="M16.0004 4.13906H8.00024V19.8605H16.0004V4.13906Z" fill="#4173CD"/>
<path d="M22.2954 19.8609C23.2449 19.8127 24 19.0275 24 18.0659V5.93663C24 4.94396 23.1953 4.13921 22.2025 4.13921H16V19.8609H22.2954Z" fill="#FFE15A"/>
<path d="M10.751 12.4579C10.7462 12.5814 10.5609 12.6337 10.5609 12.6337C10.5419 12.4246 10.7558 12.0397 10.7985 12.0065C10.8413 11.9732 11.0123 11.8164 10.8413 11.8497C10.6702 11.883 10.5039 12.2678 10.4659 12.3343C10.4278 12.4008 10.3376 12.3961 10.3376 12.3961C10.3376 12.3961 10.3376 12.0872 10.3376 12.0207C10.3376 11.9542 10.6322 11.8117 10.6322 11.8117C10.6322 11.8117 10.6797 11.5266 10.6369 11.4981C10.5941 11.4696 10.5039 11.5504 10.3756 11.5598C10.2473 11.5694 10.0905 11.5741 9.95745 11.6977C9.82441 11.8212 9.81963 11.9067 9.81963 12.1158C9.81963 12.3248 9.81963 12.1158 9.81963 12.6195C9.81963 13.1231 9.3492 13.4748 9.17341 13.6506C9.12556 13.6984 9.10723 13.757 9.10563 13.8184C9.07029 13.8515 8.99234 13.8997 8.92723 13.8857C8.82715 13.8642 8.81224 13.6882 8.81224 13.5853C8.81224 13.5538 8.78674 13.5283 8.75524 13.5283C8.72374 13.5283 8.69824 13.5538 8.69824 13.5853C8.69824 13.9336 8.84655 13.9957 8.93487 14.0017C8.93974 14.002 8.94457 14.0022 8.94954 14.0022C9.00809 14.0022 9.07104 13.9791 9.12326 13.9468C9.15724 14.0698 9.22882 14.1841 9.24935 14.2303C9.28737 14.3159 9.0783 14.4537 9.0783 14.4537L9.24935 14.9811H9.48223C9.48223 14.8505 9.32309 14.8766 9.29927 14.8433C9.27556 14.81 9.24706 14.5083 9.24706 14.5083L9.57743 14.2319C9.60293 14.2105 9.61765 14.179 9.61765 14.1457V13.9987C9.61765 13.9987 9.85999 14.0378 9.9206 14.0913C9.98116 14.1447 9.92773 14.3051 9.92773 14.3265C9.92773 14.3478 10.2342 14.6187 10.2342 14.6187H10.4445C10.4445 14.5225 10.3447 14.526 10.2948 14.5082C10.2449 14.4903 10.0953 14.3051 10.0953 14.3051C10.0953 14.3051 10.1761 14.0544 10.1761 13.9927C10.1761 13.9309 9.8292 13.6791 9.8292 13.6791C9.8292 13.6791 9.87673 13.5982 10.2283 13.3797C10.5799 13.1611 10.5514 12.914 10.5514 12.914L10.8556 12.5719V12.3248C10.8555 12.3248 10.7558 12.3344 10.751 12.4579Z" fill="#C17400"/>
<path d="M13.2576 12.4579C13.2624 12.5814 13.4477 12.6337 13.4477 12.6337C13.4666 12.4246 13.2528 12.0397 13.2101 12.0065C13.1673 11.9732 12.9963 11.8164 13.1673 11.8497C13.3383 11.883 13.5047 12.2678 13.5427 12.3343C13.5807 12.4008 13.671 12.3961 13.671 12.3961C13.671 12.3961 13.671 12.0872 13.671 12.0207C13.671 11.9542 13.3764 11.8117 13.3764 11.8117C13.3764 11.8117 13.3289 11.5266 13.3716 11.4981C13.4144 11.4696 13.5047 11.5504 13.633 11.5598C13.7613 11.5694 13.9181 11.5741 14.0511 11.6977C14.1842 11.8212 14.1889 11.9067 14.1889 12.1158C14.1889 12.3248 14.1889 12.1158 14.1889 12.6195C14.1889 13.1231 14.6594 13.4748 14.8352 13.6506C14.883 13.6984 14.9013 13.757 14.9029 13.8184C14.9383 13.8515 15.0162 13.8997 15.0813 13.8857C15.1814 13.8642 15.1963 13.6882 15.1963 13.5853C15.1963 13.5538 15.2218 13.5283 15.2533 13.5283C15.2848 13.5283 15.3103 13.5538 15.3103 13.5853C15.3103 13.9336 15.162 13.9957 15.0737 14.0017C15.0688 14.002 15.064 14.0022 15.059 14.0022C15.0005 14.0022 14.9375 13.9791 14.8853 13.9468C14.8513 14.0698 14.7797 14.1841 14.7592 14.2303C14.7212 14.3159 14.9302 14.4537 14.9302 14.4537L14.7592 14.9811H14.5263C14.5263 14.8505 14.6855 14.8766 14.7093 14.8433C14.733 14.81 14.7615 14.5083 14.7615 14.5083L14.4311 14.2319C14.4056 14.2105 14.3909 14.179 14.3909 14.1457V13.9987C14.3909 13.9987 14.1485 14.0378 14.0879 14.0913C14.0274 14.1447 14.0808 14.3051 14.0808 14.3265C14.0808 14.3478 13.7743 14.6187 13.7743 14.6187H13.564C13.564 14.5225 13.6638 14.526 13.7137 14.5082C13.7636 14.4903 13.9133 14.3051 13.9133 14.3051C13.9133 14.3051 13.8325 14.0544 13.8325 13.9927C13.8325 13.9309 14.1793 13.6791 14.1793 13.6791C14.1793 13.6791 14.1318 13.5982 13.7802 13.3797C13.4286 13.1611 13.4571 12.914 13.4571 12.914L13.153 12.5719V12.3248C13.153 12.3248 13.2528 12.3344 13.2576 12.4579Z" fill="#C17400"/>
<path d="M11.5469 12.1324L11.2048 12.4746H11.8891L11.5469 12.1324Z" fill="#C8C8C8"/>
<path d="M12.4593 12.1324L12.1172 12.4746H12.8014L12.4593 12.1324Z" fill="#C8C8C8"/>
<path d="M11.5469 12.7027L11.2048 13.0448H11.8891L11.5469 12.7027Z" fill="#C8C8C8"/>
<path d="M12.4593 12.7027L12.1172 13.0448H12.8014L12.4593 12.7027Z" fill="#C8C8C8"/>
<path d="M11.5469 13.2728L11.2048 13.6149H11.8891L11.5469 13.2728Z" fill="#C8C8C8"/>
<path d="M12.4593 13.2728L12.1172 13.6149H12.8014L12.4593 13.2728Z" fill="#C8C8C8"/>
<path d="M12.003 13.8431L11.6609 14.1852H12.3452L12.003 13.8431Z" fill="#C8C8C8"/>
<path d="M12.0601 10.3078H11.946V10.9921H12.0601V10.3078Z" fill="#FFE15A"/>
<path d="M11.3777 11.0058C11.3758 10.9984 11.3338 10.8233 11.4517 10.6958C11.5556 10.5833 11.7446 10.5489 12.0126 10.5937L11.9939 10.7062C11.769 10.6685 11.6105 10.6918 11.5355 10.7731C11.4601 10.8547 11.4881 10.977 11.4883 10.9782L11.3777 11.0058Z" fill="#FFE15A"/>
<path d="M11.0654 11.3851C10.9229 11.3138 10.8528 11.1069 10.9124 10.9332C10.9374 10.8604 11.0497 10.629 11.4442 10.708L11.4218 10.8199C11.2134 10.7779 11.0674 10.8331 11.0203 10.9703C10.9797 11.0887 11.0255 11.2378 11.1164 11.2832L11.0654 11.3851Z" fill="#FFE15A"/>
<path d="M12.6287 11.0058L12.5181 10.9782L12.5734 10.992L12.518 10.9784C12.5183 10.9772 12.5466 10.8542 12.4703 10.7724C12.3949 10.6915 12.2367 10.6686 12.0126 10.7061L11.9939 10.5936C12.2623 10.5488 12.4509 10.5833 12.5548 10.6957C12.6726 10.8233 12.6306 10.9984 12.6287 11.0058Z" fill="#FFE15A"/>
<path d="M12.9411 11.3851L12.8901 11.2831C12.981 11.2377 13.0268 11.0886 12.9861 10.9702C12.9391 10.8331 12.7928 10.778 12.5847 10.8198L12.5623 10.708C12.957 10.629 13.0691 10.8605 13.0941 10.9332C13.1537 11.1069 13.0836 11.3139 12.9411 11.3851Z" fill="#FFE15A"/>
<path d="M12.4593 10.992C12.4593 10.992 12.2312 10.8779 12.0031 10.8779C11.7751 10.8779 11.547 10.992 11.547 10.992C11.3189 10.8779 10.9768 10.992 10.9768 11.22C10.9768 11.4481 11.3189 11.7902 11.3189 11.7902H12.0032H12.6875C12.6875 11.7902 13.0296 11.4481 13.0296 11.22C13.0296 10.992 12.6874 10.8779 12.4593 10.992Z" fill="#FF4B55"/>
<path d="M12.1175 10.3645H11.8894V10.4786H12.1175V10.3645Z" fill="#FFE15A"/>
<path d="M13.1438 9.73782H10.8628V10.194H13.1438V9.73782Z" fill="#C8C8C8"/>
<path d="M11.1447 10.3553L11.0366 10.0308L10.3524 10.2587L10.4605 10.5832L11.1447 10.3553Z" fill="#C8C8C8"/>
<path d="M13.6545 10.2592L12.9702 10.0311L12.8621 10.3556L13.5463 10.5837L13.6545 10.2592Z" fill="#C8C8C8"/>
<path d="M12.0031 14.5843C11.3429 14.5843 10.8057 14.2518 10.8057 13.843V11.9043C10.8057 11.81 10.8824 11.7333 10.9767 11.7333H13.0295C13.1239 11.7333 13.2006 11.8101 13.2006 11.9043V13.843C13.2006 14.2518 12.6634 14.5843 12.0031 14.5843ZM10.9767 11.8473C10.9453 11.8473 10.9197 11.8729 10.9197 11.9043V13.843C10.9197 14.1888 11.4057 14.4702 12.0031 14.4702C12.6006 14.4702 13.0866 14.1887 13.0866 13.843V11.9043C13.0866 11.8729 13.061 11.8473 13.0296 11.8473H10.9767Z" fill="#464655"/>
</g>
<defs>
<clipPath id="clip0_1_2947">
<rect width="24" height="24" fill="white"/>
</clipPath>
</defs>
</svg>
