<svg width="24" height="24" viewBox="0 0 24 24" fill="none" xmlns="http://www.w3.org/2000/svg">
<path d="M1.79742 4.13794C0.804703 4.13794 0 4.94264 0 5.93536V16.1379L18.2069 4.13794H1.79742Z" fill="#41479B"/>
<path d="M22.2027 19.8621C23.1954 19.8621 24.0001 19.0574 24.0001 18.0646V7.86206L5.79321 19.8621H22.2027Z" fill="#73AF00"/>
<path d="M22.2026 4.13794H17.9596L0 15.9046V18.0646C0 19.0573 0.804703 19.8621 1.79742 19.8621H6.04036L24 8.09541V5.93536C24 4.94264 23.1953 4.13794 22.2026 4.13794Z" fill="#F5F5F5"/>
<path d="M22.2026 4.13794H20.2245L0 17.3884V18.0646C0 19.0573 0.804703 19.8621 1.79742 19.8621H3.77555L24 6.61158V5.93536C24 4.94264 23.1953 4.13794 22.2026 4.13794Z" fill="#FF4B55"/>
<path d="M4.22855 6.83878C4.63594 6.83878 5.00466 7.00382 5.27171 7.27068L5.41819 6.25415L4.6103 6.88982L4.22851 5.93536L3.84671 6.88982L3.03882 6.25415L3.1853 7.27068C3.45244 7.00378 3.82116 6.83878 4.22855 6.83878Z" fill="#FFE15A"/>
<path d="M3.18445 9.35784C2.91759 9.0908 2.75254 8.72198 2.75254 8.31469C2.75254 7.9073 2.91759 7.53858 3.18445 7.27153L2.16792 7.125L2.80359 7.93289L1.84912 8.31469L2.80359 8.69648L2.16792 9.50437L3.18445 9.35784Z" fill="#FFE15A"/>
<path d="M6.60779 8.31464L5.65332 7.93284L6.28899 7.125L5.27246 7.27148C5.53932 7.53853 5.70437 7.90734 5.70437 8.31464C5.70437 8.72198 5.53932 9.09075 5.27246 9.3578L6.28899 9.50428L5.65332 8.69639L6.60779 8.31464Z" fill="#FFE15A"/>
<path d="M4.22846 9.79054C3.82107 9.79054 3.45235 9.62549 3.1853 9.35863L3.03882 10.3752L3.84671 9.73949L4.22851 10.694L4.6103 9.73949L5.41819 10.3752L5.27171 9.35863C5.00457 9.62554 4.63585 9.79054 4.22846 9.79054Z" fill="#FFE15A"/>
<path d="M4.22855 9.51979C4.89411 9.51979 5.43366 8.98025 5.43366 8.31468C5.43366 7.64912 4.89411 7.10957 4.22855 7.10957C3.56298 7.10957 3.02344 7.64912 3.02344 8.31468C3.02344 8.98025 3.56298 9.51979 4.22855 9.51979Z" fill="#FFE15A"/>
</svg>
