<svg width="24" height="24" viewBox="0 0 24 24" fill="none" xmlns="http://www.w3.org/2000/svg">
<path d="M1.79742 19.8621H22.2025C23.1952 19.8621 24 19.0574 24 18.0646V5.93536C24 4.94274 23.1952 4.13794 22.2025 4.13794H1.79742C0.804703 4.13794 0 4.94274 0 5.93536V18.0646C0 19.0573 0.804703 19.8621 1.79742 19.8621Z" fill="#F5F5F5"/>
<path d="M24.0001 16.5517C22.7987 16.5517 22.7987 16.1379 21.5975 16.1379C20.3961 16.1379 20.3961 16.5517 19.1949 16.5517C17.9943 16.5517 17.9943 16.1379 16.7939 16.1379C15.5944 16.1379 15.5944 16.5517 14.3949 16.5517C13.1949 16.5517 13.1949 16.1379 11.9948 16.1379C10.7949 16.1379 10.7949 16.5517 9.59518 16.5517C8.39542 16.5517 8.39537 16.1379 7.19565 16.1379C5.99593 16.1379 5.99584 16.5517 4.79607 16.5517C3.59678 16.5517 3.59678 16.1379 2.39757 16.1379C1.19893 16.1379 1.19893 16.5517 0.000244141 16.5517V15.3103C1.19888 15.3103 1.19888 14.8965 2.39757 14.8965C3.59682 14.8965 3.59682 15.3103 4.79607 15.3103C5.99588 15.3103 5.99588 14.8965 7.19565 14.8965C8.39542 14.8965 8.39546 15.3103 9.59518 15.3103C10.795 15.3103 10.795 14.8965 11.9948 14.8965C13.1949 14.8965 13.1949 15.3103 14.3949 15.3103C15.5944 15.3103 15.5944 14.8965 16.7939 14.8965C17.9944 14.8965 17.9944 15.3103 19.1949 15.3103C20.3962 15.3103 20.3962 14.8965 21.5975 14.8965C22.7988 14.8965 22.7988 15.3103 24.0001 15.3103V16.5517Z" fill="#41479B"/>
<path d="M24.0001 11.5862C22.7987 11.5862 22.7987 11.1724 21.5975 11.1724C20.3961 11.1724 20.3961 11.5862 19.1949 11.5862C17.9943 11.5862 17.9943 11.1724 16.7939 11.1724C15.5944 11.1724 15.5944 11.5862 14.3949 11.5862C13.1949 11.5862 13.1949 11.1724 11.9948 11.1724C10.7949 11.1724 10.7949 11.5862 9.59518 11.5862C8.39542 11.5862 8.39537 11.1724 7.19565 11.1724C5.99593 11.1724 5.99584 11.5862 4.79607 11.5862C3.59678 11.5862 3.59678 11.1724 2.39757 11.1724C1.19893 11.1724 1.19893 11.5862 0.000244141 11.5862V10.3448C1.19888 10.3448 1.19888 9.93103 2.39757 9.93103C3.59682 9.93103 3.59682 10.3448 4.79607 10.3448C5.99588 10.3448 5.99588 9.93103 7.19565 9.93103C8.39542 9.93103 8.39546 10.3448 9.59518 10.3448C10.795 10.3448 10.795 9.93103 11.9948 9.93103C13.1949 9.93103 13.1949 10.3448 14.3949 10.3448C15.5944 10.3448 15.5944 9.93103 16.7939 9.93103C17.9944 9.93103 17.9944 10.3448 19.1949 10.3448C20.3962 10.3448 20.3962 9.93103 21.5975 9.93103C22.7988 9.93103 22.7988 10.3448 24.0001 10.3448V11.5862Z" fill="#41479B"/>
<path d="M24.0001 9.10345C22.7987 9.10345 22.7987 8.68964 21.5975 8.68964C20.3961 8.68964 20.3961 9.10345 19.1949 9.10345C17.9943 9.10345 17.9943 8.68964 16.7939 8.68964C15.5944 8.68964 15.5944 9.10345 14.3949 9.10345C13.1949 9.10345 13.1949 8.68964 11.9948 8.68964C10.7949 8.68964 10.7949 9.10345 9.59518 9.10345C8.39542 9.10345 8.39537 8.68964 7.19565 8.68964C5.99593 8.68964 5.99584 9.10345 4.79607 9.10345C3.59678 9.10345 3.59678 8.68964 2.39757 8.68964C1.19893 8.68964 1.19893 9.10345 0.000244141 9.10345V7.86206C1.19888 7.86206 1.19888 7.44825 2.39757 7.44825C3.59682 7.44825 3.59682 7.86206 4.79607 7.86206C5.99588 7.86206 5.99588 7.44825 7.19565 7.44825C8.39542 7.44825 8.39546 7.86206 9.59518 7.86206C10.795 7.86206 10.795 7.44825 11.9948 7.44825C13.1949 7.44825 13.1949 7.86206 14.3949 7.86206C15.5944 7.86206 15.5944 7.44825 16.7939 7.44825C17.9944 7.44825 17.9944 7.86206 19.1949 7.86206C20.3962 7.86206 20.3962 7.44825 21.5975 7.44825C22.7988 7.44825 22.7988 7.86206 24.0001 7.86206V9.10345Z" fill="#41479B"/>
<path d="M24.0001 6.62072C22.7987 6.62072 22.7987 6.20691 21.5975 6.20691C20.3961 6.20691 20.3961 6.62072 19.1949 6.62072C17.9943 6.62072 17.9943 6.20691 16.7939 6.20691C15.5944 6.20691 15.5944 6.62072 14.3949 6.62072C13.1949 6.62072 13.1949 6.20691 11.9948 6.20691C10.7949 6.20691 10.7949 6.62072 9.59518 6.62072C8.39542 6.62072 8.39537 6.20691 7.19565 6.20691C5.99593 6.20691 5.99584 6.62072 4.79607 6.62072C3.59678 6.62072 3.59678 6.20691 2.39757 6.20691C1.19893 6.20691 1.19893 6.62072 0.000244141 6.62072V5.37933C1.19888 5.37933 1.19888 4.96552 2.39757 4.96552C3.59682 4.96552 3.59682 5.37933 4.79607 5.37933C5.99588 5.37933 5.99588 4.96552 7.19565 4.96552C8.39542 4.96552 8.39546 5.37933 9.59518 5.37933C10.795 5.37933 10.795 4.96552 11.9948 4.96552C13.1949 4.96552 13.1949 5.37933 14.3949 5.37933C15.5944 5.37933 15.5944 4.96552 16.7939 4.96552C17.9944 4.96552 17.9944 5.37933 19.1949 5.37933C20.3962 5.37933 20.3962 4.96552 21.5975 4.96552C22.7988 4.96552 22.7988 5.37933 24.0001 5.37933V6.62072Z" fill="#41479B"/>
<path d="M24.0001 14.069C22.7987 14.069 22.7987 13.6552 21.5975 13.6552C20.3961 13.6552 20.3961 14.069 19.1949 14.069C17.9943 14.069 17.9943 13.6552 16.7939 13.6552C15.5944 13.6552 15.5944 14.069 14.3949 14.069C13.1949 14.069 13.1949 13.6552 11.9948 13.6552C10.7949 13.6552 10.7949 14.069 9.59518 14.069C8.39542 14.069 8.39537 13.6552 7.19565 13.6552C5.99593 13.6552 5.99584 14.069 4.79607 14.069C3.59678 14.069 3.59678 13.6552 2.39757 13.6552C1.19893 13.6552 1.19893 14.069 0.000244141 14.069V12.8276C1.19888 12.8276 1.19888 12.4138 2.39757 12.4138C3.59682 12.4138 3.59682 12.8276 4.79607 12.8276C5.99588 12.8276 5.99588 12.4138 7.19565 12.4138C8.39542 12.4138 8.39546 12.8276 9.59518 12.8276C10.795 12.8276 10.795 12.4138 11.9948 12.4138C13.1949 12.4138 13.1949 12.8276 14.3949 12.8276C15.5944 12.8276 15.5944 12.4138 16.7939 12.4138C17.9944 12.4138 17.9944 12.8276 19.1949 12.8276C20.3962 12.8276 20.3962 12.4138 21.5975 12.4138C22.7988 12.4138 22.7988 12.8276 24.0001 12.8276V14.069Z" fill="#41479B"/>
<path d="M24.0001 19.0345C22.7987 19.0345 22.7987 18.6207 21.5975 18.6207C20.3961 18.6207 20.3961 19.0345 19.1949 19.0345C17.9943 19.0345 17.9943 18.6207 16.7939 18.6207C15.5944 18.6207 15.5944 19.0345 14.3949 19.0345C13.1949 19.0345 13.1949 18.6207 11.9948 18.6207C10.7949 18.6207 10.7949 19.0345 9.59518 19.0345C8.39542 19.0345 8.39537 18.6207 7.19565 18.6207C5.99593 18.6207 5.99584 19.0345 4.79607 19.0345C3.59678 19.0345 3.59678 18.6207 2.39757 18.6207C1.19893 18.6207 1.19893 19.0345 0.000244141 19.0345V17.7931C1.19888 17.7931 1.19888 17.3793 2.39757 17.3793C3.59682 17.3793 3.59682 17.7931 4.79607 17.7931C5.99588 17.7931 5.99588 17.3793 7.19565 17.3793C8.39542 17.3793 8.39546 17.7931 9.59518 17.7931C10.795 17.7931 10.795 17.3793 11.9948 17.3793C13.1949 17.3793 13.1949 17.7931 14.3949 17.7931C15.5944 17.7931 15.5944 17.3793 16.7939 17.3793C17.9944 17.3793 17.9944 17.7931 19.1949 17.7931C20.3962 17.7931 20.3962 17.3793 21.5975 17.3793C22.7988 17.3793 22.7988 17.7931 24.0001 17.7931V19.0345Z" fill="#41479B"/>
<path d="M0.413813 12H11.5862C11.8147 12 12 11.8147 12 11.5862V4.55175C12 4.32328 11.8148 4.13808 11.5864 4.13794H1.79742C0.804703 4.13794 0 4.94274 0 5.93536V11.5862C0 11.8148 0.185297 12 0.413813 12Z" fill="#41479B"/>
<path d="M0.413812 12H1.13255L4.96552 9.48877V12H7.03448V9.48877L10.8674 12H11.5861C11.8147 12 12 11.8147 12 11.5862V11.258L8.71148 9.10346H12V7.03449H8.71144L12 4.87997V4.55175C12 4.32328 11.8148 4.13808 11.5864 4.13794H10.8674L7.03444 6.64917V4.13794H4.96547V6.64917L1.25831 4.22035C0.825469 4.35628 0.463594 4.65174 0.240516 5.03756L3.28852 7.03449H0V9.10346H3.28852L0 11.258V11.5862C0 11.8147 0.185297 12 0.413812 12Z" fill="#F5F5F5"/>
<path d="M12 7.4483H6.62067V4.13794H5.37928V7.4483H0V8.68964H5.37928V12H6.62067V8.68964H12V7.4483Z" fill="#FF4B55"/>
<path d="M0.385742 4.82353L3.79177 7.03449H4.5518L0.684805 4.52433C0.573758 4.61199 0.473398 4.71244 0.385742 4.82353Z" fill="#FF4B55"/>
<path d="M7.79446 7.03449L11.937 4.34546C11.865 4.22363 11.738 4.13794 11.5861 4.13794H11.4966L7.03442 7.03449H7.79446Z" fill="#FF4B55"/>
<path d="M4.19418 9.10345L0.0595703 11.7873C0.130867 11.9121 0.259867 12 0.413898 12H0.491945L4.95421 9.10345H4.19418Z" fill="#FF4B55"/>
<path d="M11.9934 11.6188L8.11838 9.1035H7.3584L11.7587 11.9598C11.8906 11.8986 11.9809 11.7704 11.9934 11.6188Z" fill="#FF4B55"/>
<path d="M18.2069 18.1588C18.0487 18.1588 17.9204 18.0305 17.9204 17.8723V8.70581H18.4933V17.8724C18.4934 18.0306 18.3651 18.1588 18.2069 18.1588Z" fill="#965032"/>
<path d="M22.2173 9.85158L21.6444 9.56512L19.535 9.3015L20.8401 7.62351L21.0426 7.01583L20.435 7.21842L18.757 8.52347L18.4934 6.41419L18.2069 5.84123L17.9204 6.41419L17.6568 8.52347L15.9788 7.21842L15.3712 7.01583L15.5737 7.62351L16.8788 9.3015L14.7694 9.56512L14.1965 9.85158L14.7694 10.138L16.8788 10.4017L15.5737 12.0796L15.3712 12.6874L15.9788 12.4848L17.8018 11.067L18.2069 10.4245L18.612 11.067L20.435 12.4848L21.0426 12.6874L20.8401 12.0796L19.535 10.4017L21.6444 10.138L22.2173 9.85158Z" fill="#73AF00"/>
<path d="M19.454 13.1878C19.1965 12.9308 18.6453 13.0253 18.3501 13.0998V12.8594C18.3501 12.7803 18.286 12.7162 18.2069 12.7162C18.1278 12.7162 18.0637 12.7803 18.0637 12.8594V13.0998C17.7686 13.0251 17.2174 12.9306 16.9599 13.1878C16.7143 13.4332 16.8922 14.0249 17.0612 14.4363V14.8172C17.0612 14.9225 17.1465 15.0078 17.2518 15.0078H19.1622C19.2675 15.0078 19.3528 14.9224 19.3528 14.8172V14.4363C19.5216 14.0249 19.6995 13.4332 19.454 13.1878ZM19.2514 13.3904C19.3608 13.4998 19.2383 13.9794 19.041 14.4349H18.3501V13.3957C18.6717 13.3046 19.1122 13.2508 19.2514 13.3904ZM17.1624 13.3904C17.3015 13.2509 17.742 13.3047 18.0637 13.3957V14.4349H17.3728C17.1755 13.9794 17.053 13.4998 17.1624 13.3904Z" fill="#FFE15A"/>
</svg>
