<svg width="24" height="24" viewBox="0 0 24 24" fill="none" xmlns="http://www.w3.org/2000/svg">
<path d="M22.2026 4.13789H1.79742C0.804703 4.13789 0 4.94259 0 5.93531V18.0647C0 19.0574 0.804703 19.8621 1.79742 19.8621H22.2026C23.1952 19.8621 24 19.0574 24 18.0647V5.93531C24 4.94259 23.1953 4.13789 22.2026 4.13789Z" fill="#82C3D2"/>
<path d="M2.78973 6.02095C2.75227 5.86242 2.74295 5.80392 2.8141 5.73281C2.84879 5.69812 2.84879 5.64192 2.8141 5.60723C2.77941 5.57255 2.72321 5.57255 2.68852 5.60723C2.54452 5.75128 2.57888 5.90076 2.61615 6.05901C2.50262 6.02194 2.38487 6.04945 2.32177 6.12905C2.29046 6.16875 2.2299 6.28012 2.34338 6.45797C2.36977 6.49926 2.42434 6.51141 2.46601 6.48525C2.5074 6.45886 2.51945 6.40387 2.49305 6.36262C2.45049 6.29564 2.44923 6.25434 2.46113 6.23925C2.4752 6.22139 2.51879 6.21197 2.56445 6.22814C2.59393 6.23836 2.66246 6.27375 2.66246 6.38062C2.66246 6.46598 2.62299 6.54422 2.55418 6.59508C2.48523 6.64608 2.39598 6.66047 2.30996 6.63375C2.20374 6.60131 2.12954 6.48942 2.12954 6.36159C2.12954 6.27014 2.14913 6.1777 2.18513 6.0967C2.19085 6.08475 2.3266 5.80355 2.36157 5.69873C2.43071 5.4914 2.36045 5.38715 2.31249 5.34361C2.24832 5.28515 2.15452 5.27058 2.0738 5.30597C2.06152 5.3114 2.0514 5.31928 2.04076 5.32659C2.03012 5.31923 2.01995 5.3114 2.00771 5.30597C1.92704 5.27058 1.83329 5.28511 1.76902 5.34361C1.72107 5.38715 1.6508 5.49145 1.71995 5.69873C1.75491 5.80355 1.89062 6.08475 1.89516 6.09412C1.93234 6.17775 1.95198 6.27019 1.95198 6.36164C1.95198 6.48951 1.87782 6.60136 1.77155 6.6338C1.68521 6.66047 1.59624 6.64626 1.52734 6.59512C1.45852 6.54426 1.41905 6.46608 1.41905 6.38067C1.41905 6.2738 1.48759 6.23845 1.51707 6.22819C1.56287 6.21206 1.60623 6.22139 1.62038 6.2393C1.63229 6.25439 1.63102 6.29569 1.58846 6.36267C1.56207 6.40397 1.57412 6.459 1.61551 6.4853C1.65723 6.51169 1.71198 6.49936 1.73813 6.45801C1.85162 6.28017 1.79105 6.16884 1.75974 6.12909C1.6966 6.0495 1.5789 6.02194 1.46537 6.05906C1.50268 5.90086 1.53699 5.75128 1.39299 5.60728C1.3583 5.57259 1.3021 5.57259 1.26741 5.60728C1.23273 5.64197 1.23273 5.69817 1.26741 5.73286C1.33852 5.80397 1.32929 5.86242 1.29179 6.021C1.26924 6.11601 1.2413 6.23451 1.2413 6.38058C1.2413 6.4778 1.27543 6.5707 1.33295 6.64706H1.33009C1.28101 6.64706 1.24126 6.68676 1.24126 6.73589C1.24126 6.78501 1.28096 6.82472 1.33009 6.82472H1.33295C1.27543 6.90103 1.2413 6.99398 1.2413 7.09115C1.2413 7.23722 1.26924 7.35572 1.2917 7.45078C1.32915 7.60936 1.33848 7.66781 1.26732 7.73892C1.23263 7.77361 1.23263 7.82981 1.26732 7.8645C1.28466 7.88184 1.3074 7.89051 1.33013 7.89051C1.35282 7.89051 1.3756 7.88184 1.39295 7.8645C1.53695 7.72045 1.50259 7.57092 1.46532 7.41272C1.57885 7.44965 1.6966 7.42228 1.7597 7.34269C1.79101 7.30298 1.85157 7.19161 1.73809 7.01376C1.71179 6.97247 1.6569 6.96019 1.61546 6.98648C1.57407 7.01287 1.56202 7.06786 1.58841 7.10911C1.63098 7.17609 1.63224 7.21739 1.62034 7.23248C1.60623 7.25015 1.56282 7.25953 1.51702 7.24359C1.48754 7.23337 1.41901 7.19798 1.41901 7.09111C1.41901 7.00575 1.45848 6.92751 1.52729 6.8767C1.59624 6.8257 1.6854 6.81112 1.77151 6.83803C1.87773 6.87047 1.95193 6.98236 1.95193 7.11019C1.95193 7.20164 1.93234 7.29408 1.89512 7.3777L1.31335 8.68645C1.26554 8.79403 1.24126 8.90836 1.24126 9.02611C1.24126 9.17766 1.31016 9.31603 1.41863 9.4005C1.31021 9.48497 1.24126 9.62334 1.24126 9.77489C1.24126 9.89269 1.26559 10.007 1.31335 10.1145L1.89502 11.4232C1.9322 11.5069 1.95184 11.5993 1.95184 11.6908C1.95184 11.8186 1.87768 11.9305 1.77141 11.9629C1.68507 11.9898 1.5961 11.9754 1.5272 11.9242C1.45838 11.8734 1.41891 11.7952 1.41891 11.7098C1.41891 11.603 1.48745 11.5676 1.51693 11.5574C1.56273 11.5414 1.60609 11.5506 1.62024 11.5685C1.63215 11.5836 1.63088 11.6249 1.58832 11.6918C1.56193 11.7331 1.57398 11.7881 1.61537 11.8145C1.65709 11.8409 1.71184 11.8287 1.73799 11.7872C1.85148 11.6093 1.79091 11.498 1.7596 11.4583C1.69646 11.3786 1.57876 11.3512 1.46523 11.3882C1.50254 11.23 1.53685 11.0805 1.39285 10.9365C1.35816 10.9018 1.30196 10.9018 1.26727 10.9365C1.23259 10.9711 1.23259 11.0273 1.26727 11.062C1.33838 11.1331 1.32915 11.1916 1.29165 11.3502C1.2692 11.4451 1.24126 11.5636 1.24126 11.7097C1.24126 11.8069 1.27538 11.8998 1.3329 11.9762H1.33004C1.28096 11.9762 1.24121 12.0159 1.24121 12.065C1.24121 12.1141 1.28091 12.1538 1.33004 12.1538H1.3329C1.27538 12.2302 1.24126 12.3231 1.24126 12.4203C1.24126 12.5664 1.2692 12.6849 1.29165 12.78C1.3291 12.9385 1.33843 12.997 1.26727 13.0681C1.23259 13.1028 1.23259 13.159 1.26727 13.1937C1.28462 13.211 1.30735 13.2197 1.33009 13.2197C1.35277 13.2197 1.37555 13.211 1.3929 13.1937C1.5369 13.0496 1.50254 12.9001 1.46527 12.7419C1.5788 12.7788 1.69655 12.7515 1.75965 12.6719C1.79096 12.6322 1.85152 12.5208 1.73804 12.3429C1.71174 12.3016 1.65685 12.2894 1.61541 12.3157C1.57402 12.342 1.56198 12.397 1.58837 12.4383C1.63093 12.5053 1.6322 12.5466 1.62029 12.5617C1.60618 12.5795 1.56277 12.5888 1.51698 12.5728C1.48749 12.5625 1.41896 12.5272 1.41896 12.4203C1.41896 12.3349 1.45843 12.2567 1.52724 12.2059C1.5962 12.1549 1.68535 12.1403 1.77146 12.1672C1.87768 12.1996 1.95188 12.3115 1.95188 12.4394C1.95188 12.5308 1.93229 12.6232 1.89507 12.7069L1.31335 14.0158C1.26554 14.1233 1.24126 14.2377 1.24126 14.3555C1.24126 14.507 1.31016 14.6454 1.41863 14.7299C1.31021 14.8143 1.24126 14.9527 1.24126 15.1042C1.24126 15.222 1.26559 15.3364 1.31335 15.4439L1.89502 16.7526C1.9322 16.8362 1.95184 16.9287 1.95184 17.0201C1.95184 17.148 1.87768 17.2599 1.77141 17.2923C1.68507 17.3192 1.5961 17.3046 1.5272 17.2536C1.45838 17.2027 1.41891 17.1246 1.41891 17.0392C1.41891 16.9323 1.48745 16.897 1.51693 16.8867C1.56273 16.8707 1.60609 16.8799 1.62024 16.8978C1.63215 16.9129 1.63088 16.9542 1.58832 17.0212C1.56193 17.0625 1.57398 17.1175 1.61537 17.1438C1.65709 17.1702 1.71184 17.158 1.73799 17.1165C1.85148 16.9387 1.79091 16.8274 1.7596 16.7876C1.69646 16.7078 1.57876 16.6805 1.46523 16.7176C1.50254 16.5594 1.53685 16.4098 1.39285 16.2658C1.35816 16.2311 1.30196 16.2311 1.26727 16.2658C1.23259 16.3005 1.23259 16.3567 1.26727 16.3914C1.33838 16.4625 1.32915 16.521 1.29165 16.6795C1.2692 16.7745 1.24126 16.893 1.24126 17.039C1.24126 17.1782 1.30796 17.3108 1.41948 17.3943C1.30796 17.4779 1.24126 17.6104 1.24126 17.7496C1.24126 17.8957 1.2692 18.0142 1.29165 18.1093C1.3291 18.2678 1.33843 18.3263 1.26727 18.3974C1.23259 18.4321 1.23259 18.4883 1.26727 18.523C1.28462 18.5403 1.30735 18.549 1.33009 18.549C1.35277 18.549 1.37555 18.5403 1.3929 18.523C1.5369 18.3789 1.50254 18.2294 1.46527 18.0712C1.5788 18.1081 1.69655 18.0807 1.75965 18.0011C1.79096 17.9614 1.85152 17.85 1.73804 17.6722C1.71174 17.6309 1.65685 17.6188 1.61541 17.6449C1.57402 17.6713 1.56198 17.7263 1.58837 17.7675C1.63093 17.8345 1.6322 17.8758 1.62029 17.8909C1.60618 17.9088 1.56277 17.918 1.51698 17.902C1.48749 17.8918 1.41896 17.8564 1.41896 17.7495C1.41896 17.6642 1.45843 17.586 1.52724 17.5351C1.5962 17.4841 1.68535 17.4697 1.77146 17.4964C1.87768 17.5289 1.95188 17.6407 1.95188 17.7686C1.95188 17.86 1.93229 17.9525 1.89629 18.0335C1.89057 18.0454 1.75482 18.3266 1.71985 18.4314C1.65071 18.6388 1.72098 18.743 1.76893 18.7866C1.80995 18.8239 1.86277 18.8435 1.91677 18.8435C1.94738 18.8435 1.97841 18.837 2.00766 18.8242C2.01995 18.8188 2.03007 18.8109 2.04071 18.8036C2.05135 18.811 2.06152 18.8188 2.07376 18.8242C2.10296 18.8371 2.13409 18.8435 2.16465 18.8435C2.21851 18.8435 2.27143 18.8239 2.31249 18.7866C2.36045 18.743 2.43071 18.6387 2.36157 18.4314C2.3266 18.3266 2.1909 18.0455 2.18635 18.036C2.14918 17.9524 2.12954 17.86 2.12954 17.7685C2.12954 17.6407 2.2037 17.5288 2.30996 17.4964C2.39635 17.4697 2.48527 17.484 2.55418 17.535C2.62299 17.5859 2.66246 17.6641 2.66246 17.7495C2.66246 17.8564 2.59393 17.8917 2.56445 17.902C2.51884 17.918 2.47515 17.9088 2.46113 17.8909C2.44923 17.8758 2.45049 17.8345 2.49305 17.7675C2.51945 17.7262 2.5074 17.6713 2.46601 17.6449C2.42452 17.6189 2.36982 17.631 2.34338 17.6722C2.2299 17.85 2.29046 17.9613 2.32177 18.0011C2.38491 18.0807 2.50262 18.1081 2.61615 18.0711C2.57884 18.2293 2.54452 18.3789 2.68852 18.5229C2.70587 18.5403 2.7286 18.549 2.75134 18.549C2.77407 18.549 2.7968 18.5403 2.81415 18.5229C2.84884 18.4882 2.84884 18.432 2.81415 18.3974C2.74304 18.3262 2.75227 18.2678 2.78977 18.1092C2.81223 18.0142 2.84016 17.8957 2.84016 17.7496C2.84016 17.6104 2.77346 17.4778 2.66199 17.3943C2.77346 17.3107 2.84016 17.1782 2.84016 17.039C2.84016 16.8929 2.81223 16.7744 2.78977 16.6793C2.75232 16.5208 2.74299 16.4623 2.81415 16.3912C2.84884 16.3565 2.84884 16.3003 2.81415 16.2656C2.77946 16.2309 2.72326 16.2309 2.68857 16.2656C2.54457 16.4097 2.57893 16.5592 2.6162 16.7174C2.50266 16.6803 2.38491 16.7076 2.32182 16.7874C2.29051 16.8271 2.22995 16.9385 2.34343 17.1164C2.36982 17.1577 2.42438 17.1698 2.46605 17.1436C2.50745 17.1172 2.51949 17.0623 2.4931 17.021C2.45054 16.954 2.44927 16.9127 2.46118 16.8976C2.47524 16.8798 2.51884 16.8706 2.56449 16.8865C2.59398 16.8967 2.66251 16.9321 2.66251 17.039C2.66251 17.1244 2.62304 17.2026 2.55423 17.2534C2.48527 17.3044 2.39602 17.319 2.31001 17.2921C2.20379 17.2597 2.12959 17.1478 2.12959 17.0199C2.12959 16.9285 2.14918 16.836 2.1864 16.7524L2.76807 15.4437C2.81588 15.3362 2.84016 15.2218 2.84016 15.1041C2.84016 14.9525 2.77126 14.8141 2.66279 14.7297C2.77126 14.6452 2.84016 14.5068 2.84016 14.3553C2.84016 14.2375 2.81584 14.1232 2.76807 14.0156L2.1864 12.7069C2.14923 12.6233 2.12959 12.5309 2.12959 12.4394C2.12959 12.3115 2.20374 12.1997 2.31001 12.1672C2.3964 12.1406 2.48532 12.1549 2.55423 12.2059C2.62304 12.2568 2.66251 12.335 2.66251 12.4203C2.66251 12.5272 2.59398 12.5625 2.56449 12.5728C2.51888 12.5889 2.4752 12.5796 2.46118 12.5617C2.44927 12.5466 2.45054 12.5053 2.4931 12.4383C2.51949 12.397 2.50745 12.342 2.46605 12.3157C2.42457 12.2897 2.36987 12.3018 2.34343 12.343C2.22995 12.5208 2.29051 12.6322 2.32182 12.6719C2.38496 12.7515 2.50266 12.7789 2.6162 12.7419C2.57888 12.9001 2.54457 13.0497 2.68857 13.1937C2.70591 13.2111 2.72865 13.2197 2.75138 13.2197C2.77412 13.2197 2.79685 13.2111 2.8142 13.1937C2.84888 13.159 2.84888 13.1028 2.8142 13.0681C2.74309 12.997 2.75232 12.9386 2.78982 12.78C2.81227 12.6849 2.84021 12.5664 2.84021 12.4204C2.84021 12.3232 2.80609 12.2302 2.74857 12.1539H2.75143C2.80051 12.1539 2.84026 12.1142 2.84026 12.0651C2.84026 12.016 2.80055 11.9762 2.75143 11.9762H2.74857C2.80609 11.8999 2.84021 11.807 2.84021 11.7097C2.84021 11.5637 2.81227 11.4452 2.78982 11.3501C2.75237 11.1915 2.74304 11.1331 2.8142 11.062C2.84888 11.0273 2.84888 10.9711 2.8142 10.9364C2.77951 10.9017 2.7233 10.9017 2.68862 10.9364C2.54462 11.0805 2.57898 11.23 2.61624 11.3882C2.50271 11.3512 2.38496 11.3786 2.32187 11.4582C2.29055 11.4979 2.22999 11.6093 2.34348 11.7871C2.36987 11.8284 2.42443 11.8404 2.4661 11.8144C2.50749 11.788 2.51954 11.733 2.49315 11.6918C2.45059 11.6248 2.44932 11.5835 2.46123 11.5684C2.47529 11.5506 2.51888 11.5414 2.56454 11.5573C2.59402 11.5675 2.66255 11.6029 2.66255 11.7098C2.66255 11.7952 2.62309 11.8734 2.55427 11.9242C2.48532 11.9752 2.39607 11.9896 2.31005 11.9629C2.20384 11.9304 2.12963 11.8185 2.12963 11.6907C2.12963 11.5993 2.14923 11.5068 2.18645 11.4232L2.76812 10.1145C2.81593 10.007 2.84021 9.89259 2.84021 9.77484C2.84021 9.6233 2.7713 9.48492 2.66284 9.40045C2.7713 9.31603 2.84021 9.17761 2.84021 9.02606C2.84021 8.90826 2.81588 8.79394 2.76812 8.6864L2.18645 7.3777C2.14927 7.29408 2.12963 7.20164 2.12963 7.11019C2.12963 6.98231 2.20379 6.87047 2.31005 6.83803C2.39645 6.81136 2.48537 6.8257 2.55427 6.8767C2.62309 6.92756 2.66255 7.00575 2.66255 7.09111C2.66255 7.19798 2.59402 7.23333 2.56454 7.24359C2.51893 7.25958 2.47524 7.2502 2.46123 7.23248C2.44932 7.21739 2.45059 7.17609 2.49315 7.10911C2.51954 7.06781 2.50749 7.01283 2.4661 6.98648C2.42462 6.96047 2.36991 6.97242 2.34348 7.01372C2.22999 7.19156 2.29055 7.30289 2.32187 7.34264C2.38501 7.42223 2.50271 7.44965 2.61624 7.41267C2.57893 7.57087 2.54462 7.72045 2.68862 7.86445C2.70596 7.8818 2.7287 7.89047 2.75143 7.89047C2.77412 7.89047 2.7969 7.8818 2.81424 7.86445C2.84893 7.82976 2.84893 7.77356 2.81424 7.73887C2.74313 7.66776 2.75237 7.60931 2.78987 7.45073C2.81232 7.35567 2.84026 7.23717 2.84026 7.09111C2.84026 6.99389 2.80613 6.90098 2.74862 6.82462H2.75148C2.80055 6.82462 2.8403 6.78492 2.8403 6.7358C2.8403 6.68667 2.8006 6.64697 2.75148 6.64697H2.74862C2.80613 6.57061 2.84026 6.47775 2.84026 6.38048C2.84007 6.23451 2.81213 6.11601 2.78973 6.02095ZM1.88832 5.64239C1.85677 5.5477 1.86779 5.49375 1.8886 5.47481C1.9022 5.46197 1.92282 5.46248 1.9359 5.46839C1.95193 5.47547 1.95193 5.48676 1.95193 5.49234C1.95193 5.54142 1.99163 5.58117 2.04076 5.58117C2.08984 5.58117 2.12959 5.54147 2.12959 5.49234C2.12959 5.48681 2.12959 5.47551 2.14562 5.46839C2.15846 5.46248 2.17895 5.46197 2.19291 5.47481C2.21377 5.49375 2.22479 5.5477 2.1932 5.64239C2.17023 5.71106 2.08712 5.88984 2.0408 5.98687C1.99543 5.89209 1.91143 5.71153 1.88832 5.64239ZM2.04071 9.30736C2.06621 9.342 2.09504 9.37425 2.1301 9.4005C2.09504 9.4268 2.06621 9.459 2.04071 9.49364C2.01521 9.459 1.98638 9.42675 1.95132 9.4005C1.98638 9.37416 2.01521 9.342 2.04071 9.30736ZM2.04071 14.6366C2.06621 14.6712 2.09504 14.7035 2.1301 14.7297C2.09504 14.756 2.06621 14.7882 2.04071 14.8229C2.01521 14.7882 1.98638 14.756 1.95132 14.7297C1.98638 14.7035 2.01521 14.6714 2.04071 14.6366ZM2.1931 18.4879C2.22465 18.5826 2.21363 18.6366 2.19282 18.6555C2.17885 18.6682 2.15837 18.6676 2.14552 18.6619C2.12949 18.6548 2.12949 18.6435 2.12949 18.638C2.12949 18.5889 2.08979 18.5491 2.04066 18.5491C1.99154 18.5491 1.95184 18.5888 1.95184 18.638C1.95184 18.6435 1.95184 18.6548 1.9358 18.6619C1.92277 18.6676 1.90215 18.6682 1.88851 18.6555C1.86765 18.6366 1.85668 18.5826 1.88823 18.4879C1.9112 18.4192 1.9943 18.2405 2.04062 18.1434C2.08595 18.2382 2.16995 18.4187 2.1931 18.4879ZM2.12926 17.3944C2.09565 17.4206 2.06584 17.4519 2.04071 17.4873C2.01563 17.4519 1.98577 17.4206 1.95216 17.3944C1.98577 17.3683 2.01559 17.337 2.04071 17.3016C2.06579 17.337 2.09555 17.3683 2.12926 17.3944ZM2.6056 15.3716L2.04066 16.6427L1.47573 15.3716C1.43855 15.288 1.41891 15.1956 1.41891 15.1041C1.41891 14.9762 1.49307 14.8643 1.59934 14.832C1.68563 14.8052 1.77474 14.8196 1.84355 14.8706C1.91237 14.9215 1.95184 14.9997 1.95184 15.0851C1.95184 15.192 1.8833 15.2273 1.85382 15.2376C1.80802 15.2535 1.76448 15.2444 1.75051 15.2265C1.7386 15.2114 1.73987 15.1701 1.78243 15.1031C1.80882 15.0618 1.79677 15.0068 1.75538 14.9805C1.7139 14.9544 1.6592 14.9666 1.63276 15.0077C1.51932 15.1856 1.57984 15.2969 1.61115 15.3367C1.67546 15.4178 1.79645 15.4458 1.91213 15.4053C1.9253 15.4007 1.93866 15.3951 1.95184 15.3884V15.613C1.95184 15.6129 1.9517 15.6128 1.9517 15.6128C1.94902 15.5661 1.9103 15.5292 1.86305 15.5292C1.81398 15.5292 1.77423 15.5689 1.77423 15.618C1.77423 15.6759 1.81473 15.7764 1.95188 15.8076V15.9733C1.95188 16.0223 1.99159 16.0621 2.04071 16.0621C2.08979 16.0621 2.12954 16.0224 2.12954 15.9733V15.8076C2.26665 15.7764 2.3072 15.6759 2.3072 15.618C2.3072 15.5689 2.26759 15.5263 2.21855 15.5263C2.16948 15.5263 2.12991 15.5631 2.12991 15.6121C2.12987 15.6123 2.12959 15.6125 2.12954 15.6127V15.3885C2.14271 15.3952 2.15607 15.4008 2.16924 15.4054C2.28493 15.4458 2.40587 15.4179 2.47023 15.3367C2.50154 15.297 2.5621 15.1857 2.44862 15.0078C2.42223 14.9665 2.36743 14.9544 2.32599 14.9805C2.2846 15.0069 2.27255 15.0619 2.29895 15.1032C2.34151 15.1702 2.34277 15.2115 2.33087 15.2265C2.3168 15.2444 2.2733 15.2536 2.22755 15.2377C2.19807 15.2274 2.12954 15.192 2.12954 15.0852C2.12954 14.9998 2.16901 14.9216 2.23782 14.8707C2.30677 14.8197 2.39602 14.8051 2.48204 14.832C2.58826 14.8645 2.66246 14.9764 2.66246 15.1042C2.66246 15.1956 2.64287 15.2881 2.6056 15.3716ZM2.6056 14.0879C2.64277 14.1715 2.66241 14.264 2.66241 14.3554C2.66241 14.4833 2.58826 14.5951 2.48199 14.6276C2.39579 14.6545 2.30659 14.6399 2.23777 14.5889C2.16896 14.538 2.12949 14.4599 2.12949 14.3745C2.12949 14.2676 2.19802 14.2323 2.22751 14.222C2.27321 14.206 2.3168 14.2152 2.33082 14.2331C2.34273 14.2482 2.34146 14.2895 2.2989 14.3565C2.27251 14.3978 2.28455 14.4527 2.32595 14.4791C2.36766 14.5055 2.42241 14.4933 2.44857 14.4518C2.56205 14.274 2.50149 14.1627 2.47018 14.1229C2.40582 14.0417 2.28488 14.0141 2.1692 14.0542C2.15602 14.0588 2.14266 14.0645 2.12949 14.0712V13.8465L2.12963 13.8468C2.1323 13.8934 2.17102 13.9304 2.21827 13.9304C2.26735 13.9304 2.3071 13.8907 2.3071 13.8416C2.3071 13.7836 2.2666 13.6831 2.12945 13.652V13.4863C2.12945 13.4372 2.08974 13.3975 2.04062 13.3975C1.99154 13.3975 1.95179 13.4372 1.95179 13.4863V13.652C1.81468 13.6831 1.77413 13.7836 1.77413 13.8416C1.77413 13.8907 1.81374 13.9333 1.86277 13.9333C1.91185 13.9333 1.95141 13.8965 1.95141 13.8474C1.95146 13.8473 1.95174 13.8471 1.95174 13.8471L1.95179 14.0711C1.93862 14.0645 1.92526 14.0587 1.91209 14.0542C1.7964 14.0141 1.67541 14.0417 1.6111 14.1229C1.57979 14.1626 1.51923 14.274 1.63271 14.4518C1.6591 14.4931 1.7139 14.5051 1.75534 14.4791C1.79673 14.4527 1.80877 14.3977 1.78238 14.3565C1.73982 14.2895 1.73855 14.2482 1.75046 14.2331C1.76443 14.2152 1.80798 14.206 1.85377 14.222C1.88326 14.2322 1.95179 14.2676 1.95179 14.3745C1.95179 14.4598 1.91232 14.538 1.84351 14.5889C1.77455 14.6399 1.68549 14.6544 1.59929 14.6275C1.49307 14.5951 1.41887 14.4832 1.41887 14.3554C1.41887 14.2639 1.43846 14.1715 1.47568 14.0879L2.04062 12.8168L2.6056 14.0879ZM2.12926 12.0652C2.09565 12.0913 2.06584 12.1226 2.04071 12.158C2.01563 12.1226 1.98577 12.0914 1.95216 12.0652C1.98577 12.039 2.01559 12.0077 2.04071 11.9723C2.06579 12.0077 2.09555 12.039 2.12926 12.0652ZM2.6056 10.0424L2.04066 11.3135L1.47573 10.0424C1.43855 9.95878 1.41891 9.86634 1.41891 9.77489C1.41891 9.64701 1.49307 9.53517 1.59934 9.50273C1.68563 9.47601 1.77474 9.49041 1.84355 9.54141C1.91237 9.59226 1.95184 9.67045 1.95184 9.75586C1.95184 9.86273 1.8833 9.89808 1.85382 9.90834C1.80802 9.92447 1.76448 9.91514 1.75051 9.89723C1.7386 9.88214 1.73987 9.84084 1.78243 9.77386C1.80882 9.73256 1.79677 9.67762 1.75538 9.65123C1.7139 9.62503 1.6592 9.63717 1.63276 9.67842C1.51932 9.85626 1.57984 9.96759 1.61115 10.0073C1.67546 10.0885 1.79645 10.1163 1.91213 10.076C1.9253 10.0714 1.93866 10.0658 1.95184 10.0591V10.2837L1.9517 10.2834C1.94902 10.2368 1.9103 10.1998 1.86305 10.1998C1.81398 10.1998 1.77423 10.2395 1.77423 10.2886C1.77423 10.3466 1.81473 10.4471 1.95188 10.4782V10.6439C1.95188 10.693 1.99159 10.7327 2.04071 10.7327C2.08979 10.7327 2.12954 10.693 2.12954 10.6439V10.4782C2.26665 10.4471 2.3072 10.3466 2.3072 10.2886C2.3072 10.2396 2.26759 10.1969 2.21855 10.1969C2.16948 10.1969 2.12991 10.2337 2.12991 10.2827C2.12987 10.2829 2.12959 10.2831 2.12959 10.2831L2.12954 10.059C2.14271 10.0657 2.15607 10.0714 2.16924 10.076C2.28493 10.1162 2.40587 10.0885 2.47023 10.0073C2.50154 9.96759 2.5621 9.85622 2.44862 9.67837C2.42223 9.63689 2.36743 9.6248 2.32599 9.65119C2.2846 9.67758 2.27255 9.73256 2.29895 9.77381C2.34151 9.8408 2.34277 9.88209 2.33087 9.89719C2.3168 9.91505 2.2733 9.92447 2.22755 9.9083C2.19807 9.89808 2.12954 9.86269 2.12954 9.75581C2.12954 9.67045 2.16901 9.59222 2.23782 9.54136C2.30677 9.49036 2.39602 9.47597 2.48204 9.50269C2.58826 9.53512 2.66246 9.64701 2.66246 9.77484C2.66246 9.8663 2.64287 9.95873 2.6056 10.0424ZM2.6056 8.75859C2.64277 8.84222 2.66241 8.93466 2.66241 9.02611C2.66241 9.15398 2.58826 9.26583 2.48199 9.29826C2.39579 9.32517 2.30659 9.31059 2.23777 9.25959C2.16896 9.20873 2.12949 9.13055 2.12949 9.04514C2.12949 8.93826 2.19802 8.90292 2.22751 8.89266C2.27321 8.87667 2.3168 8.88586 2.33082 8.90376C2.34273 8.91886 2.34146 8.96015 2.2989 9.02714C2.27251 9.06844 2.28455 9.12342 2.32595 9.14976C2.36766 9.17597 2.42241 9.16397 2.44857 9.12253C2.56205 8.94469 2.50149 8.83336 2.47018 8.79361C2.40582 8.71242 2.28488 8.68467 2.1692 8.72494C2.15602 8.72948 2.14266 8.73515 2.12949 8.74186V8.51723C2.12949 8.51728 2.12963 8.51737 2.12963 8.51737C2.1323 8.56415 2.17102 8.60105 2.21827 8.60105C2.26735 8.60105 2.3071 8.56134 2.3071 8.51222C2.3071 8.45428 2.2666 8.35378 2.12945 8.32266V8.15695C2.12945 8.10787 2.08974 8.06812 2.04062 8.06812C1.99154 8.06812 1.95179 8.10783 1.95179 8.15695V8.32266C1.81468 8.35378 1.77413 8.45428 1.77413 8.51222C1.77413 8.5613 1.81374 8.604 1.86277 8.604C1.91185 8.604 1.95141 8.5672 1.95141 8.51812C1.95146 8.51798 1.95174 8.51775 1.95179 8.51761V8.74181C1.93862 8.73511 1.92526 8.72944 1.91209 8.72489C1.7964 8.68467 1.67541 8.71237 1.6111 8.79356C1.57979 8.83326 1.51923 8.94464 1.63271 9.12248C1.6591 9.16378 1.7139 9.17578 1.75534 9.14972C1.79673 9.12333 1.80877 9.06834 1.78238 9.02709C1.73982 8.96011 1.73855 8.91881 1.75046 8.90372C1.76443 8.88586 1.80798 8.87667 1.85377 8.89261C1.88326 8.90283 1.95179 8.93822 1.95179 9.04509C1.95179 9.13045 1.91232 9.20869 1.84351 9.25955C1.77455 9.31055 1.68549 9.32512 1.59929 9.29822C1.49307 9.26578 1.41887 9.15389 1.41887 9.02606C1.41887 8.93461 1.43846 8.84217 1.47568 8.75855L2.04062 7.48748L2.6056 8.75859ZM1.95212 6.73589C1.98573 6.70973 2.01554 6.67842 2.04066 6.64303C2.06574 6.67842 2.09555 6.70969 2.12921 6.73589C2.0956 6.76205 2.06579 6.79336 2.04066 6.82875C2.01559 6.79326 1.98582 6.76195 1.95212 6.73589Z" fill="#FFE15A"/>
<path d="M12.6908 13.1548C13.8714 13.1548 14.8285 12.1976 14.8285 11.017C14.8285 9.83632 13.8714 8.8792 12.6908 8.8792C11.5101 8.8792 10.553 9.83632 10.553 11.017C10.553 12.1976 11.5101 13.1548 12.6908 13.1548Z" fill="#FFE15A"/>
<path d="M12.8515 8.29134C12.8515 8.37989 12.7797 8.4517 12.6911 8.4517C12.6026 8.4517 12.5308 8.37989 12.5308 8.29134C12.5308 8.2028 12.6911 7.81031 12.6911 7.81031C12.6911 7.81031 12.8515 8.2028 12.8515 8.29134Z" fill="#FFE15A"/>
<path d="M12.5308 13.743C12.5308 13.6545 12.6026 13.5827 12.6911 13.5827C12.7797 13.5827 12.8515 13.6545 12.8515 13.743C12.8515 13.8316 12.6911 14.2241 12.6911 14.2241C12.6911 14.2241 12.5308 13.8316 12.5308 13.743Z" fill="#FFE15A"/>
<path d="M15.417 11.1775C15.3284 11.1775 15.2566 11.1057 15.2566 11.0172C15.2566 10.9286 15.3284 10.8568 15.417 10.8568C15.5055 10.8568 15.898 11.0172 15.898 11.0172C15.898 11.0172 15.5055 11.1775 15.417 11.1775Z" fill="#FFE15A"/>
<path d="M9.96541 10.8569C10.054 10.8569 10.1258 10.9287 10.1258 11.0172C10.1258 11.1058 10.054 11.1776 9.96541 11.1776C9.87686 11.1776 9.48438 11.0172 9.48438 11.0172C9.48438 11.0172 9.87686 10.8569 9.96541 10.8569Z" fill="#FFE15A"/>
<path d="M14.732 9.20311C14.6694 9.26573 14.5678 9.26573 14.5052 9.20311C14.4426 9.14048 14.4426 9.03895 14.5052 8.97633C14.5678 8.91375 14.9587 8.74955 14.9587 8.74955C14.9587 8.74955 14.7947 9.14048 14.732 9.20311Z" fill="#FFE15A"/>
<path d="M10.6503 12.8313C10.7129 12.7687 10.8144 12.7687 10.8771 12.8313C10.9398 12.8939 10.9397 12.9954 10.8771 13.0581C10.8145 13.1207 10.4236 13.2848 10.4236 13.2848C10.4236 13.2848 10.5877 12.8939 10.6503 12.8313Z" fill="#FFE15A"/>
<path d="M14.5052 13.058C14.4426 12.9954 14.4426 12.8939 14.5052 12.8312C14.5678 12.7686 14.6693 12.7686 14.732 12.8312C14.7947 12.8939 14.9588 13.2847 14.9588 13.2847C14.9588 13.2847 14.5678 13.1206 14.5052 13.058Z" fill="#FFE15A"/>
<path d="M10.8771 8.97633C10.9398 9.03895 10.9398 9.14044 10.8771 9.20311C10.8145 9.26578 10.713 9.26573 10.6504 9.20311C10.5877 9.14048 10.4236 8.74959 10.4236 8.74959C10.4236 8.74959 10.8145 8.91375 10.8771 8.97633Z" fill="#FFE15A"/>
<path d="M11.7961 8.43745C11.83 8.51929 11.7911 8.61305 11.7093 8.64694C11.6275 8.68083 11.5337 8.64197 11.4998 8.56012C11.4659 8.47828 11.4639 8.05434 11.4639 8.05434C11.4639 8.05434 11.7622 8.35561 11.7961 8.43745Z" fill="#FFE15A"/>
<path d="M13.5862 13.5969C13.5523 13.5151 13.5912 13.4213 13.673 13.3875C13.7549 13.3536 13.8486 13.3924 13.8825 13.4743C13.9164 13.5561 13.9185 13.98 13.9185 13.98C13.9185 13.98 13.6201 13.6788 13.5862 13.5969Z" fill="#FFE15A"/>
<path d="M15.2708 10.1222C15.189 10.1561 15.0952 10.1173 15.0613 10.0354C15.0274 9.95358 15.0663 9.85983 15.1481 9.82594C15.23 9.79205 15.6539 9.78998 15.6539 9.78998C15.6539 9.78998 15.3526 10.0883 15.2708 10.1222Z" fill="#FFE15A"/>
<path d="M10.1114 11.9122C10.1932 11.8783 10.287 11.9171 10.3209 11.999C10.3548 12.0808 10.3159 12.1746 10.2341 12.2085C10.1522 12.2423 9.72827 12.2444 9.72827 12.2444C9.72827 12.2444 10.0295 11.9461 10.1114 11.9122Z" fill="#FFE15A"/>
<path d="M13.8825 8.56017C13.8486 8.64201 13.7548 8.68083 13.673 8.64698C13.5912 8.61309 13.5524 8.51929 13.5862 8.4375C13.6201 8.35565 13.9184 8.05444 13.9184 8.05444C13.9184 8.05444 13.9164 8.47837 13.8825 8.56017Z" fill="#FFE15A"/>
<path d="M11.5 13.4743C11.5339 13.3924 11.6277 13.3536 11.7095 13.3875C11.7913 13.4213 11.8302 13.5151 11.7963 13.5969C11.7624 13.6788 11.4641 13.98 11.4641 13.98C11.4641 13.98 11.4661 13.556 11.5 13.4743Z" fill="#FFE15A"/>
<path d="M15.1481 12.2085C15.0663 12.1746 15.0275 12.0808 15.0613 11.999C15.0952 11.9172 15.189 11.8784 15.2708 11.9122C15.3526 11.9461 15.6538 12.2444 15.6538 12.2444C15.6538 12.2444 15.23 12.2424 15.1481 12.2085Z" fill="#FFE15A"/>
<path d="M10.2343 9.82594C10.3161 9.85983 10.3549 9.95363 10.3211 10.0354C10.2872 10.1173 10.1934 10.1561 10.1116 10.1222C10.0297 10.0883 9.72852 9.79003 9.72852 9.79003C9.72852 9.79003 10.1525 9.792 10.2343 9.82594Z" fill="#FFE15A"/>
<path d="M12.3167 8.31244C12.334 8.3993 12.2776 8.48372 12.1907 8.50097C12.1039 8.51827 12.0194 8.46183 12.0022 8.37497C11.9849 8.28811 12.0656 7.87191 12.0656 7.87191C12.0656 7.87191 12.2994 8.22558 12.3167 8.31244Z" fill="#FFE15A"/>
<path d="M13.0656 13.722C13.0483 13.6351 13.1048 13.5507 13.1916 13.5334C13.2785 13.5161 13.3629 13.5726 13.3801 13.6594C13.3974 13.7463 13.3167 14.1625 13.3167 14.1625C13.3167 14.1625 13.0829 13.8089 13.0656 13.722Z" fill="#FFE15A"/>
<path d="M15.396 10.6427C15.3091 10.66 15.2247 10.6036 15.2075 10.5167C15.1902 10.4298 15.2466 10.3454 15.3335 10.3282C15.4203 10.3109 15.8365 10.3916 15.8365 10.3916C15.8365 10.3916 15.4829 10.6254 15.396 10.6427Z" fill="#FFE15A"/>
<path d="M9.98643 11.3917C10.0733 11.3745 10.1577 11.4308 10.175 11.5177C10.1923 11.6046 10.1358 11.689 10.049 11.7063C9.9621 11.7236 9.5459 11.6429 9.5459 11.6429C9.5459 11.6429 9.89957 11.409 9.98643 11.3917Z" fill="#FFE15A"/>
<path d="M14.3389 8.83983C14.2897 8.91347 14.1901 8.93325 14.1164 8.88403C14.0428 8.83486 14.023 8.73525 14.0722 8.66161C14.1214 8.58801 14.4728 8.35073 14.4728 8.35073C14.4728 8.35073 14.3881 8.76614 14.3389 8.83983Z" fill="#FFE15A"/>
<path d="M11.0433 13.1946C11.0925 13.121 11.1921 13.1011 11.2658 13.1504C11.3394 13.1995 11.3592 13.2991 11.31 13.3728C11.2608 13.4464 10.9094 13.6837 10.9094 13.6837C10.9094 13.6837 10.9942 13.2683 11.0433 13.1946Z" fill="#FFE15A"/>
<path d="M14.8686 12.6649C14.795 12.6157 14.7752 12.5161 14.8244 12.4425C14.8736 12.3689 14.9732 12.3491 15.0468 12.3983C15.1205 12.4475 15.3577 12.7988 15.3577 12.7988C15.3577 12.7988 14.9423 12.7141 14.8686 12.6649Z" fill="#FFE15A"/>
<path d="M10.5138 9.36947C10.5874 9.41864 10.6072 9.51825 10.558 9.59189C10.5088 9.66553 10.4092 9.68531 10.3355 9.63609C10.2619 9.58687 10.0247 9.23555 10.0247 9.23555C10.0247 9.23555 10.4402 9.3203 10.5138 9.36947Z" fill="#FFE15A"/>
<path d="M11.31 8.66161C11.3591 8.73525 11.3394 8.83481 11.2658 8.88403C11.1921 8.9332 11.0926 8.91342 11.0433 8.83983C10.9942 8.76619 10.9094 8.35078 10.9094 8.35078C10.9094 8.35078 11.2608 8.58806 11.31 8.66161Z" fill="#FFE15A"/>
<path d="M14.0722 13.3728C14.023 13.2991 14.0428 13.1996 14.1164 13.1504C14.19 13.1012 14.2896 13.121 14.3388 13.1946C14.388 13.2682 14.4727 13.6836 14.4727 13.6836C14.4727 13.6836 14.1214 13.4464 14.0722 13.3728Z" fill="#FFE15A"/>
<path d="M15.0468 9.63609C14.9732 9.68527 14.8736 9.66548 14.8244 9.59189C14.7752 9.51825 14.795 9.41869 14.8686 9.36947C14.9422 9.3203 15.3576 9.23555 15.3576 9.23555C15.3576 9.23555 15.1205 9.58692 15.0468 9.63609Z" fill="#FFE15A"/>
<path d="M10.3357 12.3983C10.4093 12.3491 10.5089 12.3689 10.5582 12.4425C10.6073 12.5161 10.5875 12.6157 10.5139 12.6649C10.4403 12.7141 10.0249 12.7988 10.0249 12.7988C10.0249 12.7988 10.2621 12.4475 10.3357 12.3983Z" fill="#FFE15A"/>
<path d="M13.3801 8.37502C13.3629 8.46187 13.2785 8.51831 13.1916 8.50101C13.1048 8.48372 13.0483 8.39934 13.0656 8.31248C13.0829 8.22562 13.3167 7.872 13.3167 7.872C13.3167 7.872 13.3974 8.28811 13.3801 8.37502Z" fill="#FFE15A"/>
<path d="M12.0022 13.6594C12.0195 13.5726 12.1038 13.5161 12.1907 13.5334C12.2776 13.5507 12.334 13.6351 12.3167 13.722C12.2994 13.8088 12.0656 14.1624 12.0656 14.1624C12.0656 14.1624 11.9849 13.7463 12.0022 13.6594Z" fill="#FFE15A"/>
<path d="M15.3335 11.7063C15.2466 11.689 15.1902 11.6046 15.2075 11.5177C15.2248 11.4309 15.3091 11.3745 15.396 11.3917C15.4829 11.409 15.8365 11.6429 15.8365 11.6429C15.8365 11.6429 15.4203 11.7235 15.3335 11.7063Z" fill="#FFE15A"/>
<path d="M10.049 10.3281C10.1358 10.3454 10.1923 10.4298 10.175 10.5166C10.1577 10.6035 10.0733 10.6599 9.98643 10.6426C9.89957 10.6253 9.5459 10.3915 9.5459 10.3915C9.5459 10.3915 9.9621 10.3109 10.049 10.3281Z" fill="#FFE15A"/>
<path d="M17.7198 11.5797C17.6572 11.5533 17.5856 11.5835 17.5595 11.6458C17.5595 11.646 17.5595 11.646 17.5595 11.646C17.559 11.6472 17.5566 11.653 17.5524 11.6628C17.4598 11.8793 17.268 12.1957 17.0744 12.4933C17.2548 11.9128 17.4196 11.2928 17.4311 11.2492C17.4483 11.1841 17.4098 11.1173 17.3448 11.0996C17.2797 11.0821 17.2127 11.12 17.1945 11.1848C17.1104 11.4863 16.9383 11.8831 16.7795 12.219C16.8086 11.8445 16.8141 11.4975 16.8145 11.4724C16.8154 11.4061 16.7635 11.3512 16.6971 11.3481C16.6347 11.35 16.5745 11.3955 16.5696 11.4618C16.4126 13.6213 14.3347 14.5873 14.1323 14.6761C14.0265 14.6867 13.5334 14.7422 13.0859 14.8976C13.0351 14.9152 12.992 14.9329 12.9489 14.9505C12.9329 14.9445 12.9158 14.9411 12.8977 14.9422C11.5242 15.0415 10.429 14.4781 9.6419 13.271C9.04719 12.3589 8.86068 11.4015 8.85885 11.3919C8.84629 11.3254 8.78254 11.2825 8.71569 11.2942C8.64913 11.3069 8.6054 11.3708 8.61801 11.4374C8.62298 11.4638 8.70482 11.8817 8.93019 12.4317C8.62865 11.9557 8.41851 11.379 8.34454 11.0787C8.34304 11.0727 8.33919 11.0682 8.33694 11.0626C8.33352 11.0542 8.33057 11.0456 8.32546 11.0383C8.32185 11.0331 8.31712 11.0293 8.31285 11.0247C8.30615 11.0176 8.29973 11.0107 8.29152 11.0054C8.28684 11.0024 8.28159 11.0009 8.27648 10.9985C8.26743 10.9942 8.25857 10.9901 8.24849 10.9882C8.24151 10.9869 8.23438 10.9878 8.22712 10.9876C8.21976 10.9875 8.21282 10.9857 8.20532 10.987C8.20368 10.9873 8.20241 10.9884 8.20077 10.9888C8.19918 10.9891 8.19768 10.9886 8.19609 10.9889C8.18952 10.9905 8.18451 10.9946 8.17851 10.9972C8.17087 11.0005 8.16304 11.003 8.15634 11.0077C8.14973 11.0122 8.1448 11.0181 8.13932 11.0238C8.13384 11.0294 8.12812 11.0344 8.1238 11.0409C8.11944 11.0475 8.1171 11.055 8.11401 11.0623C8.11105 11.0695 8.10763 11.0762 8.10609 11.084C8.10449 11.0919 8.10519 11.1 8.10524 11.1083C8.10524 11.115 8.10341 11.1213 8.10458 11.128C8.10505 11.1309 8.10599 11.1338 8.10651 11.1367V11.1371C8.10665 11.1376 8.10684 11.1383 8.10698 11.1389C8.18282 11.5858 8.36357 12.049 8.52702 12.4022C8.26748 12.1077 8.05059 11.7683 7.97371 11.5674C7.97151 11.5616 7.96705 11.5575 7.96405 11.5522C7.95951 11.5441 7.95552 11.5358 7.94938 11.5291C7.94502 11.5244 7.93973 11.5213 7.93476 11.5173C7.9273 11.5113 7.92023 11.5052 7.9116 11.5011C7.90607 11.4985 7.90007 11.4976 7.89421 11.4958C7.88516 11.4931 7.8764 11.4901 7.86679 11.4895C7.85924 11.489 7.85174 11.4909 7.8441 11.4919C7.83702 11.4928 7.83004 11.4919 7.82301 11.4941C7.82165 11.4945 7.82071 11.4956 7.81944 11.496C7.81813 11.4965 7.81682 11.4962 7.81551 11.4967C7.80885 11.4992 7.80412 11.5042 7.79816 11.5077C7.79118 11.5118 7.78373 11.5152 7.77777 11.5206C7.77168 11.526 7.76746 11.5328 7.76268 11.5394C7.75813 11.5455 7.75307 11.551 7.74969 11.5578C7.74618 11.565 7.74487 11.5728 7.74285 11.5805C7.74084 11.5881 7.73816 11.5951 7.73765 11.603C7.73709 11.6109 7.73905 11.6189 7.74009 11.6269C7.74098 11.6338 7.74004 11.6407 7.74219 11.6475C7.8756 12.0779 8.19641 12.5898 8.44776 12.9505C8.23832 12.7891 8.08438 12.6145 8.03971 12.5618C8.03488 12.5561 8.03015 12.5504 8.02532 12.5446C7.9821 12.4927 7.90569 12.4852 7.85338 12.5276C7.80121 12.5702 7.79301 12.6469 7.83519 12.6993C7.83749 12.7022 7.84668 12.7137 7.86201 12.7316C8.04594 12.9505 8.24634 13.1548 8.42788 13.3272L8.17954 13.2213C8.12291 13.1969 8.05635 13.2189 8.02532 13.2728C7.99434 13.3267 8.0083 13.3949 8.05799 13.4323C8.08213 13.4502 8.52196 13.7788 8.90268 13.9729C8.86677 13.9751 8.82463 13.9725 8.77748 13.9688C8.71991 13.9633 8.66329 14.0045 8.64927 14.0629C8.63549 14.1216 8.66615 14.1815 8.72184 14.2044C8.73121 14.2083 8.84723 14.2561 8.99048 14.3071C8.95705 14.3208 8.93048 14.3488 8.91946 14.3852C8.90296 14.4396 8.92616 14.4985 8.97548 14.5267C8.98832 14.5342 9.16166 14.6335 9.37607 14.7216C9.37035 14.7305 9.36566 14.7401 9.36219 14.7506C9.34541 14.802 9.36459 14.8586 9.40926 14.8895C9.44648 14.9151 10.2792 15.4802 11.2518 15.4802C11.3156 15.4802 11.3801 15.4778 11.445 15.4725C11.5124 15.4672 11.5628 15.4081 11.5574 15.3406C11.5521 15.273 11.4935 15.222 11.4254 15.2283C10.8144 15.2781 10.2258 15.0487 9.87576 14.8734C9.92198 14.8621 9.94855 14.8518 9.95516 14.8492C10.0092 14.8272 10.0403 14.7704 10.0297 14.7132C10.0192 14.6559 9.96988 14.614 9.91157 14.6128C9.76944 14.6099 9.57262 14.5407 9.40307 14.4665C9.4671 14.4344 9.50451 14.4037 9.50779 14.4011C9.54468 14.3702 9.56024 14.3209 9.54768 14.2744C9.53502 14.2282 9.4964 14.1935 9.44905 14.1858C9.39698 14.1772 9.3321 14.1604 9.26409 14.1398C9.33018 14.1018 9.3583 14.0599 9.36909 14.0385C9.3861 14.0046 9.38648 13.9648 9.37016 13.9305C9.35376 13.8963 9.32254 13.8716 9.28537 13.8637C9.2533 13.8568 9.21698 13.845 9.17774 13.8297C9.18491 13.8225 9.19152 13.8144 9.19687 13.8051C9.22809 13.7521 9.21519 13.6841 9.16673 13.6461C9.16419 13.6441 9.06904 13.5694 8.92494 13.4452C8.94782 13.4368 8.96802 13.4212 8.98265 13.4002C9.01354 13.3556 9.01134 13.296 8.97749 13.2538C8.97477 13.2504 8.87948 13.1306 8.74813 12.9487C8.79149 12.9823 8.8348 13.0167 8.87812 13.0446C8.89851 13.0575 8.92157 13.064 8.94444 13.064C8.97548 13.064 9.00608 13.0522 9.02966 13.0295C9.03937 13.0201 9.04696 13.0093 9.05296 12.9978C9.12735 13.0773 9.20549 13.1494 9.28757 13.211C9.29826 13.219 9.31124 13.2188 9.32324 13.2229C9.35802 13.2812 9.39421 13.3396 9.43218 13.398C10.1767 14.5435 11.2265 15.1571 12.4855 15.194C12.3696 15.2644 12.2437 15.3371 12.0445 15.4147C12.001 15.4317 11.9625 15.4487 11.9239 15.4657C11.9053 15.4694 11.8878 15.4761 11.8731 15.4877C11.5253 15.6487 11.3813 15.8078 11.3229 15.9191C11.2646 16.0297 11.3149 16.1432 11.3861 16.2021C11.4082 16.2203 11.4364 16.2296 11.4646 16.2296C11.484 16.2296 11.5034 16.2253 11.521 16.2165C11.5644 16.1949 11.5934 16.1491 11.5914 16.101C11.5964 16.0955 11.6178 16.0778 11.6846 16.0756C11.7333 16.0716 11.8358 16.0826 11.9554 16.0922C12.0692 16.1016 12.2057 16.1122 12.3509 16.1197C12.2601 16.2255 12.1545 16.3482 12.1545 16.3482C12.1229 16.3851 12.1159 16.4372 12.137 16.4811C12.1581 16.5251 12.2038 16.5525 12.2517 16.5507C12.3486 16.5473 12.4144 16.5454 12.4576 16.5445C12.4953 16.5939 12.5415 16.6135 12.5713 16.6211C12.6556 16.6427 12.7396 16.6089 12.803 16.569C12.8509 16.6035 12.8988 16.618 12.9367 16.6235C13.0223 16.6352 13.1016 16.6103 13.1589 16.5821C13.2183 16.6204 13.2765 16.6302 13.3208 16.6302C13.3214 16.6302 13.3222 16.6302 13.3229 16.6302C13.4185 16.6297 13.5022 16.5835 13.5614 16.5382C13.6138 16.5694 13.6638 16.5794 13.7025 16.5811C13.7903 16.5842 13.863 16.5505 13.9114 16.5188C14.0842 16.5535 14.2331 16.4722 14.3316 16.3823C14.3765 16.4085 14.4192 16.4149 14.4532 16.4132C14.5407 16.4101 14.6074 16.3569 14.6502 16.3093C14.8461 16.333 14.9866 16.2968 15.0679 16.2004C15.1122 16.1479 15.1302 16.0888 15.135 16.0349C15.6785 16.0318 15.7277 15.7351 15.7317 15.6984C15.7352 15.6652 15.7251 15.6319 15.7034 15.6063C15.6819 15.5807 15.6506 15.5648 15.6172 15.5629L14.1924 15.4772C14.1328 15.4729 14.0796 15.5129 14.0658 15.5711C14.0655 15.5721 14.0413 15.6626 13.9652 15.735C13.863 15.8326 13.6983 15.8842 13.5192 15.9115C13.5198 15.8951 13.5175 15.8784 13.5112 15.8621C13.4868 15.7989 13.4157 15.7682 13.3527 15.7919C13.0586 15.906 12.5823 15.8917 12.2098 15.8658C12.2669 15.8191 12.3357 15.7728 12.3907 15.7426C12.4371 15.717 12.4621 15.6646 12.4522 15.6124C12.4451 15.5745 12.4177 15.5481 12.3846 15.5311C12.4882 15.4788 12.5732 15.4282 12.6538 15.3791C12.7936 15.2934 12.9258 15.2127 13.1664 15.1291C13.631 14.9677 14.1686 14.9187 14.174 14.9182C14.1861 14.9172 14.1981 14.9141 14.2095 14.9095C14.2287 14.9016 15.7451 14.2664 16.4595 12.8006C16.4501 12.8449 16.4401 12.8854 16.4292 12.9208C16.4105 12.9811 16.4406 13.0455 16.4988 13.0699C16.5438 13.0889 16.595 13.079 16.6296 13.047C16.5845 13.166 16.5436 13.2596 16.5103 13.3149C16.4763 13.3712 16.4927 13.4442 16.5474 13.4806C16.5603 13.489 16.574 13.4947 16.5881 13.4981C16.5328 13.579 16.4767 13.6556 16.4208 13.7258C16.3836 13.7725 16.3858 13.8391 16.4247 13.8832C16.3286 13.9837 16.2435 14.0666 16.1789 14.1193C16.1366 14.1535 16.1228 14.2108 16.1422 14.2597C16.0799 14.2953 16.0286 14.3205 15.9931 14.3312C15.9335 14.3492 15.8969 14.4093 15.9081 14.4706C15.914 14.5029 15.9321 14.5302 15.9573 14.5482C15.8823 14.5683 15.8003 14.5877 15.7112 14.6054C15.6611 14.6154 15.6224 14.6554 15.6141 14.7059C15.606 14.7564 15.63 14.8067 15.6743 14.8321C15.6782 14.8342 15.72 14.858 15.7842 14.8852C15.547 14.9808 15.1235 15.1056 14.4286 15.174C14.3613 15.1807 14.312 15.2409 14.3187 15.3082C14.3252 15.3755 14.3834 15.4222 14.4527 15.4183C15.7719 15.2878 16.1792 14.9576 16.1959 14.9434C16.2339 14.9115 16.249 14.8596 16.2339 14.8122C16.2239 14.7808 16.2019 14.7555 16.1736 14.7408C16.595 14.6082 16.7759 14.4614 16.7854 14.4535C16.8315 14.4151 16.8432 14.3489 16.8128 14.2969C16.7821 14.2449 16.7183 14.2224 16.6626 14.2449C16.647 14.2509 16.622 14.2571 16.5903 14.2633C16.8732 14.0696 17.1734 13.839 17.3054 13.736C17.3286 13.7188 17.3498 13.7022 17.3683 13.6867C17.4196 13.6436 17.4268 13.5675 17.3845 13.5155C17.3424 13.4638 17.2659 13.4551 17.2135 13.4965C17.1944 13.5116 17.1745 13.5272 17.1539 13.5432C17.093 13.5885 17.015 13.6397 16.93 13.6924C17.251 13.3279 17.5741 12.9328 17.6664 12.8193C17.6748 12.809 17.6831 12.7987 17.6915 12.7884C17.7338 12.7357 17.7256 12.6586 17.6729 12.6163C17.6201 12.5732 17.5429 12.582 17.5006 12.6345L17.5003 12.6347L17.5002 12.635C17.4979 12.6376 17.4876 12.6505 17.4701 12.6721C17.3734 12.7901 17.2716 12.9044 17.1711 13.0111C17.4981 12.4185 17.7457 11.8351 17.782 11.7487C17.7833 11.7456 17.7845 11.7425 17.7858 11.7393C17.8119 11.6774 17.7824 11.6055 17.7198 11.5797ZM11.9734 15.7125L12.0069 15.7169C11.9658 15.7553 11.9324 15.7983 11.9059 15.8428C11.8476 15.8381 11.7948 15.834 11.7534 15.8321C11.8105 15.7948 11.8839 15.7544 11.9734 15.7125Z" fill="#FFE15A"/>
</svg>
