<svg width="24" height="24" viewBox="0 0 24 24" fill="none" xmlns="http://www.w3.org/2000/svg">
<path d="M22.2024 4.137H1.79494C0.834703 4.137 0.0504844 4.88981 0 5.83749V18.1625C0.0504844 19.11 0.834703 19.863 1.79494 19.863H22.2024C23.1952 19.863 24 19.0582 24 18.0653V5.93461C24 4.9418 23.1952 4.137 22.2024 4.137Z" fill="#464655"/>
<path d="M12.0013 4.96467L12.526 7.7063L14.0601 5.37417L13.4957 8.10797L15.8054 6.54042L14.2379 8.85014L16.9717 8.28581L14.6395 9.81984L17.3812 10.3446L14.6395 10.8694L16.9717 12.4034L14.2379 11.8391L15.8054 14.1488L13.4957 12.5812L14.0601 15.315L12.526 12.9829L12.0013 15.7245L11.4765 12.9829L9.94248 15.315L10.5069 12.5812L8.19709 14.1488L9.76468 11.8391L7.03088 12.4034L9.36296 10.8694L6.62134 10.3446L9.36296 9.81984L7.03088 8.28581L9.76468 8.85014L8.19709 6.54042L10.5069 8.10797L9.94248 5.37417L11.4765 7.7063L12.0013 4.96467Z" fill="#FFE15A"/>
<path d="M0.456422 4.73503C0.19125 5.03072 0.0225 5.41462 0 5.83748V18.1625C0.0504844 19.11 0.834703 19.863 1.79494 19.863H12.0014L0.456422 4.73503Z" fill="#FF4B55"/>
<path d="M12.0015 19.8629H22.2025C23.1953 19.8629 24.0001 19.0581 24.0001 18.0653V5.93461C24.0001 5.47514 23.8275 5.05613 23.5439 4.73836L12.0015 19.8629Z" fill="#FF4B55"/>
<path d="M7.26391 13.6553H16.7387L19.2652 10.3446H4.7373L7.26391 13.6553Z" fill="#4173CD"/>
<path d="M7.26392 13.6553L12.0013 19.8629L16.7387 13.6553H7.26392Z" fill="#F5F5F5"/>
</svg>
