<svg width="24" height="24" viewBox="0 0 24 24" fill="none" xmlns="http://www.w3.org/2000/svg">
<path d="M22.2134 4.13808H1.78664C0.798984 4.14389 0 4.94611 0 5.93517V18.0645C0 19.0572 0.804703 19.8619 1.79742 19.8619H22.2026C23.1952 19.8619 24 19.0572 24 18.0645V5.93517C24 4.94611 23.201 4.14389 22.2134 4.13808Z" fill="#73AF00"/>
<path d="M24 7.03453H0V8.68969H24V7.03453Z" fill="#F5F5F5"/>
<path d="M24 15.3103H0V16.9655H24V15.3103Z" fill="#F5F5F5"/>
<path d="M24 8.68969H0V15.3103H24V8.68969Z" fill="#C8414B"/>
<path d="M11.8969 9.4508L11.2944 11.2574L9.38999 11.2721C9.28556 11.273 9.24234 11.4062 9.32629 11.4682L10.8583 12.5995L10.2839 14.4153C10.2524 14.5149 10.3657 14.5972 10.4507 14.5365L12 13.4291L13.5494 14.5365C13.6343 14.5972 13.7476 14.5149 13.7162 14.4153L13.1417 12.5995L14.6737 11.4682C14.7577 11.4062 14.7144 11.2729 14.61 11.2721L12.7056 11.2574L12.1031 9.4508C12.07 9.3518 11.93 9.3518 11.8969 9.4508Z" fill="#FFE15A"/>
</svg>
