<svg width="24" height="24" viewBox="0 0 24 24" fill="none" xmlns="http://www.w3.org/2000/svg">
<path d="M22.2026 19.8621H1.79742C0.804703 19.8621 0 19.0574 0 18.0646V5.93536C0 4.94269 0.804703 4.13794 1.79742 4.13794H22.2026C23.1952 4.13794 24 4.94264 24 5.93536V18.0647C24 19.0574 23.1953 19.8621 22.2026 19.8621Z" fill="#F5F5F5"/>
<path d="M9.79061 15.1009C8.8353 14.8828 7.98363 14.3896 7.32471 13.708V15.1657C8.04372 15.6901 8.88264 16.0576 9.79061 16.2257V15.1009Z" fill="#FFECD7"/>
<path d="M14.2073 15.1009C15.1626 14.8828 16.0143 14.3896 16.6732 13.708V15.1657C15.9542 15.6901 15.1152 16.0576 14.2073 16.2257V15.1009Z" fill="#FFECD7"/>
<path d="M9.36731 11.9414C9.32133 11.9506 9.25687 12.0702 9.2385 12.2726C9.22008 12.4751 9.09131 13.3307 8.81522 13.2387C8.53917 13.1467 8.35519 12.7418 8.35519 12.7418L7.96875 13.3031C7.96875 13.3031 8.22637 13.2019 8.49323 13.3215C8.76009 13.4412 8.82445 13.5056 8.89809 13.432C8.97169 13.3584 9.14653 13.1376 9.28453 13.1559L9.44095 12.0426L9.36731 11.9414Z" fill="#FFE15A"/>
<path d="M7.84005 13.7724C7.84005 13.7724 7.77565 14.3061 7.81245 14.3705C7.84929 14.4349 8.86137 14.6741 8.86137 14.6741C8.86137 14.6741 8.56695 14.9133 8.55776 15.0422C8.55776 15.0422 8.19888 15.1066 8.07012 15.217L7.59166 14.4257L7.57324 13.7724H7.84005Z" fill="#FFE15A"/>
<path d="M7.52011 8.91886L7.527 8.64281C7.527 8.64281 7.20263 8.60831 7.16128 9.3398L7.04396 9.01542C7.04396 9.01542 6.80241 9.3398 6.94735 9.86423L6.88524 9.91256C6.88524 9.91256 6.5678 9.49163 6.37458 8.94647C6.37458 8.94647 6.05021 9.2018 6.42975 9.92639L5.96053 9.33291C5.96053 9.33291 5.72592 9.82978 6.42975 10.4233L5.76727 9.95405C5.76727 9.95405 5.72588 10.4924 6.36764 10.8374L5.72583 10.4923C5.72583 10.4923 5.7465 11.0099 6.49181 11.2652L5.78789 11.1341C5.78789 11.1341 5.96611 11.5573 6.48661 11.6715C6.3773 11.7935 6.27633 11.9574 6.25022 12.1693L6.77471 11.8794C6.77471 11.8794 6.52627 12.1347 6.59527 12.4867L7.40269 11.6793L7.29235 11.6299C7.90317 11.5154 7.77535 11.4722 7.77535 11.4722C7.77535 11.4722 7.32446 10.3129 7.62816 9.51239C7.93177 8.71191 8.19863 8.60147 8.19863 8.56467C8.19867 8.52778 7.87205 8.48405 7.52011 8.91886Z" fill="#FFECD7"/>
<path d="M8.14362 9.38348C8.14362 9.38348 9.19254 10.4876 9.21096 10.5889C9.22938 10.6901 9.10052 10.6717 9.10052 10.6717C9.10052 10.6717 8.8429 10.3405 8.49321 10.2117C8.14357 10.0829 7.91355 9.678 7.77555 9.58603C7.63755 9.49392 8.14362 9.38348 8.14362 9.38348Z" fill="#FFE15A"/>
<path d="M7.79395 9.65034C7.93195 9.69633 8.24484 9.63192 8.2356 9.34673C8.22642 9.06145 7.94118 8.95111 7.72954 9.01552C7.51795 9.07992 7.12223 9.37439 7.37067 9.94486C7.6191 10.5153 7.98717 10.727 8.06076 11.2147C8.06076 11.2147 7.72954 11.2652 7.5547 11.2238C7.40442 11.1883 7.14984 11.0674 7.20506 10.7362C7.26023 10.405 7.38909 10.2117 7.27865 10.0277C7.16821 9.84366 6.81862 9.52163 6.81862 9.52163C6.81862 9.52163 6.06412 11.4539 7.42593 11.96C7.42593 11.96 6.78187 12.5765 6.45984 13.1745L6.65306 13.2297C6.65306 13.2297 6.3126 13.5977 6.11938 13.7357C6.11938 13.7357 6.75426 13.9566 7.37995 13.2389C7.37995 13.2389 7.53637 13.4965 7.57317 13.7725H7.84003C7.84003 13.7725 7.93204 13.3309 8.35532 12.9629C8.7786 12.5948 9.20817 12.07 9.16499 11.5919C9.11442 11.0306 8.6917 10.7781 8.25178 10.4302C7.6582 9.96089 7.79395 9.65034 7.79395 9.65034Z" fill="#FFF5E1"/>
<path d="M14.6327 11.9414C14.6787 11.9506 14.7431 12.0702 14.7615 12.2726C14.7799 12.4751 14.9087 13.3307 15.1848 13.2387C15.4608 13.1467 15.6448 12.7418 15.6448 12.7418L16.0313 13.3031C16.0313 13.3031 15.7737 13.2019 15.5068 13.3215C15.2399 13.4412 15.1756 13.5056 15.1019 13.432C15.0283 13.3584 14.8535 13.1376 14.7155 13.1559L14.5591 12.0426L14.6327 11.9414Z" fill="#FFE15A"/>
<path d="M16.16 13.7724C16.16 13.7724 16.2244 14.3061 16.1876 14.3705C16.1508 14.4349 15.1387 14.6741 15.1387 14.6741C15.1387 14.6741 15.4331 14.9133 15.4423 15.0422C15.4423 15.0422 15.8012 15.1066 15.9299 15.217L16.4084 14.4257L16.4268 13.7724H16.1599H16.16Z" fill="#FFE15A"/>
<path d="M16.4798 8.91886L16.4729 8.64281C16.4729 8.64281 16.7973 8.60831 16.8386 9.3398L16.9559 9.01542C16.9559 9.01542 17.1975 9.3398 17.0526 9.86423L17.1147 9.91256C17.1147 9.91256 17.4321 9.49163 17.6253 8.94647C17.6253 8.94647 17.9497 9.2018 17.5701 9.92639L18.0394 9.33291C18.0394 9.33291 18.274 9.82978 17.5701 10.4233L18.2326 9.95405C18.2326 9.95405 18.2741 10.4924 17.6323 10.8374L18.2741 10.4923C18.2741 10.4923 18.2534 11.0099 17.5081 11.2652L18.212 11.1341C18.212 11.1341 18.0338 11.5573 17.5133 11.6715C17.6226 11.7935 17.7236 11.9574 17.7497 12.1693L17.2252 11.8794C17.2252 11.8794 17.4736 12.1347 17.4046 12.4867L16.5972 11.6793L16.7076 11.6299C16.0967 11.5154 16.2246 11.4722 16.2246 11.4722C16.2246 11.4722 16.6754 10.3129 16.3717 9.51239C16.0681 8.71191 15.8013 8.60147 15.8013 8.56467C15.8012 8.52778 16.1278 8.48405 16.4798 8.91886Z" fill="#FFECD7"/>
<path d="M15.8565 9.38348C15.8565 9.38348 14.8076 10.4876 14.7892 10.5889C14.7707 10.6901 14.8996 10.6717 14.8996 10.6717C14.8996 10.6717 15.1572 10.3405 15.5069 10.2117C15.8565 10.0829 16.0866 9.678 16.2246 9.58603C16.3626 9.49406 15.8565 9.38348 15.8565 9.38348Z" fill="#FFE15A"/>
<path d="M16.2061 9.65034C16.0681 9.69633 15.7552 9.63192 15.7644 9.34673C15.7736 9.06145 16.0588 8.95111 16.2705 9.01552C16.4821 9.07992 16.8778 9.37439 16.6294 9.94486C16.3809 10.5153 16.0129 10.727 15.9393 11.2147C15.9393 11.2147 16.2705 11.2652 16.4453 11.2238C16.5956 11.1883 16.8502 11.0674 16.795 10.7362C16.7398 10.405 16.6109 10.2117 16.7214 10.0277C16.8318 9.84366 17.1814 9.52163 17.1814 9.52163C17.1814 9.52163 17.9359 11.4539 16.5741 11.96C16.5741 11.96 17.2182 12.5765 17.5402 13.1745L17.347 13.2297C17.347 13.2297 17.6874 13.5977 17.8806 13.7357C17.8806 13.7357 17.2458 13.9566 16.6201 13.2389C16.6201 13.2389 16.4637 13.4965 16.4269 13.7725H16.16C16.16 13.7725 16.068 13.3309 15.6447 12.9629C15.2214 12.5948 14.7919 12.07 14.835 11.5919C14.8856 11.0306 15.3083 10.7781 15.7483 10.4302C16.3418 9.96089 16.2061 9.65034 16.2061 9.65034Z" fill="#FFF5E1"/>
<path d="M14.6488 7.78266H9.34912V8.85H14.6488V7.78266Z" fill="#464655"/>
<path d="M11.9988 8.62898H9.34888C9.34888 8.62898 9.34888 11.4998 9.34888 12.1623C9.34888 12.8248 9.79053 14.5914 11.9988 15.2539C14.2071 14.5914 14.6488 12.8248 14.6488 12.1623C14.6488 11.4998 14.6488 8.62898 14.6488 8.62898H11.9988Z" fill="#41479B"/>
<path d="M9.34888 12.1623C9.34888 12.3264 9.3763 12.5587 9.45069 12.8248H14.547C14.6214 12.5587 14.6488 12.3264 14.6488 12.1623V10.8373H9.34888V12.1623Z" fill="#FF4B55"/>
<path d="M11.9989 11.831L11.6897 12.6039L11.9989 12.4493L12.308 12.6039L11.9989 11.831Z" fill="#F5F5F5"/>
<path d="M11.9989 11.831L12.308 11.0581L11.9989 11.2127L11.6897 11.0581L11.9989 11.831Z" fill="#F5F5F5"/>
<path d="M11.999 11.831L11.2261 11.5219L11.3807 11.831L11.2261 12.1402L11.999 11.831Z" fill="#F5F5F5"/>
<path d="M11.999 11.831L12.7719 12.1402L12.6173 11.831L12.7719 11.5219L11.999 11.831Z" fill="#F5F5F5"/>
<path d="M12.3461 9.40983C12.2945 9.41812 12.2492 9.42469 12.2083 9.4462C12.2548 9.33 12.2876 9.22092 12.2587 9.14456C12.1881 8.95776 12.0525 8.99119 12.0002 8.85501V8.84986C11.9998 8.85089 11.9993 8.85145 11.9989 8.85244C11.9985 8.8514 11.998 8.85084 11.9976 8.84986V8.85501C11.9454 8.99119 11.8097 8.95781 11.7391 9.14456C11.7103 9.22097 11.7431 9.32995 11.7896 9.4462C11.7486 9.42469 11.7033 9.41808 11.6517 9.40983C11.5464 9.39295 11.3864 9.50245 11.4201 9.71297C11.4538 9.92348 11.698 9.94036 11.698 9.94036C11.6643 9.9067 11.6348 9.85195 11.6517 9.79298C11.6685 9.73401 11.7906 9.68353 11.8537 9.88139C11.9169 10.0793 11.7022 10.3614 11.7022 10.3614C11.7757 10.3575 11.8294 10.3346 11.8681 10.3114C11.8172 10.4775 11.9839 10.6062 11.9975 10.6162V10.6182L11.9989 10.6172C11.999 10.6173 12.0002 10.6182 12.0002 10.6182V10.6162C12.0138 10.6062 12.1805 10.4776 12.1296 10.3114C12.1683 10.3346 12.222 10.3575 12.2955 10.3614C12.2955 10.3614 12.0808 10.0793 12.144 9.88139C12.2071 9.68348 12.3293 9.73401 12.3461 9.79298C12.3629 9.85195 12.3335 9.90665 12.2998 9.94036C12.2998 9.94036 12.5439 9.92348 12.5776 9.71297C12.6114 9.50245 12.4514 9.39295 12.3461 9.40983Z" fill="#FFE15A"/>
<path d="M13.9709 9.40983C13.9193 9.41812 13.874 9.42469 13.833 9.4462C13.8795 9.33 13.9123 9.22092 13.8834 9.14456C13.8129 8.95776 13.6772 8.99119 13.625 8.85501V8.84986C13.6246 8.85089 13.624 8.85145 13.6237 8.85244C13.6233 8.8514 13.6227 8.85084 13.6224 8.84986V8.85501C13.5701 8.99119 13.4344 8.95781 13.3639 9.14456C13.335 9.22097 13.3678 9.32995 13.4143 9.4462C13.3734 9.42469 13.328 9.41808 13.2764 9.40983C13.1711 9.39295 13.0112 9.50245 13.0448 9.71297C13.0785 9.92348 13.3227 9.94036 13.3227 9.94036C13.2891 9.9067 13.2596 9.85195 13.2764 9.79298C13.2933 9.73401 13.4154 9.68353 13.4785 9.88139C13.5416 10.0792 13.3269 10.3614 13.3269 10.3614C13.4004 10.3575 13.4541 10.3346 13.4929 10.3114C13.4419 10.4775 13.6087 10.6062 13.6223 10.6162V10.6182L13.6236 10.6172C13.6238 10.6173 13.6249 10.6182 13.6249 10.6182V10.6162C13.6386 10.6062 13.8053 10.4776 13.7543 10.3114C13.7931 10.3346 13.8468 10.3575 13.9203 10.3614C13.9203 10.3614 13.7056 10.0793 13.7687 9.88139C13.8319 9.68348 13.954 9.73401 13.9708 9.79298C13.9877 9.85195 13.9582 9.90665 13.9245 9.94036C13.9245 9.94036 14.1687 9.92348 14.2024 9.71297C14.2361 9.50245 14.0761 9.39295 13.9709 9.40983Z" fill="#FFE15A"/>
<path d="M10.7211 9.40983C10.6695 9.41812 10.6242 9.42469 10.5833 9.4462C10.6298 9.33 10.6626 9.22092 10.6337 9.14456C10.5631 8.95776 10.4275 8.99119 10.3752 8.85501V8.84986C10.3748 8.85089 10.3743 8.85145 10.3739 8.85244C10.3735 8.8514 10.373 8.85084 10.3726 8.84986V8.85501C10.3204 8.99119 10.1847 8.95781 10.1141 9.14456C10.0853 9.22097 10.1181 9.32995 10.1646 9.4462C10.1236 9.42469 10.0783 9.41808 10.0267 9.40983C9.92138 9.39295 9.76144 9.50245 9.79509 9.71297C9.82875 9.92348 10.073 9.94036 10.073 9.94036C10.0393 9.9067 10.0098 9.85195 10.0267 9.79298C10.0435 9.73401 10.1656 9.68353 10.2287 9.88139C10.2919 10.0792 10.0772 10.3614 10.0772 10.3614C10.1507 10.3575 10.2044 10.3346 10.2431 10.3114C10.1922 10.4775 10.3589 10.6062 10.3725 10.6162V10.6182L10.3739 10.6172C10.374 10.6173 10.3752 10.6182 10.3752 10.6182V10.6162C10.3888 10.6062 10.5555 10.4776 10.5046 10.3114C10.5433 10.3346 10.597 10.3575 10.6705 10.3614C10.6705 10.3614 10.4558 10.0793 10.519 9.88139C10.5821 9.68348 10.7043 9.73401 10.7211 9.79298C10.7379 9.85195 10.7085 9.90665 10.6748 9.94036C10.6748 9.94036 10.9189 9.92348 10.9526 9.71297C10.9864 9.50245 10.8264 9.39295 10.7211 9.40983Z" fill="#FFE15A"/>
<path d="M12.5171 13.9598C12.5171 13.9598 12.399 13.9413 12.3896 14.0602C12.3896 14.0602 12.3896 14.0738 12.389 14.0927C12.3744 14.0858 12.3585 14.0813 12.3413 14.0813C12.2789 14.0813 12.2284 14.1319 12.2284 14.1943C12.2284 14.2567 12.2789 14.3073 12.3413 14.3073C12.3463 14.3073 12.3505 14.3051 12.3553 14.3044C12.3385 14.3583 12.3118 14.4073 12.2742 14.4427H12.1234C12.0837 14.3988 12.0717 14.3129 12.069 14.2506C12.0715 14.2507 12.0733 14.2525 12.0758 14.2525C12.127 14.2525 12.1685 14.211 12.1685 14.1598C12.1685 14.1092 12.1279 14.0685 12.0776 14.0675C12.0856 14.0538 12.0914 14.0386 12.0914 14.0216C12.0914 13.9704 12.05 13.929 11.9988 13.929C11.9476 13.929 11.9061 13.9705 11.9061 14.0216C11.9061 14.0386 11.912 14.0537 11.92 14.0675C11.8696 14.0685 11.829 14.1093 11.829 14.1598C11.829 14.211 11.8706 14.2525 11.9217 14.2525C11.9242 14.2525 11.9261 14.2508 11.9285 14.2506C11.926 14.3129 11.9139 14.3988 11.8742 14.4427H11.7233C11.6858 14.4073 11.659 14.3582 11.6422 14.3044C11.6471 14.305 11.6512 14.3073 11.6562 14.3073C11.7186 14.3073 11.7692 14.2567 11.7692 14.1943C11.7692 14.1319 11.7186 14.0813 11.6562 14.0813C11.639 14.0813 11.6231 14.0858 11.6085 14.0927C11.608 14.0738 11.608 14.0602 11.608 14.0602C11.5985 13.9413 11.4805 13.9598 11.4805 13.9598C11.5539 14.1839 11.5346 14.4428 11.5346 14.4428V14.6706H12.4617V14.4433L12.463 14.4428C12.463 14.4428 12.4437 14.1839 12.5171 13.9598Z" fill="#FFE15A"/>
<path d="M11.4336 13.0765C11.4336 13.0765 11.3155 13.058 11.3061 13.1769C11.3061 13.1769 11.3061 13.1905 11.3055 13.2094C11.2909 13.2025 11.275 13.198 11.2578 13.198C11.1954 13.198 11.1449 13.2486 11.1449 13.311C11.1449 13.3733 11.1954 13.424 11.2578 13.424C11.2628 13.424 11.267 13.4218 11.2718 13.4211C11.255 13.475 11.2283 13.524 11.1907 13.5594H11.0399C11.0002 13.5155 10.9882 13.4295 10.9855 13.3673C10.988 13.3675 10.9898 13.3692 10.9923 13.3692C11.0435 13.3692 11.085 13.3276 11.085 13.2765C11.085 13.2259 11.0444 13.1851 10.9941 13.1842C11.0021 13.1705 11.0079 13.1553 11.0079 13.1383C11.0079 13.0871 10.9665 13.0456 10.9153 13.0456C10.8641 13.0456 10.8226 13.0872 10.8226 13.1383C10.8226 13.1553 10.8285 13.1704 10.8365 13.1842C10.7861 13.1852 10.7455 13.226 10.7455 13.2765C10.7455 13.3277 10.7871 13.3692 10.8382 13.3692C10.8407 13.3692 10.8426 13.3675 10.845 13.3673C10.8425 13.4296 10.8304 13.5155 10.7907 13.5594H10.6398C10.6023 13.524 10.5755 13.4749 10.5587 13.4211C10.5636 13.4217 10.5677 13.424 10.5727 13.424C10.6351 13.424 10.6857 13.3734 10.6857 13.311C10.6857 13.2486 10.6351 13.198 10.5727 13.198C10.5555 13.198 10.5396 13.2025 10.525 13.2094C10.5245 13.1905 10.5245 13.1769 10.5245 13.1769C10.5151 13.058 10.397 13.0765 10.397 13.0765C10.4704 13.3005 10.4511 13.5595 10.4511 13.5595V13.7873H11.3782V13.56L11.3795 13.5595C11.3795 13.5594 11.3602 13.3005 11.4336 13.0765Z" fill="#FFE15A"/>
<path d="M13.6006 13.0765C13.6006 13.0765 13.4825 13.058 13.4731 13.1769C13.4731 13.1769 13.4731 13.1905 13.4725 13.2094C13.4579 13.2025 13.442 13.198 13.4248 13.198C13.3624 13.198 13.3118 13.2486 13.3118 13.311C13.3118 13.3733 13.3624 13.424 13.4248 13.424C13.4298 13.424 13.434 13.4218 13.4388 13.4211C13.422 13.475 13.3952 13.524 13.3577 13.5594H13.2069C13.1672 13.5155 13.1552 13.4295 13.1525 13.3673C13.155 13.3675 13.1568 13.3692 13.1593 13.3692C13.2105 13.3692 13.252 13.3276 13.252 13.2765C13.252 13.2259 13.2114 13.1851 13.1611 13.1842C13.1691 13.1705 13.1749 13.1553 13.1749 13.1383C13.1749 13.0871 13.1334 13.0456 13.0823 13.0456C13.0311 13.0456 12.9896 13.0872 12.9896 13.1383C12.9896 13.1553 12.9954 13.1704 13.0035 13.1842C12.9531 13.1852 12.9125 13.226 12.9125 13.2765C12.9125 13.3277 12.9541 13.3692 13.0052 13.3692C13.0077 13.3692 13.0096 13.3675 13.012 13.3673C13.0095 13.4296 12.9974 13.5155 12.9577 13.5594H12.8068C12.7693 13.524 12.7425 13.4749 12.7257 13.4211C12.7306 13.4217 12.7347 13.424 12.7397 13.424C12.8021 13.424 12.8527 13.3734 12.8527 13.311C12.8527 13.2486 12.8021 13.198 12.7397 13.198C12.7225 13.198 12.7066 13.2025 12.692 13.2094C12.6915 13.1905 12.6915 13.1769 12.6915 13.1769C12.682 13.058 12.564 13.0765 12.564 13.0765C12.6374 13.3005 12.6181 13.5595 12.6181 13.5595V13.7873H13.5452V13.56L13.5465 13.5595C13.5465 13.5594 13.5272 13.3005 13.6006 13.0765Z" fill="#FFE15A"/>
<path d="M15.4283 7.27491C15.3012 7.22442 15.1733 7.17689 15.0446 7.13227C15.0086 7.23661 14.9727 7.34091 14.9367 7.4453C14.8746 7.42383 14.8124 7.40287 14.75 7.38276C14.7837 7.27762 14.8174 7.17258 14.8511 7.06739C14.7218 7.02562 14.5917 6.98681 14.4611 6.95095C14.4319 7.05745 14.4029 7.16391 14.3738 7.27041C14.3108 7.25306 14.2476 7.23647 14.1843 7.22053C14.2111 7.11342 14.2378 7.00636 14.2646 6.8992C14.1334 6.8662 14.0016 6.83611 13.8694 6.80892C13.8253 7.02525 13.781 7.24158 13.7368 7.45791C13.8187 7.47478 13.9004 7.49278 13.9819 7.512C13.9651 7.58362 13.9483 7.6553 13.9315 7.72697C13.455 7.61447 12.971 7.54411 12.4852 7.51603C12.4894 7.44253 12.4937 7.36908 12.4978 7.29553C12.5809 7.30036 12.664 7.30641 12.7469 7.31358C12.7659 7.09359 12.7849 6.87361 12.8039 6.65358C12.67 6.64195 12.5359 6.63319 12.4016 6.62737C12.3969 6.73772 12.3921 6.84797 12.3874 6.95831C12.3227 6.9555 12.2579 6.95339 12.1931 6.95198C12.1955 6.84159 12.1979 6.73116 12.2003 6.62086C12.066 6.61795 11.9317 6.61795 11.7974 6.62086C11.7998 6.73125 11.8022 6.84164 11.8045 6.95198C11.7397 6.95339 11.675 6.9555 11.6103 6.95831C11.6055 6.84797 11.6008 6.73772 11.596 6.62737C11.4618 6.63319 11.3277 6.64191 11.1937 6.65358C11.2128 6.87356 11.2318 7.09359 11.2508 7.31358C11.3337 7.30641 11.4168 7.30036 11.4998 7.29553C11.504 7.36903 11.5083 7.44253 11.5125 7.51603C11.0266 7.54416 10.5427 7.61447 10.0661 7.72697C10.0493 7.65534 10.0325 7.58367 10.0157 7.512C10.0972 7.49269 10.1789 7.47469 10.2608 7.45791C10.2166 7.24158 10.1724 7.02525 10.1282 6.80892C9.99602 6.83606 9.86421 6.8662 9.73301 6.8992C9.75982 7.00631 9.78654 7.11342 9.81335 7.22053C9.75002 7.23647 9.68688 7.25306 9.62388 7.27041C9.59482 7.16391 9.56571 7.05741 9.5366 6.95095C9.40596 6.98691 9.27588 7.02567 9.14651 7.06739C9.18021 7.17253 9.21391 7.27758 9.24762 7.38276C9.18523 7.40287 9.12302 7.42378 9.06096 7.4453C9.02496 7.34095 8.98901 7.23666 8.95301 7.13227C8.82434 7.17694 8.69641 7.22447 8.56934 7.27491C8.65038 7.48022 8.73143 7.68553 8.81248 7.89089C8.89118 7.85967 8.9703 7.82953 9.04966 7.80075C9.1497 8.07759 9.24968 8.35434 9.34971 8.63119C9.56365 8.55338 9.78016 8.48536 9.99855 8.42709C10.0714 8.40769 10.1444 8.38922 10.2176 8.37202C10.6568 8.26837 11.1029 8.2035 11.5506 8.17758C11.8491 8.16028 12.1484 8.16037 12.4469 8.17758C12.8947 8.20345 13.3408 8.26828 13.78 8.37202C13.8532 8.38936 13.9262 8.40764 13.999 8.42709C14.2174 8.48545 14.4339 8.55347 14.6479 8.63119C14.7479 8.3543 14.8479 8.07759 14.9479 7.80075C15.0273 7.82962 15.1064 7.85967 15.1851 7.89089C15.2662 7.68553 15.3473 7.48017 15.4283 7.27491Z" fill="#FFE15A"/>
<path d="M11.9988 17.7934C13.3161 17.7934 14.5358 17.3704 15.5321 16.655V15.2096C14.6306 16.1223 13.3799 16.6891 11.9988 16.6891C10.5986 16.6891 9.3327 16.1061 8.42871 15.171V16.6287C9.43151 17.3603 10.6652 17.7934 11.9988 17.7934Z" fill="#FFE1CD"/>
</svg>
