<svg width="24" height="24" viewBox="0 0 24 24" fill="none" xmlns="http://www.w3.org/2000/svg">
<path d="M22.2025 19.8621H1.79742C0.80475 19.8621 0 19.0574 0 18.0646V5.93541C0 4.94274 0.804703 4.13799 1.79742 4.13799H22.2025C23.1952 4.13799 24 4.94269 24 5.93541V18.0647C24 19.0574 23.1952 19.8621 22.2025 19.8621Z" fill="#FF4B55"/>
<path d="M0 5.93541V11.5877C0.000796875 11.8155 0.185672 12 0.413719 12H11.5861C11.8146 12 11.9999 11.8148 11.9999 11.5862V4.55175C11.9999 4.32328 11.8147 4.13808 11.5863 4.13794H1.79742C0.80475 4.13798 0 4.94269 0 5.93541Z" fill="#41479B"/>
<path d="M7.03444 6.64917V4.13798H4.96547V6.64922L1.25831 4.22039C0.825469 4.35633 0.463594 4.65178 0.240609 5.03761L3.28852 7.03453H0V9.1035H3.28842L0 11.2579V11.5876C0.000796875 11.8155 0.185672 12 0.413719 12H1.13245L4.96542 9.48877V12H7.03439V9.48877L10.8674 12H11.5861C11.8146 12 11.9999 11.8147 11.9999 11.5862V11.258L8.71139 9.10345H11.9999V7.03453H8.71139L11.9999 4.87997V4.55175C11.9999 4.32328 11.8147 4.13808 11.5863 4.13794H10.8674L7.03444 6.64917Z" fill="#F5F5F5"/>
<path d="M12 7.4483H6.62067V4.13799H5.37928V7.4483H0V8.68969H5.37928V12H6.62067V8.68969H12V7.4483Z" fill="#FF4B55"/>
<path d="M0.385742 4.82358L3.79173 7.03448H4.55176L0.684805 4.52433C0.573758 4.61203 0.473398 4.71248 0.385742 4.82358Z" fill="#FF4B55"/>
<path d="M7.79446 7.03453L11.937 4.3455C11.865 4.22367 11.738 4.13799 11.5861 4.13799H11.4966L7.03442 7.03453H7.79446Z" fill="#FF4B55"/>
<path d="M4.19418 9.1035L0.0595703 11.7873C0.130773 11.9121 0.259867 12 0.413898 12H0.491945L4.95421 9.10341H4.19418V9.1035Z" fill="#FF4B55"/>
<path d="M11.9934 11.6187L8.11838 9.1035H7.3584L11.7587 11.9598C11.8906 11.8986 11.9809 11.7704 11.9934 11.6187Z" fill="#FF4B55"/>
<path d="M15.0443 8.15766C14.9627 8.15766 14.8965 8.2238 14.8965 8.30545V13.7734C14.8965 14.2168 15.192 15.6946 17.9999 16.1379C20.8078 15.6946 21.1034 14.2168 21.1034 13.7734V8.30545C21.1034 8.22384 21.0373 8.15766 20.9556 8.15766H15.0443Z" fill="#F5F5F5"/>
<path d="M18 16.1379C20.3439 15.7679 20.9367 14.6773 21.0688 14.069H14.9312C15.0632 14.6773 15.656 15.7678 18 16.1379Z" fill="#73AF00"/>
<path d="M19.921 11.2611C19.921 11.2611 20.0688 11.1133 19.921 10.8178L17.9999 10.7318L16.0787 10.8178C15.9309 11.1133 16.0787 11.2611 16.0787 11.2611C15.9309 11.4089 15.9309 11.5567 15.9309 11.5567H16.2265L16.5467 12.0862L17.9998 12.8867L19.453 12.0862L19.7733 11.5567H20.0688C20.0688 11.5567 20.0688 11.4089 19.921 11.2611Z" fill="#82AFFF"/>
<path d="M19.4533 12.0862C19.4533 12.0862 19.3609 11.883 19.1146 11.9077C19.1146 11.9077 18.9792 11.7291 18.7513 11.7783C18.7513 11.7783 18.4865 11.6244 18.3326 11.9077C18.3326 11.9077 17.8431 11.8579 17.8169 12.2307C17.8169 12.2307 18.5789 13.3793 18.5974 13.3916C18.6159 13.404 19.5088 13.3978 19.5088 13.3978L19.9213 12.9426L19.5149 12.3571L19.4533 12.0862Z" fill="#F5F5F5"/>
<path d="M18.0185 12.4495C18.0185 12.4495 17.3721 11.3935 17.2795 11.3041C17.1902 11.2179 17.0147 11.1379 16.8361 11.2857C16.8361 11.2857 16.3005 11.2426 16.3743 11.649L16.5282 12.2648C16.5282 12.2648 16.3927 12.6897 16.3312 12.7328C16.2696 12.7759 16.0417 12.8929 16.0417 12.8929L16.1711 13.404L17.8952 13.3178L18.0185 12.4495Z" fill="#F0C850"/>
<path d="M18.7634 11.9877L18.7614 11.9886L18.7137 11.8761C18.7099 11.867 18.7026 11.8598 18.6934 11.8561C18.6842 11.8525 18.674 11.8527 18.6648 11.8567L18.3441 11.9981L17.9626 11.3737C17.9796 11.3591 17.9869 11.3354 17.9789 11.3132C17.9686 11.2844 17.9369 11.2694 17.9081 11.2796L17.823 11.31L17.7655 11.1401C17.759 11.1207 17.7381 11.1106 17.7187 11.1169C17.6993 11.1235 17.689 11.1444 17.6955 11.1638L17.7535 11.3351L17.6626 11.3676C17.6338 11.378 17.6188 11.4098 17.6291 11.4385C17.6372 11.4611 17.6586 11.4753 17.6813 11.4753C17.6845 11.4753 17.6878 11.4743 17.691 11.4737L17.8167 12.2309L17.7356 12.2666C17.7179 12.2744 17.7092 12.2946 17.7157 12.3128L17.7617 12.4408C17.7628 12.4624 17.7628 12.4988 17.7554 12.5448L17.2395 11.6598C17.2611 11.6463 17.272 11.6199 17.263 11.595C17.2526 11.5661 17.2212 11.551 17.1921 11.5614L17.1071 11.5918L17.0496 11.4218C17.0431 11.4025 17.0221 11.3921 17.0028 11.3986C16.9834 11.4053 16.9731 11.4262 16.9796 11.4456L17.0376 11.6168L16.9467 11.6494C16.9178 11.6598 16.9028 11.6915 16.9132 11.7203C16.9206 11.7409 16.9394 11.7531 16.9598 11.7553L17.1838 13.1528C17.1548 13.165 17.1265 13.1773 17.0946 13.1887C17.0946 13.1887 16.99 13.6875 17.07 13.7121C17.1501 13.7367 17.9752 13.9891 17.9752 13.9891C17.9752 13.9891 19.1143 13.4473 19.139 13.435C19.1636 13.4227 19.2129 13.0655 19.2129 13.0655L18.7634 11.9877ZM18.6935 12.0177L18.5981 12.0587L18.5665 11.9807L18.6602 11.9394L18.6935 12.0177ZM18.1169 12.179L18.1954 12.1444L18.2255 12.2187L18.1425 12.2544L18.1169 12.179ZM18.0743 12.2836L17.9816 12.3234L17.9525 12.2515L18.0491 12.2089L18.0743 12.2836ZM18.2933 12.1896L18.2629 12.1146L18.3467 12.0777L18.3774 12.1535L18.2933 12.1896ZM18.4143 12.0479L18.4989 12.0105L18.5303 12.0878L18.4453 12.1243L18.4143 12.0479ZM17.8938 11.4026L18.2759 12.0282L18.0932 12.1087L17.8586 11.4151L17.8938 11.4026ZM17.7619 11.4498L17.789 11.4401L18.0253 12.1387L17.8864 12.1999L17.7619 11.4498ZM17.8849 12.2813L17.9138 12.3526L17.8226 12.3917L17.7969 12.3201L17.8849 12.2813ZM17.17 11.6871L17.7296 12.6471C17.7014 12.7285 17.6482 12.823 17.5551 12.9158L17.1427 11.6968L17.17 11.6871ZM17.0318 11.7366L17.0732 11.7218L17.4955 12.9701C17.4314 13.0232 17.3518 13.0746 17.2538 13.1216L17.0318 11.7366Z" fill="#965032"/>
<path d="M20.0551 10.5938C20.0159 10.5314 19.8899 10.5581 19.8899 10.5581C19.8899 10.5581 19.854 10.4862 19.7589 10.4793C19.6639 10.4723 19.6465 10.557 19.6465 10.557C19.6465 10.557 19.6287 10.5437 19.524 10.5468C19.4193 10.5499 19.4409 10.7223 19.4409 10.7223C19.4409 10.7223 19.4009 10.7223 19.2654 10.6793C19.1299 10.6361 19.0407 10.6669 19.0407 10.6669C19.0345 10.5961 18.9976 10.5438 18.9976 10.5438C18.8837 10.59 18.7944 10.5376 18.7729 10.4976C18.7513 10.4576 18.8068 10.396 18.8068 10.3437C18.8068 10.2913 18.7344 10.2937 18.709 10.2475C18.6836 10.2013 18.709 10.1759 18.776 10.1459C18.843 10.1159 18.9053 10.005 18.8637 9.915C18.8221 9.82495 18.7021 9.84108 18.7021 9.84108C18.7436 9.84802 18.7782 9.92653 18.7113 9.94266C18.6444 9.95878 18.5844 9.71405 18.5844 9.71405C18.739 9.81797 18.8522 9.75563 18.8845 9.66553C18.9169 9.57544 18.8314 9.51314 18.8314 9.51314C18.7644 9.62166 18.649 9.52702 18.7114 9.45774C18.7737 9.38845 18.7791 9.27225 18.7791 9.27225C18.6405 9.34003 18.5543 9.25378 18.5543 9.25378C18.736 9.12759 18.6837 8.94895 18.6837 8.94895C18.616 8.91816 18.4712 8.94281 18.4712 8.94281C18.502 8.88122 18.4959 8.77036 18.4959 8.77036C18.4189 8.75803 18.3327 8.8073 18.3327 8.8073C18.3573 8.72114 18.3234 8.57025 18.3234 8.57025C18.268 8.57953 18.1633 8.61028 18.1633 8.61028C18.1202 8.51175 18.0001 8.45325 18.0001 8.45325C18.0001 8.45325 17.8801 8.51175 17.837 8.61028C17.837 8.61028 17.7323 8.57949 17.6769 8.57025C17.6769 8.57025 17.643 8.72114 17.6676 8.8073C17.6676 8.8073 17.5814 8.75808 17.5044 8.77036C17.5044 8.77036 17.4983 8.88122 17.5291 8.94281C17.5291 8.94281 17.3843 8.9182 17.3166 8.94895C17.3166 8.94895 17.2643 9.1275 17.4459 9.25378C17.4459 9.25378 17.3597 9.33999 17.2212 9.27225C17.2212 9.27225 17.2266 9.38845 17.2889 9.45774C17.3513 9.52702 17.2358 9.6217 17.1689 9.51314C17.1689 9.51314 17.0834 9.57549 17.1158 9.66553C17.1481 9.75558 17.2613 9.81792 17.4159 9.71405C17.4159 9.71405 17.3559 9.95878 17.289 9.94266C17.222 9.92653 17.2566 9.84802 17.2982 9.84108C17.2982 9.84108 17.1782 9.82491 17.1366 9.915C17.095 10.005 17.1574 10.1159 17.2243 10.1459C17.2913 10.1759 17.3167 10.2013 17.2913 10.2475C17.2659 10.2937 17.1935 10.2914 17.1935 10.3437C17.1935 10.396 17.2489 10.4576 17.2274 10.4976C17.2059 10.5376 17.1166 10.59 17.0027 10.5438C17.0027 10.5438 16.9658 10.5961 16.9596 10.6669C16.9596 10.6669 16.8703 10.6361 16.7349 10.6793C16.5994 10.7223 16.5594 10.7223 16.5594 10.7223C16.5594 10.7223 16.581 10.5499 16.4763 10.5468C16.3716 10.5437 16.3538 10.557 16.3538 10.557C16.3538 10.557 16.3364 10.4723 16.2413 10.4793C16.1463 10.4863 16.1104 10.5581 16.1104 10.5581C16.1104 10.5581 15.9844 10.5315 15.9452 10.5938C15.906 10.6561 15.9013 10.7508 15.9752 10.7901C16.0491 10.8293 16.2453 10.9933 16.2453 10.9933L16.5224 11.1133L17.4923 10.6838L18.0002 10.8177L18.5082 10.6838L19.4781 11.1133L19.7551 10.9933C19.7551 10.9933 19.9515 10.8293 20.0253 10.7901C20.099 10.7508 20.0944 10.6561 20.0551 10.5938Z" fill="#FF4B55"/>
<path d="M17.6975 9.02869C17.6975 9.02869 17.708 9.15909 17.9009 9.12431C17.9009 9.12431 17.8957 8.9887 17.6975 9.02869Z" fill="#F5F5F5"/>
<path d="M16.9835 14.1798C16.9835 14.1798 16.8449 14.1752 16.7018 14.2814C16.5587 14.3876 16.4955 14.3122 16.3524 14.3122C16.2092 14.3122 16.1753 14.4615 16.1753 14.4615C16.1753 14.4615 15.8982 14.5308 16.0091 14.734C16.0792 14.8626 16.1767 14.8598 16.2392 14.8405C16.236 14.9269 16.2557 15.0218 16.3555 15.0389C16.5448 15.0712 16.6279 14.9696 16.5864 14.8125C16.5864 14.8125 16.6094 14.9742 16.7342 14.9696C16.8588 14.965 16.942 14.8957 16.9281 14.7294C16.9142 14.5632 17.136 14.6648 17.3068 14.42L16.9835 14.1798Z" fill="#FF4B55"/>
<path d="M16.1737 14.774C16.1737 14.774 16.0875 14.8879 16.1122 14.9987C16.1122 14.9987 15.9275 14.9402 16.026 14.6662C16.0259 14.6663 16.1522 14.6324 16.1737 14.774Z" fill="#82AFFF"/>
<path d="M16.4638 14.9234C16.4638 14.9234 16.413 15.0665 16.4823 15.1935C16.4823 15.1935 16.2514 15.1866 16.2976 14.9025C16.2976 14.9026 16.3715 14.8264 16.4638 14.9234Z" fill="#82AFFF"/>
<path d="M16.6948 14.9095C16.6948 14.9095 16.7364 15.0295 16.6948 15.145C16.6948 15.145 16.8842 15.1335 16.8519 14.861C16.8518 14.861 16.7502 14.824 16.6948 14.9095Z" fill="#82AFFF"/>
<path d="M16.5262 12.1478C16.5087 12.0054 15.6164 11.9215 15.6718 12.6712C15.6718 12.6712 15.5728 12.6694 15.5242 12.7616C15.4755 12.8538 15.3712 12.8311 15.3398 12.7981C15.3398 12.7981 15.3468 12.965 15.5537 12.958C15.5537 12.958 15.4882 13.0096 15.4975 13.085C15.5068 13.1603 15.5612 13.2554 15.5578 13.3203C15.5543 13.3852 15.4928 13.4756 15.4928 13.4756C15.4928 13.4756 15.6517 13.4212 15.6621 13.3076C15.6725 13.194 15.647 13.0989 15.6783 13.041C15.6783 13.041 15.6632 13.121 15.7339 13.2218C15.8046 13.3227 15.8081 13.4455 15.7791 13.522C15.7791 13.522 15.9553 13.4351 15.9217 13.267C15.888 13.099 15.8521 13.114 15.8683 13.0201C15.8683 13.0201 16.0515 13.2067 16.0202 13.3656C16.0202 13.3656 16.0787 13.2954 16.0735 13.1633C16.0683 13.0313 15.9766 12.9423 15.9766 12.9423C15.9766 12.9423 16.5862 12.6373 16.5262 12.1478Z" fill="#FF4B55"/>
<path d="M19.0164 14.1798C19.0164 14.1798 19.155 14.1752 19.2981 14.2814C19.4412 14.3876 19.5044 14.3122 19.6475 14.3122C19.7907 14.3122 19.8246 14.4615 19.8246 14.4615C19.8246 14.4615 20.1017 14.5308 19.9908 14.734C19.9207 14.8626 19.8232 14.8598 19.7607 14.8405C19.7639 14.9269 19.7442 15.0218 19.6444 15.0389C19.4551 15.0712 19.372 14.9696 19.4135 14.8125C19.4135 14.8125 19.3905 14.9742 19.2657 14.9696C19.1411 14.965 19.0579 14.8957 19.0718 14.7294C19.0856 14.5632 18.8639 14.6648 18.6931 14.42L19.0164 14.1798Z" fill="#FF4B55"/>
<path d="M19.8264 14.774C19.8264 14.774 19.9126 14.8879 19.888 14.9987C19.888 14.9987 20.0727 14.9402 19.9742 14.6662C19.9742 14.6663 19.8479 14.6324 19.8264 14.774Z" fill="#82AFFF"/>
<path d="M19.536 14.9234C19.536 14.9234 19.5869 15.0665 19.5176 15.1935C19.5176 15.1935 19.7485 15.1866 19.7023 14.9025C19.7024 14.9026 19.6284 14.8264 19.536 14.9234Z" fill="#82AFFF"/>
<path d="M19.3053 14.9095C19.3053 14.9095 19.2637 15.0295 19.3053 15.145C19.3053 15.145 19.1159 15.1335 19.1482 14.861C19.1482 14.861 19.2499 14.824 19.3053 14.9095Z" fill="#82AFFF"/>
<path d="M19.4736 12.1478C19.4911 12.0054 20.3834 11.9215 20.328 12.6712C20.328 12.6712 20.427 12.6694 20.4757 12.7616C20.5243 12.8538 20.6287 12.8311 20.66 12.7981C20.66 12.7981 20.6531 12.965 20.4462 12.958C20.4462 12.958 20.5116 13.0096 20.5024 13.085C20.4931 13.1603 20.4386 13.2554 20.4421 13.3203C20.4456 13.3852 20.507 13.4756 20.507 13.4756C20.507 13.4756 20.3482 13.4212 20.3378 13.3076C20.3274 13.194 20.3528 13.0989 20.3216 13.041C20.3216 13.041 20.3366 13.121 20.2659 13.2218C20.1952 13.3227 20.1918 13.4455 20.2207 13.522C20.2207 13.522 20.0446 13.4351 20.0782 13.267C20.1118 13.099 20.1478 13.114 20.1315 13.0201C20.1315 13.0201 19.9484 13.2067 19.9797 13.3656C19.9797 13.3656 19.9211 13.2954 19.9263 13.1633C19.9315 13.0312 20.0233 12.9423 20.0233 12.9423C20.0233 12.9423 19.4136 12.6373 19.4736 12.1478Z" fill="#FF4B55"/>
<path d="M19.8387 10.87C19.8048 10.8472 19.7589 10.8567 19.7363 10.891C19.6896 10.9615 19.628 11.0028 19.5482 11.0171C19.2837 11.063 18.9025 10.8027 18.7918 10.7213C18.6314 10.6033 18.4332 10.5828 18.3016 10.6639C18.2491 10.6813 18.0886 10.7318 18 10.7318C17.9114 10.7318 17.7509 10.6812 17.6984 10.6639C17.5668 10.5828 17.3686 10.6033 17.2082 10.7213C17.0975 10.8027 16.7163 11.063 16.4519 11.0171C16.372 11.0028 16.3105 10.9616 16.2637 10.891C16.2411 10.8568 16.1952 10.8473 16.1613 10.87C16.1273 10.8925 16.1179 10.9385 16.1404 10.9724C16.2097 11.0772 16.3058 11.1411 16.426 11.1625C16.4563 11.168 16.4874 11.1705 16.519 11.1705C16.801 11.1705 17.12 10.9693 17.2956 10.8404C17.4261 10.7445 17.5725 10.7447 17.6384 10.8003C17.655 10.8144 17.674 10.8367 17.6694 10.8628C17.667 10.8771 17.6575 10.8899 17.6419 10.9007C17.6457 10.8781 17.6388 10.854 17.6213 10.8364C17.5924 10.8075 17.5457 10.8075 17.5168 10.8364C17.4792 10.8738 17.4752 10.9345 17.5068 10.9839C17.5386 11.0334 17.6072 11.0696 17.6887 11.0394C17.7301 11.024 17.7632 10.9945 17.7861 10.9584C17.8984 10.9258 18.0001 10.9255 18.0001 10.9255C18.0001 10.9255 18.1017 10.9257 18.214 10.9584C18.237 10.9945 18.2701 11.024 18.3115 11.0394C18.3929 11.0696 18.4615 11.0334 18.4933 10.9839C18.525 10.9345 18.5209 10.8738 18.4833 10.8364C18.4544 10.8075 18.4077 10.8075 18.3788 10.8364C18.3613 10.854 18.3545 10.878 18.3582 10.9007C18.3426 10.8899 18.3332 10.8771 18.3307 10.8628C18.3262 10.8367 18.3451 10.8144 18.3618 10.8003C18.4277 10.7447 18.574 10.7446 18.7045 10.8404C18.8801 10.9693 19.1992 11.1705 19.4812 11.1705C19.5128 11.1705 19.5438 11.168 19.5742 11.1625C19.6944 11.141 19.7904 11.0771 19.8597 10.9724C19.8821 10.9384 19.8728 10.8925 19.8387 10.87Z" fill="#FFE15A"/>
<path d="M16.1171 10.9516C16.1171 10.9516 16.105 10.7865 16.0998 10.7326C16.0945 10.6787 15.9937 10.6387 15.9554 10.6926C15.9172 10.7464 15.9068 10.8456 16.1171 10.9516Z" fill="#82AFFF"/>
<path d="M16.1529 10.8986C16.1529 10.8986 16.2984 10.7808 16.2799 10.7185C16.2614 10.6561 16.2222 10.6238 16.1737 10.6423C16.1251 10.6607 16.1021 10.7738 16.1529 10.8986Z" fill="#82AFFF"/>
<path d="M16.4369 10.8062C16.4578 10.7853 16.4646 10.6838 16.4069 10.6723C16.3492 10.6607 16.2729 10.7508 16.2775 10.8616C16.2775 10.8616 16.3976 10.8454 16.4369 10.8062Z" fill="#82AFFF"/>
<path d="M16.3767 10.8639C16.3098 10.8853 16.2451 10.9424 16.2451 10.9424C16.2451 10.9424 16.3652 11.0301 16.4483 11.0025C16.5315 10.9748 16.4922 10.827 16.3767 10.8639Z" fill="#82AFFF"/>
<path d="M18.3026 9.02869C18.3026 9.02869 18.2921 9.15909 18.0991 9.12431C18.0991 9.12431 18.1044 8.9887 18.3026 9.02869Z" fill="#F5F5F5"/>
<path d="M19.8828 10.9516C19.8828 10.9516 19.895 10.7865 19.9002 10.7326C19.9054 10.6787 20.0062 10.6387 20.0445 10.6926C20.0828 10.7465 20.0932 10.8456 19.8828 10.9516Z" fill="#82AFFF"/>
<path d="M19.8474 10.8986C19.8474 10.8986 19.7019 10.7808 19.7204 10.7185C19.7388 10.6561 19.7781 10.6238 19.8266 10.6423C19.8751 10.6607 19.8981 10.7738 19.8474 10.8986Z" fill="#82AFFF"/>
<path d="M19.5632 10.8062C19.5423 10.7853 19.5355 10.6838 19.5932 10.6723C19.6509 10.6607 19.7272 10.7508 19.7226 10.8616C19.7225 10.8616 19.6025 10.8454 19.5632 10.8062Z" fill="#82AFFF"/>
<path d="M19.6233 10.8639C19.6903 10.8853 19.7549 10.9424 19.7549 10.9424C19.7549 10.9424 19.6349 11.0301 19.5517 11.0025C19.4685 10.9748 19.5078 10.827 19.6233 10.8639Z" fill="#82AFFF"/>
<path d="M17.9234 9.33605L17.982 9.39464C17.9919 9.40449 18.0079 9.40449 18.0177 9.39464L18.0762 9.33605C18.0921 9.32016 18.0809 9.29302 18.0584 9.29302H17.9412C17.9188 9.29302 17.9076 9.32016 17.9234 9.33605Z" fill="#464655"/>
<path d="M17.8929 9.57628C17.8494 9.57628 17.8118 9.56072 17.7863 9.53194C17.7598 9.50203 17.7486 9.46092 17.7553 9.41906C17.7577 9.40505 17.7717 9.39656 17.7849 9.39769C17.799 9.40003 17.8086 9.41325 17.8063 9.42741C17.8021 9.45384 17.8089 9.47934 17.825 9.49753C17.8415 9.51614 17.8669 9.52477 17.898 9.52439C17.963 9.52181 17.9739 9.4583 17.9743 9.45572L17.974 9.3398C17.974 9.3255 17.9855 9.31397 17.9998 9.31397C18.0141 9.31397 18.0257 9.3255 18.0257 9.3398V9.45975C18.0194 9.50119 17.9855 9.57262 17.9 9.57609C17.8977 9.57628 17.8953 9.57628 17.8929 9.57628Z" fill="#464655"/>
<path d="M18.1071 9.57628C18.1047 9.57628 18.1023 9.57628 18.0998 9.57614C18.0143 9.57267 17.9805 9.50124 17.9745 9.46383L17.9741 9.33984C17.9741 9.32555 17.9857 9.31402 17.9999 9.31402C18.0142 9.31402 18.0258 9.32555 18.0258 9.33984V9.4598C18.0267 9.46238 18.0388 9.522 18.1018 9.52444C18.1338 9.525 18.1582 9.51652 18.1748 9.49758C18.1909 9.47939 18.1977 9.45389 18.1934 9.42745C18.1912 9.41334 18.2008 9.40003 18.2149 9.39773C18.2284 9.39605 18.2422 9.40495 18.2445 9.41911C18.2512 9.46097 18.2399 9.50208 18.2136 9.53198C18.1881 9.56072 18.1506 9.57628 18.1071 9.57628Z" fill="#464655"/>
<path d="M18.8867 13.3301C18.8867 13.3301 18.702 13.0345 18.4865 13.2315C18.271 13.4286 18.191 13.6687 17.9446 13.6502C17.8095 13.6401 17.7404 13.5784 17.7046 13.5244C17.77 13.4706 17.8164 13.3888 17.7661 13.2684C17.6552 13.0036 17.2489 13.0838 17.138 13.3731C17.138 13.3731 17.2673 12.9482 16.8178 13.0899C16.8178 13.0899 16.7624 12.7943 16.5038 12.8744C16.3632 12.9179 16.3111 13.0044 16.2918 13.0749C16.2374 13.0623 16.1675 13.0627 16.1035 13.1145L16.4299 13.995L16.9225 14.0011L17.0333 14.1674L17.6799 14.5738L17.7969 14.8201H18.2033C18.2033 14.8201 18.2341 14.5676 18.4496 14.4938C18.6651 14.4198 19.0161 14.2659 19.0531 14.1304C19.09 13.995 19.09 13.995 19.09 13.995L19.4841 14.0011C19.5272 13.9703 19.8166 13.4962 19.8166 13.4962L19.951 12.8855C19.8768 12.8749 19.028 12.7648 18.8867 13.3301Z" fill="#F5F5F5"/>
<path d="M19.9521 12.8805L19.9509 12.8857C19.9543 12.8861 19.9582 12.8867 19.9582 12.8867L19.9521 12.8805Z" fill="#F5F5F5"/>
<path d="M17.2698 14.2742C17.1101 14.2098 17.0531 14.1196 17.0334 14.0716C17.0151 14.0272 17.0187 13.9957 17.0237 13.9841C17.0339 13.9606 17.0462 13.9456 17.0577 13.9427C17.0685 13.9401 17.0822 13.9463 17.0847 13.9478C17.0898 13.9537 17.0926 13.9725 17.0876 13.9771C17.0579 14.0051 17.0565 14.0519 17.0845 14.0816C17.1126 14.1113 17.1591 14.1127 17.189 14.0848C17.2193 14.0562 17.2368 14.0162 17.2379 13.9722C17.2394 13.9251 17.2221 13.878 17.1919 13.8462C17.1616 13.8142 17.0995 13.785 17.0333 13.7969C17.0197 13.7993 17.0043 13.8048 16.9886 13.8124C16.999 13.71 16.9595 13.6576 16.9305 13.6365C16.8818 13.6011 16.8125 13.6003 16.7541 13.6345C16.6945 13.6695 16.6622 13.7309 16.6701 13.7944C16.6752 13.8349 16.7158 13.8592 16.7555 13.8537C16.796 13.8488 16.8278 13.807 16.8228 13.7666C16.8312 13.7589 16.8422 13.7564 16.8419 13.7546C16.842 13.7547 16.8517 13.7709 16.84 13.823C16.8216 13.9047 16.7784 13.9549 16.7115 13.9725C16.6283 13.9955 16.5217 13.9605 16.4587 13.8913C16.3711 13.7948 16.1878 13.2832 16.0787 12.9425C16.5461 12.7208 16.6035 12.3525 16.5947 12.1473C16.5812 11.8347 16.3941 11.5148 16.1862 11.4489C16.1043 11.4231 15.9817 11.4177 15.8928 11.4636C15.8424 11.4899 15.8074 11.5301 15.7917 11.5802C15.7596 11.6823 15.8238 11.7668 15.9007 11.7944C15.9803 11.8229 16.0606 11.7885 16.0915 11.7125C16.1069 11.6747 16.0901 11.6314 16.0523 11.6161C16.0143 11.6004 15.9729 11.6188 15.9577 11.6565C15.9546 11.6582 15.9443 11.6543 15.9367 11.6457C15.9312 11.6393 15.93 11.6331 15.9327 11.6246C15.9351 11.6168 15.9407 11.6053 15.9611 11.5947C16.0094 11.5695 16.0901 11.5733 16.1416 11.5897C16.2606 11.6273 16.4344 11.8601 16.4471 12.1535C16.4546 12.3289 16.4014 12.6503 15.9601 12.8334C15.9247 12.8482 15.9065 12.8873 15.9179 12.9238C15.9468 13.016 16.2038 13.8304 16.3494 13.9905C16.4277 14.0766 16.5461 14.1267 16.6593 14.1267C16.6899 14.1267 16.7203 14.1231 16.7493 14.1154C16.7986 14.1023 16.8398 14.0768 16.8757 14.0449C16.8793 14.072 16.8855 14.0997 16.897 14.1275C16.9255 14.197 17.0048 14.3264 17.226 14.4155C17.6736 14.595 17.7161 14.7151 17.7136 14.7585C17.7123 14.7824 17.6986 14.7947 17.6875 14.801C17.6827 14.8037 17.6779 14.8054 17.6738 14.8065C17.6903 14.7838 17.6933 14.7528 17.6788 14.7266C17.6588 14.691 17.6139 14.6783 17.5783 14.6982C17.528 14.7263 17.4929 14.7926 17.5229 14.865C17.5464 14.9213 17.6013 14.9554 17.6646 14.9554C17.6748 14.9554 17.6852 14.9545 17.6957 14.9526C17.7877 14.937 17.8557 14.8607 17.8611 14.767C17.8738 14.5431 17.536 14.381 17.2698 14.2742Z" fill="#FFE15A"/>
<path d="M18.7299 14.2742C18.8896 14.2098 18.9466 14.1196 18.9663 14.0716C18.9846 14.0272 18.981 13.9957 18.976 13.9841C18.9658 13.9606 18.9535 13.9456 18.942 13.9427C18.9312 13.9401 18.9175 13.9463 18.915 13.9478C18.9099 13.9537 18.9071 13.9725 18.9121 13.9771C18.9418 14.0051 18.9431 14.0519 18.9152 14.0816C18.8871 14.1113 18.8405 14.1127 18.8107 14.0848C18.7803 14.0562 18.7629 14.0162 18.7617 13.9722C18.7604 13.9251 18.7776 13.878 18.8078 13.8462C18.838 13.8142 18.9002 13.785 18.9663 13.7969C18.98 13.7993 18.9954 13.8048 19.0111 13.8124C19.0007 13.71 19.0402 13.6576 19.0691 13.6365C19.1178 13.6011 19.1872 13.6003 19.2455 13.6345C19.3052 13.6695 19.3375 13.7309 19.3296 13.7944C19.3245 13.8349 19.2839 13.8592 19.2442 13.8537C19.2037 13.8488 19.1719 13.807 19.1769 13.7666C19.1685 13.7589 19.1575 13.7564 19.1578 13.7546C19.1577 13.7547 19.1479 13.7709 19.1597 13.823C19.1781 13.9047 19.2213 13.9549 19.2881 13.9725C19.3713 13.9955 19.4779 13.9605 19.5409 13.8913C19.6285 13.7948 19.8119 13.2832 19.921 12.9425C19.4536 12.7208 19.3961 12.3525 19.405 12.1473C19.4185 11.8347 19.6055 11.5148 19.8135 11.4489C19.8954 11.4231 20.0179 11.4177 20.1069 11.4636C20.1573 11.4899 20.1923 11.5301 20.208 11.5802C20.2401 11.6823 20.1759 11.7668 20.099 11.7944C20.0194 11.8229 19.939 11.7885 19.9082 11.7125C19.8928 11.6747 19.9096 11.6314 19.9473 11.6161C19.9854 11.6004 20.0267 11.6188 20.042 11.6565C20.0451 11.6582 20.0553 11.6543 20.063 11.6457C20.0685 11.6393 20.0697 11.6331 20.067 11.6246C20.0645 11.6168 20.059 11.6053 20.0386 11.5947C19.9903 11.5695 19.9096 11.5733 19.858 11.5897C19.739 11.6273 19.5653 11.8601 19.5526 12.1535C19.5451 12.3289 19.5983 12.6503 20.0395 12.8334C20.0749 12.8482 20.0932 12.8873 20.0817 12.9238C20.0529 13.016 19.7959 13.8304 19.6503 13.9905C19.572 14.0766 19.4536 14.1267 19.3404 14.1267C19.3097 14.1267 19.2794 14.1231 19.2504 14.1154C19.201 14.1023 19.1598 14.0768 19.124 14.0449C19.1204 14.072 19.1141 14.0997 19.1027 14.1275C19.0742 14.197 18.9949 14.3264 18.7736 14.4155C18.3261 14.595 18.2836 14.7151 18.286 14.7585C18.2875 14.7824 18.301 14.7947 18.3122 14.801C18.317 14.8037 18.3218 14.8054 18.3258 14.8065C18.3093 14.7838 18.3063 14.7528 18.3209 14.7266C18.3408 14.691 18.3857 14.6783 18.4214 14.6982C18.4717 14.7263 18.5068 14.7926 18.4767 14.865C18.4533 14.9213 18.3984 14.9554 18.335 14.9554C18.3249 14.9554 18.3145 14.9545 18.304 14.9526C18.2119 14.937 18.144 14.8607 18.1385 14.767C18.1258 14.5431 18.4637 14.381 18.7299 14.2742Z" fill="#FFE15A"/>
</svg>
