<svg width="24" height="24" viewBox="0 0 24 24" fill="none" xmlns="http://www.w3.org/2000/svg">
<path d="M22.2026 4.13789H1.79742C0.804703 4.13789 0 4.94259 0 5.93531V18.0647C0 19.0574 0.804703 19.8621 1.79742 19.8621H22.2026C23.1952 19.8621 24 19.0574 24 18.0647V5.93531C24 4.94259 23.1953 4.13789 22.2026 4.13789Z" fill="#82AFFF"/>
<path d="M11.9648 15.0775C14.0696 15.0775 15.7819 13.3651 15.7819 11.2605C15.7819 9.15581 14.0695 7.44337 11.9648 7.44337C9.86005 7.44337 8.14771 9.15581 8.14771 11.2605C8.14766 13.3651 9.86 15.0775 11.9648 15.0775ZM12.4003 7.84261L12.7283 7.72172C13.1913 7.82156 13.6218 8.0092 14.0008 8.26786C13.9682 8.26458 13.8821 8.25576 13.8672 8.2508C13.8488 8.2447 13.8204 8.3677 13.8204 8.3677L13.971 8.42761L14.012 8.27639C14.1684 8.38397 14.3144 8.50495 14.4518 8.63517L14.2305 8.85651H14.1914L14.1596 8.73159L14.0385 8.51395L13.6108 8.35978L13.3151 8.50294L13.4829 8.86636C13.0693 8.60316 12.584 8.445 12.0628 8.42714V7.92061L12.3642 8.01577L12.2389 7.79489L12.0628 7.87027V7.64414C12.1936 7.64766 12.3224 7.65834 12.4494 7.6755L12.3014 7.72486L12.4003 7.84261ZM14.381 10.6365L14.453 10.6059L14.4712 10.4286C14.5484 10.6607 14.593 10.907 14.6023 11.1625H13.9385L13.963 11.0565L14.1506 11.0402L14.3059 10.7758L14.3015 10.7262L14.1424 10.9301L14.0453 10.9539L13.9834 10.8811L14.0562 10.7573L13.8977 10.6404L13.7554 10.7653C13.717 10.6269 13.6648 10.4943 13.5973 10.3709L13.6745 10.3428L13.7364 10.3058L13.7359 10.233L13.7756 10.1836L13.7526 10.1696C13.7356 10.1776 13.6471 10.2034 13.6471 10.2034L13.6164 10.303L13.5723 10.3298C13.5073 10.218 13.431 10.114 13.345 10.0185L13.711 9.6525L13.7142 9.65766L13.8033 9.60408L13.7895 9.57394L13.8983 9.46514C14.1436 9.72914 14.3351 10.0425 14.4567 10.3895L14.3656 10.254L14.3186 10.2716L14.381 10.6365ZM13.8984 13.0557L13.7004 12.8577L13.6257 12.6596L13.5873 12.7445L13.5107 12.6679L13.5892 12.4272L13.5383 12.2526L13.5347 12.253C13.5885 12.1682 13.637 12.0798 13.6768 11.9865L13.6777 11.9864C13.69 11.9864 13.7348 11.9293 13.7348 11.9293L13.8449 11.9415L14.1295 11.829L14.0202 11.7254L13.9558 11.6679L13.906 11.5664L13.8168 11.4111C13.8182 11.3936 13.8186 11.376 13.8195 11.3584H14.6025C14.5783 12.0129 14.3159 12.6062 13.8984 13.0557ZM10.099 12.9304L10.197 12.7591L9.98605 12.0217L9.81969 11.6111L9.97058 11.5458L10.0114 11.4235L10.1133 11.4205C10.1488 11.8349 10.3212 12.2099 10.5845 12.5022L10.1523 12.9345L10.099 12.9304ZM10.3345 11.1228L10.3324 11.1626H10.3058C10.3067 11.1475 10.3069 11.1322 10.3081 11.1173L10.3345 11.1228ZM12.8474 12.6683L12.8139 12.6502L12.3869 12.8152L12.1656 12.7301L12.0626 12.7585V12.6178L12.1692 12.5857L12.2338 12.6012L12.3697 12.6544L12.2878 12.5045L12.4634 12.6518L12.5477 12.671L12.5221 12.5587L12.5792 12.373L12.7783 12.2515L12.7955 12.3633L12.5526 12.4953L12.5992 12.5883L12.8518 12.5373L12.8558 12.6633C12.8531 12.6649 12.8502 12.6665 12.8474 12.6683ZM11.8411 11.9331L11.8335 11.9167L11.7876 11.9194C11.7287 11.9034 11.6732 11.88 11.6217 11.8499L11.792 11.8292L11.8669 11.6283V11.9356C11.8584 11.9345 11.8495 11.9346 11.8411 11.9331ZM11.1255 11.5139L10.9591 11.4883L11.044 11.3583H11.0938C11.0998 11.4119 11.1103 11.4636 11.1255 11.5139ZM12.0626 10.8367L12.1085 10.8506L12.1662 10.9206L12.0626 11.0242V10.8367ZM12.3713 12.0808L12.2919 12.1738L12.1595 12.2397L12.1151 12.1619L12.0883 12.3165L12.0627 12.3266V12.1314C12.0813 12.1294 12.1003 12.129 12.1185 12.1258L12.1819 12.2053L12.2345 12.1398L12.2303 12.096C12.2595 12.0867 12.2893 12.0789 12.3172 12.0667L12.3713 12.0808ZM12.3118 11.0519L12.3096 11.1577L12.3058 11.1626H12.201L12.3118 11.0519ZM12.3746 11.4164L12.5013 11.4124L12.5704 11.4699L12.5474 11.5114L12.4507 11.4562L12.3977 11.4976L12.4243 11.577L12.4232 11.5805L12.2011 11.3584H12.3491L12.3746 11.4164ZM12.2908 11.7248L12.1698 11.7118L12.0843 11.9334C12.0772 11.9347 12.0698 11.9346 12.0627 11.9356V11.4967L12.2908 11.7248ZM11.6624 11.1625L11.6539 11.1269L11.5689 11.1625H11.5313L11.5438 11.1109L11.5986 11.0578L11.5551 11.0479L11.5098 11.1122L11.4628 11.1338L11.4683 11.1626H11.4189L11.4486 11.047L11.5356 10.9698L11.7284 11.1627H11.6624V11.1625ZM11.2993 11.3583L11.3193 11.382L11.3329 11.3583H11.4028L11.3118 11.4568C11.3022 11.4247 11.2945 11.3922 11.2896 11.3583H11.2993ZM11.4076 11.6563L11.5341 11.4377L11.501 11.4082L11.5568 11.3794L11.5638 11.3583H11.6528L11.6324 11.3692L11.6239 11.3986L11.6929 11.3939L11.6416 11.4452L11.5894 11.4562L11.5786 11.5082L11.418 11.6688C11.4147 11.6644 11.4108 11.6607 11.4076 11.6563ZM11.8669 10.6056L11.8303 10.6L11.8587 10.7174L11.867 10.7239V11.0242L11.7024 10.8597L11.8179 10.7973L11.7136 10.6245C11.7621 10.6053 11.8137 10.5929 11.8669 10.5852V10.6056ZM10.322 11.3583L10.32 11.3955L10.3118 11.4452C10.3087 11.4166 10.3076 11.3873 10.3059 11.3583L10.322 11.3583ZM10.4178 11.5908L10.5395 11.7132L10.6394 11.6436L10.8748 11.841L11.1279 11.8856L11.1987 11.6865C11.2225 11.7291 11.2493 11.7693 11.2797 11.8073L11.0623 12.0247L11.0972 11.9356L10.9678 11.9146L11.0092 12.0666L11.0153 12.0717L10.723 12.364C10.5325 12.1499 10.395 11.8875 10.3351 11.5965L10.4178 11.5908ZM11.418 11.9456C11.5444 12.0466 11.6978 12.1124 11.8669 12.1314V12.3577L11.8647 12.3631L11.8669 12.3624V12.5317L11.8099 12.5431L11.7769 12.7556L11.8669 12.7451V12.8125L11.7243 12.8519L11.6768 12.8977C11.367 12.8433 11.087 12.7032 10.8613 12.5024L11.418 11.9456ZM13.069 12.7532L13.2126 12.7837L13.3539 12.788L13.4316 12.8657L13.1943 12.8571L13.0414 12.7739C13.0508 12.7671 13.0598 12.76 13.069 12.7532ZM13.2066 12.3639L13.1638 12.321L13.251 12.3144C13.237 12.3315 13.2214 12.3473 13.2066 12.3639ZM13.4311 10.4756C13.3645 10.4766 13.3 10.4775 13.2942 10.4775C13.2819 10.4775 13.186 10.5594 13.186 10.5594L13.1127 10.6544L13.0906 10.5385L13.1426 10.4202L13.1025 10.3836L12.9231 10.4977L12.885 10.4785L13.0252 10.3384L13.056 10.3485L13.1454 10.3275L13.1 10.2637L13.2066 10.157C13.293 10.254 13.3692 10.3603 13.4311 10.4756ZM12.9062 10.1806L12.8976 10.1532L12.8396 10.1623L12.8035 10.2322L12.6439 10.2479C12.6555 10.2713 12.7052 10.3683 12.7097 10.377L12.5117 10.5751C12.4696 10.5414 12.4246 10.512 12.3767 10.4864L12.4012 10.4732L12.3721 10.3749L12.3523 10.3386L12.2639 10.4352C12.2 10.4119 12.1326 10.3972 12.0627 10.3893V9.60141C12.4476 9.62395 12.7972 9.77728 13.0683 10.0185L12.9062 10.1806ZM11.8669 10.3894C11.8037 10.3965 11.7429 10.4097 11.6844 10.4295L11.7137 10.3615L11.561 10.4815L11.5613 10.482C11.5103 10.5085 11.4626 10.5396 11.418 10.5752L10.8613 10.0186C11.1324 9.77742 11.4819 9.62409 11.8669 9.60155V10.3894ZM11.2482 10.6823L10.985 10.7283L10.9942 10.6283L10.7761 10.5531L10.4272 10.626C10.499 10.4527 10.6001 10.2951 10.7228 10.157L11.2482 10.6823ZM10.4034 10.6911L10.513 10.714L10.3817 10.7503C10.3881 10.7302 10.3962 10.7108 10.4034 10.6911ZM10.1101 11.1625H10.0931L10.1109 11.1461C10.1106 11.1516 10.1104 11.1571 10.1101 11.1625ZM10.3188 13.0448L10.7229 12.6407C10.9435 12.8393 11.211 12.9855 11.5074 13.0609L11.3683 13.195L11.6678 13.5908L11.8669 13.6018V13.8982C11.3441 13.8789 10.8598 13.7089 10.4569 13.4277L10.5216 13.3857L10.3188 13.0448ZM12.0626 13.6125L12.315 13.6265L12.3215 13.6844L12.475 13.8526C12.341 13.879 12.203 13.893 12.0626 13.8982V13.6125ZM13.6661 13.1L13.76 13.194C13.7151 13.2357 13.6699 13.2771 13.6221 13.3158L13.6661 13.1ZM13.76 9.32686L13.7027 9.38419L13.6347 9.23569L13.5111 9.16997C13.5111 9.16997 13.3961 9.06844 13.3362 9.00591C13.4883 9.09877 13.6301 9.20611 13.76 9.32686ZM13.3095 8.98964L13.396 9.29222L13.598 9.46809L13.6059 9.48094L13.2066 9.88022C12.8998 9.6038 12.5015 9.42877 12.0626 9.40575V8.62275C12.517 8.63958 12.9415 8.77092 13.3095 8.98964ZM11.8669 9.40584C11.428 9.42886 11.0298 9.60389 10.7229 9.88031L10.1695 9.32691C10.6189 8.90934 11.2123 8.64703 11.8669 8.62289V9.40584ZM10.5845 10.0186C10.3748 10.2515 10.2227 10.5365 10.1516 10.8527L9.97953 11.1625H9.32708C9.35122 10.508 9.61353 9.91458 10.031 9.46519L10.5845 10.0186ZM9.88522 11.3583L9.69931 11.7579L9.43635 11.6601L9.38699 11.8351C9.35258 11.6808 9.33313 11.5213 9.32713 11.3582H9.88517L9.88522 11.3583ZM9.68914 13.3403L9.71952 13.3672L9.33931 13.7474C9.07677 13.4704 8.85866 13.1522 8.69347 12.8034L8.79458 12.8625L9.46897 13.4625L9.68914 13.3403ZM9.86628 13.4972L9.95835 13.5788L10.2569 13.5221C10.7083 13.8637 11.2633 14.073 11.8669 14.0938V14.8768C10.9425 14.8519 10.1048 14.4802 9.47769 13.8857L9.86628 13.4972ZM12.0626 14.0939C12.2285 14.0882 12.3914 14.0709 12.5489 14.0377L12.5671 14.1584L13.0336 14.5024L13.5589 14.211L13.7097 13.893L13.6998 13.6964L13.799 13.4637L13.7748 13.4447C13.8177 13.4092 13.8577 13.3704 13.8983 13.3324L13.9886 13.4226L14.0161 13.5931L14.1185 13.5525L14.4519 13.8858C13.8247 14.4802 12.987 14.852 12.0627 14.8769V14.0939H12.0626ZM14.1653 13.3225L14.1466 13.0996L14.1215 13.1008C14.5255 12.628 14.7754 12.0219 14.7982 11.3583H15.5812C15.5563 12.2826 15.1846 13.1202 14.5903 13.7474L14.1653 13.3225ZM14.7981 11.1625C14.7812 10.6686 14.638 10.2073 14.399 9.80822L14.7318 10.1195L14.9989 9.89016L14.589 9.2723L14.3185 9.06431L14.3192 9.04439L14.5902 8.77341C15.1845 9.40055 15.5562 10.2382 15.5811 11.1625H14.7981V11.1625ZM11.8669 8.42705C11.1584 8.45137 10.5162 8.73558 10.0312 9.18848L9.47774 8.63508C10.1049 8.04066 10.9426 7.66894 11.8669 7.64405V8.42705ZM9.89277 9.32695C9.43991 9.81197 9.15575 10.4541 9.13138 11.1626H8.34838C8.37327 10.2383 8.74499 9.40069 9.33931 8.77355L9.89277 9.32695ZM9.13138 11.3583C9.14136 11.6493 9.19489 11.9289 9.28649 12.1914L9.25696 12.2963L8.49195 12.2795C8.40566 11.986 8.35705 11.6773 8.34842 11.3583H9.13138Z" fill="#F5F5F5"/>
<path d="M9.3277 15.7953L10.0344 15.6809C10.0976 15.6707 10.1238 15.5944 10.08 15.5477C9.91003 15.3661 9.5722 14.99 9.37654 14.6698C9.10739 14.2294 8.63348 13.8663 8.63348 13.8663C8.63348 13.8663 8.72404 15.0776 9.63754 15.4936C9.63754 15.4936 8.7322 15.2652 8.15311 15.1102C7.57401 14.9553 7.41553 14.7847 7.41553 14.7847C7.41553 14.7847 7.86778 15.942 9.3277 15.7953Z" fill="#F5F5F5"/>
<path d="M8.62626 14.4414C8.60179 14.1396 8.38119 13.368 7.96541 12.7302C7.96541 12.7302 7.96593 14.2803 8.51629 14.8053C8.51629 14.8053 7.73723 14.058 7.27232 13.7154C6.83704 13.3948 6.64429 13.0303 6.64429 13.0303C6.64429 13.0303 6.76124 14.0098 7.39466 14.4984C7.82282 14.8287 8.77307 15.0612 8.77307 15.0612C8.77307 15.0612 8.65073 14.7431 8.62626 14.4414Z" fill="#F5F5F5"/>
<path d="M7.13385 13.2831L7.60982 13.6948C7.65946 13.7377 7.7368 13.7038 7.73783 13.6382C7.74041 13.4726 7.75054 13.2213 7.78635 13.0629C7.84344 12.81 7.91404 11.989 7.6259 11.3923C7.6259 11.3923 7.27757 12.4618 7.54982 13.3524C7.54982 13.3524 7.12218 12.6725 6.68525 12.1575C6.45688 11.8884 6.36646 11.571 6.36646 11.571C6.36646 11.571 6.359 12.6388 7.13385 13.2831Z" fill="#F5F5F5"/>
<path d="M7.00313 12.2296C7.04045 12.2799 7.11784 12.2692 7.13917 12.2104C7.20174 12.0378 7.32315 11.7273 7.48445 11.4317C7.77807 10.8934 7.64265 10.2599 7.64265 10.2599C7.64265 10.2599 7.17128 11.0678 7.03463 11.9657C7.02573 11.9257 7.01598 11.8829 7.00431 11.834C6.87493 11.2902 6.37173 9.93361 6.37173 9.93361C6.37173 9.93361 6.19473 10.6786 6.41593 11.2686C6.52956 11.5714 6.84718 12.0192 7.00313 12.2296Z" fill="#F5F5F5"/>
<path d="M6.90615 11.0386C6.92035 11.0927 6.99615 11.0941 7.01227 11.0405C7.05732 10.8909 7.15098 10.6848 7.34588 10.4856C7.71291 10.1105 7.99121 9.58964 8.13343 9.12412C8.13343 9.12412 7.35034 9.75244 7.1034 10.1761C7.1034 10.1761 7.12782 9.59348 7.04405 9.17245C6.97266 8.81358 7.12435 8.46787 7.12435 8.46787C7.12435 8.46787 6.62813 8.94417 6.70149 9.81684C6.74771 10.3659 6.84235 10.7954 6.90615 11.0386Z" fill="#F5F5F5"/>
<path d="M7.4021 9.54262C7.55065 9.40645 7.8108 9.17452 8.06163 9.03375C8.39468 8.84691 8.65807 8.24419 8.71614 8.11008C8.71614 8.11008 7.78816 8.8695 7.53555 9.11325C7.53555 9.11325 7.6885 8.43427 7.78638 8.14064C7.88425 7.84702 7.87202 7.74914 7.95766 7.6268C7.95766 7.6268 7.51113 8.0183 7.38874 8.33025C7.28819 8.58666 7.30746 9.16945 7.29377 9.4912C7.29124 9.54952 7.35911 9.58205 7.4021 9.54262Z" fill="#F5F5F5"/>
<path d="M8.34078 8.17739C8.60177 7.96533 9.01774 7.34545 9.01774 7.34545C8.91467 7.40433 8.49574 7.54936 8.14507 7.90823C7.79435 8.26711 7.72095 8.75644 7.72095 8.75644C7.72095 8.75644 8.07978 8.38945 8.34078 8.17739Z" fill="#F5F5F5"/>
<path d="M14.2673 15.9747C13.5006 15.8238 12.8441 15.7137 12.0744 15.9139C12.0365 15.9238 12.0011 15.9351 11.9646 15.9458C11.9281 15.9352 11.8927 15.9238 11.8549 15.9139C11.0853 15.7138 10.4287 15.8238 9.662 15.9747C8.97097 16.1107 8.30933 15.993 8.30933 15.993C8.30933 15.993 8.78933 16.4805 9.88226 16.4805C10.3591 16.4805 10.9583 16.0791 11.3364 16.0577C11.4295 16.0524 11.5214 16.0581 11.6125 16.0683C10.8006 16.3995 10.4259 16.9017 10.4185 16.9114C10.3859 16.9545 10.3944 17.0158 10.4374 17.0483C10.455 17.0618 10.4758 17.0684 10.4964 17.0684C10.526 17.0684 10.5552 17.055 10.5744 17.0298C10.6043 16.9905 11.204 16.3701 11.9646 16.1409C12.7253 16.3701 13.325 16.9905 13.3549 17.0298C13.374 17.055 13.4033 17.0684 13.4329 17.0684C13.4535 17.0684 13.4742 17.0618 13.4919 17.0483C13.5349 17.0158 13.5433 16.9544 13.5108 16.9114C13.5034 16.9017 13.1286 16.3995 12.3168 16.0683C12.4078 16.0582 12.4998 16.0525 12.5929 16.0577C12.971 16.0792 13.5702 16.4805 14.047 16.4805C15.14 16.4805 15.62 15.993 15.62 15.993C15.62 15.993 14.9583 16.1106 14.2673 15.9747Z" fill="#F5F5F5"/>
<path d="M14.2917 15.4935C15.2052 15.0775 15.2957 13.8662 15.2957 13.8662C15.2957 13.8662 14.8218 14.2293 14.5527 14.6697C14.3571 14.9898 14.0192 15.366 13.8493 15.5476C13.8056 15.5943 13.8317 15.6706 13.8949 15.6808L14.6016 15.7952C16.0615 15.942 16.5136 14.7846 16.5136 14.7846C16.5136 14.7846 16.3551 14.9552 15.7761 15.1101C15.197 15.2651 14.2917 15.4935 14.2917 15.4935Z" fill="#F5F5F5"/>
<path d="M16.657 13.7154C16.1921 14.058 15.413 14.8053 15.413 14.8053C15.9634 14.2803 15.9639 12.7302 15.9639 12.7302C15.5481 13.368 15.3275 14.1396 15.3031 14.4414C15.2786 14.7432 15.1562 15.0613 15.1562 15.0613C15.1562 15.0613 16.1064 14.8288 16.5347 14.4985C17.1681 14.0099 17.285 13.0304 17.285 13.0304C17.285 13.0304 17.0923 13.3948 16.657 13.7154Z" fill="#F5F5F5"/>
<path d="M16.3799 13.3525C16.6521 12.4618 16.3038 11.3924 16.3038 11.3924C16.0157 11.9892 16.0862 12.8102 16.1433 13.063C16.1792 13.2214 16.1893 13.4727 16.1919 13.6383C16.1929 13.7039 16.2702 13.7378 16.3199 13.6949L16.7958 13.2832C17.5707 12.6389 17.5632 11.5712 17.5632 11.5712C17.5632 11.5712 17.4728 11.8885 17.2444 12.1577C16.8075 12.6725 16.3799 13.3525 16.3799 13.3525Z" fill="#F5F5F5"/>
<path d="M16.8951 11.9658C16.7584 11.0679 16.287 10.2599 16.287 10.2599C16.287 10.2599 16.1516 10.8935 16.4452 11.4318C16.6064 11.7274 16.7279 12.0378 16.7905 12.2105C16.8119 12.2693 16.8892 12.2799 16.9266 12.2296C17.0826 12.0192 17.4001 11.5715 17.5137 11.2686C17.7349 10.6786 17.5579 9.93361 17.5579 9.93361C17.5579 9.93361 17.0547 11.2902 16.9253 11.834C16.9137 11.883 16.904 11.9257 16.8951 11.9658Z" fill="#F5F5F5"/>
<path d="M16.8853 9.17241C16.8016 9.59344 16.8259 10.176 16.8259 10.176C16.579 9.75239 15.7959 9.12408 15.7959 9.12408C15.9381 9.58955 16.2165 10.1104 16.5834 10.4856C16.7784 10.6848 16.872 10.8909 16.9171 11.0404C16.9332 11.094 17.009 11.0926 17.0232 11.0385C17.087 10.7955 17.1816 10.3658 17.2278 9.81675C17.3012 8.94408 16.8049 8.46778 16.8049 8.46778C16.8049 8.46778 16.9567 8.81358 16.8853 9.17241Z" fill="#F5F5F5"/>
<path d="M16.394 9.1133C16.1414 8.86945 15.2134 8.11012 15.2134 8.11012C15.2715 8.24423 15.5348 8.847 15.8679 9.0338C16.1187 9.17447 16.3789 9.40645 16.5274 9.54267C16.5704 9.58205 16.6383 9.54956 16.6358 9.4913C16.6221 9.16959 16.6413 8.58675 16.5408 8.33034C16.4184 8.01839 15.9719 7.62689 15.9719 7.62689C16.0575 7.74923 16.0453 7.84711 16.1431 8.14073C16.241 8.43431 16.394 9.1133 16.394 9.1133Z" fill="#F5F5F5"/>
<path d="M15.5885 8.17739C15.8495 8.38941 16.2084 8.75644 16.2084 8.75644C16.2084 8.75644 16.135 8.26706 15.7843 7.90823C15.4336 7.54936 15.0147 7.40433 14.9116 7.34545C14.9116 7.34545 15.3275 7.96533 15.5885 8.17739Z" fill="#F5F5F5"/>
<path d="M13.9896 10.1948L13.8232 10.3044L14.0007 10.3321L14.1946 10.5466L14.3032 10.4767L14.173 10.2103L13.9896 10.1948Z" fill="#F5F5F5"/>
<path d="M14.252 11.1084L14.3135 11.132L14.4695 10.713L14.4267 10.6548L14.3594 10.6885L14.2524 11.0678L14.252 11.1084Z" fill="#F5F5F5"/>
<path d="M12.6864 10.3979L12.6375 10.346L12.5273 10.4866L12.5547 10.5292L12.6864 10.3979Z" fill="#F5F5F5"/>
<path d="M13.8138 10.0707L13.8435 9.97495L13.745 9.99492L13.7172 10.0028L13.688 10.0419L13.7944 10.1654L13.8376 10.1287L13.8138 10.0707Z" fill="#F5F5F5"/>
<path d="M11.8361 12.3126L11.8376 12.253L11.7627 12.3615L11.7841 12.3982L11.8361 12.3126Z" fill="#F5F5F5"/>
</svg>
