<svg width="24" height="24" viewBox="0 0 24 24" fill="none" xmlns="http://www.w3.org/2000/svg">
<path d="M22.2134 4.13794H1.78664C0.798984 4.14371 0 4.94602 0 5.93508V18.0644C0 19.0571 0.804703 19.8618 1.79742 19.8618H22.2026C23.1952 19.8618 24 19.0571 24 18.0644V5.93508C24 4.94602 23.201 4.14371 22.2134 4.13794Z" fill="#41479B"/>
<path d="M23.358 4.55855L0.642334 19.4412C0.954756 19.7035 1.35751 19.8617 1.79738 19.8617H22.2025C23.1952 19.8617 24 19.057 24 18.0643V5.93503C24 5.38242 23.7503 4.88831 23.358 4.55855Z" fill="#73AF00"/>
<path d="M24 4.55171C24 4.32319 23.8147 4.13789 23.5862 4.13789H22.8672L0 19.1199V19.4483C0 19.6768 0.185297 19.8621 0.413813 19.8621H1.13283L24 4.88011V4.55171Z" fill="#FFE15A"/>
<path d="M2.08267 5.4271L1.86114 6.09127L1.16101 6.09671C1.09389 6.09722 1.06604 6.18291 1.12004 6.2228L1.68324 6.63872L1.47207 7.30627C1.45178 7.3703 1.52471 7.42322 1.57937 7.38422L2.14899 6.97711L2.71862 7.38422C2.77323 7.42327 2.84612 7.3703 2.82592 7.30627L2.61474 6.63872L3.17795 6.2228C3.23195 6.18291 3.2041 6.09722 3.13698 6.09671L2.43685 6.09127L2.21532 5.4271C2.19404 5.36339 2.10395 5.36339 2.08267 5.4271Z" fill="#F5F5F5"/>
<path d="M7.41616 5.4271L7.19463 6.09127L6.49451 6.09671C6.42738 6.09722 6.39954 6.18291 6.45354 6.2228L7.01674 6.63872L6.80557 7.30627C6.78527 7.3703 6.85821 7.42322 6.91287 7.38422L7.48249 6.97711L8.05212 7.38422C8.10672 7.42327 8.17962 7.3703 8.15941 7.30627L7.94824 6.63872L8.51144 6.2228C8.56544 6.18291 8.5376 6.09722 8.47048 6.09671L7.77035 6.09127L7.54882 5.4271C7.52749 5.36339 7.4374 5.36339 7.41616 5.4271Z" fill="#F5F5F5"/>
<path d="M4.74941 7.80356L4.52788 8.46773L3.82776 8.47317C3.76063 8.47369 3.73279 8.55937 3.78679 8.59926L4.34999 9.01519L4.13882 9.68273C4.11852 9.74676 4.19146 9.79969 4.24612 9.76069L4.81574 9.35358L5.38537 9.76069C5.43998 9.79973 5.51287 9.74676 5.49266 9.68273L5.28149 9.01519L5.8447 8.59926C5.8987 8.55937 5.87085 8.47369 5.80373 8.47317L5.1036 8.46773L4.88207 7.80356C4.8607 7.73986 4.77065 7.73986 4.74941 7.80356Z" fill="#F5F5F5"/>
<path d="M2.08267 10.18L1.86114 10.8442L1.16101 10.8496C1.09389 10.8502 1.06604 10.9358 1.12004 10.9757L1.68324 11.3917L1.47207 12.0592C1.45178 12.1232 1.52471 12.1762 1.57937 12.1372L2.14899 11.73L2.71862 12.1372C2.77323 12.1762 2.84612 12.1232 2.82592 12.0592L2.61474 11.3917L3.17795 10.9757C3.23195 10.9358 3.2041 10.8502 3.13698 10.8496L2.43685 10.8442L2.21532 10.18C2.19404 10.1163 2.10395 10.1163 2.08267 10.18Z" fill="#F5F5F5"/>
<path d="M7.41616 10.18L7.19463 10.8442L6.49451 10.8496C6.42738 10.8502 6.39954 10.9358 6.45354 10.9757L7.01674 11.3917L6.80557 12.0592C6.78527 12.1232 6.85821 12.1762 6.91287 12.1372L7.48249 11.73L8.05212 12.1372C8.10672 12.1762 8.17962 12.1232 8.15941 12.0592L7.94824 11.3917L8.51144 10.9757C8.56544 10.9358 8.5376 10.8502 8.47048 10.8496L7.77035 10.8442L7.54882 10.18C7.52749 10.1163 7.4374 10.1163 7.41616 10.18Z" fill="#F5F5F5"/>
</svg>
