<svg width="24" height="24" viewBox="0 0 24 24" fill="none" xmlns="http://www.w3.org/2000/svg">
<path d="M8.68965 9.37918H0V11.1262H8.68965V9.37918Z" fill="#F5F5F5"/>
<path d="M8.68961 5.88509H23.9986C23.9719 4.91572 23.1783 4.13797 22.2025 4.13797H1.79741C0.8047 4.13792 0 4.94267 0 5.93534V7.63221H8.68961V5.88509Z" fill="#F5F5F5"/>
<path d="M1.79732 19.862H22.2024C23.1782 19.862 23.9718 19.0842 23.9985 18.1149H0.0012207C0.0278925 19.0842 0.821483 19.862 1.79732 19.862Z" fill="#F5F5F5"/>
<path d="M8.6897 5.88509V7.63221H24V5.93534C24 5.91846 23.9992 5.90182 23.9987 5.88504L8.6897 5.88509Z" fill="#4173CD"/>
<path d="M0 7.6322V9.37927H8.68961H23.9999V7.6322H8.68961H0Z" fill="#F5F5F5"/>
<path d="M23.9999 9.37918H8.6897V11.1262H23.9999V9.37918Z" fill="#4173CD"/>
<path d="M0 11.1264V12.8736H23.9999V11.1264H8.68961H0Z" fill="#F5F5F5"/>
<path d="M23.9999 12.8737H0V14.6207H23.9999V12.8737Z" fill="#4173CD"/>
<path d="M23.9999 14.6207H0V16.3678H23.9999V14.6207Z" fill="#F5F5F5"/>
<path d="M0 18.0646C0 18.0815 0.000843747 18.0981 0.00131249 18.1149H23.9987C23.9992 18.0981 24 18.0815 24 18.0646V16.3678H0V18.0646Z" fill="#4173CD"/>
<path d="M2.99878 5.23325L3.69098 8.4363L4.77412 7.98766L2.99878 5.23325Z" fill="#FFE15A"/>
<path d="M2.99878 5.23325L4.23252 8.21195L3.69098 8.4363L2.99878 5.23325Z" fill="#FFCD5A"/>
<path d="M5.69091 11.7322L4.99866 8.5292L3.91553 8.97784L5.69091 11.7322Z" fill="#FFE15A"/>
<path d="M5.69082 11.7322L4.45703 8.75354L4.99858 8.5292L5.69082 11.7322Z" fill="#FFCD5A"/>
<path d="M7.59441 7.13679L4.39136 7.82903L4.84 8.91217L7.59441 7.13679Z" fill="#FFE15A"/>
<path d="M7.59441 7.13679L4.61565 8.37058L4.39136 7.82903L7.59441 7.13679Z" fill="#FFCD5A"/>
<path d="M1.09521 9.82876L4.29826 9.13651L3.84958 8.05333L1.09521 9.82876Z" fill="#FFE15A"/>
<path d="M1.09521 9.82876L4.07392 8.59492L4.29826 9.13651L1.09521 9.82876Z" fill="#FFCD5A"/>
<path d="M5.69091 5.23325L3.91553 7.98766L4.99866 8.4363L5.69091 5.23325Z" fill="#FFE15A"/>
<path d="M5.69091 5.23325L4.45712 8.21195L3.91553 7.98766L5.69091 5.23325Z" fill="#FFCD5A"/>
<path d="M2.99878 11.7322L4.77412 8.97784L3.69098 8.5292L2.99878 11.7322Z" fill="#FFE15A"/>
<path d="M2.99878 11.7322L4.23252 8.75354L4.77412 8.97784L2.99878 11.7322Z" fill="#FFCD5A"/>
<path d="M7.59441 9.82876L4.84 8.05333L4.39136 9.13651L7.59441 9.82876Z" fill="#FFE15A"/>
<path d="M7.59423 9.82876L4.61548 8.59492L4.83982 8.05333L7.59423 9.82876Z" fill="#FFCD5A"/>
<path d="M1.09521 7.13679L3.84958 8.91217L4.29826 7.82903L1.09521 7.13679Z" fill="#FFE15A"/>
<path d="M1.09521 7.13679L4.07392 8.37058L3.84958 8.91217L1.09521 7.13679Z" fill="#FFCD5A"/>
<path d="M4.34476 4.96555L3.75854 8.18964H4.93093L4.34476 4.96555Z" fill="#FFE15A"/>
<path d="M4.34476 4.96555V8.18964H3.75854L4.34476 4.96555Z" fill="#FFCD5A"/>
<path d="M4.34476 12L4.93093 8.77586H3.75854L4.34476 12Z" fill="#FFE15A"/>
<path d="M4.34473 12V8.77586H4.9309L4.34473 12Z" fill="#FFCD5A"/>
<path d="M7.86204 8.48275L4.63794 7.89658V9.06891L7.86204 8.48275Z" fill="#FFE15A"/>
<path d="M7.86204 8.48275H4.63794V7.89658L7.86204 8.48275Z" fill="#FFCD5A"/>
<path d="M0.827637 8.48275L4.05173 9.06891V7.89658L0.827637 8.48275Z" fill="#FFE15A"/>
<path d="M0.827637 8.48275H4.05173V9.06892L0.827637 8.48275Z" fill="#FFCD5A"/>
<path d="M6.83177 5.99571L4.13745 7.861L4.96648 8.69003L6.83177 5.99571Z" fill="#FFE15A"/>
<path d="M6.83177 5.99571L4.55197 8.27552L4.13745 7.861L6.83177 5.99571Z" fill="#FFCD5A"/>
<path d="M1.85791 10.9698L4.55218 9.10454L3.72315 8.27551L1.85791 10.9698Z" fill="#FFE15A"/>
<path d="M1.85791 10.9698L4.13767 8.69003L4.55218 9.10454L1.85791 10.9698Z" fill="#FFCD5A"/>
<path d="M6.83177 10.9698L4.96648 8.27551L4.13745 9.10454L6.83177 10.9698Z" fill="#FFE15A"/>
<path d="M6.83181 10.9698L4.552 8.69003L4.96652 8.27551L6.83181 10.9698Z" fill="#FFCD5A"/>
<path d="M1.85791 5.99571L3.72315 8.69003L4.55218 7.861L1.85791 5.99571Z" fill="#FFE15A"/>
<path d="M1.85791 5.99571L4.13767 8.27552L3.72315 8.69003L1.85791 5.99571Z" fill="#FFCD5A"/>
<path d="M4.34495 9.65527C4.99241 9.65527 5.51729 9.1304 5.51729 8.48293C5.51729 7.83547 4.99241 7.31059 4.34495 7.31059C3.69748 7.31059 3.17261 7.83547 3.17261 8.48293C3.17261 9.1304 3.69748 9.65527 4.34495 9.65527Z" fill="#FFE15A"/>
</svg>
