<svg width="24" height="24" viewBox="0 0 24 24" fill="none" xmlns="http://www.w3.org/2000/svg">
<path d="M22.2134 4.13808H1.78664C0.798984 4.14389 0 4.94611 0 5.93517V12.0001H24V5.93517C24 4.94611 23.201 4.14389 22.2134 4.13808Z" fill="#FF4B55"/>
<path d="M0 18.0645C0 19.0572 0.804703 19.8619 1.79742 19.8619H22.2026C23.1952 19.8619 24 19.0572 24 18.0645V12.0001H0V18.0645Z" fill="#41479B"/>
<path d="M0.642375 19.4414L11.6062 12.2582C11.7921 12.1364 11.7921 11.8639 11.6062 11.7421L0.642 4.55869C0.249609 4.8884 0 5.38256 0 5.93517V18.0645C0 18.6173 0.249797 19.1116 0.642375 19.4414Z" fill="#F5F5F5"/>
<path d="M4.2422 11.7023C4.9598 11.7023 5.54153 11.1206 5.54153 10.403C5.54153 9.68537 4.9598 9.10364 4.2422 9.10364C3.5246 9.10364 2.94287 9.68537 2.94287 10.403C2.94287 11.1206 3.5246 11.7023 4.2422 11.7023Z" fill="#FFE15A"/>
<path d="M5.83087 11.6066C5.83602 11.7643 5.85318 11.9269 5.86972 12.0841C5.93465 12.7012 5.99076 13.2341 5.39816 13.4408C5.2581 13.4897 5.06722 13.5171 4.88272 13.5435C4.61783 13.5815 4.38065 13.6154 4.24269 13.7115C4.10474 13.6155 3.8676 13.5815 3.60266 13.5435C3.41816 13.5171 3.22724 13.4896 3.08722 13.4408C2.49463 13.2341 2.55074 12.7012 2.61566 12.0841C2.63221 11.9269 2.64932 11.7643 2.65452 11.6066C2.67294 11.048 2.55515 10.5006 2.47241 10.1911C2.61027 10.2477 2.80138 10.2988 3.03571 10.2946C3.13668 10.2926 3.25007 10.2782 3.37007 10.263C3.64401 10.2281 3.95446 10.1888 4.20294 10.287L4.24279 10.3048L4.28263 10.287C4.53107 10.1888 4.84157 10.2281 5.11551 10.263C5.23551 10.2782 5.3489 10.2926 5.44987 10.2946C5.68419 10.2988 5.87535 10.2477 6.01316 10.1911C5.93019 10.5006 5.81244 11.048 5.83087 11.6066Z" fill="#8CD7FF"/>
<path d="M6.04729 11.5994C6.02118 10.8075 6.29137 10.0131 6.29413 10.0051L6.12383 9.88556C6.12163 9.88739 5.86551 10.086 5.45394 10.0781C5.36451 10.0764 5.25674 10.0627 5.1426 10.0482C4.85605 10.0119 4.5328 9.97078 4.24265 10.0709C3.95249 9.97082 3.62929 10.0119 3.34269 10.0482C3.2286 10.0627 3.12079 10.0764 3.03135 10.0781C2.61979 10.086 2.36371 9.88734 2.36146 9.88556L2.19116 10.0051C2.19383 10.0131 2.46412 10.8075 2.43801 11.5994C2.43308 11.7494 2.4164 11.908 2.40018 12.0615C2.33507 12.6805 2.26124 13.3822 3.01579 13.6454C3.17568 13.7011 3.37771 13.7257 3.57182 13.7579C4.15462 13.8545 4.2426 14.0033 4.2426 14.0033C4.2426 14.0033 4.33058 13.8544 4.91338 13.7579C5.10749 13.7257 5.30952 13.7011 5.46941 13.6454C6.22401 13.3822 6.15022 12.6805 6.08502 12.0615C6.06894 11.908 6.05221 11.7494 6.04729 11.5994ZM5.83087 11.6066C5.83602 11.7643 5.85318 11.9269 5.86972 12.0841C5.93465 12.7012 5.99076 13.2341 5.39816 13.4408C5.2581 13.4897 5.06722 13.5171 4.88272 13.5435C4.61783 13.5815 4.38065 13.6154 4.24269 13.7115C4.10474 13.6154 3.8676 13.5815 3.60266 13.5435C3.41816 13.5171 3.22724 13.4896 3.08722 13.4408C2.49463 13.2341 2.55074 12.7012 2.61566 12.0841C2.63221 11.9269 2.64932 11.7643 2.65452 11.6066C2.67294 11.048 2.55515 10.5006 2.47241 10.1911C2.61027 10.2477 2.80138 10.2988 3.03571 10.2946C3.13668 10.2926 3.25007 10.2782 3.37007 10.263C3.64401 10.2281 3.95446 10.1888 4.20294 10.287L4.24279 10.3048L4.28263 10.287C4.53107 10.1888 4.84157 10.2281 5.11551 10.263C5.23551 10.2782 5.3489 10.2926 5.44987 10.2946C5.68419 10.2988 5.87535 10.2477 6.01316 10.1911C5.93019 10.5006 5.81244 11.048 5.83087 11.6066Z" fill="#FF4B55"/>
<path d="M5.35914 12.9378V12.4605H5.44094V12.3198H5.24088V11.8295H5.44094L4.52604 11.1814V10.9376H4.6533L4.24249 10.6466L3.83177 10.9376H3.95894V11.1814L3.04404 11.8295H3.24414V12.3198H3.04404V12.4605H3.12588V12.9378H3.00635V13.1439H5.47872V12.9378H5.35914Z" fill="#F5F5F5"/>
<path d="M3.05599 10.9844C3.02683 11.0535 3.0318 11.1267 3.06279 11.1806C3.12307 11.1652 3.17894 11.1177 3.20815 11.0487C3.2373 10.9796 3.23233 10.9064 3.20135 10.8525C3.14112 10.8678 3.08519 10.9153 3.05599 10.9844Z" fill="#41AA5A"/>
<path d="M3.19766 11.0061C3.21674 11.0786 3.26544 11.1336 3.32286 11.1573C3.36121 11.1083 3.37644 11.0366 3.35736 10.9641C3.33828 10.8915 3.28958 10.8366 3.23216 10.8129C3.19386 10.8618 3.17858 10.9335 3.19766 11.0061Z" fill="#41AA5A"/>
<path d="M3.41793 10.8855C3.48824 10.9116 3.56113 10.9035 3.61363 10.8701C3.59568 10.8106 3.54575 10.7568 3.47549 10.7307C3.40518 10.7046 3.33229 10.7127 3.27979 10.746C3.29774 10.8056 3.34761 10.8594 3.41793 10.8855Z" fill="#41AA5A"/>
<path d="M3.48382 10.7618C3.55244 10.7316 3.59918 10.675 3.61361 10.6145C3.55924 10.5843 3.48602 10.5804 3.41739 10.6106C3.34877 10.6408 3.30208 10.6974 3.2876 10.7579C3.34188 10.7881 3.41514 10.792 3.48382 10.7618Z" fill="#41AA5A"/>
<path d="M3.02262 10.8244C3.08379 10.781 3.11815 10.7162 3.12017 10.654C3.06087 10.6353 2.98831 10.6463 2.92714 10.6896C2.86596 10.733 2.83161 10.7978 2.82959 10.86C2.88889 10.8786 2.9615 10.8677 3.02262 10.8244Z" fill="#41AA5A"/>
<path d="M2.97148 10.7337C3.06561 10.7876 3.16643 10.8022 3.24143 10.7806C3.22212 10.7049 3.15851 10.6254 3.06439 10.5715C2.97026 10.5176 2.86943 10.503 2.79443 10.5246C2.81375 10.6003 2.8774 10.6799 2.97148 10.7337Z" fill="#41AA5A"/>
<path d="M3.36853 10.8442C3.36853 10.8076 3.33942 10.7782 3.30314 10.7768C3.30178 10.7406 3.27243 10.7115 3.23578 10.7115C3.19912 10.7115 3.16978 10.7406 3.16842 10.7768C3.13214 10.7782 3.10303 10.8076 3.10303 10.8442C3.10303 10.8808 3.13214 10.9102 3.16842 10.9116C3.16978 10.9478 3.19912 10.977 3.23578 10.977C3.27243 10.977 3.30178 10.9478 3.30314 10.9116C3.33942 10.9102 3.36853 10.8809 3.36853 10.8442Z" fill="#FFE15A"/>
<path d="M3.23589 10.8844C3.25789 10.8844 3.27573 10.8665 3.27573 10.8445C3.27573 10.8225 3.25789 10.8047 3.23589 10.8047C3.21388 10.8047 3.19604 10.8225 3.19604 10.8445C3.19604 10.8665 3.21388 10.8844 3.23589 10.8844Z" fill="#F5F5F5"/>
<path d="M3.15663 10.7771C3.15663 10.747 3.13268 10.7228 3.10291 10.7218C3.10179 10.692 3.0776 10.668 3.04755 10.668C3.01746 10.668 2.99327 10.692 2.9922 10.7218C2.96238 10.7229 2.93848 10.7471 2.93848 10.7771C2.93848 10.8072 2.96243 10.8314 2.9922 10.8325C2.99332 10.8623 3.01751 10.8862 3.04755 10.8862C3.07765 10.8862 3.10184 10.8622 3.10291 10.8325C3.13268 10.8314 3.15663 10.8072 3.15663 10.7771Z" fill="#FFE15A"/>
<path d="M3.04737 10.8097C3.06544 10.8097 3.08009 10.7951 3.08009 10.777C3.08009 10.759 3.06544 10.7443 3.04737 10.7443C3.0293 10.7443 3.01465 10.759 3.01465 10.777C3.01465 10.7951 3.0293 10.8097 3.04737 10.8097Z" fill="#F5F5F5"/>
<path d="M3.35986 10.6833C3.35986 10.6616 3.34256 10.6442 3.32114 10.6434C3.32029 10.6219 3.30295 10.6047 3.28125 10.6047C3.25954 10.6047 3.24215 10.622 3.24136 10.6434C3.21989 10.6442 3.20264 10.6616 3.20264 10.6833C3.20264 10.705 3.21993 10.7224 3.24136 10.7232C3.2422 10.7446 3.25954 10.7619 3.28125 10.7619C3.30295 10.7619 3.32034 10.7446 3.32114 10.7232C3.34261 10.7224 3.35986 10.7049 3.35986 10.6833Z" fill="#FFE15A"/>
<path d="M3.28115 10.7069C3.29417 10.7069 3.30472 10.6963 3.30472 10.6833C3.30472 10.6703 3.29417 10.6597 3.28115 10.6597C3.26812 10.6597 3.25757 10.6703 3.25757 10.6833C3.25757 10.6963 3.26812 10.7069 3.28115 10.7069Z" fill="#F5F5F5"/>
<path d="M3.21069 10.6154C3.21069 10.5937 3.19339 10.5763 3.17197 10.5755C3.17112 10.554 3.15378 10.5368 3.13208 10.5368C3.11042 10.5368 3.09298 10.5541 3.09219 10.5755C3.07072 10.5764 3.05347 10.5937 3.05347 10.6154C3.05347 10.6371 3.07076 10.6545 3.09219 10.6553C3.09303 10.6768 3.11037 10.694 3.13208 10.694C3.15373 10.694 3.17117 10.6767 3.17197 10.6553C3.19344 10.6545 3.21069 10.6371 3.21069 10.6154Z" fill="#FFE15A"/>
<path d="M3.13198 10.6389C3.145 10.6389 3.15555 10.6283 3.15555 10.6153C3.15555 10.6023 3.145 10.5917 3.13198 10.5917C3.11896 10.5917 3.1084 10.6023 3.1084 10.6153C3.1084 10.6283 3.11896 10.6389 3.13198 10.6389Z" fill="#F5F5F5"/>
<path d="M4.94092 11.2106H5.6919C5.64381 11.1005 5.54945 11.0152 5.43245 10.9806C5.44098 10.9259 5.44623 10.8652 5.44623 10.8001C5.44623 10.5733 5.38815 10.3894 5.31643 10.3894C5.24471 10.3894 5.18664 10.5733 5.18664 10.8001C5.18664 10.8652 5.19184 10.9259 5.20042 10.9806C5.08337 11.0153 4.98896 11.1004 4.94092 11.2106Z" fill="#F5F5F5"/>
<path d="M4.24255 14.8967C2.66033 14.8967 1.37305 13.6095 1.37305 12.0272H1.91445C1.91445 13.3109 2.95883 14.3552 4.2425 14.3552C5.52617 14.3552 6.57055 13.3109 6.57055 12.0272H7.11205C7.11205 13.6095 5.82486 14.8967 4.24255 14.8967Z" fill="#FFE15A"/>
<path d="M5.30606 9.46322H4.83811C4.88508 9.46322 4.92319 9.42515 4.92319 9.37814C4.92319 9.33112 4.88512 9.29306 4.83811 9.29306H4.24256C4.19559 9.29306 4.15748 9.33112 4.15748 9.37814C4.15748 9.42515 4.19555 9.46322 4.24256 9.46322H3.17911C3.10861 9.46322 3.05151 9.52036 3.05151 9.59081C3.05151 9.66126 3.10865 9.7184 3.17911 9.7184H3.56194C3.51497 9.7184 3.4769 9.75647 3.4769 9.80348C3.4769 9.85045 3.51497 9.88856 3.56198 9.88856H4.32769C4.37465 9.88856 4.41276 9.8505 4.41276 9.80348C4.41276 9.75651 4.3747 9.7184 4.32773 9.7184H5.30611C5.37661 9.7184 5.4337 9.66126 5.4337 9.59081C5.4337 9.52036 5.37656 9.46322 5.30606 9.46322Z" fill="#C87878"/>
</svg>
