<svg width="24" height="24" viewBox="0 0 24 24" fill="none" xmlns="http://www.w3.org/2000/svg">
<path d="M22.2026 4.13794H1.79742C0.804703 4.13794 0 4.94264 0 5.93536V9.37931H24V5.93536C24 4.94264 23.1953 4.13794 22.2026 4.13794Z" fill="#F5F5F5"/>
<path d="M0 18.0647C0 19.0573 0.804703 19.8621 1.79742 19.8621H22.2026C23.1952 19.8621 24 19.0574 24 18.0647V14.6207H0V18.0647Z" fill="#FF4B55"/>
<path d="M24 9.37921H0V14.6203H24V9.37921Z" fill="#41479B"/>
<path d="M8.06304 7.37671C8.06304 7.37671 7.97969 10.0311 7.60723 10.7765C7.14616 11.6927 6.68262 11.96 5.99295 12.2069C5.30337 11.9601 4.83982 11.693 4.37866 10.7765C4.00624 10.0311 3.9228 7.37699 3.92285 7.37671C5.23896 6.78247 6.74693 6.78247 8.06304 7.37671Z" fill="#41479B"/>
<path d="M6.5925 11.0577C6.54206 11.0253 6.50569 11.0022 6.4229 11.0022C6.34036 11.0022 6.30398 11.0253 6.25378 11.0577C6.19626 11.0943 6.12473 11.1401 5.99175 11.1401C5.85867 11.1401 5.78714 11.0943 5.72962 11.0575C5.67942 11.0254 5.64314 11.0023 5.56059 11.0023C5.47804 11.0023 5.44176 11.0254 5.39156 11.0575C5.33723 11.0923 5.26856 11.1338 5.14917 11.1384C5.40047 11.4449 5.664 11.5903 5.99283 11.7165C6.32151 11.5903 6.58495 11.445 6.8363 11.1385C6.71606 11.1342 6.64701 11.0924 6.5925 11.0577Z" fill="#F5F5F5"/>
<path d="M4.96076 10.5674C5.01096 10.5995 5.04715 10.6226 5.12942 10.6226C5.21196 10.6226 5.24824 10.5995 5.29845 10.5674C5.35596 10.5305 5.42749 10.4847 5.56048 10.4847C5.69346 10.4847 5.76499 10.5306 5.82251 10.5672C5.87271 10.5995 5.90909 10.6227 5.99163 10.6227C6.07418 10.6227 6.11046 10.5996 6.16067 10.5675C6.21818 10.5306 6.28971 10.4848 6.42279 10.4848C6.55596 10.4848 6.62768 10.5307 6.68515 10.5673C6.73559 10.5996 6.77182 10.6228 6.85465 10.6228C6.93743 10.6228 6.97381 10.5997 7.02424 10.5673C7.07229 10.5367 7.13262 10.5012 7.22815 10.4899C7.25318 10.4247 7.27751 10.3504 7.30015 10.2602L6.68281 9.23129L6.45279 9.69132L5.99276 8.7713L5.53273 9.69132L5.30271 9.23129L4.68579 10.2595C4.70834 10.3497 4.73262 10.4243 4.7577 10.4899C4.85281 10.5012 4.91285 10.5366 4.96076 10.5674Z" fill="#F5F5F5"/>
<path d="M7.11694 10.7127C7.05943 10.7493 6.9878 10.7951 6.85458 10.7951C6.72151 10.7951 6.64988 10.7493 6.59237 10.7127C6.54193 10.6803 6.50555 10.6572 6.42277 10.6572C6.34022 10.6572 6.30385 10.6803 6.25365 10.7127C6.19613 10.7493 6.1246 10.7951 5.99162 10.7951C5.85854 10.7951 5.78701 10.7493 5.72949 10.7125C5.67929 10.6804 5.64301 10.6573 5.56046 10.6573C5.47791 10.6573 5.44163 10.6804 5.39143 10.7125C5.33391 10.7493 5.26238 10.7951 5.1294 10.7951C4.99651 10.7951 4.92507 10.7493 4.86774 10.7125C4.86741 10.7123 4.86722 10.7122 4.86694 10.712C4.91204 10.7938 4.95708 10.8689 5.00199 10.9371C5.03555 10.9555 5.07066 10.9676 5.1294 10.9676C5.21194 10.9676 5.24822 10.9445 5.29843 10.9124C5.35594 10.8756 5.42747 10.8298 5.56046 10.8298C5.69344 10.8298 5.76497 10.8756 5.82249 10.9122C5.87269 10.9446 5.90907 10.9677 5.99162 10.9677C6.07416 10.9677 6.11044 10.9446 6.16065 10.9125C6.21816 10.8757 6.28969 10.8299 6.42277 10.8299C6.55594 10.8299 6.62766 10.8757 6.68513 10.9123C6.73557 10.9447 6.7718 10.9678 6.85463 10.9678C6.91426 10.9678 6.94965 10.9555 6.98372 10.9367C7.02858 10.8687 7.07363 10.7935 7.11868 10.7118C7.11807 10.712 7.11755 10.7123 7.11694 10.7127Z" fill="#F5F5F5"/>
<path d="M6.00218 7.97916L6.04254 8.11106L6.17693 8.08008C6.18602 8.07797 6.1924 8.08899 6.18602 8.09578L6.09199 8.1967L6.18602 8.29763C6.1924 8.30447 6.18607 8.31549 6.17693 8.31333L6.04254 8.28235L6.00218 8.41425C5.99946 8.4232 5.98675 8.4232 5.98404 8.41425L5.94368 8.28235L5.80929 8.31333C5.80019 8.31544 5.79382 8.30442 5.80019 8.29763L5.89422 8.1967L5.80019 8.09578C5.79382 8.08889 5.80015 8.07792 5.80929 8.08008L5.94368 8.11106L5.98404 7.97916C5.9868 7.9702 5.99946 7.9702 6.00218 7.97916Z" fill="#FFE15A"/>
<path d="M5.3408 7.3454L5.38116 7.47731L5.51555 7.44632C5.52469 7.44421 5.53102 7.45523 5.52464 7.46202L5.43061 7.56295L5.52464 7.66387C5.53102 7.67076 5.52469 7.68173 5.51555 7.67957L5.38116 7.64859L5.3408 7.78049C5.33808 7.78945 5.32538 7.78945 5.32266 7.78049L5.2823 7.64859L5.14791 7.67957C5.13881 7.68168 5.13244 7.67066 5.13881 7.66387L5.23285 7.56295L5.13881 7.46202C5.13244 7.45518 5.13877 7.44416 5.14791 7.44632L5.2823 7.47731L5.32266 7.3454C5.32538 7.33645 5.33803 7.33645 5.3408 7.3454Z" fill="#FFE15A"/>
<path d="M6.66821 7.3454L6.70857 7.47731L6.84296 7.44632C6.85206 7.44421 6.85843 7.45523 6.85206 7.46202L6.75803 7.56295L6.85206 7.66387C6.85843 7.67076 6.8521 7.68173 6.84296 7.67957L6.70857 7.64859L6.66821 7.78049C6.66549 7.78945 6.65279 7.78945 6.65007 7.78049L6.60971 7.64859L6.47532 7.67957C6.46623 7.68168 6.45985 7.67066 6.46623 7.66387L6.56026 7.56295L6.46623 7.46202C6.45981 7.45518 6.46618 7.44416 6.47532 7.44632L6.60971 7.47731L6.65007 7.3454C6.65284 7.33645 6.66549 7.33645 6.66821 7.3454Z" fill="#FFE15A"/>
<path d="M7.82509 7.27679C7.8265 7.35015 7.82767 7.42417 7.82767 7.50409C7.79448 8.33397 7.67102 10.1412 7.40195 10.6855C7.00525 11.4822 6.63897 11.7455 5.99312 11.9882C5.34728 11.7456 4.98105 11.4823 4.58463 10.6861C4.31458 10.1397 4.19022 8.30176 4.15848 7.50414C4.15848 7.42412 4.1598 7.35095 4.16092 7.27698C4.08133 7.30811 4.0022 7.34111 3.92383 7.3765C3.92936 7.53765 3.96948 8.59487 4.09 9.52445C4.15797 10.0434 4.25153 10.5217 4.37889 10.7766C4.84 11.693 5.30355 11.9601 5.99317 12.207C6.68284 11.96 7.14639 11.6928 7.6075 10.7766C7.73491 10.5217 7.82842 10.0434 7.89644 9.52445C8.01691 8.59487 8.05698 7.53765 8.06256 7.3765C7.98405 7.34101 7.90488 7.30797 7.82509 7.27679Z" fill="#FF1722"/>
</svg>
