<svg width="24" height="24" viewBox="0 0 24 24" fill="none" xmlns="http://www.w3.org/2000/svg">
<path d="M22.2026 4.13789H1.79742C0.804703 4.13789 0 4.9426 0 5.93532V18.0647C0 19.0574 0.804703 19.8621 1.79742 19.8621H22.2026C23.1952 19.8621 24 19.0574 24 18.0647V5.93532C24 4.9426 23.1953 4.13789 22.2026 4.13789Z" fill="#F5F5F5"/>
<path d="M14.2974 8.55614C12.396 7.28854 9.82785 7.80679 8.5611 9.70485C7.92571 10.6522 8.18399 11.9396 9.13462 12.5734C10.0845 13.2072 11.3677 12.9498 12.0015 11.9991C12.6353 11.0484 13.9194 10.7942 14.8693 11.4247C15.8207 12.0584 16.0766 13.3458 15.4419 14.2932C16.7095 12.392 16.1971 9.82378 14.2974 8.55614Z" fill="#FF4B55"/>
<path d="M8.56104 9.70491C7.92565 10.6523 8.18393 11.9396 9.13455 12.5734C10.0845 13.2072 11.3677 12.9498 12.0015 11.9991C12.6353 11.0484 13.9193 10.7942 14.8692 11.4247C15.8207 12.0585 16.0766 13.3458 15.4419 14.2932C14.176 16.1978 11.6087 16.7096 9.70727 15.442C7.80762 14.1745 7.29349 11.6063 8.56104 9.70491Z" fill="#41479B"/>
<path d="M16.4025 6.99324L17.1541 8.12303C17.2173 8.21795 17.1917 8.3461 17.097 8.40953L16.9064 8.53717C16.8113 8.60082 16.6826 8.57523 16.6191 8.47998L15.8665 7.35048C15.8032 7.25546 15.8289 7.12707 15.9239 7.06365L16.1154 6.93578C16.2105 6.87226 16.3391 6.89804 16.4025 6.99324Z" fill="#464655"/>
<path d="M17.5622 8.73517L18.3162 9.86424C18.3799 9.95959 18.3539 10.0886 18.2583 10.1518L18.0668 10.2783C17.9718 10.3411 17.844 10.3153 17.7807 10.2206L17.0271 9.09273C16.9636 8.99776 16.9891 8.86928 17.0841 8.80576L17.2751 8.67807C17.3701 8.61456 17.4986 8.6401 17.5622 8.73517Z" fill="#464655"/>
<path d="M17.2073 6.45615L19.1212 9.32832C19.1845 9.42338 19.1588 9.55182 19.0637 9.6152L18.8715 9.74335C18.7764 9.80673 18.6479 9.78104 18.5845 9.68598L16.67 6.81399C16.6066 6.71888 16.6324 6.59035 16.7275 6.52698L16.9204 6.39859C17.0155 6.33545 17.1439 6.36109 17.2073 6.45615Z" fill="#464655"/>
<path d="M18.0097 5.9199L18.763 7.05188C18.8265 7.14722 18.8004 7.27594 18.7049 7.33908L18.5133 7.46565C18.4182 7.52846 18.2903 7.50263 18.2271 7.4078L17.4733 6.27732C17.4098 6.18226 17.4356 6.05377 17.5306 5.99035L17.7228 5.86229C17.8178 5.79891 17.9464 5.82465 18.0097 5.9199Z" fill="#464655"/>
<path d="M19.1702 7.66553L19.9223 8.79517C19.9856 8.89014 19.96 9.01839 19.8651 9.08181L19.6741 9.2095C19.579 9.27306 19.4503 9.24742 19.3869 9.15217L18.6348 8.02253C18.5716 7.92756 18.5972 7.79931 18.692 7.73589L18.883 7.6082C18.9782 7.54459 19.1068 7.57018 19.1702 7.66553Z" fill="#464655"/>
<path d="M6.22137 13.7804L8.135 16.6495C8.19837 16.7445 8.17278 16.8729 8.07772 16.9364L7.88609 17.0643C7.79103 17.1278 7.66254 17.1022 7.59908 17.007L5.68545 14.138C5.62203 14.043 5.64767 13.9145 5.74273 13.8511L5.9344 13.7231C6.02942 13.6597 6.15795 13.6853 6.22137 13.7804Z" fill="#464655"/>
<path d="M5.41797 14.317L6.16928 15.444C6.23261 15.5389 6.20706 15.6671 6.11223 15.7307L5.92164 15.8582C5.82662 15.9219 5.698 15.8963 5.63448 15.8012L4.88228 14.6746C4.81881 14.5795 4.8444 14.4511 4.93947 14.3876L5.131 14.2597C5.22601 14.1963 5.35454 14.2219 5.41797 14.317Z" fill="#464655"/>
<path d="M6.57887 16.0596L7.33103 17.1893C7.39431 17.2843 7.36867 17.4126 7.27374 17.476L7.08259 17.6038C6.98748 17.6674 6.8589 17.6417 6.79543 17.5465L6.04281 16.417C5.97948 16.322 6.00512 16.1936 6.10009 16.1302L6.29171 16.0022C6.38687 15.9386 6.51545 15.9644 6.57887 16.0596Z" fill="#464655"/>
<path d="M4.61448 14.8535L6.52689 17.7227C6.59022 17.8177 6.56458 17.9461 6.46975 18.0095L6.27864 18.1373C6.18358 18.2009 6.055 18.1752 5.99153 18.0801L4.078 15.2113C4.01458 15.1162 4.04031 14.9877 4.13537 14.9243L4.32766 14.7961C4.42262 14.7328 4.55111 14.7585 4.61448 14.8535Z" fill="#464655"/>
<path d="M5.6856 9.86443L7.59895 6.99301C7.66237 6.89785 7.7909 6.87217 7.88601 6.93563L8.07759 7.06356C8.1726 7.12698 8.1982 7.25542 8.13487 7.35043L6.22078 10.2203C6.15749 10.3151 6.02948 10.3409 5.93446 10.278L5.74364 10.1516C5.6481 10.0884 5.62214 9.95968 5.6856 9.86443Z" fill="#464655"/>
<path d="M4.88192 9.3285L6.79559 6.45652C6.85901 6.36136 6.98764 6.33567 7.08275 6.39924L7.27386 6.52702C7.36873 6.59044 7.39432 6.71874 7.33104 6.8137L5.41789 9.68583C5.35446 9.78099 5.22593 9.80672 5.13082 9.7432L4.9392 9.61528C4.84423 9.55191 4.81859 9.42352 4.88192 9.3285Z" fill="#464655"/>
<path d="M4.07763 8.79488L5.99149 5.92003C6.05491 5.82483 6.18358 5.7991 6.27869 5.86266L6.4698 5.99044C6.56463 6.05386 6.59027 6.18202 6.52708 6.27703L4.61439 9.1523C4.55106 9.24746 4.42249 9.27328 4.32738 9.20986L4.13519 9.08171C4.04008 9.01833 4.01439 8.88994 4.07763 8.79488Z" fill="#464655"/>
<path d="M15.8669 16.6494L16.6191 15.5228C16.6826 15.4277 16.8112 15.4021 16.9063 15.4658L17.0969 15.5933C17.1917 15.6568 17.2172 15.7851 17.1539 15.88L16.4025 17.0069C16.3391 17.102 16.2106 17.1277 16.1155 17.0642L15.924 16.9364C15.829 16.8729 15.8034 16.7445 15.8669 16.6494Z" fill="#464655"/>
<path d="M17.0271 14.9129L17.7805 13.7807C17.8438 13.6855 17.9724 13.6597 18.0675 13.7231L18.2595 13.8511C18.3546 13.9145 18.3803 14.0431 18.3169 14.1382L17.5618 15.2686C17.4985 15.3634 17.3705 15.3891 17.2755 15.3261L17.0851 15.1999C16.9897 15.1367 16.9637 15.0081 17.0271 14.9129Z" fill="#464655"/>
<path d="M16.67 17.189L17.4227 16.0594C17.486 15.9643 17.6145 15.9385 17.7096 16.002L17.902 16.1303C17.997 16.1936 18.0227 16.322 17.9594 16.4171L17.2072 17.5468C17.1439 17.6419 17.0155 17.6677 16.9204 17.6043L16.7275 17.4759C16.6324 17.4126 16.6066 17.2841 16.67 17.189Z" fill="#464655"/>
<path d="M17.8313 15.4436L18.5844 14.3166C18.6479 14.2217 18.7762 14.1961 18.8712 14.2594L19.0635 14.3876C19.1587 14.451 19.1843 14.5796 19.1207 14.6747L18.3676 15.8017C18.3042 15.8966 18.1758 15.9222 18.0809 15.8589L17.8885 15.7307C17.7934 15.6673 17.7677 15.5387 17.8313 15.4436Z" fill="#464655"/>
<path d="M17.4736 17.7226L18.2272 16.5949C18.2904 16.5003 18.4183 16.4745 18.5132 16.5373L18.7048 16.6638C18.8004 16.727 18.8264 16.8559 18.7628 16.9512L18.0099 18.0804C17.9465 18.1754 17.818 18.2011 17.723 18.1377L17.5309 18.0097C17.4357 17.9462 17.4101 17.8176 17.4736 17.7226Z" fill="#464655"/>
<path d="M18.6353 15.9829L19.3869 14.8539C19.4504 14.7587 19.579 14.733 19.6741 14.7966L19.865 14.9242C19.9599 14.9877 19.9855 15.1161 19.9221 15.211L19.1698 16.3385C19.1066 16.4334 18.9784 16.4591 18.8834 16.3961L18.6931 16.27C18.5978 16.2068 18.5719 16.0781 18.6353 15.9829Z" fill="#464655"/>
</svg>
