<svg width="24" height="24" viewBox="0 0 24 24" fill="none" xmlns="http://www.w3.org/2000/svg">
<path d="M22.2026 19.8621H1.79742C0.804703 19.8621 0 19.0574 0 18.0646V5.93536C0 4.94269 0.804703 4.13794 1.79742 4.13794H22.2026C23.1952 4.13794 24 4.94264 24 5.93536V18.0647C24 19.0574 23.1953 19.8621 22.2026 19.8621Z" fill="#41479B"/>
<path d="M0.413813 12H1.13259L4.96556 9.48872V12H7.03453V9.48872L10.8675 12H11.5862C11.8148 12 12 11.8147 12 11.5862V11.258L8.71158 9.10346H12V7.03449H8.71148L12 4.87997V4.55175C12 4.32324 11.8148 4.13803 11.5863 4.13794H10.8674L7.03448 6.64922V4.13794H4.96552V6.64922L1.25831 4.22035C1.15111 4.254 1.04822 4.29755 0.950719 4.34977C0.949781 4.35028 0.948797 4.35075 0.947812 4.35127C0.925734 4.36313 0.903938 4.37564 0.882422 4.38839C0.879797 4.38994 0.877078 4.39139 0.874453 4.39294C0.853594 4.40546 0.833109 4.41853 0.812859 4.43185C0.809766 4.43391 0.806531 4.43583 0.803437 4.43789C0.783234 4.45135 0.763406 4.46531 0.743766 4.47956C0.740859 4.48167 0.737859 4.48369 0.734953 4.48585C0.715125 4.50038 0.695766 4.51542 0.676547 4.53075C0.674062 4.53277 0.671484 4.53469 0.669 4.5367C0.649594 4.55236 0.630562 4.56858 0.611812 4.58503C0.609797 4.58686 0.607687 4.58855 0.605672 4.59042C0.586688 4.6073 0.568125 4.62455 0.549844 4.64213C0.54825 4.64367 0.546562 4.64522 0.544922 4.64677C0.526406 4.66481 0.508313 4.68324 0.490547 4.70199C0.489375 4.7032 0.488156 4.70447 0.486984 4.70578C0.468984 4.72496 0.451359 4.7446 0.434156 4.76461C0.433359 4.76555 0.432609 4.76644 0.431812 4.76733C0.414375 4.78772 0.397359 4.80844 0.380859 4.82967C0.380437 4.83019 0.379969 4.83075 0.379547 4.83131C0.362859 4.85278 0.346547 4.87463 0.330844 4.89685C0.330656 4.89717 0.330375 4.89746 0.330187 4.89783C0.31425 4.92028 0.298828 4.94311 0.284016 4.96631C0.283969 4.96636 0.283922 4.96646 0.283875 4.9665C0.268875 4.98989 0.254438 5.01361 0.240516 5.03766L3.28852 7.03449H0V9.10346H3.28847L0 11.258V11.5865C0.000140625 11.8149 0.185344 12 0.413813 12Z" fill="#F5F5F5"/>
<path d="M12 7.4483H6.62067V4.13794H5.37933V7.4483H0V8.68964H5.37933V12H6.62067V8.68964H12V7.4483Z" fill="#FF4B55"/>
<path d="M0.385742 4.82357L3.79173 7.03448H4.55176L0.684758 4.52432C0.573711 4.61198 0.473398 4.71248 0.385742 4.82357Z" fill="#FF4B55"/>
<path d="M7.79446 7.03449L11.937 4.34546C11.865 4.22363 11.738 4.13794 11.5861 4.13794H11.4966L7.03442 7.03449H7.79446Z" fill="#FF4B55"/>
<path d="M4.19418 9.10345L0.0595703 11.7873C0.130867 11.9121 0.259867 12 0.413898 12H0.491945L4.95426 9.10345H4.19418Z" fill="#FF4B55"/>
<path d="M11.9934 11.6187L8.11843 9.10341H7.3584L11.7587 11.9597C11.8906 11.8986 11.981 11.7704 11.9934 11.6187Z" fill="#FF4B55"/>
<path d="M18.1502 8.31399C18.1409 8.31399 18.1314 8.31103 18.1233 8.30494C18.1168 8.29997 17.4746 7.79949 17.8528 6.95124C17.8629 6.92874 17.8893 6.9188 17.9119 6.92864C17.9344 6.93877 17.9444 6.96507 17.9345 6.98766C17.5856 7.76986 18.153 8.21532 18.1773 8.23388C18.1969 8.24878 18.2007 8.27677 18.1858 8.29636C18.1769 8.30789 18.1637 8.31399 18.1502 8.31399Z" fill="#73AF00"/>
<path d="M17.7803 7.58129C17.7785 7.58129 17.7768 7.58119 17.7751 7.581C17.7506 7.5781 17.7331 7.55597 17.7359 7.5315C17.7545 7.3711 17.8148 7.25916 17.9153 7.19888C18.077 7.10171 18.2791 7.17933 18.2876 7.18275C18.3105 7.19175 18.3217 7.21754 18.3127 7.24046C18.3037 7.26338 18.2778 7.27482 18.255 7.26582C18.2533 7.26516 18.0845 7.20104 17.9608 7.27561C17.8857 7.32104 17.8398 7.41057 17.8247 7.54182C17.822 7.56455 17.8025 7.58129 17.7803 7.58129Z" fill="#73AF00"/>
<path d="M17.9015 7.00594C17.8977 6.99609 17.8012 6.76697 17.365 6.86447C16.871 6.97514 16.8652 7.62684 16.8652 7.63336C16.8652 7.65576 16.8819 7.67479 16.9042 7.67765C16.9061 7.67794 16.908 7.67803 16.9099 7.67803C16.9299 7.67803 16.9479 7.66453 16.953 7.6447C17.1371 6.94336 17.8228 7.06115 17.852 7.06626C17.8685 7.06922 17.8843 7.06312 17.8945 7.05075C17.9049 7.03814 17.9076 7.02098 17.9015 7.00594Z" fill="#73AF00"/>
<path d="M17.7988 7.36921C17.7988 7.36921 17.5012 7.17955 17.3784 7.42129C17.2557 7.66307 17.3487 7.92341 17.3971 8.02757C17.3971 8.02757 17.5744 7.83149 17.743 7.8044C17.9513 7.77093 18.0034 7.51054 17.8583 7.38037C17.685 7.22488 17.7988 7.36921 17.7988 7.36921Z" fill="#73AF00"/>
<path d="M18.1239 6.9249C18.1197 7.18524 18.2647 7.21936 18.2647 7.21936C18.3585 6.98035 18.1239 6.9249 18.1239 6.9249Z" fill="#73AF00"/>
<path d="M18.0784 7.47168C18.0803 7.22465 18.2479 7.19685 18.2479 7.19685C18.3494 7.42654 18.0784 7.47168 18.0784 7.47168Z" fill="#73AF00"/>
<path d="M19.045 7.27251C19.045 7.27251 18.808 7.23749 18.7172 7.19456C18.6415 7.15888 18.5428 7.07273 18.4151 7.08956C18.3175 7.08956 18.2383 7.16868 18.2383 7.26637C18.2383 7.36401 18.3054 7.48101 18.6563 7.45504C18.8264 7.44243 18.9713 7.52015 18.9713 7.52015C18.949 7.42715 19.045 7.27251 19.045 7.27251Z" fill="#FF4B55"/>
<path d="M18.7991 7.35004C18.7991 7.35004 18.4358 7.37521 18.356 7.31643C18.2823 7.26215 18.3016 7.17571 18.377 7.16732C18.4904 7.15467 18.7991 7.35004 18.7991 7.35004Z" fill="#FFE15A"/>
<path d="M19.5061 7.76161L18.7027 8.26373L18.6106 8.17444L19.0513 7.74759L19.1545 7.78945L19.255 7.65553L19.0151 7.53C19.0151 7.53 18.379 8.12972 17.8379 8.17997C17.6558 8.19689 17.4703 8.18498 17.3256 8.1254L17.001 8.59284L17.6816 9.17306L18.6803 9.13401L19.506 8.01258L19.651 8.07951L19.7737 7.93448L19.5061 7.76161Z" fill="#B49B91"/>
<path d="M17.2672 9.11362C17.0437 9.11362 16.8618 8.93174 16.8618 8.70834C16.8618 8.48484 17.0437 8.30296 17.2672 8.30296C17.4906 8.30296 17.6725 8.48484 17.6725 8.70834C17.6725 8.93179 17.4906 9.11362 17.2672 9.11362ZM17.2672 8.43688C17.1175 8.43688 16.9957 8.55867 16.9957 8.70834C16.9957 8.85801 17.1175 8.97974 17.2672 8.97974C17.4169 8.97974 17.5386 8.85806 17.5386 8.70834C17.5386 8.55862 17.4169 8.43688 17.2672 8.43688Z" fill="#9B8278"/>
<path d="M18.9558 9.48932C18.9558 9.48932 19.0302 9.44095 19.1045 9.21412L18.9521 9.23643C18.9521 9.23643 18.9818 9.10996 18.9484 9.01696L18.7773 9.15088C18.7773 9.15088 18.6992 8.98724 18.6657 8.96493C18.6657 8.96493 18.5467 9.13232 18.4797 9.15459C18.4797 9.15459 18.4128 8.91281 18.3458 8.86448L18.2305 9.02812L18.0594 8.8942C18.0594 8.8942 18.0594 9.00951 18.0557 9.03557C18.052 9.06159 17.8325 8.80499 17.8325 8.80499C17.8325 8.80499 17.7358 8.84592 17.6057 9.05418L17.442 8.88679L17.3751 9.10626L17.1482 9.04673L17.1854 9.1769L16.9883 9.16199C16.9883 9.16199 17.0218 9.3554 17.1185 9.42238L18.9558 9.48932Z" fill="#73AF00"/>
<path d="M16.9844 10.3169C16.9844 10.3169 16.3707 11.098 15.2102 11.0087L16.4711 11.1817L17.1183 10.568L16.9844 10.3169Z" fill="#73AF00"/>
<path d="M14.9814 10.8915C15.1042 10.9808 15.863 11.1984 16.4097 10.9362C16.4097 10.9362 16.4209 11.0645 16.3595 11.137C16.3595 11.137 16.7612 10.9752 16.9788 10.6739C17.1965 10.3727 16.5269 11.3211 16.5269 11.3211L15.5004 11.5108L15.0819 11.1648L14.9814 10.8915Z" fill="#FFE15A"/>
<path d="M14.9008 8.07885C14.7645 8.09029 14.6171 8.17237 14.5417 8.27207C14.5006 8.25463 14.4094 8.2469 14.3337 8.29724C14.2331 8.36437 14.047 8.60681 13.8908 8.54268C13.8908 8.54268 13.8768 8.77138 14.1195 8.76309C14.1195 8.76309 14.0581 8.85796 14.0693 9.00857C14.0804 9.15918 13.9716 9.25963 13.9716 9.25963C13.9716 9.25963 14.4626 9.32934 14.4821 8.94721C14.4845 8.90052 14.4869 8.85937 14.4892 8.82266C14.7454 8.96104 14.8462 8.76571 14.8462 8.76571C14.8462 8.76571 14.6922 8.62026 14.849 8.41321C15.0057 8.20612 15.4365 8.69427 15.4365 8.69427C15.4449 8.49895 15.4274 8.0346 14.9008 8.07885Z" fill="#FFE15A"/>
<path d="M16.7984 9.36656C16.7984 9.36656 16.6571 9.46326 16.2182 9.37401C16.2182 9.37401 16.3149 9.15829 16.2702 9.03183C16.2702 9.03183 16.1512 9.14339 15.8611 9.255C15.571 9.36661 15.214 9.72365 15.1098 9.95428C15.1098 9.95428 15.7623 8.45015 15.2381 8.29725C15.0583 8.24479 14.9036 8.32983 14.8489 8.41322C14.8754 8.44443 14.9008 8.48892 14.9034 8.54831C14.9089 8.67665 14.7806 9.5414 14.5909 10.1384C14.5909 10.1384 14.5351 9.93192 14.4459 9.83147C14.3567 9.73101 14.2897 9.56925 14.2897 9.56925C14.2897 9.56925 14.1391 9.6697 14.1614 9.85378C14.1614 9.85378 14.0777 9.78684 13.9159 9.83147C13.7541 9.87609 13.6927 9.77006 13.6927 9.77006C13.6927 9.77006 13.5588 10.1271 13.9549 10.3112C13.9549 10.3112 13.849 10.3614 13.7988 10.4005C13.7485 10.4396 13.6704 10.4396 13.6704 10.4396C13.6704 10.4396 13.8099 10.6962 14.1056 10.7241C14.4012 10.752 14.5371 10.8363 14.63 10.9882C14.9313 11.481 15.5078 11.8548 16.4488 11.2783C16.4488 11.2783 15.1098 11.6948 15.0503 10.8394C14.9982 10.091 15.8165 9.93928 15.8983 10.1029C15.9802 10.2666 15.8909 10.4079 15.8909 10.4079C15.8909 10.4079 16.3372 10.3038 16.1215 9.89461C16.1215 9.8947 16.5603 9.96169 16.7984 9.36656Z" fill="#73AF00"/>
<path d="M21.0962 10.8915C20.9735 10.9808 20.198 11.3156 19.6623 10.78C19.1267 10.2444 18.9179 9.44019 18.9482 9.53019H18.4126L18.5911 11.137L20.5773 11.5108L20.9958 11.1649L21.0962 10.8915Z" fill="#73AF00"/>
<path d="M21.1768 8.07885C21.3131 8.09029 21.4606 8.17237 21.536 8.27207C21.577 8.25463 21.6683 8.2469 21.7439 8.29724C21.8446 8.36437 22.0307 8.60681 22.1869 8.54268C22.1869 8.54268 22.2008 8.77138 21.9582 8.76309C21.9582 8.76309 22.0196 8.85796 22.0084 9.00857C21.9972 9.15918 22.106 9.25963 22.106 9.25963C22.106 9.25963 21.6151 9.32934 21.5955 8.94721C21.5931 8.90052 21.5907 8.85937 21.5885 8.82266C21.3323 8.96104 21.2314 8.76571 21.2314 8.76571C21.2314 8.76571 21.3854 8.62026 21.2287 8.41321C21.072 8.20612 20.6412 8.69427 20.6412 8.69427C20.6328 8.49895 20.6503 8.0346 21.1768 8.07885Z" fill="#73AF00"/>
<path d="M19.2793 9.36656C19.2793 9.36656 19.4206 9.46326 19.8595 9.37401C19.8595 9.37401 19.7628 9.15829 19.8074 9.03183C19.8074 9.03183 19.9265 9.14339 20.2166 9.255C20.5067 9.36661 20.8637 9.72365 20.9679 9.95428C20.9679 9.95428 20.3154 8.45015 20.8396 8.29725C21.0194 8.24479 21.174 8.32983 21.2287 8.41322C21.2023 8.44443 21.1769 8.48892 21.1743 8.54831C21.1687 8.67665 21.297 9.5414 21.4867 10.1384C21.4867 10.1384 21.5426 9.93192 21.6318 9.83147C21.721 9.73101 21.788 9.56925 21.788 9.56925C21.788 9.56925 21.9386 9.6697 21.9163 9.85378C21.9163 9.85378 22 9.78684 22.1618 9.83147C22.3236 9.87609 22.385 9.77006 22.385 9.77006C22.385 9.77006 22.5189 10.1271 22.1227 10.3112C22.1227 10.3112 22.2287 10.3614 22.2789 10.4005C22.3291 10.4396 22.4073 10.4396 22.4073 10.4396C22.4073 10.4396 22.2678 10.6962 21.9721 10.7241C21.6764 10.752 21.5405 10.8363 21.4477 10.9882C21.1464 11.481 20.5699 11.8548 19.6288 11.2783C19.6288 11.2783 20.9678 11.6948 21.0274 10.8394C21.0794 10.091 20.2612 9.93928 20.1793 10.1029C20.0975 10.2666 20.1868 10.4079 20.1868 10.4079C20.1868 10.4079 19.7405 10.3038 19.9562 9.89461C19.9563 9.8947 19.5174 9.96169 19.2793 9.36656Z" fill="#FFE15A"/>
<path d="M18.8998 10.6163C19.1193 10.9362 19.4242 11.2263 20.3095 11.5015C21.1947 11.7767 21.4313 11.8177 21.8952 12.1929C21.8952 12.1929 21.9833 12.2859 22.0171 12.4351C22.0567 12.6103 21.7865 13.1157 21.7865 13.1157C21.7865 13.1157 21.8125 12.9967 21.6489 12.7661C21.4852 12.5356 20.5181 12.119 20.0123 11.9925C19.5064 11.866 18.6324 11.2793 18.8742 10.8395L18.8998 10.6163Z" fill="#73AF00"/>
<path d="M21.8945 12.1915C21.8949 12.192 21.895 12.1925 21.8954 12.1929C21.8948 12.1923 21.8944 12.1917 21.8938 12.1911L21.8945 12.1915Z" fill="#73AF00"/>
<path d="M21.8722 13.2794C21.8722 13.2794 21.8945 13.4413 21.7606 13.5808C21.6267 13.7203 21.5319 13.8207 21.5374 13.9378C21.5374 13.9378 21.3366 13.7928 21.37 13.4692C21.37 13.4692 21.1078 13.6867 20.7117 13.4747C20.7117 13.4747 20.7507 13.0786 21.264 13.0284C21.264 13.0284 21.0632 12.8722 21.3255 12.6323C21.3255 12.6323 21.3559 12.7396 21.5932 12.7941C21.7997 12.8415 22.167 12.5826 21.8954 12.193C22.3631 12.7215 22.1232 13.0842 21.8722 13.2794Z" fill="#FFE15A"/>
<path d="M18.7083 10.3225C18.7083 10.3225 18.8214 10.5074 19.1155 10.687C19.4689 10.9027 19.5005 11.0031 19.5005 11.0031L19.2606 10.9975C19.2606 10.9975 19.5675 11.1649 19.6512 11.3769C19.6512 11.3769 19.5228 11.3992 19.3778 11.3602C19.3778 11.3602 19.495 11.4661 19.4392 11.8065H18.8422L18.7083 10.3225Z" fill="#FFE15A"/>
<path d="M17.52 11.8512V10.4229C17.52 10.4229 17.0352 11.2523 16.6165 11.8512H17.52Z" fill="#73AF00"/>
<path d="M17.1029 10.3931C16.9838 10.6088 16.6119 11.3193 15.7267 11.5945C14.8414 11.8697 14.6796 11.8177 14.2157 12.1929C14.2157 12.1929 14.1276 12.2859 14.0938 12.4351C14.0542 12.6103 14.3244 13.1157 14.3244 13.1157C14.3244 13.1157 14.2984 12.9967 14.462 12.7661C14.6257 12.5355 15.5873 12.0947 16.0986 11.9925C16.8057 11.8511 17.4454 11.0924 17.3413 10.6014C17.2372 10.1105 17.1029 10.3931 17.1029 10.3931Z" fill="#FFE15A"/>
<path d="M14.2165 12.1915C14.2161 12.192 14.216 12.1925 14.2156 12.1929C14.2161 12.1923 14.2166 12.1917 14.2172 12.1911L14.2165 12.1915Z" fill="#73AF00"/>
<path d="M14.2389 13.2794C14.2389 13.2794 14.2166 13.4413 14.3505 13.5808C14.4844 13.7203 14.5792 13.8207 14.5737 13.9378C14.5737 13.9378 14.7745 13.7928 14.7411 13.4692C14.7411 13.4692 15.0033 13.6867 15.3994 13.4747C15.3994 13.4747 15.3604 13.0786 14.847 13.0284C14.847 13.0284 15.0479 12.8722 14.7857 12.6323C14.7857 12.6323 14.7552 12.7396 14.5179 12.7941C14.3114 12.8415 13.9442 12.5826 14.2158 12.193C13.748 12.7215 13.9879 13.0842 14.2389 13.2794Z" fill="#73AF00"/>
<path d="M15.4744 15.6599C15.4744 15.6599 15.6008 16.229 15.6083 16.8167C15.6083 16.8167 16.1625 16.8353 16.4303 16.4187C16.4303 16.4187 15.8947 16.1398 15.6083 15.6004L15.4744 15.6599Z" fill="#FFE15A"/>
<path d="M15.3552 14.4027C15.3329 14.1349 15.4519 13.458 15.9949 12.967L16.0082 12.3658C16.0082 12.3658 15.8464 12.3826 15.703 12.5082L15.3961 12.9838L15.1116 14.0606L15.3552 14.4027Z" fill="#73AF00"/>
<path d="M15.3702 14.5961C15.3702 14.5961 15.3702 15.1689 15.6082 15.6004L15.4743 15.6599C15.4743 15.6599 14.9945 15.2824 14.8941 14.5069C14.8941 14.5069 14.4645 14.7914 14.3064 14.2093C14.3064 14.2093 14.7676 14.3953 14.9164 13.9713C15.0506 13.5887 15.1863 12.8922 15.7031 12.5082C15.4574 12.8858 15.0875 13.8523 15.3739 14.1945C15.4497 14.2851 15.6677 14.3619 15.9063 14.26C15.8908 14.4503 15.8 14.7411 15.3702 14.5961Z" fill="#FFE15A"/>
<path d="M15.4397 15.7615L15.3613 15.6175C15.3476 15.5923 15.3569 15.5608 15.3821 15.547L15.5251 15.4693C15.5503 15.4556 15.5818 15.4649 15.5955 15.4901L15.6739 15.6341C15.6876 15.6593 15.6783 15.6908 15.6531 15.7046L15.5101 15.7823C15.4849 15.796 15.4534 15.7867 15.4397 15.7615Z" fill="#FFCE5A"/>
<path d="M20.2799 15.6599C20.2799 15.6599 20.1534 16.229 20.146 16.8167C20.146 16.8167 19.5918 16.8353 19.324 16.4187C19.324 16.4187 19.8596 16.1398 20.146 15.6004L20.2799 15.6599Z" fill="#FFE15A"/>
<path d="M20.3989 14.4027C20.4212 14.1349 20.3022 13.458 19.7592 12.967L19.7458 12.3658C19.7458 12.3658 19.9076 12.3826 20.0511 12.5082L20.3579 12.9838L20.6425 14.0606L20.3989 14.4027Z" fill="#FFE15A"/>
<path d="M19.8479 14.2599C20.0865 14.3619 20.3045 14.2851 20.3804 14.1945C20.6668 13.8523 20.2968 12.8858 20.0512 12.5082C20.568 12.8922 20.7036 13.5886 20.8379 13.9712C20.9866 14.3953 21.4478 14.2093 21.4478 14.2093C21.2898 14.7914 20.8602 14.5068 20.8602 14.5068C20.7597 15.2823 20.2799 15.6599 20.2799 15.6599L20.146 15.6004C20.3841 15.1689 20.3841 14.5961 20.3841 14.5961C19.9542 14.7411 19.8635 14.4503 19.8479 14.2599Z" fill="#73AF00"/>
<path d="M20.3145 15.7615L20.3929 15.6175C20.4066 15.5923 20.3973 15.5608 20.3721 15.547L20.2291 15.4693C20.2039 15.4556 20.1724 15.4649 20.1587 15.4901L20.0803 15.6341C20.0666 15.6593 20.0759 15.6908 20.1011 15.7046L20.2441 15.7823C20.2693 15.796 20.3008 15.7867 20.3145 15.7615Z" fill="#FFCE5A"/>
<path d="M16.0916 11.6726C15.9931 11.6726 15.9131 11.7525 15.9131 11.8512V13.815C15.9131 14.3506 16.0916 16.3145 17.877 17.0287C19.6623 16.3145 19.8408 14.3506 19.8408 13.815V11.8512C19.8408 11.7526 19.7609 11.6726 19.6623 11.6726H16.0916Z" fill="#4173CD"/>
<path d="M17.7689 11.6726L16.0757 14.9178C16.1181 15.0679 16.1709 15.2233 16.2372 15.3802L17.8771 12.2371L19.517 15.3802C19.5833 15.2232 19.6361 15.0679 19.6785 14.9178L17.9853 11.6726H17.7689Z" fill="#FFE15A"/>
<path d="M19.5168 15.3802L17.8769 12.2371L16.2371 15.3802C16.5072 16.0195 16.9959 16.6762 17.8769 17.0287C18.758 16.6763 19.2468 16.0195 19.5168 15.3802Z" fill="#73AF00"/>
<path d="M18.5408 15.5836L18.6488 15.6354C18.6036 15.7024 18.5093 15.8107 18.329 15.9088C18.1928 15.9829 18.0612 16.0706 17.9661 16.1378V14.6644L18.4125 14.6185V14.4399L17.9661 14.394V14.1721C17.9661 14.1228 17.9262 14.0828 17.8769 14.0828C17.8348 14.0828 17.8012 14.1125 17.7917 14.1517C17.7621 14.1304 17.7276 14.1153 17.6885 14.1153C17.5886 14.1153 17.5073 14.1966 17.5073 14.2965C17.5073 14.3435 17.5264 14.3856 17.5559 14.4179L17.3413 14.4399V14.6185L17.7876 14.6644V16.1378C17.6926 16.0706 17.561 15.9829 17.4248 15.9088C17.2445 15.8107 17.1502 15.7024 17.105 15.6354L17.213 15.5836L16.8057 15.0648V15.7789L16.943 15.7131C16.9973 15.8006 17.1121 15.9419 17.3395 16.0655C17.5298 16.1691 17.7144 16.3036 17.7876 16.3587L17.8769 16.4279L17.9662 16.3587C18.0394 16.3036 18.2241 16.1691 18.4143 16.0655C18.6417 15.9419 18.7566 15.8006 18.8108 15.7131L18.9481 15.7789V15.0648L18.5408 15.5836ZM17.6885 14.3885C17.6378 14.3885 17.5965 14.3473 17.5965 14.2965C17.5965 14.2458 17.6377 14.2046 17.6885 14.2046C17.7393 14.2046 17.7805 14.2458 17.7805 14.2965C17.7805 14.3473 17.7393 14.3885 17.6885 14.3885Z" fill="#FFE15A"/>
<path d="M18.0149 13.9936H17.739C17.6673 13.9936 17.6091 13.9355 17.6091 13.8637V13.4093C17.6091 13.3376 17.6673 13.2794 17.739 13.2794H18.0149C18.0866 13.2794 18.1448 13.3375 18.1448 13.4093V13.8637C18.1448 13.9355 18.0866 13.9936 18.0149 13.9936Z" fill="#F5F5F5"/>
<path d="M19.1267 11.6726C18.7697 11.137 18.7697 10.0658 18.7697 10.0658C18.7697 10.0658 18.7697 9.35165 17.877 9.35165C17.4248 9.35165 17.2021 9.53494 17.092 9.71573C16.6636 9.88786 16.4487 10.2443 16.4487 10.2443C16.6314 10.3357 16.7927 10.3792 16.9392 10.3903C17.2302 10.7367 17.3271 11.0711 17.3528 11.3117C17.1852 11.4829 17.0922 11.8957 17.3414 12.2082C17.3414 12.2082 17.8696 12.0855 18.3154 11.6726H19.1267V11.6726H19.1267Z" fill="#B49B91"/>
<path d="M18.3154 11.6726H18.9818C18.9482 11.3435 18.6246 11.3965 18.3154 11.6726Z" fill="#9B8278"/>
<path d="M18.9651 11.3356C18.77 10.7816 18.7697 10.0658 18.7697 10.0658C18.7697 10.0658 18.7697 10.0542 18.7679 10.0342C18.5354 10.0026 18.2975 10.0197 17.8324 10.1997C17.3373 10.3913 17.0949 10.3968 16.9392 10.3904C17.2303 10.7367 17.3271 11.0712 17.3528 11.3117L17.36 11.6912C17.36 11.6912 17.639 11.7322 18.2526 11.3788C18.5588 11.2026 18.8183 11.1875 18.9651 11.3356Z" fill="#9B8278"/>
<path d="M18.0147 9.9877C18.3768 9.89719 18.6079 9.90651 18.7567 9.95934C18.7168 9.76045 18.5529 9.35165 17.8771 9.35165C17.4249 9.35165 17.2022 9.53494 17.0922 9.71573L16.8208 10.0956C16.8208 10.0956 17.1602 10.2014 18.0147 9.9877Z" fill="#9B8278"/>
<path d="M17.287 9.27362C17.3221 9.30868 17.4271 9.56162 17.4054 9.59921C17.3915 9.62335 17.1121 9.69282 17.0669 9.65738C17.0265 9.62579 16.9792 9.35335 17.0063 9.3219C17.0308 9.29349 17.2576 9.24437 17.287 9.27362Z" fill="#FFE15A"/>
<path d="M17.6463 9.2601C17.6787 9.29727 17.7522 9.54454 17.7231 9.57609C17.7044 9.59638 17.393 9.62095 17.3498 9.58204C17.3112 9.54735 17.3027 9.29015 17.3367 9.26512C17.3675 9.24238 17.6192 9.22907 17.6463 9.2601Z" fill="#73AF00"/>
<path d="M17.9861 9.25069C18.0198 9.28571 18.0964 9.51821 18.0663 9.54774C18.047 9.56672 17.7249 9.58908 17.68 9.55238C17.6401 9.51966 17.6306 9.27807 17.6658 9.25458C17.6977 9.2334 17.9581 9.22149 17.9861 9.25069Z" fill="#FFE15A"/>
<path d="M18.3319 9.2669C18.3616 9.30511 18.4177 9.54904 18.3865 9.57736C18.3664 9.5955 18.0541 9.59634 18.0138 9.55556C17.9778 9.51919 17.9871 9.27056 18.0228 9.2489C18.055 9.22931 18.307 9.23498 18.3319 9.2669Z" fill="#73AF00"/>
<path d="M19.045 9.4147C19.068 9.45731 19.0658 9.6839 19.0303 9.70664C19.0075 9.72122 18.7263 9.67111 18.6932 9.62423C18.6637 9.58242 18.714 9.33876 18.7528 9.32325C18.7878 9.30928 19.0257 9.37912 19.045 9.4147Z" fill="#73AF00"/>
<path d="M18.7172 9.3181C18.7453 9.35691 18.7668 9.5844 18.7328 9.60844C18.711 9.62391 18.3892 9.59748 18.3502 9.55543C18.3154 9.51788 18.3409 9.28341 18.379 9.26598C18.4136 9.25013 18.6936 9.28571 18.7172 9.3181Z" fill="#FFE15A"/>
<path d="M17.2669 8.82985C17.334 8.82985 17.3883 8.77549 17.3883 8.70844C17.3883 8.64139 17.334 8.58704 17.2669 8.58704C17.1999 8.58704 17.1455 8.64139 17.1455 8.70844C17.1455 8.77549 17.1999 8.82985 17.2669 8.82985Z" fill="#9B8278"/>
</svg>
