<svg width="24" height="24" viewBox="0 0 24 24" fill="none" xmlns="http://www.w3.org/2000/svg">
<path d="M22.2134 4.13808H1.78664C0.798984 4.14389 0 4.94611 0 5.93517V12.0001H24V5.93517C24 4.94611 23.201 4.14389 22.2134 4.13808Z" fill="#F5F5F5"/>
<path d="M0 18.0645C0 19.0572 0.804703 19.8619 1.79742 19.8619H22.2026C23.1952 19.8619 24 19.0572 24 18.0645V12.0001H0V18.0645Z" fill="#82AFFF"/>
<path d="M12.0385 15.3742C11.9684 15.3712 10.3139 15.2865 9.48354 14.1489C8.9996 13.486 8.90304 12.6043 9.19652 11.5282L9.31507 11.5606C9.03204 12.5985 9.12195 13.4447 9.58245 14.076C10.3774 15.1658 12.0272 15.2507 12.0439 15.2514L12.0385 15.3742Z" fill="#B46446"/>
<path d="M9.19538 11.0512C9.11382 11.2636 9.13243 11.4862 9.22688 11.6548C9.40998 11.5927 9.57268 11.4398 9.65429 11.2273C9.73585 11.0148 9.71724 10.7923 9.62279 10.6237C9.43965 10.6859 9.27695 10.8387 9.19538 11.0512Z" fill="#41AA5A"/>
<path d="M10.2317 13.9887C10.1411 14.1381 10.1174 14.3384 10.1845 14.5328C10.2471 14.7145 10.3764 14.8486 10.5262 14.9162C10.3807 14.8399 10.1956 14.8208 10.0139 14.8835C9.81944 14.9505 9.67638 15.0927 9.6145 15.256C9.76389 15.3466 9.96414 15.3704 10.1586 15.3032C10.3531 15.2362 10.4961 15.094 10.558 14.9307L10.5578 14.9306C10.6476 14.7814 10.6712 14.5819 10.6043 14.3881C10.5372 14.1937 10.3951 14.0506 10.2317 13.9887Z" fill="#41AA5A"/>
<path d="M9.8772 13.4465C9.73752 13.5513 9.64077 13.7283 9.6305 13.9337C9.62089 14.1257 9.69088 14.2982 9.80464 14.4168C9.698 14.2918 9.53333 14.205 9.34152 14.1954C9.13611 14.1851 8.95034 14.2637 8.83203 14.3922C8.93689 14.5319 9.11389 14.6287 9.31925 14.6389C9.52461 14.6492 9.71042 14.5706 9.82873 14.4421C9.82869 14.442 9.82864 14.442 9.82864 14.442C9.96753 14.337 10.0637 14.1606 10.074 13.9559C10.0843 13.7506 10.0057 13.5648 9.8772 13.4465Z" fill="#41AA5A"/>
<path d="M9.724 12.8351C9.55506 12.8795 9.39864 13.0069 9.31164 13.1932C9.23026 13.3673 9.22998 13.5535 9.29059 13.7063C9.23903 13.5503 9.11931 13.4078 8.94522 13.3264C8.75884 13.2394 8.55719 13.242 8.39917 13.3164C8.44356 13.4853 8.57097 13.6418 8.75725 13.7288C8.94362 13.8158 9.14528 13.8132 9.3033 13.7388C9.3033 13.7388 9.30325 13.7386 9.3032 13.7386C9.47153 13.6938 9.62715 13.5668 9.71387 13.3811C9.80101 13.1949 9.79844 12.9932 9.724 12.8351Z" fill="#41AA5A"/>
<path d="M9.81099 12.2285C9.63713 12.2112 9.44616 12.2762 9.29968 12.4205C9.16276 12.5554 9.09755 12.7299 9.10116 12.8941C9.10721 12.7299 9.04463 12.5546 8.90977 12.4178C8.7654 12.2712 8.57546 12.2034 8.40141 12.2181C8.38412 12.392 8.44904 12.5829 8.59341 12.7294C8.73779 12.876 8.92773 12.9437 9.10177 12.9291C9.10177 12.9291 9.10177 12.9289 9.10177 12.9288C9.27516 12.9454 9.46529 12.8807 9.6113 12.7368C9.75788 12.5926 9.82566 12.4026 9.81099 12.2285Z" fill="#41AA5A"/>
<path d="M9.93392 11.6511C9.76536 11.6053 9.56628 11.6377 9.39791 11.7558C9.24055 11.8662 9.14741 12.0274 9.12378 12.1901C9.15692 12.0292 9.1242 11.846 9.01391 11.6887C8.89583 11.5203 8.71972 11.422 8.54558 11.4076C8.49974 11.5762 8.53222 11.7753 8.6503 11.9437C8.76838 12.112 8.94449 12.2103 9.11863 12.2247C9.11863 12.2246 9.11863 12.2245 9.11863 12.2245C9.28681 12.2696 9.4851 12.2371 9.65291 12.1194C9.82128 12.0013 9.91958 11.8252 9.93392 11.6511Z" fill="#41AA5A"/>
<path d="M9.983 14.9644C10.0537 14.9644 10.111 14.9071 10.111 14.8364C10.111 14.7657 10.0537 14.7084 9.983 14.7084C9.9123 14.7084 9.85498 14.7657 9.85498 14.8364C9.85498 14.9071 9.9123 14.9644 9.983 14.9644Z" fill="#FFE15A"/>
<path d="M10.5714 15.0366C10.6421 15.0366 10.6994 14.9793 10.6994 14.9086C10.6994 14.8379 10.6421 14.7806 10.5714 14.7806C10.5007 14.7806 10.4434 14.8379 10.4434 14.9086C10.4434 14.9793 10.5007 15.0366 10.5714 15.0366Z" fill="#FFE15A"/>
<path d="M9.6451 13.9969C9.71581 13.9969 9.77312 13.9396 9.77312 13.8689C9.77312 13.7982 9.71581 13.7409 9.6451 13.7409C9.5744 13.7409 9.51709 13.7982 9.51709 13.8689C9.51709 13.9396 9.5744 13.9969 9.6451 13.9969Z" fill="#FFE15A"/>
<path d="M8.8309 13.0341C8.9016 13.0341 8.95891 12.9768 8.95891 12.9061C8.95891 12.8354 8.9016 12.7781 8.8309 12.7781C8.7602 12.7781 8.70288 12.8354 8.70288 12.9061C8.70288 12.9768 8.7602 13.0341 8.8309 13.0341Z" fill="#FFE15A"/>
<path d="M9.3995 12.3826C9.4702 12.3826 9.52752 12.3252 9.52752 12.2545C9.52752 12.1838 9.4702 12.1265 9.3995 12.1265C9.3288 12.1265 9.27148 12.1838 9.27148 12.2545C9.27148 12.3252 9.3288 12.3826 9.3995 12.3826Z" fill="#FFE15A"/>
<path d="M9.18392 11.7141C9.25463 11.7141 9.31194 11.6568 9.31194 11.5861C9.31194 11.5154 9.25463 11.4581 9.18392 11.4581C9.11322 11.4581 9.05591 11.5154 9.05591 11.5861C9.05591 11.6568 9.11322 11.7141 9.18392 11.7141Z" fill="#FFE15A"/>
<path d="M12.0437 15.3742L12.0383 15.2513C12.055 15.2507 13.7048 15.1657 14.4997 14.0759C14.9602 13.4447 15.0501 12.5984 14.7671 11.5605L14.8857 11.5282C15.1791 12.6042 15.0825 13.4859 14.5986 14.1488C13.7683 15.2865 12.1138 15.3712 12.0437 15.3742Z" fill="#B46446"/>
<path d="M14.8867 11.0512C14.9683 11.2636 14.9497 11.4862 14.8552 11.6548C14.6721 11.5927 14.5094 11.4398 14.4278 11.2273C14.3462 11.0148 14.3649 10.7923 14.4593 10.6237C14.6424 10.6859 14.8051 10.8387 14.8867 11.0512Z" fill="#41AA5A"/>
<path d="M13.8504 13.9887C13.9409 14.1381 13.9647 14.3384 13.8976 14.5328C13.835 14.7145 13.7057 14.8486 13.5559 14.9162C13.7014 14.8399 13.8865 14.8208 14.0682 14.8835C14.2627 14.9505 14.4057 15.0927 14.4676 15.256C14.3182 15.3466 14.1179 15.3704 13.9235 15.3032C13.729 15.2362 13.586 15.094 13.5241 14.9307C13.5241 14.9306 13.5242 14.9306 13.5242 14.9306C13.4346 14.7813 13.411 14.5818 13.4778 14.3881C13.5449 14.1937 13.687 14.0506 13.8504 13.9887Z" fill="#41AA5A"/>
<path d="M14.2049 13.4465C14.3445 13.5513 14.4413 13.7283 14.4516 13.9337C14.4612 14.1257 14.3912 14.2982 14.2774 14.4168C14.3841 14.2918 14.5487 14.205 14.7405 14.1954C14.9459 14.1851 15.1317 14.2637 15.25 14.3922C15.1452 14.5319 14.9682 14.6287 14.7628 14.6389C14.5574 14.6492 14.3716 14.5706 14.2533 14.4421C14.2533 14.442 14.2534 14.442 14.2534 14.442C14.1145 14.337 14.0182 14.1606 14.008 13.9559C13.9977 13.7506 14.0763 13.5648 14.2049 13.4465Z" fill="#41AA5A"/>
<path d="M14.3578 12.8351C14.5268 12.8795 14.6832 13.0069 14.7702 13.1932C14.8516 13.3673 14.8518 13.5535 14.7912 13.7063C14.8428 13.5503 14.9625 13.4078 15.1366 13.3264C15.323 13.2394 15.5246 13.242 15.6827 13.3164C15.6383 13.4853 15.5109 13.6418 15.3246 13.7288C15.1382 13.8158 14.9365 13.8132 14.7785 13.7388C14.7785 13.7388 14.7786 13.7386 14.7786 13.7386C14.6103 13.6938 14.4547 13.5668 14.368 13.3811C14.2808 13.1949 14.2834 12.9932 14.3578 12.8351Z" fill="#41AA5A"/>
<path d="M14.271 12.2285C14.4449 12.2112 14.6358 12.2762 14.7823 12.4205C14.9192 12.5554 14.9844 12.7299 14.9808 12.8941C14.9748 12.7299 15.0374 12.5546 15.1722 12.4178C15.3166 12.2712 15.5065 12.2034 15.6806 12.2181C15.6979 12.392 15.633 12.5829 15.4886 12.7294C15.3442 12.876 15.1543 12.9437 14.9802 12.9291C14.9802 12.9291 14.9802 12.9289 14.9802 12.9288C14.8068 12.9454 14.6167 12.8807 14.4707 12.7368C14.3241 12.5926 14.2563 12.4026 14.271 12.2285Z" fill="#41AA5A"/>
<path d="M14.1482 11.6511C14.3168 11.6053 14.5158 11.6377 14.6842 11.7558C14.8416 11.8662 14.9347 12.0274 14.9583 12.1901C14.9252 12.0292 14.9579 11.846 15.0682 11.6887C15.1863 11.5203 15.3624 11.422 15.5365 11.4076C15.5824 11.5762 15.5499 11.7753 15.4318 11.9437C15.3137 12.112 15.1376 12.2103 14.9635 12.2247C14.9635 12.2246 14.9635 12.2245 14.9635 12.2245C14.7953 12.2696 14.597 12.2371 14.4292 12.1194C14.2608 12.0013 14.1625 11.8252 14.1482 11.6511Z" fill="#41AA5A"/>
<path d="M14.0995 14.9644C14.1702 14.9644 14.2275 14.9071 14.2275 14.8364C14.2275 14.7657 14.1702 14.7084 14.0995 14.7084C14.0288 14.7084 13.9714 14.7657 13.9714 14.8364C13.9714 14.9071 14.0288 14.9644 14.0995 14.9644Z" fill="#FFE15A"/>
<path d="M13.5103 15.0366C13.581 15.0366 13.6384 14.9793 13.6384 14.9086C13.6384 14.8379 13.581 14.7806 13.5103 14.7806C13.4396 14.7806 13.3823 14.8379 13.3823 14.9086C13.3823 14.9793 13.4396 15.0366 13.5103 15.0366Z" fill="#FFE15A"/>
<path d="M14.4371 13.9969C14.5078 13.9969 14.5651 13.9396 14.5651 13.8689C14.5651 13.7982 14.5078 13.7409 14.4371 13.7409C14.3664 13.7409 14.3091 13.7982 14.3091 13.8689C14.3091 13.9396 14.3664 13.9969 14.4371 13.9969Z" fill="#FFE15A"/>
<path d="M15.2513 13.0341C15.322 13.0341 15.3793 12.9768 15.3793 12.9061C15.3793 12.8354 15.322 12.7781 15.2513 12.7781C15.1806 12.7781 15.1233 12.8354 15.1233 12.9061C15.1233 12.9768 15.1806 13.0341 15.2513 13.0341Z" fill="#FFE15A"/>
<path d="M14.6832 12.3826C14.7539 12.3826 14.8112 12.3252 14.8112 12.2545C14.8112 12.1838 14.7539 12.1265 14.6832 12.1265C14.6125 12.1265 14.5552 12.1838 14.5552 12.2545C14.5552 12.3252 14.6125 12.3826 14.6832 12.3826Z" fill="#FFE15A"/>
<path d="M14.8988 11.7141C14.9695 11.7141 15.0268 11.6568 15.0268 11.5861C15.0268 11.5154 14.9695 11.4581 14.8988 11.4581C14.8281 11.4581 14.7708 11.5154 14.7708 11.5861C14.7708 11.6568 14.8281 11.7141 14.8988 11.7141Z" fill="#FFE15A"/>
<path d="M12.7615 11.074H11.2932C10.8361 11.074 10.4656 11.4445 10.4656 11.9016V13.1951C10.4656 13.6523 10.8361 14.0227 11.2932 14.0227H12.7615C13.2185 14.0227 13.5891 13.6523 13.5891 13.1951V11.9016C13.5891 11.4445 13.2186 11.074 12.7615 11.074Z" fill="#8CD7FF"/>
<path d="M12.2696 12.1998V12.3636H12.1059V12.1998H11.9797V12.3636H11.8158V12.1998H11.7134V12.5275L11.7953 12.6312V13.8382H12.2868V12.6312L12.3687 12.5275V12.1998H12.2696Z" fill="#F5F5F5"/>
<path d="M12.0651 11.681C12.1461 11.6417 12.1675 11.8073 12.1675 11.8073C12.3382 11.7219 12.2936 11.5834 12.2528 11.5172C12.1982 11.4284 11.9798 11.3943 11.8876 11.5786C11.7955 11.763 12.0447 12.1282 12.0447 12.1282C12.0582 12.0155 11.9592 11.7321 12.0651 11.681Z" fill="#F5F5F5"/>
<path d="M13.112 12.5053V12.6691H12.9481V12.5053H12.822V12.6691H12.6581V12.5053H12.5557V12.833L12.6376 12.9367V14.1437H13.1291V12.9367L13.211 12.833V12.5053H13.112Z" fill="#F5F5F5"/>
<path d="M12.9071 11.9864C12.9881 11.9472 13.0095 12.1128 13.0095 12.1128C13.1802 12.0274 13.1357 11.8889 13.0949 11.8227C13.0403 11.7339 12.8218 11.6998 12.7297 11.8841C12.6375 12.0685 12.8867 12.4337 12.8867 12.4337C12.9003 12.321 12.8014 12.0377 12.9071 11.9864Z" fill="#F5F5F5"/>
<path d="M11.4275 12.5053V12.6691H11.2636V12.5053H11.1374V12.6691H10.9736V12.5053H10.8711V12.833L10.953 12.9367V14.1437H11.4446V12.9367L11.5265 12.833V12.5053H11.4275Z" fill="#F5F5F5"/>
<path d="M11.2228 11.9864C11.3038 11.9472 11.3252 12.1128 11.3252 12.1128C11.4959 12.0274 11.4513 11.8889 11.4106 11.8227C11.3559 11.7339 11.1375 11.6998 11.0454 11.8841C10.9532 12.0685 11.2024 12.4337 11.2024 12.4337C11.216 12.321 11.117 12.0377 11.2228 11.9864Z" fill="#F5F5F5"/>
<path d="M13.3853 13.9256C13.2759 13.8715 13.1544 13.8382 13.0241 13.8382C12.8845 13.8382 12.755 13.8764 12.6399 13.938C12.4904 13.7768 12.2784 13.6744 12.0411 13.6744C11.8037 13.6744 11.5919 13.7768 11.4422 13.938C11.3271 13.8764 11.1976 13.8382 11.058 13.8382C10.9276 13.8382 10.8061 13.8715 10.6968 13.9256C10.9307 14.3546 11.3786 15.0478 12.0411 15.3128C12.7035 15.0478 13.1514 14.3546 13.3853 13.9256Z" fill="#6EC86E"/>
<path d="M12.0337 8.43511L12.0411 8.43146C12.0411 8.43146 12.0386 8.43211 12.0337 8.43511Z" fill="#FFE15A"/>
<path d="M12.041 8.43146L12.0484 8.43511C12.0435 8.43211 12.041 8.43146 12.041 8.43146Z" fill="#FFE15A"/>
<path d="M13.6129 9.13289C13.5668 8.86669 13.2238 8.82057 12.8295 8.79497C12.4353 8.76938 12.2663 8.5441 12.2663 8.5441H11.8157C11.8157 8.5441 11.6468 8.76938 11.2525 8.79497C10.8583 8.82057 10.5152 8.86665 10.4692 9.13289C10.4231 9.3991 10.761 9.81896 10.761 9.81896L11.058 9.57835C11.058 9.57835 10.6944 9.23021 10.8736 9.10219C11.0506 8.97577 11.5665 9.06333 11.7963 8.75986C11.7866 8.82329 11.79 8.90157 11.8293 8.99803C11.9044 9.18239 11.8771 9.41447 11.8771 9.41447H12.041H12.2048C12.2048 9.41447 12.1775 9.18235 12.2527 8.99803C12.292 8.90157 12.2955 8.82324 12.2857 8.75986C12.5155 9.06333 13.0314 8.97577 13.2083 9.10219C13.3876 9.23021 13.024 9.57835 13.024 9.57835L13.3209 9.81896C13.321 9.819 13.659 9.39915 13.6129 9.13289Z" fill="#FFE15A"/>
<path d="M12.2083 7.62249H12.1229V7.53033C12.1229 7.48505 12.0863 7.44839 12.041 7.44839C11.9957 7.44839 11.959 7.48505 11.959 7.53033V7.62249H11.8703C11.825 7.62249 11.7883 7.65914 11.7883 7.70443C11.7883 7.74971 11.825 7.78636 11.8703 7.78636H11.959V8.02186C11.959 8.06714 11.9957 8.1038 12.041 8.1038C12.0863 8.1038 12.1229 8.06714 12.1229 8.02186V7.78636H12.2083C12.2536 7.78636 12.2902 7.74971 12.2902 7.70443C12.2902 7.65914 12.2535 7.62249 12.2083 7.62249Z" fill="#FFE15A"/>
<path d="M12.0408 8.26763C12.1313 8.26763 12.2047 8.19426 12.2047 8.10376C12.2047 8.01325 12.1313 7.93988 12.0408 7.93988C11.9503 7.93988 11.877 8.01325 11.877 8.10376C11.877 8.19426 11.9503 8.26763 12.0408 8.26763Z" fill="#FFF0E1"/>
<path d="M10.8669 11.4011C10.9329 11.434 11.0099 11.4625 11.0887 11.4625C11.3602 11.4625 11.4932 11.309 11.4932 11.0376C11.4932 10.7661 11.3294 10.5614 11.058 10.5614C11.058 10.5614 11.0274 10.5619 10.9784 10.5694C10.9678 10.5711 10.9574 10.5727 10.9471 10.575C10.6861 10.6248 10.0412 10.8652 9.91113 12.0359C9.7293 13.6724 11.058 15.1489 12.0411 15.4766V15.3127C12.041 15.3128 9.71997 13.5379 10.8669 11.4011Z" fill="#FFC75A"/>
<path d="M11.0579 10.7252L12.0409 11.0529L11.0579 11.3806V10.7252Z" fill="#FFC75A"/>
<path d="M13.024 11.3806L12.041 11.0529L13.024 10.7252V11.3806Z" fill="#FFE15A"/>
<path d="M10.074 12.054C10.1914 10.9976 10.7451 10.7804 10.9836 10.7347C10.9888 10.7336 10.9942 10.7328 11.0032 10.7313C11.0332 10.7267 11.0539 10.7255 11.0603 10.7252C11.2399 10.7264 11.3584 10.8617 11.3584 11.0256C11.3584 11.2062 11.2526 11.2747 11.1468 11.2781C11.1468 11.2781 11.2322 11.1006 11.058 11.0528C10.9406 11.0205 10.7918 11.1143 10.8055 11.2849C10.8151 11.4049 10.9289 11.5204 11.058 11.5204C11.3295 11.5204 11.5496 11.3242 11.5496 11.0528C11.5496 10.7813 11.3295 10.5613 11.058 10.5613C11.058 10.5613 11.0274 10.5618 10.9784 10.5693C10.9678 10.571 10.9574 10.5726 10.9471 10.5749C10.6861 10.6247 10.0412 10.8651 9.91113 12.0358C9.7293 13.6723 11.058 15.1488 12.0411 15.4764V15.3126C12.0411 15.3126 11.6929 15.1385 11.4549 14.9694C10.7195 14.4471 9.94123 13.2489 10.074 12.054Z" fill="#FFE15A"/>
<path d="M13.2152 11.4011C13.1492 11.434 13.0722 11.4625 12.9934 11.4625C12.7219 11.4625 12.5889 11.309 12.5889 11.0376C12.5889 10.7661 12.7527 10.5614 13.0241 10.5614C13.0241 10.5614 13.0547 10.5619 13.1037 10.5694C13.1143 10.5711 13.1247 10.5727 13.135 10.575C13.396 10.6248 14.0409 10.8652 14.171 12.0359C14.3528 13.6724 13.0241 15.1489 12.041 15.4766V15.3127C12.041 15.3128 14.3621 13.5379 13.2152 11.4011Z" fill="#FFC75A"/>
<path d="M13.024 10.7252L12.041 11.0529L13.024 11.3806V10.7252Z" fill="#FFC75A"/>
<path d="M14.0081 12.054C13.8907 10.9976 13.337 10.7804 13.0985 10.7347C13.0933 10.7336 13.0879 10.7328 13.0789 10.7313C13.0489 10.7267 13.0283 10.7255 13.0218 10.7252C12.8422 10.7264 12.7237 10.8617 12.7237 11.0256C12.7237 11.2062 12.8295 11.2747 12.9353 11.2781C12.9353 11.2781 12.8499 11.1006 13.0241 11.0528C13.1415 11.0205 13.2903 11.1143 13.2766 11.2849C13.267 11.4049 13.1532 11.5204 13.0241 11.5204C12.7526 11.5204 12.5325 11.3242 12.5325 11.0528C12.5325 10.7813 12.7526 10.5613 13.0241 10.5613C13.0241 10.5613 13.0547 10.5618 13.1037 10.5693C13.1143 10.571 13.1247 10.5726 13.135 10.5749C13.396 10.6247 14.0409 10.8651 14.171 12.0358C14.3528 13.6723 13.0241 15.1488 12.041 15.4764V15.3126C12.041 15.3126 12.3892 15.1385 12.6272 14.9694C13.3627 14.4471 14.1409 13.2489 14.0081 12.054Z" fill="#FFE15A"/>
<path d="M12.0408 11.217C12.1313 11.217 12.2047 11.1436 12.2047 11.0531C12.2047 10.9626 12.1313 10.8893 12.0408 10.8893C11.9503 10.8893 11.877 10.9626 11.877 11.0531C11.877 11.1436 11.9503 11.217 12.0408 11.217Z" fill="#FFE15A"/>
<path d="M13.211 9.73706C13.2545 9.62442 13.1956 9.47338 13.1956 9.47338C13.0446 9.46828 12.9396 9.57834 12.9396 9.57834C12.9524 9.44268 12.8935 9.31978 12.8935 9.31978C12.699 9.34279 12.635 9.45806 12.635 9.45806C12.6248 9.24557 12.4967 9.15853 12.4967 9.15853C12.3277 9.20971 12.2766 9.39403 12.2766 9.39403C12.251 9.18412 12.0411 9.08685 12.0411 9.08685C12.0411 9.08685 11.8312 9.18417 11.8056 9.39403C11.8056 9.39403 11.7544 9.20967 11.5854 9.15853C11.5854 9.15853 11.4574 9.24557 11.4472 9.45806C11.4472 9.45806 11.3832 9.34288 11.1886 9.31978C11.1886 9.31978 11.1297 9.44268 11.1425 9.57834C11.1425 9.57834 11.0376 9.46828 10.8865 9.47338C10.8865 9.47338 10.8277 9.62442 10.8712 9.73706C10.8712 9.73706 10.6997 9.68334 10.5588 9.76518C10.5588 9.76518 10.8169 9.86502 10.9029 9.98788H13.1792C13.2652 9.86498 13.5234 9.76518 13.5234 9.76518C13.3825 9.68334 13.211 9.73706 13.211 9.73706Z" fill="#FFC75A"/>
<path d="M13.1791 9.98794C13.1791 10.0616 13.0069 10.2895 13.0069 10.2895C13.0069 10.2895 12.4484 10.3673 12.041 10.3673C11.6309 10.3673 11.0712 10.2874 11.0712 10.2874C11.0712 10.2874 10.9028 10.0607 10.9028 9.98785C10.9028 9.77832 11.4124 9.60844 12.041 9.60844C12.6696 9.60849 13.1791 9.77841 13.1791 9.98794Z" fill="#FFE15A"/>
<path d="M12.0407 10.5614C12.5837 10.5614 13.024 10.4147 13.024 10.2338C13.024 10.0528 12.5837 9.9061 12.0407 9.9061C11.4976 9.9061 11.0574 10.0528 11.0574 10.2338C11.0574 10.4147 11.4976 10.5614 12.0407 10.5614Z" fill="#FFC75A"/>
<path d="M12.2816 8.41608C12.2816 8.30855 12.2014 8.172 12.041 8.26758C11.8805 8.172 11.8004 8.30855 11.8004 8.41608C11.8004 8.52361 11.6775 8.53898 11.6621 8.52872C11.6621 8.52872 11.7645 8.66184 11.8822 8.5748C11.8822 8.5748 11.9454 8.66695 12.041 8.66695C12.1365 8.66695 12.1997 8.5748 12.1997 8.5748C12.3175 8.66184 12.4198 8.52872 12.4198 8.52872C12.4045 8.53898 12.2816 8.52361 12.2816 8.41608Z" fill="#FFC75A"/>
<path d="M11.7133 16.3572C11.7041 16.3572 11.6947 16.3552 11.6859 16.3507C11.6555 16.3356 11.6432 16.2987 11.6584 16.2683L11.986 15.6129C12.0012 15.5828 12.0381 15.5702 12.0684 15.5855C12.0989 15.6006 12.1111 15.6375 12.0959 15.6679L11.7683 16.3233C11.7575 16.3448 11.7358 16.3572 11.7133 16.3572Z" fill="#B46446"/>
<path d="M12.3687 16.3572C12.3461 16.3572 12.3245 16.3448 12.3137 16.3233L11.986 15.6679C11.9708 15.6375 11.9831 15.6006 12.0135 15.5855C12.0438 15.57 12.0807 15.5826 12.0959 15.6129L12.4236 16.2682C12.4388 16.2987 12.4265 16.3356 12.3961 16.3507C12.3872 16.3552 12.3779 16.3572 12.3687 16.3572Z" fill="#B46446"/>
<path d="M13.5155 15.7838C12.5445 16.0009 11.5375 16.0009 10.5664 15.7838C10.5664 15.62 10.5664 15.3133 10.5664 15.1495C11.5375 15.3666 12.5445 15.3666 13.5155 15.1495C13.5155 15.3133 13.5155 15.62 13.5155 15.7838Z" fill="#F5F5F5"/>
<path d="M11.3788 15.545C10.7518 15.666 10.1091 15.6991 9.46973 15.6394C9.48051 15.7239 9.98615 15.975 9.98615 15.975C9.98615 15.975 9.53999 16.1906 9.54993 16.2687C10.162 16.3259 10.7773 16.2986 11.3788 16.1901V15.545Z" fill="#F5F5F5"/>
<path d="M12.7056 15.545C13.3326 15.666 13.9752 15.6991 14.6146 15.6394C14.6039 15.7239 14.0982 15.975 14.0982 15.975C14.0982 15.975 14.5444 16.1906 14.5344 16.2687C13.9223 16.3259 13.3071 16.2986 12.7056 16.1901V15.545Z" fill="#F5F5F5"/>
</svg>
